<svg width="1200" height="630" viewBox="0 0 1200 630" xmlns="http://www.w3.org/2000/svg"><defs><pattern id="satori_pattern_id_2" x="0" y="0" width="1" height="1" patternUnits="objectBoundingBox"><linearGradient id="satori_biid_2" x1="-0.09774620284174435" y1="0.18618324350808482" x2="1.0977462028417444" y2="0.8138167564919152" spreadMethod="pad"><stop offset="0%" stop-color="#16697A"/><stop offset="100%" stop-color="#218380"/></linearGradient><rect x="0" y="0" width="1200" height="630" fill="url(#satori_biid_2)"/></pattern><pattern id="satori_pattern_id_1" x="0" y="0" width="1" height="1" patternUnits="objectBoundingBox"><radialGradient id="satori_radial_id_1" spreadMethod="pad"><stop offset="0" stop-color="rgba(22, 105, 122, 0.3)"/><stop offset="0.5" stop-color="transparent"/><stop offset="1" stop-color="transparent"/></radialGradient><mask id="satori_mask_id_1"><rect x="0" y="0" width="1200" height="630" fill="#fff"/></mask><rect x="0" y="0" width="1200" height="630" fill="transparent"/><ellipse cx="960" cy="441" width="1200" height="630" ry="623.6681810065348" rx="1357.6450198781713" fill="url(#satori_radial_id_1)" mask="url(#satori_mask_id_1)"/></pattern><pattern id="satori_pattern_id_0" x="0" y="0" width="1" height="1" patternUnits="objectBoundingBox"><radialGradient id="satori_radial_id_0" spreadMethod="pad"><stop offset="0" stop-color="rgba(33, 131, 128, 0.4)"/><stop offset="0.5" stop-color="transparent"/><stop offset="1" stop-color="transparent"/></radialGradient><mask id="satori_mask_id_0"><rect x="0" y="0" width="1200" height="630" fill="#fff"/></mask><rect x="0" y="0" width="1200" height="630" fill="transparent"/><ellipse cx="240" cy="189" width="1200" height="630" ry="623.6681810065348" rx="1357.6450198781713" fill="url(#satori_radial_id_0)" mask="url(#satori_mask_id_0)"/></pattern></defs><clipPath id="satori_cp-id"><rect x="0" y="0" width="1200" height="630"/></clipPath><mask id="satori_om-id"><rect x="0" y="0" width="1200" height="630" fill="#fff"/></mask><rect x="0" y="0" width="1200" height="630" fill="url(#satori_pattern_id_2)"/><rect x="0" y="0" width="1200" height="630" fill="url(#satori_pattern_id_1)"/><rect x="0" y="0" width="1200" height="630" fill="url(#satori_pattern_id_0)"/><mask id="satori_om-id-0"><rect x="850" y="-150" width="500" height="500" fill="#fff" mask="url(#satori_om-id)"/></mask><path x="850" y="-150" width="500" height="500" fill="rgba(255, 255, 255, 0.03)" d="M1100,-150 h0 a250,250 0 0 1 250,250 v0 a250,250 0 0 1 -250,250 h0 a250,250 0 0 1 -250,-250 v0 a250,250 0 0 1 250,-250" clip-path="url(#satori_cp-id)" mask="url(#satori_om-id)"/><mask id="satori_om-id-1"><rect x="-200" y="230" width="600" height="600" fill="#fff" mask="url(#satori_om-id)"/></mask><path x="-200" y="230" width="600" height="600" fill="rgba(255, 255, 255, 0.02)" d="M100,230 h0 a300,300 0 0 1 300,300 v0 a300,300 0 0 1 -300,300 h0 a300,300 0 0 1 -300,-300 v0 a300,300 0 0 1 300,-300" clip-path="url(#satori_cp-id)" mask="url(#satori_om-id)"/><defs><clipPath id="satori_bc-id-2" clip-path="url(#satori_cp-id)"><path x="500" y="79" width="200" height="200" d="M600,79 h0 a100,100 0 0 1 100,100 v0 a100,100 0 0 1 -100,100 h0 a100,100 0 0 1 -100,-100 v0 a100,100 0 0 1 100,-100"/></clipPath></defs><mask id="satori_ms-id-2-0" maskUnits="userSpaceOnUse"><rect x="0" y="0" width="1200" height="630" fill="#fff"/><path x="500" y="79" width="200" height="200" fill="#000"  stroke-width="0" d="M600,79 h0 a100,100 0 0 1 100,100 v0 a100,100 0 0 1 -100,100 h0 a100,100 0 0 1 -100,-100 v0 a100,100 0 0 1 100,-100" clip-path="url(#satori_cp-id)" mask="url(#satori_om-id)"/></mask><defs><filter id="satori_s-id-2-0" x="-450%" y="-450%" width="1000%" height="1000%"><feGaussianBlur stdDeviation="30" result="b"/><feFlood flood-color="rgba(0, 0, 0, 0.15)" in="SourceGraphic" result="f"/><feComposite in="f" in2="b" operator="in"/></filter></defs><g mask="url(#satori_ms-id-2-0)" filter="url(#satori_s-id-2-0)" opacity="1"><path x="500" y="99" width="200" height="200" fill="#fff" stroke="#fff" stroke-width="0" d="M600,99 h0 a100,100 0 0 1 100,100 v0 a100,100 0 0 1 -100,100 h0 a100,100 0 0 1 -100,-100 v0 a100,100 0 0 1 100,-100" clip-path="url(#satori_cp-id)" mask="url(#satori_om-id)"/></g><mask id="satori_om-id-2"><rect x="506" y="85" width="188" height="188" fill="#fff" mask="url(#satori_om-id)"/><path width="200" height="200" fill="none" stroke="#000" stroke-width="12" d="M529.289,108.289 A100,100 0 0 1 600,79 h0 a100,100 0 0 1 100,100 v0 a100,100 0 0 1 -100,100 h0 a100,100 0 0 1 -100,-100 v0 A100,100 0 0 1 529.289,108.289"/></mask><path x="500" y="79" width="200" height="200" fill="#FFFFFF" d="M600,79 h0 a100,100 0 0 1 100,100 v0 a100,100 0 0 1 -100,100 h0 a100,100 0 0 1 -100,-100 v0 a100,100 0 0 1 100,-100" clip-path="url(#satori_cp-id)" mask="url(#satori_om-id)"/><path width="200" height="200" clip-path="url(#satori_bc-id-2)" fill="none" stroke="#FFFFFF" stroke-width="12" d="M529.289,108.289 A100,100 0 0 1 600,79 h0 a100,100 0 0 1 100,100 v0 a100,100 0 0 1 -100,100 h0 a100,100 0 0 1 -100,-100 v0 A100,100 0 0 1 529.289,108.289"/><mask id="satori_om-id-2-0"><rect x="550" y="143" width="101" height="72" fill="#fff" mask="url(#satori_om-id)"/></mask><g mask="url(#satori_om-id)" clip-path="url(#satori_cp-id)"><path fill="#16697A" d="M599.0 178.9L599.0 178.9Q599.0 186.8 595.9 192.4Q592.8 198.1 587.4 201.0Q582.0 204 574.9 204L574.9 204L554.8 204L554.8 154.5L572.7 154.5Q585.3 154.5 592.1 160.8Q599.0 167.1 599.0 178.9ZM588.5 178.9L588.5 178.9Q588.5 170.9 584.4 166.7Q580.2 162.5 572.5 162.5L572.5 162.5L565.2 162.5L565.2 196.0L574.0 196.0Q580.7 196.0 584.6 191.4Q588.5 186.8 588.5 178.9ZM647.2 189.7L647.2 189.7Q647.2 197.0 641.8 200.9Q636.4 204.7 626.0 204.7L626.0 204.7Q607.2 204.7 604.1 191.1L604.1 191.1L614.1 189.4Q615.1 193.4 618.1 195.2Q621.0 196.9 626.3 196.9L626.3 196.9Q637.1 196.9 637.1 190.3L637.1 190.3Q637.1 188.2 635.9 186.8Q634.7 185.5 632.4 184.6L632.4 184.6Q630.1 183.7 623.7 182.3L623.7 182.3Q619.9 181.5 617.8 180.8Q615.7 180.2 614.4 179.7Q613.2 179.1 612.0 178.4L612.0 178.4Q609.3 176.8 607.9 174.2Q606.4 171.5 606.4 167.6L606.4 167.6Q606.4 160.9 611.4 157.3Q616.5 153.7 626.1 153.7L626.1 153.7Q635.3 153.7 639.9 156.6Q644.6 159.5 645.9 166.1L645.9 166.1L635.9 167.5Q635.1 164.3 632.7 162.7Q630.3 161.1 625.9 161.1L625.9 161.1Q616.5 161.1 616.5 167.0L616.5 167.0Q616.5 168.9 617.5 170.1Q618.5 171.4 620.5 172.3L620.5 172.3Q622.3 173.1 628.4 174.4L628.4 174.4Q635.6 175.9 638.7 177.2L638.7 177.2Q641.8 178.5 643.5 180.2L643.5 180.2Q647.2 183.7 647.2 189.7Z "/></g><mask id="satori_om-id-3"><rect x="388" y="319" width="425" height="2" fill="#fff" mask="url(#satori_om-id)"/></mask><g mask="url(#satori_om-id)" clip-path="url(#satori_cp-id)"><path fill="#FFFFFF" d="M420.6 347.2L420.6 347.2Q420.6 352.5 418.6 356.3Q416.5 360.0 412.9 362.0Q409.3 364 404.6 364L404.6 364L391.2 364L391.2 331.0L403.2 331.0Q411.5 331.0 416.1 335.2Q420.6 339.4 420.6 347.2ZM413.7 347.2L413.7 347.2Q413.7 341.9 410.9 339.1Q408.2 336.3 403.0 336.3L403.0 336.3L398.1 336.3L398.1 358.7L404.0 358.7Q408.4 358.7 411.1 355.6Q413.7 352.5 413.7 347.2ZM432.6 351.6L432.6 351.6L432.6 364L426.0 364L426.0 344.6Q426.0 342.5 426.0 341.1Q425.9 339.7 425.8 338.6L425.8 338.6L432.1 338.6Q432.2 338.9 432.2 339.6Q432.3 340.3 432.3 341.2Q432.3 342.1 432.4 342.9Q432.4 343.7 432.4 344.1L432.4 344.1L432.5 344.1Q433.4 341.4 434.2 340.3L434.2 340.3Q435.0 339.2 436 338.7Q437.0 338.1 438.6 338.1L438.6 338.1Q439.8 338.1 440.6 338.5L440.6 338.5L440.6 344.0Q439.0 343.7 437.8 343.7L437.8 343.7Q435.3 343.7 434.0 345.6Q432.6 347.6 432.6 351.6ZM442.0 356.9L448.7 356.9L448.7 364L442.0 364L442.0 356.9Z M498.2 354.5L498.2 354.5Q498.2 359.3 494.6 361.9Q491.0 364.5 484 364.5L484 364.5Q471.5 364.5 469.4 355.4L469.4 355.4L476.1 354.3Q476.8 356.9 478.7 358.1Q480.7 359.3 484.2 359.3L484.2 359.3Q491.4 359.3 491.4 354.9L491.4 354.9Q491.4 353.5 490.6 352.6Q489.8 351.6 488.3 351.0L488.3 351.0Q486.8 350.5 482.5 349.6L482.5 349.6Q480.0 349.0 478.6 348.6Q477.2 348.2 476.3 347.8Q475.5 347.4 474.7 346.9L474.7 346.9Q472.9 345.9 471.9 344.1Q470.9 342.3 470.9 339.7L470.9 339.7Q470.9 335.2 474.3 332.9Q477.7 330.5 484.1 330.5L484.1 330.5Q490.2 330.5 493.3 332.4Q496.4 334.3 497.3 338.8L497.3 338.8L490.6 339.7Q490.1 337.5 488.5 336.5Q486.9 335.4 484.0 335.4L484.0 335.4Q477.7 335.4 477.7 339.3L477.7 339.3Q477.7 340.6 478.3 341.4Q479.0 342.3 480.3 342.8L480.3 342.8Q481.6 343.4 485.6 344.3L485.6 344.3Q490.4 345.3 492.5 346.1L492.5 346.1Q494.5 347.0 495.7 348.1L495.7 348.1Q498.2 350.5 498.2 354.5ZM509.8 343.7L509.9 343.7Q511.2 340.8 513.2 339.5Q515.2 338.2 518.0 338.2L518.0 338.2Q522.1 338.2 524.2 340.7Q526.4 343.1 526.4 347.9L526.4 347.9L526.4 364L519.8 364L519.8 349.8Q519.8 343.1 515.3 343.1L515.3 343.1Q512.9 343.1 511.4 345.2Q510.0 347.2 510.0 350.4L510.0 350.4L510.0 364L503.4 364L503.4 329.2L510.0 329.2L510.0 338.7Q510.0 340 509.9 341.2Q509.9 342.5 509.8 343.7L509.8 343.7ZM538.6 364.5L538.6 364.5Q534.9 364.5 532.8 362.5Q530.8 360.5 530.8 356.8L530.8 356.8Q530.8 352.9 533.3 350.9Q535.9 348.8 540.8 348.7L540.8 348.7L546.2 348.6L546.2 347.3Q546.2 344.9 545.4 343.6Q544.5 342.4 542.5 342.4L542.5 342.4Q540.7 342.4 539.8 343.3Q539.0 344.1 538.8 346.0L538.8 346.0L531.9 345.7Q533.2 338.2 542.8 338.2L542.8 338.2Q547.6 338.2 550.2 340.5Q552.8 342.9 552.8 347.3L552.8 347.3L552.8 356.5Q552.8 358.6 553.3 359.4Q553.8 360.3 554.9 360.3L554.9 360.3Q555.6 360.3 556.4 360.1L556.4 360.1L556.4 363.7Q555.1 364.0 554.3 364.1Q553.4 364.3 552.1 364.3L552.1 364.3Q549.6 364.3 548.5 363.1Q547.3 361.8 547.0 359.5L547.0 359.5L546.9 359.5Q544.1 364.5 538.6 364.5ZM546.2 353.5L546.2 352.3L542.9 352.3Q540.5 352.4 539.6 352.8L539.6 352.8Q538.6 353.2 538.1 354.1Q537.6 354.9 537.6 356.3L537.6 356.3Q537.6 358.1 538.5 359.0Q539.3 359.9 540.7 359.9L540.7 359.9Q542.2 359.9 543.5 359.0L543.5 359.0Q544.8 358.2 545.5 356.7Q546.2 355.2 546.2 353.5L546.2 353.5ZM559.4 329.2L566.0 329.2L566.0 334.1L559.4 334.1L559.4 329.2ZM559.4 338.6L566.0 338.6L566.0 364L559.4 364L559.4 338.6ZM572.7 329.2L579.3 329.2L579.3 364L572.7 364L572.7 329.2ZM607.8 352.6L591.5 352.6Q591.5 356.3 592.9 358.2Q594.3 360.1 596.8 360.1L596.8 360.1Q600.3 360.1 601.2 357.0L601.2 357.0L607.4 357.6Q604.7 364.5 596.5 364.5L596.5 364.5Q590.7 364.5 587.7 361.1Q584.6 357.7 584.6 351.2L584.6 351.2Q584.6 344.9 587.7 341.5Q590.8 338.2 596.5 338.2L596.5 338.2Q602.0 338.2 604.9 341.8Q607.8 345.4 607.8 352.4L607.8 352.4L607.8 352.6ZM591.6 348.5L601.4 348.5Q601.2 345.4 599.9 343.9Q598.6 342.3 596.5 342.3L596.5 342.3Q594.1 342.3 592.9 343.9Q591.6 345.6 591.6 348.5L591.6 348.5ZM634.1 356.6L634.1 356.6Q634.1 360.3 631.1 362.4Q628.1 364.5 622.8 364.5L622.8 364.5Q617.6 364.5 614.8 362.8Q612.0 361.2 611.1 357.7L611.1 357.7L616.9 356.8Q617.4 358.6 618.6 359.4Q619.8 360.1 622.8 360.1L622.8 360.1Q625.6 360.1 626.8 359.4Q628.1 358.7 628.1 357.2L628.1 357.2Q628.1 356.0 627.1 355.3Q626.1 354.6 623.6 354.1L623.6 354.1Q618.1 353.0 616.1 352L616.1 352Q614.1 351.0 613.1 349.5Q612.1 348.0 612.1 345.8L612.1 345.8Q612.1 342.2 614.9 340.2Q617.7 338.1 622.8 338.1L622.8 338.1Q627.4 338.1 630.1 339.9Q632.9 341.7 633.6 345.0L633.6 345.0L627.7 345.6Q627.4 344.1 626.3 343.3Q625.2 342.5 622.8 342.5L622.8 342.5Q620.5 342.5 619.3 343.1Q618.2 343.7 618.2 345.1L618.2 345.1Q618.2 346.2 619.1 346.9Q620.0 347.5 622.1 347.9L622.1 347.9Q625.1 348.6 627.4 349.2Q629.7 349.8 631.1 350.7L631.1 350.7Q632.5 351.6 633.3 353.0Q634.1 354.4 634.1 356.6ZM645.9 343.7L646.0 343.7Q647.3 340.8 649.3 339.5Q651.3 338.2 654.1 338.2L654.1 338.2Q658.1 338.2 660.3 340.7Q662.5 343.1 662.5 347.9L662.5 347.9L662.5 364L655.9 364L655.9 349.8Q655.9 343.1 651.4 343.1L651.4 343.1Q649.0 343.1 647.5 345.2Q646.0 347.2 646.0 350.4L646.0 350.4L646.0 364L639.5 364L639.5 329.2L646.0 329.2L646.0 338.7Q646.0 340 646 341.2Q646.0 342.5 645.9 343.7L645.9 343.7Z M708.9 354.5L708.9 354.5Q708.9 359.3 705.3 361.9Q701.7 364.5 694.8 364.5L694.8 364.5Q682.2 364.5 680.1 355.4L680.1 355.4L686.8 354.3Q687.5 356.9 689.5 358.1Q691.4 359.3 694.9 359.3L694.9 359.3Q702.2 359.3 702.2 354.9L702.2 354.9Q702.2 353.5 701.4 352.6Q700.5 351.6 699.0 351.0L699.0 351.0Q697.5 350.5 693.2 349.6L693.2 349.6Q690.7 349.0 689.3 348.6Q687.9 348.2 687.1 347.8Q686.2 347.4 685.4 346.9L685.4 346.9Q683.7 345.9 682.7 344.1Q681.7 342.3 681.7 339.7L681.7 339.7Q681.7 335.2 685.1 332.9Q688.4 330.5 694.8 330.5L694.8 330.5Q701.0 330.5 704.1 332.4Q707.1 334.3 708.0 338.8L708.0 338.8L701.3 339.7Q700.8 337.5 699.2 336.5Q697.7 335.4 694.7 335.4L694.7 335.4Q688.4 335.4 688.4 339.3L688.4 339.3Q688.4 340.6 689.1 341.4Q689.8 342.3 691.1 342.8L691.1 342.8Q692.3 343.4 696.4 344.3L696.4 344.3Q701.2 345.3 703.2 346.1L703.2 346.1Q705.3 347.0 706.4 348.1L706.4 348.1Q708.9 350.5 708.9 354.5ZM714.1 329.2L720.7 329.2L720.7 334.1L714.1 334.1L714.1 329.2ZM714.1 338.6L720.7 338.6L720.7 364L714.1 364L714.1 338.6ZM734.1 350.4L734.1 350.4L734.1 364L727.5 364L727.5 344.3Q727.5 342.3 727.4 341.0Q727.4 339.7 727.3 338.6L727.3 338.6L733.6 338.6Q733.6 338.9 733.7 340.0Q733.8 341.0 733.8 342.1Q733.9 343.2 733.9 343.7L733.9 343.7L734.0 343.7Q735.3 340.8 737.3 339.5Q739.3 338.1 742.1 338.1L742.1 338.1Q746.1 338.1 748.3 340.6Q750.5 343.1 750.5 347.9L750.5 347.9L750.5 364L743.9 364L743.9 349.8Q743.9 343.1 739.4 343.1L739.4 343.1Q737.0 343.1 735.5 345.1Q734.1 347.2 734.1 350.4ZM767.4 374.2L767.4 374.2Q762.8 374.2 759.9 372.4Q757.1 370.6 756.5 367.4L756.5 367.4L763.0 366.6Q763.4 368.1 764.6 369.0Q765.7 369.8 767.6 369.8L767.6 369.8Q770.3 369.8 771.6 368.1Q772.9 366.5 772.9 363.1L772.9 363.1L772.9 359.3L772.9 359.3Q770.7 364.0 764.7 364.0L764.7 364.0Q760.3 364.0 757.8 360.6Q755.4 357.3 755.4 351.1L755.4 351.1Q755.4 344.9 757.9 341.5Q760.4 338.1 765.2 338.1L765.2 338.1Q770.7 338.1 772.9 342.7L772.9 342.7L773.0 342.7Q773.0 342.2 773.0 341.3Q773.1 340.5 773.2 339.7Q773.2 338.9 773.3 338.6L773.3 338.6L779.5 338.6Q779.4 341.2 779.4 344.5L779.4 344.5L779.4 363.2Q779.4 368.6 776.3 371.4Q773.3 374.2 767.4 374.2ZM772.9 351.0L772.9 351.0Q772.9 347.1 771.5 344.9Q770.1 342.7 767.5 342.7L767.5 342.7Q762.3 342.7 762.3 351.1L762.3 351.1Q762.3 359.4 767.5 359.4L767.5 359.4Q770.1 359.4 771.5 357.2Q772.9 355 772.9 351.0ZM792.5 343.7L792.6 343.7Q793.9 340.8 796.0 339.5Q798.0 338.2 800.8 338.2L800.8 338.2Q804.8 338.2 806.9 340.7Q809.1 343.1 809.1 347.9L809.1 347.9L809.1 364L802.5 364L802.5 349.8Q802.5 343.1 798.0 343.1L798.0 343.1Q795.6 343.1 794.2 345.2Q792.7 347.2 792.7 350.4L792.7 350.4L792.7 364L786.1 364L786.1 329.2L792.7 329.2L792.7 338.7Q792.7 340 792.6 341.2Q792.6 342.5 792.5 343.7L792.5 343.7Z "/></g><mask id="satori_om-id-4"><rect x="369" y="333" width="462" height="1" fill="#fff" mask="url(#satori_om-id)"/></mask><g mask="url(#satori_om-id)" clip-path="url(#satori_cp-id)"><path fill="rgba(255, 255, 255, 0.85)" d="M378.4 356.4L378.4 356.4Q381.8 356.4 383.6 353.0L383.6 353.0L385.4 353.9Q384.4 356.0 382.6 357.1Q380.7 358.2 378.3 358.2L378.3 358.2Q375.8 358.2 374.0 357.2Q372.2 356.1 371.2 354.2Q370.2 352.3 370.2 349.7L370.2 349.7Q370.2 347.0 371.2 345.1Q372.1 343.3 373.9 342.3Q375.8 341.2 378.3 341.2L378.3 341.2Q383.6 341.2 385.3 345.3L385.3 345.3L383.1 346.0Q382.6 344.6 381.3 343.8Q380.0 343.1 378.3 343.1L378.3 343.1Q375.5 343.1 374.0 344.8Q372.5 346.6 372.5 349.7L372.5 349.7Q372.5 351.7 373.2 353.2Q373.9 354.7 375.3 355.6Q376.6 356.4 378.4 356.4ZM392.2 358.2L392.2 358.2Q390.3 358.2 389.3 357.2Q388.4 356.2 388.4 354.5L388.4 354.5Q388.4 352.5 389.6 351.4Q390.9 350.4 393.8 350.3L393.8 350.3L396.7 350.3L396.7 349.6Q396.7 348.0 396.0 347.4Q395.4 346.7 394.0 346.7L394.0 346.7Q392.5 346.7 391.9 347.2Q391.2 347.7 391.1 348.7L391.1 348.7L388.9 348.5Q389.5 345.1 394 345.1L394 345.1Q396.4 345.1 397.6 346.2Q398.8 347.3 398.8 349.4L398.8 349.4L398.8 354.8Q398.8 355.8 399.1 356.2Q399.3 356.7 400.0 356.7L400.0 356.7Q400.3 356.7 400.7 356.6L400.7 356.6L400.7 357.9Q399.9 358.1 399.1 358.1L399.1 358.1Q397.9 358.1 397.3 357.5Q396.8 356.9 396.7 355.6L396.7 355.6L396.7 355.6Q395.9 357.0 394.8 357.6Q393.7 358.2 392.2 358.2ZM396.7 352.8L396.7 351.7L394.4 351.8Q392.9 351.8 392.1 352.1L392.1 352.1Q391.3 352.4 390.9 353.0Q390.5 353.5 390.5 354.5L390.5 354.5Q390.5 355.5 391.1 356.1Q391.6 356.7 392.7 356.7L392.7 356.7Q393.8 356.7 394.7 356.1L394.7 356.1Q395.6 355.6 396.2 354.7Q396.7 353.8 396.7 352.8L396.7 352.8ZM405.5 351.4L405.5 351.4L405.5 358L403.3 358L403.3 348.3Q403.3 346.9 403.3 345.3L403.3 345.3L405.3 345.3Q405.3 346.4 405.3 347.0Q405.4 347.7 405.4 347.9L405.4 347.9L405.4 347.9Q405.8 346.8 406.2 346.1L406.2 346.1Q406.6 345.5 407.1 345.3Q407.6 345.1 408.4 345.1L408.4 345.1Q408.9 345.1 409.3 345.2L409.3 345.2L409.3 347.1Q408.9 347.0 408.1 347.0L408.1 347.0Q406.8 347.0 406.1 348.2Q405.5 349.3 405.5 351.4ZM422.5 358L420.5 358Q420.4 357.9 420.4 357.5Q420.4 357.2 420.4 356.7Q420.3 356.3 420.3 356.0L420.3 356.0L420.3 356.0Q419.7 357.2 418.7 357.7Q417.8 358.2 416.3 358.2L416.3 358.2Q413.9 358.2 412.8 356.6Q411.7 355 411.7 351.7L411.7 351.7Q411.7 345.1 416.3 345.1L416.3 345.1Q417.8 345.1 418.7 345.6Q419.7 346.1 420.3 347.3L420.3 347.3L420.3 347.3L420.3 345.9L420.3 340.6L422.4 340.6L422.4 355.4Q422.4 357.4 422.5 358L422.5 358ZM413.9 351.6L413.9 351.6Q413.9 354.3 414.6 355.5Q415.3 356.6 416.9 356.6L416.9 356.6Q418.7 356.6 419.5 355.4Q420.3 354.1 420.3 351.5L420.3 351.5Q420.3 349.0 419.5 347.8Q418.7 346.6 416.9 346.6L416.9 346.6Q415.3 346.6 414.6 347.8Q413.9 349 413.9 351.6ZM426.6 340.6L428.7 340.6L428.7 342.6L426.6 342.6L426.6 340.6ZM426.6 345.3L428.7 345.3L428.7 358L426.6 358L426.6 345.3ZM443.7 351.6L443.7 351.6Q443.7 355.0 442.2 356.6Q440.8 358.2 438.0 358.2L438.0 358.2Q435.2 358.2 433.8 356.5Q432.4 354.8 432.4 351.6L432.4 351.6Q432.4 345.1 438.0 345.1L438.0 345.1Q440.9 345.1 442.3 346.7Q443.7 348.3 443.7 351.6ZM441.5 351.6L441.5 351.6Q441.5 349.0 440.7 347.8Q439.9 346.6 438.1 346.6L438.1 346.6Q436.2 346.6 435.4 347.9Q434.6 349.1 434.6 351.6L434.6 351.6Q434.6 354.2 435.4 355.4Q436.2 356.7 437.9 356.7L437.9 356.7Q439.8 356.7 440.7 355.5Q441.5 354.2 441.5 351.6ZM447.3 340.6L449.4 340.6L449.4 358L447.3 358L447.3 340.6ZM464.4 351.6L464.4 351.6Q464.4 355.0 462.9 356.6Q461.4 358.2 458.7 358.2L458.7 358.2Q455.9 358.2 454.5 356.5Q453.0 354.8 453.0 351.6L453.0 351.6Q453.0 345.1 458.7 345.1L458.7 345.1Q461.6 345.1 463 346.7Q464.4 348.3 464.4 351.6ZM462.2 351.6L462.2 351.6Q462.2 349.0 461.4 347.8Q460.6 346.6 458.8 346.6L458.8 346.6Q456.9 346.6 456.1 347.9Q455.3 349.1 455.3 351.6L455.3 351.6Q455.3 354.2 456.1 355.4Q456.9 356.7 458.6 356.7L458.6 356.7Q460.5 356.7 461.3 355.5Q462.2 354.2 462.2 351.6ZM472.8 363.0L472.8 363.0Q470.7 363.0 469.5 362.2Q468.3 361.4 467.9 359.9L467.9 359.9L470.0 359.5Q470.5 361.4 472.9 361.4L472.9 361.4Q476.0 361.4 476.0 357.7L476.0 357.7L476.0 355.6L476.0 355.6Q475.4 356.9 474.3 357.5Q473.3 358.1 471.9 358.1L471.9 358.1Q469.6 358.1 468.5 356.5Q467.4 355 467.4 351.7L467.4 351.7Q467.4 348.3 468.6 346.7Q469.7 345.1 472.1 345.1L472.1 345.1Q473.5 345.1 474.5 345.7Q475.5 346.4 476.0 347.5L476.0 347.5L476.0 347.5Q476.0 347.3 476.1 346.8Q476.1 346.3 476.1 345.8Q476.2 345.4 476.2 345.3L476.2 345.3L478.2 345.3Q478.1 346.0 478.1 347.9L478.1 347.9L478.1 357.6Q478.1 363.0 472.8 363.0ZM476.0 351.7L476.0 351.7Q476.0 349.4 475.1 348.0Q474.1 346.7 472.7 346.7L472.7 346.7Q471.0 346.7 470.3 347.9Q469.6 349.0 469.6 351.7L469.6 351.7Q469.6 354.3 470.3 355.4Q470.9 356.5 472.6 356.5L472.6 356.5Q474.1 356.5 475.1 355.2Q476.0 353.9 476.0 351.7ZM482.3 340.6L484.4 340.6L484.4 342.6L482.3 342.6L482.3 340.6ZM482.3 345.3L484.4 345.3L484.4 358L482.3 358L482.3 345.3ZM498.2 354.5L498.2 354.5Q498.2 356.3 496.8 357.3Q495.5 358.2 493.0 358.2L493.0 358.2Q490.7 358.2 489.4 357.5Q488.1 356.7 487.7 355.0L487.7 355.0L489.6 354.7Q490.1 356.6 493.0 356.6L493.0 356.6Q494.7 356.6 495.4 356.1Q496.1 355.6 496.1 354.7L496.1 354.7Q496.1 353.9 495.6 353.4Q495.1 353.0 494.0 352.7L494.0 352.7Q492.6 352.3 491.8 352.1Q491.0 351.8 490.6 351.7Q490.1 351.5 489.9 351.3L489.9 351.3Q489.1 350.9 488.7 350.3Q488.2 349.6 488.2 348.7L488.2 348.7Q488.2 346.9 489.5 346.0Q490.7 345.1 493.1 345.1L493.1 345.1Q495.2 345.1 496.4 345.9Q497.6 346.6 498.0 348.2L498.0 348.2L496.1 348.5Q495.7 346.7 493.1 346.7L493.1 346.7Q490.3 346.7 490.3 348.5L490.3 348.5Q490.3 349.1 490.7 349.5Q491.1 349.9 492.1 350.2L492.1 350.2Q493.6 350.6 494.9 351.0Q496.3 351.4 496.8 351.8L496.8 351.8Q497.5 352.3 497.8 352.9Q498.2 353.6 498.2 354.5ZM506.6 356.3L506.6 357.9Q505.5 358.2 504.4 358.2L504.4 358.2Q501.9 358.2 501.9 355.3L501.9 355.3L501.9 346.9L500.4 346.9L500.4 345.3L502.0 345.3L502.6 342.5L504.0 342.5L504.0 345.3L506.3 345.3L506.3 346.9L504.0 346.9L504.0 354.9Q504.0 355.8 504.3 356.1Q504.6 356.5 505.3 356.5L505.3 356.5Q505.7 356.5 506.6 356.3L506.6 356.3Z M517.5 340.6L519.5 340.6L519.5 363.1L517.5 363.1L517.5 340.6Z M534.5 356.2L545.3 356.2L545.3 358L532.3 358L532.3 341.5L544.8 341.5L544.8 343.3L534.5 343.3L534.5 348.6L544.1 348.6L544.1 350.4L534.5 350.4L534.5 356.2ZM557.0 345.3L559.2 345.3L554.5 358L552.0 358L547.4 345.3L549.6 345.3L552.4 353.6Q552.6 354.0 553.2 356.3L553.2 356.3Q553.5 355.7 553.7 354.9Q553.9 354.1 554.1 353.6L554.1 353.6L557.0 345.3ZM561.9 340.6L564.0 340.6L564.0 342.6L561.9 342.6L561.9 340.6ZM561.9 345.3L564.0 345.3L564.0 358L561.9 358L561.9 345.3ZM578.4 358L576.4 358Q576.4 357.9 576.4 357.5Q576.3 357.2 576.3 356.7Q576.3 356.3 576.3 356.0L576.3 356.0L576.3 356.0Q575.7 357.2 574.7 357.7Q573.7 358.2 572.3 358.2L572.3 358.2Q569.9 358.2 568.8 356.6Q567.6 355 567.6 351.7L567.6 351.7Q567.6 345.1 572.3 345.1L572.3 345.1Q573.8 345.1 574.7 345.6Q575.7 346.1 576.3 347.3L576.3 347.3L576.3 347.3L576.3 345.9L576.3 340.6L578.4 340.6L578.4 355.4Q578.4 357.4 578.4 358L578.4 358ZM569.9 351.6L569.9 351.6Q569.9 354.3 570.6 355.5Q571.3 356.6 572.8 356.6L572.8 356.6Q574.6 356.6 575.4 355.4Q576.3 354.1 576.3 351.5L576.3 351.5Q576.3 349.0 575.4 347.8Q574.6 346.6 572.9 346.6L572.9 346.6Q571.3 346.6 570.6 347.8Q569.9 349 569.9 351.6ZM593.3 352.1L584.2 352.1Q584.2 354.3 585.1 355.5Q586.0 356.7 587.8 356.7L587.8 356.7Q589.1 356.7 590.0 356.1Q590.8 355.6 591.1 354.7L591.1 354.7L592.9 355.2Q591.8 358.2 587.8 358.2L587.8 358.2Q584.9 358.2 583.5 356.6Q582.0 354.9 582.0 351.6L582.0 351.6Q582.0 348.4 583.5 346.8Q584.9 345.1 587.7 345.1L587.7 345.1Q593.3 345.1 593.3 351.8L593.3 351.8L593.3 352.1ZM584.2 350.5L591.1 350.5Q590.9 348.5 590.1 347.6Q589.2 346.6 587.6 346.6L587.6 346.6Q586.1 346.6 585.2 347.7Q584.3 348.7 584.2 350.5L584.2 350.5ZM599.1 350.7L599.1 350.7L599.1 358L597.0 358L597.0 348.0Q597.0 345.8 596.9 345.3L596.9 345.3L598.9 345.3Q599.0 345.7 599.0 346.2Q599 346.8 599.0 347.5L599.0 347.5L599.0 347.5Q599.8 346.2 600.7 345.6Q601.7 345.1 603.1 345.1L603.1 345.1Q605.2 345.1 606.2 346.2Q607.1 347.2 607.1 349.6L607.1 349.6L607.1 358L605 358L605 350.0Q605 348.1 604.4 347.4Q603.8 346.7 602.4 346.7L602.4 346.7Q600.9 346.7 600.0 347.8Q599.1 348.8 599.1 350.7ZM616.2 358.2L616.2 358.2Q613.5 358.2 612.1 356.6Q610.7 354.9 610.7 351.6L610.7 351.6Q610.7 348.4 612.1 346.8Q613.5 345.1 616.1 345.1L616.1 345.1Q618.1 345.1 619.4 346.1Q620.6 347.1 621.0 348.9L621.0 348.9L618.8 349.0Q618.6 348.0 618.0 347.4Q617.3 346.7 616.1 346.7L616.1 346.7Q614.4 346.7 613.7 347.9Q612.9 349.0 612.9 351.6L612.9 351.6Q612.9 354.1 613.7 355.4Q614.5 356.6 616.1 356.6L616.1 356.6Q617.2 356.6 618.0 356.0Q618.7 355.4 618.9 354.1L618.9 354.1L621.0 354.2Q620.8 356.1 619.5 357.1Q618.2 358.2 616.2 358.2ZM635.0 352.1L625.9 352.1Q625.9 354.3 626.8 355.5Q627.7 356.7 629.5 356.7L629.5 356.7Q630.8 356.7 631.7 356.1Q632.5 355.6 632.8 354.7L632.8 354.7L634.6 355.2Q633.5 358.2 629.5 358.2L629.5 358.2Q626.6 358.2 625.2 356.6Q623.7 354.9 623.7 351.6L623.7 351.6Q623.7 348.4 625.2 346.8Q626.6 345.1 629.4 345.1L629.4 345.1Q635.0 345.1 635.0 351.8L635.0 351.8L635.0 352.1ZM625.9 350.5L632.8 350.5Q632.6 348.5 631.8 347.6Q630.9 346.6 629.3 346.6L629.3 346.6Q627.8 346.6 626.9 347.7Q626.0 348.7 625.9 350.5L625.9 350.5ZM638.1 350.7L644.0 350.7L644.0 352.6L638.1 352.6L638.1 350.7ZM660.8 353.3L660.8 353.3Q660.8 355.6 659.2 356.8Q657.6 358 654.7 358L654.7 358L648.0 358L648.0 341.5L654.0 341.5Q659.8 341.5 659.8 345.5L659.8 345.5Q659.8 347.0 659.0 348.0Q658.2 349.0 656.7 349.3L656.7 349.3Q658.6 349.5 659.7 350.6Q660.8 351.7 660.8 353.3ZM657.6 345.8L657.6 345.8Q657.6 344.4 656.6 343.9Q655.7 343.3 654.0 343.3L654.0 343.3L650.2 343.3L650.2 348.5L654.0 348.5Q657.6 348.5 657.6 345.8ZM658.5 353.2L658.5 353.2Q658.5 350.3 654.4 350.3L654.4 350.3L650.2 350.3L650.2 356.2L654.6 356.2Q656.6 356.2 657.6 355.4Q658.5 354.7 658.5 353.2ZM667.9 358.2L667.9 358.2Q666.0 358.2 665.0 357.2Q664.0 356.2 664.0 354.5L664.0 354.5Q664.0 352.5 665.3 351.4Q666.6 350.4 669.5 350.3L669.5 350.3L672.4 350.3L672.4 349.6Q672.4 348.0 671.7 347.4Q671.1 346.7 669.6 346.7L669.6 346.7Q668.2 346.7 667.6 347.2Q666.9 347.7 666.8 348.7L666.8 348.7L664.6 348.5Q665.1 345.1 669.7 345.1L669.7 345.1Q672.1 345.1 673.3 346.2Q674.5 347.3 674.5 349.4L674.5 349.4L674.5 354.8Q674.5 355.8 674.7 356.2Q675.0 356.7 675.7 356.7L675.7 356.7Q676.0 356.7 676.4 356.6L676.4 356.6L676.4 357.9Q675.6 358.1 674.7 358.1L674.7 358.1Q673.6 358.1 673.0 357.5Q672.5 356.9 672.4 355.6L672.4 355.6L672.4 355.6Q671.6 357.0 670.5 357.6Q669.4 358.2 667.9 358.2ZM672.4 352.8L672.4 351.7L670.1 351.8Q668.6 351.8 667.8 352.1L667.8 352.1Q667.0 352.4 666.6 353.0Q666.2 353.5 666.2 354.5L666.2 354.5Q666.2 355.5 666.8 356.1Q667.3 356.7 668.4 356.7L668.4 356.7Q669.5 356.7 670.4 356.1L670.4 356.1Q671.3 355.6 671.8 354.7Q672.4 353.8 672.4 352.8L672.4 352.8ZM688.5 354.5L688.5 354.5Q688.5 356.3 687.2 357.3Q685.8 358.2 683.4 358.2L683.4 358.2Q681.0 358.2 679.7 357.5Q678.4 356.7 678.0 355.0L678.0 355.0L679.9 354.7Q680.4 356.6 683.4 356.6L683.4 356.6Q685.0 356.6 685.7 356.1Q686.5 355.6 686.5 354.7L686.5 354.7Q686.5 353.9 685.9 353.4Q685.4 353.0 684.3 352.7L684.3 352.7Q682.9 352.3 682.1 352.1Q681.3 351.8 680.9 351.7Q680.4 351.5 680.2 351.3L680.2 351.3Q679.4 350.9 679.0 350.3Q678.5 349.6 678.5 348.7L678.5 348.7Q678.5 346.9 679.8 346.0Q681.0 345.1 683.4 345.1L683.4 345.1Q685.5 345.1 686.7 345.9Q688.0 346.6 688.3 348.2L688.3 348.2L686.4 348.5Q686.0 346.7 683.4 346.7L683.4 346.7Q680.6 346.7 680.6 348.5L680.6 348.5Q680.6 349.1 681.0 349.5Q681.4 349.9 682.5 350.2L682.5 350.2Q683.9 350.6 685.3 351.0Q686.6 351.4 687.1 351.8L687.1 351.8Q687.8 352.3 688.2 352.9Q688.5 353.6 688.5 354.5ZM702.7 352.1L693.6 352.1Q693.6 354.3 694.5 355.5Q695.4 356.7 697.1 356.7L697.1 356.7Q698.5 356.7 699.3 356.1Q700.2 355.6 700.5 354.7L700.5 354.7L702.3 355.2Q701.2 358.2 697.1 358.2L697.1 358.2Q694.3 358.2 692.9 356.6Q691.4 354.9 691.4 351.6L691.4 351.6Q691.4 348.4 692.9 346.8Q694.3 345.1 697.1 345.1L697.1 345.1Q702.7 345.1 702.7 351.8L702.7 351.8L702.7 352.1ZM693.6 350.5L700.5 350.5Q700.3 348.5 699.5 347.6Q698.6 346.6 697.0 346.6L697.0 346.6Q695.5 346.6 694.6 347.7Q693.7 348.7 693.6 350.5L693.6 350.5ZM716.5 358L714.5 358Q714.5 357.9 714.5 357.5Q714.4 357.2 714.4 356.7Q714.4 356.3 714.4 356.0L714.4 356.0L714.3 356.0Q713.8 357.2 712.8 357.7Q711.8 358.2 710.4 358.2L710.4 358.2Q708.0 358.2 706.9 356.6Q705.7 355 705.7 351.7L705.7 351.7Q705.7 345.1 710.4 345.1L710.4 345.1Q711.8 345.1 712.8 345.6Q713.8 346.1 714.3 347.3L714.3 347.3L714.4 347.3L714.3 345.9L714.3 340.6L716.5 340.6L716.5 355.4Q716.5 357.4 716.5 358L716.5 358ZM707.9 351.6L707.9 351.6Q707.9 354.3 708.6 355.5Q709.4 356.6 710.9 356.6L710.9 356.6Q712.7 356.6 713.5 355.4Q714.3 354.1 714.3 351.5L714.3 351.5Q714.3 349.0 713.5 347.8Q712.7 346.6 711.0 346.6L711.0 346.6Q709.4 346.6 708.7 347.8Q707.9 349 707.9 351.6Z M730.7 347.0L730.7 347.0L730.7 358L728.7 358L728.7 341.5L731.6 341.5L736.0 352.9Q736.3 353.6 736.5 354.4Q736.7 355.2 736.8 355.6L736.8 355.6Q736.9 355.2 737.0 354.7Q737.2 354.1 737.3 353.6Q737.5 353.1 737.6 352.9L737.6 352.9L741.9 341.5L744.8 341.5L744.8 358L742.7 358L742.7 347.0Q742.7 345.2 742.9 343.5L742.9 343.5Q742.6 344.5 742.3 345.3Q742.1 346.2 741.8 346.8L741.8 346.8L737.6 358L736.0 358L731.7 346.8L730.6 343.5Q730.6 344.3 730.7 345.2Q730.7 346.1 730.7 347.0ZM760.0 352.1L751.0 352.1Q751.0 354.3 751.9 355.5Q752.8 356.7 754.5 356.7L754.5 356.7Q755.9 356.7 756.7 356.1Q757.5 355.6 757.8 354.7L757.8 354.7L759.7 355.2Q758.5 358.2 754.5 358.2L754.5 358.2Q751.7 358.2 750.2 356.6Q748.8 354.9 748.8 351.6L748.8 351.6Q748.8 348.4 750.2 346.8Q751.7 345.1 754.4 345.1L754.4 345.1Q760.0 345.1 760.0 351.8L760.0 351.8L760.0 352.1ZM751.0 350.5L757.8 350.5Q757.7 348.5 756.8 347.6Q756.0 346.6 754.4 346.6L754.4 346.6Q752.9 346.6 752.0 347.7Q751.1 348.7 751.0 350.5L751.0 350.5ZM773.9 358L771.9 358Q771.8 357.9 771.8 357.5Q771.8 357.2 771.8 356.7Q771.7 356.3 771.7 356.0L771.7 356.0L771.7 356.0Q771.1 357.2 770.1 357.7Q769.2 358.2 767.8 358.2L767.8 358.2Q765.3 358.2 764.2 356.6Q763.1 355 763.1 351.7L763.1 351.7Q763.1 345.1 767.8 345.1L767.8 345.1Q769.2 345.1 770.2 345.6Q771.1 346.1 771.7 347.3L771.7 347.3L771.7 347.3L771.7 345.9L771.7 340.6L773.8 340.6L773.8 355.4Q773.8 357.4 773.9 358L773.9 358ZM765.3 351.6L765.3 351.6Q765.3 354.3 766.0 355.5Q766.7 356.6 768.3 356.6L768.3 356.6Q770.1 356.6 770.9 355.4Q771.7 354.1 771.7 351.5L771.7 351.5Q771.7 349.0 770.9 347.8Q770.1 346.6 768.3 346.6L768.3 346.6Q766.7 346.6 766.0 347.8Q765.3 349 765.3 351.6ZM778.0 340.6L780.1 340.6L780.1 342.6L778.0 342.6L778.0 340.6ZM778.0 345.3L780.1 345.3L780.1 358L778.0 358L778.0 345.3ZM789.2 358.2L789.2 358.2Q786.6 358.2 785.2 356.6Q783.8 354.9 783.8 351.6L783.8 351.6Q783.8 348.4 785.2 346.8Q786.6 345.1 789.2 345.1L789.2 345.1Q791.2 345.1 792.4 346.1Q793.7 347.1 794.1 348.9L794.1 348.9L791.9 349.0Q791.7 348.0 791.1 347.4Q790.4 346.7 789.2 346.7L789.2 346.7Q787.5 346.7 786.7 347.9Q786.0 349.0 786.0 351.6L786.0 351.6Q786.0 354.1 786.8 355.4Q787.6 356.6 789.2 356.6L789.2 356.6Q790.3 356.6 791.1 356.0Q791.8 355.4 792.0 354.1L792.0 354.1L794.1 354.2Q793.9 356.1 792.6 357.1Q791.3 358.2 789.2 358.2ZM797.4 340.6L799.5 340.6L799.5 342.6L797.4 342.6L797.4 340.6ZM797.4 345.3L799.5 345.3L799.5 358L797.4 358L797.4 345.3ZM805.9 350.7L805.9 350.7L805.9 358L803.8 358L803.8 348.0Q803.8 345.8 803.7 345.3L803.7 345.3L805.7 345.3Q805.7 345.7 805.7 346.2Q805.8 346.8 805.8 347.5L805.8 347.5L805.8 347.5Q806.5 346.2 807.5 345.6Q808.4 345.1 809.9 345.1L809.9 345.1Q811.9 345.1 812.9 346.2Q813.9 347.2 813.9 349.6L813.9 349.6L813.9 358L811.8 358L811.8 350.0Q811.8 348.1 811.2 347.4Q810.6 346.7 809.1 346.7L809.1 346.7Q807.6 346.7 806.7 347.8Q805.9 348.8 805.9 350.7ZM828.7 352.1L819.7 352.1Q819.7 354.3 820.6 355.5Q821.5 356.7 823.2 356.7L823.2 356.7Q824.6 356.7 825.4 356.1Q826.2 355.6 826.5 354.7L826.5 354.7L828.4 355.2Q827.2 358.2 823.2 358.2L823.2 358.2Q820.4 358.2 818.9 356.6Q817.5 354.9 817.5 351.6L817.5 351.6Q817.5 348.4 818.9 346.8Q820.4 345.1 823.1 345.1L823.1 345.1Q828.7 345.1 828.7 351.8L828.7 351.8L828.7 352.1ZM819.7 350.5L826.5 350.5Q826.4 348.5 825.5 347.6Q824.7 346.6 823.1 346.6L823.1 346.6Q821.6 346.6 820.7 347.7Q819.8 348.7 819.7 350.5L819.7 350.5Z "/></g><mask id="satori_om-id-5"><rect x="443" y="358" width="314" height="24" fill="#fff" mask="url(#satori_om-id)"/></mask><path x="443" y="358" width="314" height="24" fill="rgba(255, 255, 255, 0.1)" d="M455,358 h290 a12,12 0 0 1 12,12 v0 a12,12 0 0 1 -12,12 h-290 a12,12 0 0 1 -12,-12 v0 a12,12 0 0 1 12,-12" clip-path="url(#satori_cp-id)" mask="url(#satori_om-id)"/><g mask="url(#satori_om-id)" clip-path="url(#satori_cp-id)"><path fill="#E8F5F4" d="M496.7 385.1L496.7 385.1Q496.7 387.6 495.8 389.6L495.8 389.6Q494.9 391.7 493.4 392.8Q491.9 394.0 490.1 394.0L490.1 394.0Q488.8 394.0 488.2 393.4Q487.5 392.7 487.5 391.6L487.5 391.6Q487.5 391.1 487.6 390.7L487.6 390.7L487.5 390.7Q486.8 392.2 485.5 393.1Q484.1 394.0 482.7 394.0L482.7 394.0Q480.6 394.0 479.4 392.6Q478.2 391.2 478.2 388.7L478.2 388.7Q478.2 386.5 479.1 384.5L479.1 384.5Q480.0 382.6 481.5 381.5Q483.1 380.4 485.0 380.4L485.0 380.4Q487.7 380.4 488.6 382.7L488.6 382.7L488.7 382.7L489.3 380.7L491.4 380.7L489.8 387.6Q489.3 389.9 489.3 390.9L489.3 390.9Q489.3 391.5 489.6 391.8Q489.9 392.1 490.3 392.1L490.3 392.1Q491.4 392.1 492.4 391.2L492.4 391.2Q493.4 390.2 494.0 388.6Q494.6 387.0 494.6 385.1L494.6 385.1Q494.6 382.7 493.6 380.9L493.6 380.9Q492.5 379.0 490.5 378.0Q488.6 377.0 486.0 377.0L486.0 377.0Q482.7 377.0 480.2 378.5L480.2 378.5Q477.7 379.9 476.2 382.6Q474.8 385.3 474.8 388.7L474.8 388.7Q474.8 391.3 475.9 393.4L475.9 393.4Q477.0 395.4 479.0 396.4Q480.9 397.5 483.6 397.5L483.6 397.5Q487.6 397.5 491.6 395.3L491.6 395.3L492.5 397.0Q490.2 398.3 488.0 398.9Q485.8 399.4 483.5 399.4L483.5 399.4Q480.3 399.4 477.8 398.1L477.8 398.1Q475.3 396.8 474.0 394.4Q472.6 391.9 472.6 388.7L472.6 388.7Q472.6 384.8 474.3 381.7L474.3 381.7Q476.1 378.6 479.1 376.8Q482.2 375.1 485.9 375.1L485.9 375.1Q489.3 375.1 491.7 376.4L491.7 376.4Q494.1 377.6 495.4 379.9Q496.7 382.1 496.7 385.1ZM487.8 385.1L487.8 385.1Q487.8 383.8 487.0 383.0Q486.2 382.2 484.9 382.2L484.9 382.2Q483.6 382.2 482.6 383.1L482.6 383.1Q481.6 383.9 481.0 385.5Q480.5 387.0 480.5 388.7L480.5 388.7Q480.5 390.3 481.1 391.2Q481.8 392.1 483.2 392.1L483.2 392.1Q485.1 392.1 486.4 389.8L486.4 389.8Q486.9 389.1 487.2 388.2Q487.5 387.3 487.7 386.5Q487.8 385.7 487.8 385.1ZM504.0 383.2L504.0 383.2Q504.8 381.5 506 380.7Q507.2 379.9 508.8 379.9L508.8 379.9Q511.2 379.9 512.4 381.4Q513.7 382.8 513.7 385.6L513.7 385.6L513.7 395L509.8 395L509.8 386.7Q509.8 382.8 507.2 382.8L507.2 382.8Q505.8 382.8 505.0 384.0Q504.1 385.2 504.1 387.1L504.1 387.1L504.1 395L500.3 395L500.3 374.7L504.1 374.7L504.1 380.2Q504.1 381 504.1 381.7Q504.0 382.4 504.0 383.2L504.0 383.2ZM530.0 388.3L520.5 388.3Q520.5 390.5 521.3 391.6Q522.1 392.7 523.6 392.7L523.6 392.7Q525.6 392.7 526.2 390.9L526.2 390.9L529.8 391.3Q528.2 395.3 523.4 395.3L523.4 395.3Q520.1 395.3 518.3 393.3Q516.5 391.3 516.5 387.5L516.5 387.5Q516.5 383.9 518.3 381.9Q520.1 379.9 523.5 379.9L523.5 379.9Q526.7 379.9 528.3 382.0Q530.0 384.2 530.0 388.2L530.0 388.2L530.0 388.3ZM520.6 385.9L526.3 385.9Q526.2 384.1 525.4 383.2Q524.7 382.4 523.4 382.4L523.4 382.4Q522.1 382.4 521.3 383.3Q520.6 384.2 520.6 385.9L520.6 385.9ZM536.4 395.3L536.4 395.3Q534.2 395.3 533.0 394.1Q531.8 392.9 531.8 390.8L531.8 390.8Q531.8 388.5 533.3 387.3Q534.8 386.1 537.6 386.1L537.6 386.1L540.8 386.0L540.8 385.3Q540.8 383.8 540.3 383.1Q539.8 382.4 538.7 382.4L538.7 382.4Q537.6 382.4 537.1 382.9Q536.6 383.4 536.5 384.5L536.5 384.5L532.5 384.3Q533.2 379.9 538.8 379.9L538.8 379.9Q541.6 379.9 543.1 381.3Q544.7 382.7 544.7 385.2L544.7 385.2L544.7 390.6Q544.7 391.9 544.9 392.3Q545.2 392.8 545.9 392.8L545.9 392.8Q546.3 392.8 546.7 392.7L546.7 392.7L546.7 394.8Q546.0 395.0 545.5 395.1Q545.0 395.2 544.3 395.2L544.3 395.2Q542.8 395.2 542.1 394.5Q541.4 393.7 541.3 392.4L541.3 392.4L541.2 392.4Q539.6 395.3 536.4 395.3ZM540.8 388.9L540.8 388.2L538.9 388.2Q537.5 388.2 537.0 388.5L537.0 388.5Q536.4 388.7 536.1 389.2Q535.8 389.7 535.8 390.5L535.8 390.5Q535.8 391.6 536.3 392.1Q536.8 392.6 537.6 392.6L537.6 392.6Q538.5 392.6 539.2 392.1L539.2 392.1Q540.0 391.6 540.4 390.7Q540.8 389.9 540.8 388.9L540.8 388.9ZM552.3 387.7L552.3 387.7L552.3 395L548.5 395L548.5 383.7Q548.5 382.5 548.5 381.6Q548.4 380.8 548.4 380.2L548.4 380.2L552.1 380.2Q552.1 380.3 552.1 380.8Q552.1 381.2 552.2 381.7Q552.2 382.2 552.2 382.7Q552.2 383.2 552.2 383.4L552.2 383.4L552.3 383.4Q552.8 381.8 553.3 381.2L553.3 381.2Q553.7 380.5 554.3 380.2Q554.9 379.9 555.8 379.9L555.8 379.9Q556.6 379.9 557.0 380.1L557.0 380.1L557.0 383.3Q556.1 383.1 555.4 383.1L555.4 383.1Q553.9 383.1 553.1 384.3Q552.3 385.5 552.3 387.7ZM566.4 392.4L566.4 394.8Q565.0 395.2 563.2 395.2L563.2 395.2Q561.5 395.2 560.6 394.3Q559.7 393.4 559.7 391.5L559.7 391.5L559.7 382.8L557.8 382.8L557.8 380.2L559.9 380.2L561.1 376.7L563.5 376.7L563.5 380.2L566.3 380.2L566.3 382.8L563.5 382.8L563.5 390.5Q563.5 392.6 565.1 392.6L565.1 392.6Q565.6 392.6 566.4 392.4L566.4 392.4ZM582.0 395L578.3 395Q578.3 394.9 578.2 394.4Q578.2 394.0 578.1 393.5Q578.1 392.9 578.1 392.6L578.1 392.6L578.1 392.6Q576.8 395.3 573.3 395.3L573.3 395.3Q570.7 395.3 569.3 393.3Q567.9 391.2 567.9 387.6L567.9 387.6Q567.9 383.9 569.4 381.9Q570.9 379.9 573.6 379.9L573.6 379.9Q575.2 379.9 576.3 380.6Q577.5 381.2 578.1 382.5L578.1 382.5L578.1 382.5L578.1 380.1L578.1 374.7L581.9 374.7L581.9 391.8Q581.9 392.5 581.9 393.3Q582.0 394.1 582.0 395L582.0 395ZM571.9 387.6L571.9 387.6Q571.9 392.6 574.9 392.6L574.9 392.6Q576.5 392.6 577.3 391.3Q578.1 390.0 578.1 387.5L578.1 387.5Q578.1 385.1 577.3 383.8Q576.5 382.5 575.0 382.5L575.0 382.5Q571.9 382.5 571.9 387.6ZM599.9 387.6L599.9 387.6Q599.9 391.2 597.9 393.2Q595.9 395.3 592.4 395.3L592.4 395.3Q588.9 395.3 586.9 393.2Q585.0 391.2 585.0 387.6L585.0 387.6Q585.0 384.0 586.9 382.0Q588.9 379.9 592.4 379.9L592.4 379.9Q596.1 379.9 598.0 381.9Q599.9 383.9 599.9 387.6ZM595.9 387.6L595.9 387.6Q595.9 385.0 595.0 383.8Q594.1 382.6 592.5 382.6L592.5 382.6Q589.0 382.6 589.0 387.6L589.0 387.6Q589.0 390.1 589.9 391.4Q590.7 392.6 592.3 392.6L592.3 392.6Q595.9 392.6 595.9 387.6ZM609.1 395.3L609.1 395.3Q605.7 395.3 603.9 393.3Q602.1 391.3 602.1 387.7L602.1 387.7Q602.1 384.0 603.9 382.0Q605.8 379.9 609.2 379.9L609.2 379.9Q611.8 379.9 613.5 381.2Q615.2 382.6 615.6 384.9L615.6 384.9L611.8 385.1Q611.6 383.9 610.9 383.2Q610.3 382.6 609.1 382.6L609.1 382.6Q606.1 382.6 606.1 387.5L606.1 387.5Q606.1 392.6 609.1 392.6L609.1 392.6Q610.2 392.6 611.0 392.0Q611.7 391.3 611.9 389.9L611.9 389.9L615.7 390.1Q615.5 391.6 614.6 392.8Q613.7 394.0 612.3 394.6Q610.9 395.3 609.1 395.3ZM631.0 390.7L631.0 390.7Q631.0 392.8 629.2 394.0Q627.5 395.3 624.4 395.3L624.4 395.3Q621.3 395.3 619.7 394.3Q618.1 393.3 617.5 391.3L617.5 391.3L620.9 390.8Q621.2 391.9 621.9 392.3Q622.6 392.7 624.4 392.7L624.4 392.7Q626.0 392.7 626.7 392.3Q627.4 391.9 627.4 391.0L627.4 391.0Q627.4 390.3 626.9 389.9Q626.3 389.5 624.8 389.2L624.8 389.2Q621.6 388.6 620.4 388L620.4 388Q619.3 387.4 618.7 386.6Q618.1 385.7 618.1 384.4L618.1 384.4Q618.1 382.3 619.8 381.1Q621.4 379.9 624.4 379.9L624.4 379.9Q627.0 379.9 628.6 380.9Q630.2 382.0 630.6 383.9L630.6 383.9L627.2 384.3Q627.1 383.4 626.4 382.9Q625.8 382.5 624.4 382.5L624.4 382.5Q623.0 382.5 622.3 382.8Q621.7 383.2 621.7 384.0L621.7 384.0Q621.7 384.6 622.2 385.0Q622.7 385.4 623.9 385.6L623.9 385.6Q625.7 386.0 627.0 386.4Q628.4 386.7 629.2 387.3L629.2 387.3Q630.0 387.8 630.5 388.6Q631.0 389.4 631.0 390.7ZM637.8 383.2L637.9 383.2Q638.6 381.5 639.8 380.7Q641.0 379.9 642.6 379.9L642.6 379.9Q645.0 379.9 646.2 381.4Q647.5 382.8 647.5 385.6L647.5 385.6L647.5 395L643.7 395L643.7 386.7Q643.7 382.8 641.0 382.8L641.0 382.8Q639.6 382.8 638.8 384.0Q637.9 385.2 637.9 387.1L637.9 387.1L637.9 395L634.1 395L634.1 374.7L637.9 374.7L637.9 380.2Q637.9 381 637.9 381.7Q637.9 382.4 637.8 383.2L637.8 383.2ZM654.6 395.3L654.6 395.3Q652.5 395.3 651.3 394.1Q650.0 392.9 650.0 390.8L650.0 390.8Q650.0 388.5 651.5 387.3Q653.0 386.1 655.9 386.1L655.9 386.1L659.1 386.0L659.1 385.3Q659.1 383.8 658.6 383.1Q658.1 382.4 656.9 382.4L656.9 382.4Q655.8 382.4 655.3 382.9Q654.8 383.4 654.7 384.5L654.7 384.5L650.7 384.3Q651.5 379.9 657.1 379.9L657.1 379.9Q659.9 379.9 661.4 381.3Q662.9 382.7 662.9 385.2L662.9 385.2L662.9 390.6Q662.9 391.9 663.2 392.3Q663.5 392.8 664.1 392.8L664.1 392.8Q664.6 392.8 665.0 392.7L665.0 392.7L665.0 394.8Q664.3 395.0 663.8 395.1Q663.3 395.2 662.5 395.2L662.5 395.2Q661.1 395.2 660.4 394.5Q659.7 393.7 659.5 392.4L659.5 392.4L659.5 392.4Q657.9 395.3 654.6 395.3ZM659.1 388.9L659.1 388.2L657.1 388.2Q655.7 388.2 655.2 388.5L655.2 388.5Q654.6 388.7 654.3 389.2Q654.1 389.7 654.1 390.5L654.1 390.5Q654.1 391.6 654.5 392.1Q655.0 392.6 655.8 392.6L655.8 392.6Q656.7 392.6 657.5 392.1L657.5 392.1Q658.2 391.6 658.6 390.7Q659.1 389.9 659.1 388.9L659.1 388.9ZM666.8 374.7L670.6 374.7L670.6 377.5L666.8 377.5L666.8 374.7ZM666.8 380.2L670.6 380.2L670.6 395L666.8 395L666.8 380.2ZM674.5 374.7L678.4 374.7L678.4 395L674.5 395L674.5 374.7ZM695.0 388.3L685.5 388.3Q685.5 390.5 686.3 391.6Q687.1 392.7 688.6 392.7L688.6 392.7Q690.6 392.7 691.1 390.9L691.1 390.9L694.8 391.3Q693.2 395.3 688.4 395.3L688.4 395.3Q685.0 395.3 683.2 393.3Q681.5 391.3 681.5 387.5L681.5 387.5Q681.5 383.9 683.3 381.9Q685.1 379.9 688.4 379.9L688.4 379.9Q691.6 379.9 693.3 382.0Q695.0 384.2 695.0 388.2L695.0 388.2L695.0 388.3ZM685.5 385.9L691.3 385.9Q691.1 384.1 690.4 383.2Q689.6 382.4 688.4 382.4L688.4 382.4Q687.0 382.4 686.3 383.3Q685.6 384.2 685.5 385.9L685.5 385.9ZM710.4 390.7L710.4 390.7Q710.4 392.8 708.6 394.0Q706.8 395.3 703.7 395.3L703.7 395.3Q700.7 395.3 699.1 394.3Q697.4 393.3 696.9 391.3L696.9 391.3L700.3 390.8Q700.6 391.9 701.3 392.3Q702.0 392.7 703.7 392.7L703.7 392.7Q705.3 392.7 706.1 392.3Q706.8 391.9 706.8 391.0L706.8 391.0Q706.8 390.3 706.2 389.9Q705.6 389.5 704.2 389.2L704.2 389.2Q701.0 388.6 699.8 388L699.8 388Q698.7 387.4 698.1 386.6Q697.5 385.7 697.5 384.4L697.5 384.4Q697.5 382.3 699.1 381.1Q700.8 379.9 703.8 379.9L703.8 379.9Q706.4 379.9 708.0 380.9Q709.6 382.0 710.0 383.9L710.0 383.9L706.6 384.3Q706.4 383.4 705.8 382.9Q705.2 382.5 703.8 382.5L703.8 382.5Q702.4 382.5 701.7 382.8Q701.0 383.2 701.0 384.0L701.0 384.0Q701.0 384.6 701.6 385.0Q702.1 385.4 703.3 385.6L703.3 385.6Q705.1 386.0 706.4 386.4Q707.8 386.7 708.6 387.3L708.6 387.3Q709.4 387.8 709.9 388.6Q710.4 389.4 710.4 390.7ZM717.2 383.2L717.2 383.2Q718.0 381.5 719.2 380.7Q720.4 379.9 722.0 379.9L722.0 379.9Q724.4 379.9 725.6 381.4Q726.9 382.8 726.9 385.6L726.9 385.6L726.9 395L723.0 395L723.0 386.7Q723.0 382.8 720.4 382.8L720.4 382.8Q719.0 382.8 718.2 384.0Q717.3 385.2 717.3 387.1L717.3 387.1L717.3 395L713.5 395L713.5 374.7L717.3 374.7L717.3 380.2Q717.3 381 717.3 381.7Q717.2 382.4 717.2 383.2L717.2 383.2Z "/></g><mask id="satori_om-id-6"><rect x="300" y="422" width="600" height="2" fill="#fff" mask="url(#satori_om-id)"/></mask><g mask="url(#satori_om-id)" clip-path="url(#satori_cp-id)"><path fill="#FFFFFF" d="M317.9 446.1L305.6 446.1L305.6 455L302.6 455L302.6 433.0L318.3 433.0L318.3 435.4L305.6 435.4L305.6 443.6L317.9 443.6L317.9 446.1ZM336 446.5L336 446.5Q336 451.0 334.0 453.1Q332.1 455.3 328.4 455.3L328.4 455.3Q324.7 455.3 322.8 453.1Q320.9 450.8 320.9 446.5L320.9 446.5Q320.9 437.8 328.5 437.8L328.5 437.8Q332.3 437.8 334.2 439.9Q336 442.0 336 446.5ZM333.0 446.5L333.0 446.5Q333.0 443.0 332.0 441.4Q331.0 439.9 328.5 439.9L328.5 439.9Q326.0 439.9 324.9 441.5Q323.8 443.1 323.8 446.5L323.8 446.5Q323.8 449.9 324.9 451.6Q326.0 453.2 328.3 453.2L328.3 453.2Q330.9 453.2 332.0 451.6Q333.0 450.0 333.0 446.5ZM339.5 431.8L342.3 431.8L342.3 455L339.5 455L339.5 431.8ZM346.6 431.8L349.4 431.8L349.4 455L346.6 455L346.6 431.8ZM368.0 446.5L368.0 446.5Q368.0 451.0 366.1 453.1Q364.1 455.3 360.4 455.3L360.4 455.3Q356.7 455.3 354.8 453.1Q352.9 450.8 352.9 446.5L352.9 446.5Q352.9 437.8 360.5 437.8L360.5 437.8Q364.4 437.8 366.2 439.9Q368.0 442.0 368.0 446.5ZM365.1 446.5L365.1 446.5Q365.1 443.0 364.0 441.4Q363.0 439.9 360.5 439.9L360.5 439.9Q358.1 439.9 357.0 441.5Q355.9 443.1 355.9 446.5L355.9 446.5Q355.9 449.9 356.9 451.6Q358.0 453.2 360.4 453.2L360.4 453.2Q362.9 453.2 364.0 451.6Q365.1 450.0 365.1 446.5ZM380.4 443.0L380.4 443.0L377.3 455L374.0 455L369.3 438.1L372.1 438.1L375 449.8Q375.1 450.3 375.3 451.1Q375.5 451.8 375.6 452.7L375.6 452.7Q375.8 451.9 376.0 451.2Q376.2 450.5 376.3 449.8L376.3 449.8L379.4 438.1L382.4 438.1L385.4 449.7Q385.6 450.4 385.8 451.2Q385.9 451.9 386.1 452.7L386.1 452.7Q386.3 451.9 386.5 451.1Q386.6 450.3 386.8 449.7L386.8 449.7L389.8 438.1L392.5 438.1L387.7 455L384.4 455L381.5 443.0Q381.3 442.4 381.2 441.7Q381.1 441.1 380.9 440.4L380.9 440.4Q380.9 440.8 380.7 441.6Q380.5 442.4 380.4 443.0Z M410.3 440.1L407 440.1L407 455L404.2 455L404.2 440.1L401.8 440.1L401.8 438.1L404.2 438.1L404.2 436.2Q404.2 433.9 405.2 432.9Q406.2 431.8 408.3 431.8L408.3 431.8Q409.5 431.8 410.3 432.0L410.3 432.0L410.3 434.2Q409.5 434.0 409.0 434.0L409.0 434.0Q408.0 434.0 407.5 434.6Q407 435.1 407 436.6L407 436.6L407 438.1L410.3 438.1L410.3 440.1ZM426.7 446.5L426.7 446.5Q426.7 451.0 424.8 453.1Q422.8 455.3 419.1 455.3L419.1 455.3Q415.4 455.3 413.5 453.1Q411.6 450.8 411.6 446.5L411.6 446.5Q411.6 437.8 419.2 437.8L419.2 437.8Q423.0 437.8 424.9 439.9Q426.7 442.0 426.7 446.5ZM423.8 446.5L423.8 446.5Q423.8 443.0 422.7 441.4Q421.7 439.9 419.2 439.9L419.2 439.9Q416.8 439.9 415.6 441.5Q414.5 443.1 414.5 446.5L414.5 446.5Q414.5 449.9 415.6 451.6Q416.7 453.2 419.0 453.2L419.0 453.2Q421.6 453.2 422.7 451.6Q423.8 450.0 423.8 446.5ZM433.1 446.2L433.1 446.2L433.1 455L430.3 455L430.3 442.0Q430.3 440.3 430.2 438.1L430.2 438.1L432.8 438.1Q432.9 439.5 432.9 440.4Q433.0 441.3 433.0 441.5L433.0 441.5L433.0 441.5Q433.5 440.0 434.0 439.2L434.0 439.2Q434.6 438.4 435.3 438.1Q436 437.8 437.0 437.8L437.0 437.8Q437.6 437.8 438.2 437.9L438.2 437.9L438.2 440.5Q437.6 440.4 436.7 440.4L436.7 440.4Q434.9 440.4 434 441.9Q433.1 443.4 433.1 446.2Z M452.6 445.2L452.6 445.2L452.6 455L449.8 455L449.8 441.7Q449.8 438.8 449.7 438.1L449.7 438.1L452.4 438.1Q452.4 438.6 452.5 439.5Q452.5 440.3 452.5 441.0L452.5 441.0L452.5 441.0Q453.5 439.2 454.6 438.5Q455.8 437.8 457.5 437.8L457.5 437.8Q459.4 437.8 460.5 438.5Q461.6 439.3 462.1 441.0L462.1 441.0L462.1 441.0Q463 439.3 464.2 438.5Q465.5 437.8 467.3 437.8L467.3 437.8Q469.8 437.8 471.0 439.2Q472.1 440.6 472.1 443.7L472.1 443.7L472.1 455L469.4 455L469.4 444.3Q469.4 441.8 468.7 440.9Q468.0 440.0 466.3 440.0L466.3 440.0Q464.4 440.0 463.4 441.3Q462.4 442.7 462.4 445.2L462.4 445.2L462.4 455L459.6 455L459.6 444.3Q459.6 441.8 458.9 440.9Q458.3 440.0 456.5 440.0L456.5 440.0Q454.7 440.0 453.7 441.3Q452.6 442.7 452.6 445.2ZM477.2 461.6L477.2 461.6Q476.1 461.6 475.3 461.5L475.3 461.5L475.3 459.4Q475.9 459.5 476.6 459.5L476.6 459.5Q477.9 459.5 479.0 458.5Q480.2 457.5 481.0 454.9L481.0 454.9L474.3 438.1L477.3 438.1L480.9 447.4Q481.3 448.4 481.7 449.7Q482.2 451.0 482.4 451.9L482.4 451.9Q482.8 450.8 483.2 449.7Q483.6 448.6 484.0 447.5L484.0 447.5L487.2 438.1L490.2 438.1L483.7 455Q483.2 456.3 482.7 457.4Q482.2 458.4 481.7 459.0L481.7 459.0Q480.0 461.6 477.2 461.6ZM498.9 452.8L498.9 454.9Q497.5 455.3 496.1 455.3L496.1 455.3Q492.7 455.3 492.7 451.4L492.7 451.4L492.7 440.1L490.7 440.1L490.7 438.1L492.8 438.1L493.6 434.3L495.5 434.3L495.5 438.1L498.6 438.1L498.6 440.1L495.5 440.1L495.5 450.8Q495.5 452.0 495.9 452.5Q496.3 453.0 497.3 453.0L497.3 453.0Q497.8 453.0 498.9 452.8L498.9 452.8ZM504.0 441.0L504.1 441.0Q505 439.3 506.3 438.6Q507.5 437.8 509.5 437.8L509.5 437.8Q512.3 437.8 513.6 439.2Q514.9 440.6 514.9 443.7L514.9 443.7L514.9 455L512.0 455L512.0 444.3Q512.0 442.0 511.2 441.0Q510.4 440.0 508.5 440.0L508.5 440.0Q506.6 440.0 505.4 441.3Q504.2 442.7 504.2 445.0L504.2 445.0L504.2 455L501.4 455L501.4 431.8L504.2 431.8L504.2 437.8Q504.2 438.5 504.1 439.2Q504.1 439.9 504.1 440.4Q504.1 440.9 504.0 441.0L504.0 441.0ZM518.4 445.3L526.2 445.3L526.2 447.8L518.4 447.8L518.4 445.3ZM544.0 446.5L544.0 446.5Q544.0 455.3 537.8 455.3L537.8 455.3Q535.9 455.3 534.6 454.6Q533.4 453.9 532.6 452.4L532.6 452.4L532.5 452.4Q532.5 452.7 532.5 453.3Q532.5 453.9 532.4 454.4Q532.4 454.9 532.4 455L532.4 455L529.7 455Q529.8 454.2 529.8 451.5L529.8 451.5L529.8 431.8L532.6 431.8L532.6 438.4Q532.6 438.9 532.5 439.5Q532.5 440.1 532.5 440.8L532.5 440.8L532.6 440.8Q533.3 439.2 534.6 438.5Q535.9 437.8 537.8 437.8L537.8 437.8Q541.0 437.8 542.5 439.9Q544.0 442.1 544.0 446.5ZM541.1 446.6L541.1 446.6Q541.1 443.0 540.2 441.5Q539.2 440.0 537.1 440.0L537.1 440.0Q534.7 440.0 533.6 441.6Q532.6 443.2 532.6 446.7L532.6 446.7Q532.6 450.1 533.6 451.6Q534.7 453.2 537.1 453.2L537.1 453.2Q539.2 453.2 540.1 451.7Q541.1 450.1 541.1 446.6ZM558.3 452.1L558.2 452.1Q557.3 453.9 556.0 454.6Q554.7 455.3 552.8 455.3L552.8 455.3Q550.0 455.3 548.8 453.9Q547.5 452.5 547.5 449.4L547.5 449.4L547.5 438.1L550.3 438.1L550.3 448.8Q550.3 451.3 551.1 452.2Q551.9 453.1 553.8 453.1L553.8 453.1Q555.8 453.1 557.0 451.8Q558.2 450.4 558.2 447.9L558.2 447.9L558.2 438.1L561.0 438.1L561.0 451.4Q561.0 454.3 561.1 455L561.1 455L558.4 455Q558.4 454.9 558.4 454.3Q558.3 453.6 558.3 452.1L558.3 452.1ZM578.0 450.3L578.0 450.3Q578.0 452.7 576.2 454.0Q574.4 455.3 571.2 455.3L571.2 455.3Q568.0 455.3 566.3 454.3Q564.6 453.2 564.1 451.0L564.1 451.0L566.6 450.5Q567.3 453.2 571.2 453.2L571.2 453.2Q573.3 453.2 574.3 452.5Q575.3 451.9 575.3 450.5L575.3 450.5Q575.3 449.5 574.6 448.9Q573.9 448.3 572.4 447.9L572.4 447.9Q570.6 447.4 569.5 447.1Q568.4 446.8 567.9 446.6Q567.3 446.3 566.9 446.1L566.9 446.1Q565.9 445.5 565.3 444.7Q564.8 443.8 564.8 442.6L564.8 442.6Q564.8 440.3 566.4 439.0Q568.0 437.8 571.2 437.8L571.2 437.8Q574 437.8 575.6 438.8Q577.3 439.8 577.7 442.0L577.7 442.0L575.2 442.3Q574.7 440.0 571.2 440.0L571.2 440.0Q567.5 440.0 567.5 442.3L567.5 442.3Q567.5 443.1 568 443.7Q568.5 444.3 570.0 444.6L570.0 444.6Q571.9 445.1 573.7 445.6Q575.5 446.2 576.2 446.7L576.2 446.7Q577.1 447.4 577.6 448.2Q578.0 449.1 578.0 450.3ZM587.8 452.8L587.8 454.9Q586.5 455.3 585 455.3L585 455.3Q581.6 455.3 581.6 451.4L581.6 451.4L581.6 440.1L579.7 440.1L579.7 438.1L581.7 438.1L582.6 434.3L584.4 434.3L584.4 438.1L587.6 438.1L587.6 440.1L584.4 440.1L584.4 450.8Q584.4 452.0 584.8 452.5Q585.2 453.0 586.2 453.0L586.2 453.0Q586.8 453.0 587.8 452.8L587.8 452.8ZM590.2 431.8L593.0 431.8L593.0 434.5L590.2 434.5L590.2 431.8ZM590.2 438.1L593.0 438.1L593.0 455L590.2 455L590.2 438.1ZM600.2 445.2L600.2 445.2L600.2 455L597.4 455L597.4 441.7Q597.4 438.8 597.3 438.1L597.3 438.1L600.0 438.1Q600.0 438.5 600.0 439.3Q600.1 440.1 600.1 441.0L600.1 441.0L600.1 441.0Q601.1 439.2 602.4 438.5Q603.7 437.8 605.5 437.8L605.5 437.8Q608.3 437.8 609.6 439.2Q610.9 440.6 610.9 443.7L610.9 443.7L610.9 455L608.1 455L608.1 444.3Q608.1 441.9 607.3 440.9Q606.5 440.0 604.6 440.0L604.6 440.0Q602.6 440.0 601.4 441.3Q600.2 442.7 600.2 445.2ZM621.5 461.6L621.5 461.6Q618.8 461.6 617.1 460.6Q615.5 459.5 615.0 457.5L615.0 457.5L617.9 457.1Q618.4 459.5 621.6 459.5L621.6 459.5Q625.8 459.5 625.8 454.6L625.8 454.6L625.8 451.9L625.8 451.9Q625 453.5 623.6 454.3Q622.2 455.1 620.4 455.1L620.4 455.1Q617.3 455.1 615.8 453.1Q614.3 451 614.3 446.6L614.3 446.6Q614.3 442.1 615.9 440.0Q617.5 437.8 620.7 437.8L620.7 437.8Q622.5 437.8 623.8 438.6Q625.1 439.5 625.8 441.0L625.8 441.0L625.9 441.0Q625.9 440.7 625.9 440.0Q625.9 439.3 626.0 438.8Q626.0 438.2 626.0 438.1L626.0 438.1L628.7 438.1Q628.6 438.9 628.6 441.6L628.6 441.6L628.6 454.5Q628.6 461.6 621.5 461.6ZM625.8 446.5L625.8 446.5Q625.8 443.5 624.6 441.7Q623.3 439.9 621.4 439.9L621.4 439.9Q619.2 439.9 618.2 441.5Q617.2 443.0 617.2 446.5L617.2 446.5Q617.2 450.0 618.2 451.5Q619.1 453.0 621.3 453.0L621.3 453.0Q623.3 453.0 624.6 451.3Q625.8 449.6 625.8 446.5Z M648.3 455.3L648.3 455.3Q644.8 455.3 642.9 453.1Q641.0 450.8 641.0 446.5L641.0 446.5Q641.0 442.3 642.9 440.0Q644.8 437.8 648.3 437.8L648.3 437.8Q650.9 437.8 652.6 439.1Q654.3 440.5 654.7 442.8L654.7 442.8L651.8 443.0Q651.6 441.6 650.7 440.8Q649.8 440.0 648.2 440.0L648.2 440.0Q646.0 440.0 645.0 441.5Q644.0 443.0 644.0 446.5L644.0 446.5Q644.0 449.8 645.0 451.5Q646.1 453.1 648.2 453.1L648.2 453.1Q649.7 453.1 650.7 452.3Q651.8 451.5 652.0 449.8L652.0 449.8L654.8 450.0Q654.5 452.4 652.8 453.9Q651 455.3 648.3 455.3ZM662.1 455.3L662.1 455.3Q659.6 455.3 658.3 454.0Q657.0 452.6 657.0 450.3L657.0 450.3Q657.0 447.7 658.8 446.3Q660.5 444.8 664.3 444.8L664.3 444.8L668.1 444.7L668.1 443.8Q668.1 441.7 667.3 440.8Q666.4 439.9 664.5 439.9L664.5 439.9Q662.6 439.9 661.8 440.6Q660.9 441.2 660.7 442.6L660.7 442.6L657.8 442.3Q658.5 437.8 664.6 437.8L664.6 437.8Q667.8 437.8 669.4 439.2Q671.0 440.7 671.0 443.5L671.0 443.5L671.0 450.8Q671.0 452 671.3 452.6Q671.6 453.3 672.5 453.3L672.5 453.3Q673.0 453.3 673.5 453.2L673.5 453.2L673.5 454.9Q672.5 455.2 671.3 455.2L671.3 455.2Q669.7 455.2 669.0 454.3Q668.3 453.5 668.2 451.8L668.2 451.8L668.1 451.8Q667.0 453.7 665.6 454.5Q664.2 455.3 662.1 455.3ZM668.1 448.0L668.1 446.7L665.0 446.7Q663.1 446.7 662.0 447.1L662.0 447.1Q661.0 447.5 660.5 448.3Q659.9 449.1 659.9 450.3L659.9 450.3Q659.9 451.7 660.7 452.5Q661.4 453.2 662.8 453.2L662.8 453.2Q664.3 453.2 665.5 452.5L665.5 452.5Q666.7 451.8 667.4 450.6Q668.1 449.3 668.1 448.0L668.1 448.0ZM678.5 446.2L678.5 446.2L678.5 455L675.7 455L675.7 442.0Q675.7 440.3 675.6 438.1L675.6 438.1L678.3 438.1Q678.3 439.5 678.3 440.4Q678.4 441.3 678.4 441.5L678.4 441.5L678.4 441.5Q678.9 440.0 679.5 439.2L679.5 439.2Q680.0 438.4 680.7 438.1Q681.4 437.8 682.5 437.8L682.5 437.8Q683.0 437.8 683.6 437.9L683.6 437.9L683.6 440.5Q683.1 440.4 682.1 440.4L682.1 440.4Q680.3 440.4 679.4 441.9Q678.5 443.4 678.5 446.2ZM699.9 455L697.2 455Q697.1 454.8 697.1 454.4Q697.1 453.9 697.0 453.3Q697.0 452.7 697.0 452.3L697.0 452.3L697.0 452.3Q696.2 453.9 694.9 454.6Q693.6 455.3 691.7 455.3L691.7 455.3Q688.5 455.3 687.0 453.2Q685.5 451 685.5 446.6L685.5 446.6Q685.5 437.8 691.7 437.8L691.7 437.8Q693.6 437.8 694.9 438.5Q696.2 439.2 697.0 440.7L697.0 440.7L697.0 440.7L697.0 438.8L697.0 431.8L699.8 431.8L699.8 451.5Q699.8 454.2 699.9 455L699.9 455ZM688.4 446.5L688.4 446.5Q688.4 450.1 689.4 451.6Q690.3 453.1 692.4 453.1L692.4 453.1Q694.8 453.1 695.9 451.5Q697.0 449.8 697.0 446.3L697.0 446.3Q697.0 443.0 695.9 441.4Q694.8 439.9 692.4 439.9L692.4 439.9Q690.3 439.9 689.4 441.4Q688.4 443 688.4 446.5ZM704.1 431.8L706.9 431.8L706.9 434.5L704.1 434.5L704.1 431.8ZM704.1 438.1L706.9 438.1L706.9 455L704.1 455L704.1 438.1ZM725.5 446.5L725.5 446.5Q725.5 451.0 723.5 453.1Q721.6 455.3 717.9 455.3L717.9 455.3Q714.2 455.3 712.3 453.1Q710.4 450.8 710.4 446.5L710.4 446.5Q710.4 437.8 718.0 437.8L718.0 437.8Q721.8 437.8 723.7 439.9Q725.5 442.0 725.5 446.5ZM722.5 446.5L722.5 446.5Q722.5 443.0 721.5 441.4Q720.5 439.9 718 439.9L718 439.9Q715.5 439.9 714.4 441.5Q713.3 443.1 713.3 446.5L713.3 446.5Q713.3 449.9 714.4 451.6Q715.5 453.2 717.8 453.2L717.8 453.2Q720.4 453.2 721.4 451.6Q722.5 450.0 722.5 446.5ZM729.0 431.8L731.8 431.8L731.8 455L729.0 455L729.0 431.8ZM750.4 446.5L750.4 446.5Q750.4 451.0 748.4 453.1Q746.5 455.3 742.8 455.3L742.8 455.3Q739.1 455.3 737.2 453.1Q735.3 450.8 735.3 446.5L735.3 446.5Q735.3 437.8 742.9 437.8L742.9 437.8Q746.7 437.8 748.6 439.9Q750.4 442.0 750.4 446.5ZM747.4 446.5L747.4 446.5Q747.4 443.0 746.4 441.4Q745.4 439.9 742.9 439.9L742.9 439.9Q740.4 439.9 739.3 441.5Q738.2 443.1 738.2 446.5L738.2 446.5Q738.2 449.9 739.3 451.6Q740.4 453.2 742.7 453.2L742.7 453.2Q745.3 453.2 746.4 451.6Q747.4 450.0 747.4 446.5ZM760.3 461.6L760.3 461.6Q757.5 461.6 755.9 460.6Q754.3 459.5 753.8 457.5L753.8 457.5L756.6 457.1Q757.2 459.5 760.4 459.5L760.4 459.5Q764.6 459.5 764.6 454.6L764.6 454.6L764.6 451.9L764.5 451.9Q763.8 453.5 762.4 454.3Q761.0 455.1 759.1 455.1L759.1 455.1Q756 455.1 754.5 453.1Q753.1 451 753.1 446.6L753.1 446.6Q753.1 442.1 754.6 440.0Q756.2 437.8 759.4 437.8L759.4 437.8Q761.2 437.8 762.5 438.6Q763.9 439.5 764.6 441.0L764.6 441.0L764.6 441.0Q764.6 440.7 764.6 440.0Q764.7 439.3 764.7 438.8Q764.8 438.2 764.8 438.1L764.8 438.1L767.5 438.1Q767.4 438.9 767.4 441.6L767.4 441.6L767.4 454.5Q767.4 461.6 760.3 461.6ZM764.6 446.5L764.6 446.5Q764.6 443.5 763.3 441.7Q762.1 439.9 760.1 439.9L760.1 439.9Q758.0 439.9 757.0 441.5Q756.0 443.0 756.0 446.5L756.0 446.5Q756.0 450.0 756.9 451.5Q757.8 453.0 760.1 453.0L760.1 453.0Q762.1 453.0 763.3 451.3Q764.6 449.6 764.6 446.5ZM772.5 461.6L772.5 461.6Q771.4 461.6 770.6 461.5L770.6 461.5L770.6 459.4Q771.2 459.5 771.9 459.5L771.9 459.5Q773.2 459.5 774.3 458.5Q775.4 457.5 776.3 454.9L776.3 454.9L769.6 438.1L772.6 438.1L776.2 447.4Q776.6 448.4 777.0 449.7Q777.5 451.0 777.7 451.9L777.7 451.9Q778.1 450.8 778.5 449.7Q778.9 448.6 779.3 447.5L779.3 447.5L782.5 438.1L785.5 438.1L779.0 455Q778.4 456.3 778.0 457.4Q777.5 458.4 777.0 459.0L777.0 459.0Q775.2 461.6 772.5 461.6Z M803.1 455.3L803.1 455.3Q799.5 455.3 797.6 453.1Q795.8 450.8 795.8 446.5L795.8 446.5Q795.8 442.3 797.7 440.0Q799.5 437.8 803.0 437.8L803.0 437.8Q805.6 437.8 807.3 439.1Q809.0 440.5 809.5 442.8L809.5 442.8L806.6 443.0Q806.4 441.6 805.5 440.8Q804.6 440.0 803.0 440.0L803.0 440.0Q800.7 440.0 799.7 441.5Q798.7 443.0 798.7 446.5L798.7 446.5Q798.7 449.8 799.8 451.5Q800.8 453.1 803.0 453.1L803.0 453.1Q804.5 453.1 805.5 452.3Q806.5 451.5 806.7 449.8L806.7 449.8L809.6 450.0Q809.3 452.4 807.5 453.9Q805.8 455.3 803.1 455.3ZM826.9 446.5L826.9 446.5Q826.9 451.0 824.9 453.1Q823.0 455.3 819.3 455.3L819.3 455.3Q815.5 455.3 813.7 453.1Q811.8 450.8 811.8 446.5L811.8 446.5Q811.8 437.8 819.3 437.8L819.3 437.8Q823.2 437.8 825.0 439.9Q826.9 442.0 826.9 446.5ZM823.9 446.5L823.9 446.5Q823.9 443.0 822.9 441.4Q821.8 439.9 819.4 439.9L819.4 439.9Q816.9 439.9 815.8 441.5Q814.7 443.1 814.7 446.5L814.7 446.5Q814.7 449.9 815.8 451.6Q816.9 453.2 819.2 453.2L819.2 453.2Q821.8 453.2 822.8 451.6Q823.9 450.0 823.9 446.5ZM833.3 445.2L833.3 445.2L833.3 455L830.4 455L830.4 441.7Q830.4 438.8 830.3 438.1L830.3 438.1L833 438.1Q833.0 438.5 833.1 439.3Q833.1 440.1 833.1 441.0L833.1 441.0L833.2 441.0Q834.1 439.2 835.4 438.5Q836.7 437.8 838.6 437.8L838.6 437.8Q841.4 437.8 842.6 439.2Q843.9 440.6 843.9 443.7L843.9 443.7L843.9 455L841.1 455L841.1 444.3Q841.1 441.9 840.3 440.9Q839.5 440.0 837.6 440.0L837.6 440.0Q835.6 440.0 834.4 441.3Q833.3 442.7 833.3 445.2ZM854.7 452.8L854.7 454.9Q853.3 455.3 851.8 455.3L851.8 455.3Q848.5 455.3 848.5 451.4L848.5 451.4L848.5 440.1L846.5 440.1L846.5 438.1L848.6 438.1L849.4 434.3L851.3 434.3L851.3 438.1L854.4 438.1L854.4 440.1L851.3 440.1L851.3 450.8Q851.3 452.0 851.7 452.5Q852.1 453.0 853.0 453.0L853.0 453.0Q853.6 453.0 854.7 452.8L854.7 452.8ZM871.3 447.1L859.2 447.1Q859.2 450.0 860.4 451.6Q861.6 453.2 863.9 453.2L863.9 453.2Q865.8 453.2 866.9 452.5Q868.0 451.7 868.4 450.6L868.4 450.6L870.8 451.3Q869.3 455.3 863.9 455.3L863.9 455.3Q860.2 455.3 858.2 453.1Q856.3 450.8 856.3 446.4L856.3 446.4Q856.3 442.3 858.2 440.0Q860.2 437.8 863.8 437.8L863.8 437.8Q871.3 437.8 871.3 446.8L871.3 446.8L871.3 447.1ZM859.3 445.0L868.4 445.0Q868.1 442.3 867.0 441.1Q865.9 439.9 863.8 439.9L863.8 439.9Q861.7 439.9 860.5 441.2Q859.3 442.6 859.3 445.0L859.3 445.0ZM877.7 445.2L877.7 445.2L877.7 455L874.9 455L874.9 441.7Q874.9 438.8 874.8 438.1L874.8 438.1L877.5 438.1Q877.5 438.5 877.6 439.3Q877.6 440.1 877.6 441.0L877.6 441.0L877.7 441.0Q878.6 439.2 879.9 438.5Q881.2 437.8 883.1 437.8L883.1 437.8Q885.8 437.8 887.1 439.2Q888.4 440.6 888.4 443.7L888.4 443.7L888.4 455L885.6 455L885.6 444.3Q885.6 441.9 884.8 440.9Q884.0 440.0 882.1 440.0L882.1 440.0Q880.1 440.0 878.9 441.3Q877.7 442.7 877.7 445.2ZM899.2 452.8L899.2 454.9Q897.8 455.3 896.3 455.3L896.3 455.3Q892.9 455.3 892.9 451.4L892.9 451.4L892.9 440.1L891.0 440.1L891.0 438.1L893.0 438.1L893.9 434.3L895.8 434.3L895.8 438.1L898.9 438.1L898.9 440.1L895.8 440.1L895.8 450.8Q895.8 452.0 896.1 452.5Q896.5 453.0 897.5 453.0L897.5 453.0Q898.1 453.0 899.2 452.8L899.2 452.8Z "/></g><mask id="satori_ms-id-7-0" maskUnits="userSpaceOnUse"><rect x="0" y="0" width="1200" height="630" fill="#fff"/><path x="426" y="472" width="349" height="79" fill="#000"  stroke-width="0" d="M465.5,472 h270 a39.5,39.5 0 0 1 39.5,39.5 v0 a39.5,39.5 0 0 1 -39.5,39.5 h-270 a39.5,39.5 0 0 1 -39.5,-39.5 v0 a39.5,39.5 0 0 1 39.5,-39.5" clip-path="url(#satori_cp-id)" mask="url(#satori_om-id)"/></mask><defs><filter id="satori_s-id-7-0" x="-64.46991404011462%" y="-284.8101265822785%" width="228.93982808022923%" height="669.620253164557%"><feGaussianBlur stdDeviation="15" result="b"/><feFlood flood-color="rgba(0, 0, 0, 0.15)" in="SourceGraphic" result="f"/><feComposite in="f" in2="b" operator="in"/></filter></defs><g mask="url(#satori_ms-id-7-0)" filter="url(#satori_s-id-7-0)" opacity="1"><path x="426" y="480" width="349" height="79" fill="#fff" stroke="#fff" stroke-width="0" d="M465.5,480 h270 a39.5,39.5 0 0 1 39.5,39.5 v0 a39.5,39.5 0 0 1 -39.5,39.5 h-270 a39.5,39.5 0 0 1 -39.5,-39.5 v0 a39.5,39.5 0 0 1 39.5,-39.5" clip-path="url(#satori_cp-id)" mask="url(#satori_om-id)"/></g><mask id="satori_om-id-7"><rect x="426" y="472" width="349" height="79" fill="#fff" mask="url(#satori_om-id)"/></mask><path x="426" y="472" width="349" height="79" fill="#FFFFFF" d="M465.5,472 h270 a39.5,39.5 0 0 1 39.5,39.5 v0 a39.5,39.5 0 0 1 -39.5,39.5 h-270 a39.5,39.5 0 0 1 -39.5,-39.5 v0 a39.5,39.5 0 0 1 39.5,-39.5" clip-path="url(#satori_cp-id)" mask="url(#satori_om-id)"/><mask id="satori_om-id-7-0"><rect x="482" y="496" width="210" height="31" fill="#fff" mask="url(#satori_om-id)"/></mask><g mask="url(#satori_om-id)" clip-path="url(#satori_cp-id)"><path fill="#16697A" d="M497.8 513.9L487.9 513.9L487.9 521L483.9 521L483.9 501.7L498.1 501.7L498.1 504.9L487.9 504.9L487.9 510.8L497.8 510.8L497.8 513.9ZM515.1 513.6L515.1 513.6Q515.1 517.2 513.1 519.2Q511.1 521.3 507.6 521.3L507.6 521.3Q504.1 521.3 502.2 519.2Q500.2 517.2 500.2 513.6L500.2 513.6Q500.2 510.0 502.2 508.0Q504.1 505.9 507.7 505.9L507.7 505.9Q511.3 505.9 513.2 507.9Q515.1 509.9 515.1 513.6ZM511.1 513.6L511.1 513.6Q511.1 511.0 510.2 509.8Q509.4 508.6 507.7 508.6L507.7 508.6Q504.2 508.6 504.2 513.6L504.2 513.6Q504.2 516.1 505.1 517.4Q505.9 518.6 507.6 518.6L507.6 518.6Q511.1 518.6 511.1 513.6ZM518.2 500.7L522.0 500.7L522.0 521L518.2 521L518.2 500.7ZM525.9 500.7L529.8 500.7L529.8 521L525.9 521L525.9 500.7ZM547.8 513.6L547.8 513.6Q547.8 517.2 545.8 519.2Q543.8 521.3 540.3 521.3L540.3 521.3Q536.8 521.3 534.8 519.2Q532.9 517.2 532.9 513.6L532.9 513.6Q532.9 510.0 534.8 508.0Q536.8 505.9 540.3 505.9L540.3 505.9Q544.0 505.9 545.9 507.9Q547.8 509.9 547.8 513.6ZM543.8 513.6L543.8 513.6Q543.8 511.0 542.9 509.8Q542.0 508.6 540.4 508.6L540.4 508.6Q536.9 508.6 536.9 513.6L536.9 513.6Q536.9 516.1 537.7 517.4Q538.6 518.6 540.2 518.6L540.2 518.6Q543.8 518.6 543.8 513.6ZM559.1 512.0L559.1 512.0L556.7 521L552.6 521L548.8 506.2L552.4 506.2L554.3 515.0Q554.4 515.6 554.6 516.2Q554.7 516.9 554.8 517.5L554.8 517.5Q555.0 516.9 555.1 516.2Q555.2 515.5 555.4 514.9L555.4 514.9L557.7 506.2L561.8 506.2L564.1 514.9Q564.2 515.3 564.3 515.9Q564.5 516.6 564.6 517.5L564.6 517.5Q564.8 516.9 564.9 516.2Q565.1 515.6 565.2 514.9L565.2 514.9L567.1 506.2L570.7 506.2L566.8 521L562.8 521L560.4 512.0Q560.3 511.7 560.2 510.9Q560.0 510.1 559.8 508.9L559.8 508.9Q559.6 509.7 559.4 510.5Q559.3 511.2 559.1 512.0Z M587.8 508.8L584.9 508.8L584.9 521L581.1 521L581.1 508.8L578.9 508.8L578.9 506.2L581.1 506.2L581.1 504.7Q581.1 500.7 585.4 500.7L585.4 500.7Q586.5 500.7 587.8 500.9L587.8 500.9L587.8 503.4Q587.3 503.3 586.7 503.3L586.7 503.3Q585.7 503.3 585.3 503.7Q584.9 504.1 584.9 505.0L584.9 505.0L584.9 506.2L587.8 506.2L587.8 508.8ZM603.8 513.6L603.8 513.6Q603.8 517.2 601.8 519.2Q599.8 521.3 596.2 521.3L596.2 521.3Q592.8 521.3 590.8 519.2Q588.8 517.2 588.8 513.6L588.8 513.6Q588.8 510.0 590.8 508.0Q592.8 505.9 596.3 505.9L596.3 505.9Q599.9 505.9 601.9 507.9Q603.8 509.9 603.8 513.6ZM599.7 513.6L599.7 513.6Q599.7 511.0 598.9 509.8Q598.0 508.6 596.4 508.6L596.4 508.6Q592.9 508.6 592.9 513.6L592.9 513.6Q592.9 516.1 593.7 517.4Q594.6 518.6 596.2 518.6L596.2 518.6Q599.7 518.6 599.7 513.6ZM610.7 513.7L610.7 513.7L610.7 521L606.8 521L606.8 509.7Q606.8 508.5 606.8 507.6Q606.7 506.8 606.7 506.2L606.7 506.2L610.4 506.2Q610.4 506.3 610.4 506.8Q610.4 507.2 610.5 507.7Q610.5 508.2 610.5 508.7Q610.5 509.2 610.5 509.4L610.5 509.4L610.6 509.4Q611.1 507.8 611.6 507.2L611.6 507.2Q612.0 506.5 612.6 506.2Q613.2 505.9 614.1 505.9L614.1 505.9Q614.9 505.9 615.3 506.1L615.3 506.1L615.3 509.3Q614.4 509.1 613.7 509.1L613.7 509.1Q612.3 509.1 611.5 510.3Q610.7 511.5 610.7 513.7Z M629.3 513.1L629.3 513.1L629.3 521L625.5 521L625.5 509.5Q625.5 508.3 625.5 507.6Q625.4 506.8 625.4 506.2L625.4 506.2L629.0 506.2Q629.1 506.4 629.1 507.0Q629.2 507.6 629.2 508.2Q629.2 508.9 629.2 509.1L629.2 509.1L629.3 509.1Q630.0 507.5 631.0 506.7Q632.1 505.9 633.6 505.9L633.6 505.9Q637.0 505.9 637.7 509.1L637.7 509.1L637.8 509.1Q638.5 507.4 639.6 506.7Q640.6 505.9 642.3 505.9L642.3 505.9Q644.4 505.9 645.6 507.4Q646.7 508.9 646.7 511.6L646.7 511.6L646.7 521L642.9 521L642.9 512.7Q642.9 508.8 640.6 508.8L640.6 508.8Q639.5 508.8 638.8 509.9Q638.0 511.0 638.0 512.9L638.0 512.9L638.0 521L634.2 521L634.2 512.7Q634.2 508.8 632.0 508.8L632.0 508.8Q630.8 508.8 630.1 510.0Q629.3 511.2 629.3 513.1ZM664.4 513.6L664.4 513.6Q664.4 517.2 662.4 519.2Q660.4 521.3 656.9 521.3L656.9 521.3Q653.5 521.3 651.5 519.2Q649.5 517.2 649.5 513.6L649.5 513.6Q649.5 510.0 651.5 508.0Q653.5 505.9 657 505.9L657 505.9Q660.6 505.9 662.5 507.9Q664.4 509.9 664.4 513.6ZM660.4 513.6L660.4 513.6Q660.4 511.0 659.6 509.8Q658.7 508.6 657.1 508.6L657.1 508.6Q653.6 508.6 653.6 513.6L653.6 513.6Q653.6 516.1 654.4 517.4Q655.3 518.6 656.9 518.6L656.9 518.6Q660.4 518.6 660.4 513.6ZM671.3 513.7L671.3 513.7L671.3 521L667.5 521L667.5 509.7Q667.5 508.5 667.5 507.6Q667.4 506.8 667.4 506.2L667.4 506.2L671.0 506.2Q671.1 506.3 671.1 506.8Q671.1 507.2 671.2 507.7Q671.2 508.2 671.2 508.7Q671.2 509.2 671.2 509.4L671.2 509.4L671.3 509.4Q671.8 507.8 672.3 507.2L672.3 507.2Q672.7 506.5 673.3 506.2Q673.9 505.9 674.8 505.9L674.8 505.9Q675.6 505.9 676.0 506.1L676.0 506.1L676.0 509.3Q675.1 509.1 674.4 509.1L674.4 509.1Q672.9 509.1 672.1 510.3Q671.3 511.5 671.3 513.7ZM691.0 514.3L681.6 514.3Q681.6 516.5 682.4 517.6Q683.2 518.7 684.6 518.7L684.6 518.7Q686.7 518.7 687.2 516.9L687.2 516.9L690.8 517.3Q689.3 521.3 684.4 521.3L684.4 521.3Q681.1 521.3 679.3 519.3Q677.5 517.3 677.5 513.5L677.5 513.5Q677.5 509.9 679.3 507.9Q681.2 505.9 684.5 505.9L684.5 505.9Q687.7 505.9 689.4 508.0Q691.0 510.2 691.0 514.2L691.0 514.2L691.0 514.3ZM681.6 511.9L687.3 511.9Q687.2 510.1 686.5 509.2Q685.7 508.4 684.4 508.4L684.4 508.4Q683.1 508.4 682.4 509.3Q681.6 510.2 681.6 511.9L681.6 511.9Z "/></g><mask id="satori_om-id-7-1"><rect x="708" y="498" width="11" height="28" fill="#fff" mask="url(#satori_om-id)"/></mask><g mask="url(#satori_om-id)" clip-path="url(#satori_cp-id)"><path fill="#16697A" d="M717.5 502.9L717.5 520L709.2 520L709.2 502.9L717.5 502.9ZM713.6 511.5L716.8 519.0L716.8 503.9L713.6 511.5ZM712.9 511.5L709.8 504.1L709.8 518.9L712.9 511.5ZM713.3 512.3L710.3 519.4L716.3 519.4L713.3 512.3ZM710.3 503.6L713.3 510.7L716.3 503.6L710.3 503.6Z "/></g></svg>