<svg width="1200" height="630" viewBox="0 0 1200 630" xmlns="http://www.w3.org/2000/svg"><defs><pattern id="satori_pattern_id_3" x="0" y="0" width="1" height="1" patternUnits="objectBoundingBox"><linearGradient id="satori_biid_3" x1="-0.09774620284174435" y1="0.18618324350808482" x2="1.0977462028417444" y2="0.8138167564919152" spreadMethod="pad"><stop offset="0%" stop-color="#16697A"/><stop offset="100%" stop-color="#218380"/></linearGradient><rect x="0" y="0" width="1200" height="630" fill="url(#satori_biid_3)"/></pattern><pattern id="satori_pattern_id_2" x="0" y="0" width="1" height="1" patternUnits="objectBoundingBox"><radialGradient id="satori_radial_id_2" spreadMethod="pad"><stop offset="0" stop-color="rgba(39, 174, 96, 0.2)"/><stop offset="0.5" stop-color="transparent"/><stop offset="1" stop-color="transparent"/></radialGradient><mask id="satori_mask_id_2"><rect x="0" y="0" width="1200" height="630" fill="#fff"/></mask><rect x="0" y="0" width="1200" height="630" fill="transparent"/><ellipse cx="624" cy="623.7" width="1200" height="630" ry="882.0449988520995" rx="882.4692629208113" fill="url(#satori_radial_id_2)" mask="url(#satori_mask_id_2)"/></pattern><pattern id="satori_pattern_id_1" x="0" y="0" width="1" height="1" patternUnits="objectBoundingBox"><radialGradient id="satori_radial_id_1" spreadMethod="pad"><stop offset="0" stop-color="rgba(22, 105, 122, 0.3)"/><stop offset="0.5" stop-color="transparent"/><stop offset="1" stop-color="transparent"/></radialGradient><mask id="satori_mask_id_1"><rect x="0" y="0" width="1200" height="630" fill="#fff"/></mask><rect x="0" y="0" width="1200" height="630" fill="transparent"/><ellipse cx="1164" cy="132.29999999999998" width="1200" height="630" ry="703.8540899930896" rx="1646.1445866022827" fill="url(#satori_radial_id_1)" mask="url(#satori_mask_id_1)"/></pattern><pattern id="satori_pattern_id_0" x="0" y="0" width="1" height="1" patternUnits="objectBoundingBox"><radialGradient id="satori_radial_id_0" spreadMethod="pad"><stop offset="0" stop-color="rgba(33, 131, 128, 0.4)"/><stop offset="0.5" stop-color="transparent"/><stop offset="1" stop-color="transparent"/></radialGradient><mask id="satori_mask_id_0"><rect x="0" y="0" width="1200" height="630" fill="#fff"/></mask><rect x="0" y="0" width="1200" height="630" fill="transparent"/><ellipse cx="324" cy="233.1" width="1200" height="630" ry="561.3013629058814" rx="1238.8510806388313" fill="url(#satori_radial_id_0)" mask="url(#satori_mask_id_0)"/></pattern></defs><clipPath id="satori_cp-id"><rect x="0" y="0" width="1200" height="630"/></clipPath><mask id="satori_om-id"><rect x="0" y="0" width="1200" height="630" fill="#fff"/></mask><rect x="0" y="0" width="1200" height="630" fill="url(#satori_pattern_id_3)"/><rect x="0" y="0" width="1200" height="630" fill="url(#satori_pattern_id_2)"/><rect x="0" y="0" width="1200" height="630" fill="url(#satori_pattern_id_1)"/><rect x="0" y="0" width="1200" height="630" fill="url(#satori_pattern_id_0)"/><mask id="satori_om-id-0"><rect x="900" y="-100" width="400" height="400" fill="#fff" mask="url(#satori_om-id)"/></mask><path x="900" y="-100" width="400" height="400" fill="rgba(255, 255, 255, 0.03)" d="M1100,-100 h0 a200,200 0 0 1 200,200 v0 a200,200 0 0 1 -200,200 h0 a200,200 0 0 1 -200,-200 v0 a200,200 0 0 1 200,-200" clip-path="url(#satori_cp-id)" mask="url(#satori_om-id)"/><mask id="satori_om-id-1"><rect x="-150" y="280" width="500" height="500" fill="#fff" mask="url(#satori_om-id)"/></mask><path x="-150" y="280" width="500" height="500" fill="rgba(255, 255, 255, 0.02)" d="M100,280 h0 a250,250 0 0 1 250,250 v0 a250,250 0 0 1 -250,250 h0 a250,250 0 0 1 -250,-250 v0 a250,250 0 0 1 250,-250" clip-path="url(#satori_cp-id)" mask="url(#satori_om-id)"/><mask id="satori_om-id-2"><rect x="540" y="153" width="120" height="120" fill="#fff" mask="url(#satori_om-id)"/></mask><path x="540" y="153" width="120" height="120" fill="rgba(255, 255, 255, 0.15)" d="M570,153 h60 a30,30 0 0 1 30,30 v60 a30,30 0 0 1 -30,30 h-60 a30,30 0 0 1 -30,-30 v-60 a30,30 0 0 1 30,-30" clip-path="url(#satori_cp-id)" mask="url(#satori_om-id)"/><mask id="satori_om-id-2-0"><rect x="572" y="181" width="57" height="64" fill="#fff" mask="url(#satori_om-id)"/></mask><g mask="url(#satori_om-id)" clip-path="url(#satori_cp-id)"><path fill="black" d="M597.3 189.5L597.3 235L575.1 235L575.1 189.5L597.3 189.5ZM587 212.3L595.6 232.4L595.6 192.2L587 212.3ZM585.2 212.3L576.8 192.5L576.8 232L585.2 212.3ZM586.1 214.4L578.1 233.3L594.2 233.3L586.1 214.4ZM578.1 191.2L586.1 210.1L594.2 191.2L578.1 191.2ZM625.6 189.5L625.6 235L603.5 235L603.5 189.5L625.6 189.5ZM615.4 212.3L623.9 232.4L623.9 192.2L615.4 212.3ZM613.6 212.3L605.2 192.5L605.2 232L613.6 212.3ZM614.5 214.4L606.4 233.3L622.5 233.3L614.5 214.4ZM606.4 191.2L614.5 210.1L622.5 191.2L606.4 191.2Z "/></g><mask id="satori_om-id-3"><rect x="252" y="321" width="696" height="79" fill="#fff" mask="url(#satori_om-id)"/></mask><g mask="url(#satori_om-id)" clip-path="url(#satori_cp-id)"><path fill="#FFFFFF" d="M297.2 371.7L297.2 371.7Q297.2 379.0 291.8 382.9Q286.4 386.7 276.0 386.7L276.0 386.7Q257.2 386.7 254.1 373.1L254.1 373.1L264.1 371.4Q265.1 375.4 268.1 377.2Q271.0 378.9 276.3 378.9L276.3 378.9Q287.1 378.9 287.1 372.3L287.1 372.3Q287.1 370.2 285.9 368.8Q284.7 367.5 282.4 366.6L282.4 366.6Q280.1 365.7 273.7 364.3L273.7 364.3Q269.9 363.5 267.8 362.8Q265.7 362.2 264.4 361.7Q263.2 361.1 262.0 360.4L262.0 360.4Q259.3 358.8 257.9 356.2Q256.4 353.5 256.4 349.6L256.4 349.6Q256.4 342.9 261.4 339.3Q266.5 335.7 276.1 335.7L276.1 335.7Q285.3 335.7 290.0 338.6Q294.6 341.5 295.9 348.1L295.9 348.1L285.9 349.5Q285.1 346.3 282.7 344.7Q280.3 343.1 275.9 343.1L275.9 343.1Q266.5 343.1 266.5 349.0L266.5 349.0Q266.5 350.9 267.5 352.1Q268.5 353.4 270.5 354.3L270.5 354.3Q272.3 355.1 278.4 356.4L278.4 356.4Q285.6 357.9 288.7 359.2L288.7 359.2Q291.8 360.5 293.5 362.2L293.5 362.2Q297.2 365.7 297.2 371.7ZM318.9 386.7L318.9 386.7Q310.3 386.7 305.5 381.6Q300.8 376.4 300.8 367.2L300.8 367.2Q300.8 357.8 305.6 352.5Q310.3 347.3 319.0 347.3L319.0 347.3Q325.8 347.3 330.2 350.6Q334.6 354.0 335.7 359.9L335.7 359.9L325.7 360.4Q325.3 357.5 323.6 355.8Q321.9 354.0 318.8 354.0L318.8 354.0Q311.2 354.0 311.2 366.8L311.2 366.8Q311.2 380.0 319.0 380.0L319.0 380.0Q321.8 380.0 323.7 378.2Q325.6 376.4 326.0 372.9L326.0 372.9L336.0 373.3Q335.4 377.4 333.1 380.4Q330.8 383.4 327.2 385.0Q323.5 386.7 318.9 386.7ZM351.0 367.3L351.0 367.3L351.0 386L341.1 386L341.1 356.9Q341.1 353.8 341.0 351.7Q340.9 349.6 340.8 348.0L340.8 348.0L350.2 348.0Q350.3 348.3 350.4 349.4Q350.4 350.5 350.5 351.8Q350.6 353.2 350.6 354.4Q350.7 355.6 350.7 356.1L350.7 356.1L350.8 356.1Q352.2 352.1 353.4 350.4L353.4 350.4Q354.5 348.8 356.1 348.0Q357.6 347.2 359.9 347.2L359.9 347.2Q361.8 347.2 363.0 347.8L363.0 347.8L363.0 356.0Q360.6 355.5 358.8 355.5L358.8 355.5Q355.1 355.5 353.0 358.5Q351.0 361.5 351.0 367.3ZM403.3 366.9L403.3 366.9Q403.3 376.2 398.1 381.4Q393.0 386.7 383.9 386.7L383.9 386.7Q375.0 386.7 370.0 381.4Q364.9 376.2 364.9 366.9L364.9 366.9Q364.9 357.8 370.0 352.5Q375.0 347.3 384.1 347.3L384.1 347.3Q393.4 347.3 398.3 352.3Q403.3 357.4 403.3 366.9ZM392.9 366.9L392.9 366.9Q392.9 360.2 390.7 357.1Q388.5 354.0 384.3 354.0L384.3 354.0Q375.3 354.0 375.3 366.9L375.3 366.9Q375.3 373.3 377.5 376.6Q379.7 380.0 383.8 380.0L383.8 380.0Q392.9 380.0 392.9 366.9ZM409.1 333.8L419.0 333.8L419.0 386L409.1 386L409.1 333.8ZM427.1 333.8L437.0 333.8L437.0 386L427.1 386L427.1 333.8ZM442.9 363.0L461.2 363.0L461.2 371.6L442.9 371.6L442.9 363.0ZM507.3 371.7L507.3 371.7Q507.3 379.0 501.9 382.9Q496.5 386.7 486.0 386.7L486.0 386.7Q467.2 386.7 464.1 373.1L464.1 373.1L474.1 371.4Q475.2 375.4 478.1 377.2Q481.1 378.9 486.3 378.9L486.3 378.9Q497.2 378.9 497.2 372.3L497.2 372.3Q497.2 370.2 495.9 368.8Q494.7 367.5 492.4 366.6L492.4 366.6Q490.2 365.7 483.7 364.3L483.7 364.3Q480.0 363.5 477.9 362.8Q475.8 362.2 474.5 361.7Q473.2 361.1 472.0 360.4L472.0 360.4Q469.4 358.8 467.9 356.2Q466.4 353.5 466.4 349.6L466.4 349.6Q466.4 342.9 471.5 339.3Q476.5 335.7 486.2 335.7L486.2 335.7Q495.4 335.7 500.0 338.6Q504.6 341.5 506.0 348.1L506.0 348.1L495.9 349.5Q495.1 346.3 492.8 344.7Q490.4 343.1 486.0 343.1L486.0 343.1Q476.5 343.1 476.5 349.0L476.5 349.0Q476.5 350.9 477.5 352.1Q478.5 353.4 480.5 354.3L480.5 354.3Q482.4 355.1 488.5 356.4L488.5 356.4Q495.7 357.9 498.7 359.2L498.7 359.2Q501.8 360.5 503.6 362.2L503.6 362.2Q507.3 365.7 507.3 371.7ZM531.2 379.3L531.2 385.4Q527.6 386.6 522.8 386.6L522.8 386.6Q518.5 386.6 516.1 384.3Q513.8 381.9 513.8 377.1L513.8 377.1L513.8 354.6L509.0 354.6L509.0 348.0L514.3 348.0L517.4 339.0L523.5 339.0L523.5 348.0L530.8 348.0L530.8 354.6L523.5 354.6L523.5 374.4Q523.5 379.8 527.9 379.8L527.9 379.8Q528.9 379.8 531.2 379.3L531.2 379.3ZM571.2 366.9L571.2 366.9Q571.2 376.2 566.1 381.4Q561.0 386.7 551.9 386.7L551.9 386.7Q543.0 386.7 537.9 381.4Q532.9 376.2 532.9 366.9L532.9 366.9Q532.9 357.8 537.9 352.5Q543.0 347.3 552.1 347.3L552.1 347.3Q561.4 347.3 566.3 352.3Q571.2 357.4 571.2 366.9ZM560.9 366.9L560.9 366.9Q560.9 360.2 558.7 357.1Q556.5 354.0 552.2 354.0L552.2 354.0Q543.2 354.0 543.2 366.9L543.2 366.9Q543.2 373.3 545.4 376.6Q547.6 380.0 551.8 380.0L551.8 380.0Q560.9 380.0 560.9 366.9ZM613.1 366.8L613.1 366.8Q613.1 376.3 609.2 381.5Q605.4 386.7 598.5 386.7L598.5 386.7Q590.2 386.7 586.9 380.0L586.9 380.0L586.7 380.0Q586.9 381.0 586.9 386.4L586.9 386.4L586.9 400.9L577.1 400.9L577.1 356.7Q577.1 354.0 577.0 351.8Q576.9 349.6 576.8 348.0L576.8 348.0L586.4 348.0Q586.6 348.6 586.7 350.5Q586.8 352.3 586.8 354.1L586.8 354.1L586.9 354.1Q590.2 347.2 599.1 347.2L599.1 347.2Q605.7 347.2 609.4 352.3Q613.1 357.4 613.1 366.8ZM602.8 366.8L602.8 366.8Q602.8 354.0 594.9 354.0L594.9 354.0Q591.0 354.0 588.9 357.5Q586.8 360.9 586.8 367.1L586.8 367.1Q586.8 373.2 588.9 376.6Q591.0 380.0 594.8 380.0L594.8 380.0Q602.8 380.0 602.8 366.8ZM655.0 366.8L655.0 366.8Q655.0 376.3 651.2 381.5Q647.4 386.7 640.4 386.7L640.4 386.7Q632.2 386.7 628.9 380.0L628.9 380.0L628.7 380.0Q628.9 381.0 628.9 386.4L628.9 386.4L628.9 400.9L619.0 400.9L619.0 356.7Q619.0 354.0 619.0 351.8Q618.9 349.6 618.8 348.0L618.8 348.0L628.4 348.0Q628.5 348.6 628.7 350.5Q628.8 352.3 628.8 354.1L628.8 354.1L628.9 354.1Q632.2 347.2 641.1 347.2L641.1 347.2Q647.7 347.2 651.4 352.3Q655.0 357.4 655.0 366.8ZM644.7 366.8L644.7 366.8Q644.7 354.0 636.9 354.0L636.9 354.0Q633.0 354.0 630.9 357.5Q628.8 360.9 628.8 367.1L628.8 367.1Q628.8 373.2 630.9 376.6Q633.0 380.0 636.8 380.0L636.8 380.0Q644.7 380.0 644.7 366.8ZM661.0 333.8L670.9 333.8L670.9 341.1L661.0 341.1L661.0 333.8ZM661.0 348.0L670.9 348.0L670.9 386L661.0 386L661.0 348.0ZM688.9 365.6L688.9 365.6L688.9 386L679.0 386L679.0 356.5Q679.0 353.4 678.9 351.5Q678.8 349.5 678.7 348.0L678.7 348.0L688.2 348.0Q688.2 348.4 688.3 349.9Q688.4 351.5 688.5 353.1Q688.6 354.8 688.6 355.5L688.6 355.5L688.8 355.5Q690.8 351.2 693.8 349.2Q696.8 347.2 701.0 347.2L701.0 347.2Q707.0 347.2 710.3 350.9Q713.5 354.7 713.5 361.8L713.5 361.8L713.5 386L703.7 386L703.7 364.7Q703.7 354.6 696.9 354.6L696.9 354.6Q693.3 354.6 691.1 357.7Q688.9 360.8 688.9 365.6ZM736.9 401.3L736.9 401.3Q730.0 401.3 725.7 398.6Q721.5 395.9 720.5 391.0L720.5 391.0L730.4 389.9Q730.9 392.2 732.7 393.5Q734.4 394.8 737.2 394.8L737.2 394.8Q741.3 394.8 743.2 392.2Q745.1 389.7 745.1 384.7L745.1 384.7L745.2 378.9L745.1 378.9Q741.9 385.9 732.9 385.9L732.9 385.9Q726.2 385.9 722.6 380.9Q718.9 375.9 718.9 366.7L718.9 366.7Q718.9 357.3 722.7 352.3Q726.5 347.2 733.6 347.2L733.6 347.2Q741.9 347.2 745.1 354.1L745.1 354.1L745.3 354.1Q745.3 353.2 745.4 352.0Q745.4 350.7 745.6 349.5Q745.7 348.4 745.8 348.0L745.8 348.0L755.1 348.0Q754.9 351.8 754.9 356.8L754.9 356.8L754.9 384.8Q754.9 393.0 750.3 397.1Q745.7 401.3 736.9 401.3ZM745.2 366.5L745.2 366.5Q745.2 360.6 743.1 357.3Q741.0 354.0 737.1 354.0L737.1 354.0Q729.2 354.0 729.2 366.7L729.2 366.7Q729.2 379.1 737.1 379.1L737.1 379.1Q741.0 379.1 743.1 375.8Q745.2 372.5 745.2 366.5Z M812.7 364.8L791.1 364.8L791.1 386L780.8 386L780.8 336.5L791.1 336.5L791.1 356.2L812.7 356.2L812.7 336.5L823.1 336.5L823.1 386L812.7 386L812.7 364.8ZM867.1 366.9L867.1 366.9Q867.1 376.2 862.0 381.4Q856.9 386.7 847.8 386.7L847.8 386.7Q838.9 386.7 833.8 381.4Q828.8 376.2 828.8 366.9L828.8 366.9Q828.8 357.8 833.8 352.5Q838.9 347.3 848 347.3L848 347.3Q857.3 347.3 862.2 352.3Q867.1 357.4 867.1 366.9ZM856.8 366.9L856.8 366.9Q856.8 360.2 854.6 357.1Q852.4 354.0 848.1 354.0L848.1 354.0Q839.1 354.0 839.1 366.9L839.1 366.9Q839.1 373.3 841.3 376.6Q843.5 380.0 847.7 380.0L847.7 380.0Q856.8 380.0 856.8 366.9ZM909.1 366.9L909.1 366.9Q909.1 376.2 904.0 381.4Q898.8 386.7 889.8 386.7L889.8 386.7Q880.9 386.7 875.8 381.4Q870.8 376.2 870.8 366.9L870.8 366.9Q870.8 357.8 875.8 352.5Q880.9 347.3 890.0 347.3L890.0 347.3Q899.3 347.3 904.2 352.3Q909.1 357.4 909.1 366.9ZM898.8 366.9L898.8 366.9Q898.8 360.2 896.6 357.1Q894.3 354.0 890.1 354.0L890.1 354.0Q881.1 354.0 881.1 366.9L881.1 366.9Q881.1 373.3 883.3 376.6Q885.5 380.0 889.7 380.0L889.7 380.0Q898.8 380.0 898.8 366.9ZM929.1 368.8L924.8 371.7L924.8 386L914.9 386L914.9 333.8L924.8 333.8L924.8 363.7L938.4 348.0L949.0 348.0L935.7 362.8L950.0 386L939.2 386L929.1 368.8Z "/></g><mask id="satori_om-id-4"><rect x="453" y="432" width="295" height="45" fill="#fff" mask="url(#satori_om-id)"/></mask><g mask="url(#satori_om-id)" clip-path="url(#satori_cp-id)"><path fill="rgba(255, 255, 255, 0.85)" d="M472.9 458.9L472.9 458.9Q472.9 462.0 470.5 463.6Q468.1 465.3 463.8 465.3L463.8 465.3Q455.7 465.3 454.5 459.7L454.5 459.7L457.3 459.1Q457.8 461.1 459.5 462.1Q461.1 463.0 463.9 463.0L463.9 463.0Q466.8 463.0 468.4 462.0Q469.9 461 469.9 459.1L469.9 459.1Q469.9 458 469.4 457.3Q468.9 456.7 468.0 456.2L468.0 456.2Q467.2 455.8 465.9 455.5Q464.7 455.2 463.2 454.8L463.2 454.8Q460.6 454.3 459.2 453.7Q457.9 453.1 457.1 452.4L457.1 452.4Q455.5 450.9 455.5 448.5L455.5 448.5Q455.5 445.7 457.6 444.2Q459.8 442.7 463.8 442.7L463.8 442.7Q467.6 442.7 469.6 443.8Q471.6 445.0 472.4 447.7L472.4 447.7L469.4 448.2Q468.9 446.5 467.6 445.7Q466.2 444.9 463.8 444.9L463.8 444.9Q461.2 444.9 459.8 445.8Q458.4 446.7 458.4 448.4L458.4 448.4Q458.4 449.4 458.9 450.1Q459.5 450.7 460.5 451.2L460.5 451.2Q461.4 451.6 464.5 452.3L464.5 452.3Q465.8 452.6 467.0 452.9Q468.3 453.3 469.4 453.8L469.4 453.8Q470 454.0 470.6 454.4Q471.2 454.8 471.6 455.3L471.6 455.3Q472.2 455.9 472.5 456.8Q472.9 457.7 472.9 458.9ZM485.8 453.0L485.8 453.0L482.8 465L479.5 465L474.8 448.1L477.6 448.1L480.5 459.8Q480.6 460.3 480.8 461.1Q481.0 461.8 481.1 462.7L481.1 462.7Q481.3 461.9 481.5 461.2Q481.6 460.5 481.8 459.8L481.8 459.8L484.9 448.1L487.9 448.1L490.9 459.7Q491.1 460.4 491.2 461.2Q491.4 461.9 491.6 462.7L491.6 462.7Q491.8 461.9 491.9 461.1Q492.1 460.3 492.3 459.7L492.3 459.7L495.3 448.1L498.0 448.1L493.2 465L489.9 465L487.0 453.0Q486.8 452.4 486.7 451.7Q486.5 451.1 486.4 450.4L486.4 450.4Q486.3 450.8 486.2 451.6Q486.0 452.4 485.8 453.0ZM500.6 441.8L503.4 441.8L503.4 444.5L500.6 444.5L500.6 441.8ZM500.6 448.1L503.4 448.1L503.4 465L500.6 465L500.6 448.1ZM522.5 456.5L522.5 456.5Q522.5 465.3 516.3 465.3L516.3 465.3Q512.4 465.3 511.0 462.4L511.0 462.4L511.0 462.4Q511.0 462.5 511.0 465.0L511.0 465.0L511.0 471.6L508.2 471.6L508.2 451.5Q508.2 448.9 508.1 448.1L508.1 448.1L510.8 448.1Q510.9 448.2 510.9 448.7Q510.9 449.3 511.0 449.9Q511 450.5 511 450.8L511 450.8L511.1 450.8Q511.8 449.3 513.0 448.5Q514.3 447.8 516.3 447.8L516.3 447.8Q519.4 447.8 521.0 449.9Q522.5 452.0 522.5 456.5ZM519.6 456.5L519.6 456.5Q519.6 453 518.6 451.5Q517.7 450.0 515.6 450.0L515.6 450.0Q513.3 450.0 512.1 451.6Q511.0 453.2 511.0 456.8L511.0 456.8Q511.0 460.1 512.1 461.7Q513.2 463.2 515.5 463.2L515.5 463.2Q517.6 463.2 518.6 461.7Q519.6 460.2 519.6 456.5ZM540.7 457.1L528.7 457.1Q528.7 460.0 529.9 461.6Q531.1 463.2 533.4 463.2L533.4 463.2Q535.2 463.2 536.3 462.5Q537.4 461.7 537.8 460.6L537.8 460.6L540.3 461.3Q538.8 465.3 533.4 465.3L533.4 465.3Q529.6 465.3 527.7 463.1Q525.7 460.8 525.7 456.4L525.7 456.4Q525.7 452.3 527.7 450.0Q529.6 447.8 533.3 447.8L533.3 447.8Q540.7 447.8 540.7 456.8L540.7 456.8L540.7 457.1ZM528.7 455.0L537.8 455.0Q537.6 452.3 536.5 451.1Q535.3 449.9 533.2 449.9L533.2 449.9Q531.2 449.9 530.0 451.2Q528.8 452.6 528.7 455.0L528.7 455.0Z M560.7 462.8L560.7 464.9Q559.3 465.3 557.9 465.3L557.9 465.3Q554.5 465.3 554.5 461.4L554.5 461.4L554.5 450.1L552.5 450.1L552.5 448.1L554.6 448.1L555.4 444.3L557.3 444.3L557.3 448.1L560.4 448.1L560.4 450.1L557.3 450.1L557.3 460.8Q557.3 462.0 557.7 462.5Q558.1 463.0 559.1 463.0L559.1 463.0Q559.6 463.0 560.7 462.8L560.7 462.8ZM577.9 456.5L577.9 456.5Q577.9 461.0 575.9 463.1Q574.0 465.3 570.3 465.3L570.3 465.3Q566.6 465.3 564.7 463.1Q562.8 460.8 562.8 456.5L562.8 456.5Q562.8 447.8 570.4 447.8L570.4 447.8Q574.2 447.8 576.1 449.9Q577.9 452.0 577.9 456.5ZM574.9 456.5L574.9 456.5Q574.9 453.0 573.9 451.4Q572.9 449.9 570.4 449.9L570.4 449.9Q567.9 449.9 566.8 451.5Q565.7 453.1 565.7 456.5L565.7 456.5Q565.7 459.9 566.8 461.6Q567.9 463.2 570.2 463.2L570.2 463.2Q572.8 463.2 573.9 461.6Q574.9 460.0 574.9 456.5Z M591.3 441.8L594.1 441.8L594.1 465L591.3 465L591.3 441.8ZM613.1 457.1L601.0 457.1Q601.0 460.0 602.3 461.6Q603.5 463.2 605.8 463.2L605.8 463.2Q607.6 463.2 608.7 462.5Q609.8 461.7 610.2 460.6L610.2 460.6L612.7 461.3Q611.1 465.3 605.8 465.3L605.8 465.3Q602.0 465.3 600.1 463.1Q598.1 460.8 598.1 456.4L598.1 456.4Q598.1 452.3 600.1 450.0Q602.0 447.8 605.7 447.8L605.7 447.8Q613.1 447.8 613.1 456.8L613.1 456.8L613.1 457.1ZM601.1 455.0L610.2 455.0Q610.0 452.3 608.8 451.1Q607.7 449.9 605.6 449.9L605.6 449.9Q603.6 449.9 602.4 451.2Q601.2 452.6 601.1 455.0L601.1 455.0ZM621.5 465.3L621.5 465.3Q619.0 465.3 617.7 464.0Q616.4 462.6 616.4 460.3L616.4 460.3Q616.4 457.7 618.1 456.3Q619.8 454.8 623.7 454.8L623.7 454.8L627.5 454.7L627.5 453.8Q627.5 451.7 626.6 450.8Q625.7 449.9 623.9 449.9L623.9 449.9Q622.0 449.9 621.1 450.6Q620.3 451.2 620.1 452.6L620.1 452.6L617.1 452.3Q617.9 447.8 623.9 447.8L623.9 447.8Q627.1 447.8 628.7 449.2Q630.3 450.7 630.3 453.5L630.3 453.5L630.3 460.8Q630.3 462 630.7 462.6Q631.0 463.3 631.9 463.3L631.9 463.3Q632.3 463.3 632.8 463.2L632.8 463.2L632.8 464.9Q631.8 465.2 630.7 465.2L630.7 465.2Q629.1 465.2 628.4 464.3Q627.7 463.5 627.6 461.8L627.6 461.8L627.5 461.8Q626.4 463.7 625.0 464.5Q623.5 465.3 621.5 465.3ZM627.5 458.0L627.5 456.7L624.4 456.7Q622.4 456.7 621.4 457.1L621.4 457.1Q620.4 457.5 619.8 458.3Q619.3 459.1 619.3 460.3L619.3 460.3Q619.3 461.7 620.0 462.5Q620.8 463.2 622.1 463.2L622.1 463.2Q623.7 463.2 624.9 462.5L624.9 462.5Q626.1 461.8 626.8 460.6Q627.5 459.3 627.5 458.0L627.5 458.0ZM638.4 456.2L638.4 456.2L638.4 465L635.5 465L635.5 452.0Q635.5 450.3 635.5 448.1L635.5 448.1L638.1 448.1Q638.2 449.5 638.2 450.4Q638.2 451.3 638.2 451.5L638.2 451.5L638.3 451.5Q638.8 450.0 639.3 449.2L639.3 449.2Q639.9 448.4 640.6 448.1Q641.3 447.8 642.3 447.8L642.3 447.8Q642.9 447.8 643.5 447.9L643.5 447.9L643.5 450.5Q642.9 450.4 642.0 450.4L642.0 450.4Q640.2 450.4 639.3 451.9Q638.4 453.4 638.4 456.2ZM649.5 455.2L649.5 455.2L649.5 465L646.7 465L646.7 451.7Q646.7 448.8 646.6 448.1L646.6 448.1L649.3 448.1Q649.3 448.5 649.3 449.3Q649.4 450.1 649.4 451.0L649.4 451.0L649.4 451.0Q650.4 449.2 651.7 448.5Q653.0 447.8 654.8 447.8L654.8 447.8Q657.6 447.8 658.9 449.2Q660.2 450.6 660.2 453.7L660.2 453.7L660.2 465L657.4 465L657.4 454.3Q657.4 451.9 656.6 450.9Q655.8 450.0 653.9 450.0L653.9 450.0Q651.9 450.0 650.7 451.3Q649.5 452.7 649.5 455.2Z M677.2 455.2L677.2 455.2L677.2 465L674.4 465L674.4 451.7Q674.4 448.8 674.3 448.1L674.3 448.1L677.0 448.1Q677 448.6 677.0 449.5Q677.1 450.3 677.1 451.0L677.1 451.0L677.1 451.0Q678.0 449.2 679.2 448.5Q680.4 447.8 682.1 447.8L682.1 447.8Q684.0 447.8 685.1 448.5Q686.2 449.3 686.7 451.0L686.7 451.0L686.7 451.0Q687.6 449.3 688.8 448.5Q690.1 447.8 691.8 447.8L691.8 447.8Q694.4 447.8 695.6 449.2Q696.7 450.6 696.7 453.7L696.7 453.7L696.7 465L693.9 465L693.9 454.3Q693.9 451.8 693.3 450.9Q692.6 450.0 690.8 450.0L690.8 450.0Q689 450.0 688.0 451.3Q687.0 452.7 687.0 455.2L687.0 455.2L687.0 465L684.2 465L684.2 454.3Q684.2 451.8 683.5 450.9Q682.8 450.0 681.1 450.0L681.1 450.0Q679.3 450.0 678.2 451.3Q677.2 452.7 677.2 455.2ZM715.8 456.5L715.8 456.5Q715.8 461.0 713.8 463.1Q711.9 465.3 708.2 465.3L708.2 465.3Q704.5 465.3 702.6 463.1Q700.7 460.8 700.7 456.5L700.7 456.5Q700.7 447.8 708.3 447.8L708.3 447.8Q712.1 447.8 714.0 449.9Q715.8 452.0 715.8 456.5ZM712.8 456.5L712.8 456.5Q712.8 453.0 711.8 451.4Q710.8 449.9 708.3 449.9L708.3 449.9Q705.8 449.9 704.7 451.5Q703.6 453.1 703.6 456.5L703.6 456.5Q703.6 459.9 704.7 461.6Q705.8 463.2 708.1 463.2L708.1 463.2Q710.7 463.2 711.7 461.6Q712.8 460.0 712.8 456.5ZM722.7 456.2L722.7 456.2L722.7 465L719.8 465L719.8 452.0Q719.8 450.3 719.8 448.1L719.8 448.1L722.4 448.1Q722.5 449.5 722.5 450.4Q722.5 451.3 722.5 451.5L722.5 451.5L722.6 451.5Q723.1 450.0 723.6 449.2L723.6 449.2Q724.2 448.4 724.9 448.1Q725.6 447.8 726.6 447.8L726.6 447.8Q727.2 447.8 727.8 447.9L727.8 447.9L727.8 450.5Q727.2 450.4 726.3 450.4L726.3 450.4Q724.5 450.4 723.6 451.9Q722.7 453.4 722.7 456.2ZM745.2 457.1L733.1 457.1Q733.1 460.0 734.3 461.6Q735.5 463.2 737.8 463.2L737.8 463.2Q739.6 463.2 740.7 462.5Q741.8 461.7 742.2 460.6L742.2 460.6L744.7 461.3Q743.2 465.3 737.8 465.3L737.8 465.3Q734.1 465.3 732.1 463.1Q730.1 460.8 730.1 456.4L730.1 456.4Q730.1 452.3 732.1 450.0Q734.1 447.8 737.7 447.8L737.7 447.8Q745.2 447.8 745.2 456.8L745.2 456.8L745.2 457.1ZM733.1 455.0L742.3 455.0Q742.0 452.3 740.9 451.1Q739.8 449.9 737.7 449.9L737.7 449.9Q735.6 449.9 734.4 451.2Q733.2 452.6 733.1 455.0L733.1 455.0Z "/></g><mask id="satori_om-id-5"><rect x="554" y="542" width="92" height="28" fill="#fff" mask="url(#satori_om-id)"/></mask><g opacity="0.6"></g><mask id="satori_om-id-5-0"><rect x="554" y="546" width="69" height="20" fill="#fff" mask="url(#satori_om-id)"/></mask><g opacity="0.6"></g><g mask="url(#satori_om-id)" clip-path="url(#satori_cp-id)"><path fill="rgba(255, 255, 255, 0.85)" d="M565.2 558.6L565.2 558.6Q565.2 560.3 563.8 561.2Q562.5 562.2 560.1 562.2L560.1 562.2Q555.5 562.2 554.8 559.0L554.8 559.0L556.4 558.7Q556.7 559.8 557.6 560.3Q558.6 560.9 560.1 560.9L560.1 560.9Q561.8 560.9 562.6 560.3Q563.5 559.8 563.5 558.7L563.5 558.7Q563.5 558.1 563.2 557.7Q563.0 557.3 562.5 557.1L562.5 557.1Q562.0 556.8 561.3 556.6Q560.6 556.5 559.7 556.3L559.7 556.3Q558.3 556.0 557.5 555.6Q556.7 555.3 556.3 554.9L556.3 554.9Q555.4 554.1 555.4 552.7L555.4 552.7Q555.4 551.2 556.6 550.3Q557.8 549.4 560.1 549.4L560.1 549.4Q562.2 549.4 563.3 550.1Q564.4 550.7 564.9 552.3L564.9 552.3L563.2 552.6Q563.0 551.6 562.2 551.1Q561.4 550.7 560.1 550.7L560.1 550.7Q558.6 550.7 557.8 551.2Q557.0 551.7 557.0 552.7L557.0 552.7Q557.0 553.2 557.3 553.6Q557.6 554.0 558.2 554.2L558.2 554.2Q558.7 554.5 560.5 554.9L560.5 554.9Q561.2 555.0 561.9 555.2Q562.6 555.4 563.2 555.7L563.2 555.7Q563.6 555.8 563.9 556.0Q564.2 556.3 564.5 556.5L564.5 556.5Q564.8 556.9 565.0 557.4Q565.2 557.9 565.2 558.6ZM575.9 554.2L575.9 554.2L573.7 562L571.7 562L568.1 549.6L569.8 549.6L572.1 557.5Q572.3 558.2 572.4 559.0Q572.6 559.7 572.8 560.5L572.8 560.5Q572.9 560.2 573.0 559.7Q573.1 559.1 573.2 558.6Q573.4 558.0 573.5 557.6L573.5 557.6L575.7 549.6L577.3 549.6L579.5 557.3Q579.7 558.3 579.9 559.1Q580.1 559.9 580.2 560.5L580.2 560.5Q580.4 560.0 580.5 559.4Q580.7 558.8 580.8 558.3Q580.9 557.8 581.0 557.6L581.0 557.6L583.2 549.6L584.9 549.6L581.3 562L579.3 562L577.1 554.1Q577.0 553.8 576.9 553.1Q576.7 552.4 576.5 551.5L576.5 551.5Q576.4 552.0 576.3 552.5Q576.2 553.0 576.1 553.5Q576.0 553.9 575.9 554.2ZM588.7 549.6L590.3 549.6L590.3 562L588.7 562L588.7 549.6ZM605.1 553.3L605.1 553.3Q605.1 555.1 603.9 556.1Q602.8 557.2 600.8 557.2L600.8 557.2L597.2 557.2L597.2 562L595.5 562L595.5 549.6L600.7 549.6Q602.8 549.6 603.9 550.6Q605.1 551.6 605.1 553.3ZM603.4 553.4L603.4 553.4Q603.4 551.0 600.5 551.0L600.5 551.0L597.2 551.0L597.2 555.8L600.6 555.8Q603.4 555.8 603.4 553.4ZM611.2 560.6L619.2 560.6L619.2 562L609.5 562L609.5 549.6L618.9 549.6L618.9 551.0L611.2 551.0L611.2 555.0L618.3 555.0L618.3 556.3L611.2 556.3L611.2 560.6Z " opacity="0.6"/></g><mask id="satori_om-id-5-1"><rect x="635" y="542" width="11" height="28" fill="#fff" mask="url(#satori_om-id)"/></mask><g opacity="0.6"></g><g mask="url(#satori_om-id)" clip-path="url(#satori_cp-id)"><path fill="rgba(255, 255, 255, 0.85)" d="M644.5 546.9L644.5 564L636.2 564L636.2 546.9L644.5 546.9ZM640.6 555.5L643.8 563.0L643.8 547.9L640.6 555.5ZM639.9 555.5L636.8 548.1L636.8 562.9L639.9 555.5ZM640.3 556.3L637.3 563.4L643.3 563.4L640.3 556.3ZM637.3 547.6L640.3 554.7L643.3 547.6L637.3 547.6Z " opacity="0.6"/></g></svg>