<svg width="1200" height="630" viewBox="0 0 1200 630" xmlns="http://www.w3.org/2000/svg"><mask id="satori_om-id"><rect x="0" y="0" width="1200" height="630" fill="#fff"/></mask><rect x="0" y="0" width="1200" height="630" fill="#f8f9fa"/><mask id="satori_om-id-0"><rect x="497" y="183" width="207" height="132" fill="#fff"/></mask><g  ><path fill="#1e3a5f" d="M520.4 242.3L520.4 242.3L520.4 291L505.0 291L505.0 208.4L524.8 208.4L561.3 272.5Q560.2 263.6 560.2 256.4L560.2 256.4L560.2 208.4L575.6 208.4L575.6 291L555.3 291L519.3 227.4Q520.4 236.6 520.4 242.3ZM601.9 204.0L615.8 204.0L599.1 293.4L584.8 293.4L601.9 204.0ZM676.1 269.9L644.6 269.9L637.3 291L620.0 291L650.1 208.4L670.5 208.4L700.5 291L683.4 291L676.1 269.9ZM660.3 221.2L660.3 221.2Q659.7 223.5 658.7 226.8Q657.6 230.1 657.1 231.4L657.1 231.4L648.5 256.9L672.2 256.9L663.3 230.9Q662.5 228.5 661.8 226.0Q661.1 223.6 660.3 221.2Z "/></g><mask id="satori_om-id-1"><rect x="306" y="335" width="589" height="36" fill="#fff"/></mask><g  ><path fill="#212529" d="M318.6 360.7L318.6 360.7Q320.4 360.7 322.1 360.2Q323.8 359.7 324.7 358.8L324.7 358.8L324.7 355.8L319.3 355.8L319.3 352.4L328.9 352.4L328.9 360.5Q327.2 362.3 324.4 363.3Q321.5 364.3 318.5 364.3L318.5 364.3Q313.1 364.3 310.2 361.3Q307.3 358.4 307.3 352.9L307.3 352.9Q307.3 347.5 310.2 344.6Q313.1 341.7 318.6 341.7L318.6 341.7Q326.3 341.7 328.4 347.4L328.4 347.4L324.2 348.7Q323.5 347 322.0 346.1Q320.6 345.3 318.6 345.3L318.6 345.3Q315.3 345.3 313.6 347.3Q312.0 349.2 312.0 352.9L312.0 352.9Q312.0 356.6 313.7 358.7Q315.4 360.7 318.6 360.7ZM337.6 360.4L349.5 360.4L349.5 364L333.0 364L333.0 342.0L337.6 342.0L337.6 360.4ZM370.7 349.0L370.7 349.0Q370.7 351.1 369.7 352.7Q368.7 354.4 366.9 355.3Q365.1 356.3 362.7 356.3L362.7 356.3L357.2 356.3L357.2 364L352.6 364L352.6 342.0L362.5 342.0Q366.4 342.0 368.6 343.8Q370.7 345.6 370.7 349.0ZM366.0 349.0L366.0 349.0Q366.0 345.6 362.0 345.6L362.0 345.6L357.2 345.6L357.2 352.7L362.1 352.7Q364.0 352.7 365.0 351.8Q366.0 350.8 366.0 349.0ZM373.0 353.8L381.2 353.8L381.2 357.6L373.0 357.6L373.0 353.8ZM394.3 360.7L399.3 360.7L399.3 364L384.5 364L384.5 360.7L389.9 360.7L389.9 345.7L384.6 349.0L384.6 345.6L390.1 342.0L394.3 342.0L394.3 360.7Z M421.3 355.6L415.9 355.6L415.9 364L411.3 364L411.3 342.0L422.3 342.0Q426.2 342.0 428.3 343.7Q430.5 345.4 430.5 348.5L430.5 348.5Q430.5 350.9 429.2 352.5Q427.9 354.2 425.6 354.8L425.6 354.8L431.6 364L426.4 364L421.3 355.6ZM425.8 348.7L425.8 348.7Q425.8 345.6 421.8 345.6L421.8 345.6L415.9 345.6L415.9 352.1L421.9 352.1Q423.8 352.1 424.8 351.2Q425.8 350.3 425.8 348.7ZM448.9 356.4L438.1 356.4Q438.1 358.9 439.0 360.1Q439.9 361.4 441.6 361.4L441.6 361.4Q443.9 361.4 444.5 359.4L444.5 359.4L448.7 359.7Q446.9 364.3 441.4 364.3L441.4 364.3Q437.6 364.3 435.5 362.1Q433.5 359.8 433.5 355.5L433.5 355.5Q433.5 351.3 435.6 349.0Q437.6 346.8 441.5 346.8L441.5 346.8Q445.1 346.8 447.0 349.2Q448.9 351.6 448.9 356.3L448.9 356.3L448.9 356.4ZM438.1 353.6L444.7 353.6Q444.6 351.6 443.7 350.6Q442.8 349.5 441.4 349.5L441.4 349.5Q439.8 349.5 439.0 350.6Q438.2 351.7 438.1 353.6L438.1 353.6ZM459.3 364.3L459.3 364.3Q455.5 364.3 453.4 362.0Q451.3 359.7 451.3 355.6L451.3 355.6Q451.3 351.5 453.4 349.1Q455.5 346.8 459.4 346.8L459.4 346.8Q462.4 346.8 464.3 348.3Q466.3 349.8 466.8 352.4L466.8 352.4L462.3 352.6Q462.2 351.3 461.4 350.6Q460.7 349.8 459.3 349.8L459.3 349.8Q455.9 349.8 455.9 355.5L455.9 355.5Q455.9 361.3 459.3 361.3L459.3 361.3Q460.6 361.3 461.4 360.5Q462.3 359.7 462.5 358.2L462.5 358.2L466.9 358.4Q466.7 360.2 465.6 361.5Q464.6 362.8 463.0 363.6Q461.4 364.3 459.3 364.3ZM484.5 356.4L473.7 356.4Q473.7 358.9 474.6 360.1Q475.5 361.4 477.2 361.4L477.2 361.4Q479.5 361.4 480.1 359.4L480.1 359.4L484.3 359.7Q482.5 364.3 477.0 364.3L477.0 364.3Q473.2 364.3 471.1 362.1Q469.1 359.8 469.1 355.5L469.1 355.5Q469.1 351.3 471.2 349.0Q473.2 346.8 477.0 346.8L477.0 346.8Q480.7 346.8 482.6 349.2Q484.5 351.6 484.5 356.3L484.5 356.3L484.5 356.4ZM473.7 353.6L480.3 353.6Q480.2 351.6 479.3 350.6Q478.4 349.5 477.0 349.5L477.0 349.5Q475.4 349.5 474.6 350.6Q473.8 351.7 473.7 353.6L473.7 353.6ZM503.9 355.5L503.9 355.5Q503.9 359.7 502.2 362.0Q500.5 364.3 497.4 364.3L497.4 364.3Q493.7 364.3 492.3 361.3L492.3 361.3L492.2 361.3Q492.3 361.8 492.3 364.2L492.3 364.2L492.3 370.6L487.9 370.6L487.9 351.0Q487.9 349.8 487.8 348.8Q487.8 347.8 487.7 347.1L487.7 347.1L492 347.1Q492.1 347.4 492.1 348.2Q492.2 349.0 492.2 349.8L492.2 349.8L492.3 349.8Q493.7 346.7 497.7 346.7L497.7 346.7Q500.6 346.7 502.2 349.0Q503.9 351.3 503.9 355.5ZM499.3 355.5L499.3 355.5Q499.3 349.8 495.8 349.8L495.8 349.8Q494.0 349.8 493.1 351.3Q492.2 352.8 492.2 355.6L492.2 355.6Q492.2 358.3 493.1 359.8Q494.0 361.3 495.8 361.3L495.8 361.3Q499.3 361.3 499.3 355.5ZM515.4 361.0L515.4 363.8Q513.8 364.3 511.7 364.3L511.7 364.3Q509.8 364.3 508.8 363.2Q507.7 362.2 507.7 360.0L507.7 360.0L507.7 350.1L505.6 350.1L505.6 347.1L507.9 347.1L509.3 343.1L512.0 343.1L512.0 347.1L515.3 347.1L515.3 350.1L512.0 350.1L512.0 358.8Q512.0 361.3 514.0 361.3L514.0 361.3Q514.4 361.3 515.4 361.0L515.4 361.0ZM534.1 355.5L534.1 355.5Q534.1 359.6 531.8 362.0Q529.6 364.3 525.5 364.3L525.5 364.3Q521.6 364.3 519.3 362.0Q517.1 359.6 517.1 355.5L517.1 355.5Q517.1 351.5 519.3 349.1Q521.6 346.8 525.6 346.8L525.6 346.8Q529.8 346.8 531.9 349.0Q534.1 351.3 534.1 355.5ZM529.5 355.5L529.5 355.5Q529.5 352.5 528.5 351.2Q527.6 349.8 525.7 349.8L525.7 349.8Q521.7 349.8 521.7 355.5L521.7 355.5Q521.7 358.4 522.7 359.8Q523.6 361.3 525.5 361.3L525.5 361.3Q529.5 361.3 529.5 355.5ZM542 355.7L542 355.7L542 364L537.6 364L537.6 351.1Q537.6 349.7 537.6 348.7Q537.5 347.8 537.5 347.1L537.5 347.1L541.7 347.1Q541.7 347.2 541.7 347.7Q541.8 348.2 541.8 348.8Q541.8 349.4 541.9 349.9Q541.9 350.5 541.9 350.7L541.9 350.7L541.9 350.7Q542.6 349.0 543.1 348.2L543.1 348.2Q543.6 347.5 544.3 347.1Q545.0 346.8 546.0 346.8L546.0 346.8Q546.8 346.8 547.3 347L547.3 347L547.3 350.7Q546.3 350.4 545.5 350.4L545.5 350.4Q543.8 350.4 542.9 351.8Q542 353.1 542 355.7Z M572.5 358.4L564.1 358.4L562.1 364L557.5 364L565.5 342.0L571.0 342.0L579.0 364L574.4 364L572.5 358.4ZM568.3 345.4L568.3 345.4Q568.1 346 567.8 346.9Q567.5 347.8 567.4 348.1L567.4 348.1L565.1 354.9L571.4 354.9L569.1 348.0Q568.8 347.3 568.7 346.7Q568.5 346.0 568.3 345.4ZM589.1 370.8L589.1 370.8Q586.0 370.8 584.2 369.6Q582.3 368.4 581.8 366.2L581.8 366.2L586.2 365.7Q586.5 366.7 587.2 367.3Q588.0 367.9 589.3 367.9L589.3 367.9Q591.1 367.9 591.9 366.8Q592.8 365.6 592.8 363.4L592.8 363.4L592.8 360.9L592.8 360.9Q591.3 364.0 587.3 364.0L587.3 364.0Q584.4 364.0 582.8 361.8Q581.1 359.5 581.1 355.4L581.1 355.4Q581.1 351.3 582.8 349.0Q584.5 346.8 587.7 346.8L587.7 346.8Q591.4 346.8 592.8 349.8L592.8 349.8L592.9 349.8Q592.9 349.4 592.9 348.9Q592.9 348.3 593.0 347.8Q593.0 347.3 593.1 347.1L593.1 347.1L597.2 347.1Q597.1 348.8 597.1 351L597.1 351L597.1 363.5Q597.1 367.1 595.1 368.9Q593.0 370.8 589.1 370.8ZM592.8 355.3L592.8 355.3Q592.8 352.7 591.9 351.2Q591.0 349.8 589.2 349.8L589.2 349.8Q585.7 349.8 585.7 355.4L585.7 355.4Q585.7 360.9 589.2 360.9L589.2 360.9Q591.0 360.9 591.9 359.5Q592.8 358 592.8 355.3ZM617.7 355.5L617.7 355.5Q617.7 359.6 615.4 362.0Q613.1 364.3 609.1 364.3L609.1 364.3Q605.1 364.3 602.9 362.0Q600.6 359.6 600.6 355.5L600.6 355.5Q600.6 351.5 602.9 349.1Q605.1 346.8 609.2 346.8L609.2 346.8Q613.3 346.8 615.5 349.0Q617.7 351.3 617.7 355.5ZM613.1 355.5L613.1 355.5Q613.1 352.5 612.1 351.2Q611.1 349.8 609.2 349.8L609.2 349.8Q605.2 349.8 605.2 355.5L605.2 355.5Q605.2 358.4 606.2 359.8Q607.2 361.3 609.0 361.3L609.0 361.3Q613.1 361.3 613.1 355.5ZM625.5 354.9L625.5 354.9L625.5 364L621.2 364L621.2 350.9Q621.2 349.5 621.1 348.6Q621.1 347.8 621.0 347.1L621.0 347.1L625.2 347.1Q625.3 347.3 625.3 348.0Q625.3 348.7 625.4 349.4Q625.4 350.1 625.4 350.5L625.4 350.5L625.5 350.5Q626.4 348.5 627.7 347.6Q629.1 346.8 630.9 346.8L630.9 346.8Q633.6 346.8 635.0 348.4Q636.5 350.1 636.5 353.3L636.5 353.3L636.5 364L632.1 364L632.1 354.5Q632.1 350.1 629.1 350.1L629.1 350.1Q627.5 350.1 626.5 351.4Q625.5 352.8 625.5 354.9ZM640.7 340.8L645.1 340.8L645.1 344.0L640.7 344.0L640.7 340.8ZM640.7 347.1L645.1 347.1L645.1 364L640.7 364L640.7 347.1ZM663.8 359.1L663.8 359.1Q663.8 361.5 661.8 362.9Q659.8 364.3 656.3 364.3L656.3 364.3Q652.8 364.3 650.9 363.2Q649.1 362.1 648.5 359.8L648.5 359.8L652.3 359.2Q652.7 360.4 653.5 360.9Q654.3 361.4 656.3 361.4L656.3 361.4Q658.1 361.4 659.0 360.9Q659.8 360.5 659.8 359.5L659.8 359.5Q659.8 358.7 659.1 358.2Q658.5 357.7 656.8 357.4L656.8 357.4Q653.2 356.7 651.8 356L651.8 356Q650.5 355.4 649.8 354.4Q649.2 353.4 649.2 351.9L649.2 351.9Q649.2 349.5 651.0 348.1Q652.9 346.8 656.3 346.8L656.3 346.8Q659.3 346.8 661.2 347.9Q663 349.1 663.5 351.3L663.5 351.3L659.6 351.7Q659.4 350.7 658.6 350.2Q657.9 349.7 656.3 349.7L656.3 349.7Q654.8 349.7 654.0 350.1Q653.2 350.5 653.2 351.4L653.2 351.4Q653.2 352.2 653.8 352.6Q654.4 353.0 655.8 353.3L655.8 353.3Q657.8 353.7 659.3 354.1Q660.9 354.6 661.8 355.2L661.8 355.2Q662.7 355.8 663.3 356.7Q663.8 357.6 663.8 359.1ZM675.4 361.0L675.4 363.8Q673.8 364.3 671.7 364.3L671.7 364.3Q669.8 364.3 668.7 363.2Q667.7 362.2 667.7 360.0L667.7 360.0L667.7 350.1L665.5 350.1L665.5 347.1L667.9 347.1L669.3 343.1L672.0 343.1L672.0 347.1L675.2 347.1L675.2 350.1L672.0 350.1L672.0 358.8Q672.0 361.3 674.0 361.3L674.0 361.3Q674.4 361.3 675.4 361.0L675.4 361.0ZM692.3 359.1L692.3 359.1Q692.3 361.5 690.3 362.9Q688.3 364.3 684.7 364.3L684.7 364.3Q681.3 364.3 679.4 363.2Q677.5 362.1 676.9 359.8L676.9 359.8L680.8 359.2Q681.1 360.4 681.9 360.9Q682.7 361.4 684.7 361.4L684.7 361.4Q686.6 361.4 687.4 360.9Q688.3 360.5 688.3 359.5L688.3 359.5Q688.3 358.7 687.6 358.2Q686.9 357.7 685.3 357.4L685.3 357.4Q681.6 356.7 680.3 356L680.3 356Q679.0 355.4 678.3 354.4Q677.6 353.4 677.6 351.9L677.6 351.9Q677.6 349.5 679.5 348.1Q681.3 346.8 684.8 346.8L684.8 346.8Q687.8 346.8 689.6 347.9Q691.5 349.1 691.9 351.3L691.9 351.3L688.0 351.7Q687.8 350.7 687.1 350.2Q686.4 349.7 684.8 349.7L684.8 349.7Q683.2 349.7 682.4 350.1Q681.6 350.5 681.6 351.4L681.6 351.4Q681.6 352.2 682.2 352.6Q682.8 353.0 684.3 353.3L684.3 353.3Q686.3 353.7 687.8 354.1Q689.3 354.6 690.3 355.2L690.3 355.2Q691.2 355.8 691.7 356.7Q692.3 357.6 692.3 359.1Z M712.0 353.9L709.3 356.0L709.3 364L704.6 364L704.6 342.0L709.3 342.0L709.3 352.0L719.2 342.0L724.5 342.0L715.1 351.3L725.3 364L719.9 364L712.0 353.9ZM742.3 356.4L731.5 356.4Q731.5 358.9 732.4 360.1Q733.3 361.4 735.0 361.4L735.0 361.4Q737.3 361.4 737.9 359.4L737.9 359.4L742.1 359.7Q740.3 364.3 734.8 364.3L734.8 364.3Q731.0 364.3 728.9 362.1Q726.9 359.8 726.9 355.5L726.9 355.5Q726.9 351.3 728.9 349.0Q731.0 346.8 734.8 346.8L734.8 346.8Q738.5 346.8 740.4 349.2Q742.3 351.6 742.3 356.3L742.3 356.3L742.3 356.4ZM731.5 353.6L738.1 353.6Q737.9 351.6 737.1 350.6Q736.2 349.5 734.8 349.5L734.8 349.5Q733.2 349.5 732.4 350.6Q731.5 351.7 731.5 353.6L731.5 353.6ZM747.8 370.6L747.8 370.6Q746.2 370.6 745.1 370.4L745.1 370.4L745.1 367.3Q745.9 367.4 746.6 367.4L746.6 367.4Q748.1 367.4 748.9 366.6Q749.6 365.8 750.3 363.8L750.3 363.8L743.7 347.1L748.3 347.1L751.0 355.0Q751.3 355.9 751.7 357.2Q752.0 358.5 752.5 360.2L752.5 360.2Q752.9 358.8 753.2 357.6Q753.5 356.4 753.9 355.1L753.9 355.1L756.4 347.1L761.0 347.1L754.3 364.9Q753.9 366.0 753.5 366.8Q753.0 367.6 752.6 368.3L752.6 368.3Q751.6 369.6 750.5 370.1Q749.4 370.6 747.8 370.6Z M790.2 357.7L790.2 357.7Q790.2 360.9 787.8 362.6Q785.4 364.3 780.8 364.3L780.8 364.3Q772.4 364.3 771.0 358.3L771.0 358.3L775.5 357.5Q775.9 359.3 777.2 360.1Q778.5 360.9 780.9 360.9L780.9 360.9Q785.7 360.9 785.7 357.9L785.7 357.9Q785.7 357.0 785.2 356.4Q784.6 355.8 783.6 355.4L783.6 355.4Q782.6 355.0 779.7 354.4L779.7 354.4Q778.1 354.0 777.1 353.7Q776.2 353.4 775.6 353.2Q775.1 352.9 774.5 352.6L774.5 352.6Q773.4 351.9 772.7 350.7Q772.0 349.6 772.0 347.8L772.0 347.8Q772.0 344.8 774.3 343.2Q776.5 341.7 780.8 341.7L780.8 341.7Q784.9 341.7 787.0 342.9Q789.0 344.2 789.6 347.2L789.6 347.2L785.1 347.8Q784.8 346.4 783.7 345.6Q782.7 344.9 780.7 344.9L780.7 344.9Q776.5 344.9 776.5 347.5L776.5 347.5Q776.5 348.4 777.0 349.0Q777.4 349.5 778.3 349.9L778.3 349.9Q779.1 350.3 781.8 350.8L781.8 350.8Q785.0 351.5 786.4 352.1L786.4 352.1Q787.8 352.7 788.5 353.4L788.5 353.4Q790.2 355.0 790.2 357.7ZM801.7 361.0L801.7 363.8Q800.1 364.3 798 364.3L798 364.3Q796.1 364.3 795.0 363.2Q794.0 362.2 794.0 360.0L794.0 360.0L794.0 350.1L791.8 350.1L791.8 347.1L794.2 347.1L795.6 343.1L798.3 343.1L798.3 347.1L801.5 347.1L801.5 350.1L798.3 350.1L798.3 358.8Q798.3 361.3 800.2 361.3L800.2 361.3Q800.7 361.3 801.7 361.0L801.7 361.0ZM808.2 364.3L808.2 364.3Q805.8 364.3 804.4 363.0Q803.0 361.6 803.0 359.2L803.0 359.2Q803.0 356.6 804.7 355.2Q806.5 353.9 809.7 353.8L809.7 353.8L813.3 353.8L813.3 352.9Q813.3 351.2 812.8 350.4Q812.2 349.6 810.9 349.6L810.9 349.6Q809.7 349.6 809.1 350.2Q808.5 350.7 808.4 352.0L808.4 352.0L803.8 351.8Q804.7 346.8 811.1 346.8L811.1 346.8Q814.3 346.8 816 348.4Q817.7 349.9 817.7 352.8L817.7 352.8L817.7 359Q817.7 360.4 818.1 361.0Q818.4 361.5 819.1 361.5L819.1 361.5Q819.6 361.5 820.1 361.4L820.1 361.4L820.1 363.8Q819.3 364.0 818.7 364.1Q818.1 364.2 817.3 364.2L817.3 364.2Q815.6 364.2 814.8 363.4Q814.0 362.6 813.9 361.0L813.9 361.0L813.8 361.0Q812.0 364.3 808.2 364.3ZM813.3 357.0L813.3 356.2L811.1 356.2Q809.5 356.3 808.9 356.5L808.9 356.5Q808.3 356.8 807.9 357.4Q807.6 357.9 807.6 358.9L807.6 358.9Q807.6 360.1 808.2 360.7Q808.7 361.3 809.6 361.3L809.6 361.3Q810.7 361.3 811.5 360.7L811.5 360.7Q812.4 360.1 812.9 359.1Q813.3 358.1 813.3 357.0L813.3 357.0ZM830.2 361.0L830.2 363.8Q828.6 364.3 826.5 364.3L826.5 364.3Q824.5 364.3 823.5 363.2Q822.4 362.2 822.4 360.0L822.4 360.0L822.4 350.1L820.3 350.1L820.3 347.1L822.6 347.1L824.0 343.1L826.8 343.1L826.8 347.1L830.0 347.1L830.0 350.1L826.8 350.1L826.8 358.8Q826.8 361.3 828.7 361.3L828.7 361.3Q829.2 361.3 830.2 361.0L830.2 361.0ZM832.8 340.8L837.2 340.8L837.2 344.0L832.8 344.0L832.8 340.8ZM832.8 347.1L837.2 347.1L837.2 364L832.8 364L832.8 347.1ZM855.9 359.1L855.9 359.1Q855.9 361.5 853.9 362.9Q851.9 364.3 848.4 364.3L848.4 364.3Q844.9 364.3 843.0 363.2Q841.2 362.1 840.6 359.8L840.6 359.8L844.4 359.2Q844.8 360.4 845.6 360.9Q846.4 361.4 848.4 361.4L848.4 361.4Q850.2 361.4 851.0 360.9Q851.9 360.5 851.9 359.5L851.9 359.5Q851.9 358.7 851.2 358.2Q850.5 357.7 848.9 357.4L848.9 357.4Q845.2 356.7 843.9 356L843.9 356Q842.6 355.4 841.9 354.4Q841.2 353.4 841.2 351.9L841.2 351.9Q841.2 349.5 843.1 348.1Q845.0 346.8 848.4 346.8L848.4 346.8Q851.4 346.8 853.2 347.9Q855.1 349.1 855.5 351.3L855.5 351.3L851.6 351.7Q851.5 350.7 850.7 350.2Q850.0 349.7 848.4 349.7L848.4 349.7Q846.8 349.7 846.0 350.1Q845.3 350.5 845.3 351.4L845.3 351.4Q845.3 352.2 845.9 352.6Q846.5 353.0 847.9 353.3L847.9 353.3Q849.9 353.7 851.4 354.1Q853.0 354.6 853.9 355.2L853.9 355.2Q854.8 355.8 855.4 356.7Q855.9 357.6 855.9 359.1ZM867.5 361.0L867.5 363.8Q865.9 364.3 863.8 364.3L863.8 364.3Q861.9 364.3 860.8 363.2Q859.8 362.2 859.8 360.0L859.8 360.0L859.8 350.1L857.6 350.1L857.6 347.1L860.0 347.1L861.4 343.1L864.1 343.1L864.1 347.1L867.3 347.1L867.3 350.1L864.1 350.1L864.1 358.8Q864.1 361.3 866.0 361.3L866.0 361.3Q866.5 361.3 867.5 361.0L867.5 361.0ZM870.1 340.8L874.5 340.8L874.5 344.0L870.1 344.0L870.1 340.8ZM870.1 347.1L874.5 347.1L874.5 364L870.1 364L870.1 347.1ZM886.1 364.3L886.1 364.3Q882.2 364.3 880.1 362.0Q878.0 359.7 878.0 355.6L878.0 355.6Q878.0 351.5 880.1 349.1Q882.3 346.8 886.1 346.8L886.1 346.8Q889.1 346.8 891.1 348.3Q893.0 349.8 893.5 352.4L893.5 352.4L889.1 352.6Q888.9 351.3 888.2 350.6Q887.4 349.8 886.0 349.8L886.0 349.8Q882.6 349.8 882.6 355.5L882.6 355.5Q882.6 361.3 886.1 361.3L886.1 361.3Q887.3 361.3 888.2 360.5Q889.0 359.7 889.2 358.2L889.2 358.2L893.6 358.4Q893.4 360.2 892.4 361.5Q891.4 362.8 889.7 363.6Q888.1 364.3 886.1 364.3Z "/></g><defs><clipPath id="satori_bc-id-2"><rect x="528" y="411" width="144" height="37"/></clipPath></defs><mask id="satori_om-id-2"><rect x="528" y="412" width="144" height="36" fill="#fff"/><path width="144" height="37" fill="none" stroke="#000" stroke-width="2" d="M528,411 A0,0 0 0 1 528,411 h144 A0,0 0 0 1 672,411"/></mask><path width="144" height="37" clip-path="url(#satori_bc-id-2)" fill="none" stroke="#e9ecef" stroke-width="2" d="M528,411 A0,0 0 0 1 528,411 h144 A0,0 0 0 1 672,411"/><g  ><path fill="#6c757d" d="M536.7 442.3L536.7 442.3Q536.7 443.7 535.7 444.4Q534.6 445.1 532.7 445.1L532.7 445.1Q529.2 445.1 528.6 442.7L528.6 442.7L529.9 442.4Q530.1 443.3 530.8 443.7Q531.5 444.1 532.8 444.1L532.8 444.1Q534.0 444.1 534.7 443.7Q535.4 443.3 535.4 442.4L535.4 442.4Q535.4 441.9 535.2 441.6Q535.0 441.3 534.6 441.2L534.6 441.2Q534.2 441.0 533.7 440.8Q533.1 440.7 532.5 440.6L532.5 440.6Q531.3 440.3 530.7 440.1Q530.1 439.8 529.8 439.5L529.8 439.5Q529.1 438.8 529.1 437.8L529.1 437.8Q529.1 436.6 530.0 435.9Q531.0 435.2 532.7 435.2L532.7 435.2Q534.4 435.2 535.3 435.7Q536.1 436.2 536.5 437.4L536.5 437.4L535.2 437.7Q535.0 436.9 534.4 436.6Q533.8 436.2 532.7 436.2L532.7 436.2Q531.6 436.2 531.0 436.6Q530.4 437.0 530.4 437.7L530.4 437.7Q530.4 438.2 530.6 438.5Q530.8 438.8 531.3 439.0L531.3 439.0Q531.7 439.2 533.0 439.5L533.0 439.5Q533.6 439.6 534.1 439.7Q534.7 439.9 535.2 440.1L535.2 440.1Q535.4 440.2 535.7 440.4Q536.0 440.5 536.1 440.7L536.1 440.7Q536.4 441.0 536.5 441.4Q536.7 441.8 536.7 442.3ZM544.5 441.3L544.5 441.3Q544.5 443.2 543.7 444.2Q542.8 445.1 541.2 445.1L541.2 445.1Q539.6 445.1 538.8 444.1Q537.9 443.2 537.9 441.3L537.9 441.3Q537.9 437.5 541.2 437.5L541.2 437.5Q542.9 437.5 543.7 438.4Q544.5 439.3 544.5 441.3ZM543.2 441.3L543.2 441.3Q543.2 439.8 542.8 439.1Q542.3 438.4 541.3 438.4L541.3 438.4Q540.2 438.4 539.7 439.1Q539.2 439.8 539.2 441.3L539.2 441.3Q539.2 442.8 539.7 443.5Q540.2 444.2 541.2 444.2L541.2 444.2Q542.3 444.2 542.8 443.5Q543.2 442.8 543.2 441.3ZM550.8 443.7L550.7 443.7Q550.3 444.5 549.8 444.8Q549.2 445.1 548.4 445.1L548.4 445.1Q547.2 445.1 546.6 444.5Q546.0 443.9 546.0 442.5L546.0 442.5L546.0 437.6L547.3 437.6L547.3 442.3Q547.3 443.4 547.6 443.8Q548.0 444.2 548.8 444.2L548.8 444.2Q549.7 444.2 550.2 443.6Q550.7 443.0 550.7 441.9L550.7 441.9L550.7 437.6L551.9 437.6L551.9 443.4Q551.9 444.7 552.0 445L552.0 445L550.8 445Q550.8 445.0 550.8 444.7Q550.8 444.4 550.8 443.7L550.8 443.7ZM555.1 441.1L555.1 441.1L555.1 445L553.9 445L553.9 439.3Q553.9 438.5 553.8 437.6L553.8 437.6L555.0 437.6Q555.0 438.2 555.0 438.6Q555.1 439.0 555.1 439.1L555.1 439.1L555.1 439.1Q555.3 438.4 555.5 438.1L555.5 438.1Q555.8 437.7 556.1 437.6Q556.4 437.5 556.8 437.5L556.8 437.5Q557.1 437.5 557.3 437.5L557.3 437.5L557.3 438.7Q557.1 438.6 556.7 438.6L556.7 438.6Q555.9 438.6 555.5 439.3Q555.1 439.9 555.1 441.1ZM561.4 445.1L561.4 445.1Q559.8 445.1 559.0 444.2Q558.2 443.2 558.2 441.3L558.2 441.3Q558.2 439.4 559.0 438.4Q559.8 437.5 561.3 437.5L561.3 437.5Q562.5 437.5 563.2 438.1Q564.0 438.6 564.2 439.7L564.2 439.7L562.9 439.8Q562.8 439.2 562.4 438.8Q562.0 438.4 561.3 438.4L561.3 438.4Q560.3 438.4 559.9 439.1Q559.5 439.7 559.5 441.3L559.5 441.3Q559.5 442.7 559.9 443.5Q560.4 444.2 561.3 444.2L561.3 444.2Q562.0 444.2 562.4 443.8Q562.9 443.5 563.0 442.7L563.0 442.7L564.2 442.8Q564.1 443.9 563.3 444.5Q562.5 445.1 561.4 445.1ZM571.7 441.6L566.5 441.6Q566.5 442.8 567.0 443.5Q567.5 444.2 568.5 444.2L568.5 444.2Q569.3 444.2 569.8 443.9Q570.3 443.6 570.5 443.1L570.5 443.1L571.5 443.4Q570.9 445.1 568.5 445.1L568.5 445.1Q566.9 445.1 566.0 444.2Q565.2 443.2 565.2 441.3L565.2 441.3Q565.2 439.4 566.0 438.4Q566.9 437.5 568.5 437.5L568.5 437.5Q571.7 437.5 571.7 441.4L571.7 441.4L571.7 441.6ZM566.5 440.6L570.5 440.6Q570.4 439.4 569.9 438.9Q569.4 438.4 568.5 438.4L568.5 438.4Q567.6 438.4 567.0 439.0Q566.5 439.6 566.5 440.6L566.5 440.6ZM573.6 437.6L575.0 437.6L575.0 439.0L573.6 439.0L573.6 437.6ZM573.6 443.6L575.0 443.6L575.0 445L573.6 445L573.6 443.6Z M585.6 441.0L582.6 441.0L582.6 445L581.3 445L581.3 435.4L585.8 435.4Q587.4 435.4 588.3 436.1Q589.2 436.8 589.2 438.1L589.2 438.1Q589.2 439.2 588.6 439.9Q588.0 440.7 586.9 440.9L586.9 440.9L589.6 445L588.1 445L585.6 441.0ZM587.9 438.1L587.9 438.1Q587.9 437.3 587.3 436.9Q586.8 436.4 585.7 436.4L585.7 436.4L582.6 436.4L582.6 440.0L585.7 440.0Q586.8 440.0 587.3 439.5Q587.9 439.0 587.9 438.1ZM597.4 441.6L592.1 441.6Q592.1 442.8 592.7 443.5Q593.2 444.2 594.2 444.2L594.2 444.2Q595.0 444.2 595.5 443.9Q596.0 443.6 596.1 443.1L596.1 443.1L597.2 443.4Q596.6 445.1 594.2 445.1L594.2 445.1Q592.6 445.1 591.7 444.2Q590.8 443.2 590.8 441.3L590.8 441.3Q590.8 439.4 591.7 438.4Q592.6 437.5 594.2 437.5L594.2 437.5Q597.4 437.5 597.4 441.4L597.4 441.4L597.4 441.6ZM592.1 440.6L596.1 440.6Q596.0 439.4 595.5 438.9Q595.1 438.4 594.1 438.4L594.1 438.4Q593.2 438.4 592.7 439.0Q592.2 439.6 592.1 440.6L592.1 440.6ZM604.5 443.0L604.5 443.0Q604.5 444.0 603.7 444.6Q602.9 445.1 601.5 445.1L601.5 445.1Q600.1 445.1 599.4 444.7Q598.6 444.2 598.4 443.3L598.4 443.3L599.5 443.1Q599.8 444.2 601.5 444.2L601.5 444.2Q602.5 444.2 602.9 443.9Q603.3 443.6 603.3 443.1L603.3 443.1Q603.3 442.6 603.0 442.3Q602.7 442.1 602.1 441.9L602.1 441.9Q601.3 441.7 600.8 441.5Q600.3 441.4 600.1 441.3Q599.8 441.2 599.7 441.1L599.7 441.1Q599.2 440.9 599.0 440.5Q598.7 440.1 598.7 439.6L598.7 439.6Q598.7 438.5 599.4 438.0Q600.2 437.5 601.5 437.5L601.5 437.5Q602.8 437.5 603.5 437.9Q604.2 438.3 604.4 439.3L604.4 439.3L603.3 439.4Q603.1 438.4 601.5 438.4L601.5 438.4Q599.9 438.4 599.9 439.4L599.9 439.4Q599.9 439.8 600.1 440.1Q600.4 440.3 601.0 440.5L601.0 440.5Q601.9 440.7 602.6 440.9Q603.4 441.1 603.7 441.4L603.7 441.4Q604.1 441.7 604.3 442.0Q604.5 442.4 604.5 443.0ZM612.2 441.6L606.9 441.6Q606.9 442.8 607.4 443.5Q608.0 444.2 609.0 444.2L609.0 444.2Q609.8 444.2 610.3 443.9Q610.7 443.6 610.9 443.1L610.9 443.1L612 443.4Q611.3 445.1 609.0 445.1L609.0 445.1Q607.3 445.1 606.5 444.2Q605.6 443.2 605.6 441.3L605.6 441.3Q605.6 439.4 606.5 438.4Q607.3 437.5 608.9 437.5L608.9 437.5Q612.2 437.5 612.2 441.4L612.2 441.4L612.2 441.6ZM606.9 440.6L610.9 440.6Q610.8 439.4 610.3 438.9Q609.8 438.4 608.9 438.4L608.9 438.4Q608.0 438.4 607.5 439.0Q607.0 439.6 606.9 440.6L606.9 440.6ZM615.7 445.1L615.7 445.1Q614.5 445.1 614.0 444.5Q613.4 444.0 613.4 442.9L613.4 442.9Q613.4 441.8 614.2 441.2Q614.9 440.6 616.6 440.5L616.6 440.5L618.3 440.5L618.3 440.1Q618.3 439.2 617.9 438.8Q617.5 438.4 616.7 438.4L616.7 438.4Q615.9 438.4 615.5 438.7Q615.1 439.0 615.0 439.6L615.0 439.6L613.7 439.5Q614.1 437.5 616.7 437.5L616.7 437.5Q618.1 437.5 618.8 438.1Q619.5 438.7 619.5 440.0L619.5 440.0L619.5 443.1Q619.5 443.7 619.7 444.0Q619.8 444.2 620.2 444.2L620.2 444.2Q620.4 444.2 620.6 444.2L620.6 444.2L620.6 445.0Q620.2 445.1 619.7 445.1L619.7 445.1Q619.0 445.1 618.7 444.7Q618.4 444.4 618.3 443.6L618.3 443.6L618.3 443.6Q617.8 444.4 617.2 444.8Q616.5 445.1 615.7 445.1ZM618.3 442.0L618.3 441.3L616.9 441.4Q616.1 441.4 615.6 441.6L615.6 441.6Q615.2 441.7 614.9 442.1Q614.7 442.4 614.7 443.0L614.7 443.0Q614.7 443.6 615.0 443.9Q615.3 444.2 615.9 444.2L615.9 444.2Q616.6 444.2 617.1 443.9L617.1 443.9Q617.7 443.6 618.0 443.1Q618.3 442.5 618.3 442.0L618.3 442.0ZM622.8 441.1L622.8 441.1L622.8 445L621.6 445L621.6 439.3Q621.6 438.5 621.5 437.6L621.5 437.6L622.7 437.6Q622.7 438.2 622.7 438.6Q622.8 439.0 622.8 439.1L622.8 439.1L622.8 439.1Q623.0 438.4 623.2 438.1L623.2 438.1Q623.5 437.7 623.8 437.6Q624.1 437.5 624.5 437.5L624.5 437.5Q624.8 437.5 625.0 437.5L625.0 437.5L625.0 438.7Q624.8 438.6 624.4 438.6L624.4 438.6Q623.6 438.6 623.2 439.3Q622.8 439.9 622.8 441.1ZM629.0 445.1L629.0 445.1Q627.5 445.1 626.7 444.2Q625.9 443.2 625.9 441.3L625.9 441.3Q625.9 439.4 626.7 438.4Q627.5 437.5 629.0 437.5L629.0 437.5Q630.2 437.5 630.9 438.1Q631.7 438.6 631.9 439.7L631.9 439.7L630.6 439.8Q630.5 439.2 630.1 438.8Q629.7 438.4 629.0 438.4L629.0 438.4Q628.0 438.4 627.6 439.1Q627.1 439.7 627.1 441.3L627.1 441.3Q627.1 442.7 627.6 443.5Q628.1 444.2 629.0 444.2L629.0 444.2Q629.7 444.2 630.1 443.8Q630.6 443.5 630.7 442.7L630.7 442.7L631.9 442.8Q631.8 443.9 631.0 444.5Q630.2 445.1 629.0 445.1ZM634.4 438.9L634.4 438.9Q634.8 438.1 635.4 437.8Q635.9 437.5 636.8 437.5L636.8 437.5Q638.0 437.5 638.6 438.1Q639.1 438.7 639.1 440.1L639.1 440.1L639.1 445L637.9 445L637.9 440.3Q637.9 439.3 637.6 438.9Q637.2 438.4 636.4 438.4L636.4 438.4Q635.5 438.4 635.0 439.0Q634.5 439.6 634.5 440.6L634.5 440.6L634.5 445L633.2 445L633.2 434.9L634.5 434.9L634.5 437.5Q634.5 437.8 634.5 438.1Q634.4 438.4 634.4 438.6Q634.4 438.8 634.4 438.9L634.4 438.9Z M650.8 445L649.7 445Q649.6 444.9 649.6 444.7Q649.6 444.5 649.6 444.3Q649.6 444.0 649.6 443.8L649.6 443.8L649.6 443.8Q649.2 444.5 648.7 444.8Q648.1 445.1 647.3 445.1L647.3 445.1Q645.9 445.1 645.2 444.2Q644.5 443.3 644.5 441.3L644.5 441.3Q644.5 437.5 647.3 437.5L647.3 437.5Q648.1 437.5 648.7 437.8Q649.2 438.1 649.6 438.8L649.6 438.8L649.6 438.8L649.6 437.9L649.6 434.9L650.8 434.9L650.8 443.5Q650.8 444.6 650.8 445L650.8 445ZM645.8 441.3L645.8 441.3Q645.8 442.8 646.2 443.5Q646.6 444.2 647.6 444.2L647.6 444.2Q648.6 444.2 649.1 443.5Q649.6 442.7 649.6 441.2L649.6 441.2Q649.6 439.7 649.1 439.1Q648.6 438.4 647.6 438.4L647.6 438.4Q646.7 438.4 646.2 439.1Q645.8 439.8 645.8 441.3ZM654.6 445.1L654.6 445.1Q653.4 445.1 652.9 444.5Q652.3 444.0 652.3 442.9L652.3 442.9Q652.3 441.8 653.1 441.2Q653.8 440.6 655.5 440.5L655.5 440.5L657.2 440.5L657.2 440.1Q657.2 439.2 656.8 438.8Q656.4 438.4 655.6 438.4L655.6 438.4Q654.8 438.4 654.4 438.7Q654.0 439.0 653.9 439.6L653.9 439.6L652.7 439.5Q653.0 437.5 655.6 437.5L655.6 437.5Q657.0 437.5 657.7 438.1Q658.4 438.7 658.4 440.0L658.4 440.0L658.4 443.1Q658.4 443.7 658.6 444.0Q658.7 444.2 659.1 444.2L659.1 444.2Q659.3 444.2 659.5 444.2L659.5 444.2L659.5 445.0Q659.1 445.1 658.6 445.1L658.6 445.1Q657.9 445.1 657.6 444.7Q657.3 444.4 657.2 443.6L657.2 443.6L657.2 443.6Q656.7 444.4 656.1 444.8Q655.5 445.1 654.6 445.1ZM657.2 442.0L657.2 441.3L655.8 441.4Q655.0 441.4 654.5 441.6L654.5 441.6Q654.1 441.7 653.8 442.1Q653.6 442.4 653.6 443.0L653.6 443.0Q653.6 443.6 653.9 443.9Q654.2 444.2 654.8 444.2L654.8 444.2Q655.5 444.2 656.0 443.9L656.0 443.9Q656.6 443.6 656.9 443.1Q657.2 442.5 657.2 442.0L657.2 442.0ZM663.3 444.0L663.3 444.9Q662.7 445.1 662.1 445.1L662.1 445.1Q660.6 445.1 660.6 443.4L660.6 443.4L660.6 438.5L659.7 438.5L659.7 437.6L660.6 437.6L661.0 435.9L661.8 435.9L661.8 437.6L663.2 437.6L663.2 438.5L661.8 438.5L661.8 443.2Q661.8 443.7 662.0 443.9Q662.2 444.1 662.6 444.1L662.6 444.1Q662.8 444.1 663.3 444.0L663.3 444.0ZM666.2 445.1L666.2 445.1Q665.1 445.1 664.6 444.5Q664.0 444.0 664.0 442.9L664.0 442.9Q664.0 441.8 664.8 441.2Q665.5 440.6 667.2 440.5L667.2 440.5L668.9 440.5L668.9 440.1Q668.9 439.2 668.5 438.8Q668.1 438.4 667.3 438.4L667.3 438.4Q666.4 438.4 666.1 438.7Q665.7 439.0 665.6 439.6L665.6 439.6L664.3 439.5Q664.6 437.5 667.3 437.5L667.3 437.5Q668.7 437.5 669.4 438.1Q670.1 438.7 670.1 440.0L670.1 440.0L670.1 443.1Q670.1 443.7 670.2 444.0Q670.4 444.2 670.8 444.2L670.8 444.2Q671.0 444.2 671.2 444.2L671.2 444.2L671.2 445.0Q670.7 445.1 670.2 445.1L670.2 445.1Q669.6 445.1 669.2 444.7Q668.9 444.4 668.9 443.6L668.9 443.6L668.9 443.6Q668.4 444.4 667.8 444.8Q667.1 445.1 666.2 445.1ZM668.9 442.0L668.9 441.3L667.5 441.4Q666.6 441.4 666.2 441.6L666.2 441.6Q665.7 441.7 665.5 442.1Q665.3 442.4 665.3 443.0L665.3 443.0Q665.3 443.6 665.6 443.9Q665.9 444.2 666.5 444.2L666.5 444.2Q667.2 444.2 667.7 443.9L667.7 443.9Q668.2 443.6 668.6 443.1Q668.9 442.5 668.9 442.0L668.9 442.0Z "/></g></svg>