<svg width="1200" height="630" viewBox="0 0 1200 630" xmlns="http://www.w3.org/2000/svg"><mask id="satori_om-id"><rect x="0" y="0" width="1200" height="630" fill="#fff"/></mask><rect x="0" y="0" width="1200" height="630" fill="#1e3a5f"/><mask id="satori_om-id-0"><rect x="60" y="60" width="1080" height="84" fill="#fff"/></mask><g  ><path fill="black" d="M88.4 75.8L88.4 127L63.5 127L63.5 75.8L88.4 75.8ZM76.9 101.4L86.5 124.0L86.5 78.8L76.9 101.4ZM74.8 101.4L65.4 79.2L65.4 123.6L74.8 101.4ZM75.9 103.8L66.8 125.1L84.9 125.1L75.9 103.8ZM66.8 77.7L75.9 99.0L84.9 77.7L66.8 77.7Z "/></g><mask id="satori_om-id-1"><rect x="60" y="174" width="1080" height="307" fill="#fff"/></mask><g  ><path fill="white" d="M62.4 185.2L67.6 185.2L67.6 210L62.4 210L62.4 185.2ZM77.5 199.8L77.5 199.8L77.5 210L72.5 210L72.5 195.2Q72.5 193.7 72.5 192.7Q72.4 191.8 72.4 191.0L72.4 191.0L77.1 191.0Q77.1 191.2 77.2 192.0Q77.2 192.8 77.3 193.6Q77.3 194.4 77.3 194.8L77.3 194.8L77.4 194.8Q78.3 192.6 79.7 191.6Q81.0 190.6 82.9 190.6L82.9 190.6Q87.3 190.6 88.2 194.8L88.2 194.8L88.3 194.8Q89.3 192.5 90.6 191.6Q92.0 190.6 94.1 190.6L94.1 190.6Q96.9 190.6 98.3 192.5Q99.8 194.4 99.8 197.9L99.8 197.9L99.8 210L94.9 210L94.9 199.3Q94.9 194.3 92.0 194.3L92.0 194.3Q90.6 194.3 89.6 195.7Q88.6 197.1 88.6 199.6L88.6 199.6L88.6 210L83.7 210L83.7 199.3Q83.7 194.3 80.8 194.3L80.8 194.3Q79.3 194.3 78.4 195.8Q77.5 197.4 77.5 199.8ZM122.5 200.4L122.5 200.4Q122.5 205.2 120.6 207.8Q118.7 210.4 115.2 210.4L115.2 210.4Q111.1 210.4 109.5 207.0L109.5 207.0L109.4 207.0Q109.5 207.5 109.5 210.2L109.5 210.2L109.5 217.5L104.5 217.5L104.5 195.4Q104.5 194.0 104.5 192.9Q104.5 191.8 104.4 191.0L104.4 191.0L109.2 191.0Q109.3 191.3 109.3 192.2Q109.4 193.2 109.4 194.1L109.4 194.1L109.5 194.1Q111.1 190.6 115.5 190.6L115.5 190.6Q118.9 190.6 120.7 193.1Q122.5 195.7 122.5 200.4ZM117.4 200.4L117.4 200.4Q117.4 194.0 113.5 194.0L113.5 194.0Q111.5 194.0 110.4 195.7Q109.4 197.4 109.4 200.5L109.4 200.5Q109.4 203.6 110.4 205.3Q111.5 207.0 113.4 207.0L113.4 207.0Q117.4 207.0 117.4 200.4ZM144.6 200.5L144.6 200.5Q144.6 205.1 142.0 207.7Q139.5 210.4 134.9 210.4L134.9 210.4Q130.5 210.4 127.9 207.7Q125.4 205.1 125.4 200.5L125.4 200.5Q125.4 195.9 127.9 193.3Q130.5 190.6 135.0 190.6L135.0 190.6Q139.7 190.6 142.1 193.2Q144.6 195.7 144.6 200.5ZM139.4 200.5L139.4 200.5Q139.4 197.1 138.3 195.6Q137.2 194.0 135.1 194.0L135.1 194.0Q130.6 194.0 130.6 200.5L130.6 200.5Q130.6 203.7 131.7 205.3Q132.8 207.0 134.9 207.0L134.9 207.0Q139.4 207.0 139.4 200.5ZM153.4 200.7L153.4 200.7L153.4 210L148.5 210L148.5 195.4Q148.5 193.9 148.5 192.8Q148.4 191.8 148.4 191.0L148.4 191.0L153.1 191.0Q153.1 191.1 153.1 191.7Q153.2 192.2 153.2 192.9Q153.3 193.6 153.3 194.2Q153.3 194.8 153.3 195.0L153.3 195.0L153.4 195.0Q154.1 193.1 154.7 192.2L154.7 192.2Q155.2 191.4 156.0 191.0Q156.8 190.6 157.9 190.6L157.9 190.6Q158.9 190.6 159.5 190.9L159.5 190.9L159.5 195.0Q158.3 194.7 157.3 194.7L157.3 194.7Q155.5 194.7 154.5 196.2Q153.4 197.7 153.4 200.7ZM171.6 206.7L171.6 209.7Q169.8 210.3 167.4 210.3L167.4 210.3Q165.2 210.3 164.0 209.1Q162.8 207.9 162.8 205.5L162.8 205.5L162.8 194.3L160.4 194.3L160.4 191.0L163.1 191.0L164.6 186.5L167.7 186.5L167.7 191.0L171.3 191.0L171.3 194.3L167.7 194.3L167.7 204.2Q167.7 206.9 169.9 206.9L169.9 206.9Q170.4 206.9 171.6 206.7L171.6 206.7ZM178.9 210.4L178.9 210.4Q176.1 210.4 174.6 208.8Q173.0 207.3 173.0 204.6L173.0 204.6Q173.0 201.7 175.0 200.1Q176.9 198.6 180.6 198.5L180.6 198.5L184.6 198.5L184.6 197.5Q184.6 195.6 184.0 194.7Q183.3 193.8 181.9 193.8L181.9 193.8Q180.5 193.8 179.9 194.5Q179.2 195.1 179.1 196.5L179.1 196.5L173.9 196.3Q174.9 190.6 182.1 190.6L182.1 190.6Q185.7 190.6 187.6 192.4Q189.6 194.2 189.6 197.4L189.6 197.4L189.6 204.4Q189.6 206.0 189.9 206.6Q190.3 207.2 191.2 207.2L191.2 207.2Q191.7 207.2 192.2 207.1L192.2 207.1L192.2 209.8Q191.3 210.0 190.7 210.1Q190.0 210.2 189.1 210.2L189.1 210.2Q187.2 210.2 186.3 209.3Q185.4 208.4 185.3 206.6L185.3 206.6L185.2 206.6Q183.1 210.4 178.9 210.4ZM184.6 202.2L184.6 201.2L182.1 201.2Q180.4 201.3 179.7 201.6L179.7 201.6Q179.0 201.9 178.6 202.5Q178.2 203.2 178.2 204.2L178.2 204.2Q178.2 205.6 178.8 206.2Q179.4 206.9 180.5 206.9L180.5 206.9Q181.6 206.9 182.6 206.3L182.6 206.3Q183.6 205.6 184.1 204.5Q184.6 203.4 184.6 202.2L184.6 202.2ZM199.5 199.8L199.5 199.8L199.5 210L194.5 210L194.5 195.2Q194.5 193.7 194.5 192.7Q194.4 191.8 194.4 191.0L194.4 191.0L199.1 191.0Q199.1 191.2 199.2 192.0Q199.2 192.8 199.3 193.6Q199.3 194.4 199.3 194.8L199.3 194.8L199.4 194.8Q200.4 192.6 201.9 191.6Q203.4 190.6 205.5 190.6L205.5 190.6Q208.5 190.6 210.2 192.5Q211.8 194.3 211.8 197.9L211.8 197.9L211.8 210L206.8 210L206.8 199.3Q206.8 194.3 203.5 194.3L203.5 194.3Q201.7 194.3 200.6 195.9Q199.5 197.4 199.5 199.8ZM225.6 206.7L225.6 209.7Q223.8 210.3 221.4 210.3L221.4 210.3Q219.2 210.3 218.0 209.1Q216.8 207.9 216.8 205.5L216.8 205.5L216.8 194.3L214.4 194.3L214.4 191.0L217.1 191.0L218.6 186.5L221.7 186.5L221.7 191.0L225.3 191.0L225.3 194.3L221.7 194.3L221.7 204.2Q221.7 206.9 223.9 206.9L223.9 206.9Q224.4 206.9 225.6 206.7L225.6 206.7Z M238.5 183.9L243.4 183.9L243.4 187.6L238.5 187.6L238.5 183.9ZM238.5 191.0L243.4 191.0L243.4 210L238.5 210L238.5 191.0ZM253.4 199.8L253.4 199.8L253.4 210L248.5 210L248.5 195.2Q248.5 193.7 248.5 192.7Q248.4 191.8 248.4 191.0L248.4 191.0L253.1 191.0Q253.1 191.2 253.2 192.0Q253.2 192.8 253.3 193.6Q253.3 194.4 253.3 194.8L253.3 194.8L253.4 194.8Q254.4 192.6 255.9 191.6Q257.4 190.6 259.5 190.6L259.5 190.6Q262.5 190.6 264.1 192.5Q265.8 194.3 265.8 197.9L265.8 197.9L265.8 210L260.8 210L260.8 199.3Q260.8 194.3 257.4 194.3L257.4 194.3Q255.6 194.3 254.5 195.9Q253.4 197.4 253.4 199.8ZM286.5 204.4L286.5 204.4Q286.5 207.2 284.3 208.8Q282.0 210.4 278.0 210.4L278.0 210.4Q274.1 210.4 272.0 209.1Q269.9 207.9 269.3 205.3L269.3 205.3L273.6 204.6Q274.0 206.0 274.9 206.5Q275.8 207.1 278.0 207.1L278.0 207.1Q280.1 207.1 281.0 206.6Q282.0 206.0 282.0 204.9L282.0 204.9Q282.0 204.0 281.2 203.5Q280.5 202.9 278.6 202.5L278.6 202.5Q274.5 201.7 273.0 201L273.0 201Q271.5 200.3 270.8 199.2Q270.0 198.0 270.0 196.4L270.0 196.4Q270.0 193.7 272.1 192.1Q274.2 190.6 278.1 190.6L278.1 190.6Q281.4 190.6 283.5 191.9Q285.6 193.2 286.1 195.7L286.1 195.7L281.7 196.2Q281.5 195.0 280.7 194.5Q279.8 193.9 278.1 193.9L278.1 193.9Q276.3 193.9 275.4 194.3Q274.5 194.8 274.5 195.8L274.5 195.8Q274.5 196.7 275.2 197.2Q275.9 197.6 277.5 198.0L277.5 198.0Q279.7 198.4 281.5 198.9Q283.2 199.4 284.2 200.1L284.2 200.1Q285.3 200.7 285.9 201.8Q286.5 202.8 286.5 204.4ZM290.5 183.9L295.5 183.9L295.5 187.6L290.5 187.6L290.5 183.9ZM290.5 191.0L295.5 191.0L295.5 210L290.5 210L290.5 191.0ZM308.5 217.6L308.5 217.6Q305.0 217.6 302.9 216.3Q300.8 215.0 300.3 212.5L300.3 212.5L305.2 211.9Q305.5 213.1 306.3 213.7Q307.2 214.4 308.6 214.4L308.6 214.4Q310.7 214.4 311.6 213.1Q312.6 211.8 312.6 209.3L312.6 209.3L312.6 206.5L312.6 206.5Q310.9 210.0 306.5 210.0L306.5 210.0Q303.1 210.0 301.3 207.5Q299.5 205.0 299.5 200.3L299.5 200.3Q299.5 195.7 301.4 193.1Q303.2 190.6 306.8 190.6L306.8 190.6Q311.0 190.6 312.6 194.0L312.6 194.0L312.7 194.0Q312.7 193.6 312.7 193.0Q312.7 192.4 312.8 191.8Q312.9 191.2 312.9 191.0L312.9 191.0L317.6 191.0Q317.5 192.9 317.5 195.4L317.5 195.4L317.5 209.4Q317.5 213.5 315.2 215.6Q312.9 217.6 308.5 217.6ZM312.6 200.2L312.6 200.2Q312.6 197.3 311.6 195.6Q310.5 194.0 308.6 194.0L308.6 194.0Q304.6 194.0 304.6 200.3L304.6 200.3Q304.6 206.5 308.6 206.5L308.6 206.5Q310.5 206.5 311.6 204.9Q312.6 203.3 312.6 200.2ZM327.3 194.8L327.4 194.8Q328.4 192.6 329.9 191.6Q331.4 190.6 333.5 190.6L333.5 190.6Q336.5 190.6 338.1 192.5Q339.8 194.4 339.8 197.9L339.8 197.9L339.8 210L334.8 210L334.8 199.3Q334.8 194.3 331.4 194.3L331.4 194.3Q329.6 194.3 328.5 195.9Q327.5 197.4 327.5 199.8L327.5 199.8L327.5 210L322.5 210L322.5 183.9L327.5 183.9L327.5 191.0Q327.5 192 327.4 192.9Q327.4 193.9 327.3 194.8L327.3 194.8ZM353.5 206.7L353.5 209.7Q351.7 210.3 349.4 210.3L349.4 210.3Q347.2 210.3 346.0 209.1Q344.8 207.9 344.8 205.5L344.8 205.5L344.8 194.3L342.4 194.3L342.4 191.0L345.1 191.0L346.6 186.5L349.7 186.5L349.7 191.0L353.3 191.0L353.3 194.3L349.7 194.3L349.7 204.2Q349.7 206.9 351.9 206.9L351.9 206.9Q352.4 206.9 353.5 206.7L353.5 206.7Z M370.9 210.4L370.9 210.4Q368.1 210.4 366.6 208.8Q365.0 207.3 365.0 204.6L365.0 204.6Q365.0 201.7 367.0 200.1Q368.9 198.6 372.5 198.5L372.5 198.5L376.6 198.5L376.6 197.5Q376.6 195.6 376.0 194.7Q375.3 193.8 373.9 193.8L373.9 193.8Q372.5 193.8 371.8 194.5Q371.2 195.1 371.0 196.5L371.0 196.5L365.9 196.3Q366.9 190.6 374.1 190.6L374.1 190.6Q377.7 190.6 379.6 192.4Q381.6 194.2 381.6 197.4L381.6 197.4L381.6 204.4Q381.6 206.0 381.9 206.6Q382.3 207.2 383.1 207.2L383.1 207.2Q383.7 207.2 384.2 207.1L384.2 207.1L384.2 209.8Q383.3 210.0 382.7 210.1Q382.0 210.2 381.1 210.2L381.1 210.2Q379.2 210.2 378.3 209.3Q377.4 208.4 377.3 206.6L377.3 206.6L377.1 206.6Q375.1 210.4 370.9 210.4ZM376.6 202.2L376.6 201.2L374.1 201.2Q372.4 201.3 371.7 201.6L371.7 201.6Q370.9 201.9 370.6 202.5Q370.2 203.2 370.2 204.2L370.2 204.2Q370.2 205.6 370.8 206.2Q371.4 206.9 372.5 206.9L372.5 206.9Q373.6 206.9 374.6 206.3L374.6 206.3Q375.5 205.6 376.1 204.5Q376.6 203.4 376.6 202.2L376.6 202.2ZM404.5 200.4L404.5 200.4Q404.5 205.1 402.6 207.7Q400.7 210.4 397.2 210.4L397.2 210.4Q393.1 210.4 391.5 206.9L391.5 206.9L391.4 206.9Q391.4 207.3 391.4 208.0Q391.3 208.6 391.3 209.2Q391.2 209.8 391.2 210L391.2 210L386.4 210Q386.4 209.2 386.5 208.1Q386.5 207.0 386.5 205.7L386.5 205.7L386.5 183.9L391.5 183.9L391.5 191.2Q391.5 192.0 391.4 192.7Q391.4 193.5 391.4 194.3L391.4 194.3L391.5 194.3Q393.1 190.6 397.5 190.6L397.5 190.6Q400.9 190.6 402.7 193.2Q404.5 195.7 404.5 200.4ZM399.4 200.4L399.4 200.4Q399.4 194.1 395.5 194.1L395.5 194.1Q393.5 194.1 392.4 195.7Q391.4 197.4 391.4 200.6L391.4 200.6Q391.4 203.6 392.4 205.3Q393.4 207.0 395.4 207.0L395.4 207.0Q399.4 207.0 399.4 200.4ZM426.6 200.5L426.6 200.5Q426.6 205.1 424.0 207.7Q421.4 210.4 416.9 210.4L416.9 210.4Q412.5 210.4 409.9 207.7Q407.4 205.1 407.4 200.5L407.4 200.5Q407.4 195.9 409.9 193.3Q412.5 190.6 417.0 190.6L417.0 190.6Q421.7 190.6 424.1 193.2Q426.6 195.7 426.6 200.5ZM421.4 200.5L421.4 200.5Q421.4 197.1 420.3 195.6Q419.2 194.0 417.1 194.0L417.1 194.0Q412.6 194.0 412.6 200.5L412.6 200.5Q412.6 203.7 413.7 205.3Q414.8 207.0 416.9 207.0L416.9 207.0Q421.4 207.0 421.4 200.5ZM442.7 206.2L442.6 206.2Q441.6 208.4 440.1 209.4Q438.6 210.4 436.5 210.4L436.5 210.4Q433.4 210.4 431.8 208.5Q430.2 206.6 430.2 203.1L430.2 203.1L430.2 191.0L435.2 191.0L435.2 201.7Q435.2 206.7 438.5 206.7L438.5 206.7Q440.3 206.7 441.4 205.1Q442.5 203.6 442.5 201.2L442.5 201.2L442.5 191.0L447.5 191.0L447.5 205.7Q447.5 207.0 447.5 208.0Q447.5 209.1 447.6 210L447.6 210L442.9 210Q442.7 207.5 442.7 206.2L442.7 206.2ZM461.5 206.7L461.5 209.7Q459.7 210.3 457.4 210.3L457.4 210.3Q455.2 210.3 454.0 209.1Q452.8 207.9 452.8 205.5L452.8 205.5L452.8 194.3L450.4 194.3L450.4 191.0L453.1 191.0L454.6 186.5L457.7 186.5L457.7 191.0L461.3 191.0L461.3 194.3L457.7 194.3L457.7 204.2Q457.7 206.9 459.9 206.9L459.9 206.9Q460.4 206.9 461.5 206.7L461.5 206.7Z M486.1 206.3L486.1 206.3Q488.2 206.3 490.0 205.7Q491.9 205.1 493.0 204.2L493.0 204.2L493.0 200.8L486.9 200.8L486.9 196.9L497.7 196.9L497.7 206.0Q495.8 208.1 492.6 209.2Q489.5 210.4 486.0 210.4L486.0 210.4Q479.9 210.4 476.7 207.0Q473.4 203.7 473.4 197.5L473.4 197.5Q473.4 191.4 476.7 188.1Q480.0 184.9 486.1 184.9L486.1 184.9Q494.8 184.9 497.2 191.3L497.2 191.3L492.4 192.8Q491.6 190.9 490.0 189.9Q488.3 188.9 486.1 188.9L486.1 188.9Q482.5 188.9 480.6 191.2Q478.7 193.4 478.7 197.5L478.7 197.5Q478.7 201.7 480.6 204.0Q482.6 206.3 486.1 206.3ZM507.6 206.0L520.8 206.0L520.8 210L502.4 210L502.4 185.2L507.6 185.2L507.6 206.0ZM544.7 193.1L544.7 193.1Q544.7 195.5 543.6 197.3Q542.5 199.2 540.5 200.2Q538.5 201.3 535.7 201.3L535.7 201.3L529.5 201.3L529.5 210L524.4 210L524.4 185.2L535.5 185.2Q539.9 185.2 542.3 187.3Q544.7 189.3 544.7 193.1ZM539.5 193.2L539.5 193.2Q539.5 189.3 534.9 189.3L534.9 189.3L529.5 189.3L529.5 197.3L535.0 197.3Q537.2 197.3 538.4 196.2Q539.5 195.2 539.5 193.2ZM547.4 198.5L556.5 198.5L556.5 202.8L547.4 202.8L547.4 198.5ZM571.3 206.3L577.0 206.3L577.0 210L560.2 210L560.2 206.3L566.4 206.3L566.4 189.4L560.4 193.1L560.4 189.3L566.6 185.2L571.3 185.2L571.3 206.3Z M601.7 200.6L595.6 200.6L595.6 210L590.4 210L590.4 185.2L602.8 185.2Q607.2 185.2 609.6 187.1Q612.0 189.0 612.0 192.6L612.0 192.6Q612.0 195.2 610.5 197.1Q609.1 199.0 606.5 199.6L606.5 199.6L613.2 210L607.4 210L601.7 200.6ZM606.8 192.8L606.8 192.8Q606.8 189.3 602.2 189.3L602.2 189.3L595.6 189.3L595.6 196.6L602.4 196.6Q604.5 196.6 605.7 195.6Q606.8 194.6 606.8 192.8ZM632.8 201.4L620.6 201.4Q620.6 204.2 621.6 205.6Q622.6 207.0 624.5 207.0L624.5 207.0Q627.1 207.0 627.8 204.8L627.8 204.8L632.5 205.2Q630.5 210.4 624.3 210.4L624.3 210.4Q620.0 210.4 617.7 207.8Q615.4 205.3 615.4 200.4L615.4 200.4Q615.4 195.7 617.7 193.2Q620.1 190.6 624.3 190.6L624.3 190.6Q628.4 190.6 630.6 193.3Q632.8 196.1 632.8 201.3L632.8 201.3L632.8 201.4ZM620.6 198.3L628.0 198.3Q627.8 196.0 626.9 194.9Q625.9 193.7 624.3 193.7L624.3 193.7Q622.5 193.7 621.6 195.0Q620.7 196.2 620.6 198.3L620.6 198.3ZM644.4 210.4L644.4 210.4Q640.1 210.4 637.8 207.8Q635.4 205.2 635.4 200.6L635.4 200.6Q635.4 195.9 637.8 193.3Q640.1 190.6 644.5 190.6L644.5 190.6Q647.9 190.6 650.1 192.3Q652.3 194.0 652.8 197.0L652.8 197.0L647.8 197.2Q647.6 195.8 646.8 194.9Q645.9 194.0 644.4 194.0L644.4 194.0Q640.6 194.0 640.6 200.4L640.6 200.4Q640.6 207.0 644.5 207.0L644.5 207.0Q645.9 207.0 646.8 206.1Q647.8 205.2 648.0 203.4L648.0 203.4L653.0 203.7Q652.7 205.7 651.5 207.2Q650.4 208.7 648.6 209.5Q646.7 210.4 644.4 210.4ZM672.8 201.4L660.6 201.4Q660.6 204.2 661.6 205.6Q662.7 207.0 664.6 207.0L664.6 207.0Q667.2 207.0 667.9 204.8L667.9 204.8L672.5 205.2Q670.5 210.4 664.3 210.4L664.3 210.4Q660.0 210.4 657.7 207.8Q655.4 205.3 655.4 200.4L655.4 200.4Q655.4 195.7 657.8 193.2Q660.1 190.6 664.4 190.6L664.4 190.6Q668.5 190.6 670.6 193.3Q672.8 196.1 672.8 201.3L672.8 201.3L672.8 201.4ZM660.6 198.3L668.0 198.3Q667.9 196.0 666.9 194.9Q666.0 193.7 664.3 193.7L664.3 193.7Q662.6 193.7 661.6 195.0Q660.7 196.2 660.6 198.3L660.6 198.3ZM694.6 200.4L694.6 200.4Q694.6 205.2 692.6 207.8Q690.7 210.4 687.3 210.4L687.3 210.4Q683.1 210.4 681.5 207.0L681.5 207.0L681.4 207.0Q681.5 207.5 681.5 210.2L681.5 210.2L681.5 217.5L676.6 217.5L676.6 195.4Q676.6 194.0 676.5 192.9Q676.5 191.8 676.4 191.0L676.4 191.0L681.2 191.0Q681.3 191.3 681.4 192.2Q681.4 193.2 681.4 194.1L681.4 194.1L681.5 194.1Q683.1 190.6 687.6 190.6L687.6 190.6Q690.9 190.6 692.7 193.1Q694.6 195.7 694.6 200.4ZM689.4 200.4L689.4 200.4Q689.4 194.0 685.5 194.0L685.5 194.0Q683.5 194.0 682.5 195.7Q681.4 197.4 681.4 200.5L681.4 200.5Q681.4 203.6 682.5 205.3Q683.5 207.0 685.4 207.0L685.4 207.0Q689.4 207.0 689.4 200.4ZM707.6 206.7L707.6 209.7Q705.8 210.3 703.4 210.3L703.4 210.3Q701.2 210.3 700.1 209.1Q698.9 207.9 698.9 205.5L698.9 205.5L698.9 194.3L696.5 194.3L696.5 191.0L699.1 191.0L700.7 186.5L703.8 186.5L703.8 191.0L707.4 191.0L707.4 194.3L703.8 194.3L703.8 204.2Q703.8 206.9 705.9 206.9L705.9 206.9Q706.5 206.9 707.6 206.7L707.6 206.7ZM728.6 200.5L728.6 200.5Q728.6 205.1 726.0 207.7Q723.5 210.4 718.9 210.4L718.9 210.4Q714.5 210.4 712.0 207.7Q709.4 205.1 709.4 200.5L709.4 200.5Q709.4 195.9 712.0 193.3Q714.5 190.6 719.0 190.6L719.0 190.6Q723.7 190.6 726.1 193.2Q728.6 195.7 728.6 200.5ZM723.4 200.5L723.4 200.5Q723.4 197.1 722.3 195.6Q721.2 194.0 719.1 194.0L719.1 194.0Q714.6 194.0 714.6 200.5L714.6 200.5Q714.6 203.7 715.7 205.3Q716.8 207.0 718.9 207.0L718.9 207.0Q723.4 207.0 723.4 200.5ZM737.5 200.7L737.5 200.7L737.5 210L732.5 210L732.5 195.4Q732.5 193.9 732.5 192.8Q732.4 191.8 732.4 191.0L732.4 191.0L737.1 191.0Q737.1 191.1 737.2 191.7Q737.2 192.2 737.2 192.9Q737.3 193.6 737.3 194.2Q737.3 194.8 737.3 195.0L737.3 195.0L737.4 195.0Q738.1 193.1 738.7 192.2L738.7 192.2Q739.2 191.4 740.0 191.0Q740.8 190.6 741.9 190.6L741.9 190.6Q742.9 190.6 743.5 190.9L743.5 190.9L743.5 195.0Q742.3 194.7 741.4 194.7L741.4 194.7Q739.5 194.7 738.5 196.2Q737.5 197.7 737.5 200.7Z M771.7 203.7L762.3 203.7L760.1 210L754.9 210L764.0 185.2L770.1 185.2L779.1 210L773.9 210L771.7 203.7ZM767.0 189.0L767.0 189.0Q766.8 189.8 766.5 190.7Q766.2 191.7 766.1 192.1L766.1 192.1L763.5 199.8L770.6 199.8L767.9 192.0Q767.7 191.2 767.4 190.5Q767.2 189.8 767.0 189.0ZM790.5 217.6L790.5 217.6Q787.0 217.6 784.9 216.3Q782.8 215.0 782.3 212.5L782.3 212.5L787.2 211.9Q787.5 213.1 788.4 213.7Q789.2 214.4 790.6 214.4L790.6 214.4Q792.7 214.4 793.6 213.1Q794.6 211.8 794.6 209.3L794.6 209.3L794.6 206.5L794.6 206.5Q793.0 210.0 788.5 210.0L788.5 210.0Q785.2 210.0 783.3 207.5Q781.5 205.0 781.5 200.3L781.5 200.3Q781.5 195.7 783.4 193.1Q785.3 190.6 788.8 190.6L788.8 190.6Q793.0 190.6 794.6 194.0L794.6 194.0L794.7 194.0Q794.7 193.6 794.7 193.0Q794.7 192.4 794.8 191.8Q794.9 191.2 794.9 191.0L794.9 191.0L799.6 191.0Q799.5 192.9 799.5 195.4L799.5 195.4L799.5 209.4Q799.5 213.5 797.2 215.6Q794.9 217.6 790.5 217.6ZM794.6 200.2L794.6 200.2Q794.6 197.3 793.6 195.6Q792.5 194.0 790.6 194.0L790.6 194.0Q786.6 194.0 786.6 200.3L786.6 200.3Q786.6 206.5 790.6 206.5L790.6 206.5Q792.5 206.5 793.6 204.9Q794.6 203.3 794.6 200.2ZM822.6 200.5L822.6 200.5Q822.6 205.1 820.0 207.7Q817.5 210.4 812.9 210.4L812.9 210.4Q808.5 210.4 805.9 207.7Q803.4 205.1 803.4 200.5L803.4 200.5Q803.4 195.9 805.9 193.3Q808.5 190.6 813.0 190.6L813.0 190.6Q817.7 190.6 820.1 193.2Q822.6 195.7 822.6 200.5ZM817.4 200.5L817.4 200.5Q817.4 197.1 816.3 195.6Q815.2 194.0 813.1 194.0L813.1 194.0Q808.6 194.0 808.6 200.5L808.6 200.5Q808.6 203.7 809.7 205.3Q810.8 207.0 812.9 207.0L812.9 207.0Q817.4 207.0 817.4 200.5ZM831.5 199.8L831.5 199.8L831.5 210L826.5 210L826.5 195.2Q826.5 193.7 826.5 192.7Q826.4 191.8 826.4 191.0L826.4 191.0L831.1 191.0Q831.1 191.2 831.2 192.0Q831.2 192.8 831.3 193.6Q831.3 194.4 831.3 194.8L831.3 194.8L831.4 194.8Q832.4 192.6 833.9 191.6Q835.4 190.6 837.5 190.6L837.5 190.6Q840.5 190.6 842.1 192.5Q843.8 194.3 843.8 197.9L843.8 197.9L843.8 210L838.8 210L838.8 199.3Q838.8 194.3 835.4 194.3L835.4 194.3Q833.6 194.3 832.5 195.9Q831.5 197.4 831.5 199.8ZM848.5 183.9L853.4 183.9L853.4 187.6L848.5 187.6L848.5 183.9ZM848.5 191.0L853.4 191.0L853.4 210L848.5 210L848.5 191.0ZM874.5 204.4L874.5 204.4Q874.5 207.2 872.3 208.8Q870.0 210.4 866.0 210.4L866.0 210.4Q862.1 210.4 860.0 209.1Q857.9 207.9 857.3 205.3L857.3 205.3L861.6 204.6Q862.0 206.0 862.9 206.5Q863.8 207.1 866.0 207.1L866.0 207.1Q868.1 207.1 869.1 206.6Q870 206.0 870 204.9L870 204.9Q870 204.0 869.2 203.5Q868.5 202.9 866.6 202.5L866.6 202.5Q862.5 201.7 861 201L861 201Q859.5 200.3 858.8 199.2Q858.0 198.0 858.0 196.4L858.0 196.4Q858.0 193.7 860.1 192.1Q862.2 190.6 866.1 190.6L866.1 190.6Q869.5 190.6 871.5 191.9Q873.6 193.2 874.1 195.7L874.1 195.7L869.7 196.2Q869.5 195.0 868.7 194.5Q867.9 193.9 866.1 193.9L866.1 193.9Q864.3 193.9 863.4 194.3Q862.5 194.8 862.5 195.8L862.5 195.8Q862.5 196.7 863.2 197.2Q863.9 197.6 865.5 198.0L865.5 198.0Q867.7 198.4 869.5 198.9Q871.2 199.4 872.3 200.1L872.3 200.1Q873.3 200.7 873.9 201.8Q874.5 202.8 874.5 204.4ZM887.6 206.7L887.6 209.7Q885.8 210.3 883.4 210.3L883.4 210.3Q881.2 210.3 880.0 209.1Q878.9 207.9 878.9 205.5L878.9 205.5L878.9 194.3L876.5 194.3L876.5 191.0L879.1 191.0L880.7 186.5L883.7 186.5L883.7 191.0L887.3 191.0L887.3 194.3L883.7 194.3L883.7 204.2Q883.7 206.9 885.9 206.9L885.9 206.9Q886.4 206.9 887.6 206.7L887.6 206.7ZM906.5 204.4L906.5 204.4Q906.5 207.2 904.3 208.8Q902.0 210.4 898.0 210.4L898.0 210.4Q894.1 210.4 892.0 209.1Q890.0 207.9 889.3 205.3L889.3 205.3L893.6 204.6Q894.0 206.0 894.9 206.5Q895.8 207.1 898.0 207.1L898.0 207.1Q900.1 207.1 901.1 206.6Q902.0 206.0 902.0 204.9L902.0 204.9Q902.0 204.0 901.2 203.5Q900.5 202.9 898.7 202.5L898.7 202.5Q894.5 201.7 893.0 201L893.0 201Q891.6 200.3 890.8 199.2Q890.0 198.0 890.0 196.4L890.0 196.4Q890.0 193.7 892.1 192.1Q894.2 190.6 898.1 190.6L898.1 190.6Q901.5 190.6 903.5 191.9Q905.6 193.2 906.1 195.7L906.1 195.7L901.7 196.2Q901.5 195.0 900.7 194.5Q899.9 193.9 898.1 193.9L898.1 193.9Q896.3 193.9 895.4 194.3Q894.6 194.8 894.6 195.8L894.6 195.8Q894.6 196.7 895.2 197.2Q895.9 197.6 897.5 198.0L897.5 198.0Q899.7 198.4 901.5 198.9Q903.2 199.4 904.3 200.1L904.3 200.1Q905.3 200.7 905.9 201.8Q906.5 202.8 906.5 204.4Z "/></g><defs><clipPath id="satori_bc-id-2"><rect x="60" y="521" width="1080" height="49"/></clipPath></defs><mask id="satori_om-id-2"><rect x="60" y="522" width="1080" height="48" fill="#fff"/><path width="1080" height="49" fill="none" stroke="#000" stroke-width="2" d="M60,521 A0,0 0 0 1 60,521 h1080 A0,0 0 0 1 1140,521"/></mask><path width="1080" height="49" clip-path="url(#satori_bc-id-2)" fill="none" stroke="rgba(255,255,255,0.3)" stroke-width="2" d="M60,521 A0,0 0 0 1 60,521 h1080 A0,0 0 0 1 1140,521"/><mask id="satori_om-id-2-0"><rect x="60" y="542" width="0" height="28" fill="#fff"/></mask><mask id="satori_om-id-2-1"><rect x="951" y="542" width="189" height="28" fill="#fff"/></mask><path x="951" y="542" width="189" height="28" fill="rgba(255,255,255,0.2)" d="M955,542 h181 a4,4 0 0 1 4,4 v20 a4,4 0 0 1 -4,4 h-181 a4,4 0 0 1 -4,-4 v-20 a4,4 0 0 1 4,-4"/><g  ><path fill="white" d="M971.6 558.3L971.6 558.3Q971.6 559.6 970.7 560.3Q969.7 561 968.1 561L968.1 561L964.1 561L964.1 551.4L967.6 551.4Q971.0 551.4 971.0 553.7L971.0 553.7Q971.0 554.6 970.6 555.1Q970.1 555.7 969.2 555.9L969.2 555.9Q970.4 556.1 971.0 556.7Q971.6 557.3 971.6 558.3ZM969.7 553.9L969.7 553.9Q969.7 553.1 969.2 552.7Q968.7 552.4 967.6 552.4L967.6 552.4L965.5 552.4L965.5 555.5L967.6 555.5Q969.7 555.5 969.7 553.9ZM970.3 558.2L970.3 558.2Q970.3 556.5 967.9 556.5L967.9 556.5L965.5 556.5L965.5 560.0L968.0 560.0Q969.2 560.0 969.7 559.5Q970.3 559.1 970.3 558.2ZM975.2 561.1L975.2 561.1Q974.1 561.1 973.5 560.5Q972.9 560.0 972.9 558.9L972.9 558.9Q972.9 557.8 973.7 557.2Q974.4 556.6 976.1 556.5L976.1 556.5L977.8 556.5L977.8 556.1Q977.8 555.2 977.4 554.8Q977.0 554.4 976.2 554.4L976.2 554.4Q975.4 554.4 975.0 554.7Q974.6 555.0 974.5 555.6L974.5 555.6L973.3 555.5Q973.6 553.5 976.2 553.5L976.2 553.5Q977.6 553.5 978.3 554.1Q979.0 554.7 979.0 556.0L979.0 556.0L979.0 559.1Q979.0 559.7 979.2 560.0Q979.3 560.2 979.7 560.2L979.7 560.2Q979.9 560.2 980.1 560.2L980.1 560.2L980.1 561.0Q979.7 561.1 979.2 561.1L979.2 561.1Q978.5 561.1 978.2 560.7Q977.9 560.4 977.8 559.6L977.8 559.6L977.8 559.6Q977.3 560.4 976.7 560.8Q976.1 561.1 975.2 561.1ZM977.8 558.0L977.8 557.3L976.4 557.4Q975.6 557.4 975.1 557.6L975.1 557.6Q974.7 557.7 974.4 558.1Q974.2 558.4 974.2 559.0L974.2 559.0Q974.2 559.6 974.5 559.9Q974.8 560.2 975.4 560.2L975.4 560.2Q976.1 560.2 976.7 559.9L976.7 559.9Q977.2 559.6 977.5 559.1Q977.8 558.5 977.8 558.0L977.8 558.0ZM986.6 559.0L986.6 559.0Q986.6 560.0 985.8 560.6Q985.0 561.1 983.6 561.1L983.6 561.1Q982.2 561.1 981.5 560.7Q980.7 560.2 980.5 559.3L980.5 559.3L981.6 559.1Q981.9 560.2 983.6 560.2L983.6 560.2Q984.6 560.2 985.0 559.9Q985.4 559.6 985.4 559.1L985.4 559.1Q985.4 558.6 985.1 558.3Q984.8 558.1 984.2 557.9L984.2 557.9Q983.4 557.7 982.9 557.5Q982.4 557.4 982.2 557.3Q981.9 557.2 981.8 557.1L981.8 557.1Q981.3 556.9 981.1 556.5Q980.8 556.1 980.8 555.6L980.8 555.6Q980.8 554.5 981.5 554.0Q982.3 553.5 983.6 553.5L983.6 553.5Q984.9 553.5 985.6 553.9Q986.3 554.3 986.5 555.3L986.5 555.3L985.4 555.4Q985.2 554.4 983.6 554.4L983.6 554.4Q982.0 554.4 982.0 555.4L982.0 555.4Q982.0 555.8 982.2 556.1Q982.5 556.3 983.1 556.5L983.1 556.5Q983.9 556.7 984.7 556.9Q985.5 557.1 985.8 557.4L985.8 557.4Q986.2 557.7 986.4 558.0Q986.6 558.4 986.6 559.0ZM994.3 557.6L989.0 557.6Q989.0 558.8 989.5 559.5Q990.1 560.2 991.1 560.2L991.1 560.2Q991.9 560.2 992.4 559.9Q992.8 559.6 993.0 559.1L993.0 559.1L994.1 559.4Q993.4 561.1 991.1 561.1L991.1 561.1Q989.4 561.1 988.6 560.2Q987.7 559.2 987.7 557.3L987.7 557.3Q987.7 555.4 988.6 554.4Q989.4 553.5 991.0 553.5L991.0 553.5Q994.3 553.5 994.3 557.4L994.3 557.4L994.3 557.6ZM989.0 556.6L993.0 556.6Q992.9 555.4 992.4 554.9Q991.9 554.4 991.0 554.4L991.0 554.4Q990.1 554.4 989.6 555.0Q989.1 555.6 989.0 556.6L989.0 556.6ZM1001.8 561L1000.6 561Q1000.6 560.9 1000.6 560.7Q1000.6 560.5 1000.6 560.3Q1000.5 560.0 1000.5 559.8L1000.5 559.8L1000.5 559.8Q1000.2 560.5 999.6 560.8Q999.1 561.1 998.2 561.1L998.2 561.1Q996.8 561.1 996.2 560.2Q995.5 559.3 995.5 557.3L995.5 557.3Q995.5 553.5 998.2 553.5L998.2 553.5Q999.1 553.5 999.6 553.8Q1000.2 554.1 1000.5 554.8L1000.5 554.8L1000.5 554.8L1000.5 553.9L1000.5 550.9L1001.8 550.9L1001.8 559.5Q1001.8 560.6 1001.8 561L1001.8 561ZM996.8 557.3L996.8 557.3Q996.8 558.8 997.2 559.5Q997.6 560.2 998.5 560.2L998.5 560.2Q999.6 560.2 1000.1 559.5Q1000.5 558.7 1000.5 557.2L1000.5 557.2Q1000.5 555.7 1000.1 555.1Q999.6 554.4 998.5 554.4L998.5 554.4Q997.6 554.4 997.2 555.1Q996.8 555.8 996.8 557.3Z M1013.8 557.3L1013.8 557.3Q1013.8 559.2 1012.9 560.2Q1012.1 561.1 1010.4 561.1L1010.4 561.1Q1008.8 561.1 1008.0 560.1Q1007.2 559.2 1007.2 557.3L1007.2 557.3Q1007.2 553.5 1010.5 553.5L1010.5 553.5Q1012.2 553.5 1013.0 554.4Q1013.8 555.3 1013.8 557.3ZM1012.5 557.3L1012.5 557.3Q1012.5 555.8 1012.0 555.1Q1011.6 554.4 1010.5 554.4L1010.5 554.4Q1009.4 554.4 1008.9 555.1Q1008.5 555.8 1008.5 557.3L1008.5 557.3Q1008.5 558.8 1008.9 559.5Q1009.4 560.2 1010.4 560.2L1010.4 560.2Q1011.5 560.2 1012.0 559.5Q1012.5 558.8 1012.5 557.3ZM1016.6 556.7L1016.6 556.7L1016.6 561L1015.3 561L1015.3 555.2Q1015.3 553.9 1015.3 553.6L1015.3 553.6L1016.5 553.6Q1016.5 553.8 1016.5 554.1Q1016.5 554.5 1016.5 554.9L1016.5 554.9L1016.5 554.9Q1017.0 554.1 1017.5 553.8Q1018.1 553.5 1018.9 553.5L1018.9 553.5Q1020.1 553.5 1020.7 554.1Q1021.2 554.7 1021.2 556.1L1021.2 556.1L1021.2 561L1020.0 561L1020.0 556.3Q1020.0 555.3 1019.7 554.8Q1019.3 554.4 1018.5 554.4L1018.5 554.4Q1017.6 554.4 1017.1 555.0Q1016.6 555.6 1016.6 556.7Z M1029.8 561.1L1029.8 561.1Q1028.3 561.1 1027.5 560.2Q1026.6 559.2 1026.6 557.3L1026.6 557.3Q1026.6 555.4 1027.5 554.4Q1028.3 553.5 1029.8 553.5L1029.8 553.5Q1030.9 553.5 1031.7 554.1Q1032.4 554.6 1032.6 555.7L1032.6 555.7L1031.4 555.8Q1031.3 555.2 1030.9 554.8Q1030.5 554.4 1029.8 554.4L1029.8 554.4Q1028.8 554.4 1028.4 555.1Q1027.9 555.7 1027.9 557.3L1027.9 557.3Q1027.9 558.7 1028.4 559.5Q1028.9 560.2 1029.8 560.2L1029.8 560.2Q1030.5 560.2 1030.9 559.8Q1031.3 559.5 1031.4 558.7L1031.4 558.7L1032.7 558.8Q1032.5 559.9 1031.8 560.5Q1031.0 561.1 1029.8 561.1ZM1034.0 550.9L1035.2 550.9L1035.2 561L1034.0 561L1034.0 550.9ZM1037.1 550.9L1038.3 550.9L1038.3 552.0L1037.1 552.0L1037.1 550.9ZM1037.1 553.6L1038.3 553.6L1038.3 561L1037.1 561L1037.1 553.6ZM1041.5 556.7L1041.5 556.7L1041.5 561L1040.2 561L1040.2 555.2Q1040.2 553.9 1040.2 553.6L1040.2 553.6L1041.4 553.6Q1041.4 553.8 1041.4 554.1Q1041.4 554.5 1041.4 554.9L1041.4 554.9L1041.4 554.9Q1041.9 554.1 1042.4 553.8Q1043.0 553.5 1043.8 553.5L1043.8 553.5Q1045.0 553.5 1045.6 554.1Q1046.1 554.7 1046.1 556.1L1046.1 556.1L1046.1 561L1044.9 561L1044.9 556.3Q1044.9 555.3 1044.6 554.8Q1044.2 554.4 1043.4 554.4L1043.4 554.4Q1042.5 554.4 1042.0 555.0Q1041.5 555.6 1041.5 556.7ZM1048.0 550.9L1049.2 550.9L1049.2 552.0L1048.0 552.0L1048.0 550.9ZM1048.0 553.6L1049.2 553.6L1049.2 561L1048.0 561L1048.0 553.6ZM1053.9 561.1L1053.9 561.1Q1052.4 561.1 1051.6 560.2Q1050.8 559.2 1050.8 557.3L1050.8 557.3Q1050.8 555.4 1051.6 554.4Q1052.4 553.5 1053.9 553.5L1053.9 553.5Q1055.1 553.5 1055.8 554.1Q1056.6 554.6 1056.8 555.7L1056.8 555.7L1055.5 555.8Q1055.4 555.2 1055.0 554.8Q1054.6 554.4 1053.9 554.4L1053.9 554.4Q1052.9 554.4 1052.5 555.1Q1052.0 555.7 1052.0 557.3L1052.0 557.3Q1052.0 558.7 1052.5 559.5Q1053.0 560.2 1053.9 560.2L1053.9 560.2Q1054.6 560.2 1055.0 559.8Q1055.4 559.5 1055.6 558.7L1055.6 558.7L1056.8 558.8Q1056.7 559.9 1055.9 560.5Q1055.1 561.1 1053.9 561.1ZM1060.0 561.1L1060.0 561.1Q1058.9 561.1 1058.3 560.5Q1057.8 560.0 1057.8 558.9L1057.8 558.9Q1057.8 557.8 1058.5 557.2Q1059.3 556.6 1061.0 556.5L1061.0 556.5L1062.6 556.5L1062.6 556.1Q1062.6 555.2 1062.2 554.8Q1061.8 554.4 1061.0 554.4L1061.0 554.4Q1060.2 554.4 1059.8 554.7Q1059.4 555.0 1059.4 555.6L1059.4 555.6L1058.1 555.5Q1058.4 553.5 1061.1 553.5L1061.1 553.5Q1062.4 553.5 1063.2 554.1Q1063.9 554.7 1063.9 556.0L1063.9 556.0L1063.9 559.1Q1063.9 559.7 1064.0 560.0Q1064.1 560.2 1064.5 560.2L1064.5 560.2Q1064.7 560.2 1065.0 560.2L1065.0 560.2L1065.0 561.0Q1064.5 561.1 1064.0 561.1L1064.0 561.1Q1063.3 561.1 1063.0 560.7Q1062.7 560.4 1062.7 559.6L1062.7 559.6L1062.6 559.6Q1062.1 560.4 1061.5 560.8Q1060.9 561.1 1060.0 561.1ZM1062.6 558.0L1062.6 557.3L1061.3 557.4Q1060.4 557.4 1060.0 557.6L1060.0 557.6Q1059.5 557.7 1059.3 558.1Q1059.0 558.4 1059.0 559.0L1059.0 559.0Q1059.0 559.6 1059.3 559.9Q1059.7 560.2 1060.3 560.2L1060.3 560.2Q1061.0 560.2 1061.5 559.9L1061.5 559.9Q1062.0 559.6 1062.3 559.1Q1062.6 558.5 1062.6 558.0L1062.6 558.0ZM1065.9 550.9L1067.1 550.9L1067.1 561L1065.9 561L1065.9 550.9Z M1079.1 557.6L1073.8 557.6Q1073.8 558.8 1074.4 559.5Q1074.9 560.2 1075.9 560.2L1075.9 560.2Q1076.7 560.2 1077.2 559.9Q1077.7 559.6 1077.8 559.1L1077.8 559.1L1078.9 559.4Q1078.3 561.1 1075.9 561.1L1075.9 561.1Q1074.3 561.1 1073.4 560.2Q1072.5 559.2 1072.5 557.3L1072.5 557.3Q1072.5 555.4 1073.4 554.4Q1074.3 553.5 1075.9 553.5L1075.9 553.5Q1079.1 553.5 1079.1 557.4L1079.1 557.4L1079.1 557.6ZM1073.9 556.6L1077.8 556.6Q1077.7 555.4 1077.2 554.9Q1076.8 554.4 1075.8 554.4L1075.8 554.4Q1074.9 554.4 1074.4 555.0Q1073.9 555.6 1073.9 556.6L1073.9 556.6ZM1085.4 553.6L1086.7 553.6L1083.9 561L1082.5 561L1079.8 553.6L1081.1 553.6L1082.7 558.4Q1082.8 558.7 1083.2 560.0L1083.2 560.0Q1083.3 559.6 1083.5 559.2Q1083.6 558.8 1083.7 558.4L1083.7 558.4L1085.4 553.6ZM1087.7 550.9L1088.9 550.9L1088.9 552.0L1087.7 552.0L1087.7 550.9ZM1087.7 553.6L1088.9 553.6L1088.9 561L1087.7 561L1087.7 553.6ZM1096.7 561L1095.6 561Q1095.5 560.9 1095.5 560.7Q1095.5 560.5 1095.5 560.3Q1095.5 560.0 1095.5 559.8L1095.5 559.8L1095.5 559.8Q1095.1 560.5 1094.6 560.8Q1094.0 561.1 1093.2 561.1L1093.2 561.1Q1091.8 561.1 1091.1 560.2Q1090.4 559.3 1090.4 557.3L1090.4 557.3Q1090.4 553.5 1093.2 553.5L1093.2 553.5Q1094.0 553.5 1094.6 553.8Q1095.1 554.1 1095.5 554.8L1095.5 554.8L1095.5 554.8L1095.5 553.9L1095.5 550.9L1096.7 550.9L1096.7 559.5Q1096.7 560.6 1096.7 561L1096.7 561ZM1091.7 557.3L1091.7 557.3Q1091.7 558.8 1092.1 559.5Q1092.5 560.2 1093.5 560.2L1093.5 560.2Q1094.5 560.2 1095.0 559.5Q1095.5 558.7 1095.5 557.2L1095.5 557.2Q1095.5 555.7 1095.0 555.1Q1094.5 554.4 1093.5 554.4L1093.5 554.4Q1092.6 554.4 1092.1 555.1Q1091.7 555.8 1091.7 557.3ZM1104.8 557.6L1099.5 557.6Q1099.5 558.8 1100.0 559.5Q1100.6 560.2 1101.6 560.2L1101.6 560.2Q1102.4 560.2 1102.9 559.9Q1103.3 559.6 1103.5 559.1L1103.5 559.1L1104.6 559.4Q1103.9 561.1 1101.6 561.1L1101.6 561.1Q1099.9 561.1 1099.1 560.2Q1098.2 559.2 1098.2 557.3L1098.2 557.3Q1098.2 555.4 1099.1 554.4Q1099.9 553.5 1101.5 553.5L1101.5 553.5Q1104.8 553.5 1104.8 557.4L1104.8 557.4L1104.8 557.6ZM1099.5 556.6L1103.5 556.6Q1103.4 555.4 1102.9 554.9Q1102.4 554.4 1101.5 554.4L1101.5 554.4Q1100.6 554.4 1100.1 555.0Q1099.6 555.6 1099.5 556.6L1099.5 556.6ZM1107.6 556.7L1107.6 556.7L1107.6 561L1106.4 561L1106.4 555.2Q1106.4 553.9 1106.3 553.6L1106.3 553.6L1107.5 553.6Q1107.5 553.8 1107.5 554.1Q1107.6 554.5 1107.6 554.9L1107.6 554.9L1107.6 554.9Q1108.0 554.1 1108.6 553.8Q1109.1 553.5 1110.0 553.5L1110.0 553.5Q1111.2 553.5 1111.7 554.1Q1112.3 554.7 1112.3 556.1L1112.3 556.1L1112.3 561L1111.1 561L1111.1 556.3Q1111.1 555.3 1110.7 554.8Q1110.4 554.4 1109.5 554.4L1109.5 554.4Q1108.6 554.4 1108.1 555.0Q1107.6 555.6 1107.6 556.7ZM1117.0 561.1L1117.0 561.1Q1115.4 561.1 1114.6 560.2Q1113.8 559.2 1113.8 557.3L1113.8 557.3Q1113.8 555.4 1114.6 554.4Q1115.4 553.5 1117.0 553.5L1117.0 553.5Q1118.1 553.5 1118.9 554.1Q1119.6 554.6 1119.8 555.7L1119.8 555.7L1118.5 555.8Q1118.4 555.2 1118.0 554.8Q1117.7 554.4 1116.9 554.4L1116.9 554.4Q1116.0 554.4 1115.5 555.1Q1115.1 555.7 1115.1 557.3L1115.1 557.3Q1115.1 558.7 1115.6 559.5Q1116.0 560.2 1117.0 560.2L1117.0 560.2Q1117.6 560.2 1118.0 559.8Q1118.5 559.5 1118.6 558.7L1118.6 558.7L1119.8 558.8Q1119.7 559.9 1118.9 560.5Q1118.2 561.1 1117.0 561.1ZM1127.4 557.6L1122.1 557.6Q1122.1 558.8 1122.6 559.5Q1123.1 560.2 1124.2 560.2L1124.2 560.2Q1125.0 560.2 1125.4 559.9Q1125.9 559.6 1126.1 559.1L1126.1 559.1L1127.2 559.4Q1126.5 561.1 1124.2 561.1L1124.2 561.1Q1122.5 561.1 1121.7 560.2Q1120.8 559.2 1120.8 557.3L1120.8 557.3Q1120.8 555.4 1121.7 554.4Q1122.5 553.5 1124.1 553.5L1124.1 553.5Q1127.4 553.5 1127.4 557.4L1127.4 557.4L1127.4 557.6ZM1122.1 556.6L1126.1 556.6Q1126.0 555.4 1125.5 554.9Q1125.0 554.4 1124.1 554.4L1124.1 554.4Q1123.2 554.4 1122.7 555.0Q1122.1 555.6 1122.1 556.6L1122.1 556.6Z "/></g></svg>