<svg width="1080" height="1350" viewBox="0 0 1080 1350" xmlns="http://www.w3.org/2000/svg"><mask id="satori_om-id"><rect x="0" y="0" width="1080" height="1350" fill="#fff"/></mask><rect x="0" y="0" width="1080" height="1350" fill="#f8f9fa"/><mask id="satori_om-id-0"><rect x="427" y="524" width="227" height="132" fill="#fff"/></mask><g  ><path fill="#1e3a5f" d="M491.3 617.3L491.3 631L432.8 631L432.8 619.4L460.4 590.0Q466.1 583.8 468.8 579.1Q471.5 574.5 471.5 570.4L471.5 570.4Q471.5 564.7 468.7 561.4Q465.8 558.2 460.5 558.2L460.5 558.2Q454.7 558.2 451.4 562.1Q448.1 566.1 448.1 572.5L448.1 572.5L431.1 572.5Q431.1 564.7 434.8 558.3Q438.5 551.8 445.3 548.2Q452.1 544.5 460.8 544.5L460.8 544.5Q473.9 544.5 481.2 550.8Q488.5 557.2 488.5 568.7L488.5 568.7Q488.5 575.0 485.2 581.6Q482.0 588.2 474.0 596.9L474.0 596.9L454.6 617.3L491.3 617.3ZM544.8 544.8L547.6 544.8L547.6 558.8L545.9 558.8Q534.5 558.9 527.5 564.7Q520.5 570.5 519.1 580.8L519.1 580.8Q525.8 573.9 536.2 573.9L536.2 573.9Q547.4 573.9 553.9 581.9Q560.5 589.9 560.5 602.9L560.5 602.9Q560.5 611.2 556.9 617.9Q553.3 624.7 546.7 628.4Q540.1 632.2 531.8 632.2L531.8 632.2Q518.3 632.2 510.0 622.8Q501.7 613.4 501.7 597.8L501.7 597.8L501.7 591.7Q501.7 577.8 507.0 567.2Q512.2 556.5 522.0 550.7Q531.8 544.9 544.8 544.8L544.8 544.8ZM531.1 587.5L531.1 587.5Q527.0 587.5 523.6 589.7Q520.3 591.8 518.7 595.3L518.7 595.3L518.7 600.5Q518.7 609.0 522.0 613.7Q525.4 618.5 531.4 618.5L531.4 618.5Q536.9 618.5 540.2 614.2Q543.6 609.9 543.6 603.1L543.6 603.1Q543.6 596.1 540.2 591.8Q536.8 587.5 531.1 587.5ZM570.3 566.3L570.3 562.1Q570.3 554.2 575.4 549.3Q580.5 544.5 588.7 544.5L588.7 544.5Q597.1 544.5 602.2 549.3Q607.3 554.1 607.3 562.4L607.3 562.4L607.3 566.6Q607.3 574.5 602.2 579.3Q597.1 584.1 588.8 584.1L588.8 584.1Q580.5 584.1 575.4 579.3Q570.3 574.5 570.3 566.3L570.3 566.3ZM581.5 562.3L581.5 566.6Q581.5 570.1 583.5 572.3Q585.6 574.4 588.8 574.4Q592.1 574.4 594.1 572.2Q596.0 570.1 596.0 566.4L596.0 566.4L596.0 562.1Q596.0 558.6 594.1 556.4Q592.1 554.2 588.7 554.2L588.7 554.2Q585.5 554.2 583.5 556.4Q581.5 558.5 581.5 562.3L581.5 562.3ZM611.0 614.4L611.0 610.1Q611.0 602.2 616.2 597.3Q621.4 592.5 629.6 592.5L629.6 592.5Q637.9 592.5 643.0 597.3Q648.1 602.1 648.1 610.4L648.1 610.4L648.1 614.7Q648.1 622.5 643.1 627.3Q638.1 632.2 629.7 632.2L629.7 632.2Q621.2 632.2 616.1 627.3Q611.0 622.4 611.0 614.4L611.0 614.4ZM622.3 610.3L622.3 614.7Q622.3 617.9 624.4 620.2Q626.5 622.4 629.7 622.4L629.7 622.4Q636.8 622.4 636.8 614.5L636.8 614.5L636.8 610.1Q636.8 606.6 634.8 604.4Q632.8 602.3 629.6 602.3Q626.3 602.3 624.3 604.4Q622.3 606.6 622.3 610.3L622.3 610.3ZM633.8 557.9L592.2 624.6L583.9 620.2L625.6 553.5L633.8 557.9Z "/></g><mask id="satori_om-id-1"><rect x="403" y="676" width="275" height="38" fill="#fff"/></mask><g  ><path fill="#212529" d="M405.0 683.3L411.2 683.3L417 699.8L422.8 683.3L429.0 683.3L429.0 706L424.3 706L424.3 699.8L424.7 689.0L418.6 706L415.4 706L409.3 689.1L409.7 699.8L409.7 706L405.0 706L405.0 683.3ZM432.1 697.6L432.1 697.4Q432.1 694.9 433.0 692.9Q434 690.9 435.8 689.9Q437.6 688.8 440.0 688.8L440.0 688.8Q443.5 688.8 445.6 690.9Q447.8 693.0 448.0 696.6L448.0 696.6L448.1 697.7Q448.1 701.6 445.9 704.0Q443.7 706.3 440.1 706.3Q436.4 706.3 434.2 704.0Q432.1 701.6 432.1 697.6L432.1 697.6ZM436.6 697.7L436.6 697.7Q436.6 700.1 437.5 701.4Q438.4 702.7 440.1 702.7L440.1 702.7Q441.7 702.7 442.6 701.4Q443.6 700.2 443.6 697.4L443.6 697.4Q443.6 695.0 442.6 693.7Q441.7 692.4 440.0 692.4L440.0 692.4Q438.4 692.4 437.5 693.7Q436.6 695.0 436.6 697.7ZM460.4 689.0L460.4 693.3Q459.4 693.2 458.7 693.2L458.7 693.2Q456.2 693.2 455.4 694.9L455.4 694.9L455.4 706L450.9 706L450.9 689.1L455.1 689.1L455.3 691.1Q456.6 688.8 459.0 688.8L459.0 688.8Q459.8 688.8 460.4 689.0L460.4 689.0ZM464.2 684.9L468.7 684.9L468.7 689.1L471.6 689.1L471.6 692.4L468.7 692.4L468.7 700.8Q468.7 701.8 469.1 702.2Q469.4 702.6 470.5 702.6L470.5 702.6Q471.2 702.6 471.8 702.5L471.8 702.5L471.8 705.9Q470.5 706.3 469.0 706.3L469.0 706.3Q464.3 706.3 464.2 701.5L464.2 701.5L464.2 692.4L461.7 692.4L461.7 689.1L464.2 689.1L464.2 684.9ZM488.5 706L483.9 706Q483.6 705.4 483.5 704.5L483.5 704.5Q481.8 706.3 479.2 706.3L479.2 706.3Q476.7 706.3 475.1 704.9Q473.5 703.4 473.5 701.3L473.5 701.3Q473.5 698.6 475.4 697.1Q477.4 695.7 481.2 695.7L481.2 695.7L483.3 695.7L483.3 694.7Q483.3 693.5 482.7 692.8Q482.1 692.1 480.8 692.1L480.8 692.1Q479.6 692.1 479.0 692.7Q478.3 693.2 478.3 694.2L478.3 694.2L473.8 694.2Q473.8 692.7 474.7 691.5Q475.6 690.2 477.3 689.5Q479.0 688.8 481.0 688.8L481.0 688.8Q484.1 688.8 486.0 690.4Q487.8 691.9 487.8 694.8L487.8 694.8L487.8 702.1Q487.8 704.5 488.5 705.7L488.5 705.7L488.5 706ZM480.2 702.9L480.2 702.9Q481.2 702.9 482.0 702.4Q482.9 702.0 483.3 701.2L483.3 701.2L483.3 698.3L481.6 698.3Q478.2 698.3 478.0 700.7L478.0 700.7L478.0 700.9Q478.0 701.8 478.6 702.3Q479.2 702.9 480.2 702.9ZM496.0 682L496.0 706L491.5 706L491.5 682L496.0 682ZM504.5 689.1L504.5 706L500 706L500 689.1L504.5 689.1ZM499.7 684.7L499.7 684.7Q499.7 683.7 500.4 683.0Q501.1 682.4 502.3 682.4L502.3 682.4Q503.4 682.4 504.1 683.0Q504.8 683.7 504.8 684.7L504.8 684.7Q504.8 685.8 504.1 686.4Q503.4 687.1 502.3 687.1Q501.1 687.1 500.4 686.4Q499.7 685.8 499.7 684.7ZM509.1 684.9L513.7 684.9L513.7 689.1L516.5 689.1L516.5 692.4L513.7 692.4L513.7 700.8Q513.7 701.8 514.0 702.2Q514.4 702.6 515.4 702.6L515.4 702.6Q516.1 702.6 516.7 702.5L516.7 702.5L516.7 705.9Q515.4 706.3 514.0 706.3L514.0 706.3Q509.2 706.3 509.1 701.5L509.1 701.5L509.1 692.4L506.7 692.4L506.7 689.1L509.1 689.1L509.1 684.9ZM522.2 689.1L525.4 699.6L528.5 689.1L533.3 689.1L526.5 708.6L526.2 709.5Q524.7 712.8 521.2 712.8L521.2 712.8Q520.2 712.8 519.2 712.5L519.2 712.5L519.2 709.1L519.9 709.1Q521.1 709.1 521.8 708.7Q522.4 708.3 522.8 707.4L522.8 707.4L523.3 706.0L517.4 689.1L522.2 689.1Z M551.9 689.0L551.8 693.3Q550.9 693.2 550.2 693.2L550.2 693.2Q547.6 693.2 546.8 694.9L546.8 694.9L546.8 706L542.3 706L542.3 689.1L546.6 689.1L546.7 691.1Q548.1 688.8 550.5 688.8L550.5 688.8Q551.2 688.8 551.9 689.0L551.9 689.0ZM561.5 706.3L561.5 706.3Q557.8 706.3 555.4 704.0Q553.1 701.8 553.1 698.0L553.1 698.0L553.1 697.5Q553.1 695.0 554.1 693.0Q555.0 691.0 556.9 689.9Q558.7 688.8 561.0 688.8L561.0 688.8Q564.4 688.8 566.4 691.0Q568.4 693.2 568.4 697.2L568.4 697.2L568.4 699.0L557.7 699.0Q557.9 700.7 559.0 701.7Q560.1 702.7 561.8 702.7L561.8 702.7Q564.4 702.7 565.8 700.8L565.8 700.8L568.1 703.3Q567.0 704.7 565.3 705.5Q563.6 706.3 561.5 706.3ZM561.0 692.4L561.0 692.4Q559.6 692.4 558.8 693.3Q557.9 694.3 557.7 695.9L557.7 695.9L564.0 695.9L564.0 695.6Q564.0 694.1 563.2 693.3Q562.4 692.4 561.0 692.4ZM570.3 697.4L570.3 697.4Q570.3 693.5 572.1 691.1Q573.8 688.8 576.9 688.8L576.9 688.8Q579.4 688.8 581.0 690.6L581.0 690.6L581.0 682L585.5 682L585.5 706L581.4 706L581.2 704.2Q579.5 706.3 576.9 706.3L576.9 706.3Q573.9 706.3 572.1 704.0Q570.3 701.6 570.3 697.4ZM574.8 697.8L574.8 697.8Q574.8 700.1 575.6 701.4Q576.5 702.7 578.0 702.7L578.0 702.7Q580.1 702.7 581.0 700.9L581.0 700.9L581.0 694.2Q580.1 692.5 578.1 692.5L578.1 692.5Q574.8 692.5 574.8 697.8ZM599.3 706L599.1 704.3Q597.5 706.3 594.5 706.3L594.5 706.3Q591.8 706.3 590.4 704.8Q588.9 703.2 588.9 700.2L588.9 700.2L588.9 689.1L593.4 689.1L593.4 700.0Q593.4 702.7 595.8 702.7L595.8 702.7Q598.1 702.7 599.0 701.1L599.0 701.1L599.0 689.1L603.5 689.1L603.5 706L599.3 706ZM614.0 702.7L614.0 702.7Q615.2 702.7 616.0 702.0Q616.8 701.3 616.8 700.2L616.8 700.2L621.0 700.2Q621.0 701.9 620.1 703.3Q619.2 704.7 617.6 705.5Q616.0 706.3 614.0 706.3L614.0 706.3Q610.4 706.3 608.3 704.0Q606.2 701.7 606.2 697.6L606.2 697.6L606.2 697.3Q606.2 693.4 608.3 691.1Q610.4 688.8 614 688.8L614 688.8Q617.2 688.8 619.1 690.6Q621 692.4 621.0 695.4L621.0 695.4L616.8 695.4Q616.8 694.1 616.0 693.3Q615.2 692.4 613.9 692.4L613.9 692.4Q612.3 692.4 611.5 693.6Q610.7 694.7 610.7 697.3L610.7 697.3L610.7 697.8Q610.7 700.4 611.5 701.5Q612.3 702.7 614.0 702.7ZM624.5 684.9L629.0 684.9L629.0 689.1L631.9 689.1L631.9 692.4L629.0 692.4L629.0 700.8Q629.0 701.8 629.4 702.2Q629.7 702.6 630.8 702.6L630.8 702.6Q631.5 702.6 632.1 702.5L632.1 702.5L632.1 705.9Q630.8 706.3 629.3 706.3L629.3 706.3Q624.6 706.3 624.5 701.5L624.5 701.5L624.5 692.4L622.0 692.4L622.0 689.1L624.5 689.1L624.5 684.9ZM639.2 689.1L639.2 706L634.7 706L634.7 689.1L639.2 689.1ZM634.4 684.7L634.4 684.7Q634.4 683.7 635.1 683.0Q635.8 682.4 636.9 682.4L636.9 682.4Q638.1 682.4 638.8 683.0Q639.5 683.7 639.5 684.7L639.5 684.7Q639.5 685.8 638.8 686.4Q638.1 687.1 636.9 687.1Q635.8 687.1 635.1 686.4Q634.4 685.8 634.4 684.7ZM642.2 697.6L642.2 697.4Q642.2 694.9 643.2 692.9Q644.1 690.9 646.0 689.9Q647.8 688.8 650.2 688.8L650.2 688.8Q653.6 688.8 655.8 690.9Q657.9 693.0 658.2 696.6L658.2 696.6L658.2 697.7Q658.2 701.6 656.0 704.0Q653.9 706.3 650.2 706.3Q646.6 706.3 644.4 704.0Q642.2 701.6 642.2 697.6L642.2 697.6ZM646.7 697.7L646.7 697.7Q646.7 700.1 647.6 701.4Q648.5 702.7 650.2 702.7L650.2 702.7Q651.9 702.7 652.8 701.4Q653.7 700.2 653.7 697.4L653.7 697.4Q653.7 695.0 652.8 693.7Q651.9 692.4 650.2 692.4L650.2 692.4Q648.5 692.4 647.6 693.7Q646.7 695.0 646.7 697.7ZM660.9 689.1L665.2 689.1L665.3 691.0Q667.1 688.8 670.2 688.8L670.2 688.8Q672.8 688.8 674.2 690.4Q675.5 691.9 675.5 695.1L675.5 695.1L675.5 706L671.0 706L671.0 695.2Q671.0 693.8 670.4 693.1Q669.7 692.5 668.3 692.5L668.3 692.5Q666.4 692.5 665.4 694.1L665.4 694.1L665.4 706L660.9 706L660.9 689.1Z "/></g><mask id="satori_om-id-2"><rect x="421" y="726" width="239" height="23" fill="#fff"/></mask><g  ><path fill="#495057" d="M433.6 730.8L433.6 745L431.7 745L431.7 738.4L424.5 738.4L424.5 745L422.7 745L422.7 730.8L424.5 730.8L424.5 736.9L431.7 736.9L431.7 730.8L433.6 730.8ZM445.2 745L442.1 739.2L438.8 739.2L438.8 745L436.9 745L436.9 730.8L441.6 730.8Q444.0 730.8 445.3 731.9Q446.6 733.0 446.6 735.1L446.6 735.1Q446.6 736.4 445.9 737.4Q445.2 738.4 443.9 738.8L443.9 738.8L447.2 744.9L447.2 745L445.2 745ZM438.8 732.3L438.8 737.7L441.7 737.7Q443.1 737.7 443.9 737.0Q444.7 736.3 444.7 735.1L444.7 735.1Q444.7 733.7 443.9 733.0Q443.1 732.3 441.7 732.3L441.7 732.3L438.8 732.3Z M462.6 736.6L462.6 738.9Q462.6 742.1 461.5 743.7Q460.5 745.2 458.1 745.2L458.1 745.2Q455.9 745.2 454.8 743.7Q453.7 742.2 453.6 739.2L453.6 739.2L453.6 736.8Q453.6 733.6 454.7 732.1Q455.8 730.6 458.1 730.6L458.1 730.6Q460.4 730.6 461.5 732.1Q462.6 733.5 462.6 736.6L462.6 736.6ZM460.8 739.4L460.8 736.5Q460.8 734.2 460.2 733.1Q459.5 732.1 458.1 732.1L458.1 732.1Q456.7 732.1 456.1 733.1Q455.5 734.2 455.5 736.3L455.5 736.3L455.5 739.2Q455.5 741.5 456.1 742.6Q456.8 743.7 458.1 743.7L458.1 743.7Q459.5 743.7 460.1 742.7Q460.8 741.7 460.8 739.4L460.8 739.4ZM465.2 744.1L465.2 744.1Q465.2 743.6 465.4 743.3Q465.7 743.0 466.3 743.0Q466.8 743.0 467.1 743.3Q467.4 743.6 467.4 744.1L467.4 744.1Q467.4 744.5 467.1 744.8Q466.8 745.1 466.3 745.1Q465.7 745.1 465.4 744.8Q465.2 744.5 465.2 744.1ZM479.4 730.8L479.4 731.8L473.5 745L471.6 745L477.5 732.3L469.8 732.3L469.8 730.8L479.4 730.8ZM489.1 730.8L489.1 740.2L491.0 740.2L491.0 741.7L489.1 741.7L489.1 745L487.2 745L487.2 741.7L480.8 741.7L480.8 740.6L487.1 730.8L489.1 730.8ZM487.0 733.6L482.8 740.2L487.2 740.2L487.2 733.3L487.0 733.6Z M497.7 739.2L497.7 739.2Q497.7 737.0 498.3 735.0Q498.9 733.0 500.1 731.3Q501.3 729.6 502.5 729.0L502.5 729.0L502.9 730.1Q501.5 731.2 500.5 733.5Q499.6 735.7 499.5 738.5L499.5 738.5L499.5 739.3Q499.5 743.1 500.9 745.9L500.9 745.9Q501.7 747.5 502.9 748.5L502.9 748.5L502.5 749.6Q501.2 748.9 500.0 747.2L500.0 747.2Q497.7 743.8 497.7 739.2ZM511.4 738.8L511.4 738.8Q510.8 739.4 510.0 739.8Q509.2 740.2 508.3 740.2L508.3 740.2Q507.1 740.2 506.2 739.6Q505.2 739.0 504.7 737.9Q504.2 736.8 504.2 735.5L504.2 735.5Q504.2 734.1 504.8 732.9Q505.3 731.8 506.3 731.2Q507.3 730.6 508.6 730.6L508.6 730.6Q510.8 730.6 512.0 732.2Q513.2 733.7 513.2 736.5L513.2 736.5L513.2 737.0Q513.2 741.1 511.5 743.1Q509.9 745.0 506.6 745.0L506.6 745.0L506.2 745.0L506.2 743.5L506.6 743.5Q508.9 743.4 510.1 742.3Q511.3 741.2 511.4 738.8ZM508.6 738.8L508.6 738.8Q509.5 738.8 510.3 738.2Q511.0 737.6 511.4 736.8L511.4 736.8L511.4 736.1Q511.4 734.3 510.6 733.2Q509.8 732.1 508.7 732.1L508.7 732.1Q507.5 732.1 506.7 733.0Q506.0 733.9 506.0 735.4L506.0 735.4Q506.0 736.9 506.7 737.8Q507.4 738.8 508.6 738.8ZM518.0 738.2L516.5 737.9L517.2 730.8L524.5 730.8L524.5 732.5L518.8 732.5L518.3 736.3Q519.4 735.7 520.7 735.7L520.7 735.7Q522.7 735.7 523.8 737.0Q524.9 738.3 524.9 740.5L524.9 740.5Q524.9 742.7 523.7 743.9Q522.6 745.2 520.4 745.2L520.4 745.2Q518.5 745.2 517.4 744.2Q516.2 743.1 516 741.3L516 741.3L517.7 741.3Q517.9 742.5 518.6 743.1Q519.3 743.7 520.4 743.7L520.4 743.7Q521.7 743.7 522.4 742.9Q523.1 742.0 523.1 740.5L523.1 740.5Q523.1 739.1 522.4 738.2Q521.6 737.3 520.3 737.3L520.3 737.3Q519.1 737.3 518.4 737.9L518.4 737.9L518.0 738.2ZM526.8 734.2L526.8 733.5Q526.8 732.2 527.6 731.4Q528.4 730.6 529.7 730.6L529.7 730.6Q531.0 730.6 531.8 731.4Q532.6 732.2 532.6 733.6L532.6 733.6L532.6 734.3Q532.6 735.6 531.8 736.4Q530.9 737.2 529.7 737.2L529.7 737.2Q528.4 737.2 527.6 736.4Q526.8 735.6 526.8 734.2L526.8 734.2ZM528.1 733.6L528.1 734.3Q528.1 735.0 528.5 735.5Q529.0 736.0 529.7 736.0L529.7 736.0Q530.4 736.0 530.8 735.5Q531.2 735.1 531.2 734.2L531.2 734.2L531.2 733.5Q531.2 732.8 530.8 732.3Q530.4 731.8 529.7 731.8Q528.9 731.8 528.5 732.3Q528.1 732.8 528.1 733.6L528.1 733.6ZM533.7 742.2L533.7 741.5Q533.7 740.2 534.5 739.4Q535.3 738.6 536.6 738.6Q537.9 738.6 538.7 739.4Q539.5 740.2 539.5 741.6L539.5 741.6L539.5 742.3Q539.5 743.6 538.7 744.4Q537.9 745.2 536.6 745.2Q535.3 745.2 534.5 744.4Q533.7 743.6 533.7 742.2L533.7 742.2ZM535.0 741.6L535.0 742.3Q535.0 743.0 535.5 743.5Q535.9 744.0 536.6 744.0L536.6 744.0Q537.3 744.0 537.7 743.5Q538.1 743.1 538.1 742.2L538.1 742.2L538.1 741.5Q538.1 740.7 537.7 740.3Q537.3 739.8 536.6 739.8L536.6 739.8Q535.9 739.8 535.5 740.2Q535.0 740.7 535.0 741.6L535.0 741.6ZM537.0 732.8L530.1 743.9L529.1 743.3L536.0 732.2L537.0 732.8Z M555.6 740.5L557.4 740.5Q557.2 742.7 555.8 744.0Q554.4 745.2 552.0 745.2L552.0 745.2Q549.5 745.2 548.0 743.4Q546.5 741.6 546.5 738.6L546.5 738.6L546.5 737.2Q546.5 735.2 547.2 733.7Q547.9 732.2 549.2 731.4Q550.5 730.6 552.2 730.6L552.2 730.6Q554.5 730.6 555.8 731.9Q557.2 733.1 557.4 735.4L557.4 735.4L555.6 735.4Q555.3 733.7 554.5 732.9Q553.7 732.1 552.2 732.1L552.2 732.1Q550.4 732.1 549.4 733.5Q548.4 734.8 548.4 737.2L548.4 737.2L548.4 738.6Q548.4 740.9 549.3 742.3Q550.3 743.7 552.0 743.7L552.0 743.7Q553.6 743.7 554.4 743.0Q555.3 742.2 555.6 740.5L555.6 740.5ZM562.0 730.8L562.0 745L560.1 745L560.1 730.8L562.0 730.8Z M578.8 736.6L578.8 738.9Q578.8 742.1 577.7 743.7Q576.7 745.2 574.4 745.2L574.4 745.2Q572.1 745.2 571.0 743.7Q569.9 742.2 569.9 739.2L569.9 739.2L569.9 736.8Q569.9 733.6 570.9 732.1Q572.0 730.6 574.3 730.6L574.3 730.6Q576.6 730.6 577.7 732.1Q578.8 733.5 578.8 736.6L578.8 736.6ZM577.0 739.4L577.0 736.5Q577.0 734.2 576.4 733.1Q575.7 732.1 574.3 732.1L574.3 732.1Q573.0 732.1 572.3 733.1Q571.7 734.2 571.7 736.3L571.7 736.3L571.7 739.2Q571.7 741.5 572.3 742.6Q573.0 743.7 574.4 743.7L574.4 743.7Q575.7 743.7 576.3 742.7Q577.0 741.7 577.0 739.4L577.0 739.4ZM581.4 744.1L581.4 744.1Q581.4 743.6 581.6 743.3Q581.9 743.0 582.5 743.0Q583.0 743.0 583.3 743.3Q583.6 743.6 583.6 744.1L583.6 744.1Q583.6 744.5 583.3 744.8Q583.0 745.1 582.5 745.1Q581.9 745.1 581.6 744.8Q581.4 744.5 581.4 744.1ZM593.2 730.8L593.5 730.8L593.5 732.3L593.2 732.3Q591.1 732.3 589.8 733.6Q588.6 734.8 588.4 737.0L588.4 737.0Q589.5 735.7 591.4 735.7L591.4 735.7Q593.3 735.7 594.4 737.0Q595.5 738.3 595.5 740.4L595.5 740.4Q595.5 742.6 594.3 743.9Q593.1 745.2 591.1 745.2L591.1 745.2Q589.1 745.2 587.8 743.6Q586.5 742.1 586.5 739.6L586.5 739.6L586.5 738.9Q586.5 735.0 588.2 732.9Q589.9 730.8 593.2 730.8L593.2 730.8ZM591.1 737.2L591.1 737.2Q590.2 737.2 589.4 737.7Q588.6 738.3 588.3 739.1L588.3 739.1L588.3 739.8Q588.3 741.6 589.1 742.6Q589.9 743.7 591.1 743.7L591.1 743.7Q592.3 743.7 593.0 742.8Q593.7 741.9 593.7 740.4L593.7 740.4Q593.7 739.0 593.0 738.1Q592.3 737.2 591.1 737.2ZM599.9 738.2L598.5 737.9L599.2 730.8L606.5 730.8L606.5 732.5L600.7 732.5L600.3 736.3Q601.3 735.7 602.7 735.7L602.7 735.7Q604.6 735.7 605.8 737.0Q606.9 738.3 606.9 740.5L606.9 740.5Q606.9 742.7 605.7 743.9Q604.5 745.2 602.4 745.2L602.4 745.2Q600.5 745.2 599.3 744.2Q598.1 743.1 598.0 741.3L598.0 741.3L599.7 741.3Q599.8 742.5 600.5 743.1Q601.2 743.7 602.4 743.7L602.4 743.7Q603.7 743.7 604.4 742.9Q605.1 742.0 605.1 740.5L605.1 740.5Q605.1 739.1 604.3 738.2Q603.5 737.3 602.3 737.3L602.3 737.3Q601.1 737.3 600.4 737.9L600.4 737.9L599.9 738.2ZM612.8 738.2L612.8 739.7L608.1 739.7L608.1 738.2L612.8 738.2ZM623.3 736.6L623.3 738.9Q623.3 742.1 622.2 743.7Q621.1 745.2 618.8 745.2L618.8 745.2Q616.6 745.2 615.5 743.7Q614.4 742.2 614.3 739.2L614.3 739.2L614.3 736.8Q614.3 733.6 615.4 732.1Q616.5 730.6 618.8 730.6L618.8 730.6Q621.1 730.6 622.2 732.1Q623.3 733.5 623.3 736.6L623.3 736.6ZM621.5 739.4L621.5 736.5Q621.5 734.2 620.9 733.1Q620.2 732.1 618.8 732.1L618.8 732.1Q617.4 732.1 616.8 733.1Q616.2 734.2 616.1 736.3L616.1 736.3L616.1 739.2Q616.1 741.5 616.8 742.6Q617.5 743.7 618.8 743.7L618.8 743.7Q620.2 743.7 620.8 742.7Q621.5 741.7 621.5 739.4L621.5 739.4ZM625.8 744.1L625.8 744.1Q625.8 743.6 626.1 743.3Q626.4 743.0 627.0 743.0Q627.5 743.0 627.8 743.3Q628.1 743.6 628.1 744.1L628.1 744.1Q628.1 744.5 627.8 744.8Q627.5 745.1 627.0 745.1Q626.4 745.1 626.1 744.8Q625.8 744.5 625.8 744.1ZM639.5 734.5L639.5 734.5Q639.5 735.6 638.9 736.4Q638.4 737.2 637.4 737.7L637.4 737.7Q638.5 738.2 639.2 739.1Q639.8 740 639.8 741.2L639.8 741.2Q639.8 743.0 638.6 744.1Q637.3 745.2 635.3 745.2L635.3 745.2Q633.3 745.2 632.0 744.1Q630.8 743.0 630.8 741.2L630.8 741.2Q630.8 740.0 631.4 739.1Q632.1 738.2 633.2 737.7L633.2 737.7Q632.2 737.2 631.7 736.4Q631.1 735.5 631.1 734.5L631.1 734.5Q631.1 732.7 632.3 731.6Q633.4 730.6 635.3 730.6L635.3 730.6Q637.2 730.6 638.3 731.6Q639.5 732.7 639.5 734.5ZM638.0 741.1L638.0 741.1Q638.0 739.9 637.3 739.2Q636.5 738.4 635.3 738.4Q634.1 738.4 633.3 739.2Q632.6 739.9 632.6 741.1Q632.6 742.3 633.3 743.0Q634.0 743.7 635.3 743.7L635.3 743.7Q636.6 743.7 637.3 743.0Q638.0 742.3 638.0 741.1ZM635.3 732.1L635.3 732.1Q634.3 732.1 633.6 732.7Q632.9 733.4 632.9 734.5L632.9 734.5Q632.9 735.6 633.6 736.3Q634.2 736.9 635.3 736.9Q636.4 736.9 637.0 736.3Q637.7 735.6 637.7 734.5Q637.7 733.4 637.0 732.8Q636.4 732.1 635.3 732.1ZM644.4 738.2L642.9 737.9L643.7 730.8L651.0 730.8L651.0 732.5L645.2 732.5L644.8 736.3Q645.8 735.7 647.1 735.7L647.1 735.7Q649.1 735.7 650.2 737.0Q651.4 738.3 651.4 740.5L651.4 740.5Q651.4 742.7 650.2 743.9Q649.0 745.2 646.9 745.2L646.9 745.2Q645.0 745.2 643.8 744.2Q642.6 743.1 642.4 741.3L642.4 741.3L644.1 741.3Q644.3 742.5 645.0 743.1Q645.7 743.7 646.9 743.7L646.9 743.7Q648.1 743.7 648.8 742.9Q649.6 742.0 649.6 740.5L649.6 740.5Q649.6 739.1 648.8 738.2Q648.0 737.3 646.7 737.3L646.7 737.3Q645.5 737.3 644.9 737.9L644.9 737.9L644.4 738.2ZM657.7 739.3L657.7 739.3Q657.7 741.5 657.1 743.5Q656.6 745.5 655.4 747.2Q654.2 748.9 652.9 749.6L652.9 749.6L652.5 748.5Q654.0 747.3 655.0 744.9Q655.9 742.5 655.9 739.5L655.9 739.5L655.9 739.2Q655.9 737.2 655.5 735.4Q655.0 733.6 654.3 732.2Q653.5 730.8 652.5 730.1L652.5 730.1L652.9 729.0Q654.2 729.7 655.4 731.3Q656.5 733.0 657.1 735.0Q657.7 737.0 657.7 739.3Z "/></g><defs><clipPath id="satori_bc-id-3"><rect x="469" y="789" width="143" height="37"/></clipPath></defs><mask id="satori_om-id-3"><rect x="469" y="790" width="143" height="36" fill="#fff"/><path width="143" height="37" fill="none" stroke="#000" stroke-width="2" d="M469,789 A0,0 0 0 1 469,789 h143 A0,0 0 0 1 612,789"/></mask><path width="143" height="37" clip-path="url(#satori_bc-id-3)" fill="none" stroke="#e9ecef" stroke-width="2" d="M469,789 A0,0 0 0 1 469,789 h143 A0,0 0 0 1 612,789"/><g  ><path fill="#6c757d" d="M473.1 818.6L473.1 818.6Q471.4 818.1 470.6 817.4Q469.9 816.7 469.9 815.6L469.9 815.6Q469.9 814.4 470.8 813.7Q471.7 812.9 473.2 812.9L473.2 812.9Q474.3 812.9 475.1 813.3Q475.9 813.7 476.3 814.4Q476.8 815.1 476.8 815.9L476.8 815.9L475.4 815.9Q475.4 815.0 474.9 814.5Q474.3 814.0 473.2 814.0L473.2 814.0Q472.3 814.0 471.7 814.4Q471.2 814.8 471.2 815.6L471.2 815.6Q471.2 816.2 471.7 816.6Q472.2 817.1 473.5 817.4Q474.7 817.8 475.4 818.2Q476.1 818.6 476.4 819.2Q476.8 819.7 476.8 820.5L476.8 820.5Q476.8 821.7 475.8 822.4Q474.9 823.1 473.3 823.1L473.3 823.1Q472.3 823.1 471.4 822.7Q470.5 822.4 470.0 821.7Q469.5 821.0 469.5 820.1L469.5 820.1L470.9 820.1Q470.9 821.0 471.5 821.5Q472.2 822.1 473.3 822.1L473.3 822.1Q474.4 822.1 474.9 821.6Q475.5 821.2 475.5 820.5Q475.5 819.8 474.9 819.4Q474.4 819.0 473.1 818.6ZM477.9 819.3L477.9 819.2Q477.9 818.1 478.4 817.3Q478.8 816.4 479.5 815.9Q480.3 815.5 481.3 815.5L481.3 815.5Q482.8 815.5 483.7 816.5Q484.7 817.6 484.7 819.3L484.7 819.3L484.7 819.4Q484.7 820.5 484.2 821.3Q483.8 822.2 483.1 822.7Q482.3 823.1 481.3 823.1L481.3 823.1Q479.8 823.1 478.9 822.1Q477.9 821.0 477.9 819.3L477.9 819.3ZM479.2 819.4L479.2 819.4Q479.2 820.6 479.8 821.4Q480.3 822.1 481.3 822.1L481.3 822.1Q482.3 822.1 482.8 821.3Q483.4 820.6 483.4 819.2L483.4 819.2Q483.4 818.0 482.8 817.3Q482.2 816.5 481.3 816.5L481.3 816.5Q480.3 816.5 479.8 817.3Q479.2 818.0 479.2 819.4ZM490.8 823L490.8 822.3Q490.1 823.1 488.6 823.1L488.6 823.1Q487.5 823.1 486.8 822.4Q486.2 821.8 486.2 820.4L486.2 820.4L486.2 815.6L487.5 815.6L487.5 820.4Q487.5 822.1 488.9 822.1L488.9 822.1Q490.3 822.1 490.8 821.0L490.8 821.0L490.8 815.6L492.0 815.6L492.0 823L490.8 823ZM497.5 815.6L497.5 816.7Q497.3 816.7 496.9 816.7L496.9 816.7Q495.7 816.7 495.2 817.8L495.2 817.8L495.2 823L494.0 823L494.0 815.6L495.2 815.6L495.2 816.5Q495.8 815.5 497.0 815.5L497.0 815.5Q497.3 815.5 497.5 815.6L497.5 815.6ZM501.5 822.1L501.5 822.1Q502.2 822.1 502.7 821.7Q503.2 821.3 503.3 820.7L503.3 820.7L504.5 820.7Q504.4 821.3 504.0 821.9Q503.6 822.5 503.0 822.8Q502.3 823.1 501.5 823.1L501.5 823.1Q500.0 823.1 499.1 822.1Q498.2 821.1 498.2 819.4L498.2 819.4L498.2 819.2Q498.2 818.1 498.6 817.2Q499.0 816.4 499.8 815.9Q500.5 815.5 501.5 815.5L501.5 815.5Q502.8 815.5 503.6 816.2Q504.4 817.0 504.5 818.1L504.5 818.1L503.3 818.1Q503.2 817.4 502.7 817.0Q502.3 816.5 501.5 816.5L501.5 816.5Q500.6 816.5 500.0 817.2Q499.5 817.9 499.5 819.2L499.5 819.2L499.5 819.4Q499.5 820.7 500.0 821.4Q500.6 822.1 501.5 822.1ZM509.0 823.1L509.0 823.1Q507.5 823.1 506.5 822.1Q505.6 821.2 505.6 819.5L505.6 819.5L505.6 819.3Q505.6 818.2 506.0 817.3Q506.4 816.4 507.2 816.0Q507.9 815.5 508.8 815.5L508.8 815.5Q510.3 815.5 511.1 816.4Q511.9 817.4 511.9 819.1L511.9 819.1L511.9 819.7L506.8 819.7Q506.9 820.8 507.5 821.4Q508.1 822.1 509.0 822.1L509.0 822.1Q509.7 822.1 510.2 821.8Q510.6 821.6 511.0 821.1L511.0 821.1L511.8 821.7Q510.8 823.1 509.0 823.1ZM508.8 816.5L508.8 816.5Q508.0 816.5 507.5 817.1Q507.0 817.6 506.9 818.6L506.9 818.6L510.6 818.6L510.6 818.5Q510.5 817.6 510.1 817.0Q509.6 816.5 508.8 816.5ZM513.3 822.3L513.3 822.3Q513.3 822.0 513.5 821.8Q513.7 821.6 514.1 821.6Q514.4 821.6 514.6 821.8Q514.8 822.0 514.8 822.3L514.8 822.3Q514.8 822.7 514.6 822.9Q514.4 823.1 514.1 823.1Q513.7 823.1 513.5 822.9Q513.3 822.7 513.3 822.3ZM513.3 816.3L513.3 816.3Q513.3 816.0 513.5 815.8Q513.7 815.5 514.1 815.5Q514.5 815.5 514.7 815.8Q514.9 816.0 514.9 816.3L514.9 816.3Q514.9 816.6 514.7 816.8Q514.5 817.0 514.1 817.0Q513.7 817.0 513.5 816.8Q513.3 816.6 513.3 816.3Z M524.2 819.1L521.8 819.1L521.8 823L520.5 823L520.5 813.0L524.2 813.0Q525.8 813.0 526.7 813.9Q527.7 814.7 527.7 816.1L527.7 816.1Q527.7 817.5 526.8 818.3Q525.8 819.1 524.2 819.1L524.2 819.1ZM521.8 814.1L521.8 818.0L524.2 818.0Q525.2 818.0 525.8 817.5Q526.3 817.0 526.3 816.1L526.3 816.1Q526.3 815.2 525.8 814.7Q525.2 814.1 524.2 814.1L524.2 814.1L521.8 814.1ZM534.8 823L533.9 820.4L529.7 820.4L528.8 823L527.4 823L531.2 813.0L532.4 813.0L536.2 823L534.8 823ZM531.8 814.7L530.1 819.3L533.5 819.3L531.8 814.7ZM543.3 823L541.2 819.0L538.8 819.0L538.8 823L537.5 823L537.5 813.0L540.8 813.0Q542.5 813.0 543.4 813.8Q544.3 814.6 544.3 816.0L544.3 816.0Q544.3 817.0 543.8 817.7Q543.3 818.4 542.4 818.7L542.4 818.7L544.7 822.9L544.7 823L543.3 823ZM538.8 814.1L538.8 817.9L540.9 817.9Q541.8 817.9 542.4 817.4Q543.0 816.9 543.0 816.0L543.0 816.0Q543.0 815.1 542.4 814.6Q541.9 814.1 540.8 814.1L540.8 814.1L538.8 814.1ZM552.6 823L551.6 820.4L547.5 820.4L546.5 823L545.2 823L549.0 813.0L550.1 813.0L553.9 823L552.6 823ZM549.6 814.7L547.9 819.3L551.3 819.3L549.6 814.7ZM558.0 823L555.3 823L555.3 813.0L558.1 813.0Q559.4 813.0 560.4 813.6Q561.4 814.2 561.9 815.3Q562.5 816.3 562.5 817.7L562.5 817.7L562.5 818.3Q562.5 819.7 561.9 820.8Q561.4 821.9 560.4 822.4Q559.4 823.0 558.0 823L558.0 823ZM558.1 814.1L556.6 814.1L556.6 821.9L558.0 821.9Q559.5 821.9 560.3 821.0Q561.2 820.0 561.2 818.3L561.2 818.3L561.2 817.7Q561.2 816.0 560.4 815.1Q559.6 814.1 558.1 814.1L558.1 814.1ZM565.9 813.0L565.9 823L564.6 823L564.6 813.0L565.9 813.0ZM575.6 818.0L575.6 821.7Q575.1 822.4 574.2 822.8Q573.3 823.1 572.1 823.1L572.1 823.1Q570.9 823.1 569.9 822.6Q569.0 822.0 568.5 820.9Q568.0 819.9 567.9 818.5L567.9 818.5L567.9 817.6Q567.9 815.4 569.0 814.1Q570.0 812.9 571.9 812.9L571.9 812.9Q573.5 812.9 574.5 813.7Q575.4 814.5 575.6 816.0L575.6 816.0L574.3 816.0Q573.9 814.0 571.9 814.0L571.9 814.0Q570.6 814.0 569.9 814.9Q569.3 815.8 569.3 817.6L569.3 817.6L569.3 818.4Q569.3 820.1 570.0 821.1Q570.8 822.1 572.1 822.1L572.1 822.1Q572.8 822.1 573.4 821.9Q573.9 821.7 574.3 821.3L574.3 821.3L574.3 819.1L572.0 819.1L572.0 818.0L575.6 818.0ZM577.8 813.0L579.5 813.0L582.8 821.2L586.0 813.0L587.7 813.0L587.7 823L586.4 823L586.4 819.1L586.5 814.9L583.2 823L582.2 823L579.0 815.0L579.1 819.1L579.1 823L577.8 823L577.8 813.0ZM592.5 818.3L592.5 819.3L589.1 819.3L589.1 818.3L592.5 818.3ZM601.5 813.0L601.5 823L600.2 823L600.2 818.4L595.2 818.4L595.2 823L593.9 823L593.9 813.0L595.2 813.0L595.2 817.3L600.2 817.3L600.2 813.0L601.5 813.0ZM609.4 817.5L609.4 818.6L605.2 818.6L605.2 823L603.9 823L603.9 813.0L610.0 813.0L610.0 814.1L605.2 814.1L605.2 817.5L609.4 817.5Z "/></g></svg>