<svg width="1080" height="1350" viewBox="0 0 1080 1350" xmlns="http://www.w3.org/2000/svg"><defs><pattern id="satori_pattern_id_3" x="0" y="0" width="1" height="1" patternUnits="objectBoundingBox"><linearGradient id="satori_biid_3" x1="0" y1="0" x2="0" y2="1" spreadMethod="pad"><stop offset="0%" stop-color="#E8F5F4"/><stop offset="60%" stop-color="#FFFFFF"/><stop offset="100%" stop-color="#E8F5F4"/></linearGradient><rect x="0" y="0" width="1080" height="1350" fill="url(#satori_biid_3)"/></pattern><pattern id="satori_pattern_id_2" x="0" y="0" width="1" height="1" patternUnits="objectBoundingBox"><radialGradient id="satori_radial_id_2" spreadMethod="pad"><stop offset="0" stop-color="rgba(39, 174, 96, 0.05)"/><stop offset="0.5" stop-color="transparent"/><stop offset="1" stop-color="transparent"/></radialGradient><mask id="satori_mask_id_2"><rect x="0" y="0" width="1080" height="1350" fill="#fff"/></mask><rect x="0" y="0" width="1080" height="1350" fill="transparent"/><ellipse cx="108" cy="1215" width="1080" height="1350" ry="1718.2694782833103" rx="1374.6155826266483" fill="url(#satori_radial_id_2)" mask="url(#satori_mask_id_2)"/></pattern><pattern id="satori_pattern_id_1" x="0" y="0" width="1" height="1" patternUnits="objectBoundingBox"><radialGradient id="satori_radial_id_1" spreadMethod="pad"><stop offset="0" stop-color="rgba(33, 131, 128, 0.06)"/><stop offset="0.5" stop-color="transparent"/><stop offset="1" stop-color="transparent"/></radialGradient><mask id="satori_mask_id_1"><rect x="0" y="0" width="1080" height="1350" fill="#fff"/></mask><rect x="0" y="0" width="1080" height="1350" fill="transparent"/><ellipse cx="1047.6" cy="283.5" width="1080" height="1350" ry="1508.2587642709059" rx="1481.5301279420542" fill="url(#satori_radial_id_1)" mask="url(#satori_mask_id_1)"/></pattern><pattern id="satori_pattern_id_0" x="0" y="0" width="1" height="1" patternUnits="objectBoundingBox"><radialGradient id="satori_radial_id_0" spreadMethod="pad"><stop offset="0" stop-color="rgba(22, 105, 122, 0.08)"/><stop offset="0.5" stop-color="transparent"/><stop offset="1" stop-color="transparent"/></radialGradient><mask id="satori_mask_id_0"><rect x="0" y="0" width="1080" height="1350" fill="#fff"/></mask><rect x="0" y="0" width="1080" height="1350" fill="transparent"/><ellipse cx="291.6" cy="499.5" width="1080" height="1350" ry="1202.7886347983174" rx="1114.9659725749482" fill="url(#satori_radial_id_0)" mask="url(#satori_mask_id_0)"/></pattern></defs><clipPath id="satori_cp-id"><rect x="0" y="0" width="1080" height="1350"/></clipPath><mask id="satori_om-id"><rect x="0" y="0" width="1080" height="1350" fill="#fff"/></mask><rect x="0" y="0" width="1080" height="1350" fill="url(#satori_pattern_id_3)"/><rect x="0" y="0" width="1080" height="1350" fill="url(#satori_pattern_id_2)"/><rect x="0" y="0" width="1080" height="1350" fill="url(#satori_pattern_id_1)"/><rect x="0" y="0" width="1080" height="1350" fill="url(#satori_pattern_id_0)"/><mask id="satori_om-id-0"><rect x="730" y="-150" width="500" height="500" fill="#fff" mask="url(#satori_om-id)"/></mask><path x="730" y="-150" width="500" height="500" fill="rgba(22, 105, 122, 0.04)" d="M980,-150 h0 a250,250 0 0 1 250,250 v0 a250,250 0 0 1 -250,250 h0 a250,250 0 0 1 -250,-250 v0 a250,250 0 0 1 250,-250" clip-path="url(#satori_cp-id)" mask="url(#satori_om-id)"/><mask id="satori_om-id-1"><rect x="-200" y="950" width="600" height="600" fill="#fff" mask="url(#satori_om-id)"/></mask><path x="-200" y="950" width="600" height="600" fill="rgba(22, 105, 122, 0.04)" d="M100,950 h0 a300,300 0 0 1 300,300 v0 a300,300 0 0 1 -300,300 h0 a300,300 0 0 1 -300,-300 v0 a300,300 0 0 1 300,-300" clip-path="url(#satori_cp-id)" mask="url(#satori_om-id)"/><mask id="satori_om-id-2"><rect x="880" y="540" width="300" height="300" fill="#fff" mask="url(#satori_om-id)"/></mask><path x="880" y="540" width="300" height="300" fill="rgba(22, 105, 122, 0.04)" d="M1030,540 h0 a150,150 0 0 1 150,150 v0 a150,150 0 0 1 -150,150 h0 a150,150 0 0 1 -150,-150 v0 a150,150 0 0 1 150,-150" clip-path="url(#satori_cp-id)" mask="url(#satori_om-id)"/><mask id="satori_om-id-3"><rect x="0" y="0" width="1080" height="1210" fill="#fff" mask="url(#satori_om-id)"/></mask><mask id="satori_om-id-3-0"><rect x="433" y="255" width="215" height="16" fill="#fff" mask="url(#satori_om-id)"/></mask><mask id="satori_om-id-3-0-0"><rect x="433" y="260" width="64" height="6" fill="#fff" mask="url(#satori_om-id)"/></mask><path x="433" y="260" width="64" height="6" fill="#16697A" d="M436,260 h58 a3,3 0 0 1 3,3 v0 a3,3 0 0 1 -3,3 h-58 a3,3 0 0 1 -3,-3 v0 a3,3 0 0 1 3,-3" clip-path="url(#satori_cp-id)" mask="url(#satori_om-id)"/><mask id="satori_om-id-3-0-1"><rect x="509" y="255" width="139" height="16" fill="#fff" mask="url(#satori_om-id)"/></mask><g mask="url(#satori_om-id)" clip-path="url(#satori_cp-id)"><path fill="#218380" d="M514.4 266.6L514.4 266.6Q516.3 266.6 517.0 264.7L517.0 264.7L518.7 265.4Q518.2 266.8 517.1 267.5Q516.0 268.1 514.4 268.1L514.4 268.1Q512.1 268.1 510.8 266.8Q509.6 265.5 509.6 263.1L509.6 263.1Q509.6 260.8 510.8 259.5Q512.0 258.2 514.3 258.2L514.3 258.2Q516.0 258.2 517.1 258.9Q518.2 259.6 518.6 260.9L518.6 260.9L516.8 261.4Q516.6 260.7 515.9 260.2Q515.3 259.8 514.4 259.8L514.4 259.8Q513.0 259.8 512.3 260.7Q511.6 261.5 511.6 263.1L511.6 263.1Q511.6 264.8 512.3 265.7Q513.1 266.6 514.4 266.6ZM524.1 266.4L529.2 266.4L529.2 268L522.0 268L522.0 258.4L524.1 258.4L524.1 266.4ZM532.6 258.4L534.6 258.4L534.6 268L532.6 268L532.6 258.4ZM540.3 262.3L540.3 262.3L540.3 268L538.5 268L538.5 258.4L540.8 258.4L545.1 265.8Q544.9 264.8 544.9 264.0L544.9 264.0L544.9 258.4L546.7 258.4L546.7 268L544.4 268L540.2 260.6Q540.3 261.7 540.3 262.3ZM550.6 258.4L552.6 258.4L552.6 268L550.6 268L550.6 258.4ZM561.0 266.6L561.0 266.6Q562.8 266.6 563.5 264.7L563.5 264.7L565.3 265.4Q564.7 266.8 563.6 267.5Q562.5 268.1 561.0 268.1L561.0 268.1Q558.7 268.1 557.4 266.8Q556.1 265.5 556.1 263.1L556.1 263.1Q556.1 260.8 557.3 259.5Q558.6 258.2 560.9 258.2L560.9 258.2Q562.6 258.2 563.7 258.9Q564.7 259.6 565.2 260.9L565.2 260.9L563.4 261.4Q563.2 260.7 562.5 260.2Q561.8 259.8 560.9 259.8L560.9 259.8Q559.6 259.8 558.9 260.7Q558.2 261.5 558.2 263.1L558.2 263.1Q558.2 264.8 558.9 265.7Q559.6 266.6 561.0 266.6ZM574.6 265.5L570.9 265.5L570.0 268L568.0 268L571.5 258.4L573.9 258.4L577.4 268L575.4 268L574.6 265.5ZM572.7 259.9L572.7 259.9Q572.6 260.1 572.5 260.5Q572.4 260.9 572.3 261.0L572.3 261.0L571.3 264.0L574.1 264.0L573.1 261.0Q573.0 260.7 572.9 260.4Q572.8 260.1 572.7 259.9ZM582.7 266.4L587.9 266.4L587.9 268L580.7 268L580.7 258.4L582.7 258.4L582.7 266.4Z M604.6 259.9L601.5 259.9L601.5 268L599.5 268L599.5 259.9L596.4 259.9L596.4 258.4L604.6 258.4L604.6 259.9ZM612.1 264.3L609.7 264.3L609.7 268L607.7 268L607.7 258.4L612.5 258.4Q614.2 258.4 615.2 259.1Q616.1 259.9 616.1 261.2L616.1 261.2Q616.1 262.3 615.5 263.0Q615.0 263.7 614.0 264.0L614.0 264.0L616.6 268L614.3 268L612.1 264.3ZM614.1 261.3L614.1 261.3Q614.1 259.9 612.3 259.9L612.3 259.9L609.7 259.9L609.7 262.8L612.4 262.8Q613.2 262.8 613.6 262.4Q614.1 262.0 614.1 261.3ZM619.8 258.4L621.8 258.4L621.8 268L619.8 268L619.8 258.4ZM631.7 265.5L628.0 265.5L627.1 268L625.1 268L628.6 258.4L631.0 258.4L634.5 268L632.5 268L631.7 265.5ZM629.8 259.9L629.8 259.9Q629.7 260.1 629.6 260.5Q629.5 260.9 629.4 261.0L629.4 261.0L628.4 264.0L631.2 264.0L630.2 261.0Q630.1 260.7 630.0 260.4Q629.9 260.1 629.8 259.9ZM639.8 266.4L645.0 266.4L645.0 268L637.8 268L637.8 258.4L639.8 258.4L639.8 266.4Z "/></g><mask id="satori_om-id-3-1"><rect x="480" y="319" width="120" height="120" fill="#fff" mask="url(#satori_om-id)"/></mask><path x="480" y="319" width="120" height="120" fill="rgba(22, 105, 122, 0.1)" d="M510,319 h60 a30,30 0 0 1 30,30 v60 a30,30 0 0 1 -30,30 h-60 a30,30 0 0 1 -30,-30 v-60 a30,30 0 0 1 30,-30" clip-path="url(#satori_cp-id)" mask="url(#satori_om-id)"/><mask id="satori_om-id-3-1-0"><rect x="526" y="347" width="29" height="64" fill="#fff" mask="url(#satori_om-id)"/></mask><g mask="url(#satori_om-id)" clip-path="url(#satori_cp-id)"><path fill="black" d="M551.3 355.5L551.3 401L529.1 401L529.1 355.5L551.3 355.5ZM541 378.3L549.6 398.4L549.6 358.2L541 378.3ZM539.2 378.3L530.8 358.5L530.8 398L539.2 378.3ZM540.1 380.4L532.1 399.3L548.2 399.3L540.1 380.4ZM532.1 357.2L540.1 376.1L548.2 357.2L532.1 357.2Z "/></g><defs><pattern id="satori_pattern_id-3-2_0" x="0" y="0" width="1" height="1" patternUnits="objectBoundingBox"><linearGradient id="satori_biid-3-2_0" x1="-0.094374599069589" y1="0.16996166221328793" x2="1.094374599069589" y2="0.8300383377867121" spreadMethod="pad"><stop offset="0%" stop-color="#16697A"/><stop offset="100%" stop-color="#1E8A9F"/></linearGradient><rect x="0" y="0" width="389" height="216" fill="url(#satori_biid-3-2_0)"/></pattern></defs><mask id="satori_ms-id-3-2-0" maskUnits="userSpaceOnUse"><rect x="0" y="0" width="1080" height="1350" fill="#fff"/><path x="346" y="487" width="389" height="216" fill="#000"  stroke-width="0" d="M378,487 h325 a32,32 0 0 1 32,32 v152 a32,32 0 0 1 -32,32 h-325 a32,32 0 0 1 -32,-32 v-152 a32,32 0 0 1 32,-32" clip-path="url(#satori_cp-id)" mask="url(#satori_om-id)"/></mask><defs><filter id="satori_s-id-3-2-0" x="-263.2390745501285%" y="-474.074074074074%" width="626.478149100257%" height="1048.148148148148%"><feGaussianBlur stdDeviation="32" result="b"/><feFlood flood-color="rgba(22, 105, 122, 0.18)" in="SourceGraphic" result="f"/><feComposite in="f" in2="b" operator="in"/></filter></defs><g mask="url(#satori_ms-id-3-2-0)" filter="url(#satori_s-id-3-2-0)" opacity="1"><path x="346" y="511" width="389" height="216" fill="#fff" stroke="#fff" stroke-width="0" d="M378,511 h325 a32,32 0 0 1 32,32 v152 a32,32 0 0 1 -32,32 h-325 a32,32 0 0 1 -32,-32 v-152 a32,32 0 0 1 32,-32" clip-path="url(#satori_cp-id)" mask="url(#satori_om-id)"/></g><mask id="satori_om-id-3-2"><rect x="346" y="487" width="389" height="216" fill="#fff" mask="url(#satori_om-id)"/></mask><path x="346" y="487" width="389" height="216" fill="url(#satori_pattern_id-3-2_0)" d="M378,487 h325 a32,32 0 0 1 32,32 v152 a32,32 0 0 1 -32,32 h-325 a32,32 0 0 1 -32,-32 v-152 a32,32 0 0 1 32,-32" clip-path="url(#satori_cp-id)" mask="url(#satori_om-id)"/><mask id="satori_om-id-3-2-0"><rect x="426" y="535" width="229" height="120" fill="#fff" mask="url(#satori_om-id)"/></mask><g mask="url(#satori_om-id)" clip-path="url(#satori_cp-id)"><path fill="#FFFFFF" d="M449.6 623.5L487.9 623.5L487.9 637L430.2 637L430.2 625.6Q433.4 618.5 439.3 611.7Q445.3 605.0 454.3 597.7L454.3 597.7Q463.0 590.7 466.4 586.1L466.4 586.1Q469.9 581.5 469.9 577.1L469.9 577.1Q469.9 566.3 459.1 566.3L459.1 566.3Q453.8 566.3 451.0 569.2Q448.3 572.0 447.4 577.7L447.4 577.7L430.9 576.8Q432.3 565.3 439.4 559.2Q446.6 553.2 459.0 553.2L459.0 553.2Q472.3 553.2 479.5 559.3Q486.6 565.4 486.6 576.4L486.6 576.4Q486.6 582.6 484.1 587.5Q481.5 592.5 477.5 596.6L477.5 596.6Q474.2 600.2 470.1 603.4Q466.0 606.6 462.1 609.7L462.1 609.7Q458.0 613.0 454.6 616.3Q451.3 619.7 449.6 623.5L449.6 623.5ZM551.1 610.0L551.1 610.0Q551.1 623.2 543.8 630.7Q536.4 638.2 523.4 638.2L523.4 638.2Q508.8 638.2 501.0 627.9Q493.1 617.7 493.1 597.6L493.1 597.6Q493.1 575.5 501.1 564.4Q509.0 553.2 523.8 553.2L523.8 553.2Q534.3 553.2 540.3 557.8Q546.4 562.5 548.9 572.2L548.9 572.2L533.4 574.4Q531.2 566.2 523.4 566.2L523.4 566.2Q516.8 566.2 513.0 572.8Q509.2 579.5 509.2 592.9L509.2 592.9Q511.9 588.5 516.6 586.2Q521.3 583.9 527.2 583.9L527.2 583.9Q538.3 583.9 544.7 590.9Q551.1 597.9 551.1 610.0ZM534.6 610.5L534.6 610.5Q534.6 603.4 531.4 599.7Q528.1 596.0 522.4 596.0L522.4 596.0Q517.0 596.0 513.7 599.5Q510.4 603.0 510.4 608.7L510.4 608.7Q510.4 615.9 513.8 620.6Q517.3 625.3 522.8 625.3L522.8 625.3Q528.4 625.3 531.5 621.4Q534.6 617.4 534.6 610.5ZM575.4 553.5L575.4 553.5Q596.0 553.5 596.0 579.8L596.0 579.8Q596.0 592.5 590.7 599.3Q585.4 606.1 575.1 606.1L575.1 606.1Q564.9 606.1 559.7 599.4Q554.5 592.6 554.5 579.8L554.5 579.8Q554.5 566.5 559.5 560.0Q564.5 553.5 575.4 553.5ZM625.7 554.4L637.9 554.4L583.8 637L571.8 637L625.7 554.4ZM583.3 579.8L583.3 579.8Q583.3 570.5 581.5 566.5Q579.7 562.6 575.4 562.6L575.4 562.6Q570.7 562.6 568.9 566.5Q567.1 570.5 567.1 579.8L567.1 579.8Q567.1 589.0 569.0 592.9Q570.9 596.9 575.3 596.9L575.3 596.9Q579.6 596.9 581.4 592.9Q583.3 589.0 583.3 579.8ZM655.0 611.7L655.0 611.7Q655.0 624.5 649.7 631.2Q644.5 637.9 634.3 637.9L634.3 637.9Q624.0 637.9 618.7 631.3Q613.5 624.6 613.5 611.7L613.5 611.7Q613.5 598.6 618.6 592.0Q623.6 585.4 634.5 585.4L634.5 585.4Q645.1 585.4 650.0 592.0Q655.0 598.7 655.0 611.7ZM642.4 611.7L642.4 611.7Q642.4 602.3 640.6 598.4Q638.8 594.4 634.5 594.4L634.5 594.4Q629.8 594.4 628.0 598.5Q626.2 602.5 626.2 611.7L626.2 611.7Q626.2 621.1 628.1 624.9Q630.1 628.7 634.4 628.7L634.4 628.7Q638.7 628.7 640.5 624.8Q642.4 620.8 642.4 611.7Z "/></g><mask id="satori_om-id-3-3"><rect x="335" y="743" width="411" height="53" fill="#fff" mask="url(#satori_om-id)"/></mask><g mask="url(#satori_om-id)" clip-path="url(#satori_cp-id)"><path fill="#2F3E46" d="M343.6 766.7L343.6 766.7L343.6 785L337.9 785L337.9 754.7L346.4 754.7L351.8 771.7Q352.2 773.1 352.6 774.5Q353.0 775.9 353.3 777.4L353.3 777.4Q353.7 776.1 354.0 774.9Q354.3 773.7 354.7 772.5L354.7 772.5L360.3 754.7L368.7 754.7L368.7 785L363.1 785L363.1 766.7Q363.1 766.0 363.1 764.1Q363.2 762.3 363.3 760.1L363.3 760.1Q361.8 765.8 361.0 768.1L361.0 768.1L355.6 785L351.1 785L345.6 768.1L343.3 760.1Q343.6 765.0 343.6 766.7ZM396.8 773.4L396.8 773.4Q396.8 779.0 393.7 782.2Q390.5 785.4 385.0 785.4L385.0 785.4Q379.6 785.4 376.5 782.2Q373.4 779.0 373.4 773.4L373.4 773.4Q373.4 767.7 376.5 764.5Q379.6 761.3 385.1 761.3L385.1 761.3Q390.8 761.3 393.8 764.4Q396.8 767.5 396.8 773.4ZM390.5 773.4L390.5 773.4Q390.5 769.2 389.1 767.3Q387.8 765.5 385.2 765.5L385.2 765.5Q379.7 765.5 379.7 773.4L379.7 773.4Q379.7 777.2 381.1 779.3Q382.4 781.3 384.9 781.3L384.9 781.3Q390.5 781.3 390.5 773.4ZM407.6 773.6L407.6 773.6L407.6 785L401.6 785L401.6 767.2Q401.6 765.3 401.5 764.0Q401.5 762.7 401.4 761.8L401.4 761.8L407.2 761.8Q407.2 761.9 407.3 762.6Q407.3 763.3 407.4 764.1Q407.4 764.9 407.4 765.7Q407.5 766.4 407.5 766.7L407.5 766.7L407.6 766.7Q408.4 764.3 409.1 763.3L409.1 763.3Q409.8 762.2 410.8 761.8Q411.7 761.3 413.1 761.3L413.1 761.3Q414.3 761.3 415.0 761.6L415.0 761.6L415.0 766.7Q413.5 766.4 412.4 766.4L412.4 766.4Q410.2 766.4 408.9 768.2Q407.6 770.0 407.6 773.6ZM429.8 780.9L429.8 784.7Q427.6 785.4 424.7 785.4L424.7 785.4Q422.0 785.4 420.6 783.9Q419.1 782.5 419.1 779.5L419.1 779.5L419.1 765.8L416.2 765.8L416.2 761.8L419.4 761.8L421.3 756.3L425.1 756.3L425.1 761.8L429.5 761.8L429.5 765.8L425.1 765.8L425.1 777.9Q425.1 781.2 427.7 781.2L427.7 781.2Q428.4 781.2 429.8 780.9L429.8 780.9ZM438.7 785.4L438.7 785.4Q435.4 785.4 433.5 783.6Q431.6 781.8 431.6 778.4L431.6 778.4Q431.6 774.8 433.9 772.9Q436.3 771.1 440.8 771.0L440.8 771.0L445.8 770.9L445.8 769.7Q445.8 767.4 445.0 766.3Q444.2 765.2 442.4 765.2L442.4 765.2Q440.7 765.2 439.9 766.0Q439.1 766.8 438.9 768.5L438.9 768.5L432.6 768.2Q433.8 761.3 442.6 761.3L442.6 761.3Q447.0 761.3 449.4 763.5Q451.8 765.7 451.8 769.7L451.8 769.7L451.8 778.1Q451.8 780.1 452.3 780.8Q452.7 781.6 453.7 781.6L453.7 781.6Q454.4 781.6 455.1 781.4L455.1 781.4L455.1 784.7Q453.9 785.0 453.1 785.1Q452.3 785.3 451.2 785.3L451.2 785.3Q448.9 785.3 447.8 784.1Q446.7 783.0 446.5 780.9L446.5 780.9L446.4 780.9Q443.9 785.4 438.7 785.4ZM445.8 775.4L445.8 774.2L442.7 774.3Q440.6 774.4 439.7 774.7L439.7 774.7Q438.8 775.1 438.4 775.9Q437.9 776.7 437.9 778.0L437.9 778.0Q437.9 779.6 438.7 780.4Q439.4 781.2 440.7 781.2L440.7 781.2Q442.1 781.2 443.3 780.4L443.3 780.4Q444.4 779.7 445.1 778.3Q445.8 776.9 445.8 775.4L445.8 775.4ZM457.8 753.1L463.9 753.1L463.9 785L457.8 785L457.8 753.1ZM470.1 753.1L476.1 753.1L476.1 757.6L470.1 757.6L470.1 753.1ZM470.1 761.8L476.1 761.8L476.1 785L470.1 785L470.1 761.8ZM493.3 780.9L493.3 784.7Q491.1 785.4 488.2 785.4L488.2 785.4Q485.6 785.4 484.1 783.9Q482.7 782.5 482.7 779.5L482.7 779.5L482.7 765.8L479.8 765.8L479.8 761.8L483.0 761.8L484.9 756.3L488.7 756.3L488.7 761.8L493.1 761.8L493.1 765.8L488.7 765.8L488.7 777.9Q488.7 781.2 491.3 781.2L491.3 781.2Q492.0 781.2 493.3 780.9L493.3 780.9ZM500.0 794.1L500.0 794.1Q497.7 794.1 496.2 793.9L496.2 793.9L496.2 789.6Q497.4 789.7 498.2 789.7L498.2 789.7Q500.3 789.7 501.4 788.6Q502.4 787.4 503.4 784.8L503.4 784.8L494.2 761.8L500.6 761.8L504.3 772.6Q504.7 773.8 505.2 775.6Q505.8 777.4 506.4 779.8L506.4 779.8Q506.9 777.8 507.4 776.2Q507.8 774.5 508.4 772.7L508.4 772.7L511.8 761.8L518.1 761.8L508.9 786.2Q508.4 787.7 507.7 788.8Q507.1 790.0 506.5 790.9L506.5 790.9Q505.2 792.6 503.6 793.4Q502.1 794.1 500.0 794.1Z M547.3 773.5L539.9 773.5L539.9 785L533.5 785L533.5 754.7L548.6 754.7Q554.1 754.7 557.0 757.1Q559.9 759.4 559.9 763.8L559.9 763.8Q559.9 766.9 558.1 769.2Q556.3 771.6 553.3 772.3L553.3 772.3L561.4 785L554.3 785L547.3 773.5ZM553.6 764.0L553.6 764.0Q553.6 759.6 548.0 759.6L548.0 759.6L539.9 759.6L539.9 768.6L548.1 768.6Q550.8 768.6 552.2 767.4Q553.6 766.2 553.6 764.0ZM585.3 774.5L570.4 774.5Q570.4 777.9 571.7 779.7Q572.9 781.4 575.2 781.4L575.2 781.4Q578.4 781.4 579.3 778.6L579.3 778.6L585.0 779.1Q582.5 785.4 574.9 785.4L574.9 785.4Q569.7 785.4 566.9 782.3Q564.1 779.2 564.1 773.3L564.1 773.3Q564.1 767.5 566.9 764.4Q569.8 761.3 575.0 761.3L575.0 761.3Q580.0 761.3 582.7 764.6Q585.3 768.0 585.3 774.4L585.3 774.4L585.3 774.5ZM570.4 770.8L579.5 770.8Q579.3 767.9 578.1 766.5Q576.9 765.1 574.9 765.1L574.9 765.1Q572.8 765.1 571.7 766.6Q570.5 768.1 570.4 770.8L570.4 770.8ZM610.8 785L605.0 785Q604.9 784.8 604.8 784.1Q604.7 783.4 604.7 782.6Q604.6 781.8 604.6 781.2L604.6 781.2L604.5 781.2Q602.6 785.4 597.1 785.4L597.1 785.4Q593.0 785.4 590.8 782.3Q588.6 779.1 588.6 773.4L588.6 773.4Q588.6 767.6 591.0 764.5Q593.3 761.3 597.6 761.3L597.6 761.3Q600.0 761.3 601.8 762.4Q603.6 763.4 604.6 765.4L604.6 765.4L604.6 765.4L604.6 761.6L604.6 753.1L610.6 753.1L610.6 779.9Q610.6 781.0 610.7 782.3Q610.7 783.5 610.8 785L610.8 785ZM594.9 773.4L594.9 773.4Q594.9 781.3 599.7 781.3L599.7 781.3Q602.1 781.3 603.4 779.2Q604.7 777.1 604.7 773.2L604.7 773.2Q604.7 769.5 603.4 767.5Q602.2 765.4 599.7 765.4L599.7 765.4Q594.9 765.4 594.9 773.4ZM631.7 780.4L631.5 780.4Q630.3 783.0 628.5 784.2Q626.6 785.4 624.1 785.4L624.1 785.4Q620.4 785.4 618.4 783.2Q616.4 780.9 616.4 776.5L616.4 776.5L616.4 761.8L622.5 761.8L622.5 774.8Q622.5 780.9 626.6 780.9L626.6 780.9Q628.8 780.9 630.1 779.0Q631.5 777.2 631.5 774.2L631.5 774.2L631.5 761.8L637.5 761.8L637.5 779.8Q637.5 781.3 637.5 782.6Q637.6 783.9 637.7 785L637.7 785L631.9 785Q631.7 781.9 631.7 780.4L631.7 780.4ZM653.3 785.4L653.3 785.4Q648.0 785.4 645.2 782.3Q642.3 779.1 642.3 773.5L642.3 773.5Q642.3 767.7 645.2 764.5Q648.1 761.3 653.4 761.3L653.4 761.3Q657.5 761.3 660.2 763.4Q662.9 765.4 663.6 769.1L663.6 769.1L657.5 769.4Q657.2 767.6 656.2 766.5Q655.2 765.5 653.3 765.5L653.3 765.5Q648.6 765.5 648.6 773.3L648.6 773.3Q648.6 781.3 653.4 781.3L653.4 781.3Q655.1 781.3 656.3 780.2Q657.4 779.1 657.7 777.0L657.7 777.0L663.8 777.3Q663.4 779.7 662.0 781.6Q660.6 783.4 658.4 784.4Q656.1 785.4 653.3 785.4ZM679.2 780.9L679.2 784.7Q677.0 785.4 674.1 785.4L674.1 785.4Q671.4 785.4 670.0 783.9Q668.5 782.5 668.5 779.5L668.5 779.5L668.5 765.8L665.6 765.8L665.6 761.8L668.8 761.8L670.7 756.3L674.5 756.3L674.5 761.8L678.9 761.8L678.9 765.8L674.5 765.8L674.5 777.9Q674.5 781.2 677.1 781.2L677.1 781.2Q677.8 781.2 679.2 780.9L679.2 780.9ZM682.8 753.1L688.8 753.1L688.8 757.6L682.8 757.6L682.8 753.1ZM682.8 761.8L688.8 761.8L688.8 785L682.8 785L682.8 761.8ZM717.1 773.4L717.1 773.4Q717.1 779.0 713.9 782.2Q710.8 785.4 705.3 785.4L705.3 785.4Q699.8 785.4 696.7 782.2Q693.6 779.0 693.6 773.4L693.6 773.4Q693.6 767.7 696.7 764.5Q699.8 761.3 705.4 761.3L705.4 761.3Q711.1 761.3 714.1 764.4Q717.1 767.5 717.1 773.4ZM710.8 773.4L710.8 773.4Q710.8 769.2 709.4 767.3Q708.1 765.5 705.5 765.5L705.5 765.5Q700.0 765.5 700.0 773.4L700.0 773.4Q700.0 777.2 701.3 779.3Q702.7 781.3 705.2 781.3L705.2 781.3Q710.8 781.3 710.8 773.4ZM727.9 772.5L727.9 772.5L727.9 785L721.9 785L721.9 767.0Q721.9 765.1 721.8 763.9Q721.8 762.7 721.7 761.8L721.7 761.8L727.5 761.8Q727.5 762.0 727.6 763.0Q727.6 763.9 727.7 764.9Q727.7 765.9 727.7 766.4L727.7 766.4L727.8 766.4Q729.0 763.7 730.9 762.5Q732.7 761.3 735.3 761.3L735.3 761.3Q739.0 761.3 741.0 763.6Q742.9 765.9 742.9 770.2L742.9 770.2L742.9 785L736.9 785L736.9 772.0Q736.9 765.8 732.8 765.8L732.8 765.8Q730.6 765.8 729.2 767.7Q727.9 769.6 727.9 772.5Z "/></g><mask id="satori_om-id-3-4"><rect x="356" y="832" width="369" height="57" fill="#fff" mask="url(#satori_om-id)"/></mask><path x="356" y="832" width="369" height="57" fill="rgba(22, 105, 122, 0.08)" d="M370,832 h341 a14,14 0 0 1 14,14 v29 a14,14 0 0 1 -14,14 h-341 a14,14 0 0 1 -14,-14 v-29 a14,14 0 0 1 14,-14" clip-path="url(#satori_cp-id)" mask="url(#satori_om-id)"/><g mask="url(#satori_om-id)" clip-path="url(#satori_cp-id)"><path fill="#218380" d="M398.2 861.7L388.6 861.7L388.6 870L386.1 870L386.1 852.1L388.6 852.1L388.6 859.7L398.2 859.7L398.2 852.1L400.7 852.1L400.7 870L398.2 870L398.2 861.7ZM412.9 862.6L407.3 862.6L407.3 870L404.9 870L404.9 852.1L413.3 852.1Q416.3 852.1 418.0 853.5Q419.6 854.8 419.6 857.2L419.6 857.2Q419.6 859.2 418.5 860.6Q417.3 861.9 415.3 862.3L415.3 862.3L420.3 870L417.6 870L412.9 862.6ZM417.2 857.3L417.2 857.3Q417.2 855.7 416.1 854.9Q415.1 854.1 413.1 854.1L413.1 854.1L407.3 854.1L407.3 860.7L413.2 860.7Q415.1 860.7 416.2 859.8Q417.2 858.9 417.2 857.3Z M442.2 861.0L442.2 861.0Q442.2 865.5 440.6 867.9Q439.1 870.3 436.0 870.3L436.0 870.3Q432.9 870.3 431.3 867.9Q429.8 865.6 429.8 861.0L429.8 861.0Q429.8 856.4 431.3 854.1Q432.8 851.8 436.1 851.8L436.1 851.8Q439.2 851.8 440.7 854.2Q442.2 856.5 442.2 861.0ZM439.9 861.0L439.9 861.0Q439.9 857.2 439.0 855.4Q438.1 853.7 436.1 853.7L436.1 853.7Q433.9 853.7 433.0 855.4Q432.1 857.1 432.1 861.0L432.1 861.0Q432.1 864.9 433.0 866.6Q434.0 868.4 436 868.4L436 868.4Q438.0 868.4 439.0 866.6Q439.9 864.8 439.9 861.0ZM445.6 867.2L448.1 867.2L448.1 870L445.6 870L445.6 867.2ZM463.6 852.1L463.6 854.0Q462.2 856.1 461.3 857.7Q460.3 859.3 459.7 860.5L459.7 860.5Q458.6 862.9 458.0 865.2Q457.5 867.5 457.5 870L457.5 870L455.1 870Q455.1 868.2 455.5 866.4Q455.8 864.6 456.6 862.5L456.6 862.5Q458.2 858.8 461.4 854.1L461.4 854.1L451.8 854.1L451.8 852.1L463.6 852.1ZM478.6 866.0L476.1 866.0L476.1 870L473.9 870L473.9 866.0L465.5 866.0L465.5 864.2L473.7 852.1L476.1 852.1L476.1 864.1L478.6 864.1L478.6 866.0ZM473.1 856.2L467.6 864.1L473.9 864.1L473.9 857.0Q473.9 856.4 474.0 855.9Q474.0 855.3 474.0 854.7L474.0 854.7Q473.7 855.2 473.5 855.6Q473.3 855.9 473.1 856.2L473.1 856.2ZM484.3 867.2L484.3 869.4Q484.3 870.7 484.0 871.6Q483.8 872.5 483.3 873.3L483.3 873.3L481.7 873.3Q482.9 871.6 482.9 870L482.9 870L481.8 870L481.8 867.2L484.3 867.2Z M507.1 860.7L507.1 860.7Q507.1 865.3 505.4 867.8Q503.7 870.3 500.6 870.3L500.6 870.3Q498.5 870.3 497.2 869.4Q496.0 868.5 495.4 866.5L495.4 866.5L497.6 866.2Q498.3 868.4 500.6 868.4L500.6 868.4Q502.6 868.4 503.7 866.6Q504.7 864.8 504.8 861.4L504.8 861.4Q504.3 862.5 503.1 863.2Q501.8 863.9 500.4 863.9L500.4 863.9Q498.8 863.9 497.6 863.1Q496.4 862.4 495.7 861.0Q495.0 859.7 495.0 857.9L495.0 857.9Q495.0 855.1 496.6 853.5Q498.2 851.8 501 851.8L501 851.8Q504.0 851.8 505.5 854.1Q507.1 856.3 507.1 860.7ZM504.6 858.5L504.6 858.5Q504.6 856.3 503.6 855.0Q502.6 853.7 500.9 853.7L500.9 853.7Q499.3 853.7 498.3 854.8Q497.4 855.9 497.4 857.9L497.4 857.9Q497.4 859.8 498.3 861.0Q499.3 862.1 500.9 862.1L500.9 862.1Q501.9 862.1 502.7 861.6Q503.6 861.2 504.1 860.4Q504.6 859.5 504.6 858.5ZM521.7 864.2L521.7 864.2Q521.7 867.0 520.0 868.6Q518.3 870.3 515.3 870.3L515.3 870.3Q512.8 870.3 511.3 869.2Q509.7 868.1 509.3 866.0L509.3 866.0L511.6 865.7Q512.4 868.4 515.4 868.4L515.4 868.4Q517.2 868.4 518.2 867.3Q519.3 866.2 519.3 864.2L519.3 864.2Q519.3 862.5 518.2 861.5Q517.2 860.5 515.4 860.5L515.4 860.5Q514.5 860.5 513.7 860.7Q512.9 861.0 512.1 861.7L512.1 861.7L509.8 861.7L510.4 852.1L520.6 852.1L520.6 854.1L512.5 854.1L512.2 859.7Q513.7 858.6 515.9 858.6L515.9 858.6Q517.6 858.6 518.9 859.3Q520.2 860.0 520.9 861.3Q521.7 862.5 521.7 864.2ZM527.7 852.0L527.7 852.0Q531.7 852.0 531.7 857.6L531.7 857.6Q531.7 860.4 530.7 861.9Q529.7 863.3 527.7 863.3L527.7 863.3Q525.7 863.3 524.7 861.9Q523.7 860.4 523.7 857.6L523.7 857.6Q523.7 854.8 524.7 853.4Q525.6 852.0 527.7 852.0ZM539.2 852.1L541.2 852.1L529.4 870L527.5 870L539.2 852.1ZM529.9 857.6L529.9 857.6Q529.9 855.4 529.4 854.4Q528.9 853.3 527.7 853.3L527.7 853.3Q526.6 853.3 526.0 854.3Q525.5 855.3 525.5 857.6L525.5 857.6Q525.5 859.8 526.0 860.9Q526.6 861.9 527.7 861.9L527.7 861.9Q529.9 861.9 529.9 857.6ZM544.9 864.5L544.9 864.5Q544.9 867.2 543.9 868.7Q542.9 870.2 540.9 870.2L540.9 870.2Q536.9 870.2 536.9 864.5L536.9 864.5Q536.9 861.6 537.8 860.2Q538.8 858.8 540.9 858.8L540.9 858.8Q543.0 858.8 544.0 860.2Q544.9 861.7 544.9 864.5ZM543.1 864.5L543.1 864.5Q543.1 862.2 542.6 861.2Q542.1 860.2 540.9 860.2L540.9 860.2Q539.8 860.2 539.3 861.2Q538.7 862.2 538.7 864.5L538.7 864.5Q538.7 866.7 539.2 867.7Q539.7 868.8 540.9 868.8L540.9 868.8Q543.1 868.8 543.1 864.5Z M563.2 868.3L563.2 868.3Q567.0 868.3 568.9 864.5L568.9 864.5L570.9 865.5Q569.8 867.8 567.8 869.0Q565.8 870.3 563.1 870.3L563.1 870.3Q560.4 870.3 558.5 869.1Q556.5 868.0 555.5 865.9Q554.4 863.8 554.4 861.0L554.4 861.0Q554.4 858.1 555.5 856.1Q556.5 854.0 558.4 852.9Q560.4 851.8 563.1 851.8L563.1 851.8Q568.9 851.8 570.7 856.3L570.7 856.3L568.4 857.0Q567.8 855.5 566.4 854.7Q565.0 853.8 563.1 853.8L563.1 853.8Q560.2 853.8 558.5 855.7Q556.9 857.6 556.9 861.0L556.9 861.0Q556.9 863.2 557.7 864.8Q558.4 866.4 559.9 867.4Q561.3 868.3 563.2 868.3ZM574.3 852.1L576.7 852.1L576.7 870L574.3 870L574.3 852.1Z M599.8 861.0L599.8 861.0Q599.8 865.5 598.2 867.9Q596.6 870.3 593.5 870.3L593.5 870.3Q590.4 870.3 588.9 867.9Q587.3 865.6 587.3 861.0L587.3 861.0Q587.3 856.4 588.8 854.1Q590.3 851.8 593.6 851.8L593.6 851.8Q596.7 851.8 598.3 854.2Q599.8 856.5 599.8 861.0ZM597.4 861.0L597.4 861.0Q597.4 857.2 596.5 855.4Q595.6 853.7 593.6 853.7L593.6 853.7Q591.5 853.7 590.6 855.4Q589.6 857.1 589.6 861.0L589.6 861.0Q589.6 864.9 590.6 866.6Q591.5 868.4 593.5 868.4L593.5 868.4Q595.6 868.4 596.5 866.6Q597.4 864.8 597.4 861.0ZM603.1 867.2L605.6 867.2L605.6 870L603.1 870L603.1 867.2ZM621.3 864.1L621.3 864.1Q621.3 867.0 619.8 868.6Q618.2 870.3 615.5 870.3L615.5 870.3Q612.5 870.3 610.9 868.0Q609.3 865.8 609.3 861.5L609.3 861.5Q609.3 856.8 611.0 854.3Q612.6 851.8 615.7 851.8L615.7 851.8Q619.8 851.8 620.8 855.5L620.8 855.5L618.6 855.9Q618.0 853.7 615.7 853.7L615.7 853.7Q613.7 853.7 612.7 855.5Q611.6 857.3 611.6 860.8L611.6 860.8Q612.2 859.6 613.3 859.0Q614.5 858.4 615.9 858.4L615.9 858.4Q618.4 858.4 619.9 860.0Q621.3 861.5 621.3 864.1ZM619.0 864.2L619.0 864.2Q619.0 862.3 618.0 861.3Q617.1 860.2 615.4 860.2L615.4 860.2Q613.8 860.2 612.8 861.1Q611.8 862.1 611.8 863.7L611.8 863.7Q611.8 865.1 612.3 866.1Q612.8 867.2 613.6 867.8Q614.4 868.4 615.5 868.4L615.5 868.4Q617.1 868.4 618.1 867.3Q619.0 866.2 619.0 864.2ZM635.8 864.2L635.8 864.2Q635.8 867.0 634.1 868.6Q632.5 870.3 629.5 870.3L629.5 870.3Q627.0 870.3 625.4 869.2Q623.9 868.1 623.5 866.0L623.5 866.0L625.8 865.7Q626.5 868.4 629.5 868.4L629.5 868.4Q631.4 868.4 632.4 867.3Q633.5 866.2 633.5 864.2L633.5 864.2Q633.5 862.5 632.4 861.5Q631.4 860.5 629.6 860.5L629.6 860.5Q628.7 860.5 627.9 860.7Q627.1 861.0 626.3 861.7L626.3 861.7L624.0 861.7L624.6 852.1L634.8 852.1L634.8 854.1L626.7 854.1L626.4 859.7Q627.8 858.6 630.0 858.6L630.0 858.6Q631.8 858.6 633.1 859.3Q634.4 860.0 635.1 861.3Q635.8 862.5 635.8 864.2ZM638.1 862.1L644.4 862.1L644.4 864.1L638.1 864.1L638.1 862.1ZM659.0 861.0L659.0 861.0Q659.0 865.5 657.4 867.9Q655.9 870.3 652.8 870.3L652.8 870.3Q649.7 870.3 648.1 867.9Q646.6 865.6 646.6 861.0L646.6 861.0Q646.6 856.4 648.1 854.1Q649.6 851.8 652.8 851.8L652.8 851.8Q656.0 851.8 657.5 854.2Q659.0 856.5 659.0 861.0ZM656.7 861.0L656.7 861.0Q656.7 857.2 655.8 855.4Q654.9 853.7 652.8 853.7L652.8 853.7Q650.7 853.7 649.8 855.4Q648.9 857.1 648.9 861.0L648.9 861.0Q648.9 864.9 649.8 866.6Q650.8 868.4 652.8 868.4L652.8 868.4Q654.8 868.4 655.8 866.6Q656.7 864.8 656.7 861.0ZM662.4 867.2L664.9 867.2L664.9 870L662.4 870L662.4 867.2ZM680.6 865.0L680.6 865.0Q680.6 867.5 679.0 868.9Q677.4 870.3 674.5 870.3L674.5 870.3Q671.6 870.3 670.0 868.9Q668.4 867.5 668.4 865.0L668.4 865.0Q668.4 863.3 669.4 862.1Q670.4 860.9 672.0 860.6L672.0 860.6L672.0 860.6Q670.5 860.3 669.7 859.1Q668.8 858.0 668.8 856.4L668.8 856.4Q668.8 854.4 670.3 853.1Q671.9 851.8 674.4 851.8L674.4 851.8Q677.1 851.8 678.6 853.1Q680.1 854.3 680.1 856.5L680.1 856.5Q680.1 858.0 679.3 859.1Q678.4 860.3 677.0 860.6L677.0 860.6L677.0 860.6Q678.7 860.9 679.6 862.1Q680.6 863.2 680.6 865.0ZM677.8 856.6L677.8 856.6Q677.8 853.5 674.4 853.5L674.4 853.5Q671.1 853.5 671.1 856.6L671.1 856.6Q671.1 858.1 672.0 858.9Q672.9 859.7 674.5 859.7L674.5 859.7Q676.1 859.7 676.9 859.0Q677.8 858.2 677.8 856.6ZM678.2 864.8L678.2 864.8Q678.2 863.1 677.2 862.3Q676.2 861.4 674.4 861.4L674.4 861.4Q672.7 861.4 671.7 862.4Q670.7 863.3 670.7 864.8L670.7 864.8Q670.7 868.5 674.5 868.5L674.5 868.5Q676.4 868.5 677.3 867.6Q678.2 866.8 678.2 864.8ZM695.1 864.2L695.1 864.2Q695.1 867.0 693.4 868.6Q691.7 870.3 688.7 870.3L688.7 870.3Q686.2 870.3 684.7 869.2Q683.2 868.1 682.8 866.0L682.8 866.0L685.1 865.7Q685.8 868.4 688.8 868.4L688.8 868.4Q690.6 868.4 691.7 867.3Q692.7 866.2 692.7 864.2L692.7 864.2Q692.7 862.5 691.7 861.5Q690.6 860.5 688.8 860.5L688.8 860.5Q687.9 860.5 687.1 860.7Q686.3 861.0 685.5 861.7L685.5 861.7L683.3 861.7L683.9 852.1L694.0 852.1L694.0 854.1L686.0 854.1L685.6 859.7Q687.1 858.6 689.3 858.6L689.3 858.6Q691.1 858.6 692.4 859.3Q693.7 860.0 694.4 861.3Q695.1 862.5 695.1 864.2Z "/></g><mask id="satori_om-id-3-5"><rect x="411" y="933" width="259" height="22" fill="#fff" mask="url(#satori_om-id)"/></mask><g mask="url(#satori_om-id)" clip-path="url(#satori_cp-id)"><path fill="#6B7C85" d="M423.4 947.2L423.4 947.2Q423.4 949.1 421.9 950.2Q420.4 951.2 417.7 951.2L417.7 951.2Q412.7 951.2 411.9 947.7L411.9 947.7L413.7 947.3Q414.0 948.6 415.0 949.2Q416.1 949.7 417.8 949.7L417.8 949.7Q419.6 949.7 420.6 949.1Q421.6 948.5 421.6 947.3L421.6 947.3Q421.6 946.6 421.3 946.2Q421.0 945.8 420.4 945.5L420.4 945.5Q419.8 945.2 419.1 945.1Q418.3 944.9 417.4 944.7L417.4 944.7Q415.7 944.3 414.9 943.9Q414.0 943.6 413.6 943.1L413.6 943.1Q412.6 942.2 412.6 940.7L412.6 940.7Q412.6 938.9 413.9 938.0Q415.3 937.0 417.8 937.0L417.8 937.0Q420.1 937.0 421.4 937.8Q422.6 938.5 423.1 940.2L423.1 940.2L421.3 940.5Q421.0 939.4 420.1 938.9Q419.3 938.4 417.8 938.4L417.8 938.4Q416.1 938.4 415.2 939.0Q414.4 939.5 414.4 940.6L414.4 940.6Q414.4 941.3 414.7 941.7Q415.0 942.1 415.7 942.4L415.7 942.4Q416.3 942.7 418.2 943.1L418.2 943.1Q419.0 943.3 419.8 943.5Q420.5 943.7 421.2 944.0L421.2 944.0Q421.6 944.1 422.0 944.4Q422.4 944.6 422.6 944.9L422.6 944.9Q423.0 945.3 423.2 945.9Q423.4 946.4 423.4 947.2ZM434.6 945.7L434.6 945.7Q434.6 948.5 433.4 949.8Q432.2 951.2 429.9 951.2L429.9 951.2Q427.5 951.2 426.4 949.8Q425.2 948.4 425.2 945.7L425.2 945.7Q425.2 940.2 429.9 940.2L429.9 940.2Q432.3 940.2 433.5 941.6Q434.6 942.9 434.6 945.7ZM432.8 945.7L432.8 945.7Q432.8 943.5 432.1 942.5Q431.5 941.5 429.9 941.5L429.9 941.5Q428.4 941.5 427.7 942.5Q427.0 943.6 427.0 945.7L427.0 945.7Q427.0 947.8 427.7 948.8Q428.4 949.9 429.8 949.9L429.8 949.9Q431.4 949.9 432.1 948.9Q432.8 947.9 432.8 945.7ZM443.5 949.2L443.5 949.2Q442.9 950.3 442.1 950.7Q441.3 951.2 440.1 951.2L440.1 951.2Q438.4 951.2 437.6 950.3Q436.8 949.5 436.8 947.5L436.8 947.5L436.8 940.4L438.5 940.4L438.5 947.1Q438.5 948.7 439.0 949.3Q439.5 949.8 440.7 949.8L440.7 949.8Q442.0 949.8 442.7 949.0Q443.4 948.1 443.4 946.6L443.4 946.6L443.4 940.4L445.2 940.4L445.2 948.7Q445.2 950.6 445.3 951L445.3 951L443.6 951Q443.6 951.0 443.6 950.5Q443.5 950.1 443.5 949.2L443.5 949.2ZM449.7 945.5L449.7 945.5L449.7 951L448.0 951L448.0 942.9Q448.0 941.8 447.9 940.4L447.9 940.4L449.6 940.4Q449.6 941.3 449.6 941.9Q449.7 942.4 449.7 942.6L449.7 942.6L449.7 942.6Q450.0 941.6 450.3 941.1L450.3 941.1Q450.7 940.6 451.1 940.4Q451.6 940.2 452.2 940.2L452.2 940.2Q452.6 940.2 452.9 940.3L452.9 940.3L452.9 941.9Q452.6 941.8 452.0 941.8L452.0 941.8Q450.9 941.8 450.3 942.8Q449.7 943.7 449.7 945.5ZM458.6 951.2L458.6 951.2Q456.4 951.2 455.3 949.8Q454.1 948.4 454.1 945.7L454.1 945.7Q454.1 943.0 455.3 941.6Q456.4 940.2 458.6 940.2L458.6 940.2Q460.2 940.2 461.3 941.1Q462.4 941.9 462.7 943.4L462.7 943.4L460.9 943.5Q460.7 942.7 460.2 942.1Q459.6 941.6 458.6 941.6L458.6 941.6Q457.2 941.6 456.6 942.5Q455.9 943.5 455.9 945.7L455.9 945.7Q455.9 947.8 456.6 948.8Q457.3 949.8 458.6 949.8L458.6 949.8Q459.5 949.8 460.2 949.3Q460.8 948.8 460.9 947.7L460.9 947.7L462.7 947.9Q462.5 949.4 461.4 950.3Q460.3 951.2 458.6 951.2ZM473.5 946.1L465.9 946.1Q465.9 947.9 466.7 948.9Q467.4 949.9 468.9 949.9L468.9 949.9Q470.0 949.9 470.7 949.4Q471.4 949.0 471.7 948.3L471.7 948.3L473.2 948.7Q472.3 951.2 468.9 951.2L468.9 951.2Q466.5 951.2 465.3 949.8Q464.1 948.4 464.1 945.6L464.1 945.6Q464.1 943.0 465.3 941.6Q466.5 940.2 468.8 940.2L468.8 940.2Q473.5 940.2 473.5 945.9L473.5 945.9L473.5 946.1ZM466.0 944.7L471.7 944.7Q471.5 943.1 470.8 942.3Q470.1 941.5 468.8 941.5L468.8 941.5Q467.5 941.5 466.8 942.4Q466.0 943.2 466.0 944.7L466.0 944.7ZM476.2 940.4L478.1 940.4L478.1 942.5L476.2 942.5L476.2 940.4ZM476.2 949.0L478.1 949.0L478.1 951L476.2 951L476.2 949.0Z M497.8 941.4L497.8 941.4Q497.8 943.3 496.5 944.5Q495.2 945.6 493.0 945.6L493.0 945.6L489.0 945.6L489.0 951L487.1 951L487.1 937.2L492.9 937.2Q495.2 937.2 496.5 938.3Q497.8 939.4 497.8 941.4ZM495.9 941.4L495.9 941.4Q495.9 938.7 492.7 938.7L492.7 938.7L489.0 938.7L489.0 944.2L492.8 944.2Q495.9 944.2 495.9 941.4ZM507.2 947.0L500.9 947.0L499.3 951L497.4 951L503.0 937.2L505.1 937.2L510.6 951L508.7 951L507.2 947.0ZM504.0 938.6L504.0 938.6Q503.9 939.2 503.6 939.9Q503.4 940.5 503.2 941.0L503.2 941.0L501.5 945.5L506.6 945.5L504.8 941.0Q504.7 940.6 504.5 940.0Q504.3 939.4 504.0 938.6ZM518.5 945.3L514.2 945.3L514.2 951L512.3 951L512.3 937.2L518.8 937.2Q521.1 937.2 522.4 938.3Q523.6 939.3 523.6 941.2L523.6 941.2Q523.6 942.7 522.8 943.8Q521.9 944.8 520.3 945.1L520.3 945.1L524.2 951L522.0 951L518.5 945.3ZM521.8 941.2L521.8 941.2Q521.8 940.0 521.0 939.4Q520.1 938.7 518.6 938.7L518.6 938.7L514.2 938.7L514.2 943.8L518.7 943.8Q520.2 943.8 521.0 943.1Q521.8 942.4 521.8 941.2ZM534.9 947.0L528.7 947.0L527.1 951L525.2 951L530.8 937.2L532.9 937.2L538.4 951L536.5 951L534.9 947.0ZM531.8 938.6L531.8 938.6Q531.6 939.2 531.4 939.9Q531.2 940.5 531.0 941.0L531.0 941.0L529.2 945.5L534.4 945.5L532.6 941.0Q532.5 940.6 532.3 940.0Q532.0 939.4 531.8 938.6ZM551.9 944.0L551.9 944.0Q551.9 946.2 551.1 947.7Q550.3 949.3 548.7 950.2Q547.2 951 545.2 951L545.2 951L540.1 951L540.1 937.2L544.7 937.2Q548.1 937.2 550.0 939.0Q551.9 940.7 551.9 944.0ZM550.1 944.0L550.1 944.0Q550.1 941.4 548.7 940.1Q547.3 938.7 544.6 938.7L544.6 938.7L542.0 938.7L542.0 949.5L545.0 949.5Q546.6 949.5 547.7 948.8Q548.8 948.2 549.4 946.9Q550.1 945.7 550.1 944.0ZM554.8 937.2L556.6 937.2L556.6 951L554.8 951L554.8 937.2ZM566.4 949.7L566.4 949.7Q567.7 949.7 568.9 949.3Q570.1 948.9 570.8 948.2L570.8 948.2L570.8 945.7L566.7 945.7L566.7 944.1L572.5 944.1L572.5 948.9Q571.4 950.0 569.8 950.6Q568.3 951.2 566.4 951.2L566.4 951.2Q564.3 951.2 562.7 950.3Q561.1 949.5 560.3 947.9Q559.5 946.2 559.5 944.1L559.5 944.1Q559.5 940.7 561.3 938.9Q563.1 937.0 566.3 937.0L566.3 937.0Q568.6 937.0 570.0 937.8Q571.4 938.6 572.2 940.3L572.2 940.3L570.4 940.8Q569.9 939.6 568.8 939.1Q567.8 938.6 566.3 938.6L566.3 938.6Q563.9 938.6 562.6 940.0Q561.4 941.4 561.4 944.1L561.4 944.1Q561.4 946.7 562.7 948.2Q564.0 949.7 566.4 949.7ZM577.3 941.8L577.3 941.8L577.3 951L575.7 951L575.7 937.2L578.1 937.2L581.8 946.8Q582.0 947.4 582.1 948.0Q582.3 948.7 582.4 949.0L582.4 949.0Q582.4 948.7 582.6 948.2Q582.7 947.8 582.9 947.3Q583.0 946.9 583.1 946.8L583.1 946.8L586.6 937.2L589.0 937.2L589.0 951L587.4 951L587.4 941.8Q587.4 940.3 587.4 938.9L587.4 938.9Q587.2 939.8 587.0 940.4Q586.8 941.1 586.6 941.6L586.6 941.6L583.0 951L581.7 951L578.1 941.6L577.3 938.9Q577.3 939.6 577.3 940.4Q577.3 941.1 577.3 941.8ZM591.6 944.9L596.4 944.9L596.4 946.5L591.6 946.5L591.6 944.9ZM608.3 944.6L600.8 944.6L600.8 951L599.0 951L599.0 937.2L600.8 937.2L600.8 943.1L608.3 943.1L608.3 937.2L610.2 937.2L610.2 951L608.3 951L608.3 944.6ZM623.0 945.4L615.3 945.4L615.3 951L613.4 951L613.4 937.2L623.2 937.2L623.2 938.8L615.3 938.8L615.3 943.9L623.0 943.9L623.0 945.4Z M642.8 938.8L638.1 938.8L638.1 951L636.2 951L636.2 938.8L631.5 938.8L631.5 937.2L642.8 937.2L642.8 938.8ZM645.7 945.5L645.7 945.5L645.7 951L643.9 951L643.9 942.9Q643.9 941.8 643.8 940.4L643.8 940.4L645.5 940.4Q645.5 941.3 645.6 941.9Q645.6 942.4 645.6 942.6L645.6 942.6L645.6 942.6Q645.9 941.6 646.3 941.1L646.3 941.1Q646.6 940.6 647.0 940.4Q647.5 940.2 648.1 940.2L648.1 940.2Q648.5 940.2 648.8 940.3L648.8 940.3L648.8 941.9Q648.5 941.8 647.9 941.8L647.9 941.8Q646.8 941.8 646.2 942.8Q645.7 943.7 645.7 945.5ZM650.5 936.5L652.3 936.5L652.3 938.2L650.5 938.2L650.5 936.5ZM650.5 940.4L652.3 940.4L652.3 951L650.5 951L650.5 940.4ZM657.7 951.2L657.7 951.2Q656.1 951.2 655.3 950.4Q654.5 949.5 654.5 948.1L654.5 948.1Q654.5 946.4 655.5 945.5Q656.6 944.7 659.0 944.6L659.0 944.6L661.4 944.6L661.4 944.0Q661.4 942.7 660.9 942.1Q660.3 941.6 659.1 941.6L659.1 941.6Q658.0 941.6 657.4 942.0Q656.9 942.4 656.8 943.3L656.8 943.3L654.9 943.1Q655.4 940.2 659.2 940.2L659.2 940.2Q661.2 940.2 662.2 941.2Q663.2 942.1 663.2 943.8L663.2 943.8L663.2 948.3Q663.2 949.1 663.4 949.5Q663.6 949.9 664.2 949.9L664.2 949.9Q664.4 949.9 664.7 949.8L664.7 949.8L664.7 950.9Q664.1 951.1 663.4 951.1L663.4 951.1Q662.4 951.1 662.0 950.6Q661.5 950.1 661.5 949.0L661.5 949.0L661.4 949.0Q660.7 950.2 659.8 950.7Q658.9 951.2 657.7 951.2ZM661.4 946.7L661.4 945.8L659.5 945.8Q658.2 945.8 657.6 946.1L657.6 946.1Q657.0 946.3 656.6 946.8Q656.3 947.3 656.3 948.1L656.3 948.1Q656.3 948.9 656.7 949.4Q657.2 949.9 658.1 949.9L658.1 949.9Q659.0 949.9 659.8 949.4L659.8 949.4Q660.5 949.0 661.0 948.2Q661.4 947.5 661.4 946.7L661.4 946.7ZM666.1 936.5L667.8 936.5L667.8 951L666.1 951L666.1 936.5Z "/></g><defs><clipPath id="satori_bc-id-4" clip-path="url(#satori_cp-id)"><rect x="0" y="1210" width="1080" height="140"/></clipPath></defs><mask id="satori_om-id-4"><rect x="0" y="1213" width="1080" height="137" fill="#fff" mask="url(#satori_om-id)"/><path width="1080" height="140" fill="none" stroke="#000" stroke-width="6" d="M0,1210 A0,0 0 0 1 0,1210 h1080 A0,0 0 0 1 1080,1210"/></mask><rect x="0" y="1210" width="1080" height="140" fill="#FFFFFF" clip-path="url(#satori_cp-id)" mask="url(#satori_om-id)"/><path width="1080" height="140" clip-path="url(#satori_bc-id-4)" fill="none" stroke="#16697A" stroke-width="6" d="M0,1210 A0,0 0 0 1 0,1210 h1080 A0,0 0 0 1 1080,1210"/><mask id="satori_om-id-4-0"><rect x="382" y="1242" width="80" height="80" fill="#fff" mask="url(#satori_om-id)"/></mask><path x="382" y="1242" width="80" height="80" fill="#16697A" d="M422,1242 h0 a40,40 0 0 1 40,40 v0 a40,40 0 0 1 -40,40 h0 a40,40 0 0 1 -40,-40 v0 a40,40 0 0 1 40,-40" clip-path="url(#satori_cp-id)" mask="url(#satori_om-id)"/><mask id="satori_om-id-4-0-0"><rect x="409" y="1262" width="26" height="40" fill="#fff" mask="url(#satori_om-id)"/></mask><g mask="url(#satori_om-id)" clip-path="url(#satori_cp-id)"><path fill="#FFFFFF" d="M433.5 1282.4L433.5 1282.4Q433.5 1286.4 431.9 1289.2Q430.4 1292.0 427.7 1293.5Q425.0 1295 421.4 1295L421.4 1295L411.4 1295L411.4 1270.2L420.4 1270.2Q426.6 1270.2 430.1 1273.4Q433.5 1276.5 433.5 1282.4ZM428.3 1282.4L428.3 1282.4Q428.3 1278.4 426.2 1276.3Q424.1 1274.2 420.3 1274.2L420.3 1274.2L416.6 1274.2L416.6 1291.0L421.0 1291.0Q424.3 1291.0 426.3 1288.7Q428.3 1286.4 428.3 1282.4Z "/></g><mask id="satori_om-id-4-1"><rect x="486" y="1255" width="213" height="53" fill="#fff" mask="url(#satori_om-id)"/></mask><mask id="satori_om-id-4-1-0"><rect x="486" y="1255" width="213" height="27" fill="#fff" mask="url(#satori_om-id)"/></mask><g mask="url(#satori_om-id)" clip-path="url(#satori_cp-id)"><path fill="#2F3E46" d="M502.3 1268.6L502.3 1268.6Q502.3 1271.3 501.3 1273.1Q500.3 1275.0 498.5 1276.0Q496.7 1277 494.3 1277L494.3 1277L487.6 1277L487.6 1260.5L493.6 1260.5Q497.8 1260.5 500.0 1262.6Q502.3 1264.7 502.3 1268.6ZM498.8 1268.6L498.8 1268.6Q498.8 1266.0 497.5 1264.6Q496.1 1263.2 493.5 1263.2L493.5 1263.2L491.1 1263.2L491.1 1274.3L494.0 1274.3Q496.2 1274.3 497.5 1272.8Q498.8 1271.3 498.8 1268.6ZM508.3 1270.8L508.3 1270.8L508.3 1277L505.0 1277L505.0 1267.3Q505.0 1266.3 505.0 1265.6Q504.9 1264.9 504.9 1264.3L504.9 1264.3L508.1 1264.3Q508.1 1264.4 508.1 1264.8Q508.1 1265.2 508.1 1265.6Q508.2 1266.1 508.2 1266.5Q508.2 1266.9 508.2 1267.0L508.2 1267.0L508.3 1267.0Q508.7 1265.7 509.1 1265.1L509.1 1265.1Q509.5 1264.6 510 1264.3Q510.5 1264.1 511.3 1264.1L511.3 1264.1Q511.9 1264.1 512.3 1264.3L512.3 1264.3L512.3 1267.0Q511.5 1266.8 510.9 1266.8L510.9 1266.8Q509.7 1266.8 509.0 1267.8Q508.3 1268.8 508.3 1270.8ZM513.0 1273.4L516.4 1273.4L516.4 1277L513.0 1277L513.0 1273.4Z M541.1 1272.2L541.1 1272.2Q541.1 1274.7 539.3 1276.0Q537.5 1277.2 534 1277.2L534 1277.2Q527.7 1277.2 526.7 1272.7L526.7 1272.7L530.0 1272.1Q530.4 1273.5 531.4 1274.1Q532.3 1274.6 534.1 1274.6L534.1 1274.6Q537.7 1274.6 537.7 1272.4L537.7 1272.4Q537.7 1271.7 537.3 1271.3Q536.9 1270.8 536.1 1270.5L536.1 1270.5Q535.4 1270.2 533.2 1269.8L533.2 1269.8Q532.0 1269.5 531.3 1269.3Q530.6 1269.1 530.2 1268.9Q529.7 1268.7 529.3 1268.5L529.3 1268.5Q528.5 1267.9 528.0 1267.1Q527.5 1266.2 527.5 1264.9L527.5 1264.9Q527.5 1262.6 529.2 1261.4Q530.8 1260.2 534.0 1260.2L534.0 1260.2Q537.1 1260.2 538.7 1261.2Q540.2 1262.2 540.6 1264.4L540.6 1264.4L537.3 1264.8Q537.0 1263.8 536.2 1263.2Q535.5 1262.7 534.0 1262.7L534.0 1262.7Q530.8 1262.7 530.8 1264.7L530.8 1264.7Q530.8 1265.3 531.2 1265.7Q531.5 1266.1 532.2 1266.4L532.2 1266.4Q532.8 1266.7 534.8 1267.1L534.8 1267.1Q537.2 1267.6 538.2 1268.1L538.2 1268.1Q539.3 1268.5 539.8 1269.1L539.8 1269.1Q541.1 1270.2 541.1 1272.2ZM546.9 1266.9L546.9 1266.9Q547.6 1265.4 548.6 1264.7Q549.6 1264.1 551.0 1264.1L551.0 1264.1Q553.0 1264.1 554.1 1265.3Q555.2 1266.6 555.2 1269.0L555.2 1269.0L555.2 1277L551.9 1277L551.9 1269.9Q551.9 1266.6 549.6 1266.6L549.6 1266.6Q548.4 1266.6 547.7 1267.6Q547.0 1268.6 547.0 1270.2L547.0 1270.2L547.0 1277L543.7 1277L543.7 1259.6L547.0 1259.6L547.0 1264.4Q547.0 1265 547.0 1265.6Q546.9 1266.2 546.9 1266.9L546.9 1266.9ZM561.3 1277.2L561.3 1277.2Q559.4 1277.2 558.4 1276.2Q557.4 1275.2 557.4 1273.4L557.4 1273.4Q557.4 1271.4 558.7 1270.4Q559.9 1269.4 562.4 1269.4L562.4 1269.4L565.1 1269.3L565.1 1268.7Q565.1 1267.4 564.7 1266.8Q564.2 1266.2 563.3 1266.2L563.3 1266.2Q562.3 1266.2 561.9 1266.6Q561.5 1267.1 561.4 1268.0L561.4 1268.0L558.0 1267.8Q558.6 1264.1 563.4 1264.1L563.4 1264.1Q565.8 1264.1 567.1 1265.3Q568.4 1266.5 568.4 1268.6L568.4 1268.6L568.4 1273.3Q568.4 1274.3 568.6 1274.7Q568.9 1275.1 569.4 1275.1L569.4 1275.1Q569.8 1275.1 570.2 1275.1L570.2 1275.1L570.2 1276.8Q569.6 1277.0 569.1 1277.1Q568.7 1277.1 568.1 1277.1L568.1 1277.1Q566.8 1277.1 566.2 1276.5Q565.6 1275.9 565.5 1274.7L565.5 1274.7L565.5 1274.7Q564.1 1277.2 561.3 1277.2ZM565.1 1271.8L565.1 1271.1L563.4 1271.2Q562.3 1271.2 561.8 1271.4L561.8 1271.4Q561.3 1271.6 561.1 1272.0Q560.8 1272.5 560.8 1273.2L560.8 1273.2Q560.8 1274.1 561.2 1274.5Q561.6 1274.9 562.3 1274.9L562.3 1274.9Q563.1 1274.9 563.8 1274.5L563.8 1274.5Q564.4 1274.1 564.8 1273.3Q565.1 1272.6 565.1 1271.8L565.1 1271.8ZM571.7 1259.6L575.0 1259.6L575.0 1262.0L571.7 1262.0L571.7 1259.6ZM571.7 1264.3L575.0 1264.3L575.0 1277L571.7 1277L571.7 1264.3ZM578.4 1259.6L581.7 1259.6L581.7 1277L578.4 1277L578.4 1259.6ZM595.9 1271.3L587.8 1271.3Q587.8 1273.1 588.4 1274.1Q589.1 1275.0 590.4 1275.0L590.4 1275.0Q592.1 1275.0 592.6 1273.5L592.6 1273.5L595.7 1273.8Q594.4 1277.2 590.2 1277.2L590.2 1277.2Q587.4 1277.2 585.8 1275.5Q584.3 1273.8 584.3 1270.6L584.3 1270.6Q584.3 1267.5 585.9 1265.8Q587.4 1264.1 590.3 1264.1L590.3 1264.1Q593.0 1264.1 594.4 1265.9Q595.9 1267.7 595.9 1271.2L595.9 1271.2L595.9 1271.3ZM587.8 1269.2L592.7 1269.2Q592.6 1267.7 592.0 1266.9Q591.3 1266.2 590.2 1266.2L590.2 1266.2Q589.1 1266.2 588.4 1267.0Q587.8 1267.8 587.8 1269.2L587.8 1269.2ZM609.1 1273.3L609.1 1273.3Q609.1 1275.1 607.6 1276.2Q606.1 1277.2 603.4 1277.2L603.4 1277.2Q600.8 1277.2 599.4 1276.4Q598.0 1275.6 597.6 1273.8L597.6 1273.8L600.4 1273.4Q600.7 1274.3 601.3 1274.7Q601.9 1275.1 603.4 1275.1L603.4 1275.1Q604.8 1275.1 605.4 1274.7Q606.0 1274.4 606.0 1273.6L606.0 1273.6Q606.0 1273.0 605.5 1272.6Q605.0 1272.3 603.8 1272.0L603.8 1272.0Q601.1 1271.5 600.0 1271L600.0 1271Q599.1 1270.5 598.6 1269.8Q598.1 1269.0 598.1 1267.9L598.1 1267.9Q598.1 1266.1 599.5 1265.1Q600.9 1264.1 603.4 1264.1L603.4 1264.1Q605.7 1264.1 607.1 1265.0Q608.4 1265.8 608.8 1267.5L608.8 1267.5L605.9 1267.8Q605.7 1267.0 605.2 1266.6Q604.6 1266.3 603.4 1266.3L603.4 1266.3Q602.3 1266.3 601.7 1266.6Q601.1 1266.9 601.1 1267.6L601.1 1267.6Q601.1 1268.1 601.5 1268.4Q602.0 1268.8 603.0 1269.0L603.0 1269.0Q604.5 1269.3 605.7 1269.6Q606.8 1269.9 607.5 1270.4L607.5 1270.4Q608.2 1270.8 608.7 1271.5Q609.1 1272.2 609.1 1273.3ZM614.9 1266.9L615.0 1266.9Q615.6 1265.4 616.7 1264.7Q617.7 1264.1 619.1 1264.1L619.1 1264.1Q621.1 1264.1 622.1 1265.3Q623.2 1266.6 623.2 1269.0L623.2 1269.0L623.2 1277L619.9 1277L619.9 1269.9Q619.9 1266.6 617.7 1266.6L617.7 1266.6Q616.5 1266.6 615.8 1267.6Q615.0 1268.6 615.0 1270.2L615.0 1270.2L615.0 1277L611.7 1277L611.7 1259.6L615.0 1259.6L615.0 1264.4Q615.0 1265 615 1265.6Q615.0 1266.2 614.9 1266.9L614.9 1266.9Z M646.5 1272.2L646.5 1272.2Q646.5 1274.7 644.7 1276.0Q642.9 1277.2 639.4 1277.2L639.4 1277.2Q633.1 1277.2 632.1 1272.7L632.1 1272.7L635.4 1272.1Q635.8 1273.5 636.7 1274.1Q637.7 1274.6 639.5 1274.6L639.5 1274.6Q643.1 1274.6 643.1 1272.4L643.1 1272.4Q643.1 1271.7 642.7 1271.3Q642.3 1270.8 641.5 1270.5L641.5 1270.5Q640.8 1270.2 638.6 1269.8L638.6 1269.8Q637.4 1269.5 636.7 1269.3Q636.0 1269.1 635.5 1268.9Q635.1 1268.7 634.7 1268.5L634.7 1268.5Q633.8 1267.9 633.3 1267.1Q632.8 1266.2 632.8 1264.9L632.8 1264.9Q632.8 1262.6 634.5 1261.4Q636.2 1260.2 639.4 1260.2L639.4 1260.2Q642.5 1260.2 644.0 1261.2Q645.6 1262.2 646.0 1264.4L646.0 1264.4L642.7 1264.8Q642.4 1263.8 641.6 1263.2Q640.8 1262.7 639.4 1262.7L639.4 1262.7Q636.2 1262.7 636.2 1264.7L636.2 1264.7Q636.2 1265.3 636.5 1265.7Q636.9 1266.1 637.5 1266.4L637.5 1266.4Q638.2 1266.7 640.2 1267.1L640.2 1267.1Q642.6 1267.6 643.6 1268.1L643.6 1268.1Q644.6 1268.5 645.2 1269.1L645.2 1269.1Q646.5 1270.2 646.5 1272.2ZM649.1 1259.6L652.4 1259.6L652.4 1262.0L649.1 1262.0L649.1 1259.6ZM649.1 1264.3L652.4 1264.3L652.4 1277L649.1 1277L649.1 1264.3ZM659.0 1270.2L659.0 1270.2L659.0 1277L655.7 1277L655.7 1267.2Q655.7 1266.1 655.7 1265.5Q655.7 1264.8 655.6 1264.3L655.6 1264.3L658.8 1264.3Q658.8 1264.5 658.8 1265.0Q658.9 1265.5 658.9 1266.0Q658.9 1266.6 658.9 1266.8L658.9 1266.8L659.0 1266.8Q659.6 1265.4 660.7 1264.7Q661.7 1264.1 663.1 1264.1L663.1 1264.1Q665.1 1264.1 666.2 1265.3Q667.2 1266.6 667.2 1268.9L667.2 1268.9L667.2 1277L663.9 1277L663.9 1269.9Q663.9 1266.5 661.7 1266.5L661.7 1266.5Q660.5 1266.5 659.8 1267.6Q659.0 1268.6 659.0 1270.2ZM675.7 1282.1L675.7 1282.1Q673.4 1282.1 672.0 1281.2Q670.6 1280.3 670.2 1278.7L670.2 1278.7L673.5 1278.3Q673.7 1279.1 674.3 1279.5Q674.9 1279.9 675.8 1279.9L675.8 1279.9Q677.2 1279.9 677.8 1279.1Q678.4 1278.2 678.4 1276.6L678.4 1276.6L678.5 1274.6L678.4 1274.6Q677.3 1277.0 674.4 1277.0L674.4 1277.0Q672.1 1277.0 670.9 1275.3Q669.7 1273.6 669.7 1270.6L669.7 1270.6Q669.7 1267.4 671.0 1265.8Q672.2 1264.1 674.6 1264.1L674.6 1264.1Q677.4 1264.1 678.4 1266.4L678.4 1266.4L678.5 1266.4Q678.5 1266.1 678.5 1265.7Q678.5 1265.2 678.6 1264.8Q678.6 1264.5 678.7 1264.3L678.7 1264.3L681.8 1264.3Q681.7 1265.6 681.7 1267.3L681.7 1267.3L681.7 1276.6Q681.7 1279.3 680.2 1280.7Q678.6 1282.1 675.7 1282.1ZM678.5 1270.5L678.5 1270.5Q678.5 1268.5 677.8 1267.4Q677.1 1266.3 675.8 1266.3L675.8 1266.3Q673.1 1266.3 673.1 1270.6L673.1 1270.6Q673.1 1274.7 675.8 1274.7L675.8 1274.7Q677.1 1274.7 677.8 1273.6Q678.5 1272.5 678.5 1270.5ZM688.3 1266.9L688.3 1266.9Q689.0 1265.4 690.0 1264.7Q691.0 1264.1 692.4 1264.1L692.4 1264.1Q694.4 1264.1 695.5 1265.3Q696.6 1266.6 696.6 1269.0L696.6 1269.0L696.6 1277L693.3 1277L693.3 1269.9Q693.3 1266.6 691.0 1266.6L691.0 1266.6Q689.8 1266.6 689.1 1267.6Q688.3 1268.6 688.3 1270.2L688.3 1270.2L688.3 1277L685.1 1277L685.1 1259.6L688.3 1259.6L688.3 1264.4Q688.3 1265 688.3 1265.6Q688.3 1266.2 688.3 1266.9L688.3 1266.9Z "/></g><mask id="satori_om-id-4-1-1"><rect x="486" y="1286" width="213" height="22" fill="#fff" mask="url(#satori_om-id)"/></mask><g mask="url(#satori_om-id)" clip-path="url(#satori_cp-id)"><path fill="#16697A" d="M504.6 1296.6L504.6 1296.6Q504.6 1298.4 504.0 1299.9L504.0 1299.9Q503.5 1301.4 502.5 1302.2Q501.4 1303.0 500.2 1303.0L500.2 1303.0Q499.2 1303.0 498.7 1302.6Q498.2 1302.1 498.2 1301.3L498.2 1301.3Q498.2 1301.1 498.2 1300.9Q498.2 1300.7 498.2 1300.6L498.2 1300.6L498.2 1300.6Q497.5 1301.8 496.6 1302.4Q495.6 1303.0 494.5 1303.0L494.5 1303.0Q493.0 1303.0 492.1 1302.0Q491.3 1301.0 491.3 1299.2L491.3 1299.2Q491.3 1297.6 491.9 1296.2L491.9 1296.2Q492.6 1294.9 493.7 1294.1Q494.8 1293.2 496.2 1293.2L496.2 1293.2Q498.3 1293.2 499.1 1295.0L499.1 1295.0L499.2 1295.0L499.6 1293.5L501.1 1293.5L500.0 1298.4Q499.6 1300.0 499.6 1300.9L499.6 1300.9Q499.6 1301.8 500.4 1301.8L500.4 1301.8Q501.2 1301.8 501.8 1301.1L501.8 1301.1Q502.5 1300.4 502.9 1299.3Q503.2 1298.1 503.2 1296.6L503.2 1296.6Q503.2 1294.9 502.5 1293.5L502.5 1293.5Q501.7 1292.2 500.3 1291.5Q498.9 1290.7 497.0 1290.7L497.0 1290.7Q494.7 1290.7 492.8 1291.8L492.8 1291.8Q491.0 1292.8 490.0 1294.8Q488.9 1296.8 488.9 1299.2L488.9 1299.2Q488.9 1301.1 489.7 1302.5L489.7 1302.5Q490.5 1304.0 491.9 1304.7Q493.4 1305.5 495.3 1305.5L495.3 1305.5Q496.7 1305.5 498.2 1305.1Q499.6 1304.8 501.2 1303.9L501.2 1303.9L501.7 1305.0Q500.3 1305.9 498.7 1306.3Q497.0 1306.8 495.3 1306.8L495.3 1306.8Q493.0 1306.8 491.2 1305.8L491.2 1305.8Q489.4 1304.9 488.5 1303.2Q487.6 1301.5 487.6 1299.2L487.6 1299.2Q487.6 1296.5 488.8 1294.2L488.8 1294.2Q490.0 1292.0 492.2 1290.8Q494.3 1289.5 497.0 1289.5L497.0 1289.5Q499.3 1289.5 501.1 1290.4L501.1 1290.4Q502.8 1291.3 503.7 1292.9Q504.6 1294.5 504.6 1296.6ZM498.7 1296.7L498.7 1296.7Q498.7 1295.7 498.0 1295.1Q497.4 1294.5 496.3 1294.5L496.3 1294.5Q495.3 1294.5 494.5 1295.1L494.5 1295.1Q493.8 1295.7 493.3 1296.8Q492.9 1297.9 492.9 1299.2L492.9 1299.2Q492.9 1300.4 493.4 1301.0Q493.8 1301.7 494.8 1301.7L494.8 1301.7Q495.6 1301.7 496.2 1301.3Q496.9 1300.9 497.5 1300.2L497.5 1300.2Q497.9 1299.6 498.1 1299.0Q498.4 1298.3 498.5 1297.7Q498.7 1297.1 498.7 1296.7ZM509.4 1295.2L509.4 1295.2Q510.0 1294.2 510.8 1293.7Q511.6 1293.2 512.8 1293.2L512.8 1293.2Q514.5 1293.2 515.3 1294.1Q516.1 1295.0 516.1 1297.0L516.1 1297.0L516.1 1304L514.4 1304L514.4 1297.3Q514.4 1295.9 513.9 1295.2Q513.4 1294.6 512.2 1294.6L512.2 1294.6Q510.9 1294.6 510.2 1295.5Q509.4 1296.3 509.4 1297.8L509.4 1297.8L509.4 1304L507.7 1304L507.7 1289.5L509.4 1289.5L509.4 1293.3Q509.4 1293.7 509.4 1294.1Q509.4 1294.5 509.4 1294.9Q509.4 1295.2 509.4 1295.2L509.4 1295.2ZM527.7 1299.1L520.1 1299.1Q520.1 1300.9 520.9 1301.9Q521.6 1302.9 523.1 1302.9L523.1 1302.9Q524.2 1302.9 524.9 1302.4Q525.6 1302.0 525.8 1301.3L525.8 1301.3L527.4 1301.7Q526.4 1304.2 523.1 1304.2L523.1 1304.2Q520.7 1304.2 519.5 1302.8Q518.3 1301.4 518.3 1298.6L518.3 1298.6Q518.3 1296.0 519.5 1294.6Q520.7 1293.2 523.0 1293.2L523.0 1293.2Q527.7 1293.2 527.7 1298.9L527.7 1298.9L527.7 1299.1ZM520.1 1297.7L525.8 1297.7Q525.7 1296.1 525.0 1295.3Q524.3 1294.5 523.0 1294.5L523.0 1294.5Q521.7 1294.5 520.9 1295.4Q520.2 1296.2 520.1 1297.7L520.1 1297.7ZM532.6 1304.2L532.6 1304.2Q531 1304.2 530.2 1303.4Q529.4 1302.5 529.4 1301.1L529.4 1301.1Q529.4 1299.4 530.5 1298.5Q531.6 1297.7 534.0 1297.6L534.0 1297.6L536.3 1297.6L536.3 1297.0Q536.3 1295.7 535.8 1295.1Q535.2 1294.6 534.1 1294.6L534.1 1294.6Q532.9 1294.6 532.3 1295.0Q531.8 1295.4 531.7 1296.3L531.7 1296.3L529.9 1296.1Q530.3 1293.2 534.1 1293.2L534.1 1293.2Q536.1 1293.2 537.1 1294.2Q538.1 1295.1 538.1 1296.8L538.1 1296.8L538.1 1301.3Q538.1 1302.1 538.3 1302.5Q538.5 1302.9 539.1 1302.9L539.1 1302.9Q539.4 1302.9 539.7 1302.8L539.7 1302.8L539.7 1303.9Q539.0 1304.1 538.3 1304.1L538.3 1304.1Q537.3 1304.1 536.9 1303.6Q536.4 1303.1 536.4 1302.0L536.4 1302.0L536.3 1302.0Q535.7 1303.2 534.8 1303.7Q533.9 1304.2 532.6 1304.2ZM536.3 1299.7L536.3 1298.8L534.4 1298.8Q533.2 1298.8 532.5 1299.1L532.5 1299.1Q531.9 1299.3 531.5 1299.8Q531.2 1300.3 531.2 1301.1L531.2 1301.1Q531.2 1301.9 531.7 1302.4Q532.1 1302.9 533.0 1302.9L533.0 1302.9Q534.0 1302.9 534.7 1302.4L534.7 1302.4Q535.5 1302.0 535.9 1301.2Q536.3 1300.5 536.3 1299.7L536.3 1299.7ZM542.8 1298.5L542.8 1298.5L542.8 1304L541.1 1304L541.1 1295.9Q541.1 1294.8 541 1293.4L541 1293.4L542.7 1293.4Q542.7 1294.3 542.7 1294.9Q542.7 1295.4 542.7 1295.6L542.7 1295.6L542.8 1295.6Q543.1 1294.6 543.4 1294.1L543.4 1294.1Q543.8 1293.6 544.2 1293.4Q544.6 1293.2 545.3 1293.2L545.3 1293.2Q545.6 1293.2 546 1293.3L546 1293.3L546 1294.9Q545.7 1294.8 545.1 1294.8L545.1 1294.8Q544.0 1294.8 543.4 1295.8Q542.8 1296.7 542.8 1298.5ZM551.7 1302.6L551.7 1303.9Q550.9 1304.2 550.0 1304.2L550.0 1304.2Q547.9 1304.2 547.9 1301.8L547.9 1301.8L547.9 1294.7L546.6 1294.7L546.6 1293.4L547.9 1293.4L548.4 1291.1L549.6 1291.1L549.6 1293.4L551.6 1293.4L551.6 1294.7L549.6 1294.7L549.6 1301.4Q549.6 1302.1 549.9 1302.5Q550.1 1302.8 550.7 1302.8L550.7 1302.8Q551.1 1302.8 551.7 1302.6L551.7 1302.6ZM561.7 1304L560.0 1304Q560.0 1303.9 560.0 1303.6Q560.0 1303.3 560.0 1302.9Q559.9 1302.6 559.9 1302.3L559.9 1302.3L559.9 1302.3Q559.4 1303.3 558.6 1303.8Q557.8 1304.2 556.6 1304.2L556.6 1304.2Q554.6 1304.2 553.7 1302.8Q552.7 1301.5 552.7 1298.8L552.7 1298.8Q552.7 1293.2 556.6 1293.2L556.6 1293.2Q557.8 1293.2 558.6 1293.7Q559.4 1294.1 559.9 1295.1L559.9 1295.1L559.9 1295.1L559.9 1293.9L559.9 1289.5L561.7 1289.5L561.7 1301.8Q561.7 1303.5 561.7 1304L561.7 1304ZM554.6 1298.7L554.6 1298.7Q554.6 1300.9 555.2 1301.9Q555.7 1302.8 557.1 1302.8L557.1 1302.8Q558.6 1302.8 559.2 1301.8Q559.9 1300.8 559.9 1298.6L559.9 1298.6Q559.9 1296.5 559.2 1295.5Q558.6 1294.5 557.1 1294.5L557.1 1294.5Q555.8 1294.5 555.2 1295.5Q554.6 1296.5 554.6 1298.7ZM573.3 1298.7L573.3 1298.7Q573.3 1301.5 572.1 1302.8Q570.9 1304.2 568.5 1304.2L568.5 1304.2Q566.2 1304.2 565.0 1302.8Q563.9 1301.4 563.9 1298.7L563.9 1298.7Q563.9 1293.2 568.6 1293.2L568.6 1293.2Q571.0 1293.2 572.2 1294.6Q573.3 1295.9 573.3 1298.7ZM571.4 1298.7L571.4 1298.7Q571.4 1296.5 570.8 1295.5Q570.2 1294.5 568.6 1294.5L568.6 1294.5Q567.1 1294.5 566.4 1295.5Q565.7 1296.6 565.7 1298.7L565.7 1298.7Q565.7 1300.8 566.4 1301.8Q567.1 1302.9 568.5 1302.9L568.5 1302.9Q570.1 1302.9 570.8 1301.9Q571.4 1300.9 571.4 1298.7ZM579.5 1304.2L579.5 1304.2Q577.3 1304.2 576.2 1302.8Q575.0 1301.4 575.0 1298.7L575.0 1298.7Q575.0 1296.0 576.2 1294.6Q577.3 1293.2 579.5 1293.2L579.5 1293.2Q581.1 1293.2 582.2 1294.1Q583.3 1294.9 583.5 1296.4L583.5 1296.4L581.7 1296.5Q581.6 1295.7 581.0 1295.1Q580.5 1294.6 579.5 1294.6L579.5 1294.6Q578.1 1294.6 577.4 1295.5Q576.8 1296.5 576.8 1298.7L576.8 1298.7Q576.8 1300.8 577.5 1301.8Q578.1 1302.8 579.5 1302.8L579.5 1302.8Q580.4 1302.8 581.1 1302.3Q581.7 1301.8 581.8 1300.7L581.8 1300.7L583.6 1300.9Q583.4 1302.4 582.3 1303.3Q581.2 1304.2 579.5 1304.2ZM593.4 1301.1L593.4 1301.1Q593.4 1302.6 592.3 1303.4Q591.2 1304.2 589.1 1304.2L589.1 1304.2Q587.2 1304.2 586.1 1303.5Q585.0 1302.9 584.7 1301.5L584.7 1301.5L586.2 1301.2Q586.7 1302.9 589.1 1302.9L589.1 1302.9Q590.5 1302.9 591.1 1302.4Q591.7 1302.0 591.7 1301.2L591.7 1301.2Q591.7 1300.6 591.3 1300.2Q590.8 1299.8 589.9 1299.6L589.9 1299.6Q588.8 1299.3 588.1 1299.1Q587.4 1298.9 587.1 1298.7Q586.7 1298.6 586.5 1298.5L586.5 1298.5Q585.8 1298.1 585.5 1297.5Q585.1 1297.0 585.1 1296.2L585.1 1296.2Q585.1 1294.8 586.1 1294.0Q587.2 1293.3 589.1 1293.3L589.1 1293.3Q590.9 1293.3 591.9 1293.9Q593.0 1294.5 593.2 1295.9L593.2 1295.9L591.6 1296.1Q591.3 1294.6 589.1 1294.6L589.1 1294.6Q586.8 1294.6 586.8 1296.1L586.8 1296.1Q586.8 1296.6 587.1 1296.9Q587.5 1297.3 588.4 1297.5L588.4 1297.5Q589.6 1297.8 590.7 1298.1Q591.8 1298.5 592.3 1298.8L592.3 1298.8Q592.8 1299.2 593.1 1299.8Q593.4 1300.3 593.4 1301.1ZM597.2 1295.2L597.2 1295.2Q597.8 1294.2 598.6 1293.7Q599.4 1293.2 600.6 1293.2L600.6 1293.2Q602.3 1293.2 603.1 1294.1Q604.0 1295.0 604.0 1297.0L604.0 1297.0L604.0 1304L602.2 1304L602.2 1297.3Q602.2 1295.9 601.7 1295.2Q601.2 1294.6 600.0 1294.6L600.0 1294.6Q598.8 1294.6 598.0 1295.5Q597.3 1296.3 597.3 1297.8L597.3 1297.8L597.3 1304L595.5 1304L595.5 1289.5L597.3 1289.5L597.3 1293.3Q597.3 1293.7 597.3 1294.1Q597.2 1294.5 597.2 1294.9Q597.2 1295.2 597.2 1295.2L597.2 1295.2ZM609.3 1304.2L609.3 1304.2Q607.7 1304.2 606.9 1303.4Q606.1 1302.5 606.1 1301.1L606.1 1301.1Q606.1 1299.4 607.2 1298.5Q608.3 1297.7 610.7 1297.6L610.7 1297.6L613.0 1297.6L613.0 1297.0Q613.0 1295.7 612.5 1295.1Q611.9 1294.6 610.8 1294.6L610.8 1294.6Q609.6 1294.6 609.1 1295.0Q608.5 1295.4 608.4 1296.3L608.4 1296.3L606.6 1296.1Q607.0 1293.2 610.8 1293.2L610.8 1293.2Q612.8 1293.2 613.8 1294.2Q614.8 1295.1 614.8 1296.8L614.8 1296.8L614.8 1301.3Q614.8 1302.1 615.0 1302.5Q615.2 1302.9 615.8 1302.9L615.8 1302.9Q616.1 1302.9 616.4 1302.8L616.4 1302.8L616.4 1303.9Q615.7 1304.1 615.0 1304.1L615.0 1304.1Q614.0 1304.1 613.6 1303.6Q613.2 1303.1 613.1 1302.0L613.1 1302.0L613.0 1302.0Q612.4 1303.2 611.5 1303.7Q610.6 1304.2 609.3 1304.2ZM613.0 1299.7L613.0 1298.8L611.1 1298.8Q609.9 1298.8 609.2 1299.1L609.2 1299.1Q608.6 1299.3 608.3 1299.8Q607.9 1300.3 607.9 1301.1L607.9 1301.1Q607.9 1301.9 608.4 1302.4Q608.8 1302.9 609.7 1302.9L609.7 1302.9Q610.7 1302.9 611.4 1302.4L611.4 1302.4Q612.2 1302.0 612.6 1301.2Q613.0 1300.5 613.0 1299.7L613.0 1299.7ZM617.7 1289.5L619.5 1289.5L619.5 1291.2L617.7 1291.2L617.7 1289.5ZM617.7 1293.4L619.5 1293.4L619.5 1304L617.7 1304L617.7 1293.4ZM622.2 1289.5L623.9 1289.5L623.9 1304L622.2 1304L622.2 1289.5ZM635.5 1299.1L628.0 1299.1Q628.0 1300.9 628.7 1301.9Q629.5 1302.9 630.9 1302.9L630.9 1302.9Q632.1 1302.9 632.7 1302.4Q633.4 1302.0 633.7 1301.3L633.7 1301.3L635.2 1301.7Q634.3 1304.2 630.9 1304.2L630.9 1304.2Q628.6 1304.2 627.3 1302.8Q626.1 1301.4 626.1 1298.6L626.1 1298.6Q626.1 1296.0 627.3 1294.6Q628.6 1293.2 630.8 1293.2L630.8 1293.2Q635.5 1293.2 635.5 1298.9L635.5 1298.9L635.5 1299.1ZM628.0 1297.7L633.7 1297.7Q633.5 1296.1 632.8 1295.3Q632.1 1294.5 630.8 1294.5L630.8 1294.5Q629.5 1294.5 628.8 1295.4Q628.0 1296.2 628.0 1297.7L628.0 1297.7ZM645.7 1301.1L645.7 1301.1Q645.7 1302.6 644.5 1303.4Q643.4 1304.2 641.4 1304.2L641.4 1304.2Q639.4 1304.2 638.3 1303.5Q637.3 1302.9 636.9 1301.5L636.9 1301.5L638.5 1301.2Q638.9 1302.9 641.4 1302.9L641.4 1302.9Q642.7 1302.9 643.3 1302.4Q644.0 1302.0 644.0 1301.2L644.0 1301.2Q644.0 1300.6 643.5 1300.2Q643.1 1299.8 642.1 1299.6L642.1 1299.6Q641.0 1299.3 640.3 1299.1Q639.7 1298.9 639.3 1298.7Q638.9 1298.6 638.7 1298.5L638.7 1298.5Q638.1 1298.1 637.7 1297.5Q637.4 1297.0 637.4 1296.2L637.4 1296.2Q637.4 1294.8 638.4 1294.0Q639.4 1293.3 641.4 1293.3L641.4 1293.3Q643.1 1293.3 644.2 1293.9Q645.2 1294.5 645.5 1295.9L645.5 1295.9L643.9 1296.1Q643.6 1294.6 641.4 1294.6L641.4 1294.6Q639.1 1294.6 639.1 1296.1L639.1 1296.1Q639.1 1296.6 639.4 1296.9Q639.7 1297.3 640.6 1297.5L640.6 1297.5Q641.8 1297.8 643.0 1298.1Q644.1 1298.5 644.5 1298.8L644.5 1298.8Q645.1 1299.2 645.4 1299.8Q645.7 1300.3 645.7 1301.1ZM649.5 1295.2L649.5 1295.2Q650.1 1294.2 650.8 1293.7Q651.6 1293.2 652.9 1293.2L652.9 1293.2Q654.6 1293.2 655.4 1294.1Q656.2 1295.0 656.2 1297.0L656.2 1297.0L656.2 1304L654.4 1304L654.4 1297.3Q654.4 1295.9 653.9 1295.2Q653.4 1294.6 652.3 1294.6L652.3 1294.6Q651.0 1294.6 650.3 1295.5Q649.5 1296.3 649.5 1297.8L649.5 1297.8L649.5 1304L647.8 1304L647.8 1289.5L649.5 1289.5L649.5 1293.3Q649.5 1293.7 649.5 1294.1Q649.5 1294.5 649.5 1294.9Q649.5 1295.2 649.5 1295.2L649.5 1295.2Z "/></g></svg>