<svg width="1080" height="1350" viewBox="0 0 1080 1350" xmlns="http://www.w3.org/2000/svg"><defs><pattern id="satori_pattern_id_0" x="0" y="0" width="1" height="1" patternUnits="objectBoundingBox"><linearGradient id="satori_biid_0" x1="0.06097560975609696" y1="-0.04878048780487766" x2="0.939024390243903" y2="1.0487804878048776" spreadMethod="pad"><stop offset="0%" stop-color="#E8F8F0"/><stop offset="100%" stop-color="#FFFFFF"/></linearGradient><rect x="0" y="0" width="1080" height="1350" fill="url(#satori_biid_0)"/></pattern></defs><clipPath id="satori_cp-id"><rect x="0" y="0" width="1080" height="1350"/></clipPath><mask id="satori_om-id"><rect x="0" y="0" width="1080" height="1350" fill="#fff"/></mask><rect x="0" y="0" width="1080" height="1350" fill="url(#satori_pattern_id_0)"/><mask id="satori_om-id-0"><rect x="680" y="-200" width="600" height="600" fill="#fff" mask="url(#satori_om-id)"/></mask><path x="680" y="-200" width="600" height="600" fill="rgba(22, 105, 122, 0.03)" d="M980,-200 h0 a300,300 0 0 1 300,300 v0 a300,300 0 0 1 -300,300 h0 a300,300 0 0 1 -300,-300 v0 a300,300 0 0 1 300,-300" clip-path="url(#satori_cp-id)" mask="url(#satori_om-id)"/><mask id="satori_om-id-1"><rect x="-150" y="1100" width="400" height="400" fill="#fff" mask="url(#satori_om-id)"/></mask><path x="-150" y="1100" width="400" height="400" fill="rgba(22, 105, 122, 0.02)" d="M50,1100 h0 a200,200 0 0 1 200,200 v0 a200,200 0 0 1 -200,200 h0 a200,200 0 0 1 -200,-200 v0 a200,200 0 0 1 200,-200" clip-path="url(#satori_cp-id)" mask="url(#satori_om-id)"/><mask id="satori_om-id-2"><rect x="985" y="32" width="63" height="39" fill="#fff" mask="url(#satori_om-id)"/></mask><path x="985" y="32" width="63" height="39" fill="rgba(22, 105, 122, 0.1)" d="M1004.5,32 h24 a19.5,19.5 0 0 1 19.5,19.5 v0 a19.5,19.5 0 0 1 -19.5,19.5 h-24 a19.5,19.5 0 0 1 -19.5,-19.5 v0 a19.5,19.5 0 0 1 19.5,-19.5" clip-path="url(#satori_cp-id)" mask="url(#satori_om-id)"/><g mask="url(#satori_om-id)" clip-path="url(#satori_cp-id)"><path fill="#2F3E46" d="M1004.6 52.6L1002.4 52.0L1003.2 44.8L1011.2 44.8L1011.2 47.1L1005.5 47.1L1005.2 50.2Q1006.2 49.7 1007.3 49.7L1007.3 49.7Q1009.3 49.7 1010.5 50.9Q1011.6 52.2 1011.6 54.4L1011.6 54.4Q1011.6 55.8 1011.1 56.9Q1010.5 58.0 1009.4 58.6Q1008.3 59.2 1006.8 59.2L1006.8 59.2Q1005.6 59.2 1004.4 58.7Q1003.3 58.2 1002.7 57.2Q1002.1 56.3 1002.0 55.0L1002.0 55.0L1004.8 55.0Q1004.9 55.9 1005.4 56.4Q1006.0 56.9 1006.8 56.9L1006.8 56.9Q1007.8 56.9 1008.3 56.2Q1008.8 55.5 1008.8 54.3L1008.8 54.3Q1008.8 53.1 1008.2 52.4Q1007.6 51.8 1006.5 51.8L1006.5 51.8Q1005.5 51.8 1004.9 52.3L1004.9 52.3L1004.6 52.6ZM1019.7 44.8L1014.4 60.2L1012.3 60.2L1017.6 44.8L1019.7 44.8ZM1028.1 44.6L1028.6 44.6L1028.6 47.0L1028.3 47.0Q1026.4 47.0 1025.2 48.0Q1024.0 48.9 1023.8 50.6L1023.8 50.6Q1024.9 49.5 1026.7 49.5L1026.7 49.5Q1028.5 49.5 1029.6 50.8Q1030.7 52.1 1030.7 54.3L1030.7 54.3Q1030.7 55.7 1030.1 56.8Q1029.5 57.9 1028.4 58.6Q1027.3 59.2 1025.9 59.2L1025.9 59.2Q1023.7 59.2 1022.3 57.6Q1020.9 56.1 1020.9 53.5L1020.9 53.5L1020.9 52.4Q1020.9 50.1 1021.8 48.4Q1022.7 46.6 1024.3 45.6Q1025.9 44.6 1028.1 44.6L1028.1 44.6ZM1025.8 51.8L1025.8 51.8Q1025.1 51.8 1024.6 52.1Q1024.0 52.5 1023.8 53.1L1023.8 53.1L1023.8 53.9Q1023.8 55.3 1024.3 56.1Q1024.9 56.9 1025.9 56.9L1025.9 56.9Q1026.8 56.9 1027.3 56.2Q1027.9 55.5 1027.9 54.3L1027.9 54.3Q1027.9 53.2 1027.3 52.5Q1026.8 51.8 1025.8 51.8Z "/></g><mask id="satori_om-id-3"><rect x="0" y="0" width="1080" height="1210" fill="#fff" mask="url(#satori_om-id)"/></mask><mask id="satori_om-id-3-0"><rect x="526" y="357" width="29" height="64" fill="#fff" mask="url(#satori_om-id)"/></mask><g mask="url(#satori_om-id)" clip-path="url(#satori_cp-id)"><path fill="black" d="M551.3 365.5L551.3 411L529.1 411L529.1 365.5L551.3 365.5ZM541 388.3L549.6 408.4L549.6 368.2L541 388.3ZM539.2 388.3L530.8 368.5L530.8 408L539.2 388.3ZM540.1 390.4L532.1 409.3L548.2 409.3L540.1 390.4ZM532.1 367.2L540.1 386.1L548.2 367.2L532.1 367.2Z "/></g><defs><pattern id="satori_pattern_id-3-1_0" x="0" y="0" width="1" height="1" patternUnits="objectBoundingBox"><linearGradient id="satori_biid-3-1_0" x1="-0.09169109519919282" y1="0.15918592916526564" x2="1.0916910951991927" y2="0.8408140708347345" spreadMethod="pad"><stop offset="0%" stop-color="#27AE60"/><stop offset="100%" stop-color="#2ECC71"/></linearGradient><rect x="0" y="0" width="375" height="216" fill="url(#satori_biid-3-1_0)"/></pattern></defs><mask id="satori_ms-id-3-1-0" maskUnits="userSpaceOnUse"><rect x="0" y="0" width="1080" height="1350" fill="#fff"/><path x="353" y="469" width="375" height="216" fill="#000"  stroke-width="0" d="M385,469 h311 a32,32 0 0 1 32,32 v152 a32,32 0 0 1 -32,32 h-311 a32,32 0 0 1 -32,-32 v-152 a32,32 0 0 1 32,-32" clip-path="url(#satori_cp-id)" mask="url(#satori_om-id)"/></mask><defs><filter id="satori_s-id-3-1-0" x="-240%" y="-416.6666666666667%" width="580%" height="933.3333333333334%"><feGaussianBlur stdDeviation="30" result="b"/><feFlood flood-color="rgba(22, 105, 122, 0.15)" in="SourceGraphic" result="f"/><feComposite in="f" in2="b" operator="in"/></filter></defs><g mask="url(#satori_ms-id-3-1-0)" filter="url(#satori_s-id-3-1-0)" opacity="1"><path x="353" y="489" width="375" height="216" fill="#fff" stroke="#fff" stroke-width="0" d="M385,489 h311 a32,32 0 0 1 32,32 v152 a32,32 0 0 1 -32,32 h-311 a32,32 0 0 1 -32,-32 v-152 a32,32 0 0 1 32,-32" clip-path="url(#satori_cp-id)" mask="url(#satori_om-id)"/></g><mask id="satori_om-id-3-1"><rect x="353" y="469" width="375" height="216" fill="#fff" mask="url(#satori_om-id)"/></mask><path x="353" y="469" width="375" height="216" fill="url(#satori_pattern_id-3-1_0)" d="M385,469 h311 a32,32 0 0 1 32,32 v152 a32,32 0 0 1 -32,32 h-311 a32,32 0 0 1 -32,-32 v-152 a32,32 0 0 1 32,-32" clip-path="url(#satori_cp-id)" mask="url(#satori_om-id)"/><mask id="satori_om-id-3-1-0"><rect x="433" y="517" width="215" height="120" fill="#fff" mask="url(#satori_om-id)"/></mask><g mask="url(#satori_om-id)" clip-path="url(#satori_cp-id)"><path fill="#FFFFFF" d="M497.3 604.3L497.3 618L438.8 618L438.8 606.4L466.4 577.0Q472.1 570.8 474.8 566.1Q477.5 561.5 477.5 557.4L477.5 557.4Q477.5 551.7 474.7 548.4Q471.8 545.2 466.5 545.2L466.5 545.2Q460.7 545.2 457.4 549.1Q454.1 553.1 454.1 559.5L454.1 559.5L437.1 559.5Q437.1 551.7 440.8 545.3Q444.5 538.8 451.3 535.2Q458.1 531.5 466.8 531.5L466.8 531.5Q479.9 531.5 487.2 537.8Q494.5 544.2 494.5 555.7L494.5 555.7Q494.5 562.0 491.2 568.6Q488.0 575.2 480.0 583.9L480.0 583.9L460.6 604.3L497.3 604.3ZM519.6 579.4L506.2 576.0L511.1 532.7L558.9 532.7L558.9 546.8L525.0 546.8L522.9 565.1Q528.9 561.9 535.7 561.9L535.7 561.9Q547.9 561.9 554.8 569.5Q561.7 577.0 561.7 590.6L561.7 590.6Q561.7 598.9 558.2 605.4Q554.7 612.0 548.2 615.6Q541.7 619.2 532.9 619.2L532.9 619.2Q525.2 619.2 518.5 616.0Q511.9 612.9 508.1 607.2Q504.2 601.5 504 594.3L504 594.3L520.8 594.3Q521.3 599.6 524.5 602.6Q527.7 605.5 532.8 605.5L532.8 605.5Q538.6 605.5 541.7 601.4Q544.8 597.3 544.8 589.7L544.8 589.7Q544.8 582.4 541.2 578.6Q537.6 574.7 531.1 574.7L531.1 574.7Q525.0 574.7 521.3 577.9L521.3 577.9L519.6 579.4ZM568.3 553.3L568.3 549.1Q568.3 541.2 573.4 536.3Q578.5 531.5 586.7 531.5L586.7 531.5Q595.1 531.5 600.2 536.3Q605.3 541.1 605.3 549.4L605.3 549.4L605.3 553.6Q605.3 561.5 600.2 566.3Q595.1 571.1 586.8 571.1L586.8 571.1Q578.5 571.1 573.4 566.3Q568.3 561.5 568.3 553.3L568.3 553.3ZM579.5 549.3L579.5 553.6Q579.5 557.1 581.5 559.3Q583.6 561.4 586.8 561.4Q590.1 561.4 592.1 559.2Q594.0 557.1 594.0 553.4L594.0 553.4L594.0 549.1Q594.0 545.6 592.1 543.4Q590.1 541.2 586.7 541.2L586.7 541.2Q583.5 541.2 581.5 543.4Q579.5 545.5 579.5 549.3L579.5 549.3ZM609.0 601.4L609.0 597.1Q609.0 589.2 614.2 584.3Q619.4 579.5 627.6 579.5L627.6 579.5Q635.9 579.5 641.0 584.3Q646.1 589.1 646.1 597.4L646.1 597.4L646.1 601.7Q646.1 609.5 641.1 614.3Q636.1 619.2 627.7 619.2L627.7 619.2Q619.2 619.2 614.1 614.3Q609.0 609.4 609.0 601.4L609.0 601.4ZM620.3 597.3L620.3 601.7Q620.3 604.9 622.4 607.2Q624.5 609.4 627.7 609.4L627.7 609.4Q634.8 609.4 634.8 601.5L634.8 601.5L634.8 597.1Q634.8 593.6 632.8 591.4Q630.8 589.3 627.6 589.3Q624.3 589.3 622.3 591.4Q620.3 593.6 620.3 597.3L620.3 597.3ZM631.8 544.9L590.2 611.6L581.9 607.2L623.6 540.5L631.8 544.9Z "/></g><mask id="satori_om-id-3-2"><rect x="174" y="717" width="733" height="52" fill="#fff" mask="url(#satori_om-id)"/></mask><g mask="url(#satori_om-id)" clip-path="url(#satori_cp-id)"><path fill="#2F3E46" d="M188.1 735.7L188.0 741.2Q186.9 741.0 186.0 741.0L186.0 741.0Q182.8 741.0 181.8 743.2L181.8 743.2L181.8 757L176.2 757L176.2 735.9L181.5 735.9L181.7 738.4Q183.4 735.5 186.4 735.5L186.4 735.5Q187.3 735.5 188.1 735.7L188.1 735.7ZM200.1 757.4L200.1 757.4Q195.5 757.4 192.5 754.5Q189.6 751.7 189.6 746.9L189.6 746.9L189.6 746.4Q189.6 743.2 190.9 740.7Q192.1 738.2 194.3 736.8Q196.6 735.5 199.5 735.5L199.5 735.5Q203.8 735.5 206.3 738.2Q208.8 740.9 208.8 746.0L208.8 746.0L208.8 748.3L195.3 748.3Q195.6 750.3 197.0 751.6Q198.4 752.8 200.5 752.8L200.5 752.8Q203.7 752.8 205.6 750.5L205.6 750.5L208.4 753.6Q207.1 755.4 204.9 756.4Q202.8 757.4 200.1 757.4ZM199.5 740.0L199.5 740.0Q197.8 740.0 196.7 741.2Q195.7 742.3 195.4 744.4L195.4 744.4L203.3 744.4L203.3 744.0Q203.2 742.1 202.2 741.1Q201.3 740.0 199.5 740.0ZM211.1 746.3L211.1 746.3Q211.1 741.3 213.3 738.4Q215.6 735.5 219.4 735.5L219.4 735.5Q222.5 735.5 224.5 737.8L224.5 737.8L224.5 727L230.2 727L230.2 757L225.1 757L224.8 754.8Q222.7 757.4 219.4 757.4L219.4 757.4Q215.6 757.4 213.4 754.5Q211.1 751.5 211.1 746.3ZM216.8 746.7L216.8 746.7Q216.8 749.7 217.8 751.2Q218.8 752.8 220.8 752.8L220.8 752.8Q223.4 752.8 224.5 750.6L224.5 750.6L224.5 742.3Q223.5 740.1 220.9 740.1L220.9 740.1Q216.8 740.1 216.8 746.7ZM247.4 757L247.2 754.9Q245.1 757.4 241.4 757.4L241.4 757.4Q238.0 757.4 236.2 755.4Q234.4 753.5 234.4 749.7L234.4 749.7L234.4 735.9L240.1 735.9L240.1 749.5Q240.1 752.8 243.1 752.8L243.1 752.8Q245.9 752.8 247.0 750.8L247.0 750.8L247.0 735.9L252.7 735.9L252.7 757L247.4 757ZM265.7 752.8L265.7 752.8Q267.3 752.8 268.3 752.0Q269.2 751.1 269.3 749.7L269.3 749.7L274.6 749.7Q274.5 751.8 273.4 753.6Q272.2 755.4 270.2 756.4Q268.2 757.4 265.8 757.4L265.8 757.4Q261.3 757.4 258.7 754.5Q256.1 751.6 256.1 746.6L256.1 746.6L256.1 746.2Q256.1 741.3 258.6 738.4Q261.2 735.5 265.8 735.5L265.8 735.5Q269.7 735.5 272.1 737.7Q274.5 740.0 274.6 743.7L274.6 743.7L269.3 743.7Q269.2 742.1 268.3 741.1Q267.3 740.0 265.7 740.0L265.7 740.0Q263.7 740.0 262.7 741.5Q261.7 742.9 261.7 746.1L261.7 746.1L261.7 746.7Q261.7 750.0 262.7 751.4Q263.7 752.8 265.7 752.8ZM278.9 730.7L284.5 730.7L284.5 735.9L288.2 735.9L288.2 740.0L284.5 740.0L284.5 750.6Q284.5 751.7 285.0 752.2Q285.4 752.7 286.7 752.7L286.7 752.7Q287.7 752.7 288.4 752.6L288.4 752.6L288.4 756.9Q286.7 757.4 285.0 757.4L285.0 757.4Q279.0 757.4 278.9 751.4L278.9 751.4L278.9 740.0L275.8 740.0L275.8 735.9L278.9 735.9L278.9 730.7ZM297.3 735.9L297.3 757L291.6 757L291.6 735.9L297.3 735.9ZM291.3 730.4L291.3 730.4Q291.3 729.1 292.1 728.3Q293.0 727.5 294.4 727.5L294.4 727.5Q295.9 727.5 296.7 728.3Q297.6 729.1 297.6 730.4L297.6 730.4Q297.6 731.7 296.7 732.5Q295.9 733.3 294.4 733.3Q293.0 733.3 292.1 732.5Q291.3 731.7 291.3 730.4ZM301.0 746.5L301.0 746.2Q301.0 743.1 302.2 740.6Q303.5 738.2 305.7 736.8Q308.0 735.5 311.0 735.5L311.0 735.5Q315.3 735.5 318.0 738.1Q320.7 740.7 321.0 745.2L321.0 745.2L321.1 746.6Q321.1 751.5 318.3 754.5Q315.6 757.4 311.1 757.4Q306.5 757.4 303.8 754.5Q301.0 751.5 301.0 746.5L301.0 746.5ZM306.7 746.6L306.7 746.6Q306.7 749.7 307.8 751.2Q308.9 752.8 311.1 752.8L311.1 752.8Q313.1 752.8 314.3 751.3Q315.4 749.7 315.4 746.2L315.4 746.2Q315.4 743.3 314.3 741.7Q313.1 740.0 311.0 740.0L311.0 740.0Q308.9 740.0 307.8 741.7Q306.7 743.3 306.7 746.6ZM324.4 735.9L329.7 735.9L329.9 738.3Q332.2 735.5 336.0 735.5L336.0 735.5Q339.3 735.5 341.0 737.4Q342.6 739.4 342.7 743.3L342.7 743.3L342.7 757L337.0 757L337.0 743.5Q337.0 741.7 336.2 740.9Q335.4 740.1 333.6 740.1L333.6 740.1Q331.2 740.1 330.1 742.1L330.1 742.1L330.1 757L324.4 757L324.4 735.9Z M363.2 735.9L363.2 757L357.6 757L357.6 735.9L363.2 735.9ZM357.2 730.4L357.2 730.4Q357.2 729.1 358.1 728.3Q358.9 727.5 360.4 727.5L360.4 727.5Q361.8 727.5 362.7 728.3Q363.6 729.1 363.6 730.4L363.6 730.4Q363.6 731.7 362.7 732.5Q361.8 733.3 360.4 733.3Q359.0 733.3 358.1 732.5Q357.2 731.7 357.2 730.4ZM367.8 735.9L373.1 735.9L373.2 738.3Q375.5 735.5 379.3 735.5L379.3 735.5Q382.7 735.5 384.3 737.4Q386.0 739.4 386.0 743.3L386.0 743.3L386.0 757L380.3 757L380.3 743.5Q380.3 741.7 379.6 740.9Q378.8 740.1 377.0 740.1L377.0 740.1Q374.6 740.1 373.4 742.1L373.4 742.1L373.4 757L367.8 757L367.8 735.9Z M400.2 735.9L405.5 735.9L405.7 738.2Q407.9 735.5 411.8 735.5L411.8 735.5Q415.9 735.5 417.4 738.7L417.4 738.7Q419.6 735.5 423.7 735.5L423.7 735.5Q427.2 735.5 428.8 737.5Q430.5 739.5 430.5 743.5L430.5 743.5L430.5 757L424.9 757L424.9 743.5Q424.9 741.7 424.2 740.9Q423.5 740.1 421.7 740.1L421.7 740.1Q419.1 740.1 418.2 742.5L418.2 742.5L418.2 757L412.5 757L412.5 743.5Q412.5 741.7 411.8 740.9Q411.1 740.1 409.4 740.1L409.4 740.1Q406.9 740.1 405.9 742.1L405.9 742.1L405.9 757L400.2 757L400.2 735.9ZM452.8 757L447.1 757Q446.7 756.2 446.5 755.1L446.5 755.1Q444.5 757.4 441.2 757.4L441.2 757.4Q438.1 757.4 436.1 755.6Q434.0 753.8 434.0 751.1L434.0 751.1Q434.0 747.7 436.5 745.9Q439 744.1 443.7 744.1L443.7 744.1L446.3 744.1L446.3 742.9Q446.3 741.4 445.6 740.5Q444.8 739.7 443.2 739.7L443.2 739.7Q441.8 739.7 440.9 740.3Q440.1 741.0 440.1 742.2L440.1 742.2L434.5 742.2Q434.5 740.4 435.6 738.8Q436.8 737.3 438.8 736.4Q440.9 735.5 443.5 735.5L443.5 735.5Q447.4 735.5 449.7 737.4Q452.0 739.4 452.0 743.0L452.0 743.0L452.0 752.1Q452.0 755.1 452.8 756.7L452.8 756.7L452.8 757ZM442.4 753.1L442.4 753.1Q443.7 753.1 444.7 752.5Q445.8 752.0 446.3 751.0L446.3 751.0L446.3 747.4L444.2 747.4Q440.0 747.4 439.7 750.3L439.7 750.3L439.7 750.7Q439.7 751.7 440.4 752.4Q441.1 753.1 442.4 753.1ZM456.6 735.9L462.3 735.9L462.3 758.2Q462.3 761.6 460.4 763.6Q458.6 765.5 455.1 765.5L455.1 765.5Q453.6 765.5 452.3 765.2L452.3 765.2L452.3 760.7Q453.3 760.9 454.1 760.9L454.1 760.9Q456.6 760.9 456.6 758.2L456.6 758.2L456.6 735.9ZM456.2 730.4L456.2 730.4Q456.2 729.1 457.0 728.3Q457.9 727.5 459.3 727.5Q460.8 727.5 461.6 728.3Q462.5 729.1 462.5 730.4L462.5 730.4Q462.5 731.7 461.6 732.5Q460.8 733.3 459.3 733.3Q457.9 733.3 457.0 732.5Q456.2 731.7 456.2 730.4ZM465.8 746.5L465.8 746.2Q465.8 743.1 467.0 740.6Q468.2 738.2 470.5 736.8Q472.8 735.5 475.8 735.5L475.8 735.5Q480.1 735.5 482.8 738.1Q485.5 740.7 485.8 745.2L485.8 745.2L485.8 746.6Q485.8 751.5 483.1 754.5Q480.4 757.4 475.8 757.4Q471.3 757.4 468.5 754.5Q465.8 751.5 465.8 746.5L465.8 746.5ZM471.5 746.6L471.5 746.6Q471.5 749.7 472.6 751.2Q473.7 752.8 475.8 752.8L475.8 752.8Q477.9 752.8 479.0 751.3Q480.2 749.7 480.2 746.2L480.2 746.2Q480.2 743.3 479.0 741.7Q477.9 740.0 475.8 740.0L475.8 740.0Q473.7 740.0 472.6 741.7Q471.5 743.3 471.5 746.6ZM501.3 735.7L501.2 741.2Q500.0 741.0 499.2 741.0L499.2 741.0Q496.0 741.0 495.0 743.2L495.0 743.2L495.0 757L489.3 757L489.3 735.9L494.6 735.9L494.8 738.4Q496.5 735.5 499.5 735.5L499.5 735.5Q500.4 735.5 501.3 735.7L501.3 735.7Z M522.7 752.8L522.7 752.8Q524.2 752.8 525.2 752.0Q526.2 751.1 526.2 749.7L526.2 749.7L531.5 749.7Q531.5 751.8 530.3 753.6Q529.2 755.4 527.2 756.4Q525.2 757.4 522.8 757.4L522.8 757.4Q518.2 757.4 515.6 754.5Q513.0 751.6 513.0 746.6L513.0 746.6L513.0 746.2Q513.0 741.3 515.6 738.4Q518.2 735.5 522.7 735.5L522.7 735.5Q526.7 735.5 529.1 737.7Q531.5 740.0 531.5 743.7L531.5 743.7L526.2 743.7Q526.2 742.1 525.2 741.1Q524.2 740.0 522.6 740.0L522.6 740.0Q520.6 740.0 519.6 741.5Q518.6 742.9 518.6 746.1L518.6 746.1L518.6 746.7Q518.6 750.0 519.6 751.4Q520.6 752.8 522.7 752.8ZM552.7 757L547.0 757Q546.6 756.2 546.4 755.1L546.4 755.1Q544.4 757.4 541.1 757.4L541.1 757.4Q538.0 757.4 535.9 755.6Q533.9 753.8 533.9 751.1L533.9 751.1Q533.9 747.7 536.4 745.9Q538.9 744.1 543.6 744.1L543.6 744.1L546.2 744.1L546.2 742.9Q546.2 741.4 545.4 740.5Q544.7 739.7 543.0 739.7L543.0 739.7Q541.6 739.7 540.8 740.3Q540.0 741.0 540.0 742.2L540.0 742.2L534.4 742.2Q534.4 740.4 535.5 738.8Q536.6 737.3 538.7 736.4Q540.8 735.5 543.3 735.5L543.3 735.5Q547.2 735.5 549.5 737.4Q551.8 739.4 551.8 743.0L551.8 743.0L551.8 752.1Q551.9 755.1 552.7 756.7L552.7 756.7L552.7 757ZM542.3 753.1L542.3 753.1Q543.6 753.1 544.6 752.5Q545.7 752.0 546.2 751.0L546.2 751.0L546.2 747.4L544.1 747.4Q539.8 747.4 539.5 750.3L539.5 750.3L539.5 750.7Q539.5 751.7 540.3 752.4Q541.0 753.1 542.3 753.1ZM568.1 735.7L568.0 741.2Q566.9 741.0 566.0 741.0L566.0 741.0Q562.8 741.0 561.8 743.2L561.8 743.2L561.8 757L556.2 757L556.2 735.9L561.5 735.9L561.7 738.4Q563.4 735.5 566.4 735.5L566.4 735.5Q567.3 735.5 568.1 735.7L568.1 735.7ZM569.5 746.3L569.5 746.3Q569.5 741.3 571.7 738.4Q573.9 735.5 577.8 735.5L577.8 735.5Q580.9 735.5 582.9 737.8L582.9 737.8L582.9 727L588.6 727L588.6 757L583.5 757L583.2 754.8Q581.1 757.4 577.8 757.4L577.8 757.4Q574.0 757.4 571.8 754.5Q569.5 751.5 569.5 746.3ZM575.2 746.7L575.2 746.7Q575.2 749.7 576.2 751.2Q577.2 752.8 579.2 752.8L579.2 752.8Q581.8 752.8 582.9 750.6L582.9 750.6L582.9 742.3Q581.8 740.1 579.2 740.1L579.2 740.1Q575.2 740.1 575.2 746.7ZM598.9 735.9L598.9 757L593.2 757L593.2 735.9L598.9 735.9ZM592.9 730.4L592.9 730.4Q592.9 729.1 593.7 728.3Q594.6 727.5 596.1 727.5L596.1 727.5Q597.5 727.5 598.4 728.3Q599.2 729.1 599.2 730.4L599.2 730.4Q599.2 731.7 598.3 732.5Q597.5 733.3 596.1 733.3Q594.6 733.3 593.8 732.5Q592.9 731.7 592.9 730.4ZM602.7 746.5L602.7 746.2Q602.7 743.1 603.9 740.6Q605.1 738.2 607.3 736.8Q609.6 735.5 612.6 735.5L612.6 735.5Q616.9 735.5 619.6 738.1Q622.3 740.7 622.6 745.2L622.6 745.2L622.7 746.6Q622.7 751.5 620.0 754.5Q617.2 757.4 612.7 757.4Q608.1 757.4 605.4 754.5Q602.7 751.5 602.7 746.5L602.7 746.5ZM608.3 746.6L608.3 746.6Q608.3 749.7 609.4 751.2Q610.6 752.8 612.7 752.8L612.7 752.8Q614.7 752.8 615.9 751.3Q617.0 749.7 617.0 746.2L617.0 746.2Q617.0 743.3 615.9 741.7Q614.7 740.0 612.6 740.0L612.6 740.0Q610.6 740.0 609.4 741.7Q608.3 743.3 608.3 746.6ZM629.8 735.9L633.8 750.1L637.7 735.9L643.6 735.9L636.5 757L631.1 757L623.9 735.9L629.8 735.9ZM663.7 757L658.0 757Q657.6 756.2 657.5 755.1L657.5 755.1Q655.4 757.4 652.1 757.4L652.1 757.4Q649.0 757.4 647.0 755.6Q644.9 753.8 644.9 751.1L644.9 751.1Q644.9 747.7 647.4 745.9Q649.9 744.1 654.6 744.1L654.6 744.1L657.2 744.1L657.2 742.9Q657.2 741.4 656.5 740.5Q655.7 739.7 654.1 739.7L654.1 739.7Q652.7 739.7 651.9 740.3Q651.1 741.0 651.1 742.2L651.1 742.2L645.4 742.2Q645.4 740.4 646.5 738.8Q647.7 737.3 649.7 736.4Q651.8 735.5 654.4 735.5L654.4 735.5Q658.3 735.5 660.6 737.4Q662.9 739.4 662.9 743.0L662.9 743.0L662.9 752.1Q662.9 755.1 663.7 756.7L663.7 756.7L663.7 757ZM653.4 753.1L653.4 753.1Q654.6 753.1 655.7 752.5Q656.7 752.0 657.2 751.0L657.2 751.0L657.2 747.4L655.1 747.4Q650.9 747.4 650.6 750.3L650.6 750.3L650.6 750.7Q650.6 751.7 651.3 752.4Q652.1 753.1 653.4 753.1ZM678.7 751.2L678.7 751.2Q678.7 750.1 677.6 749.5Q676.6 748.9 674.4 748.5L674.4 748.5Q666.8 746.9 666.8 742.1L666.8 742.1Q666.8 739.2 669.1 737.4Q671.5 735.5 675.3 735.5L675.3 735.5Q679.3 735.5 681.7 737.4Q684.1 739.3 684.1 742.3L684.1 742.3L678.5 742.3Q678.5 741.1 677.7 740.3Q676.9 739.5 675.2 739.5L675.2 739.5Q673.8 739.5 673.0 740.1Q672.2 740.8 672.2 741.8L672.2 741.8Q672.2 742.7 673.1 743.3Q674.0 743.9 676.1 744.3Q678.2 744.7 679.7 745.2L679.7 745.2Q684.2 746.9 684.2 750.9L684.2 750.9Q684.2 753.8 681.7 755.6Q679.2 757.4 675.3 757.4L675.3 757.4Q672.6 757.4 670.6 756.4Q668.5 755.5 667.3 753.8Q666.1 752.2 666.1 750.3L666.1 750.3L671.5 750.3Q671.6 751.8 672.6 752.6Q673.6 753.4 675.4 753.4L675.4 753.4Q677.0 753.4 677.8 752.8Q678.7 752.2 678.7 751.2ZM696.6 752.8L696.6 752.8Q698.1 752.8 699.1 752.0Q700.1 751.1 700.1 749.7L700.1 749.7L705.4 749.7Q705.4 751.8 704.3 753.6Q703.1 755.4 701.1 756.4Q699.1 757.4 696.7 757.4L696.7 757.4Q692.1 757.4 689.5 754.5Q686.9 751.6 686.9 746.6L686.9 746.6L686.9 746.2Q686.9 741.3 689.5 738.4Q692.1 735.5 696.6 735.5L696.6 735.5Q700.6 735.5 703.0 737.7Q705.4 740.0 705.4 743.7L705.4 743.7L700.1 743.7Q700.1 742.1 699.1 741.1Q698.1 740.0 696.5 740.0L696.5 740.0Q694.6 740.0 693.6 741.5Q692.6 742.9 692.6 746.1L692.6 746.1L692.6 746.7Q692.6 750.0 693.6 751.4Q694.5 752.8 696.6 752.8ZM721.5 757L721.3 754.9Q719.2 757.4 715.5 757.4L715.5 757.4Q712.1 757.4 710.3 755.4Q708.6 753.5 708.5 749.7L708.5 749.7L708.5 735.9L714.2 735.9L714.2 749.5Q714.2 752.8 717.2 752.8L717.2 752.8Q720.0 752.8 721.1 750.8L721.1 750.8L721.1 735.9L726.8 735.9L726.8 757L721.5 757ZM737.0 727L737.0 757L731.3 757L731.3 727L737.0 727ZM759.6 757L753.9 757Q753.5 756.2 753.3 755.1L753.3 755.1Q751.3 757.4 748.0 757.4L748.0 757.4Q744.9 757.4 742.8 755.6Q740.8 753.8 740.8 751.1L740.8 751.1Q740.8 747.7 743.3 745.9Q745.8 744.1 750.5 744.1L750.5 744.1L753.1 744.1L753.1 742.9Q753.1 741.4 752.3 740.5Q751.6 739.7 750.0 739.7L750.0 739.7Q748.5 739.7 747.7 740.3Q746.9 741.0 746.9 742.2L746.9 742.2L741.3 742.2Q741.3 740.4 742.4 738.8Q743.5 737.3 745.6 736.4Q747.7 735.5 750.3 735.5L750.3 735.5Q754.2 735.5 756.5 737.4Q758.7 739.4 758.7 743.0L758.7 743.0L758.7 752.1Q758.8 755.1 759.6 756.7L759.6 756.7L759.6 757ZM749.2 753.1L749.2 753.1Q750.5 753.1 751.5 752.5Q752.6 752.0 753.1 751.0L753.1 751.0L753.1 747.4L751.0 747.4Q746.7 747.4 746.5 750.3L746.5 750.3L746.4 750.7Q746.4 751.7 747.2 752.4Q747.9 753.1 749.2 753.1ZM775.0 735.7L775.0 741.2Q773.8 741.0 772.9 741.0L772.9 741.0Q769.7 741.0 768.7 743.2L768.7 743.2L768.7 757L763.1 757L763.1 735.9L768.4 735.9L768.6 738.4Q770.3 735.5 773.3 735.5L773.3 735.5Q774.2 735.5 775.0 735.7L775.0 735.7Z M798.3 757.4L798.3 757.4Q793.7 757.4 790.7 754.5Q787.8 751.7 787.8 746.9L787.8 746.9L787.8 746.4Q787.8 743.2 789.1 740.7Q790.3 738.2 792.5 736.8Q794.8 735.5 797.7 735.5L797.7 735.5Q802.0 735.5 804.5 738.2Q807.0 740.9 807.0 746.0L807.0 746.0L807.0 748.3L793.6 748.3Q793.8 750.3 795.2 751.6Q796.6 752.8 798.7 752.8L798.7 752.8Q801.9 752.8 803.8 750.5L803.8 750.5L806.6 753.6Q805.3 755.4 803.1 756.4Q801.0 757.4 798.3 757.4ZM797.7 740.0L797.7 740.0Q796.0 740.0 794.9 741.2Q793.9 742.3 793.6 744.4L793.6 744.4L801.5 744.4L801.5 744.0Q801.4 742.1 800.4 741.1Q799.5 740.0 797.7 740.0ZM813.9 735.9L817.9 750.1L821.8 735.9L827.7 735.9L820.6 757L815.2 757L808.0 735.9L813.9 735.9ZM839.6 757.4L839.6 757.4Q835.0 757.4 832.1 754.5Q829.2 751.7 829.2 746.9L829.2 746.9L829.2 746.4Q829.2 743.2 830.4 740.7Q831.6 738.2 833.9 736.8Q836.1 735.5 839.0 735.5L839.0 735.5Q843.4 735.5 845.8 738.2Q848.3 740.9 848.3 746.0L848.3 746.0L848.3 748.3L834.9 748.3Q835.2 750.3 836.5 751.6Q837.9 752.8 840.0 752.8L840.0 752.8Q843.3 752.8 845.1 750.5L845.1 750.5L847.9 753.6Q846.6 755.4 844.4 756.4Q842.3 757.4 839.6 757.4ZM839 740.0L839 740.0Q837.3 740.0 836.3 741.2Q835.2 742.3 834.9 744.4L834.9 744.4L842.8 744.4L842.8 744.0Q842.8 742.1 841.8 741.1Q840.8 740.0 839 740.0ZM851.4 735.9L856.7 735.9L856.9 738.3Q859.2 735.5 863.0 735.5L863.0 735.5Q866.3 735.5 868.0 737.4Q869.6 739.4 869.7 743.3L869.7 743.3L869.7 757L864.0 757L864.0 743.5Q864.0 741.7 863.2 740.9Q862.5 740.1 860.6 740.1L860.6 740.1Q858.3 740.1 857.1 742.1L857.1 742.1L857.1 757L851.4 757L851.4 735.9ZM875.1 730.7L880.7 730.7L880.7 735.9L884.3 735.9L884.3 740.0L880.7 740.0L880.7 750.6Q880.7 751.7 881.1 752.2Q881.6 752.7 882.9 752.7L882.9 752.7Q883.8 752.7 884.5 752.6L884.5 752.6L884.5 756.9Q882.9 757.4 881.1 757.4L881.1 757.4Q875.2 757.4 875.1 751.4L875.1 751.4L875.1 740.0L872.0 740.0L872.0 735.9L875.1 735.9L875.1 730.7ZM898.9 751.2L898.9 751.2Q898.9 750.1 897.9 749.5Q896.9 748.9 894.6 748.5L894.6 748.5Q887.0 746.9 887.0 742.1L887.0 742.1Q887.0 739.2 889.4 737.4Q891.7 735.5 895.5 735.5L895.5 735.5Q899.5 735.5 901.9 737.4Q904.3 739.3 904.3 742.3L904.3 742.3L898.7 742.3Q898.7 741.1 897.9 740.3Q897.1 739.5 895.5 739.5L895.5 739.5Q894.0 739.5 893.3 740.1Q892.5 740.8 892.5 741.8L892.5 741.8Q892.5 742.7 893.4 743.3Q894.3 743.9 896.4 744.3Q898.5 744.7 899.9 745.2L899.9 745.2Q904.4 746.9 904.4 750.9L904.4 750.9Q904.4 753.8 901.9 755.6Q899.4 757.4 895.5 757.4L895.5 757.4Q892.8 757.4 890.8 756.4Q888.7 755.5 887.6 753.8Q886.4 752.2 886.4 750.3L886.4 750.3L891.7 750.3Q891.8 751.8 892.8 752.6Q893.9 753.4 895.6 753.4L895.6 753.4Q897.2 753.4 898.1 752.8Q898.9 752.2 898.9 751.2Z "/></g><mask id="satori_om-id-3-3"><rect x="257" y="801" width="566" height="52" fill="#fff" mask="url(#satori_om-id)"/></mask><path x="257" y="801" width="566" height="52" fill="rgba(22, 105, 122, 0.08)" d="M269,801 h542 a12,12 0 0 1 12,12 v28 a12,12 0 0 1 -12,12 h-542 a12,12 0 0 1 -12,-12 v-28 a12,12 0 0 1 12,-12" clip-path="url(#satori_cp-id)" mask="url(#satori_om-id)"/><g mask="url(#satori_om-id)" clip-path="url(#satori_cp-id)"><path fill="#27AE60" d="M289.3 828.3L285.2 828.3L285.2 835L283.0 835L283.0 817.9L289.3 817.9Q292.1 817.9 293.7 819.4Q295.3 820.8 295.3 823.2L295.3 823.2Q295.3 825.6 293.7 827.0Q292.1 828.3 289.3 828.3L289.3 828.3ZM285.2 819.8L285.2 826.5L289.3 826.5Q291.1 826.5 292.0 825.6Q293 824.8 293 823.2L293 823.2Q293 821.7 292.0 820.7Q291.1 819.8 289.4 819.8L289.4 819.8L285.2 819.8ZM302.9 835.2L302.9 835.2Q300.3 835.2 298.7 833.5Q297.1 831.8 297.1 829.0L297.1 829.0L297.1 828.6Q297.1 826.7 297.8 825.2Q298.5 823.8 299.8 822.9Q301.1 822.1 302.6 822.1L302.6 822.1Q305.1 822.1 306.5 823.7Q307.8 825.3 307.8 828.4L307.8 828.4L307.8 829.3L299.2 829.3Q299.3 831.2 300.3 832.3Q301.4 833.5 303.0 833.5L303.0 833.5Q304.2 833.5 305.0 833.0Q305.8 832.5 306.3 831.8L306.3 831.8L307.7 832.8Q306.1 835.2 302.9 835.2ZM302.6 823.9L302.6 823.9Q301.3 823.9 300.4 824.8Q299.5 825.8 299.3 827.5L299.3 827.5L305.7 827.5L305.7 827.3Q305.6 825.7 304.8 824.8Q304.0 823.9 302.6 823.9ZM316.5 822.3L316.5 824.3Q316.0 824.2 315.4 824.2L315.4 824.2Q313.3 824.2 312.5 826L312.5 826L312.5 835L310.3 835L310.3 822.3L312.5 822.3L312.5 823.8Q313.6 822.1 315.5 822.1L315.5 822.1Q316.1 822.1 316.5 822.3L316.5 822.3Z M331.5 817.9L331.5 835L329.3 835L329.3 820.6L324.9 822.2L324.9 820.2L331.1 817.9L331.5 817.9Z M344.0 822.3L346.0 822.3L346.1 823.7Q347.5 822.1 349.8 822.1L349.8 822.1Q352.5 822.1 353.5 824.1L353.5 824.1Q354.1 823.2 355.1 822.6Q356.1 822.1 357.5 822.1L357.5 822.1Q361.7 822.1 361.7 826.5L361.7 826.5L361.7 835L359.6 835L359.6 826.6Q359.6 825.3 359.0 824.6Q358.3 823.9 356.9 823.9L356.9 823.9Q355.7 823.9 354.9 824.6Q354.1 825.4 353.9 826.6L353.9 826.6L353.9 835L351.8 835L351.8 826.7Q351.8 823.9 349.1 823.9L349.1 823.9Q346.9 823.9 346.1 825.7L346.1 825.7L346.1 835L344.0 835L344.0 822.3ZM365 822.3L367.1 822.3L367.1 823.7Q368.5 822.1 370.9 822.1L370.9 822.1Q373.5 822.1 374.5 824.1L374.5 824.1Q375.1 823.2 376.1 822.6Q377.2 822.1 378.5 822.1L378.5 822.1Q382.7 822.1 382.8 826.5L382.8 826.5L382.8 835L380.6 835L380.6 826.6Q380.6 825.3 380.0 824.6Q379.4 823.9 377.9 823.9L377.9 823.9Q376.7 823.9 375.9 824.6Q375.1 825.4 375.0 826.6L375.0 826.6L375.0 835L372.8 835L372.8 826.7Q372.8 823.9 370.1 823.9L370.1 823.9Q368.0 823.9 367.2 825.7L367.2 825.7L367.2 835L365 835L365 822.3ZM385.5 828.7L385.5 828.5Q385.5 826.7 386.2 825.2Q386.9 823.7 388.2 822.9Q389.6 822.1 391.2 822.1L391.2 822.1Q393.8 822.1 395.4 823.9Q397.0 825.7 397.0 828.6L397.0 828.6L397.0 828.8Q397.0 830.7 396.3 832.1Q395.6 833.6 394.3 834.4Q393.0 835.2 391.3 835.2L391.3 835.2Q388.7 835.2 387.1 833.4Q385.5 831.6 385.5 828.7L385.5 828.7ZM387.7 828.8L387.7 828.8Q387.7 830.9 388.6 832.2Q389.6 833.5 391.3 833.5L391.3 833.5Q392.9 833.5 393.9 832.2Q394.8 830.9 394.8 828.5L394.8 828.5Q394.8 826.5 393.9 825.2Q392.9 823.9 391.2 823.9L391.2 823.9Q389.6 823.9 388.6 825.1Q387.7 826.4 387.7 828.8ZM402.1 817L402.1 835L399.9 835L399.9 817L402.1 817ZM413.1 817.9L406.0 836.5L404.1 836.5L411.3 817.9L413.1 817.9ZM418.1 817.9L418.1 833.2L426.1 833.2L426.1 835L415.8 835L415.8 817.9L418.1 817.9Z M436.9 817.9L436.9 833.2L445.0 833.2L445.0 835L434.6 835L434.6 817.9L436.9 817.9ZM452.3 835L447.6 835L447.6 817.9L452.4 817.9Q454.6 817.9 456.3 818.9Q458.0 819.9 459.0 821.7Q459.9 823.5 459.9 825.9L459.9 825.9L459.9 827.0Q459.9 829.4 459.0 831.2Q458.0 833.0 456.3 834.0Q454.6 835.0 452.3 835L452.3 835ZM452.4 819.8L449.8 819.8L449.8 833.2L452.2 833.2Q454.8 833.2 456.2 831.5Q457.7 829.9 457.7 826.9L457.7 826.9L457.7 825.9Q457.7 823.0 456.3 821.4Q454.9 819.8 452.4 819.8L452.4 819.8ZM465.6 817.9L465.6 833.2L473.6 833.2L473.6 835L463.3 835L463.3 817.9L465.6 817.9Z M487.9 822.3L487.9 824.3Q487.4 824.2 486.9 824.2L486.9 824.2Q484.7 824.2 484.0 826L484.0 826L484.0 835L481.8 835L481.8 822.3L483.9 822.3L484.0 823.8Q485.0 822.1 487.0 822.1L487.0 822.1Q487.6 822.1 487.9 822.3L487.9 822.3ZM495.0 835.2L495.0 835.2Q492.4 835.2 490.8 833.5Q489.2 831.8 489.2 829.0L489.2 829.0L489.2 828.6Q489.2 826.7 489.9 825.2Q490.6 823.8 491.9 822.9Q493.2 822.1 494.7 822.1L494.7 822.1Q497.2 822.1 498.5 823.7Q499.9 825.3 499.9 828.4L499.9 828.4L499.9 829.3L491.3 829.3Q491.4 831.2 492.4 832.3Q493.5 833.5 495.1 833.5L495.1 833.5Q496.2 833.5 497.0 833.0Q497.8 832.5 498.4 831.8L498.4 831.8L499.8 832.8Q498.2 835.2 495.0 835.2ZM494.7 823.9L494.7 823.9Q493.4 823.9 492.5 824.8Q491.6 825.8 491.4 827.5L491.4 827.5L497.8 827.5L497.8 827.3Q497.7 825.7 496.9 824.8Q496.1 823.9 494.7 823.9ZM501.9 828.7L501.9 828.6Q501.9 825.6 503.3 823.9Q504.7 822.1 506.9 822.1L506.9 822.1Q509.1 822.1 510.4 823.6L510.4 823.6L510.4 817L512.6 817L512.6 835L510.6 835L510.5 833.6Q509.2 835.2 506.9 835.2L506.9 835.2Q504.7 835.2 503.3 833.4Q501.9 831.6 501.9 828.7L501.9 828.7ZM504.1 828.8L504.1 828.8Q504.1 831.0 505.0 832.2Q505.8 833.4 507.4 833.4L507.4 833.4Q509.5 833.4 510.4 831.5L510.4 831.5L510.4 825.7Q509.5 823.9 507.4 823.9L507.4 823.9Q505.8 823.9 505.0 825.2Q504.1 826.4 504.1 828.8ZM523.8 835L523.8 833.7Q522.5 835.2 520.1 835.2L520.1 835.2Q518.0 835.2 517.0 834.1Q515.9 832.9 515.9 830.6L515.9 830.6L515.9 822.3L518.1 822.3L518.1 830.5Q518.1 833.4 520.4 833.4L520.4 833.4Q522.9 833.4 523.7 831.5L523.7 831.5L523.7 822.3L525.9 822.3L525.9 835L523.8 835ZM534.3 833.5L534.3 833.5Q535.4 833.5 536.3 832.8Q537.2 832.1 537.3 831.0L537.3 831.0L539.3 831.0Q539.3 832.1 538.6 833.1Q537.9 834.1 536.7 834.6Q535.6 835.2 534.3 835.2L534.3 835.2Q531.7 835.2 530.2 833.5Q528.6 831.8 528.6 828.8L528.6 828.8L528.6 828.4Q528.6 826.6 529.3 825.1Q530.0 823.7 531.3 822.9Q532.5 822.1 534.3 822.1L534.3 822.1Q536.4 822.1 537.8 823.4Q539.2 824.6 539.3 826.7L539.3 826.7L537.3 826.7Q537.2 825.4 536.3 824.7Q535.5 823.9 534.3 823.9L534.3 823.9Q532.6 823.9 531.7 825.1Q530.8 826.2 530.8 828.5L530.8 828.5L530.8 828.9Q530.8 831.1 531.7 832.3Q532.6 833.5 534.3 833.5ZM542.5 819.3L544.7 819.3L544.7 822.3L547.1 822.3L547.1 824.0L544.7 824.0L544.7 831.9Q544.7 832.6 545.0 833.0Q545.3 833.4 546.1 833.4L546.1 833.4Q546.5 833.4 547.1 833.2L547.1 833.2L547.1 835Q546.3 835.2 545.5 835.2L545.5 835.2Q544.0 835.2 543.3 834.4Q542.5 833.5 542.5 831.9L542.5 831.9L542.5 824.0L540.2 824.0L540.2 822.3L542.5 822.3L542.5 819.3ZM551.9 822.3L551.9 835L549.8 835L549.8 822.3L551.9 822.3ZM549.6 819.0L549.6 819.0Q549.6 818.4 549.9 818.1Q550.3 817.7 550.9 817.7Q551.5 817.7 551.8 818.1Q552.2 818.4 552.2 819.0Q552.2 819.5 551.8 819.8Q551.5 820.2 550.9 820.2Q550.3 820.2 549.9 819.8Q549.6 819.5 549.6 819.0ZM554.8 828.7L554.8 828.5Q554.8 826.7 555.6 825.2Q556.3 823.7 557.6 822.9Q558.9 822.1 560.6 822.1L560.6 822.1Q563.2 822.1 564.8 823.9Q566.4 825.7 566.4 828.6L566.4 828.6L566.4 828.8Q566.4 830.7 565.7 832.1Q565.0 833.6 563.7 834.4Q562.3 835.2 560.6 835.2L560.6 835.2Q558.0 835.2 556.4 833.4Q554.8 831.6 554.8 828.7L554.8 828.7ZM557.0 828.8L557.0 828.8Q557.0 830.9 558.0 832.2Q559.0 833.5 560.6 833.5L560.6 833.5Q562.3 833.5 563.2 832.2Q564.2 830.9 564.2 828.5L564.2 828.5Q564.2 826.5 563.2 825.2Q562.2 823.9 560.6 823.9L560.6 823.9Q559.0 823.9 558.0 825.1Q557.0 826.4 557.0 828.8ZM569.1 822.3L571.2 822.3L571.2 823.9Q572.7 822.1 575.0 822.1L575.0 822.1Q579.0 822.1 579.1 826.6L579.1 826.6L579.1 835L576.9 835L576.9 826.6Q576.9 825.2 576.3 824.6Q575.7 823.9 574.4 823.9L574.4 823.9Q573.3 823.9 572.5 824.5Q571.7 825.1 571.3 826.0L571.3 826.0L571.3 835L569.1 835L569.1 822.3Z M593.0 826.9L593.0 828.6L587.3 828.6L587.3 826.9L593.0 826.9Z M611.7 829.6L614.0 829.6Q613.6 832.3 612.0 833.8Q610.3 835.2 607.5 835.2L607.5 835.2Q604.5 835.2 602.7 833.1Q600.8 830.9 600.8 827.3L600.8 827.3L600.8 825.6Q600.8 823.2 601.7 821.4Q602.5 819.6 604.1 818.7Q605.6 817.7 607.7 817.7L607.7 817.7Q610.4 817.7 612.1 819.2Q613.7 820.7 614.0 823.4L614.0 823.4L611.7 823.4Q611.4 821.4 610.4 820.5Q609.5 819.6 607.7 819.6L607.7 819.6Q605.5 819.6 604.3 821.1Q603.1 822.7 603.1 825.7L603.1 825.7L603.1 827.3Q603.1 830.1 604.3 831.8Q605.4 833.4 607.5 833.4L607.5 833.4Q609.4 833.4 610.4 832.5Q611.4 831.7 611.7 829.6L611.7 829.6ZM628.5 817.9L628.5 819.8L623 819.8L623 835L620.8 835L620.8 819.8L615.3 819.8L615.3 817.9L628.5 817.9ZM643.0 817.9L643.0 819.8L637.5 819.8L637.5 835L635.3 835L635.3 819.8L629.8 819.8L629.8 817.9L643.0 817.9Z M651.3 822.3L653.3 822.3L653.4 823.7Q654.8 822.1 657.1 822.1L657.1 822.1Q659.8 822.1 660.8 824.1L660.8 824.1Q661.4 823.2 662.4 822.6Q663.4 822.1 664.8 822.1L664.8 822.1Q669.0 822.1 669.0 826.5L669.0 826.5L669.0 835L666.9 835L666.9 826.6Q666.9 825.3 666.3 824.6Q665.6 823.9 664.2 823.9L664.2 823.9Q663.0 823.9 662.2 824.6Q661.4 825.4 661.2 826.6L661.2 826.6L661.2 835L659.1 835L659.1 826.7Q659.1 823.9 656.4 823.9L656.4 823.9Q654.2 823.9 653.4 825.7L653.4 825.7L653.4 835L651.3 835L651.3 822.3ZM677.6 835.2L677.6 835.2Q675.0 835.2 673.4 833.5Q671.8 831.8 671.8 829.0L671.8 829.0L671.8 828.6Q671.8 826.7 672.5 825.2Q673.2 823.8 674.5 822.9Q675.8 822.1 677.3 822.1L677.3 822.1Q679.8 822.1 681.1 823.7Q682.5 825.3 682.5 828.4L682.5 828.4L682.5 829.3L673.9 829.3Q674.0 831.2 675.0 832.3Q676.1 833.5 677.7 833.5L677.7 833.5Q678.8 833.5 679.6 833.0Q680.4 832.5 681.0 831.8L681.0 831.8L682.4 832.8Q680.8 835.2 677.6 835.2ZM677.3 823.9L677.3 823.9Q676.0 823.9 675.1 824.8Q674.2 825.8 674 827.5L674 827.5L680.4 827.5L680.4 827.3Q680.3 825.7 679.5 824.8Q678.7 823.9 677.3 823.9ZM685.8 819.3L688.0 819.3L688.0 822.3L690.3 822.3L690.3 824.0L688.0 824.0L688.0 831.9Q688.0 832.6 688.3 833.0Q688.6 833.4 689.4 833.4L689.4 833.4Q689.7 833.4 690.4 833.2L690.4 833.2L690.4 835Q689.5 835.2 688.7 835.2L688.7 835.2Q687.3 835.2 686.5 834.4Q685.8 833.5 685.8 831.9L685.8 831.9L685.8 824.0L683.5 824.0L683.5 822.3L685.8 822.3L685.8 819.3ZM703.0 835L700.7 835Q700.5 834.6 700.4 833.7L700.4 833.7Q698.9 835.2 696.8 835.2L696.8 835.2Q694.9 835.2 693.7 834.2Q692.5 833.1 692.5 831.5L692.5 831.5Q692.5 829.5 694.0 828.4Q695.5 827.3 698.2 827.3L698.2 827.3L700.4 827.3L700.4 826.3Q700.4 825.2 699.7 824.5Q699.0 823.8 697.7 823.8L697.7 823.8Q696.5 823.8 695.7 824.4Q694.9 825.0 694.9 825.8L694.9 825.8L692.8 825.8Q692.8 824.9 693.4 824.0Q694.1 823.1 695.3 822.6Q696.4 822.1 697.8 822.1L697.8 822.1Q700.0 822.1 701.2 823.2Q702.5 824.3 702.5 826.2L702.5 826.2L702.5 832.0Q702.5 833.8 703.0 834.8L703.0 834.8L703.0 835ZM697.1 833.3L697.1 833.3Q698.1 833.3 699.0 832.8Q699.9 832.3 700.4 831.4L700.4 831.4L700.4 828.8L698.7 828.8Q694.7 828.8 694.7 831.2L694.7 831.2Q694.7 832.2 695.4 832.8Q696.0 833.3 697.1 833.3ZM710.4 826.9L710.4 828.6L704.7 828.6L704.7 826.9L710.4 826.9ZM722.6 835L720.4 835Q720.2 834.6 720.1 833.7L720.1 833.7Q718.6 835.2 716.5 835.2L716.5 835.2Q714.6 835.2 713.4 834.2Q712.2 833.1 712.2 831.5L712.2 831.5Q712.2 829.5 713.7 828.4Q715.2 827.3 717.9 827.3L717.9 827.3L720.0 827.3L720.0 826.3Q720.0 825.2 719.4 824.5Q718.7 823.8 717.3 823.8L717.3 823.8Q716.2 823.8 715.4 824.4Q714.6 825.0 714.6 825.8L714.6 825.8L712.4 825.8Q712.4 824.9 713.1 824.0Q713.8 823.1 714.9 822.6Q716.1 822.1 717.5 822.1L717.5 822.1Q719.7 822.1 720.9 823.2Q722.2 824.3 722.2 826.2L722.2 826.2L722.2 832.0Q722.2 833.8 722.6 834.8L722.6 834.8L722.6 835ZM716.8 833.3L716.8 833.3Q717.8 833.3 718.7 832.8Q719.6 832.3 720.0 831.4L720.0 831.4L720.0 828.8L718.3 828.8Q714.3 828.8 714.3 831.2L714.3 831.2Q714.3 832.2 715.0 832.8Q715.7 833.3 716.8 833.3ZM725.6 822.3L727.6 822.3L727.7 823.9Q729.2 822.1 731.5 822.1L731.5 822.1Q735.5 822.1 735.6 826.6L735.6 826.6L735.6 835L733.4 835L733.4 826.6Q733.4 825.2 732.8 824.6Q732.2 823.9 730.9 823.9L730.9 823.9Q729.8 823.9 729.0 824.5Q728.2 825.1 727.8 826.0L727.8 826.0L727.8 835L725.6 835L725.6 822.3ZM748.9 835L746.7 835Q746.5 834.6 746.4 833.7L746.4 833.7Q744.9 835.2 742.8 835.2L742.8 835.2Q740.9 835.2 739.7 834.2Q738.5 833.1 738.5 831.5L738.5 831.5Q738.5 829.5 740.0 828.4Q741.5 827.3 744.2 827.3L744.2 827.3L746.3 827.3L746.3 826.3Q746.3 825.2 745.6 824.5Q745.0 823.8 743.6 823.8L743.6 823.8Q742.5 823.8 741.7 824.4Q740.9 825.0 740.9 825.8L740.9 825.8L738.7 825.8Q738.7 824.9 739.4 824.0Q740.1 823.1 741.2 822.6Q742.4 822.1 743.8 822.1L743.8 822.1Q746.0 822.1 747.2 823.2Q748.4 824.3 748.5 826.2L748.5 826.2L748.5 832.0Q748.5 833.8 748.9 834.8L748.9 834.8L748.9 835ZM743.1 833.3L743.1 833.3Q744.1 833.3 745.0 832.8Q745.9 832.3 746.3 831.4L746.3 831.4L746.3 828.8L744.6 828.8Q740.6 828.8 740.6 831.2L740.6 831.2Q740.6 832.2 741.3 832.8Q742.0 833.3 743.1 833.3ZM754.3 817L754.3 835L752.1 835L752.1 817L754.3 817ZM758.7 822.3L761.9 831.8L764.8 822.3L767.1 822.3L762.0 837.0Q760.9 840.1 758.3 840.1L758.3 840.1L757.9 840.1L757.1 839.9L757.1 838.2L757.6 838.2Q758.8 838.2 759.4 837.8Q760.0 837.3 760.4 836.1L760.4 836.1L760.9 834.9L756.3 822.3L758.7 822.3ZM776.5 831.6L776.5 831.6Q776.5 830.8 775.8 830.3Q775.1 829.8 773.5 829.4Q771.8 829.1 770.9 828.6Q769.9 828.1 769.4 827.4Q769.0 826.7 769.0 825.8L769.0 825.8Q769.0 824.2 770.3 823.2Q771.6 822.1 773.7 822.1L773.7 822.1Q775.8 822.1 777.2 823.2Q778.5 824.3 778.5 826.0L778.5 826.0L776.3 826.0Q776.3 825.2 775.6 824.5Q774.8 823.9 773.7 823.9L773.7 823.9Q772.5 823.9 771.8 824.4Q771.1 824.9 771.1 825.7L771.1 825.7Q771.1 826.5 771.8 826.9Q772.4 827.3 774.0 827.7Q775.6 828.0 776.6 828.5Q777.7 829.0 778.1 829.8Q778.6 830.5 778.6 831.5L778.6 831.5Q778.6 833.2 777.3 834.2Q775.9 835.2 773.7 835.2L773.7 835.2Q772.2 835.2 771.0 834.7Q769.9 834.2 769.2 833.2Q768.5 832.2 768.5 831.1L768.5 831.1L770.7 831.1Q770.8 832.2 771.6 832.8Q772.4 833.5 773.7 833.5L773.7 833.5Q775.0 833.5 775.7 833.0Q776.5 832.5 776.5 831.6ZM783.8 822.3L783.8 835L781.6 835L781.6 822.3L783.8 822.3ZM781.5 819.0L781.5 819.0Q781.5 818.4 781.8 818.1Q782.1 817.7 782.7 817.7Q783.4 817.7 783.7 818.1Q784.0 818.4 784.0 819.0Q784.0 819.5 783.7 819.8Q783.4 820.2 782.7 820.2Q782.1 820.2 781.8 819.8Q781.5 819.5 781.5 819.0ZM794.7 831.6L794.7 831.6Q794.7 830.8 794.0 830.3Q793.3 829.8 791.7 829.4Q790.0 829.1 789.1 828.6Q788.1 828.1 787.6 827.4Q787.2 826.7 787.2 825.8L787.2 825.8Q787.2 824.2 788.5 823.2Q789.8 822.1 791.9 822.1L791.9 822.1Q794.0 822.1 795.4 823.2Q796.7 824.3 796.7 826.0L796.7 826.0L794.5 826.0Q794.5 825.2 793.8 824.5Q793.0 823.9 791.9 823.9L791.9 823.9Q790.7 823.9 790.0 824.4Q789.3 824.9 789.3 825.7L789.3 825.7Q789.3 826.5 790.0 826.9Q790.6 827.3 792.2 827.7Q793.8 828.0 794.8 828.5Q795.9 829.0 796.3 829.8Q796.8 830.5 796.8 831.5L796.8 831.5Q796.8 833.2 795.5 834.2Q794.1 835.2 791.9 835.2L791.9 835.2Q790.4 835.2 789.2 834.7Q788.1 834.2 787.4 833.2Q786.7 832.2 786.7 831.1L786.7 831.1L788.9 831.1Q789.0 832.2 789.8 832.8Q790.6 833.5 791.9 833.5L791.9 833.5Q793.2 833.5 793.9 833.0Q794.7 832.5 794.7 831.6Z "/></g><defs><clipPath id="satori_bc-id-4" clip-path="url(#satori_cp-id)"><rect x="0" y="1210" width="1080" height="140"/></clipPath></defs><mask id="satori_om-id-4"><rect x="0" y="1213" width="1080" height="137" fill="#fff" mask="url(#satori_om-id)"/><path width="1080" height="140" fill="none" stroke="#000" stroke-width="6" d="M0,1210 A0,0 0 0 1 0,1210 h1080 A0,0 0 0 1 1080,1210"/></mask><rect x="0" y="1210" width="1080" height="140" fill="#FFFFFF" clip-path="url(#satori_cp-id)" mask="url(#satori_om-id)"/><path width="1080" height="140" clip-path="url(#satori_bc-id-4)" fill="none" stroke="#16697A" stroke-width="6" d="M0,1210 A0,0 0 0 1 0,1210 h1080 A0,0 0 0 1 1080,1210"/><mask id="satori_om-id-4-0"><rect x="389" y="1242" width="80" height="80" fill="#fff" mask="url(#satori_om-id)"/></mask><path x="389" y="1242" width="80" height="80" fill="#16697A" d="M429,1242 h0 a40,40 0 0 1 40,40 v0 a40,40 0 0 1 -40,40 h0 a40,40 0 0 1 -40,-40 v0 a40,40 0 0 1 40,-40" clip-path="url(#satori_cp-id)" mask="url(#satori_om-id)"/><mask id="satori_om-id-4-0-0"><rect x="417" y="1261" width="24" height="42" fill="#fff" mask="url(#satori_om-id)"/></mask><g mask="url(#satori_om-id)" clip-path="url(#satori_cp-id)"><path fill="#FFFFFF" d="M427.2 1294L419.3 1294L419.3 1268.4L427.2 1268.4Q430.5 1268.4 433.2 1269.9Q435.9 1271.4 437.4 1274.3Q438.8 1277.1 438.8 1280.6L438.8 1280.6L438.8 1281.8Q438.8 1285.4 437.4 1288.1Q435.9 1290.9 433.2 1292.5Q430.6 1294.0 427.2 1294L427.2 1294ZM427.2 1272.7L424.6 1272.7L424.6 1289.8L427.1 1289.8Q430.2 1289.8 431.8 1287.7Q433.5 1285.7 433.5 1282.0L433.5 1282.0L433.5 1280.6Q433.5 1276.7 431.9 1274.7Q430.3 1272.7 427.2 1272.7L427.2 1272.7Z "/></g><mask id="satori_om-id-4-1"><rect x="493" y="1254" width="198" height="55" fill="#fff" mask="url(#satori_om-id)"/></mask><mask id="satori_om-id-4-1-0"><rect x="493" y="1254" width="198" height="28" fill="#fff" mask="url(#satori_om-id)"/></mask><g mask="url(#satori_om-id)" clip-path="url(#satori_cp-id)"><path fill="#2F3E46" d="M499.8 1276L494.5 1276L494.5 1258.9L499.8 1258.9Q502.0 1258.9 503.8 1260.0Q505.6 1261.0 506.6 1262.8Q507.6 1264.7 507.6 1267.1L507.6 1267.1L507.6 1267.9Q507.6 1270.2 506.6 1272.1Q505.6 1273.9 503.8 1275.0Q502.0 1276.0 499.8 1276L499.8 1276ZM499.8 1261.8L498.0 1261.8L498.0 1273.2L499.7 1273.2Q501.8 1273.2 502.9 1271.8Q504.0 1270.5 504.0 1268.0L504.0 1268.0L504.0 1267.1Q504.0 1264.5 502.9 1263.1Q501.8 1261.8 499.8 1261.8L499.8 1261.8ZM517.1 1263.2L517.0 1266.5Q516.3 1266.4 515.8 1266.4L515.8 1266.4Q513.9 1266.4 513.3 1267.7L513.3 1267.7L513.3 1276L509.9 1276L509.9 1263.3L513.1 1263.3L513.2 1264.8Q514.2 1263.1 516.0 1263.1L516.0 1263.1Q516.6 1263.1 517.1 1263.2L517.1 1263.2ZM516.8 1274.3L516.8 1274.3Q516.8 1273.5 517.3 1273.0Q517.9 1272.5 518.7 1272.5L518.7 1272.5Q519.5 1272.5 520.1 1273.0Q520.6 1273.5 520.6 1274.3L520.6 1274.3Q520.6 1275.1 520.1 1275.6Q519.6 1276.1 518.7 1276.1L518.7 1276.1Q517.9 1276.1 517.3 1275.6Q516.8 1275.1 516.8 1274.3Z M540.7 1271.5L540.7 1271.5Q540.7 1270.5 540.0 1270.0Q539.3 1269.5 537.4 1268.9Q535.6 1268.3 534.5 1267.7L534.5 1267.7Q531.6 1266.1 531.6 1263.5L531.6 1263.5Q531.6 1262.1 532.4 1261.0Q533.2 1259.9 534.7 1259.3Q536.1 1258.7 537.9 1258.7L537.9 1258.7Q539.8 1258.7 541.2 1259.4Q542.6 1260.0 543.4 1261.2Q544.2 1262.4 544.2 1264.0L544.2 1264.0L540.7 1264.0Q540.7 1262.8 539.9 1262.2Q539.2 1261.5 537.9 1261.5L537.9 1261.5Q536.6 1261.5 535.9 1262.0Q535.2 1262.6 535.2 1263.5L535.2 1263.5Q535.2 1264.3 536.0 1264.9Q536.8 1265.4 538.5 1265.9L538.5 1265.9Q541.5 1266.8 542.8 1268.2Q544.2 1269.5 544.2 1271.5L544.2 1271.5Q544.2 1273.7 542.5 1275.0Q540.8 1276.2 538.0 1276.2L538.0 1276.2Q536.0 1276.2 534.4 1275.5Q532.8 1274.8 532.0 1273.5Q531.1 1272.3 531.1 1270.6L531.1 1270.6L534.6 1270.6Q534.6 1273.5 538.0 1273.5L538.0 1273.5Q539.3 1273.5 540.0 1272.9Q540.7 1272.4 540.7 1271.5ZM549.7 1258L549.7 1264.7Q551.0 1263.1 553.0 1263.1L553.0 1263.1Q557.2 1263.1 557.2 1267.9L557.2 1267.9L557.2 1276L553.8 1276L553.8 1268.0Q553.8 1266.9 553.4 1266.4Q552.9 1265.8 551.8 1265.8L551.8 1265.8Q550.3 1265.8 549.7 1267.0L549.7 1267.0L549.7 1276L546.3 1276L546.3 1258L549.7 1258ZM570.6 1276L567.1 1276Q566.9 1275.5 566.8 1274.9L566.8 1274.9Q565.6 1276.2 563.6 1276.2L563.6 1276.2Q561.7 1276.2 560.5 1275.2Q559.3 1274.1 559.3 1272.4L559.3 1272.4Q559.3 1270.4 560.8 1269.3Q562.3 1268.3 565.1 1268.3L565.1 1268.3L566.7 1268.3L566.7 1267.5Q566.7 1266.6 566.2 1266.1Q565.8 1265.6 564.8 1265.6L564.8 1265.6Q563.9 1265.6 563.4 1266.0Q562.9 1266.4 562.9 1267.1L562.9 1267.1L559.6 1267.1Q559.6 1266.0 560.2 1265.1Q560.9 1264.2 562.2 1263.6Q563.4 1263.1 565.0 1263.1L565.0 1263.1Q567.3 1263.1 568.7 1264.3Q570.1 1265.4 570.1 1267.6L570.1 1267.6L570.1 1273.1Q570.1 1274.9 570.6 1275.8L570.6 1275.8L570.6 1276ZM564.3 1273.6L564.3 1273.6Q565.1 1273.6 565.7 1273.3Q566.3 1273.0 566.7 1272.4L566.7 1272.4L566.7 1270.2L565.4 1270.2Q562.8 1270.2 562.7 1272.0L562.7 1272.0L562.7 1272.2Q562.7 1272.8 563.1 1273.2Q563.6 1273.6 564.3 1273.6ZM576.2 1263.3L576.2 1276L572.8 1276L572.8 1263.3L576.2 1263.3ZM572.6 1260.0L572.6 1260.0Q572.6 1259.3 573.1 1258.8Q573.6 1258.3 574.5 1258.3L574.5 1258.3Q575.4 1258.3 575.9 1258.8Q576.4 1259.3 576.4 1260.0L576.4 1260.0Q576.4 1260.8 575.9 1261.3Q575.4 1261.8 574.5 1261.8Q573.7 1261.8 573.2 1261.3Q572.6 1260.8 572.6 1260.0ZM582.6 1258L582.6 1276L579.2 1276L579.2 1258L582.6 1258ZM591.2 1276.2L591.2 1276.2Q588.4 1276.2 586.7 1274.5Q584.9 1272.8 584.9 1270.0L584.9 1270.0L584.9 1269.6Q584.9 1267.7 585.7 1266.2Q586.4 1264.7 587.8 1263.9Q589.1 1263.1 590.8 1263.1L590.8 1263.1Q593.4 1263.1 594.9 1264.7Q596.4 1266.4 596.4 1269.4L596.4 1269.4L596.4 1270.8L588.4 1270.8Q588.5 1272.0 589.3 1272.8Q590.2 1273.5 591.4 1273.5L591.4 1273.5Q593.4 1273.5 594.5 1272.1L594.5 1272.1L596.2 1273.9Q595.4 1275.0 594.1 1275.6Q592.8 1276.2 591.2 1276.2ZM590.8 1265.8L590.8 1265.8Q589.8 1265.8 589.2 1266.5Q588.6 1267.2 588.4 1268.5L588.4 1268.5L593.1 1268.5L593.1 1268.2Q593.1 1267.1 592.5 1266.4Q591.9 1265.8 590.8 1265.8ZM605.2 1272.5L605.2 1272.5Q605.2 1271.9 604.6 1271.5Q604.0 1271.2 602.6 1270.9L602.6 1270.9Q598.1 1269.9 598.1 1267.0L598.1 1267.0Q598.1 1265.3 599.5 1264.2Q600.9 1263.1 603.2 1263.1L603.2 1263.1Q605.6 1263.1 607.0 1264.2Q608.5 1265.4 608.5 1267.2L608.5 1267.2L605.1 1267.2Q605.1 1266.4 604.6 1266.0Q604.2 1265.5 603.2 1265.5L603.2 1265.5Q602.3 1265.5 601.8 1265.9Q601.4 1266.3 601.4 1266.9L601.4 1266.9Q601.4 1267.4 601.9 1267.8Q602.4 1268.1 603.7 1268.4Q605.0 1268.6 605.8 1268.9L605.8 1268.9Q608.5 1269.9 608.5 1272.4L608.5 1272.4Q608.5 1274.1 607.0 1275.2Q605.5 1276.2 603.2 1276.2L603.2 1276.2Q601.6 1276.2 600.3 1275.7Q599.1 1275.1 598.4 1274.1Q597.7 1273.1 597.7 1272.0L597.7 1272.0L600.9 1272.0Q601.0 1272.9 601.6 1273.4Q602.2 1273.8 603.3 1273.8L603.3 1273.8Q604.2 1273.8 604.7 1273.5Q605.2 1273.1 605.2 1272.5ZM614.0 1258L614.0 1264.7Q615.3 1263.1 617.4 1263.1L617.4 1263.1Q621.5 1263.1 621.6 1267.9L621.6 1267.9L621.6 1276L618.2 1276L618.2 1268.0Q618.2 1266.9 617.7 1266.4Q617.2 1265.8 616.2 1265.8L616.2 1265.8Q614.7 1265.8 614.0 1267.0L614.0 1267.0L614.0 1276L610.6 1276L610.6 1258L614.0 1258Z M639.2 1271.5L639.2 1271.5Q639.2 1270.5 638.5 1270.0Q637.8 1269.5 635.9 1268.9Q634.1 1268.3 633.0 1267.7L633.0 1267.7Q630.1 1266.1 630.1 1263.5L630.1 1263.5Q630.1 1262.1 630.9 1261.0Q631.7 1259.9 633.2 1259.3Q634.6 1258.7 636.4 1258.7L636.4 1258.7Q638.3 1258.7 639.7 1259.4Q641.1 1260.0 641.9 1261.2Q642.7 1262.4 642.7 1264.0L642.7 1264.0L639.2 1264.0Q639.2 1262.8 638.4 1262.2Q637.7 1261.5 636.4 1261.5L636.4 1261.5Q635.1 1261.5 634.4 1262.0Q633.6 1262.6 633.6 1263.5L633.6 1263.5Q633.6 1264.3 634.5 1264.9Q635.3 1265.4 637.0 1265.9L637.0 1265.9Q640.0 1266.8 641.3 1268.2Q642.7 1269.5 642.7 1271.5L642.7 1271.5Q642.7 1273.7 641.0 1275.0Q639.3 1276.2 636.5 1276.2L636.5 1276.2Q634.5 1276.2 632.9 1275.5Q631.3 1274.8 630.5 1273.5Q629.6 1272.3 629.6 1270.6L629.6 1270.6L633.1 1270.6Q633.1 1273.5 636.5 1273.5L636.5 1273.5Q637.8 1273.5 638.5 1272.9Q639.2 1272.4 639.2 1271.5ZM648.4 1263.3L648.4 1276L645.0 1276L645.0 1263.3L648.4 1263.3ZM644.8 1260.0L644.8 1260.0Q644.8 1259.3 645.3 1258.8Q645.8 1258.3 646.7 1258.3L646.7 1258.3Q647.6 1258.3 648.1 1258.8Q648.6 1259.3 648.6 1260.0L648.6 1260.0Q648.6 1260.8 648.1 1261.3Q647.6 1261.8 646.7 1261.8Q645.9 1261.8 645.3 1261.3Q644.8 1260.8 644.8 1260.0ZM651.1 1263.3L654.3 1263.3L654.4 1264.8Q655.8 1263.1 658.1 1263.1L658.1 1263.1Q660.1 1263.1 661.1 1264.3Q662.1 1265.5 662.1 1267.8L662.1 1267.8L662.1 1276L658.7 1276L658.7 1267.9Q658.7 1266.8 658.2 1266.3Q657.8 1265.8 656.7 1265.8L656.7 1265.8Q655.2 1265.8 654.5 1267.1L654.5 1267.1L654.5 1276L651.1 1276L651.1 1263.3ZM664.2 1269.7L664.2 1269.6Q664.2 1266.6 665.6 1264.9Q666.9 1263.1 669.3 1263.1L669.3 1263.1Q671.4 1263.1 672.5 1264.5L672.5 1264.5L672.7 1263.3L675.8 1263.3L675.8 1275.6Q675.8 1277.2 675.0 1278.5Q674.2 1279.7 672.9 1280.3Q671.5 1281.0 669.7 1281.0L669.7 1281.0Q668.3 1281.0 666.9 1280.4Q665.6 1279.9 664.9 1279L664.9 1279L666.4 1276.9Q667.7 1278.4 669.5 1278.4L669.5 1278.4Q670.9 1278.4 671.6 1277.6Q672.4 1276.9 672.4 1275.6L672.4 1275.6L672.4 1274.9Q671.2 1276.2 669.3 1276.2L669.3 1276.2Q667.0 1276.2 665.6 1274.4Q664.2 1272.7 664.2 1269.7L664.2 1269.7ZM667.6 1269.8L667.6 1269.8Q667.6 1271.5 668.2 1272.5Q668.9 1273.5 670.1 1273.5L670.1 1273.5Q671.7 1273.5 672.4 1272.3L672.4 1272.3L672.4 1267Q671.7 1265.8 670.2 1265.8L670.2 1265.8Q668.9 1265.8 668.2 1266.8Q667.6 1267.8 667.6 1269.8ZM681.7 1258L681.7 1264.7Q683.0 1263.1 685.0 1263.1L685.0 1263.1Q689.2 1263.1 689.2 1267.9L689.2 1267.9L689.2 1276L685.8 1276L685.8 1268.0Q685.8 1266.9 685.4 1266.4Q684.9 1265.8 683.8 1265.8L683.8 1265.8Q682.3 1265.8 681.7 1267.0L681.7 1267.0L681.7 1276L678.3 1276L678.3 1258L681.7 1258Z "/></g><mask id="satori_om-id-4-1-1"><rect x="493" y="1286" width="198" height="23" fill="#fff" mask="url(#satori_om-id)"/></mask><g mask="url(#satori_om-id)" clip-path="url(#satori_cp-id)"><path fill="#16697A" d="M510.0 1300.1L510.0 1300.1Q509.9 1302.5 508.8 1303.8Q507.7 1305.2 506.0 1305.2L506.0 1305.2Q504.2 1305.2 503.6 1303.6L503.6 1303.6Q503.1 1304.4 502.4 1304.8Q501.8 1305.2 501.0 1305.2L501.0 1305.2Q499.6 1305.2 498.9 1304.1Q498.2 1302.9 498.4 1300.9L498.4 1300.9Q498.5 1299.3 499.1 1298.1Q499.7 1296.8 500.7 1296.1Q501.6 1295.3 502.6 1295.3L502.6 1295.3Q503.4 1295.3 504.0 1295.6Q504.7 1295.8 505.4 1296.4L505.4 1296.4L504.9 1301.8Q504.7 1304.0 506.2 1304.0L506.2 1304.0Q507.3 1304.0 508.0 1302.9Q508.7 1301.9 508.7 1300.1L508.7 1300.1Q508.9 1296.3 507.3 1294.3Q505.7 1292.3 502.4 1292.3L502.4 1292.3Q500.5 1292.3 499.0 1293.3Q497.4 1294.3 496.6 1296.1Q495.7 1297.9 495.6 1300.3L495.6 1300.3Q495.5 1302.8 496.2 1304.5Q496.9 1306.3 498.3 1307.3Q499.7 1308.2 501.8 1308.2L501.8 1308.2Q502.7 1308.2 503.5 1308.0Q504.4 1307.8 505.0 1307.4L505.0 1307.4L505.4 1308.6Q504.8 1308.9 503.8 1309.2Q502.8 1309.4 501.7 1309.4L501.7 1309.4Q499.3 1309.4 497.5 1308.3Q495.8 1307.2 494.9 1305.2Q494.0 1303.1 494.2 1300.3L494.2 1300.3Q494.3 1297.6 495.4 1295.5Q496.4 1293.4 498.3 1292.2Q500.1 1291.0 502.5 1291.0L502.5 1291.0Q504.9 1291.0 506.7 1292.1Q508.4 1293.2 509.2 1295.3Q510.1 1297.3 510.0 1300.1ZM500.0 1300.9L500.0 1300.9Q499.8 1302.3 500.2 1303.1Q500.6 1303.8 501.5 1303.8L501.5 1303.8Q502.1 1303.8 502.6 1303.3Q503.1 1302.8 503.5 1301.9L503.5 1301.9L503.5 1301.8L503.9 1296.9Q503.4 1296.6 502.8 1296.6L502.8 1296.6Q501.6 1296.6 500.9 1297.8Q500.1 1298.9 500.0 1300.9ZM514.1 1290L514.1 1295.7Q515.3 1294.2 517.3 1294.2L517.3 1294.2Q520.6 1294.2 520.6 1298.0L520.6 1298.0L520.6 1305L518.8 1305L518.8 1298.0Q518.8 1296.9 518.3 1296.3Q517.8 1295.8 516.7 1295.8L516.7 1295.8Q515.8 1295.8 515.2 1296.2Q514.5 1296.7 514.1 1297.5L514.1 1297.5L514.1 1305L512.3 1305L512.3 1290L514.1 1290ZM527.7 1305.2L527.7 1305.2Q525.6 1305.2 524.2 1303.8Q522.9 1302.4 522.9 1300.0L522.9 1300.0L522.9 1299.7Q522.9 1298.1 523.5 1296.9Q524.1 1295.6 525.2 1294.9Q526.2 1294.2 527.5 1294.2L527.5 1294.2Q529.6 1294.2 530.7 1295.6Q531.8 1297.0 531.8 1299.5L531.8 1299.5L531.8 1300.2L524.7 1300.2Q524.7 1301.8 525.6 1302.8Q526.5 1303.7 527.8 1303.7L527.8 1303.7Q528.8 1303.7 529.4 1303.3Q530.1 1302.9 530.6 1302.3L530.6 1302.3L531.7 1303.2Q530.4 1305.2 527.7 1305.2ZM527.5 1295.7L527.5 1295.7Q526.4 1295.7 525.7 1296.5Q524.9 1297.3 524.7 1298.8L524.7 1298.8L530.0 1298.8L530.0 1298.6Q530.0 1297.2 529.3 1296.5Q528.6 1295.7 527.5 1295.7ZM542.4 1305L540.5 1305Q540.3 1304.7 540.2 1303.9L540.2 1303.9Q538.9 1305.2 537.2 1305.2L537.2 1305.2Q535.6 1305.2 534.6 1304.3Q533.6 1303.4 533.6 1302.1L533.6 1302.1Q533.6 1300.4 534.9 1299.5Q536.1 1298.6 538.4 1298.6L538.4 1298.6L540.2 1298.6L540.2 1297.8Q540.2 1296.8 539.6 1296.3Q539.0 1295.7 537.9 1295.7L537.9 1295.7Q537.0 1295.7 536.3 1296.2Q535.7 1296.7 535.7 1297.4L535.7 1297.4L533.8 1297.4Q533.8 1296.6 534.4 1295.8Q535.0 1295.1 535.9 1294.7Q536.9 1294.2 538.0 1294.2L538.0 1294.2Q539.9 1294.2 540.9 1295.2Q541.9 1296.1 542.0 1297.7L542.0 1297.7L542.0 1302.5Q542.0 1304.0 542.4 1304.8L542.4 1304.8L542.4 1305ZM537.5 1303.6L537.5 1303.6Q538.3 1303.6 539.1 1303.2Q539.8 1302.7 540.2 1302.0L540.2 1302.0L540.2 1299.9L538.8 1299.9Q535.4 1299.9 535.4 1301.8L535.4 1301.8Q535.4 1302.7 536.0 1303.1Q536.6 1303.6 537.5 1303.6ZM549.9 1294.4L549.9 1296.1Q549.5 1296.0 549.0 1296.0L549.0 1296.0Q547.3 1296.0 546.6 1297.5L546.6 1297.5L546.6 1305L544.8 1305L544.8 1294.4L546.6 1294.4L546.6 1295.7Q547.5 1294.2 549.1 1294.2L549.1 1294.2Q549.7 1294.2 549.9 1294.4L549.9 1294.4ZM552.7 1291.9L554.5 1291.9L554.5 1294.4L556.5 1294.4L556.5 1295.8L554.5 1295.8L554.5 1302.4Q554.5 1303.0 554.8 1303.3Q555.1 1303.7 555.7 1303.7L555.7 1303.7Q556.0 1303.7 556.5 1303.5L556.5 1303.5L556.5 1305Q555.8 1305.2 555.2 1305.2L555.2 1305.2Q553.9 1305.2 553.3 1304.5Q552.7 1303.7 552.7 1302.4L552.7 1302.4L552.7 1295.8L550.8 1295.8L550.8 1294.4L552.7 1294.4L552.7 1291.9ZM558.2 1299.8L558.2 1299.6Q558.2 1297.2 559.3 1295.7Q560.5 1294.2 562.3 1294.2L562.3 1294.2Q564.2 1294.2 565.3 1295.5L565.3 1295.5L565.3 1290L567.1 1290L567.1 1305L565.4 1305L565.3 1303.9Q564.3 1305.2 562.3 1305.2L562.3 1305.2Q560.5 1305.2 559.3 1303.7Q558.2 1302.2 558.2 1299.8L558.2 1299.8ZM560.0 1299.8L560.0 1299.8Q560.0 1301.6 560.7 1302.6Q561.5 1303.7 562.8 1303.7L562.8 1303.7Q564.5 1303.7 565.3 1302.1L565.3 1302.1L565.3 1297.3Q564.5 1295.8 562.8 1295.8L562.8 1295.8Q561.5 1295.8 560.7 1296.8Q560.0 1297.8 560.0 1299.8ZM569.4 1299.7L569.4 1299.6Q569.4 1298.1 570.0 1296.8Q570.6 1295.6 571.7 1294.9Q572.8 1294.2 574.2 1294.2L574.2 1294.2Q576.4 1294.2 577.7 1295.7Q579.0 1297.2 579.0 1299.7L579.0 1299.7L579.0 1299.8Q579.0 1301.4 578.4 1302.6Q577.8 1303.8 576.7 1304.5Q575.6 1305.2 574.2 1305.2L574.2 1305.2Q572.1 1305.2 570.7 1303.7Q569.4 1302.2 569.4 1299.7L569.4 1299.7ZM571.2 1299.8L571.2 1299.8Q571.2 1301.6 572.0 1302.7Q572.9 1303.7 574.2 1303.7L574.2 1303.7Q575.6 1303.7 576.4 1302.6Q577.2 1301.6 577.2 1299.6L577.2 1299.6Q577.2 1297.9 576.4 1296.8Q575.6 1295.7 574.2 1295.7L574.2 1295.7Q572.9 1295.7 572.0 1296.8Q571.2 1297.9 571.2 1299.8ZM585.5 1303.7L585.5 1303.7Q586.5 1303.7 587.2 1303.1Q587.9 1302.5 588.0 1301.7L588.0 1301.7L589.7 1301.7Q589.7 1302.6 589.1 1303.4Q588.5 1304.2 587.6 1304.7Q586.6 1305.2 585.5 1305.2L585.5 1305.2Q583.4 1305.2 582.1 1303.8Q580.8 1302.3 580.8 1299.8L580.8 1299.8L580.8 1299.5Q580.8 1298.0 581.4 1296.8Q582.0 1295.6 583.0 1294.9Q584.1 1294.2 585.5 1294.2L585.5 1294.2Q587.3 1294.2 588.5 1295.3Q589.7 1296.4 589.7 1298.1L589.7 1298.1L588.0 1298.1Q587.9 1297.0 587.2 1296.4Q586.5 1295.7 585.5 1295.7L585.5 1295.7Q584.1 1295.7 583.4 1296.7Q582.6 1297.7 582.6 1299.6L582.6 1299.6L582.6 1299.9Q582.6 1301.7 583.4 1302.7Q584.1 1303.7 585.5 1303.7ZM597.9 1302.2L597.9 1302.2Q597.9 1301.5 597.4 1301.1Q596.8 1300.7 595.4 1300.4Q594.1 1300.1 593.3 1299.7Q592.5 1299.2 592.1 1298.7Q591.7 1298.1 591.7 1297.3L591.7 1297.3Q591.7 1296.0 592.8 1295.1Q593.9 1294.2 595.6 1294.2L595.6 1294.2Q597.4 1294.2 598.5 1295.2Q599.6 1296.1 599.6 1297.5L599.6 1297.5L597.8 1297.5Q597.8 1296.8 597.2 1296.3Q596.5 1295.7 595.6 1295.7L595.6 1295.7Q594.6 1295.7 594.0 1296.2Q593.5 1296.6 593.5 1297.3L593.5 1297.3Q593.5 1297.9 594.0 1298.3Q594.5 1298.6 595.9 1298.9Q597.2 1299.2 598.1 1299.6Q598.9 1300.0 599.3 1300.6Q599.7 1301.2 599.7 1302.1L599.7 1302.1Q599.7 1303.5 598.6 1304.3Q597.5 1305.2 595.6 1305.2L595.6 1305.2Q594.4 1305.2 593.4 1304.7Q592.4 1304.3 591.9 1303.5Q591.3 1302.7 591.3 1301.7L591.3 1301.7L593.1 1301.7Q593.2 1302.7 593.9 1303.2Q594.5 1303.7 595.6 1303.7L595.6 1303.7Q596.7 1303.7 597.3 1303.3Q597.9 1302.9 597.9 1302.2ZM603.9 1290L603.9 1295.7Q605.1 1294.2 607.0 1294.2L607.0 1294.2Q610.4 1294.2 610.4 1298.0L610.4 1298.0L610.4 1305L608.6 1305L608.6 1298.0Q608.6 1296.9 608.1 1296.3Q607.5 1295.8 606.5 1295.8L606.5 1295.8Q605.6 1295.8 604.9 1296.2Q604.3 1296.7 603.9 1297.5L603.9 1297.5L603.9 1305L602.1 1305L602.1 1290L603.9 1290ZM621.5 1305L619.6 1305Q619.5 1304.7 619.4 1303.9L619.4 1303.9Q618.1 1305.2 616.3 1305.2L616.3 1305.2Q614.8 1305.2 613.8 1304.3Q612.8 1303.4 612.8 1302.1L612.8 1302.1Q612.8 1300.4 614.0 1299.5Q615.3 1298.6 617.6 1298.6L617.6 1298.6L619.3 1298.6L619.3 1297.8Q619.3 1296.8 618.8 1296.3Q618.2 1295.7 617.1 1295.7L617.1 1295.7Q616.1 1295.7 615.5 1296.2Q614.8 1296.7 614.8 1297.4L614.8 1297.4L613 1297.4Q613 1296.6 613.6 1295.8Q614.1 1295.1 615.1 1294.7Q616.0 1294.2 617.2 1294.2L617.2 1294.2Q619.0 1294.2 620.1 1295.2Q621.1 1296.1 621.1 1297.7L621.1 1297.7L621.1 1302.5Q621.1 1304.0 621.5 1304.8L621.5 1304.8L621.5 1305ZM616.6 1303.6L616.6 1303.6Q617.5 1303.6 618.2 1303.2Q619.0 1302.7 619.3 1302.0L619.3 1302.0L619.3 1299.9L617.9 1299.9Q614.6 1299.9 614.6 1301.8L614.6 1301.8Q614.6 1302.7 615.2 1303.1Q615.7 1303.6 616.6 1303.6ZM625.9 1294.4L625.9 1305L624.1 1305L624.1 1294.4L625.9 1294.4ZM624.0 1291.6L624.0 1291.6Q624.0 1291.2 624.2 1290.9Q624.5 1290.6 625.0 1290.6Q625.6 1290.6 625.8 1290.9Q626.1 1291.2 626.1 1291.6Q626.1 1292.1 625.8 1292.4Q625.6 1292.7 625.0 1292.7Q624.5 1292.7 624.2 1292.4Q624.0 1292.1 624.0 1291.6ZM630.8 1290L630.8 1305L629.0 1305L629.0 1290L630.8 1290ZM638.1 1305.2L638.1 1305.2Q635.9 1305.2 634.6 1303.8Q633.2 1302.4 633.2 1300.0L633.2 1300.0L633.2 1299.7Q633.2 1298.1 633.8 1296.9Q634.4 1295.6 635.5 1294.9Q636.6 1294.2 637.8 1294.2L637.8 1294.2Q639.9 1294.2 641.0 1295.6Q642.2 1297.0 642.2 1299.5L642.2 1299.5L642.2 1300.2L635.0 1300.2Q635.1 1301.8 635.9 1302.8Q636.8 1303.7 638.2 1303.7L638.2 1303.7Q639.1 1303.7 639.8 1303.3Q640.4 1302.9 640.9 1302.3L640.9 1302.3L642.0 1303.2Q640.7 1305.2 638.1 1305.2ZM637.8 1295.7L637.8 1295.7Q636.7 1295.7 636.0 1296.5Q635.3 1297.3 635.1 1298.8L635.1 1298.8L640.4 1298.8L640.4 1298.6Q640.3 1297.2 639.6 1296.5Q639.0 1295.7 637.8 1295.7ZM650.4 1302.2L650.4 1302.2Q650.4 1301.5 649.9 1301.1Q649.3 1300.7 647.9 1300.4Q646.6 1300.1 645.8 1299.7Q645.0 1299.2 644.6 1298.7Q644.2 1298.1 644.2 1297.3L644.2 1297.3Q644.2 1296.0 645.3 1295.1Q646.4 1294.2 648.1 1294.2L648.1 1294.2Q649.9 1294.2 651.0 1295.2Q652.1 1296.1 652.1 1297.5L652.1 1297.5L650.3 1297.5Q650.3 1296.8 649.7 1296.3Q649.1 1295.7 648.1 1295.7L648.1 1295.7Q647.1 1295.7 646.6 1296.2Q646.0 1296.6 646.0 1297.3L646.0 1297.3Q646.0 1297.9 646.5 1298.3Q647.0 1298.6 648.4 1298.9Q649.7 1299.2 650.6 1299.6Q651.4 1300.0 651.8 1300.6Q652.2 1301.2 652.2 1302.1L652.2 1302.1Q652.2 1303.5 651.1 1304.3Q650.0 1305.2 648.2 1305.2L648.2 1305.2Q646.9 1305.2 645.9 1304.7Q644.9 1304.3 644.4 1303.5Q643.8 1302.7 643.8 1301.7L643.8 1301.7L645.6 1301.7Q645.7 1302.7 646.4 1303.2Q647.0 1303.7 648.2 1303.7L648.2 1303.7Q649.2 1303.7 649.8 1303.3Q650.4 1302.9 650.4 1302.2ZM656.4 1290L656.4 1295.7Q657.6 1294.2 659.5 1294.2L659.5 1294.2Q662.9 1294.2 662.9 1298.0L662.9 1298.0L662.9 1305L661.1 1305L661.1 1298.0Q661.1 1296.9 660.6 1296.3Q660.1 1295.8 659.0 1295.8L659.0 1295.8Q658.1 1295.8 657.4 1296.2Q656.8 1296.7 656.4 1297.5L656.4 1297.5L656.4 1305L654.6 1305L654.6 1290L656.4 1290Z "/></g></svg>