<svg width="1080" height="1350" viewBox="0 0 1080 1350" xmlns="http://www.w3.org/2000/svg"><clipPath id="satori_cp-id"><rect x="0" y="0" width="1080" height="1350"/></clipPath><mask id="satori_om-id"><rect x="0" y="0" width="1080" height="1350" fill="#fff"/></mask><rect x="0" y="0" width="1080" height="1350" fill="#E8F5F4"/><mask id="satori_om-id-0"><rect x="0" y="0" width="1080" height="1210" fill="#fff" mask="url(#satori_om-id)"/></mask><mask id="satori_om-id-0-0"><rect x="985" y="32" width="63" height="39" fill="#fff" mask="url(#satori_om-id)"/></mask><path x="985" y="32" width="63" height="39" fill="rgba(0, 0, 0, 0.2)" d="M1004.5,32 h24 a19.5,19.5 0 0 1 19.5,19.5 v0 a19.5,19.5 0 0 1 -19.5,19.5 h-24 a19.5,19.5 0 0 1 -19.5,-19.5 v0 a19.5,19.5 0 0 1 19.5,-19.5" clip-path="url(#satori_cp-id)" mask="url(#satori_om-id)"/><g mask="url(#satori_om-id)" clip-path="url(#satori_cp-id)"><path fill="#FFFFFF" d="M1011.7 56.7L1011.7 59L1002.0 59L1002.0 57.1L1006.6 52.2Q1007.5 51.1 1008.0 50.4Q1008.4 49.6 1008.4 48.9L1008.4 48.9Q1008.4 47.9 1007.9 47.4Q1007.5 46.9 1006.6 46.9L1006.6 46.9Q1005.6 46.9 1005.1 47.5Q1004.5 48.2 1004.5 49.3L1004.5 49.3L1001.7 49.3Q1001.7 48.0 1002.3 46.9Q1002.9 45.8 1004.1 45.2Q1005.2 44.6 1006.6 44.6L1006.6 44.6Q1008.8 44.6 1010.0 45.6Q1011.3 46.7 1011.3 48.6L1011.3 48.6Q1011.3 49.7 1010.7 50.8Q1010.2 51.9 1008.8 53.3L1008.8 53.3L1005.6 56.7L1011.7 56.7ZM1019.7 44.8L1014.4 60.2L1012.3 60.2L1017.6 44.8L1019.7 44.8ZM1028.1 44.6L1028.6 44.6L1028.6 47.0L1028.3 47.0Q1026.4 47.0 1025.2 48.0Q1024.0 48.9 1023.8 50.6L1023.8 50.6Q1024.9 49.5 1026.7 49.5L1026.7 49.5Q1028.5 49.5 1029.6 50.8Q1030.7 52.1 1030.7 54.3L1030.7 54.3Q1030.7 55.7 1030.1 56.8Q1029.5 57.9 1028.4 58.6Q1027.3 59.2 1025.9 59.2L1025.9 59.2Q1023.7 59.2 1022.3 57.6Q1020.9 56.1 1020.9 53.5L1020.9 53.5L1020.9 52.4Q1020.9 50.1 1021.8 48.4Q1022.7 46.6 1024.3 45.6Q1025.9 44.6 1028.1 44.6L1028.1 44.6ZM1025.8 51.8L1025.8 51.8Q1025.1 51.8 1024.6 52.1Q1024.0 52.5 1023.8 53.1L1023.8 53.1L1023.8 53.9Q1023.8 55.3 1024.3 56.1Q1024.9 56.9 1025.9 56.9L1025.9 56.9Q1026.8 56.9 1027.3 56.2Q1027.9 55.5 1027.9 54.3L1027.9 54.3Q1027.9 53.2 1027.3 52.5Q1026.8 51.8 1025.8 51.8Z "/></g><defs><pattern id="satori_pattern_id-0-1_0" x="0" y="0" width="1" height="1" patternUnits="objectBoundingBox"><linearGradient id="satori_biid-0-1_0" x1="0" y1="0" x2="0" y2="1" spreadMethod="pad"><stop offset="0%" stop-color="#FF6B6B"/><stop offset="100%" stop-color="#E74C3C"/></linearGradient><rect x="0" y="0" width="1080" height="601" fill="url(#satori_biid-0-1_0)"/></pattern></defs><mask id="satori_om-id-0-1"><rect x="0" y="0" width="1080" height="601" fill="#fff" mask="url(#satori_om-id)"/></mask><rect x="0" y="0" width="1080" height="601" fill="url(#satori_pattern_id-0-1_0)" clip-path="url(#satori_cp-id)" mask="url(#satori_om-id)"/><mask id="satori_om-id-0-1-0"><rect x="462" y="247" width="156" height="56" fill="#fff" mask="url(#satori_om-id)"/></mask><mask id="satori_om-id-0-1-0-0"><rect x="462" y="247" width="56" height="56" fill="#fff" mask="url(#satori_om-id)"/></mask><path x="462" y="247" width="56" height="56" fill="rgba(255, 255, 255, 0.25)" d="M490,247 h0 a28,28 0 0 1 28,28 v0 a28,28 0 0 1 -28,28 h0 a28,28 0 0 1 -28,-28 v0 a28,28 0 0 1 28,-28" clip-path="url(#satori_cp-id)" mask="url(#satori_om-id)"/><mask id="satori_om-id-0-1-0-0-0"><rect x="483" y="259" width="15" height="32" fill="#fff" mask="url(#satori_om-id)"/></mask><g mask="url(#satori_om-id)" clip-path="url(#satori_cp-id)"><path fill="black" d="M495.6 263.3L495.6 286L484.6 286L484.6 263.3L495.6 263.3ZM490.5 274.6L494.8 284.7L494.8 264.6L490.5 274.6ZM489.6 274.6L485.4 264.8L485.4 284.5L489.6 274.6ZM490.0 275.7L486.0 285.2L494.1 285.2L490.0 275.7ZM486.0 264.1L490.0 273.6L494.1 264.1L486.0 264.1Z "/></g><mask id="satori_om-id-0-1-0-1"><rect x="534" y="261" width="84" height="28" fill="#fff" mask="url(#satori_om-id)"/></mask><g mask="url(#satori_om-id)" clip-path="url(#satori_cp-id)"><path fill="#FFFFFF" d="M535.5 265.9L540.1 265.9L544.5 278.3L548.9 265.9L553.5 265.9L553.5 283L549.9 283L549.9 278.3L550.3 270.3L545.7 283L543.3 283L538.7 270.3L539.0 278.3L539.0 283L535.5 283L535.5 265.9ZM562.6 265.9L566.1 273.6L569.7 265.9L573.5 265.9L567.9 276.8L567.9 283L564.3 283L564.3 276.8L558.7 265.9L562.6 265.9ZM592.1 265.9L592.1 268.8L586.9 268.8L586.9 283L583.4 283L583.4 268.8L578.2 268.8L578.2 265.9L592.1 265.9ZM612.0 265.9L612.0 283L608.5 283L608.5 275.7L601.6 275.7L601.6 283L598.1 283L598.1 265.9L601.6 265.9L601.6 272.9L608.5 272.9L608.5 265.9L612.0 265.9Z "/></g><mask id="satori_om-id-0-1-1"><rect x="196" y="327" width="688" height="47" fill="#fff" mask="url(#satori_om-id)"/></mask><g opacity="0.95"></g><g mask="url(#satori_om-id)" clip-path="url(#satori_cp-id)"><path fill="#FFFFFF" d="M200.9 336L200.9 338.4L200.3 344.7L198.4 344.7L198.4 336L200.9 336ZM205.6 336L205.6 338.4L205.1 344.7L203.1 344.7L203.2 336L205.6 336ZM218.0 351.6L218.0 351.6Q213.7 350.3 211.7 348.5Q209.7 346.7 209.7 344.0L209.7 344.0Q209.7 341.0 212.1 339.0Q214.6 337.1 218.4 337.1L218.4 337.1Q221.1 337.1 223.1 338.1Q225.2 339.1 226.3 340.9Q227.5 342.7 227.5 344.8L227.5 344.8L224.1 344.8Q224.1 342.5 222.6 341.2Q221.1 339.8 218.4 339.8L218.4 339.8Q215.9 339.8 214.5 340.9Q213.1 342.0 213.1 344.0L213.1 344.0Q213.1 345.5 214.5 346.6Q215.8 347.7 219.0 348.6Q222.2 349.5 224.0 350.6Q225.8 351.7 226.6 353.1Q227.5 354.5 227.5 356.5L227.5 356.5Q227.5 359.6 225.1 361.5Q222.7 363.4 218.6 363.4L218.6 363.4Q216.0 363.4 213.7 362.3Q211.4 361.3 210.2 359.6Q208.9 357.8 208.9 355.6L208.9 355.6L212.3 355.6Q212.3 357.9 214.0 359.2Q215.7 360.6 218.6 360.6L218.6 360.6Q221.3 360.6 222.7 359.5Q224.1 358.4 224.1 356.5Q224.1 354.7 222.8 353.6Q221.5 352.6 218.0 351.6ZM232.5 339.4L235.7 339.4L235.7 344.0L239.3 344.0L239.3 346.5L235.7 346.5L235.7 358.3Q235.7 359.4 236.2 360.0Q236.7 360.6 237.8 360.6L237.8 360.6Q238.4 360.6 239.4 360.4L239.4 360.4L239.4 363Q238.1 363.4 236.9 363.4L236.9 363.4Q234.7 363.4 233.6 362.0Q232.5 360.7 232.5 358.3L232.5 358.3L232.5 346.5L229.0 346.5L229.0 344.0L232.5 344.0L232.5 339.4ZM258.2 363L254.8 363Q254.6 362.4 254.4 361.0L254.4 361.0Q252.1 363.4 249.0 363.4L249.0 363.4Q246.2 363.4 244.3 361.8Q242.5 360.2 242.5 357.7L242.5 357.7Q242.5 354.8 244.8 353.1Q247.1 351.5 251.2 351.5L251.2 351.5L254.3 351.5L254.3 350.0Q254.3 348.3 253.3 347.3Q252.3 346.2 250.3 346.2L250.3 346.2Q248.6 346.2 247.4 347.1Q246.2 348.0 246.2 349.3L246.2 349.3L242.9 349.3Q242.9 347.8 243.9 346.5Q245.0 345.2 246.7 344.4Q248.4 343.6 250.5 343.6L250.5 343.6Q253.8 343.6 255.6 345.3Q257.5 346.9 257.6 349.8L257.6 349.8L257.6 358.6Q257.6 361.2 258.2 362.7L258.2 362.7L258.2 363ZM249.4 360.5L249.4 360.5Q251.0 360.5 252.3 359.7Q253.7 358.9 254.3 357.7L254.3 357.7L254.3 353.8L251.8 353.8Q245.8 353.8 245.8 357.3L245.8 357.3Q245.8 358.8 246.8 359.7Q247.8 360.5 249.4 360.5ZM263.8 339.4L267.1 339.4L267.1 344.0L270.6 344.0L270.6 346.5L267.1 346.5L267.1 358.3Q267.1 359.4 267.6 360.0Q268.0 360.6 269.2 360.6L269.2 360.6Q269.7 360.6 270.7 360.4L270.7 360.4L270.7 363Q269.4 363.4 268.2 363.4L268.2 363.4Q266.0 363.4 264.9 362.0Q263.8 360.7 263.8 358.3L263.8 358.3L263.8 346.5L260.4 346.5L260.4 344.0L263.8 344.0L263.8 339.4ZM278.0 344.0L278.0 363L274.7 363L274.7 344.0L278.0 344.0ZM274.5 338.9L274.5 338.9Q274.5 338.1 274.9 337.6Q275.4 337.1 276.4 337.1Q277.3 337.1 277.8 337.6Q278.3 338.1 278.3 338.9Q278.3 339.7 277.8 340.3Q277.3 340.8 276.4 340.8Q275.4 340.8 274.9 340.3Q274.5 339.7 274.5 338.9ZM283.2 344.0L286.2 344.0L286.4 346.4Q288.5 343.6 292.0 343.6L292.0 343.6Q298.1 343.6 298.1 350.4L298.1 350.4L298.1 363L294.9 363L294.9 350.4Q294.9 348.4 293.9 347.4Q293.0 346.4 291.1 346.4L291.1 346.4Q289.5 346.4 288.3 347.2Q287.1 348.1 286.4 349.4L286.4 349.4L286.4 363L283.2 363L283.2 344.0ZM314.1 358.0L314.1 358.0Q314.1 356.6 313.1 355.9Q312.1 355.2 309.7 354.7Q307.2 354.1 305.7 353.4Q304.3 352.6 303.6 351.6Q302.9 350.6 302.9 349.2L302.9 349.2Q302.9 346.9 304.9 345.2Q306.8 343.6 309.9 343.6L309.9 343.6Q313.2 343.6 315.2 345.3Q317.2 347.0 317.2 349.6L317.2 349.6L313.9 349.6Q313.9 348.2 312.8 347.3Q311.6 346.3 309.9 346.3L309.9 346.3Q308.1 346.3 307.1 347.1Q306.1 347.8 306.1 349.1L306.1 349.1Q306.1 350.3 307.1 350.9Q308.0 351.5 310.4 352.0Q312.9 352.6 314.4 353.3Q315.9 354.1 316.6 355.1Q317.4 356.2 317.4 357.7L317.4 357.7Q317.4 360.3 315.3 361.8Q313.3 363.4 310.0 363.4L310.0 363.4Q307.7 363.4 306.0 362.5Q304.2 361.7 303.2 360.3Q302.2 358.8 302.2 357.1L302.2 357.1L305.5 357.1Q305.6 358.8 306.8 359.7Q308.0 360.7 310.0 360.7L310.0 360.7Q311.9 360.7 313.0 360.0Q314.1 359.2 314.1 358.0Z M338.1 360.7L338.1 360.7Q339.9 360.7 341.2 359.6Q342.5 358.6 342.6 357.0L342.6 357.0L345.7 357.0Q345.6 358.6 344.6 360.1Q343.5 361.6 341.8 362.5Q340.1 363.4 338.1 363.4L338.1 363.4Q334.3 363.4 332.0 360.8Q329.7 358.2 329.7 353.7L329.7 353.7L329.7 353.1Q329.7 350.3 330.7 348.2Q331.7 346.0 333.6 344.8Q335.5 343.6 338.1 343.6L338.1 343.6Q341.3 343.6 343.4 345.5Q345.6 347.5 345.7 350.5L345.7 350.5L342.6 350.5Q342.5 348.7 341.2 347.5Q340.0 346.3 338.1 346.3L338.1 346.3Q335.6 346.3 334.3 348.1Q332.9 349.9 332.9 353.2L332.9 353.2L332.9 353.9Q332.9 357.1 334.3 358.9Q335.6 360.7 338.1 360.7ZM364.5 363L361.1 363Q360.8 362.4 360.6 361.0L360.6 361.0Q358.4 363.4 355.2 363.4L355.2 363.4Q352.4 363.4 350.6 361.8Q348.8 360.2 348.8 357.7L348.8 357.7Q348.8 354.8 351.1 353.1Q353.3 351.5 357.4 351.5L357.4 351.5L360.6 351.5L360.6 350.0Q360.6 348.3 359.6 347.3Q358.5 346.2 356.6 346.2L356.6 346.2Q354.8 346.2 353.6 347.1Q352.5 348.0 352.5 349.3L352.5 349.3L349.2 349.3Q349.2 347.8 350.2 346.5Q351.2 345.2 352.9 344.4Q354.7 343.6 356.8 343.6L356.8 343.6Q360.0 343.6 361.9 345.3Q363.8 346.9 363.8 349.8L363.8 349.8L363.8 358.6Q363.8 361.2 364.5 362.7L364.5 362.7L364.5 363ZM355.7 360.5L355.7 360.5Q357.2 360.5 358.6 359.7Q360.0 358.9 360.6 357.7L360.6 357.7L360.6 353.8L358.0 353.8Q352.1 353.8 352.1 357.3L352.1 357.3Q352.1 358.8 353.1 359.7Q354.1 360.5 355.7 360.5ZM380.7 363L380.7 361.1Q378.8 363.4 375.1 363.4L375.1 363.4Q372.1 363.4 370.5 361.6Q368.9 359.8 368.9 356.4L368.9 356.4L368.9 344.0L372.1 344.0L372.1 356.3Q372.1 360.6 375.6 360.6L375.6 360.6Q379.4 360.6 380.6 357.8L380.6 357.8L380.6 344.0L383.8 344.0L383.8 363L380.7 363ZM399.9 358.0L399.9 358.0Q399.9 356.6 398.9 355.9Q397.9 355.2 395.4 354.7Q392.9 354.1 391.5 353.4Q390.0 352.6 389.3 351.6Q388.6 350.6 388.6 349.2L388.6 349.2Q388.6 346.9 390.6 345.2Q392.6 343.6 395.7 343.6L395.7 343.6Q398.9 343.6 400.9 345.3Q402.9 347.0 402.9 349.6L402.9 349.6L399.7 349.6Q399.7 348.2 398.5 347.3Q397.4 346.3 395.7 346.3L395.7 346.3Q393.9 346.3 392.9 347.1Q391.9 347.8 391.9 349.1L391.9 349.1Q391.9 350.3 392.8 350.9Q393.8 351.5 396.2 352.0Q398.6 352.6 400.1 353.3Q401.6 354.1 402.4 355.1Q403.1 356.2 403.1 357.7L403.1 357.7Q403.1 360.3 401.1 361.8Q399.0 363.4 395.8 363.4L395.8 363.4Q393.5 363.4 391.7 362.5Q390.0 361.7 389.0 360.3Q388.0 358.8 388.0 357.1L388.0 357.1L391.2 357.1Q391.3 358.8 392.5 359.7Q393.8 360.7 395.8 360.7L395.8 360.7Q397.6 360.7 398.7 360.0Q399.9 359.2 399.9 358.0ZM415.2 363.4L415.2 363.4Q411.4 363.4 408.9 360.8Q406.5 358.3 406.5 354.0L406.5 354.0L406.5 353.4Q406.5 350.6 407.6 348.4Q408.7 346.1 410.6 344.9Q412.6 343.6 414.8 343.6L414.8 343.6Q418.5 343.6 420.6 346.1Q422.7 348.5 422.7 353.1L422.7 353.1L422.7 354.4L409.8 354.4Q409.8 357.2 411.4 359.0Q413.0 360.7 415.4 360.7L415.4 360.7Q417.1 360.7 418.3 360.0Q419.5 359.3 420.4 358.1L420.4 358.1L422.4 359.7Q420.0 363.4 415.2 363.4ZM414.8 346.3L414.8 346.3Q412.9 346.3 411.5 347.7Q410.2 349.2 409.9 351.8L409.9 351.8L419.4 351.8L419.4 351.5Q419.3 349.0 418.1 347.7Q416.9 346.3 414.8 346.3Z M435.3 344.0L438.4 344.0L438.5 346.1Q440.6 343.6 444.1 343.6L444.1 343.6Q448.1 343.6 449.5 346.7L449.5 346.7Q450.5 345.3 452.0 344.5Q453.5 343.6 455.6 343.6L455.6 343.6Q461.9 343.6 462.0 350.3L462.0 350.3L462.0 363L458.7 363L458.7 350.4Q458.7 348.4 457.8 347.4Q456.9 346.4 454.7 346.4L454.7 346.4Q452.9 346.4 451.7 347.5Q450.5 348.6 450.3 350.4L450.3 350.4L450.3 363L447.0 363L447.0 350.5Q447.0 346.4 442.9 346.4L442.9 346.4Q439.7 346.4 438.6 349.1L438.6 349.1L438.6 363L435.3 363L435.3 344.0ZM478.7 363L478.6 361.1Q476.7 363.4 473.0 363.4L473.0 363.4Q470.0 363.4 468.4 361.6Q466.8 359.8 466.8 356.4L466.8 356.4L466.8 344.0L470.1 344.0L470.1 356.3Q470.1 360.6 473.6 360.6L473.6 360.6Q477.3 360.6 478.5 357.8L478.5 357.8L478.5 344.0L481.8 344.0L481.8 363L478.7 363ZM497.8 358.0L497.8 358.0Q497.8 356.6 496.8 355.9Q495.8 355.2 493.3 354.7Q490.9 354.1 489.4 353.4Q488.0 352.6 487.3 351.6Q486.6 350.6 486.6 349.2L486.6 349.2Q486.6 346.9 488.6 345.2Q490.5 343.6 493.6 343.6L493.6 343.6Q496.8 343.6 498.9 345.3Q500.9 347.0 500.9 349.6L500.9 349.6L497.6 349.6Q497.6 348.2 496.5 347.3Q495.3 346.3 493.6 346.3L493.6 346.3Q491.8 346.3 490.8 347.1Q489.8 347.8 489.8 349.1L489.8 349.1Q489.8 350.3 490.8 350.9Q491.7 351.5 494.1 352.0Q496.6 352.6 498.1 353.3Q499.6 354.1 500.3 355.1Q501.1 356.2 501.1 357.7L501.1 357.7Q501.1 360.3 499.0 361.8Q497.0 363.4 493.7 363.4L493.7 363.4Q491.4 363.4 489.7 362.5Q487.9 361.7 486.9 360.3Q485.9 358.8 485.9 357.1L485.9 357.1L489.2 357.1Q489.3 358.8 490.5 359.7Q491.7 360.7 493.7 360.7L493.7 360.7Q495.6 360.7 496.7 360.0Q497.8 359.2 497.8 358.0ZM512.9 360.7L512.9 360.7Q514.7 360.7 516.0 359.6Q517.3 358.6 517.4 357.0L517.4 357.0L520.5 357.0Q520.4 358.6 519.3 360.1Q518.3 361.6 516.6 362.5Q514.8 363.4 512.9 363.4L512.9 363.4Q509.0 363.4 506.7 360.8Q504.4 358.2 504.4 353.7L504.4 353.7L504.4 353.1Q504.4 350.3 505.5 348.2Q506.5 346.0 508.4 344.8Q510.3 343.6 512.9 343.6L512.9 343.6Q516.1 343.6 518.2 345.5Q520.3 347.5 520.5 350.5L520.5 350.5L517.4 350.5Q517.3 348.7 516.0 347.5Q514.7 346.3 512.9 346.3L512.9 346.3Q510.4 346.3 509.1 348.1Q507.7 349.9 507.7 353.2L507.7 353.2L507.7 353.9Q507.7 357.1 509.0 358.9Q510.4 360.7 512.9 360.7ZM527.7 336L527.7 363L524.4 363L524.4 336L527.7 336ZM540.8 363.4L540.8 363.4Q536.9 363.4 534.5 360.8Q532.0 358.3 532.0 354.0L532.0 354.0L532.0 353.4Q532.0 350.6 533.1 348.4Q534.2 346.1 536.1 344.9Q538.1 343.6 540.4 343.6L540.4 343.6Q544.1 343.6 546.1 346.1Q548.2 348.5 548.2 353.1L548.2 353.1L548.2 354.4L535.3 354.4Q535.4 357.2 536.9 359.0Q538.5 360.7 540.9 360.7L540.9 360.7Q542.7 360.7 543.9 360.0Q545.0 359.3 545.9 358.1L545.9 358.1L547.9 359.7Q545.5 363.4 540.8 363.4ZM540.4 346.3L540.4 346.3Q538.4 346.3 537.1 347.7Q535.7 349.2 535.4 351.8L535.4 351.8L544.9 351.8L544.9 351.5Q544.8 349.0 543.6 347.7Q542.4 346.3 540.4 346.3Z M576.9 353.4L576.9 353.7Q576.9 358.0 574.9 360.7Q572.9 363.4 569.6 363.4L569.6 363.4Q566.1 363.4 564.1 361.2L564.1 361.2L564.1 370.3L560.9 370.3L560.9 344.0L563.8 344.0L564.0 346.1Q566.0 343.6 569.5 343.6L569.5 343.6Q572.9 343.6 574.9 346.2Q576.9 348.8 576.9 353.4L576.9 353.4ZM573.7 353.3L573.7 353.3Q573.7 350.1 572.3 348.3Q570.9 346.4 568.5 346.4L568.5 346.4Q565.6 346.4 564.1 349.0L564.1 349.0L564.1 358.1Q565.6 360.7 568.6 360.7L568.6 360.7Q570.9 360.7 572.3 358.8Q573.7 357.0 573.7 353.3ZM596.2 363L592.8 363Q592.5 362.4 592.3 361.0L592.3 361.0Q590.1 363.4 586.9 363.4L586.9 363.4Q584.1 363.4 582.3 361.8Q580.5 360.2 580.5 357.7L580.5 357.7Q580.5 354.8 582.8 353.1Q585.0 351.5 589.1 351.5L589.1 351.5L592.3 351.5L592.3 350.0Q592.3 348.3 591.3 347.3Q590.2 346.2 588.3 346.2L588.3 346.2Q586.5 346.2 585.3 347.1Q584.2 348.0 584.2 349.3L584.2 349.3L580.9 349.3Q580.9 347.8 581.9 346.5Q582.9 345.2 584.6 344.4Q586.4 343.6 588.4 343.6L588.4 343.6Q591.7 343.6 593.6 345.3Q595.5 346.9 595.5 349.8L595.5 349.8L595.5 358.6Q595.5 361.2 596.2 362.7L596.2 362.7L596.2 363ZM587.4 360.5L587.4 360.5Q588.9 360.5 590.3 359.7Q591.7 358.9 592.3 357.7L592.3 357.7L592.3 353.8L589.7 353.8Q583.8 353.8 583.8 357.3L583.8 357.3Q583.8 358.8 584.8 359.7Q585.8 360.5 587.4 360.5ZM604.2 344.0L604.2 363L600.9 363L600.9 344.0L604.2 344.0ZM600.6 338.9L600.6 338.9Q600.6 338.1 601.1 337.6Q601.6 337.1 602.6 337.1Q603.5 337.1 604.0 337.6Q604.5 338.1 604.5 338.9Q604.5 339.7 604.0 340.3Q603.5 340.8 602.6 340.8Q601.6 340.8 601.1 340.3Q600.6 339.7 600.6 338.9ZM609.4 344.0L612.4 344.0L612.5 346.4Q614.7 343.6 618.2 343.6L618.2 343.6Q624.3 343.6 624.3 350.4L624.3 350.4L624.3 363L621.1 363L621.1 350.4Q621.1 348.4 620.1 347.4Q619.2 346.4 617.3 346.4L617.3 346.4Q615.7 346.4 614.5 347.2Q613.3 348.1 612.6 349.4L612.6 349.4L612.6 363L609.4 363L609.4 344.0Z M641.7 344.0L641.7 363L638.4 363L638.4 344.0L641.7 344.0ZM638.2 338.9L638.2 338.9Q638.2 338.1 638.6 337.6Q639.1 337.1 640.1 337.1Q641.0 337.1 641.5 337.6Q642.0 338.1 642.0 338.9Q642.0 339.7 641.5 340.3Q641.0 340.8 640.1 340.8Q639.1 340.8 638.6 340.3Q638.2 339.7 638.2 338.9ZM646.9 344.0L650.0 344.0L650.1 346.4Q652.2 343.6 655.8 343.6L655.8 343.6Q661.8 343.6 661.8 350.4L661.8 350.4L661.8 363L658.6 363L658.6 350.4Q658.6 348.4 657.6 347.4Q656.7 346.4 654.8 346.4L654.8 346.4Q653.2 346.4 652.0 347.2Q650.8 348.1 650.1 349.4L650.1 349.4L650.1 363L646.9 363L646.9 344.0Z M675.6 344.0L678.7 344.0L678.8 346.1Q680.9 343.6 684.4 343.6L684.4 343.6Q688.4 343.6 689.9 346.7L689.9 346.7Q690.8 345.3 692.3 344.5Q693.9 343.6 695.9 343.6L695.9 343.6Q702.2 343.6 702.3 350.3L702.3 350.3L702.3 363L699.1 363L699.1 350.4Q699.1 348.4 698.1 347.4Q697.2 346.4 695.0 346.4L695.0 346.4Q693.2 346.4 692.0 347.5Q690.8 348.6 690.6 350.4L690.6 350.4L690.6 363L687.3 363L687.3 350.5Q687.3 346.4 683.3 346.4L683.3 346.4Q680.1 346.4 678.9 349.1L678.9 349.1L678.9 363L675.6 363L675.6 344.0ZM706.3 353.5L706.3 353.3Q706.3 350.5 707.4 348.3Q708.5 346.1 710.5 344.8Q712.5 343.6 715.0 343.6L715.0 343.6Q718.9 343.6 721.3 346.3Q723.7 349.0 723.7 353.5L723.7 353.5L723.7 353.7Q723.7 356.5 722.6 358.7Q721.5 360.9 719.6 362.1Q717.6 363.4 715.0 363.4L715.0 363.4Q711.1 363.4 708.7 360.7Q706.3 358.0 706.3 353.5L706.3 353.5ZM709.6 353.7L709.6 353.7Q709.6 356.9 711.1 358.8Q712.6 360.7 715.0 360.7L715.0 360.7Q717.5 360.7 718.9 358.8Q720.4 356.8 720.4 353.3L720.4 353.3Q720.4 350.2 718.9 348.2Q717.4 346.3 715.0 346.3L715.0 346.3Q712.6 346.3 711.1 348.2Q709.6 350.1 709.6 353.7ZM738.8 358.0L738.8 358.0Q738.8 356.6 737.8 355.9Q736.8 355.2 734.4 354.7Q731.9 354.1 730.4 353.4Q729.0 352.6 728.3 351.6Q727.6 350.6 727.6 349.2L727.6 349.2Q727.6 346.9 729.6 345.2Q731.6 343.6 734.6 343.6L734.6 343.6Q737.9 343.6 739.9 345.3Q741.9 347.0 741.9 349.6L741.9 349.6L738.6 349.6Q738.6 348.2 737.5 347.3Q736.4 346.3 734.6 346.3L734.6 346.3Q732.9 346.3 731.9 347.1Q730.8 347.8 730.8 349.1L730.8 349.1Q730.8 350.3 731.8 350.9Q732.7 351.5 735.1 352.0Q737.6 352.6 739.1 353.3Q740.6 354.1 741.3 355.1Q742.1 356.2 742.1 357.7L742.1 357.7Q742.1 360.3 740.0 361.8Q738.0 363.4 734.7 363.4L734.7 363.4Q732.4 363.4 730.7 362.5Q728.9 361.7 727.9 360.3Q726.9 358.8 726.9 357.1L726.9 357.1L730.2 357.1Q730.3 358.8 731.5 359.7Q732.7 360.7 734.7 360.7L734.7 360.7Q736.6 360.7 737.7 360.0Q738.8 359.2 738.8 358.0ZM747.5 339.4L750.7 339.4L750.7 344.0L754.3 344.0L754.3 346.5L750.7 346.5L750.7 358.3Q750.7 359.4 751.2 360.0Q751.7 360.6 752.8 360.6L752.8 360.6Q753.4 360.6 754.4 360.4L754.4 360.4L754.4 363Q753.1 363.4 751.9 363.4L751.9 363.4Q749.7 363.4 748.6 362.0Q747.5 360.7 747.5 358.3L747.5 358.3L747.5 346.5L744.0 346.5L744.0 344.0L747.5 344.0L747.5 339.4Z M783.0 353.4L783.0 353.7Q783.0 358.0 781.1 360.7Q779.1 363.4 775.7 363.4L775.7 363.4Q772.2 363.4 770.2 361.2L770.2 361.2L770.2 370.3L767.0 370.3L767.0 344.0L769.9 344.0L770.1 346.1Q772.1 343.6 775.6 343.6L775.6 343.6Q779.0 343.6 781.0 346.2Q783.0 348.8 783.0 353.4L783.0 353.4ZM779.8 353.3L779.8 353.3Q779.8 350.1 778.4 348.3Q777.0 346.4 774.7 346.4L774.7 346.4Q771.7 346.4 770.2 349.0L770.2 349.0L770.2 358.1Q771.7 360.7 774.7 360.7L774.7 360.7Q777.0 360.7 778.4 358.8Q779.8 357.0 779.8 353.3ZM795.1 363.4L795.1 363.4Q791.2 363.4 788.8 360.8Q786.3 358.3 786.3 354.0L786.3 354.0L786.3 353.4Q786.3 350.6 787.4 348.4Q788.5 346.1 790.4 344.9Q792.4 343.6 794.7 343.6L794.7 343.6Q798.4 343.6 800.4 346.1Q802.5 348.5 802.5 353.1L802.5 353.1L802.5 354.4L789.6 354.4Q789.7 357.2 791.2 359.0Q792.8 360.7 795.2 360.7L795.2 360.7Q797.0 360.7 798.2 360.0Q799.4 359.3 800.2 358.1L800.2 358.1L802.2 359.7Q799.8 363.4 795.1 363.4ZM794.7 346.3L794.7 346.3Q792.7 346.3 791.4 347.7Q790.0 349.2 789.7 351.8L789.7 351.8L799.2 351.8L799.2 351.5Q799.1 349.0 797.9 347.7Q796.7 346.3 794.7 346.3ZM805.4 353.5L805.4 353.3Q805.4 350.5 806.5 348.3Q807.6 346.1 809.5 344.8Q811.5 343.6 814.0 343.6L814.0 343.6Q817.9 343.6 820.3 346.3Q822.7 349.0 822.7 353.5L822.7 353.5L822.7 353.7Q822.7 356.5 821.6 358.7Q820.6 360.9 818.6 362.1Q816.6 363.4 814.0 363.4L814.0 363.4Q810.2 363.4 807.8 360.7Q805.4 358.0 805.4 353.5L805.4 353.5ZM808.7 353.7L808.7 353.7Q808.7 356.9 810.1 358.8Q811.6 360.7 814.0 360.7L814.0 360.7Q816.5 360.7 818.0 358.8Q819.4 356.8 819.4 353.3L819.4 353.3Q819.4 350.2 818.0 348.2Q816.5 346.3 814.0 346.3L814.0 346.3Q811.6 346.3 810.1 348.2Q808.7 350.1 808.7 353.7ZM842.8 353.4L842.8 353.7Q842.8 358.0 840.9 360.7Q838.9 363.4 835.5 363.4L835.5 363.4Q832.0 363.4 830.0 361.2L830.0 361.2L830.0 370.3L826.8 370.3L826.8 344.0L829.7 344.0L829.9 346.1Q831.9 343.6 835.4 343.6L835.4 343.6Q838.8 343.6 840.8 346.2Q842.8 348.8 842.8 353.4L842.8 353.4ZM839.6 353.3L839.6 353.3Q839.6 350.1 838.2 348.3Q836.8 346.4 834.5 346.4L834.5 346.4Q831.5 346.4 830.0 349.0L830.0 349.0L830.0 358.1Q831.5 360.7 834.5 360.7L834.5 360.7Q836.8 360.7 838.2 358.8Q839.6 357.0 839.6 353.3ZM850.5 336L850.5 363L847.3 363L847.3 336L850.5 336ZM863.6 363.4L863.6 363.4Q859.7 363.4 857.3 360.8Q854.9 358.3 854.9 354.0L854.9 354.0L854.9 353.4Q854.9 350.6 856.0 348.4Q857.0 346.1 859.0 344.9Q860.9 343.6 863.2 343.6L863.2 343.6Q866.9 343.6 869.0 346.1Q871.0 348.5 871.0 353.1L871.0 353.1L871.0 354.4L858.1 354.4Q858.2 357.2 859.8 359.0Q861.3 360.7 863.8 360.7L863.8 360.7Q865.5 360.7 866.7 360.0Q867.9 359.3 868.8 358.1L868.8 358.1L870.8 359.7Q868.4 363.4 863.6 363.4ZM863.2 346.3L863.2 346.3Q861.2 346.3 859.9 347.7Q858.6 349.2 858.2 351.8L858.2 351.8L867.8 351.8L867.8 351.5Q867.6 349.0 866.4 347.7Q865.2 346.3 863.2 346.3ZM876.9 336L876.9 338.4L876.4 344.7L874.5 344.7L874.5 336L876.9 336ZM881.7 336L881.7 338.4L881.2 344.7L879.2 344.7L879.2 336L881.7 336Z " opacity="0.95"/></g><g clip-path="url(#satori_cp-id)"><line x1="196" y1="352.28859375" x2="883.83203125" y2="352.28859375" stroke="rgba(255, 255, 255, 0.6)" stroke-width="3.6" stroke-linecap="square" transform=""/></g><defs><pattern id="satori_pattern_id-0-2_0" x="0" y="0" width="1" height="1" patternUnits="objectBoundingBox"><linearGradient id="satori_biid-0-2_0" x1="0" y1="0" x2="1" y2="0" spreadMethod="pad"><stop offset="0%" stop-color="#E74C3C"/><stop offset="100%" stop-color="#1E8449"/></linearGradient><rect x="0" y="0" width="1080" height="8" fill="url(#satori_biid-0-2_0)"/></pattern></defs><mask id="satori_om-id-0-2"><rect x="0" y="601" width="1080" height="8" fill="#fff" mask="url(#satori_om-id)"/></mask><rect x="0" y="601" width="1080" height="8" fill="url(#satori_pattern_id-0-2_0)" clip-path="url(#satori_cp-id)" mask="url(#satori_om-id)"/><defs><pattern id="satori_pattern_id-0-3_0" x="0" y="0" width="1" height="1" patternUnits="objectBoundingBox"><linearGradient id="satori_biid-0-3_0" x1="0" y1="0" x2="0" y2="1" spreadMethod="pad"><stop offset="0%" stop-color="#1E8449"/><stop offset="100%" stop-color="#27AE60"/></linearGradient><rect x="0" y="0" width="1080" height="601" fill="url(#satori_biid-0-3_0)"/></pattern></defs><mask id="satori_om-id-0-3"><rect x="0" y="609" width="1080" height="601" fill="#fff" mask="url(#satori_om-id)"/></mask><rect x="0" y="609" width="1080" height="601" fill="url(#satori_pattern_id-0-3_0)" clip-path="url(#satori_cp-id)" mask="url(#satori_om-id)"/><mask id="satori_om-id-0-3-0"><rect x="455" y="789" width="170" height="56" fill="#fff" mask="url(#satori_om-id)"/></mask><mask id="satori_om-id-0-3-0-0"><rect x="455" y="789" width="56" height="56" fill="#fff" mask="url(#satori_om-id)"/></mask><path x="455" y="789" width="56" height="56" fill="rgba(255, 255, 255, 0.25)" d="M483,789 h0 a28,28 0 0 1 28,28 v0 a28,28 0 0 1 -28,28 h0 a28,28 0 0 1 -28,-28 v0 a28,28 0 0 1 28,-28" clip-path="url(#satori_cp-id)" mask="url(#satori_om-id)"/><mask id="satori_om-id-0-3-0-0-0"><rect x="476" y="801" width="15" height="32" fill="#fff" mask="url(#satori_om-id)"/></mask><g mask="url(#satori_om-id)" clip-path="url(#satori_cp-id)"><path fill="black" d="M488.6 805.3L488.6 828L477.6 828L477.6 805.3L488.6 805.3ZM483.5 816.6L487.8 826.7L487.8 806.6L483.5 816.6ZM482.6 816.6L478.4 806.8L478.4 826.5L482.6 816.6ZM483.0 817.7L479.0 827.2L487.1 827.2L483.0 817.7ZM479.0 806.1L483.0 815.6L487.1 806.1L479.0 806.1Z "/></g><mask id="satori_om-id-0-3-0-1"><rect x="527" y="803" width="98" height="28" fill="#fff" mask="url(#satori_om-id)"/></mask><g mask="url(#satori_om-id)" clip-path="url(#satori_cp-id)"><path fill="#FFFFFF" d="M541.4 807.9L541.4 810.8L536.1 810.8L536.1 825L532.6 825L532.6 810.8L527.5 810.8L527.5 807.9L541.4 807.9ZM556.9 825L553.7 818.8L550.9 818.8L550.9 825L547.4 825L547.4 807.9L553.7 807.9Q556.7 807.9 558.4 809.3Q560.0 810.6 560.0 813.1L560.0 813.1Q560.0 814.8 559.3 816.0Q558.5 817.2 557.0 817.9L557.0 817.9L560.7 824.8L560.7 825L556.9 825ZM550.9 810.8L550.9 815.9L553.7 815.9Q555.0 815.9 555.8 815.2Q556.5 814.6 556.5 813.4L556.5 813.4Q556.5 812.2 555.8 811.5Q555.1 810.8 553.7 810.8L553.7 810.8L550.9 810.8ZM576.1 807.9L579.6 807.9L579.6 819.2Q579.6 822.0 577.8 823.6Q576.1 825.2 573.1 825.2L573.1 825.2Q570.1 825.2 568.3 823.7Q566.6 822.1 566.5 819.3L566.5 819.3L566.5 807.9L570.0 807.9L570.0 819.2Q570.0 820.9 570.8 821.6Q571.6 822.4 573.1 822.4L573.1 822.4Q576.0 822.4 576.1 819.3L576.1 819.3L576.1 807.9ZM599.3 807.9L599.3 810.8L594.1 810.8L594.1 825L590.6 825L590.6 810.8L585.4 810.8L585.4 807.9L599.3 807.9ZM619.2 807.9L619.2 825L615.7 825L615.7 817.7L608.8 817.7L608.8 825L605.3 825L605.3 807.9L608.8 807.9L608.8 814.9L615.7 814.9L615.7 807.9L619.2 807.9Z "/></g><mask id="satori_om-id-0-3-1"><rect x="90" y="869" width="900" height="141" fill="#fff" mask="url(#satori_om-id)"/></mask><g mask="url(#satori_om-id)" clip-path="url(#satori_cp-id)"><path fill="#FFFFFF" d="M153.3 891.6L153.3 892.8Q153.3 896.6 152.0 899.4Q150.6 902.3 148.1 903.8Q145.7 905.4 142.4 905.4L142.4 905.4Q139.3 905.4 136.8 903.8Q134.3 902.3 132.9 899.5Q131.5 896.6 131.5 892.9L131.5 892.9L131.5 891.7Q131.5 887.9 132.9 885.0Q134.2 882.1 136.7 880.6Q139.2 879.1 142.4 879.1Q145.6 879.1 148.1 880.6Q150.6 882.1 151.9 885.0Q153.3 887.9 153.3 891.6L153.3 891.6ZM148.0 892.9L148.0 891.6Q148.0 887.6 146.5 885.5Q145.1 883.4 142.4 883.4L142.4 883.4Q139.8 883.4 138.3 885.5Q136.9 887.5 136.9 891.5L136.9 891.5L136.9 892.8Q136.9 896.7 138.3 898.9Q139.7 901.0 142.4 901.0L142.4 901.0Q145.1 901.0 146.5 898.9Q147.9 896.9 148.0 892.9L148.0 892.9ZM156.7 886.0L161.5 886.0L161.6 888.2Q163.7 885.6 167.1 885.6L167.1 885.6Q170.1 885.6 171.6 887.4Q173.1 889.2 173.1 892.7L173.1 892.7L173.1 905L168.0 905L168.0 892.8Q168.0 891.2 167.3 890.5Q166.6 889.8 165.0 889.8L165.0 889.8Q162.9 889.8 161.8 891.6L161.8 891.6L161.8 905L156.7 905L156.7 886.0ZM182.3 878L182.3 905L177.2 905L177.2 878L182.3 878ZM190.1 886.0L193.6 897.8L197.1 886.0L202.6 886.0L194.9 908.0L194.5 909.0Q192.8 912.7 188.9 912.7L188.9 912.7Q187.8 912.7 186.6 912.3L186.6 912.3L186.6 908.5L187.4 908.5Q188.9 908.5 189.6 908.1Q190.3 907.6 190.7 906.6L190.7 906.6L191.3 905.1L184.6 886.0L190.1 886.0Z M217.5 893.4L213.5 892.4L215.0 879.4L229.3 879.4L229.3 883.6L219.1 883.6L218.5 889.1Q220.3 888.2 222.4 888.2L222.4 888.2Q226.0 888.2 228.1 890.4Q230.2 892.7 230.2 896.8L230.2 896.8Q230.2 899.3 229.1 901.2Q228.1 903.2 226.1 904.3Q224.2 905.4 221.5 905.4L221.5 905.4Q219.2 905.4 217.2 904.4Q215.2 903.5 214.1 901.8Q212.9 900.1 212.8 897.9L212.8 897.9L217.9 897.9Q218.0 899.5 219.0 900.4Q219.9 901.3 221.5 901.3L221.5 901.3Q223.2 901.3 224.1 900.0Q225.1 898.8 225.1 896.5L225.1 896.5Q225.1 894.3 224.0 893.2Q222.9 892.0 221.0 892.0L221.0 892.0Q219.2 892.0 218.0 893.0L218.0 893.0L217.5 893.4ZM243.5 892.0L243.5 896.1L233.6 896.1L233.6 892.0L243.5 892.0ZM259.7 879.4L259.7 905L254.6 905L254.6 885.4L248.5 887.3L248.5 883.2L259.1 879.4L259.7 879.4ZM285.2 889.7L285.2 894.4Q285.2 899.7 283.0 902.5Q280.8 905.4 276.6 905.4L276.6 905.4Q272.4 905.4 270.2 902.6Q268.0 899.8 267.9 894.7L267.9 894.7L267.9 890.0Q267.9 884.6 270.2 881.8Q272.4 879.1 276.6 879.1Q280.8 879.1 283.0 881.8Q285.2 884.6 285.2 889.7L285.2 889.7ZM280.2 895.3L280.2 889.3Q280.2 886.1 279.3 884.6Q278.4 883.2 276.6 883.2L276.6 883.2Q274.8 883.2 273.9 884.5Q273.1 885.9 273.0 888.9L273.0 888.9L273.0 895.1Q273.0 898.2 273.9 899.7Q274.7 901.3 276.6 901.3L276.6 901.3Q278.5 901.3 279.3 899.8Q280.1 898.3 280.2 895.3L280.2 895.3ZM288.6 885.6L288.6 884.3Q288.6 882.0 290.1 880.5Q291.6 879.0 294.1 879.0L294.1 879.0Q296.6 879.0 298.2 880.5Q299.7 881.9 299.7 884.4L299.7 884.4L299.7 885.7Q299.7 888.1 298.2 889.5Q296.6 890.9 294.2 890.9L294.2 890.9Q291.7 890.9 290.1 889.5Q288.6 888.0 288.6 885.6L288.6 885.6ZM292.0 884.4L292.0 885.7Q292.0 886.7 292.6 887.4Q293.2 888.0 294.2 888.0Q295.1 888.0 295.7 887.4Q296.3 886.7 296.3 885.6L296.3 885.6L296.3 884.3Q296.3 883.3 295.7 882.6Q295.1 882.0 294.1 882.0L294.1 882.0Q293.2 882.0 292.6 882.6Q292.0 883.3 292.0 884.4L292.0 884.4ZM300.8 900.0L300.8 898.7Q300.8 896.4 302.4 894.9Q303.9 893.5 306.4 893.5L306.4 893.5Q308.9 893.5 310.4 894.9Q312.0 896.3 312.0 898.8L312.0 898.8L312.0 900.1Q312.0 902.5 310.4 903.9Q308.9 905.4 306.4 905.4L306.4 905.4Q303.9 905.4 302.4 903.9Q300.8 902.4 300.8 900.0L300.8 900.0ZM304.2 898.8L304.2 900.1Q304.2 901.1 304.8 901.7Q305.5 902.4 306.4 902.4L306.4 902.4Q308.6 902.4 308.6 900.1L308.6 900.1L308.6 898.7Q308.6 897.7 308.0 897.0Q307.4 896.4 306.4 896.4Q305.4 896.4 304.8 897.0Q304.2 897.7 304.2 898.8L304.2 898.8ZM307.7 883.1L295.2 903.1L292.7 901.7L305.2 881.7L307.7 883.1Z M333.7 905.4L333.7 905.4Q329.5 905.4 326.9 902.8Q324.3 900.2 324.3 895.9L324.3 895.9L324.3 895.5Q324.3 892.6 325.4 890.3Q326.5 888.1 328.5 886.9Q330.5 885.6 333.1 885.6L333.1 885.6Q337.0 885.6 339.3 888.1Q341.5 890.6 341.5 895.1L341.5 895.1L341.5 897.1L329.4 897.1Q329.7 899.0 330.9 900.1Q332.1 901.3 334.0 901.3L334.0 901.3Q337.0 901.3 338.6 899.1L338.6 899.1L341.1 901.9Q340.0 903.5 338.0 904.4Q336.1 905.4 333.7 905.4ZM333.1 889.7L333.1 889.7Q331.6 889.7 330.7 890.8Q329.7 891.8 329.5 893.7L329.5 893.7L336.5 893.7L336.5 893.3Q336.5 891.6 335.6 890.7Q334.7 889.7 333.1 889.7ZM348.5 886.0L351.7 891.7L354.9 886.0L360.3 886.0L354.9 895.3L360.5 905L355.1 905L351.7 899.0L348.3 905L342.8 905L348.5 895.3L343.1 886.0L348.5 886.0ZM379.8 895.4L379.8 895.7Q379.8 900.1 377.9 902.7Q375.9 905.4 372.5 905.4L372.5 905.4Q369.6 905.4 367.8 903.3L367.8 903.3L367.8 912.3L362.7 912.3L362.7 886.0L367.4 886.0L367.6 887.8Q369.5 885.6 372.4 885.6L372.4 885.6Q375.9 885.6 377.9 888.2Q379.8 890.8 379.8 895.4L379.8 895.4ZM374.8 895.3L374.8 895.3Q374.8 892.6 373.8 891.2Q372.9 889.8 371.1 889.8L371.1 889.8Q368.7 889.8 367.8 891.6L367.8 891.6L367.8 899.4Q368.7 901.3 371.1 901.3L371.1 901.3Q374.8 901.3 374.8 895.3ZM391.7 905.4L391.7 905.4Q387.6 905.4 384.9 902.8Q382.3 900.2 382.3 895.9L382.3 895.9L382.3 895.5Q382.3 892.6 383.4 890.3Q384.5 888.1 386.6 886.9Q388.6 885.6 391.2 885.6L391.2 885.6Q395.1 885.6 397.3 888.1Q399.6 890.6 399.6 895.1L399.6 895.1L399.6 897.1L387.5 897.1Q387.7 899.0 388.9 900.1Q390.2 901.3 392.1 901.3L392.1 901.3Q395.0 901.3 396.7 899.1L396.7 899.1L399.2 901.9Q398.0 903.5 396.1 904.4Q394.1 905.4 391.7 905.4ZM391.2 889.7L391.2 889.7Q389.7 889.7 388.7 890.8Q387.8 891.8 387.5 893.7L387.5 893.7L394.6 893.7L394.6 893.3Q394.5 891.6 393.7 890.7Q392.8 889.7 391.2 889.7ZM413.2 885.9L413.1 890.7Q412.1 890.6 411.3 890.6L411.3 890.6Q408.4 890.6 407.5 892.6L407.5 892.6L407.5 905L402.5 905L402.5 886.0L407.3 886.0L407.4 888.2Q408.9 885.6 411.6 885.6L411.6 885.6Q412.5 885.6 413.2 885.9L413.2 885.9ZM420.9 886.0L420.9 905L415.8 905L415.8 886.0L420.9 886.0ZM415.5 881.1L415.5 881.1Q415.5 879.9 416.3 879.2Q417.1 878.4 418.4 878.4L418.4 878.4Q419.7 878.4 420.5 879.2Q421.2 879.9 421.2 881.1L421.2 881.1Q421.2 882.2 420.5 883.0Q419.7 883.7 418.4 883.7Q417.1 883.7 416.3 883.0Q415.5 882.2 415.5 881.1ZM433.9 905.4L433.9 905.4Q429.7 905.4 427.1 902.8Q424.4 900.2 424.4 895.9L424.4 895.9L424.4 895.5Q424.4 892.6 425.6 890.3Q426.7 888.1 428.7 886.9Q430.7 885.6 433.3 885.6L433.3 885.6Q437.2 885.6 439.5 888.1Q441.7 890.6 441.7 895.1L441.7 895.1L441.7 897.1L429.6 897.1Q429.8 899.0 431.1 900.1Q432.3 901.3 434.2 901.3L434.2 901.3Q437.2 901.3 438.8 899.1L438.8 899.1L441.3 901.9Q440.2 903.5 438.2 904.4Q436.3 905.4 433.9 905.4ZM433.3 889.7L433.3 889.7Q431.8 889.7 430.9 890.8Q429.9 891.8 429.6 893.7L429.6 893.7L436.7 893.7L436.7 893.3Q436.7 891.6 435.8 890.7Q434.9 889.7 433.3 889.7ZM444.5 886.0L449.3 886.0L449.4 888.2Q451.5 885.6 454.9 885.6L454.9 885.6Q457.9 885.6 459.4 887.4Q460.9 889.2 460.9 892.7L460.9 892.7L460.9 905L455.8 905L455.8 892.8Q455.8 891.2 455.1 890.5Q454.4 889.8 452.8 889.8L452.8 889.8Q450.6 889.8 449.6 891.6L449.6 891.6L449.6 905L444.5 905L444.5 886.0ZM472.7 901.3L472.7 901.3Q474.1 901.3 474.9 900.5Q475.8 899.7 475.9 898.4L475.9 898.4L480.6 898.4Q480.6 900.4 479.6 902.0Q478.5 903.6 476.7 904.5Q474.9 905.4 472.7 905.4L472.7 905.4Q468.7 905.4 466.3 902.8Q464.0 900.2 464.0 895.6L464.0 895.6L464.0 895.3Q464.0 890.9 466.3 888.2Q468.6 885.6 472.7 885.6L472.7 885.6Q476.3 885.6 478.4 887.7Q480.6 889.7 480.6 893.1L480.6 893.1L475.9 893.1Q475.8 891.6 474.9 890.7Q474.1 889.7 472.6 889.7L472.6 889.7Q470.8 889.7 469.9 891.0Q469.0 892.3 469.0 895.2L469.0 895.2L469.0 895.8Q469.0 898.7 469.9 900.0Q470.8 901.3 472.7 901.3ZM492.3 905.4L492.3 905.4Q488.1 905.4 485.5 902.8Q482.8 900.2 482.8 895.9L482.8 895.9L482.8 895.5Q482.8 892.6 483.9 890.3Q485.1 888.1 487.1 886.9Q489.1 885.6 491.7 885.6L491.7 885.6Q495.6 885.6 497.9 888.1Q500.1 890.6 500.1 895.1L500.1 895.1L500.1 897.1L488.0 897.1Q488.2 899.0 489.5 900.1Q490.7 901.3 492.6 901.3L492.6 901.3Q495.5 901.3 497.2 899.1L497.2 899.1L499.7 901.9Q498.6 903.5 496.6 904.4Q494.7 905.4 492.3 905.4ZM491.7 889.7L491.7 889.7Q490.2 889.7 489.2 890.8Q488.3 891.8 488.0 893.7L488.0 893.7L495.1 893.7L495.1 893.3Q495.1 891.6 494.2 890.7Q493.3 889.7 491.7 889.7Z M512.0 886.0L516.7 886.0L516.9 888.1Q518.9 885.6 522.3 885.6L522.3 885.6Q526.0 885.6 527.4 888.5L527.4 888.5Q529.4 885.6 533.1 885.6L533.1 885.6Q536.2 885.6 537.7 887.4Q539.2 889.2 539.2 892.9L539.2 892.9L539.2 905L534.1 905L534.1 892.9Q534.1 891.3 533.5 890.5Q532.9 889.8 531.3 889.8L531.3 889.8Q529.0 889.8 528.1 891.9L528.1 891.9L528.1 905L523.0 905L523.0 892.9Q523.0 891.2 522.4 890.5Q521.7 889.8 520.2 889.8L520.2 889.8Q518.0 889.8 517.0 891.6L517.0 891.6L517.0 905L512.0 905L512.0 886.0ZM554.6 905L554.5 903.1Q552.6 905.4 549.3 905.4L549.3 905.4Q546.2 905.4 544.6 903.6Q543.0 901.8 543.0 898.4L543.0 898.4L543.0 886.0L548.1 886.0L548.1 898.3Q548.1 901.2 550.8 901.2L550.8 901.2Q553.4 901.2 554.3 899.4L554.3 899.4L554.3 886.0L559.4 886.0L559.4 905L554.6 905ZM573.6 899.7L573.6 899.7Q573.6 898.8 572.6 898.3Q571.7 897.7 569.7 897.3L569.7 897.3Q562.9 895.9 562.9 891.6L562.9 891.6Q562.9 889.0 565.0 887.3Q567.1 885.6 570.5 885.6L570.5 885.6Q574.1 885.6 576.3 887.3Q578.4 889.0 578.4 891.8L578.4 891.8L573.4 891.8Q573.4 890.7 572.7 890.0Q572.0 889.3 570.5 889.3L570.5 889.3Q569.2 889.3 568.5 889.8Q567.8 890.4 567.8 891.3L567.8 891.3Q567.8 892.2 568.6 892.7Q569.4 893.2 571.3 893.6Q573.2 893.9 574.5 894.4L574.5 894.4Q578.5 895.9 578.5 899.5L578.5 899.5Q578.5 902.1 576.3 903.7Q574.0 905.4 570.5 905.4L570.5 905.4Q568.1 905.4 566.3 904.5Q564.4 903.6 563.3 902.2Q562.3 900.7 562.3 899.0L562.3 899.0L567.1 899.0Q567.2 900.3 568.1 901.0Q569.0 901.7 570.6 901.7L570.6 901.7Q572.1 901.7 572.8 901.2Q573.6 900.6 573.6 899.7ZM589.7 901.3L589.7 901.3Q591.1 901.3 592.0 900.5Q592.8 899.7 592.9 898.4L592.9 898.4L597.6 898.4Q597.6 900.4 596.6 902.0Q595.6 903.6 593.8 904.5Q591.9 905.4 589.8 905.4L589.8 905.4Q585.7 905.4 583.3 902.8Q581.0 900.2 581.0 895.6L581.0 895.6L581.0 895.3Q581.0 890.9 583.3 888.2Q585.7 885.6 589.7 885.6L589.7 885.6Q593.3 885.6 595.5 887.7Q597.6 889.7 597.6 893.1L597.6 893.1L592.9 893.1Q592.8 891.6 592.0 890.7Q591.1 889.7 589.6 889.7L589.6 889.7Q587.9 889.7 587.0 891.0Q586.1 892.3 586.1 895.2L586.1 895.2L586.1 895.8Q586.1 898.7 587.0 900.0Q587.9 901.3 589.7 901.3ZM605.9 878L605.9 905L600.8 905L600.8 878L605.9 878ZM618.8 905.4L618.8 905.4Q614.7 905.4 612.0 902.8Q609.4 900.2 609.4 895.9L609.4 895.9L609.4 895.5Q609.4 892.6 610.5 890.3Q611.6 888.1 613.6 886.9Q615.7 885.6 618.3 885.6L618.3 885.6Q622.2 885.6 624.4 888.1Q626.7 890.6 626.7 895.1L626.7 895.1L626.7 897.1L614.6 897.1Q614.8 899.0 616.0 900.1Q617.3 901.3 619.2 901.3L619.2 901.3Q622.1 901.3 623.8 899.1L623.8 899.1L626.3 901.9Q625.1 903.5 623.2 904.4Q621.2 905.4 618.8 905.4ZM618.3 889.7L618.3 889.7Q616.8 889.7 615.8 890.8Q614.9 891.8 614.6 893.7L614.6 893.7L621.7 893.7L621.7 893.3Q621.6 891.6 620.8 890.7Q619.9 889.7 618.3 889.7Z M648.3 899.7L648.3 899.7Q648.3 898.8 647.3 898.3Q646.4 897.7 644.4 897.3L644.4 897.3Q637.6 895.9 637.6 891.6L637.6 891.6Q637.6 889.0 639.7 887.3Q641.8 885.6 645.2 885.6L645.2 885.6Q648.8 885.6 651.0 887.3Q653.1 889.0 653.1 891.8L653.1 891.8L648.1 891.8Q648.1 890.7 647.4 890.0Q646.7 889.3 645.2 889.3L645.2 889.3Q643.9 889.3 643.2 889.8Q642.5 890.4 642.5 891.3L642.5 891.3Q642.5 892.2 643.3 892.7Q644.1 893.2 646.0 893.6Q647.9 893.9 649.2 894.4L649.2 894.4Q653.2 895.9 653.2 899.5L653.2 899.5Q653.2 902.1 651.0 903.7Q648.7 905.4 645.2 905.4L645.2 905.4Q642.8 905.4 640.9 904.5Q639.1 903.6 638.0 902.2Q637.0 900.7 637.0 899.0L637.0 899.0L641.8 899.0Q641.9 900.3 642.8 901.0Q643.7 901.7 645.3 901.7L645.3 901.7Q646.8 901.7 647.5 901.2Q648.3 900.6 648.3 899.7ZM660.0 886.0L663.6 897.8L667.1 886.0L672.5 886.0L664.9 908.0L664.5 909.0Q662.8 912.7 658.8 912.7L658.8 912.7Q657.7 912.7 656.6 912.3L656.6 912.3L656.6 908.5L657.4 908.5Q658.8 908.5 659.5 908.1Q660.2 907.6 660.6 906.6L660.6 906.6L661.2 905.1L654.6 886.0L660.0 886.0ZM674.5 886.0L679.3 886.0L679.5 888.1Q681.5 885.6 684.9 885.6L684.9 885.6Q688.6 885.6 690.0 888.5L690.0 888.5Q692.0 885.6 695.7 885.6L695.7 885.6Q698.8 885.6 700.3 887.4Q701.8 889.2 701.8 892.9L701.8 892.9L701.8 905L696.7 905L696.7 892.9Q696.7 891.3 696.1 890.5Q695.4 889.8 693.8 889.8L693.8 889.8Q691.5 889.8 690.7 891.9L690.7 891.9L690.7 905L685.6 905L685.6 892.9Q685.6 891.2 685.0 890.5Q684.3 889.8 682.7 889.8L682.7 889.8Q680.6 889.8 679.6 891.6L679.6 891.6L679.6 905L674.5 905L674.5 886.0ZM722.8 895.4L722.8 895.7Q722.8 900.1 720.8 902.7Q718.8 905.4 715.4 905.4L715.4 905.4Q712.6 905.4 710.8 903.3L710.8 903.3L710.8 912.3L705.7 912.3L705.7 886.0L710.4 886.0L710.6 887.8Q712.4 885.6 715.4 885.6L715.4 885.6Q718.9 885.6 720.9 888.2Q722.8 890.8 722.8 895.4L722.8 895.4ZM717.7 895.3L717.7 895.3Q717.7 892.6 716.8 891.2Q715.9 889.8 714.1 889.8L714.1 889.8Q711.7 889.8 710.8 891.6L710.8 891.6L710.8 899.4Q711.7 901.3 714.1 901.3L714.1 901.3Q717.7 901.3 717.7 895.3ZM727.0 881.3L732.0 881.3L732.0 886.0L735.3 886.0L735.3 889.7L732.0 889.7L732.0 899.2Q732.0 900.3 732.5 900.7Q732.9 901.2 734.0 901.2L734.0 901.2Q734.8 901.2 735.5 901.0L735.5 901.0L735.5 904.9Q734.0 905.4 732.4 905.4L732.4 905.4Q727.1 905.4 727.0 900.0L727.0 900.0L727.0 889.7L724.2 889.7L724.2 886.0L727.0 886.0L727.0 881.3ZM736.8 895.5L736.8 895.3Q736.8 892.5 737.9 890.3Q739.0 888.1 741.0 886.8Q743.1 885.6 745.8 885.6L745.8 885.6Q749.6 885.6 752.1 888.0Q754.5 890.3 754.8 894.4L754.8 894.4L754.8 895.7Q754.8 900.1 752.4 902.7Q749.9 905.4 745.8 905.4Q741.7 905.4 739.3 902.7Q736.8 900.1 736.8 895.5L736.8 895.5ZM741.9 895.7L741.9 895.7Q741.9 898.4 742.9 899.8Q743.9 901.3 745.8 901.3L745.8 901.3Q747.7 901.3 748.7 899.8Q749.7 898.4 749.7 895.3L749.7 895.3Q749.7 892.7 748.7 891.2Q747.7 889.7 745.8 889.7L745.8 889.7Q743.9 889.7 742.9 891.2Q741.9 892.6 741.9 895.7ZM758.0 886.0L762.7 886.0L762.9 888.1Q764.9 885.6 768.3 885.6L768.3 885.6Q772.0 885.6 773.4 888.5L773.4 888.5Q775.4 885.6 779.1 885.6L779.1 885.6Q782.2 885.6 783.7 887.4Q785.2 889.2 785.2 892.9L785.2 892.9L785.2 905L780.1 905L780.1 892.9Q780.1 891.3 779.5 890.5Q778.9 889.8 777.3 889.8L777.3 889.8Q775.0 889.8 774.1 891.9L774.1 891.9L774.1 905L769.0 905L769.0 892.9Q769.0 891.2 768.4 890.5Q767.7 889.8 766.2 889.8L766.2 889.8Q764.0 889.8 763.0 891.6L763.0 891.6L763.0 905L758.0 905L758.0 886.0ZM799.4 899.7L799.4 899.7Q799.4 898.8 798.5 898.3Q797.6 897.7 795.5 897.3L795.5 897.3Q788.8 895.9 788.8 891.6L788.8 891.6Q788.8 889.0 790.9 887.3Q793.0 885.6 796.3 885.6L796.3 885.6Q800.0 885.6 802.1 887.3Q804.3 889.0 804.3 891.8L804.3 891.8L799.2 891.8Q799.2 890.7 798.5 890.0Q797.8 889.3 796.3 889.3L796.3 889.3Q795.0 889.3 794.3 889.8Q793.6 890.4 793.6 891.3L793.6 891.3Q793.6 892.2 794.4 892.7Q795.2 893.2 797.1 893.6Q799.0 893.9 800.3 894.4L800.3 894.4Q804.4 895.9 804.4 899.5L804.4 899.5Q804.4 902.1 802.1 903.7Q799.9 905.4 796.4 905.4L796.4 905.4Q794.0 905.4 792.1 904.5Q790.3 903.6 789.2 902.2Q788.2 900.7 788.2 899.0L788.2 899.0L793.0 899.0Q793.0 900.3 794.0 901.0Q794.9 901.7 796.5 901.7L796.5 901.7Q797.9 901.7 798.7 901.2Q799.4 900.6 799.4 899.7ZM807.9 902.5L807.9 902.5Q807.9 901.3 808.7 900.5Q809.5 899.8 810.8 899.8L810.8 899.8Q812.0 899.8 812.8 900.5Q813.6 901.3 813.6 902.5L813.6 902.5Q813.6 903.7 812.8 904.4Q812.0 905.2 810.8 905.2L810.8 905.2Q809.5 905.2 808.7 904.4Q807.9 903.7 807.9 902.5Z M849.1 879.4L849.1 905L843.8 905L833.6 888.2L833.6 905L828.3 905L828.3 879.4L833.6 879.4L843.8 896.3L843.8 879.4L849.1 879.4ZM852.6 895.5L852.6 895.3Q852.6 892.5 853.7 890.3Q854.8 888.1 856.8 886.8Q858.9 885.6 861.6 885.6L861.6 885.6Q865.4 885.6 867.8 888.0Q870.3 890.3 870.6 894.4L870.6 894.4L870.6 895.7Q870.6 900.1 868.2 902.7Q865.7 905.4 861.6 905.4Q857.5 905.4 855.0 902.7Q852.6 900.1 852.6 895.5L852.6 895.5ZM857.7 895.7L857.7 895.7Q857.7 898.4 858.7 899.8Q859.7 901.3 861.6 901.3L861.6 901.3Q863.4 901.3 864.5 899.8Q865.5 898.4 865.5 895.3L865.5 895.3Q865.5 892.7 864.5 891.2Q863.4 889.7 861.6 889.7L861.6 889.7Q859.7 889.7 858.7 891.2Q857.7 892.6 857.7 895.7ZM881.6 901.3L881.6 901.3Q883.0 901.3 883.9 900.5Q884.8 899.7 884.8 898.4L884.8 898.4L889.6 898.4Q889.6 900.4 888.5 902.0Q887.5 903.6 885.7 904.5Q883.9 905.4 881.7 905.4L881.7 905.4Q877.6 905.4 875.3 902.8Q872.9 900.2 872.9 895.6L872.9 895.6L872.9 895.3Q872.9 890.9 875.3 888.2Q877.6 885.6 881.7 885.6L881.7 885.6Q885.3 885.6 887.4 887.7Q889.6 889.7 889.6 893.1L889.6 893.1L884.8 893.1Q884.8 891.6 883.9 890.7Q883.0 889.7 881.6 889.7L881.6 889.7Q879.8 889.7 878.9 891.0Q878.0 892.3 878.0 895.2L878.0 895.2L878.0 895.8Q878.0 898.7 878.9 900.0Q879.8 901.3 881.6 901.3ZM901.3 905.4L901.3 905.4Q897.1 905.4 894.4 902.8Q891.8 900.2 891.8 895.9L891.8 895.9L891.8 895.5Q891.8 892.6 892.9 890.3Q894.0 888.1 896.1 886.9Q898.1 885.6 900.7 885.6L900.7 885.6Q904.6 885.6 906.8 888.1Q909.1 890.6 909.1 895.1L909.1 895.1L909.1 897.1L897.0 897.1Q897.2 899.0 898.4 900.1Q899.7 901.3 901.6 901.3L901.6 901.3Q904.5 901.3 906.2 899.1L906.2 899.1L908.7 901.9Q907.5 903.5 905.6 904.4Q903.6 905.4 901.3 905.4ZM900.7 889.7L900.7 889.7Q899.2 889.7 898.2 890.8Q897.3 891.8 897.0 893.7L897.0 893.7L904.1 893.7L904.1 893.3Q904.0 891.6 903.2 890.7Q902.3 889.7 900.7 889.7ZM929.1 895.4L929.1 895.7Q929.1 900.2 927.1 902.8Q925.2 905.4 921.7 905.4L921.7 905.4Q918.6 905.4 916.8 903.0L916.8 903.0L916.5 905L912.0 905L912.0 878L917.0 878L917.0 887.7Q918.8 885.6 921.7 885.6L921.7 885.6Q925.1 885.6 927.1 888.2Q929.1 890.7 929.1 895.4L929.1 895.4ZM924.0 895.3L924.0 895.3Q924.0 892.4 923.1 891.1Q922.2 889.8 920.4 889.8L920.4 889.8Q918.0 889.8 917.0 891.7L917.0 891.7L917.0 899.3Q918.0 901.3 920.4 901.3L920.4 901.3Q922.9 901.3 923.6 898.8L923.6 898.8Q924.0 897.7 924.0 895.3ZM931.4 895.5L931.4 895.3Q931.4 892.5 932.5 890.3Q933.6 888.1 935.7 886.8Q937.7 885.6 940.4 885.6L940.4 885.6Q944.3 885.6 946.7 888.0Q949.1 890.3 949.4 894.4L949.4 894.4L949.5 895.7Q949.5 900.1 947.0 902.7Q944.6 905.4 940.5 905.4Q936.3 905.4 933.9 902.7Q931.4 900.1 931.4 895.5L931.4 895.5ZM936.5 895.7L936.5 895.7Q936.5 898.4 937.5 899.8Q938.6 901.3 940.5 901.3L940.5 901.3Q942.3 901.3 943.3 899.8Q944.4 898.4 944.4 895.3L944.4 895.3Q944.4 892.7 943.3 891.2Q942.3 889.7 940.4 889.7L940.4 889.7Q938.6 889.7 937.5 891.2Q936.5 892.6 936.5 895.7Z M154.7 952.4L154.7 952.4Q150.5 952.4 147.9 949.8Q145.3 947.2 145.3 942.9L145.3 942.9L145.3 942.5Q145.3 939.6 146.4 937.3Q147.5 935.1 149.5 933.9Q151.5 932.6 154.1 932.6L154.1 932.6Q158.0 932.6 160.3 935.1Q162.5 937.6 162.5 942.1L162.5 942.1L162.5 944.1L150.4 944.1Q150.7 946.0 151.9 947.1Q153.1 948.3 155.0 948.3L155.0 948.3Q158.0 948.3 159.6 946.1L159.6 946.1L162.1 948.9Q161.0 950.5 159.0 951.4Q157.1 952.4 154.7 952.4ZM154.1 936.7L154.1 936.7Q152.6 936.7 151.7 937.8Q150.7 938.8 150.5 940.7L150.5 940.7L157.5 940.7L157.5 940.3Q157.5 938.6 156.6 937.7Q155.7 936.7 154.1 936.7ZM171.9 952L166.8 952L166.8 936.7L164.0 936.7L164.0 933.0L166.8 933.0L166.8 931.4Q166.8 928.2 168.6 926.4Q170.5 924.6 173.8 924.6L173.8 924.6Q174.8 924.6 176.4 925.0L176.4 925.0L176.3 928.9Q175.7 928.8 174.8 928.8L174.8 928.8Q171.9 928.8 171.9 931.5L171.9 931.5L171.9 933.0L175.7 933.0L175.7 936.7L171.9 936.7L171.9 952ZM184.8 952L179.7 952L179.7 936.7L176.9 936.7L176.9 933.0L179.7 933.0L179.7 931.4Q179.7 928.2 181.5 926.4Q183.4 924.6 186.7 924.6L186.7 924.6Q187.7 924.6 189.3 925.0L189.3 925.0L189.2 928.9Q188.6 928.8 187.7 928.8L187.7 928.8Q184.8 928.8 184.8 931.5L184.8 931.5L184.8 933.0L188.6 933.0L188.6 936.7L184.8 936.7L184.8 952ZM199.5 952.4L199.5 952.4Q195.4 952.4 192.7 949.8Q190.1 947.2 190.1 942.9L190.1 942.9L190.1 942.5Q190.1 939.6 191.2 937.3Q192.3 935.1 194.4 933.9Q196.4 932.6 199.0 932.6L199.0 932.6Q202.9 932.6 205.1 935.1Q207.4 937.6 207.4 942.1L207.4 942.1L207.4 944.1L195.3 944.1Q195.5 946.0 196.7 947.1Q198.0 948.3 199.9 948.3L199.9 948.3Q202.8 948.3 204.5 946.1L204.5 946.1L207.0 948.9Q205.8 950.5 203.9 951.4Q201.9 952.4 199.5 952.4ZM199.0 936.7L199.0 936.7Q197.5 936.7 196.5 937.8Q195.6 938.8 195.3 940.7L195.3 940.7L202.4 940.7L202.4 940.3Q202.3 938.6 201.5 937.7Q200.6 936.7 199.0 936.7ZM218.2 948.3L218.2 948.3Q219.6 948.3 220.4 947.5Q221.3 946.7 221.4 945.4L221.4 945.4L226.1 945.4Q226.1 947.4 225.1 949.0Q224.0 950.6 222.2 951.5Q220.4 952.4 218.3 952.4L218.3 952.4Q214.2 952.4 211.8 949.8Q209.5 947.2 209.5 942.6L209.5 942.6L209.5 942.3Q209.5 937.9 211.8 935.2Q214.1 932.6 218.2 932.6L218.2 932.6Q221.8 932.6 223.9 934.7Q226.1 936.7 226.1 940.1L226.1 940.1L221.4 940.1Q221.3 938.6 220.4 937.7Q219.6 936.7 218.1 936.7L218.1 936.7Q216.4 936.7 215.4 938.0Q214.5 939.3 214.5 942.2L214.5 942.2L214.5 942.8Q214.5 945.7 215.4 947.0Q216.3 948.3 218.2 948.3ZM230.0 928.3L235.1 928.3L235.1 933.0L238.4 933.0L238.4 936.7L235.1 936.7L235.1 946.2Q235.1 947.3 235.5 947.7Q235.9 948.2 237.1 948.2L237.1 948.2Q237.9 948.2 238.6 948.0L238.6 948.0L238.6 951.9Q237.1 952.4 235.5 952.4L235.5 952.4Q230.1 952.4 230.0 947.0L230.0 947.0L230.0 936.7L227.3 936.7L227.3 933.0L230.0 933.0L230.0 928.3Z M266.1 952L261.0 952Q260.6 951.3 260.5 950.3L260.5 950.3Q258.6 952.4 255.7 952.4L255.7 952.4Q252.9 952.4 251.0 950.7Q249.2 949.1 249.2 946.7L249.2 946.7Q249.2 943.6 251.4 942.0Q253.7 940.4 257.9 940.4L257.9 940.4L260.3 940.4L260.3 939.3Q260.3 938.0 259.6 937.2Q258.9 936.4 257.4 936.4L257.4 936.4Q256.2 936.4 255.4 937.0Q254.7 937.6 254.7 938.7L254.7 938.7L249.6 938.7Q249.6 937.0 250.6 935.6Q251.7 934.2 253.5 933.4Q255.4 932.6 257.7 932.6L257.7 932.6Q261.2 932.6 263.3 934.4Q265.3 936.2 265.3 939.4L265.3 939.4L265.3 947.6Q265.4 950.3 266.1 951.7L266.1 951.7L266.1 952ZM256.8 948.5L256.8 948.5Q257.9 948.5 258.8 948.0Q259.8 947.5 260.3 946.6L260.3 946.6L260.3 943.4L258.4 943.4Q254.5 943.4 254.3 946.0L254.3 946.0L254.3 946.3Q254.3 947.2 254.9 947.9Q255.6 948.5 256.8 948.5ZM277.2 948.3L277.2 948.3Q278.6 948.3 279.4 947.5Q280.3 946.7 280.4 945.4L280.4 945.4L285.1 945.4Q285.1 947.4 284.1 949.0Q283.0 950.6 281.2 951.5Q279.4 952.4 277.3 952.4L277.3 952.4Q273.2 952.4 270.8 949.8Q268.5 947.2 268.5 942.6L268.5 942.6L268.5 942.3Q268.5 937.9 270.8 935.2Q273.1 932.6 277.2 932.6L277.2 932.6Q280.8 932.6 282.9 934.7Q285.1 936.7 285.1 940.1L285.1 940.1L280.4 940.1Q280.3 938.6 279.4 937.7Q278.6 936.7 277.1 936.7L277.1 936.7Q275.4 936.7 274.4 938.0Q273.5 939.3 273.5 942.2L273.5 942.2L273.5 942.8Q273.5 945.7 274.4 947.0Q275.3 948.3 277.2 948.3ZM295.9 948.3L295.9 948.3Q297.3 948.3 298.2 947.5Q299.1 946.7 299.1 945.4L299.1 945.4L303.9 945.4Q303.9 947.4 302.8 949.0Q301.8 950.6 300.0 951.5Q298.2 952.4 296.0 952.4L296.0 952.4Q291.9 952.4 289.6 949.8Q287.2 947.2 287.2 942.6L287.2 942.6L287.2 942.3Q287.2 937.9 289.6 935.2Q291.9 932.6 296.0 932.6L296.0 932.6Q299.6 932.6 301.7 934.7Q303.9 936.7 303.9 940.1L303.9 940.1L299.1 940.1Q299.1 938.6 298.2 937.7Q297.3 936.7 295.9 936.7L295.9 936.7Q294.1 936.7 293.2 938.0Q292.3 939.3 292.3 942.2L292.3 942.2L292.3 942.8Q292.3 945.7 293.2 947.0Q294.1 948.3 295.9 948.3ZM306.0 942.5L306.0 942.3Q306.0 939.5 307.1 937.3Q308.2 935.1 310.2 933.8Q312.3 932.6 315.0 932.6L315.0 932.6Q318.8 932.6 321.3 935.0Q323.7 937.3 324.0 941.4L324.0 941.4L324.0 942.7Q324.0 947.1 321.6 949.7Q319.1 952.4 315.0 952.4Q310.9 952.4 308.5 949.7Q306.0 947.1 306.0 942.5L306.0 942.5ZM311.1 942.7L311.1 942.7Q311.1 945.4 312.1 946.8Q313.1 948.3 315.0 948.3L315.0 948.3Q316.9 948.3 317.9 946.8Q318.9 945.4 318.9 942.3L318.9 942.3Q318.9 939.7 317.9 938.2Q316.9 936.7 315.0 936.7L315.0 936.7Q313.1 936.7 312.1 938.2Q311.1 939.6 311.1 942.7ZM338.7 952L338.5 950.1Q336.7 952.4 333.3 952.4L333.3 952.4Q330.3 952.4 328.7 950.6Q327.1 948.8 327.0 945.4L327.0 945.4L327.0 933.0L332.1 933.0L332.1 945.3Q332.1 948.2 334.8 948.2L334.8 948.2Q337.4 948.2 338.4 946.4L338.4 946.4L338.4 933.0L343.5 933.0L343.5 952L338.7 952ZM347.2 933.0L352.0 933.0L352.1 935.2Q354.2 932.6 357.6 932.6L357.6 932.6Q360.6 932.6 362.1 934.4Q363.6 936.2 363.6 939.7L363.6 939.7L363.6 952L358.5 952L358.5 939.8Q358.5 938.2 357.8 937.5Q357.1 936.8 355.5 936.8L355.5 936.8Q353.3 936.8 352.3 938.6L352.3 938.6L352.3 952L347.2 952L347.2 933.0ZM368.5 928.3L373.5 928.3L373.5 933.0L376.8 933.0L376.8 936.7L373.5 936.7L373.5 946.2Q373.5 947.3 373.9 947.7Q374.4 948.2 375.5 948.2L375.5 948.2Q376.3 948.2 377.0 948.0L377.0 948.0L377.0 951.9Q375.5 952.4 373.9 952.4L373.9 952.4Q368.6 952.4 368.5 947.0L368.5 947.0L368.5 936.7L365.7 936.7L365.7 933.0L368.5 933.0L368.5 928.3ZM389.9 946.7L389.9 946.7Q389.9 945.8 389.0 945.3Q388.1 944.7 386.0 944.3L386.0 944.3Q379.3 942.9 379.3 938.6L379.3 938.6Q379.3 936.0 381.4 934.3Q383.5 932.6 386.8 932.6L386.8 932.6Q390.5 932.6 392.6 934.3Q394.8 936.0 394.8 938.8L394.8 938.8L389.7 938.8Q389.7 937.7 389.0 937.0Q388.3 936.3 386.8 936.3L386.8 936.3Q385.5 936.3 384.8 936.8Q384.1 937.4 384.1 938.3L384.1 938.3Q384.1 939.2 384.9 939.7Q385.7 940.2 387.6 940.6Q389.5 940.9 390.8 941.4L390.8 941.4Q394.9 942.9 394.9 946.5L394.9 946.5Q394.9 949.1 392.6 950.7Q390.4 952.4 386.9 952.4L386.9 952.4Q384.5 952.4 382.6 951.5Q380.8 950.6 379.7 949.2Q378.7 947.7 378.7 946.0L378.7 946.0L383.5 946.0Q383.5 947.3 384.5 948.0Q385.4 948.7 387.0 948.7L387.0 948.7Q388.4 948.7 389.2 948.2Q389.9 947.6 389.9 946.7Z M414.4 952L409.3 952L409.3 936.7L406.5 936.7L406.5 933.0L409.3 933.0L409.3 931.4Q409.3 928.2 411.2 926.4Q413.0 924.6 416.3 924.6L416.3 924.6Q417.4 924.6 418.9 925.0L418.9 925.0L418.8 928.9Q418.2 928.8 417.3 928.8L417.3 928.8Q414.4 928.8 414.4 931.5L414.4 931.5L414.4 933.0L418.2 933.0L418.2 936.7L414.4 936.7L414.4 952ZM420.1 942.5L420.1 942.3Q420.1 939.5 421.2 937.3Q422.2 935.1 424.3 933.8Q426.3 932.6 429.0 932.6L429.0 932.6Q432.9 932.6 435.3 935.0Q437.8 937.3 438.0 941.4L438.0 941.4L438.1 942.7Q438.1 947.1 435.6 949.7Q433.2 952.4 429.1 952.4Q425.0 952.4 422.5 949.7Q420.1 947.1 420.1 942.5L420.1 942.5ZM425.1 942.7L425.1 942.7Q425.1 945.4 426.2 946.8Q427.2 948.3 429.1 948.3L429.1 948.3Q430.9 948.3 432.0 946.8Q433 945.4 433 942.3L433 942.3Q433 939.7 432.0 938.2Q430.9 936.7 429.0 936.7L429.0 936.7Q427.2 936.7 426.2 938.2Q425.1 939.6 425.1 942.7ZM452.0 932.9L451.9 937.7Q450.9 937.6 450.1 937.6L450.1 937.6Q447.2 937.6 446.3 939.6L446.3 939.6L446.3 952L441.2 952L441.2 933.0L446.0 933.0L446.1 935.2Q447.7 932.6 450.4 932.6L450.4 932.6Q451.2 932.6 452.0 932.9L452.0 932.9Z M474.6 941.8L474.6 941.8Q472.6 943.7 470.0 943.7L470.0 943.7Q466.6 943.7 464.6 941.4Q462.5 939.1 462.5 935.1L462.5 935.1Q462.5 932.6 463.6 930.5Q464.7 928.4 466.7 927.2Q468.6 926.1 471.1 926.1L471.1 926.1Q473.6 926.1 475.6 927.3Q477.6 928.6 478.7 931.0Q479.8 933.3 479.8 936.4L479.8 936.4L479.8 938.3Q479.8 944.7 476.6 948.3Q473.4 952.0 467.6 952.2L467.6 952.2L466.3 952.2L466.3 948.0L467.5 948.0Q474.1 947.7 474.6 941.8ZM471.2 939.8L471.2 939.8Q472.5 939.8 473.3 939.2Q474.2 938.6 474.7 937.7L474.7 937.7L474.7 935.6Q474.7 933.0 473.7 931.6Q472.7 930.2 471.1 930.2L471.1 930.2Q469.5 930.2 468.6 931.5Q467.6 932.9 467.6 935.1L467.6 935.1Q467.6 937.1 468.5 938.5Q469.5 939.8 471.2 939.8ZM500.6 936.7L500.6 941.4Q500.6 946.7 498.4 949.5Q496.2 952.4 492.0 952.4L492.0 952.4Q487.8 952.4 485.6 949.6Q483.4 946.8 483.3 941.7L483.3 941.7L483.3 937.0Q483.3 931.6 485.5 928.8Q487.8 926.1 492.0 926.1Q496.1 926.1 498.4 928.8Q500.6 931.6 500.6 936.7L500.6 936.7ZM495.5 942.3L495.5 936.3Q495.5 933.1 494.7 931.6Q493.8 930.2 492.0 930.2L492.0 930.2Q490.2 930.2 489.3 931.5Q488.5 932.9 488.4 935.9L488.4 935.9L488.4 942.1Q488.4 945.2 489.3 946.7Q490.1 948.3 492.0 948.3L492.0 948.3Q493.9 948.3 494.7 946.8Q495.5 945.3 495.5 942.3L495.5 942.3ZM504.0 932.6L504.0 931.3Q504.0 929.0 505.5 927.5Q507.0 926.0 509.5 926.0L509.5 926.0Q512.0 926.0 513.6 927.5Q515.1 928.9 515.1 931.4L515.1 931.4L515.1 932.7Q515.1 935.1 513.6 936.5Q512.0 937.9 509.6 937.9L509.6 937.9Q507.1 937.9 505.5 936.5Q504.0 935.0 504.0 932.6L504.0 932.6ZM507.4 931.4L507.4 932.7Q507.4 933.7 508.0 934.4Q508.6 935.0 509.6 935.0Q510.5 935.0 511.1 934.4Q511.7 933.7 511.7 932.6L511.7 932.6L511.7 931.3Q511.7 930.3 511.1 929.6Q510.5 929.0 509.5 929.0L509.5 929.0Q508.5 929.0 508.0 929.6Q507.4 930.3 507.4 931.4L507.4 931.4ZM516.2 947.0L516.2 945.7Q516.2 943.4 517.8 941.9Q519.3 940.5 521.8 940.5L521.8 940.5Q524.3 940.5 525.8 941.9Q527.3 943.3 527.3 945.8L527.3 945.8L527.3 947.1Q527.3 949.5 525.8 950.9Q524.3 952.4 521.8 952.4L521.8 952.4Q519.3 952.4 517.7 950.9Q516.2 949.4 516.2 947.0L516.2 947.0ZM519.6 945.8L519.6 947.1Q519.6 948.1 520.2 948.7Q520.9 949.4 521.8 949.4L521.8 949.4Q523.9 949.4 523.9 947.1L523.9 947.1L523.9 945.7Q523.9 944.7 523.3 944.0Q522.8 943.4 521.8 943.4Q520.8 943.4 520.2 944.0Q519.6 944.7 519.6 945.8L519.6 945.8ZM523.1 930.1L510.6 950.1L508.1 948.7L520.6 928.7L523.1 930.1Z M539.2 942.5L539.2 942.3Q539.2 939.5 540.3 937.3Q541.3 935.1 543.4 933.8Q545.4 932.6 548.1 932.6L548.1 932.6Q552.0 932.6 554.4 935.0Q556.9 937.3 557.1 941.4L557.1 941.4L557.2 942.7Q557.2 947.1 554.7 949.7Q552.3 952.4 548.2 952.4Q544.1 952.4 541.6 949.7Q539.2 947.1 539.2 942.5L539.2 942.5ZM544.2 942.7L544.2 942.7Q544.2 945.4 545.3 946.8Q546.3 948.3 548.2 948.3L548.2 948.3Q550.0 948.3 551.1 946.8Q552.1 945.4 552.1 942.3L552.1 942.3Q552.1 939.7 551.1 938.2Q550.0 936.7 548.1 936.7L548.1 936.7Q546.3 936.7 545.3 938.2Q544.2 939.6 544.2 942.7ZM566.8 952L561.7 952L561.7 936.7L558.9 936.7L558.9 933.0L561.7 933.0L561.7 931.4Q561.7 928.2 563.5 926.4Q565.4 924.6 568.7 924.6L568.7 924.6Q569.7 924.6 571.3 925.0L571.3 925.0L571.2 928.9Q570.6 928.8 569.7 928.8L569.7 928.8Q566.8 928.8 566.8 931.5L566.8 931.5L566.8 933.0L570.6 933.0L570.6 936.7L566.8 936.7L566.8 952Z M592.7 932.9L592.6 937.7Q591.6 937.6 590.8 937.6L590.8 937.6Q587.9 937.6 587.0 939.6L587.0 939.6L587.0 952L582.0 952L582.0 933.0L586.8 933.0L586.9 935.2Q588.4 932.6 591.1 932.6L591.1 932.6Q592.0 932.6 592.7 932.9L592.7 932.9ZM603.5 952.4L603.5 952.4Q599.3 952.4 596.7 949.8Q594.1 947.2 594.1 942.9L594.1 942.9L594.1 942.5Q594.1 939.6 595.2 937.3Q596.3 935.1 598.3 933.9Q600.3 932.6 602.9 932.6L602.9 932.6Q606.8 932.6 609.1 935.1Q611.3 937.6 611.3 942.1L611.3 942.1L611.3 944.1L599.2 944.1Q599.5 946.0 600.7 947.1Q601.9 948.3 603.8 948.3L603.8 948.3Q606.8 948.3 608.4 946.1L608.4 946.1L610.9 948.9Q609.8 950.5 607.8 951.4Q605.9 952.4 603.5 952.4ZM602.9 936.7L602.9 936.7Q601.4 936.7 600.5 937.8Q599.5 938.8 599.3 940.7L599.3 940.7L606.3 940.7L606.3 940.3Q606.3 938.6 605.4 937.7Q604.5 936.7 602.9 936.7ZM631.3 942.4L631.3 942.7Q631.3 947.1 629.3 949.7Q627.3 952.4 623.9 952.4L623.9 952.4Q621.1 952.4 619.3 950.3L619.3 950.3L619.3 959.3L614.2 959.3L614.2 933.0L618.9 933.0L619.1 934.8Q620.9 932.6 623.9 932.6L623.9 932.6Q627.4 932.6 629.4 935.2Q631.3 937.8 631.3 942.4L631.3 942.4ZM626.2 942.3L626.2 942.3Q626.2 939.6 625.3 938.2Q624.4 936.8 622.6 936.8L622.6 936.8Q620.2 936.8 619.3 938.6L619.3 938.6L619.3 946.4Q620.2 948.3 622.6 948.3L622.6 948.3Q626.2 948.3 626.2 942.3ZM633.7 942.5L633.7 942.3Q633.7 939.5 634.8 937.3Q635.9 935.1 637.9 933.8Q640.0 932.6 642.7 932.6L642.7 932.6Q646.5 932.6 649.0 935.0Q651.4 937.3 651.7 941.4L651.7 941.4L651.7 942.7Q651.7 947.1 649.3 949.7Q646.8 952.4 642.7 952.4Q638.6 952.4 636.1 949.7Q633.7 947.1 633.7 942.5L633.7 942.5ZM638.8 942.7L638.8 942.7Q638.8 945.4 639.8 946.8Q640.8 948.3 642.7 948.3L642.7 948.3Q644.5 948.3 645.6 946.8Q646.6 945.4 646.6 942.3L646.6 942.3Q646.6 939.7 645.6 938.2Q644.5 936.7 642.7 936.7L642.7 936.7Q640.8 936.7 639.8 938.2Q638.8 939.6 638.8 942.7ZM665.6 932.9L665.5 937.7Q664.5 937.6 663.7 937.6L663.7 937.6Q660.8 937.6 659.9 939.6L659.9 939.6L659.9 952L654.8 952L654.8 933.0L659.6 933.0L659.8 935.2Q661.3 932.6 664.0 932.6L664.0 932.6Q664.8 932.6 665.6 932.9L665.6 932.9ZM669.8 928.3L674.9 928.3L674.9 933.0L678.2 933.0L678.2 936.7L674.9 936.7L674.9 946.2Q674.9 947.3 675.3 947.7Q675.7 948.2 676.9 948.2L676.9 948.2Q677.7 948.2 678.4 948.0L678.4 948.0L678.4 951.9Q676.9 952.4 675.3 952.4L675.3 952.4Q669.9 952.4 669.8 947.0L669.8 947.0L669.8 936.7L667.1 936.7L667.1 933.0L669.8 933.0L669.8 928.3ZM689.8 952.4L689.8 952.4Q685.6 952.4 682.9 949.8Q680.3 947.2 680.3 942.9L680.3 942.9L680.3 942.5Q680.3 939.6 681.4 937.3Q682.5 935.1 684.6 933.9Q686.6 932.6 689.2 932.6L689.2 932.6Q693.1 932.6 695.3 935.1Q697.6 937.6 697.6 942.1L697.6 942.1L697.6 944.1L685.5 944.1Q685.7 946.0 687.0 947.1Q688.2 948.3 690.1 948.3L690.1 948.3Q693.0 948.3 694.7 946.1L694.7 946.1L697.2 948.9Q696.0 950.5 694.1 951.4Q692.1 952.4 689.8 952.4ZM689.2 936.7L689.2 936.7Q687.7 936.7 686.7 937.8Q685.8 938.8 685.5 940.7L685.5 940.7L692.6 940.7L692.6 940.3Q692.6 938.6 691.7 937.7Q690.8 936.7 689.2 936.7ZM699.7 942.3L699.7 942.3Q699.7 937.9 701.7 935.3Q703.7 932.6 707.1 932.6L707.1 932.6Q709.9 932.6 711.7 934.7L711.7 934.7L711.7 925L716.8 925L716.8 952L712.2 952L712.0 950.0Q710.1 952.4 707.1 952.4L707.1 952.4Q703.7 952.4 701.7 949.7Q699.7 947.1 699.7 942.3ZM704.8 942.7L704.8 942.7Q704.8 945.4 705.7 946.8Q706.6 948.2 708.4 948.2L708.4 948.2Q710.7 948.2 711.7 946.3L711.7 946.3L711.7 938.7Q710.8 936.8 708.4 936.8L708.4 936.8Q704.8 936.8 704.8 942.7Z M739.3 946.7L739.3 946.7Q739.3 945.8 738.3 945.3Q737.4 944.7 735.4 944.3L735.4 944.3Q728.6 942.9 728.6 938.6L728.6 938.6Q728.6 936.0 730.7 934.3Q732.8 932.6 736.2 932.6L736.2 932.6Q739.8 932.6 742.0 934.3Q744.1 936.0 744.1 938.8L744.1 938.8L739.1 938.8Q739.1 937.7 738.4 937.0Q737.7 936.3 736.2 936.3L736.2 936.3Q734.9 936.3 734.2 936.8Q733.5 937.4 733.5 938.3L733.5 938.3Q733.5 939.2 734.3 939.7Q735.1 940.2 737.0 940.6Q738.9 940.9 740.2 941.4L740.2 941.4Q744.2 942.9 744.2 946.5L744.2 946.5Q744.2 949.1 742.0 950.7Q739.7 952.4 736.2 952.4L736.2 952.4Q733.8 952.4 731.9 951.5Q730.1 950.6 729.0 949.2Q728.0 947.7 728.0 946.0L728.0 946.0L732.8 946.0Q732.9 947.3 733.8 948.0Q734.7 948.7 736.3 948.7L736.3 948.7Q737.8 948.7 738.5 948.2Q739.3 947.6 739.3 946.7ZM751.0 933.0L754.6 944.8L758.1 933.0L763.5 933.0L755.9 955.0L755.5 956.0Q753.8 959.7 749.8 959.7L749.8 959.7Q748.7 959.7 747.6 959.3L747.6 959.3L747.6 955.5L748.4 955.5Q749.8 955.5 750.5 955.1Q751.2 954.6 751.6 953.6L751.6 953.6L752.2 952.1L745.6 933.0L751.0 933.0ZM765.5 933.0L770.3 933.0L770.5 935.1Q772.5 932.6 775.9 932.6L775.9 932.6Q779.6 932.6 781.0 935.5L781.0 935.5Q783.0 932.6 786.7 932.6L786.7 932.6Q789.8 932.6 791.3 934.4Q792.8 936.2 792.8 939.9L792.8 939.9L792.8 952L787.7 952L787.7 939.9Q787.7 938.3 787.1 937.5Q786.4 936.8 784.8 936.8L784.8 936.8Q782.5 936.8 781.7 938.9L781.7 938.9L781.7 952L776.6 952L776.6 939.9Q776.6 938.2 776.0 937.5Q775.3 936.8 773.7 936.8L773.7 936.8Q771.6 936.8 770.6 938.6L770.6 938.6L770.6 952L765.5 952L765.5 933.0ZM813.8 942.4L813.8 942.7Q813.8 947.1 811.8 949.7Q809.8 952.4 806.4 952.4L806.4 952.4Q803.6 952.4 801.8 950.3L801.8 950.3L801.8 959.3L796.7 959.3L796.7 933.0L801.4 933.0L801.6 934.8Q803.4 932.6 806.4 932.6L806.4 932.6Q809.9 932.6 811.9 935.2Q813.8 937.8 813.8 942.4L813.8 942.4ZM808.7 942.3L808.7 942.3Q808.7 939.6 807.8 938.2Q806.9 936.8 805.1 936.8L805.1 936.8Q802.7 936.8 801.8 938.6L801.8 938.6L801.8 946.4Q802.7 948.3 805.1 948.3L805.1 948.3Q808.7 948.3 808.7 942.3ZM818.0 928.3L823.0 928.3L823.0 933.0L826.3 933.0L826.3 936.7L823.0 936.7L823.0 946.2Q823.0 947.3 823.5 947.7Q823.9 948.2 825.0 948.2L825.0 948.2Q825.8 948.2 826.5 948.0L826.5 948.0L826.5 951.9Q825.0 952.4 823.4 952.4L823.4 952.4Q818.1 952.4 818.0 947.0L818.0 947.0L818.0 936.7L815.2 936.7L815.2 933.0L818.0 933.0L818.0 928.3ZM827.8 942.5L827.8 942.3Q827.8 939.5 828.9 937.3Q830.0 935.1 832.0 933.8Q834.1 932.6 836.8 932.6L836.8 932.6Q840.6 932.6 843.1 935.0Q845.5 937.3 845.8 941.4L845.8 941.4L845.8 942.7Q845.8 947.1 843.4 949.7Q840.9 952.4 836.8 952.4Q832.7 952.4 830.3 949.7Q827.8 947.1 827.8 942.5L827.8 942.5ZM832.9 942.7L832.9 942.7Q832.9 945.4 833.9 946.8Q834.9 948.3 836.8 948.3L836.8 948.3Q838.7 948.3 839.7 946.8Q840.7 945.4 840.7 942.3L840.7 942.3Q840.7 939.7 839.7 938.2Q838.7 936.7 836.8 936.7L836.8 936.7Q834.9 936.7 833.9 938.2Q832.9 939.6 832.9 942.7ZM849.0 933.0L853.7 933.0L853.9 935.1Q855.9 932.6 859.3 932.6L859.3 932.6Q863.0 932.6 864.4 935.5L864.4 935.5Q866.4 932.6 870.1 932.6L870.1 932.6Q873.2 932.6 874.7 934.4Q876.2 936.2 876.2 939.9L876.2 939.9L876.2 952L871.1 952L871.1 939.9Q871.1 938.3 870.5 937.5Q869.9 936.8 868.3 936.8L868.3 936.8Q866.0 936.8 865.1 938.9L865.1 938.9L865.1 952L860.0 952L860.0 939.9Q860.0 938.2 859.4 937.5Q858.7 936.8 857.2 936.8L857.2 936.8Q855.0 936.8 854.0 938.6L854.0 938.6L854.0 952L849.0 952L849.0 933.0ZM890.4 946.7L890.4 946.7Q890.4 945.8 889.5 945.3Q888.6 944.7 886.5 944.3L886.5 944.3Q879.8 942.9 879.8 938.6L879.8 938.6Q879.8 936.0 881.9 934.3Q884.0 932.6 887.3 932.6L887.3 932.6Q891.0 932.6 893.1 934.3Q895.3 936.0 895.3 938.8L895.3 938.8L890.2 938.8Q890.2 937.7 889.5 937.0Q888.8 936.3 887.3 936.3L887.3 936.3Q886.0 936.3 885.3 936.8Q884.6 937.4 884.6 938.3L884.6 938.3Q884.6 939.2 885.4 939.7Q886.2 940.2 888.1 940.6Q890.0 940.9 891.3 941.4L891.3 941.4Q895.4 942.9 895.4 946.5L895.4 946.5Q895.4 949.1 893.1 950.7Q890.9 952.4 887.4 952.4L887.4 952.4Q885.0 952.4 883.1 951.5Q881.3 950.6 880.2 949.2Q879.2 947.7 879.2 946.0L879.2 946.0L884.0 946.0Q884.0 947.3 885.0 948.0Q885.9 948.7 887.5 948.7L887.5 948.7Q888.9 948.7 889.7 948.2Q890.4 947.6 890.4 946.7Z M913.3 933.0L913.3 952L908.2 952L908.2 933.0L913.3 933.0ZM907.9 928.1L907.9 928.1Q907.9 926.9 908.7 926.2Q909.4 925.4 910.8 925.4L910.8 925.4Q912.1 925.4 912.8 926.2Q913.6 926.9 913.6 928.1L913.6 928.1Q913.6 929.2 912.8 930.0Q912.0 930.7 910.8 930.7Q909.5 930.7 908.7 930.0Q907.9 929.2 907.9 928.1ZM917.4 933.0L922.2 933.0L922.3 935.2Q924.4 932.6 927.8 932.6L927.8 932.6Q930.8 932.6 932.3 934.4Q933.8 936.2 933.8 939.7L933.8 939.7L933.8 952L928.7 952L928.7 939.8Q928.7 938.2 928.0 937.5Q927.3 936.8 925.7 936.8L925.7 936.8Q923.5 936.8 922.5 938.6L922.5 938.6L922.5 952L917.4 952L917.4 933.0Z M448.1 989.4L448.1 989.7Q448.1 994.2 446.1 996.8Q444.2 999.4 440.7 999.4L440.7 999.4Q437.6 999.4 435.8 997.0L435.8 997.0L435.5 999L431.0 999L431.0 972L436.0 972L436.0 981.7Q437.8 979.6 440.7 979.6L440.7 979.6Q444.1 979.6 446.1 982.2Q448.1 984.7 448.1 989.4L448.1 989.4ZM443.0 989.3L443.0 989.3Q443.0 986.4 442.1 985.1Q441.2 983.8 439.4 983.8L439.4 983.8Q436.9 983.8 436.0 985.7L436.0 985.7L436.0 993.3Q437.0 995.3 439.4 995.3L439.4 995.3Q441.9 995.3 442.6 992.8L442.6 992.8Q443.0 991.7 443.0 989.3ZM456.6 972L456.6 999L451.5 999L451.5 972L456.6 972ZM466.1 980.0L466.1 999L461.0 999L461.0 980.0L466.1 980.0ZM460.7 975.1L460.7 975.1Q460.7 973.9 461.5 973.2Q462.3 972.4 463.6 972.4L463.6 972.4Q464.9 972.4 465.7 973.2Q466.4 973.9 466.4 975.1L466.4 975.1Q466.4 976.2 465.6 977.0Q464.9 977.7 463.6 977.7Q462.3 977.7 461.5 977.0Q460.7 976.2 460.7 975.1ZM470.2 980.0L475.0 980.0L475.1 982.2Q477.2 979.6 480.6 979.6L480.6 979.6Q483.6 979.6 485.1 981.4Q486.6 983.2 486.6 986.7L486.6 986.7L486.6 999L481.5 999L481.5 986.8Q481.5 985.2 480.8 984.5Q480.1 983.8 478.5 983.8L478.5 983.8Q476.4 983.8 475.3 985.6L475.3 985.6L475.3 999L470.2 999L470.2 980.0ZM489.7 989.3L489.7 989.3Q489.7 984.9 491.7 982.3Q493.7 979.6 497.1 979.6L497.1 979.6Q499.9 979.6 501.7 981.7L501.7 981.7L501.7 972L506.8 972L506.8 999L502.2 999L502.0 997.0Q500.1 999.4 497.1 999.4L497.1 999.4Q493.7 999.4 491.7 996.7Q489.7 994.1 489.7 989.3ZM494.8 989.7L494.8 989.7Q494.8 992.4 495.7 993.8Q496.6 995.2 498.4 995.2L498.4 995.2Q500.8 995.2 501.7 993.3L501.7 993.3L501.7 985.7Q500.8 983.8 498.4 983.8L498.4 983.8Q494.8 983.8 494.8 989.7ZM519.5 999.4L519.5 999.4Q515.3 999.4 512.7 996.8Q510.1 994.2 510.1 989.9L510.1 989.9L510.1 989.5Q510.1 986.6 511.2 984.3Q512.3 982.1 514.3 980.9Q516.3 979.6 518.9 979.6L518.9 979.6Q522.8 979.6 525.1 982.1Q527.3 984.6 527.3 989.1L527.3 989.1L527.3 991.1L515.2 991.1Q515.5 993.0 516.7 994.1Q517.9 995.3 519.8 995.3L519.8 995.3Q522.8 995.3 524.4 993.1L524.4 993.1L526.9 995.9Q525.8 997.5 523.8 998.4Q521.9 999.4 519.5 999.4ZM518.9 983.7L518.9 983.7Q517.4 983.7 516.5 984.8Q515.5 985.8 515.3 987.7L515.3 987.7L522.3 987.7L522.3 987.3Q522.3 985.6 521.4 984.7Q520.5 983.7 518.9 983.7ZM529.4 989.3L529.4 989.3Q529.4 984.9 531.4 982.3Q533.4 979.6 536.9 979.6L536.9 979.6Q539.7 979.6 541.5 981.7L541.5 981.7L541.5 972L546.6 972L546.6 999L542.0 999L541.7 997.0Q539.8 999.4 536.8 999.4L536.8 999.4Q533.5 999.4 531.5 996.7Q529.4 994.1 529.4 989.3ZM534.5 989.7L534.5 989.7Q534.5 992.4 535.4 993.8Q536.4 995.2 538.1 995.2L538.1 995.2Q540.5 995.2 541.5 993.3L541.5 993.3L541.5 985.7Q540.5 983.8 538.2 983.8L538.2 983.8Q534.5 983.8 534.5 989.7Z M561.0 975.3L566.0 975.3L566.0 980.0L569.3 980.0L569.3 983.7L566.0 983.7L566.0 993.2Q566.0 994.3 566.4 994.7Q566.8 995.2 568.0 995.2L568.0 995.2Q568.8 995.2 569.5 995.0L569.5 995.0L569.5 998.9Q568.0 999.4 566.4 999.4L566.4 999.4Q561.1 999.4 561.0 994.0L561.0 994.0L561.0 983.7L558.2 983.7L558.2 980.0L561.0 980.0L561.0 975.3ZM582.9 979.9L582.8 984.7Q581.8 984.6 581.0 984.6L581.0 984.6Q578.1 984.6 577.2 986.6L577.2 986.6L577.2 999L572.1 999L572.1 980.0L576.9 980.0L577.1 982.2Q578.6 979.6 581.3 979.6L581.3 979.6Q582.1 979.6 582.9 979.9L582.9 979.9ZM590.6 980.0L590.6 999L585.5 999L585.5 980.0L590.6 980.0ZM585.2 975.1L585.2 975.1Q585.2 973.9 586.0 973.2Q586.7 972.4 588.1 972.4L588.1 972.4Q589.4 972.4 590.1 973.2Q590.9 973.9 590.9 975.1L590.9 975.1Q590.9 976.2 590.1 977.0Q589.3 977.7 588.1 977.7Q586.8 977.7 586.0 977.0Q585.2 976.2 585.2 975.1ZM610.9 999L605.8 999Q605.5 998.3 605.3 997.3L605.3 997.3Q603.5 999.4 600.5 999.4L600.5 999.4Q597.7 999.4 595.9 997.7Q594.0 996.1 594.0 993.7L594.0 993.7Q594.0 990.6 596.3 989.0Q598.5 987.4 602.8 987.4L602.8 987.4L605.1 987.4L605.1 986.3Q605.1 985.0 604.4 984.2Q603.7 983.4 602.3 983.4L602.3 983.4Q601.0 983.4 600.3 984.0Q599.5 984.6 599.5 985.7L599.5 985.7L594.5 985.7Q594.5 984.0 595.5 982.6Q596.5 981.2 598.4 980.4Q600.2 979.6 602.5 979.6L602.5 979.6Q606.1 979.6 608.1 981.4Q610.2 983.2 610.2 986.4L610.2 986.4L610.2 994.6Q610.2 997.3 610.9 998.7L610.9 998.7L610.9 999ZM601.6 995.5L601.6 995.5Q602.7 995.5 603.7 995.0Q604.6 994.5 605.1 993.6L605.1 993.6L605.1 990.4L603.2 990.4Q599.4 990.4 599.1 993.0L599.1 993.0L599.1 993.3Q599.1 994.2 599.8 994.9Q600.5 995.5 601.6 995.5ZM619.5 972L619.5 999L614.4 999L614.4 972L619.5 972ZM633.9 993.7L633.9 993.7Q633.9 992.8 633.0 992.3Q632.1 991.7 630.1 991.3L630.1 991.3Q623.3 989.9 623.3 985.6L623.3 985.6Q623.3 983.0 625.4 981.3Q627.5 979.6 630.9 979.6L630.9 979.6Q634.5 979.6 636.7 981.3Q638.8 983.0 638.8 985.8L638.8 985.8L633.7 985.8Q633.7 984.7 633.0 984.0Q632.3 983.3 630.8 983.3L630.8 983.3Q629.6 983.3 628.9 983.8Q628.2 984.4 628.2 985.3L628.2 985.3Q628.2 986.2 629.0 986.7Q629.8 987.2 631.7 987.6Q633.6 987.9 634.9 988.4L634.9 988.4Q638.9 989.9 638.9 993.5L638.9 993.5Q638.9 996.1 636.6 997.7Q634.4 999.4 630.9 999.4L630.9 999.4Q628.5 999.4 626.6 998.5Q624.8 997.6 623.7 996.2Q622.7 994.7 622.7 993.0L622.7 993.0L627.5 993.0Q627.6 994.3 628.5 995.0Q629.4 995.7 631.0 995.7L631.0 995.7Q632.4 995.7 633.2 995.2Q633.9 994.6 633.9 993.7ZM642.4 996.5L642.4 996.5Q642.4 995.3 643.2 994.5Q644.0 993.8 645.3 993.8L645.3 993.8Q646.5 993.8 647.3 994.5Q648.2 995.3 648.2 996.5L648.2 996.5Q648.2 997.7 647.3 998.4Q646.5 999.2 645.3 999.2L645.3 999.2Q644.0 999.2 643.2 998.4Q642.4 997.7 642.4 996.5Z "/></g><defs><clipPath id="satori_bc-id-1" clip-path="url(#satori_cp-id)"><rect x="0" y="1210" width="1080" height="140"/></clipPath></defs><mask id="satori_om-id-1"><rect x="0" y="1213" width="1080" height="137" fill="#fff" mask="url(#satori_om-id)"/><path width="1080" height="140" fill="none" stroke="#000" stroke-width="6" d="M0,1210 A0,0 0 0 1 0,1210 h1080 A0,0 0 0 1 1080,1210"/></mask><rect x="0" y="1210" width="1080" height="140" fill="#FFFFFF" clip-path="url(#satori_cp-id)" mask="url(#satori_om-id)"/><path width="1080" height="140" clip-path="url(#satori_bc-id-1)" fill="none" stroke="#16697A" stroke-width="6" d="M0,1210 A0,0 0 0 1 0,1210 h1080 A0,0 0 0 1 1080,1210"/><mask id="satori_om-id-1-0"><rect x="389" y="1242" width="80" height="80" fill="#fff" mask="url(#satori_om-id)"/></mask><path x="389" y="1242" width="80" height="80" fill="#16697A" d="M429,1242 h0 a40,40 0 0 1 40,40 v0 a40,40 0 0 1 -40,40 h0 a40,40 0 0 1 -40,-40 v0 a40,40 0 0 1 40,-40" clip-path="url(#satori_cp-id)" mask="url(#satori_om-id)"/><mask id="satori_om-id-1-0-0"><rect x="417" y="1261" width="24" height="42" fill="#fff" mask="url(#satori_om-id)"/></mask><g mask="url(#satori_om-id)" clip-path="url(#satori_cp-id)"><path fill="#FFFFFF" d="M427.2 1294L419.3 1294L419.3 1268.4L427.2 1268.4Q430.5 1268.4 433.2 1269.9Q435.9 1271.4 437.4 1274.3Q438.8 1277.1 438.8 1280.6L438.8 1280.6L438.8 1281.8Q438.8 1285.4 437.4 1288.1Q435.9 1290.9 433.2 1292.5Q430.6 1294.0 427.2 1294L427.2 1294ZM427.2 1272.7L424.6 1272.7L424.6 1289.8L427.1 1289.8Q430.2 1289.8 431.8 1287.7Q433.5 1285.7 433.5 1282.0L433.5 1282.0L433.5 1280.6Q433.5 1276.7 431.9 1274.7Q430.3 1272.7 427.2 1272.7L427.2 1272.7Z "/></g><mask id="satori_om-id-1-1"><rect x="493" y="1254" width="198" height="55" fill="#fff" mask="url(#satori_om-id)"/></mask><mask id="satori_om-id-1-1-0"><rect x="493" y="1254" width="198" height="28" fill="#fff" mask="url(#satori_om-id)"/></mask><g mask="url(#satori_om-id)" clip-path="url(#satori_cp-id)"><path fill="#2F3E46" d="M499.8 1276L494.5 1276L494.5 1258.9L499.8 1258.9Q502.0 1258.9 503.8 1260.0Q505.6 1261.0 506.6 1262.8Q507.6 1264.7 507.6 1267.1L507.6 1267.1L507.6 1267.9Q507.6 1270.2 506.6 1272.1Q505.6 1273.9 503.8 1275.0Q502.0 1276.0 499.8 1276L499.8 1276ZM499.8 1261.8L498.0 1261.8L498.0 1273.2L499.7 1273.2Q501.8 1273.2 502.9 1271.8Q504.0 1270.5 504.0 1268.0L504.0 1268.0L504.0 1267.1Q504.0 1264.5 502.9 1263.1Q501.8 1261.8 499.8 1261.8L499.8 1261.8ZM517.1 1263.2L517.0 1266.5Q516.3 1266.4 515.8 1266.4L515.8 1266.4Q513.9 1266.4 513.3 1267.7L513.3 1267.7L513.3 1276L509.9 1276L509.9 1263.3L513.1 1263.3L513.2 1264.8Q514.2 1263.1 516.0 1263.1L516.0 1263.1Q516.6 1263.1 517.1 1263.2L517.1 1263.2ZM516.8 1274.3L516.8 1274.3Q516.8 1273.5 517.3 1273.0Q517.9 1272.5 518.7 1272.5L518.7 1272.5Q519.5 1272.5 520.1 1273.0Q520.6 1273.5 520.6 1274.3L520.6 1274.3Q520.6 1275.1 520.1 1275.6Q519.6 1276.1 518.7 1276.1L518.7 1276.1Q517.9 1276.1 517.3 1275.6Q516.8 1275.1 516.8 1274.3Z M540.7 1271.5L540.7 1271.5Q540.7 1270.5 540.0 1270.0Q539.3 1269.5 537.4 1268.9Q535.6 1268.3 534.5 1267.7L534.5 1267.7Q531.6 1266.1 531.6 1263.5L531.6 1263.5Q531.6 1262.1 532.4 1261.0Q533.2 1259.9 534.7 1259.3Q536.1 1258.7 537.9 1258.7L537.9 1258.7Q539.8 1258.7 541.2 1259.4Q542.6 1260.0 543.4 1261.2Q544.2 1262.4 544.2 1264.0L544.2 1264.0L540.7 1264.0Q540.7 1262.8 539.9 1262.2Q539.2 1261.5 537.9 1261.5L537.9 1261.5Q536.6 1261.5 535.9 1262.0Q535.2 1262.6 535.2 1263.5L535.2 1263.5Q535.2 1264.3 536.0 1264.9Q536.8 1265.4 538.5 1265.9L538.5 1265.9Q541.5 1266.8 542.8 1268.2Q544.2 1269.5 544.2 1271.5L544.2 1271.5Q544.2 1273.7 542.5 1275.0Q540.8 1276.2 538.0 1276.2L538.0 1276.2Q536.0 1276.2 534.4 1275.5Q532.8 1274.8 532.0 1273.5Q531.1 1272.3 531.1 1270.6L531.1 1270.6L534.6 1270.6Q534.6 1273.5 538.0 1273.5L538.0 1273.5Q539.3 1273.5 540.0 1272.9Q540.7 1272.4 540.7 1271.5ZM549.7 1258L549.7 1264.7Q551.0 1263.1 553.0 1263.1L553.0 1263.1Q557.2 1263.1 557.2 1267.9L557.2 1267.9L557.2 1276L553.8 1276L553.8 1268.0Q553.8 1266.9 553.4 1266.4Q552.9 1265.8 551.8 1265.8L551.8 1265.8Q550.3 1265.8 549.7 1267.0L549.7 1267.0L549.7 1276L546.3 1276L546.3 1258L549.7 1258ZM570.6 1276L567.1 1276Q566.9 1275.5 566.8 1274.9L566.8 1274.9Q565.6 1276.2 563.6 1276.2L563.6 1276.2Q561.7 1276.2 560.5 1275.2Q559.3 1274.1 559.3 1272.4L559.3 1272.4Q559.3 1270.4 560.8 1269.3Q562.3 1268.3 565.1 1268.3L565.1 1268.3L566.7 1268.3L566.7 1267.5Q566.7 1266.6 566.2 1266.1Q565.8 1265.6 564.8 1265.6L564.8 1265.6Q563.9 1265.6 563.4 1266.0Q562.9 1266.4 562.9 1267.1L562.9 1267.1L559.6 1267.1Q559.6 1266.0 560.2 1265.1Q560.9 1264.2 562.2 1263.6Q563.4 1263.1 565.0 1263.1L565.0 1263.1Q567.3 1263.1 568.7 1264.3Q570.1 1265.4 570.1 1267.6L570.1 1267.6L570.1 1273.1Q570.1 1274.9 570.6 1275.8L570.6 1275.8L570.6 1276ZM564.3 1273.6L564.3 1273.6Q565.1 1273.6 565.7 1273.3Q566.3 1273.0 566.7 1272.4L566.7 1272.4L566.7 1270.2L565.4 1270.2Q562.8 1270.2 562.7 1272.0L562.7 1272.0L562.7 1272.2Q562.7 1272.8 563.1 1273.2Q563.6 1273.6 564.3 1273.6ZM576.2 1263.3L576.2 1276L572.8 1276L572.8 1263.3L576.2 1263.3ZM572.6 1260.0L572.6 1260.0Q572.6 1259.3 573.1 1258.8Q573.6 1258.3 574.5 1258.3L574.5 1258.3Q575.4 1258.3 575.9 1258.8Q576.4 1259.3 576.4 1260.0L576.4 1260.0Q576.4 1260.8 575.9 1261.3Q575.4 1261.8 574.5 1261.8Q573.7 1261.8 573.2 1261.3Q572.6 1260.8 572.6 1260.0ZM582.6 1258L582.6 1276L579.2 1276L579.2 1258L582.6 1258ZM591.2 1276.2L591.2 1276.2Q588.4 1276.2 586.7 1274.5Q584.9 1272.8 584.9 1270.0L584.9 1270.0L584.9 1269.6Q584.9 1267.7 585.7 1266.2Q586.4 1264.7 587.8 1263.9Q589.1 1263.1 590.8 1263.1L590.8 1263.1Q593.4 1263.1 594.9 1264.7Q596.4 1266.4 596.4 1269.4L596.4 1269.4L596.4 1270.8L588.4 1270.8Q588.5 1272.0 589.3 1272.8Q590.2 1273.5 591.4 1273.5L591.4 1273.5Q593.4 1273.5 594.5 1272.1L594.5 1272.1L596.2 1273.9Q595.4 1275.0 594.1 1275.6Q592.8 1276.2 591.2 1276.2ZM590.8 1265.8L590.8 1265.8Q589.8 1265.8 589.2 1266.5Q588.6 1267.2 588.4 1268.5L588.4 1268.5L593.1 1268.5L593.1 1268.2Q593.1 1267.1 592.5 1266.4Q591.9 1265.8 590.8 1265.8ZM605.2 1272.5L605.2 1272.5Q605.2 1271.9 604.6 1271.5Q604.0 1271.2 602.6 1270.9L602.6 1270.9Q598.1 1269.9 598.1 1267.0L598.1 1267.0Q598.1 1265.3 599.5 1264.2Q600.9 1263.1 603.2 1263.1L603.2 1263.1Q605.6 1263.1 607.0 1264.2Q608.5 1265.4 608.5 1267.2L608.5 1267.2L605.1 1267.2Q605.1 1266.4 604.6 1266.0Q604.2 1265.5 603.2 1265.5L603.2 1265.5Q602.3 1265.5 601.8 1265.9Q601.4 1266.3 601.4 1266.9L601.4 1266.9Q601.4 1267.4 601.9 1267.8Q602.4 1268.1 603.7 1268.4Q605.0 1268.6 605.8 1268.9L605.8 1268.9Q608.5 1269.9 608.5 1272.4L608.5 1272.4Q608.5 1274.1 607.0 1275.2Q605.5 1276.2 603.2 1276.2L603.2 1276.2Q601.6 1276.2 600.3 1275.7Q599.1 1275.1 598.4 1274.1Q597.7 1273.1 597.7 1272.0L597.7 1272.0L600.9 1272.0Q601.0 1272.9 601.6 1273.4Q602.2 1273.8 603.3 1273.8L603.3 1273.8Q604.2 1273.8 604.7 1273.5Q605.2 1273.1 605.2 1272.5ZM614.0 1258L614.0 1264.7Q615.3 1263.1 617.4 1263.1L617.4 1263.1Q621.5 1263.1 621.6 1267.9L621.6 1267.9L621.6 1276L618.2 1276L618.2 1268.0Q618.2 1266.9 617.7 1266.4Q617.2 1265.8 616.2 1265.8L616.2 1265.8Q614.7 1265.8 614.0 1267.0L614.0 1267.0L614.0 1276L610.6 1276L610.6 1258L614.0 1258Z M639.2 1271.5L639.2 1271.5Q639.2 1270.5 638.5 1270.0Q637.8 1269.5 635.9 1268.9Q634.1 1268.3 633.0 1267.7L633.0 1267.7Q630.1 1266.1 630.1 1263.5L630.1 1263.5Q630.1 1262.1 630.9 1261.0Q631.7 1259.9 633.2 1259.3Q634.6 1258.7 636.4 1258.7L636.4 1258.7Q638.3 1258.7 639.7 1259.4Q641.1 1260.0 641.9 1261.2Q642.7 1262.4 642.7 1264.0L642.7 1264.0L639.2 1264.0Q639.2 1262.8 638.4 1262.2Q637.7 1261.5 636.4 1261.5L636.4 1261.5Q635.1 1261.5 634.4 1262.0Q633.6 1262.6 633.6 1263.5L633.6 1263.5Q633.6 1264.3 634.5 1264.9Q635.3 1265.4 637.0 1265.9L637.0 1265.9Q640.0 1266.8 641.3 1268.2Q642.7 1269.5 642.7 1271.5L642.7 1271.5Q642.7 1273.7 641.0 1275.0Q639.3 1276.2 636.5 1276.2L636.5 1276.2Q634.5 1276.2 632.9 1275.5Q631.3 1274.8 630.5 1273.5Q629.6 1272.3 629.6 1270.6L629.6 1270.6L633.1 1270.6Q633.1 1273.5 636.5 1273.5L636.5 1273.5Q637.8 1273.5 638.5 1272.9Q639.2 1272.4 639.2 1271.5ZM648.4 1263.3L648.4 1276L645.0 1276L645.0 1263.3L648.4 1263.3ZM644.8 1260.0L644.8 1260.0Q644.8 1259.3 645.3 1258.8Q645.8 1258.3 646.7 1258.3L646.7 1258.3Q647.6 1258.3 648.1 1258.8Q648.6 1259.3 648.6 1260.0L648.6 1260.0Q648.6 1260.8 648.1 1261.3Q647.6 1261.8 646.7 1261.8Q645.9 1261.8 645.3 1261.3Q644.8 1260.8 644.8 1260.0ZM651.1 1263.3L654.3 1263.3L654.4 1264.8Q655.8 1263.1 658.1 1263.1L658.1 1263.1Q660.1 1263.1 661.1 1264.3Q662.1 1265.5 662.1 1267.8L662.1 1267.8L662.1 1276L658.7 1276L658.7 1267.9Q658.7 1266.8 658.2 1266.3Q657.8 1265.8 656.7 1265.8L656.7 1265.8Q655.2 1265.8 654.5 1267.1L654.5 1267.1L654.5 1276L651.1 1276L651.1 1263.3ZM664.2 1269.7L664.2 1269.6Q664.2 1266.6 665.6 1264.9Q666.9 1263.1 669.3 1263.1L669.3 1263.1Q671.4 1263.1 672.5 1264.5L672.5 1264.5L672.7 1263.3L675.8 1263.3L675.8 1275.6Q675.8 1277.2 675.0 1278.5Q674.2 1279.7 672.9 1280.3Q671.5 1281.0 669.7 1281.0L669.7 1281.0Q668.3 1281.0 666.9 1280.4Q665.6 1279.9 664.9 1279L664.9 1279L666.4 1276.9Q667.7 1278.4 669.5 1278.4L669.5 1278.4Q670.9 1278.4 671.6 1277.6Q672.4 1276.9 672.4 1275.6L672.4 1275.6L672.4 1274.9Q671.2 1276.2 669.3 1276.2L669.3 1276.2Q667.0 1276.2 665.6 1274.4Q664.2 1272.7 664.2 1269.7L664.2 1269.7ZM667.6 1269.8L667.6 1269.8Q667.6 1271.5 668.2 1272.5Q668.9 1273.5 670.1 1273.5L670.1 1273.5Q671.7 1273.5 672.4 1272.3L672.4 1272.3L672.4 1267Q671.7 1265.8 670.2 1265.8L670.2 1265.8Q668.9 1265.8 668.2 1266.8Q667.6 1267.8 667.6 1269.8ZM681.7 1258L681.7 1264.7Q683.0 1263.1 685.0 1263.1L685.0 1263.1Q689.2 1263.1 689.2 1267.9L689.2 1267.9L689.2 1276L685.8 1276L685.8 1268.0Q685.8 1266.9 685.4 1266.4Q684.9 1265.8 683.8 1265.8L683.8 1265.8Q682.3 1265.8 681.7 1267.0L681.7 1267.0L681.7 1276L678.3 1276L678.3 1258L681.7 1258Z "/></g><mask id="satori_om-id-1-1-1"><rect x="493" y="1286" width="198" height="23" fill="#fff" mask="url(#satori_om-id)"/></mask><g mask="url(#satori_om-id)" clip-path="url(#satori_cp-id)"><path fill="#16697A" d="M510.0 1300.1L510.0 1300.1Q509.9 1302.5 508.8 1303.8Q507.7 1305.2 506.0 1305.2L506.0 1305.2Q504.2 1305.2 503.6 1303.6L503.6 1303.6Q503.1 1304.4 502.4 1304.8Q501.8 1305.2 501.0 1305.2L501.0 1305.2Q499.6 1305.2 498.9 1304.1Q498.2 1302.9 498.4 1300.9L498.4 1300.9Q498.5 1299.3 499.1 1298.1Q499.7 1296.8 500.7 1296.1Q501.6 1295.3 502.6 1295.3L502.6 1295.3Q503.4 1295.3 504.0 1295.6Q504.7 1295.8 505.4 1296.4L505.4 1296.4L504.9 1301.8Q504.7 1304.0 506.2 1304.0L506.2 1304.0Q507.3 1304.0 508.0 1302.9Q508.7 1301.9 508.7 1300.1L508.7 1300.1Q508.9 1296.3 507.3 1294.3Q505.7 1292.3 502.4 1292.3L502.4 1292.3Q500.5 1292.3 499.0 1293.3Q497.4 1294.3 496.6 1296.1Q495.7 1297.9 495.6 1300.3L495.6 1300.3Q495.5 1302.8 496.2 1304.5Q496.9 1306.3 498.3 1307.3Q499.7 1308.2 501.8 1308.2L501.8 1308.2Q502.7 1308.2 503.5 1308.0Q504.4 1307.8 505.0 1307.4L505.0 1307.4L505.4 1308.6Q504.8 1308.9 503.8 1309.2Q502.8 1309.4 501.7 1309.4L501.7 1309.4Q499.3 1309.4 497.5 1308.3Q495.8 1307.2 494.9 1305.2Q494.0 1303.1 494.2 1300.3L494.2 1300.3Q494.3 1297.6 495.4 1295.5Q496.4 1293.4 498.3 1292.2Q500.1 1291.0 502.5 1291.0L502.5 1291.0Q504.9 1291.0 506.7 1292.1Q508.4 1293.2 509.2 1295.3Q510.1 1297.3 510.0 1300.1ZM500.0 1300.9L500.0 1300.9Q499.8 1302.3 500.2 1303.1Q500.6 1303.8 501.5 1303.8L501.5 1303.8Q502.1 1303.8 502.6 1303.3Q503.1 1302.8 503.5 1301.9L503.5 1301.9L503.5 1301.8L503.9 1296.9Q503.4 1296.6 502.8 1296.6L502.8 1296.6Q501.6 1296.6 500.9 1297.8Q500.1 1298.9 500.0 1300.9ZM514.1 1290L514.1 1295.7Q515.3 1294.2 517.3 1294.2L517.3 1294.2Q520.6 1294.2 520.6 1298.0L520.6 1298.0L520.6 1305L518.8 1305L518.8 1298.0Q518.8 1296.9 518.3 1296.3Q517.8 1295.8 516.7 1295.8L516.7 1295.8Q515.8 1295.8 515.2 1296.2Q514.5 1296.7 514.1 1297.5L514.1 1297.5L514.1 1305L512.3 1305L512.3 1290L514.1 1290ZM527.7 1305.2L527.7 1305.2Q525.6 1305.2 524.2 1303.8Q522.9 1302.4 522.9 1300.0L522.9 1300.0L522.9 1299.7Q522.9 1298.1 523.5 1296.9Q524.1 1295.6 525.2 1294.9Q526.2 1294.2 527.5 1294.2L527.5 1294.2Q529.6 1294.2 530.7 1295.6Q531.8 1297.0 531.8 1299.5L531.8 1299.5L531.8 1300.2L524.7 1300.2Q524.7 1301.8 525.6 1302.8Q526.5 1303.7 527.8 1303.7L527.8 1303.7Q528.8 1303.7 529.4 1303.3Q530.1 1302.9 530.6 1302.3L530.6 1302.3L531.7 1303.2Q530.4 1305.2 527.7 1305.2ZM527.5 1295.7L527.5 1295.7Q526.4 1295.7 525.7 1296.5Q524.9 1297.3 524.7 1298.8L524.7 1298.8L530.0 1298.8L530.0 1298.6Q530.0 1297.2 529.3 1296.5Q528.6 1295.7 527.5 1295.7ZM542.4 1305L540.5 1305Q540.3 1304.7 540.2 1303.9L540.2 1303.9Q538.9 1305.2 537.2 1305.2L537.2 1305.2Q535.6 1305.2 534.6 1304.3Q533.6 1303.4 533.6 1302.1L533.6 1302.1Q533.6 1300.4 534.9 1299.5Q536.1 1298.6 538.4 1298.6L538.4 1298.6L540.2 1298.6L540.2 1297.8Q540.2 1296.8 539.6 1296.3Q539.0 1295.7 537.9 1295.7L537.9 1295.7Q537.0 1295.7 536.3 1296.2Q535.7 1296.7 535.7 1297.4L535.7 1297.4L533.8 1297.4Q533.8 1296.6 534.4 1295.8Q535.0 1295.1 535.9 1294.7Q536.9 1294.2 538.0 1294.2L538.0 1294.2Q539.9 1294.2 540.9 1295.2Q541.9 1296.1 542.0 1297.7L542.0 1297.7L542.0 1302.5Q542.0 1304.0 542.4 1304.8L542.4 1304.8L542.4 1305ZM537.5 1303.6L537.5 1303.6Q538.3 1303.6 539.1 1303.2Q539.8 1302.7 540.2 1302.0L540.2 1302.0L540.2 1299.9L538.8 1299.9Q535.4 1299.9 535.4 1301.8L535.4 1301.8Q535.4 1302.7 536.0 1303.1Q536.6 1303.6 537.5 1303.6ZM549.9 1294.4L549.9 1296.1Q549.5 1296.0 549.0 1296.0L549.0 1296.0Q547.3 1296.0 546.6 1297.5L546.6 1297.5L546.6 1305L544.8 1305L544.8 1294.4L546.6 1294.4L546.6 1295.7Q547.5 1294.2 549.1 1294.2L549.1 1294.2Q549.7 1294.2 549.9 1294.4L549.9 1294.4ZM552.7 1291.9L554.5 1291.9L554.5 1294.4L556.5 1294.4L556.5 1295.8L554.5 1295.8L554.5 1302.4Q554.5 1303.0 554.8 1303.3Q555.1 1303.7 555.7 1303.7L555.7 1303.7Q556.0 1303.7 556.5 1303.5L556.5 1303.5L556.5 1305Q555.8 1305.2 555.2 1305.2L555.2 1305.2Q553.9 1305.2 553.3 1304.5Q552.7 1303.7 552.7 1302.4L552.7 1302.4L552.7 1295.8L550.8 1295.8L550.8 1294.4L552.7 1294.4L552.7 1291.9ZM558.2 1299.8L558.2 1299.6Q558.2 1297.2 559.3 1295.7Q560.5 1294.2 562.3 1294.2L562.3 1294.2Q564.2 1294.2 565.3 1295.5L565.3 1295.5L565.3 1290L567.1 1290L567.1 1305L565.4 1305L565.3 1303.9Q564.3 1305.2 562.3 1305.2L562.3 1305.2Q560.5 1305.2 559.3 1303.7Q558.2 1302.2 558.2 1299.8L558.2 1299.8ZM560.0 1299.8L560.0 1299.8Q560.0 1301.6 560.7 1302.6Q561.5 1303.7 562.8 1303.7L562.8 1303.7Q564.5 1303.7 565.3 1302.1L565.3 1302.1L565.3 1297.3Q564.5 1295.8 562.8 1295.8L562.8 1295.8Q561.5 1295.8 560.7 1296.8Q560.0 1297.8 560.0 1299.8ZM569.4 1299.7L569.4 1299.6Q569.4 1298.1 570.0 1296.8Q570.6 1295.6 571.7 1294.9Q572.8 1294.2 574.2 1294.2L574.2 1294.2Q576.4 1294.2 577.7 1295.7Q579.0 1297.2 579.0 1299.7L579.0 1299.7L579.0 1299.8Q579.0 1301.4 578.4 1302.6Q577.8 1303.8 576.7 1304.5Q575.6 1305.2 574.2 1305.2L574.2 1305.2Q572.1 1305.2 570.7 1303.7Q569.4 1302.2 569.4 1299.7L569.4 1299.7ZM571.2 1299.8L571.2 1299.8Q571.2 1301.6 572.0 1302.7Q572.9 1303.7 574.2 1303.7L574.2 1303.7Q575.6 1303.7 576.4 1302.6Q577.2 1301.6 577.2 1299.6L577.2 1299.6Q577.2 1297.9 576.4 1296.8Q575.6 1295.7 574.2 1295.7L574.2 1295.7Q572.9 1295.7 572.0 1296.8Q571.2 1297.9 571.2 1299.8ZM585.5 1303.7L585.5 1303.7Q586.5 1303.7 587.2 1303.1Q587.9 1302.5 588.0 1301.7L588.0 1301.7L589.7 1301.7Q589.7 1302.6 589.1 1303.4Q588.5 1304.2 587.6 1304.7Q586.6 1305.2 585.5 1305.2L585.5 1305.2Q583.4 1305.2 582.1 1303.8Q580.8 1302.3 580.8 1299.8L580.8 1299.8L580.8 1299.5Q580.8 1298.0 581.4 1296.8Q582.0 1295.6 583.0 1294.9Q584.1 1294.2 585.5 1294.2L585.5 1294.2Q587.3 1294.2 588.5 1295.3Q589.7 1296.4 589.7 1298.1L589.7 1298.1L588.0 1298.1Q587.9 1297.0 587.2 1296.4Q586.5 1295.7 585.5 1295.7L585.5 1295.7Q584.1 1295.7 583.4 1296.7Q582.6 1297.7 582.6 1299.6L582.6 1299.6L582.6 1299.9Q582.6 1301.7 583.4 1302.7Q584.1 1303.7 585.5 1303.7ZM597.9 1302.2L597.9 1302.2Q597.9 1301.5 597.4 1301.1Q596.8 1300.7 595.4 1300.4Q594.1 1300.1 593.3 1299.7Q592.5 1299.2 592.1 1298.7Q591.7 1298.1 591.7 1297.3L591.7 1297.3Q591.7 1296.0 592.8 1295.1Q593.9 1294.2 595.6 1294.2L595.6 1294.2Q597.4 1294.2 598.5 1295.2Q599.6 1296.1 599.6 1297.5L599.6 1297.5L597.8 1297.5Q597.8 1296.8 597.2 1296.3Q596.5 1295.7 595.6 1295.7L595.6 1295.7Q594.6 1295.7 594.0 1296.2Q593.5 1296.6 593.5 1297.3L593.5 1297.3Q593.5 1297.9 594.0 1298.3Q594.5 1298.6 595.9 1298.9Q597.2 1299.2 598.1 1299.6Q598.9 1300.0 599.3 1300.6Q599.7 1301.2 599.7 1302.1L599.7 1302.1Q599.7 1303.5 598.6 1304.3Q597.5 1305.2 595.6 1305.2L595.6 1305.2Q594.4 1305.2 593.4 1304.7Q592.4 1304.3 591.9 1303.5Q591.3 1302.7 591.3 1301.7L591.3 1301.7L593.1 1301.7Q593.2 1302.7 593.9 1303.2Q594.5 1303.7 595.6 1303.7L595.6 1303.7Q596.7 1303.7 597.3 1303.3Q597.9 1302.9 597.9 1302.2ZM603.9 1290L603.9 1295.7Q605.1 1294.2 607.0 1294.2L607.0 1294.2Q610.4 1294.2 610.4 1298.0L610.4 1298.0L610.4 1305L608.6 1305L608.6 1298.0Q608.6 1296.9 608.1 1296.3Q607.5 1295.8 606.5 1295.8L606.5 1295.8Q605.6 1295.8 604.9 1296.2Q604.3 1296.7 603.9 1297.5L603.9 1297.5L603.9 1305L602.1 1305L602.1 1290L603.9 1290ZM621.5 1305L619.6 1305Q619.5 1304.7 619.4 1303.9L619.4 1303.9Q618.1 1305.2 616.3 1305.2L616.3 1305.2Q614.8 1305.2 613.8 1304.3Q612.8 1303.4 612.8 1302.1L612.8 1302.1Q612.8 1300.4 614.0 1299.5Q615.3 1298.6 617.6 1298.6L617.6 1298.6L619.3 1298.6L619.3 1297.8Q619.3 1296.8 618.8 1296.3Q618.2 1295.7 617.1 1295.7L617.1 1295.7Q616.1 1295.7 615.5 1296.2Q614.8 1296.7 614.8 1297.4L614.8 1297.4L613 1297.4Q613 1296.6 613.6 1295.8Q614.1 1295.1 615.1 1294.7Q616.0 1294.2 617.2 1294.2L617.2 1294.2Q619.0 1294.2 620.1 1295.2Q621.1 1296.1 621.1 1297.7L621.1 1297.7L621.1 1302.5Q621.1 1304.0 621.5 1304.8L621.5 1304.8L621.5 1305ZM616.6 1303.6L616.6 1303.6Q617.5 1303.6 618.2 1303.2Q619.0 1302.7 619.3 1302.0L619.3 1302.0L619.3 1299.9L617.9 1299.9Q614.6 1299.9 614.6 1301.8L614.6 1301.8Q614.6 1302.7 615.2 1303.1Q615.7 1303.6 616.6 1303.6ZM625.9 1294.4L625.9 1305L624.1 1305L624.1 1294.4L625.9 1294.4ZM624.0 1291.6L624.0 1291.6Q624.0 1291.2 624.2 1290.9Q624.5 1290.6 625.0 1290.6Q625.6 1290.6 625.8 1290.9Q626.1 1291.2 626.1 1291.6Q626.1 1292.1 625.8 1292.4Q625.6 1292.7 625.0 1292.7Q624.5 1292.7 624.2 1292.4Q624.0 1292.1 624.0 1291.6ZM630.8 1290L630.8 1305L629.0 1305L629.0 1290L630.8 1290ZM638.1 1305.2L638.1 1305.2Q635.9 1305.2 634.6 1303.8Q633.2 1302.4 633.2 1300.0L633.2 1300.0L633.2 1299.7Q633.2 1298.1 633.8 1296.9Q634.4 1295.6 635.5 1294.9Q636.6 1294.2 637.8 1294.2L637.8 1294.2Q639.9 1294.2 641.0 1295.6Q642.2 1297.0 642.2 1299.5L642.2 1299.5L642.2 1300.2L635.0 1300.2Q635.1 1301.8 635.9 1302.8Q636.8 1303.7 638.2 1303.7L638.2 1303.7Q639.1 1303.7 639.8 1303.3Q640.4 1302.9 640.9 1302.3L640.9 1302.3L642.0 1303.2Q640.7 1305.2 638.1 1305.2ZM637.8 1295.7L637.8 1295.7Q636.7 1295.7 636.0 1296.5Q635.3 1297.3 635.1 1298.8L635.1 1298.8L640.4 1298.8L640.4 1298.6Q640.3 1297.2 639.6 1296.5Q639.0 1295.7 637.8 1295.7ZM650.4 1302.2L650.4 1302.2Q650.4 1301.5 649.9 1301.1Q649.3 1300.7 647.9 1300.4Q646.6 1300.1 645.8 1299.7Q645.0 1299.2 644.6 1298.7Q644.2 1298.1 644.2 1297.3L644.2 1297.3Q644.2 1296.0 645.3 1295.1Q646.4 1294.2 648.1 1294.2L648.1 1294.2Q649.9 1294.2 651.0 1295.2Q652.1 1296.1 652.1 1297.5L652.1 1297.5L650.3 1297.5Q650.3 1296.8 649.7 1296.3Q649.1 1295.7 648.1 1295.7L648.1 1295.7Q647.1 1295.7 646.6 1296.2Q646.0 1296.6 646.0 1297.3L646.0 1297.3Q646.0 1297.9 646.5 1298.3Q647.0 1298.6 648.4 1298.9Q649.7 1299.2 650.6 1299.6Q651.4 1300.0 651.8 1300.6Q652.2 1301.2 652.2 1302.1L652.2 1302.1Q652.2 1303.5 651.1 1304.3Q650.0 1305.2 648.2 1305.2L648.2 1305.2Q646.9 1305.2 645.9 1304.7Q644.9 1304.3 644.4 1303.5Q643.8 1302.7 643.8 1301.7L643.8 1301.7L645.6 1301.7Q645.7 1302.7 646.4 1303.2Q647.0 1303.7 648.2 1303.7L648.2 1303.7Q649.2 1303.7 649.8 1303.3Q650.4 1302.9 650.4 1302.2ZM656.4 1290L656.4 1295.7Q657.6 1294.2 659.5 1294.2L659.5 1294.2Q662.9 1294.2 662.9 1298.0L662.9 1298.0L662.9 1305L661.1 1305L661.1 1298.0Q661.1 1296.9 660.6 1296.3Q660.1 1295.8 659.0 1295.8L659.0 1295.8Q658.1 1295.8 657.4 1296.2Q656.8 1296.7 656.4 1297.5L656.4 1297.5L656.4 1305L654.6 1305L654.6 1290L656.4 1290Z "/></g></svg>