<svg width="1080" height="1350" viewBox="0 0 1080 1350" xmlns="http://www.w3.org/2000/svg"><clipPath id="satori_cp-id"><rect x="0" y="0" width="1080" height="1350"/></clipPath><mask id="satori_om-id"><rect x="0" y="0" width="1080" height="1350" fill="#fff"/></mask><rect x="0" y="0" width="1080" height="1350" fill="#E8F5F4"/><mask id="satori_om-id-0"><rect x="0" y="0" width="1080" height="1210" fill="#fff" mask="url(#satori_om-id)"/></mask><mask id="satori_om-id-0-0"><rect x="985" y="32" width="63" height="39" fill="#fff" mask="url(#satori_om-id)"/></mask><path x="985" y="32" width="63" height="39" fill="rgba(0, 0, 0, 0.2)" d="M1004.5,32 h24 a19.5,19.5 0 0 1 19.5,19.5 v0 a19.5,19.5 0 0 1 -19.5,19.5 h-24 a19.5,19.5 0 0 1 -19.5,-19.5 v0 a19.5,19.5 0 0 1 19.5,-19.5" clip-path="url(#satori_cp-id)" mask="url(#satori_om-id)"/><g mask="url(#satori_om-id)" clip-path="url(#satori_cp-id)"><path fill="#FFFFFF" d="M1004.8 52.8L1004.8 50.6L1006.3 50.6Q1007.4 50.6 1007.9 50.1Q1008.5 49.6 1008.5 48.7L1008.5 48.7Q1008.5 47.8 1007.9 47.3Q1007.4 46.9 1006.5 46.9L1006.5 46.9Q1005.7 46.9 1005.2 47.3Q1004.6 47.8 1004.6 48.5L1004.6 48.5L1001.8 48.5Q1001.8 47.3 1002.4 46.5Q1003.0 45.6 1004.1 45.1Q1005.2 44.6 1006.5 44.6L1006.5 44.6Q1008.7 44.6 1010.0 45.7Q1011.3 46.7 1011.3 48.6L1011.3 48.6Q1011.3 49.6 1010.7 50.4Q1010.1 51.3 1009.1 51.7L1009.1 51.7Q1010.3 52.1 1010.9 53.0Q1011.5 53.8 1011.5 55.0L1011.5 55.0Q1011.5 56.9 1010.1 58.1Q1008.7 59.2 1006.5 59.2L1006.5 59.2Q1004.3 59.2 1003.0 58.1Q1001.6 56.9 1001.6 55.1L1001.6 55.1L1004.4 55.1Q1004.4 55.9 1005.0 56.4Q1005.6 56.9 1006.5 56.9L1006.5 56.9Q1007.5 56.9 1008.1 56.4Q1008.7 55.9 1008.7 55.0L1008.7 55.0Q1008.7 52.8 1006.3 52.8L1006.3 52.8L1004.8 52.8ZM1019.7 44.8L1014.4 60.2L1012.3 60.2L1017.6 44.8L1019.7 44.8ZM1028.1 44.6L1028.6 44.6L1028.6 47.0L1028.3 47.0Q1026.4 47.0 1025.2 48.0Q1024.0 48.9 1023.8 50.6L1023.8 50.6Q1024.9 49.5 1026.7 49.5L1026.7 49.5Q1028.5 49.5 1029.6 50.8Q1030.7 52.1 1030.7 54.3L1030.7 54.3Q1030.7 55.7 1030.1 56.8Q1029.5 57.9 1028.4 58.6Q1027.3 59.2 1025.9 59.2L1025.9 59.2Q1023.7 59.2 1022.3 57.6Q1020.9 56.1 1020.9 53.5L1020.9 53.5L1020.9 52.4Q1020.9 50.1 1021.8 48.4Q1022.7 46.6 1024.3 45.6Q1025.9 44.6 1028.1 44.6L1028.1 44.6ZM1025.8 51.8L1025.8 51.8Q1025.1 51.8 1024.6 52.1Q1024.0 52.5 1023.8 53.1L1023.8 53.1L1023.8 53.9Q1023.8 55.3 1024.3 56.1Q1024.9 56.9 1025.9 56.9L1025.9 56.9Q1026.8 56.9 1027.3 56.2Q1027.9 55.5 1027.9 54.3L1027.9 54.3Q1027.9 53.2 1027.3 52.5Q1026.8 51.8 1025.8 51.8Z "/></g><defs><pattern id="satori_pattern_id-0-1_0" x="0" y="0" width="1" height="1" patternUnits="objectBoundingBox"><linearGradient id="satori_biid-0-1_0" x1="0" y1="0" x2="0" y2="1" spreadMethod="pad"><stop offset="0%" stop-color="#FF6B6B"/><stop offset="100%" stop-color="#E74C3C"/></linearGradient><rect x="0" y="0" width="1080" height="601" fill="url(#satori_biid-0-1_0)"/></pattern></defs><mask id="satori_om-id-0-1"><rect x="0" y="0" width="1080" height="601" fill="#fff" mask="url(#satori_om-id)"/></mask><rect x="0" y="0" width="1080" height="601" fill="url(#satori_pattern_id-0-1_0)" clip-path="url(#satori_cp-id)" mask="url(#satori_om-id)"/><mask id="satori_om-id-0-1-0"><rect x="462" y="247" width="156" height="56" fill="#fff" mask="url(#satori_om-id)"/></mask><mask id="satori_om-id-0-1-0-0"><rect x="462" y="247" width="56" height="56" fill="#fff" mask="url(#satori_om-id)"/></mask><path x="462" y="247" width="56" height="56" fill="rgba(255, 255, 255, 0.25)" d="M490,247 h0 a28,28 0 0 1 28,28 v0 a28,28 0 0 1 -28,28 h0 a28,28 0 0 1 -28,-28 v0 a28,28 0 0 1 28,-28" clip-path="url(#satori_cp-id)" mask="url(#satori_om-id)"/><mask id="satori_om-id-0-1-0-0-0"><rect x="483" y="259" width="15" height="32" fill="#fff" mask="url(#satori_om-id)"/></mask><g mask="url(#satori_om-id)" clip-path="url(#satori_cp-id)"><path fill="black" d="M495.6 263.3L495.6 286L484.6 286L484.6 263.3L495.6 263.3ZM490.5 274.6L494.8 284.7L494.8 264.6L490.5 274.6ZM489.6 274.6L485.4 264.8L485.4 284.5L489.6 274.6ZM490.0 275.7L486.0 285.2L494.1 285.2L490.0 275.7ZM486.0 264.1L490.0 273.6L494.1 264.1L486.0 264.1Z "/></g><mask id="satori_om-id-0-1-0-1"><rect x="534" y="261" width="84" height="28" fill="#fff" mask="url(#satori_om-id)"/></mask><g mask="url(#satori_om-id)" clip-path="url(#satori_cp-id)"><path fill="#FFFFFF" d="M535.5 265.9L540.1 265.9L544.5 278.3L548.9 265.9L553.5 265.9L553.5 283L549.9 283L549.9 278.3L550.3 270.3L545.7 283L543.3 283L538.7 270.3L539.0 278.3L539.0 283L535.5 283L535.5 265.9ZM562.6 265.9L566.1 273.6L569.7 265.9L573.5 265.9L567.9 276.8L567.9 283L564.3 283L564.3 276.8L558.7 265.9L562.6 265.9ZM592.1 265.9L592.1 268.8L586.9 268.8L586.9 283L583.4 283L583.4 268.8L578.2 268.8L578.2 265.9L592.1 265.9ZM612.0 265.9L612.0 283L608.5 283L608.5 275.7L601.6 275.7L601.6 283L598.1 283L598.1 265.9L601.6 265.9L601.6 272.9L608.5 272.9L608.5 265.9L612.0 265.9Z "/></g><mask id="satori_om-id-0-1-1"><rect x="326" y="327" width="428" height="47" fill="#fff" mask="url(#satori_om-id)"/></mask><g opacity="0.95"></g><g mask="url(#satori_om-id)" clip-path="url(#satori_cp-id)"><path fill="#FFFFFF" d="M330.9 336L330.9 338.4L330.3 344.7L328.4 344.7L328.4 336L330.9 336ZM335.6 336L335.6 338.4L335.1 344.7L333.1 344.7L333.2 336L335.6 336ZM348.0 351.6L348.0 351.6Q343.7 350.3 341.7 348.5Q339.7 346.7 339.7 344.0L339.7 344.0Q339.7 341.0 342.1 339.0Q344.6 337.1 348.4 337.1L348.4 337.1Q351.1 337.1 353.1 338.1Q355.2 339.1 356.3 340.9Q357.5 342.7 357.5 344.8L357.5 344.8L354.1 344.8Q354.1 342.5 352.6 341.2Q351.1 339.8 348.4 339.8L348.4 339.8Q345.9 339.8 344.5 340.9Q343.1 342.0 343.1 344.0L343.1 344.0Q343.1 345.5 344.5 346.6Q345.8 347.7 349.0 348.6Q352.2 349.5 354.0 350.6Q355.8 351.7 356.6 353.1Q357.5 354.5 357.5 356.5L357.5 356.5Q357.5 359.6 355.1 361.5Q352.7 363.4 348.6 363.4L348.6 363.4Q346.0 363.4 343.7 362.3Q341.4 361.3 340.2 359.6Q338.9 357.8 338.9 355.6L338.9 355.6L342.3 355.6Q342.3 357.9 344.0 359.2Q345.7 360.6 348.6 360.6L348.6 360.6Q351.3 360.6 352.7 359.5Q354.1 358.4 354.1 356.5Q354.1 354.7 352.8 353.6Q351.5 352.6 348.0 351.6ZM362.5 339.4L365.7 339.4L365.7 344.0L369.3 344.0L369.3 346.5L365.7 346.5L365.7 358.3Q365.7 359.4 366.2 360.0Q366.7 360.6 367.8 360.6L367.8 360.6Q368.4 360.6 369.4 360.4L369.4 360.4L369.4 363Q368.1 363.4 366.9 363.4L366.9 363.4Q364.7 363.4 363.6 362.0Q362.5 360.7 362.5 358.3L362.5 358.3L362.5 346.5L359.0 346.5L359.0 344.0L362.5 344.0L362.5 339.4ZM388.2 363L384.8 363Q384.6 362.4 384.4 361.0L384.4 361.0Q382.1 363.4 379.0 363.4L379.0 363.4Q376.2 363.4 374.3 361.8Q372.5 360.2 372.5 357.7L372.5 357.7Q372.5 354.8 374.8 353.1Q377.1 351.5 381.2 351.5L381.2 351.5L384.3 351.5L384.3 350.0Q384.3 348.3 383.3 347.3Q382.3 346.2 380.3 346.2L380.3 346.2Q378.6 346.2 377.4 347.1Q376.2 348.0 376.2 349.3L376.2 349.3L372.9 349.3Q372.9 347.8 373.9 346.5Q375.0 345.2 376.7 344.4Q378.4 343.6 380.5 343.6L380.5 343.6Q383.8 343.6 385.6 345.3Q387.5 346.9 387.6 349.8L387.6 349.8L387.6 358.6Q387.6 361.2 388.2 362.7L388.2 362.7L388.2 363ZM379.4 360.5L379.4 360.5Q381.0 360.5 382.3 359.7Q383.7 358.9 384.3 357.7L384.3 357.7L384.3 353.8L381.8 353.8Q375.8 353.8 375.8 357.3L375.8 357.3Q375.8 358.8 376.8 359.7Q377.8 360.5 379.4 360.5ZM393.8 339.4L397.1 339.4L397.1 344.0L400.6 344.0L400.6 346.5L397.1 346.5L397.1 358.3Q397.1 359.4 397.6 360.0Q398.0 360.6 399.2 360.6L399.2 360.6Q399.7 360.6 400.7 360.4L400.7 360.4L400.7 363Q399.4 363.4 398.2 363.4L398.2 363.4Q396.0 363.4 394.9 362.0Q393.8 360.7 393.8 358.3L393.8 358.3L393.8 346.5L390.4 346.5L390.4 344.0L393.8 344.0L393.8 339.4ZM408.0 344.0L408.0 363L404.7 363L404.7 344.0L408.0 344.0ZM404.5 338.9L404.5 338.9Q404.5 338.1 404.9 337.6Q405.4 337.1 406.4 337.1Q407.3 337.1 407.8 337.6Q408.3 338.1 408.3 338.9Q408.3 339.7 407.8 340.3Q407.3 340.8 406.4 340.8Q405.4 340.8 404.9 340.3Q404.5 339.7 404.5 338.9ZM413.2 344.0L416.2 344.0L416.4 346.4Q418.5 343.6 422.0 343.6L422.0 343.6Q428.1 343.6 428.1 350.4L428.1 350.4L428.1 363L424.9 363L424.9 350.4Q424.9 348.4 423.9 347.4Q423.0 346.4 421.1 346.4L421.1 346.4Q419.5 346.4 418.3 347.2Q417.1 348.1 416.4 349.4L416.4 349.4L416.4 363L413.2 363L413.2 344.0ZM444.1 358.0L444.1 358.0Q444.1 356.6 443.1 355.9Q442.1 355.2 439.7 354.7Q437.2 354.1 435.7 353.4Q434.3 352.6 433.6 351.6Q432.9 350.6 432.9 349.2L432.9 349.2Q432.9 346.9 434.9 345.2Q436.8 343.6 439.9 343.6L439.9 343.6Q443.2 343.6 445.2 345.3Q447.2 347.0 447.2 349.6L447.2 349.6L443.9 349.6Q443.9 348.2 442.8 347.3Q441.6 346.3 439.9 346.3L439.9 346.3Q438.1 346.3 437.1 347.1Q436.1 347.8 436.1 349.1L436.1 349.1Q436.1 350.3 437.1 350.9Q438.0 351.5 440.4 352.0Q442.9 352.6 444.4 353.3Q445.9 354.1 446.6 355.1Q447.4 356.2 447.4 357.7L447.4 357.7Q447.4 360.3 445.3 361.8Q443.3 363.4 440.0 363.4L440.0 363.4Q437.7 363.4 436.0 362.5Q434.2 361.7 433.2 360.3Q432.2 358.8 432.2 357.1L432.2 357.1L435.5 357.1Q435.6 358.8 436.8 359.7Q438.0 360.7 440.0 360.7L440.0 360.7Q441.9 360.7 443.0 360.0Q444.1 359.2 444.1 358.0Z M459.7 353.6L459.7 353.3Q459.7 349.0 461.8 346.3Q463.9 343.6 467.2 343.6L467.2 343.6Q470.6 343.6 472.5 345.9L472.5 345.9L472.5 336L475.8 336L475.8 363L472.8 363L472.6 361.0Q470.7 363.4 467.2 363.4L467.2 363.4Q463.9 363.4 461.8 360.6Q459.7 357.9 459.7 353.6L459.7 353.6ZM463.0 353.7L463.0 353.7Q463.0 356.9 464.3 358.8Q465.6 360.6 468.0 360.6L468.0 360.6Q471.1 360.6 472.5 357.8L472.5 357.8L472.5 349.1Q471.1 346.4 468.0 346.4L468.0 346.4Q465.6 346.4 464.3 348.2Q463.0 350.1 463.0 353.7ZM496.0 363L492.6 363Q492.3 362.4 492.1 361.0L492.1 361.0Q489.8 363.4 486.7 363.4L486.7 363.4Q483.9 363.4 482.1 361.8Q480.3 360.2 480.3 357.7L480.3 357.7Q480.3 354.8 482.5 353.1Q484.8 351.5 488.9 351.5L488.9 351.5L492.0 351.5L492.0 350.0Q492.0 348.3 491.0 347.3Q490.0 346.2 488.0 346.2L488.0 346.2Q486.3 346.2 485.1 347.1Q483.9 348.0 483.9 349.3L483.9 349.3L480.7 349.3Q480.7 347.8 481.7 346.5Q482.7 345.2 484.4 344.4Q486.1 343.6 488.2 343.6L488.2 343.6Q491.5 343.6 493.4 345.3Q495.2 346.9 495.3 349.8L495.3 349.8L495.3 358.6Q495.3 361.2 496.0 362.7L496.0 362.7L496.0 363ZM487.2 360.5L487.2 360.5Q488.7 360.5 490.1 359.7Q491.4 358.9 492.0 357.7L492.0 357.7L492.0 353.8L489.5 353.8Q483.5 353.8 483.5 357.3L483.5 357.3Q483.5 358.8 484.5 359.7Q485.6 360.5 487.2 360.5ZM500.4 344.0L503.5 344.0L503.5 346.1Q505.6 343.6 509.2 343.6L509.2 343.6Q513.2 343.6 514.6 346.7L514.6 346.7Q515.6 345.3 517.1 344.5Q518.6 343.6 520.7 343.6L520.7 343.6Q526.9 343.6 527.0 350.3L527.0 350.3L527.0 363L523.8 363L523.8 350.4Q523.8 348.4 522.9 347.4Q521.9 346.4 519.7 346.4L519.7 346.4Q517.9 346.4 516.7 347.5Q515.5 348.6 515.3 350.4L515.3 350.4L515.3 363L512.1 363L512.1 350.5Q512.1 346.4 508.0 346.4L508.0 346.4Q504.8 346.4 503.6 349.1L503.6 349.1L503.6 363L500.4 363L500.4 344.0ZM547.1 363L543.7 363Q543.4 362.4 543.2 361.0L543.2 361.0Q541.0 363.4 537.8 363.4L537.8 363.4Q535.0 363.4 533.2 361.8Q531.4 360.2 531.4 357.7L531.4 357.7Q531.4 354.8 533.7 353.1Q535.9 351.5 540.0 351.5L540.0 351.5L543.2 351.5L543.2 350.0Q543.2 348.3 542.2 347.3Q541.1 346.2 539.2 346.2L539.2 346.2Q537.4 346.2 536.2 347.1Q535.1 348.0 535.1 349.3L535.1 349.3L531.8 349.3Q531.8 347.8 532.8 346.5Q533.8 345.2 535.5 344.4Q537.3 343.6 539.3 343.6L539.3 343.6Q542.6 343.6 544.5 345.3Q546.4 346.9 546.4 349.8L546.4 349.8L546.4 358.6Q546.4 361.2 547.1 362.7L547.1 362.7L547.1 363ZM538.3 360.5L538.3 360.5Q539.8 360.5 541.2 359.7Q542.6 358.9 543.2 357.7L543.2 357.7L543.2 353.8L540.6 353.8Q534.7 353.8 534.7 357.3L534.7 357.3Q534.7 358.8 535.7 359.7Q536.7 360.5 538.3 360.5ZM550.8 353.3L550.8 353.3Q550.8 348.9 552.8 346.3Q554.9 343.6 558.3 343.6L558.3 343.6Q561.7 343.6 563.7 346.1L563.7 346.1L563.8 344.0L566.8 344.0L566.8 362.5Q566.8 366.2 564.6 368.4Q562.4 370.5 558.8 370.5L558.8 370.5Q556.7 370.5 554.7 369.6Q552.8 368.7 551.7 367.2L551.7 367.2L553.4 365.3Q555.5 367.8 558.5 367.8L558.5 367.8Q560.9 367.8 562.2 366.5Q563.6 365.2 563.6 362.7L563.6 362.7L563.6 361.1Q561.6 363.4 558.2 363.4L558.2 363.4Q554.9 363.4 552.8 360.7Q550.8 358.0 550.8 353.3ZM554.0 353.7L554.0 353.7Q554.0 356.9 555.3 358.8Q556.7 360.6 559.0 360.6L559.0 360.6Q562.1 360.6 563.6 357.8L563.6 357.8L563.6 349.1Q562.1 346.4 559.1 346.4L559.1 346.4Q556.7 346.4 555.4 348.2Q554.0 350.1 554.0 353.7ZM579.6 363.4L579.6 363.4Q575.8 363.4 573.3 360.8Q570.9 358.3 570.9 354.0L570.9 354.0L570.9 353.4Q570.9 350.6 572.0 348.4Q573.1 346.1 575.0 344.9Q576.9 343.6 579.2 343.6L579.2 343.6Q582.9 343.6 585.0 346.1Q587.0 348.5 587.0 353.1L587.0 353.1L587.0 354.4L574.2 354.4Q574.2 357.2 575.8 359.0Q577.4 360.7 579.8 360.7L579.8 360.7Q581.5 360.7 582.7 360.0Q583.9 359.3 584.8 358.1L584.8 358.1L586.8 359.7Q584.4 363.4 579.6 363.4ZM579.2 346.3L579.2 346.3Q577.2 346.3 575.9 347.7Q574.6 349.2 574.3 351.8L574.3 351.8L583.8 351.8L583.8 351.5Q583.6 349.0 582.4 347.7Q581.3 346.3 579.2 346.3Z M601.2 344.0L605.9 358.2L610.4 344.0L613.8 344.0L606.2 365.9Q604.4 370.7 600.6 370.7L600.6 370.7L599.9 370.6L598.7 370.4L598.7 367.8L599.6 367.8Q601.3 367.8 602.2 367.2Q603.1 366.5 603.7 364.7L603.7 364.7L604.4 362.8L597.6 344.0L601.2 344.0ZM615.6 353.5L615.6 353.3Q615.6 350.5 616.7 348.3Q617.8 346.1 619.8 344.8Q621.7 343.6 624.2 343.6L624.2 343.6Q628.1 343.6 630.5 346.3Q632.9 349.0 632.9 353.5L632.9 353.5L632.9 353.7Q632.9 356.5 631.9 358.7Q630.8 360.9 628.8 362.1Q626.8 363.4 624.3 363.4L624.3 363.4Q620.4 363.4 618.0 360.7Q615.6 358.0 615.6 353.5L615.6 353.5ZM618.9 353.7L618.9 353.7Q618.9 356.9 620.4 358.8Q621.8 360.7 624.3 360.7L624.3 360.7Q626.8 360.7 628.2 358.8Q629.7 356.8 629.7 353.3L629.7 353.3Q629.7 350.2 628.2 348.2Q626.7 346.3 624.2 346.3L624.2 346.3Q621.8 346.3 620.4 348.2Q618.9 350.1 618.9 353.7ZM648.8 363L648.8 361.1Q646.9 363.4 643.2 363.4L643.2 363.4Q640.1 363.4 638.5 361.6Q637.0 359.8 636.9 356.4L636.9 356.4L636.9 344.0L640.2 344.0L640.2 356.3Q640.2 360.6 643.7 360.6L643.7 360.6Q647.4 360.6 648.7 357.8L648.7 357.8L648.7 344.0L651.9 344.0L651.9 363L648.8 363ZM666.0 343.9L666.0 346.9Q665.3 346.8 664.4 346.8L664.4 346.8Q661.3 346.8 660.1 349.5L660.1 349.5L660.1 363L656.9 363L656.9 344.0L660.0 344.0L660.1 346.2Q661.7 343.6 664.6 343.6L664.6 343.6Q665.6 343.6 666.0 343.9L666.0 343.9Z M681.7 336L681.7 363L678.5 363L678.5 336L681.7 336ZM690.5 344.0L690.5 363L687.2 363L687.2 344.0L690.5 344.0ZM687.0 338.9L687.0 338.9Q687.0 338.1 687.5 337.6Q687.9 337.1 688.9 337.1Q689.8 337.1 690.3 337.6Q690.8 338.1 690.8 338.9Q690.8 339.7 690.3 340.3Q689.8 340.8 688.9 340.8Q687.9 340.8 687.5 340.3Q687.0 339.7 687.0 338.9ZM697.1 344.0L702.0 358.6L706.7 344.0L710.0 344.0L703.2 363L700.7 363L693.8 344.0L697.1 344.0ZM720.8 363.4L720.8 363.4Q716.9 363.4 714.5 360.8Q712.1 358.3 712.1 354.0L712.1 354.0L712.1 353.4Q712.1 350.6 713.1 348.4Q714.2 346.1 716.2 344.9Q718.1 343.6 720.4 343.6L720.4 343.6Q724.1 343.6 726.1 346.1Q728.2 348.5 728.2 353.1L728.2 353.1L728.2 354.4L715.3 354.4Q715.4 357.2 717.0 359.0Q718.5 360.7 721.0 360.7L721.0 360.7Q722.7 360.7 723.9 360.0Q725.1 359.3 726.0 358.1L726.0 358.1L728.0 359.7Q725.6 363.4 720.8 363.4ZM720.4 346.3L720.4 346.3Q718.4 346.3 717.1 347.7Q715.7 349.2 715.4 351.8L715.4 351.8L725.0 351.8L725.0 351.5Q724.8 349.0 723.6 347.7Q722.4 346.3 720.4 346.3ZM741.2 343.9L741.2 346.9Q740.4 346.8 739.6 346.8L739.6 346.8Q736.4 346.8 735.2 349.5L735.2 349.5L735.2 363L732.0 363L732.0 344.0L735.1 344.0L735.2 346.2Q736.8 343.6 739.7 343.6L739.7 343.6Q740.7 343.6 741.2 343.9L741.2 343.9ZM746.8 336L746.8 338.4L746.3 344.7L744.4 344.7L744.4 336L746.8 336ZM751.6 336L751.6 338.4L751.1 344.7L749.1 344.7L749.1 336L751.6 336Z " opacity="0.95"/></g><g clip-path="url(#satori_cp-id)"><line x1="326" y1="352.28859375" x2="753.4296875" y2="352.28859375" stroke="rgba(255, 255, 255, 0.6)" stroke-width="3.6" stroke-linecap="square" transform=""/></g><defs><pattern id="satori_pattern_id-0-2_0" x="0" y="0" width="1" height="1" patternUnits="objectBoundingBox"><linearGradient id="satori_biid-0-2_0" x1="0" y1="0" x2="1" y2="0" spreadMethod="pad"><stop offset="0%" stop-color="#E74C3C"/><stop offset="100%" stop-color="#1E8449"/></linearGradient><rect x="0" y="0" width="1080" height="8" fill="url(#satori_biid-0-2_0)"/></pattern></defs><mask id="satori_om-id-0-2"><rect x="0" y="601" width="1080" height="8" fill="#fff" mask="url(#satori_om-id)"/></mask><rect x="0" y="601" width="1080" height="8" fill="url(#satori_pattern_id-0-2_0)" clip-path="url(#satori_cp-id)" mask="url(#satori_om-id)"/><defs><pattern id="satori_pattern_id-0-3_0" x="0" y="0" width="1" height="1" patternUnits="objectBoundingBox"><linearGradient id="satori_biid-0-3_0" x1="0" y1="0" x2="0" y2="1" spreadMethod="pad"><stop offset="0%" stop-color="#1E8449"/><stop offset="100%" stop-color="#27AE60"/></linearGradient><rect x="0" y="0" width="1080" height="601" fill="url(#satori_biid-0-3_0)"/></pattern></defs><mask id="satori_om-id-0-3"><rect x="0" y="609" width="1080" height="601" fill="#fff" mask="url(#satori_om-id)"/></mask><rect x="0" y="609" width="1080" height="601" fill="url(#satori_pattern_id-0-3_0)" clip-path="url(#satori_cp-id)" mask="url(#satori_om-id)"/><mask id="satori_om-id-0-3-0"><rect x="455" y="789" width="170" height="56" fill="#fff" mask="url(#satori_om-id)"/></mask><mask id="satori_om-id-0-3-0-0"><rect x="455" y="789" width="56" height="56" fill="#fff" mask="url(#satori_om-id)"/></mask><path x="455" y="789" width="56" height="56" fill="rgba(255, 255, 255, 0.25)" d="M483,789 h0 a28,28 0 0 1 28,28 v0 a28,28 0 0 1 -28,28 h0 a28,28 0 0 1 -28,-28 v0 a28,28 0 0 1 28,-28" clip-path="url(#satori_cp-id)" mask="url(#satori_om-id)"/><mask id="satori_om-id-0-3-0-0-0"><rect x="476" y="801" width="15" height="32" fill="#fff" mask="url(#satori_om-id)"/></mask><g mask="url(#satori_om-id)" clip-path="url(#satori_cp-id)"><path fill="black" d="M488.6 805.3L488.6 828L477.6 828L477.6 805.3L488.6 805.3ZM483.5 816.6L487.8 826.7L487.8 806.6L483.5 816.6ZM482.6 816.6L478.4 806.8L478.4 826.5L482.6 816.6ZM483.0 817.7L479.0 827.2L487.1 827.2L483.0 817.7ZM479.0 806.1L483.0 815.6L487.1 806.1L479.0 806.1Z "/></g><mask id="satori_om-id-0-3-0-1"><rect x="527" y="803" width="98" height="28" fill="#fff" mask="url(#satori_om-id)"/></mask><g mask="url(#satori_om-id)" clip-path="url(#satori_cp-id)"><path fill="#FFFFFF" d="M541.4 807.9L541.4 810.8L536.1 810.8L536.1 825L532.6 825L532.6 810.8L527.5 810.8L527.5 807.9L541.4 807.9ZM556.9 825L553.7 818.8L550.9 818.8L550.9 825L547.4 825L547.4 807.9L553.7 807.9Q556.7 807.9 558.4 809.3Q560.0 810.6 560.0 813.1L560.0 813.1Q560.0 814.8 559.3 816.0Q558.5 817.2 557.0 817.9L557.0 817.9L560.7 824.8L560.7 825L556.9 825ZM550.9 810.8L550.9 815.9L553.7 815.9Q555.0 815.9 555.8 815.2Q556.5 814.6 556.5 813.4L556.5 813.4Q556.5 812.2 555.8 811.5Q555.1 810.8 553.7 810.8L553.7 810.8L550.9 810.8ZM576.1 807.9L579.6 807.9L579.6 819.2Q579.6 822.0 577.8 823.6Q576.1 825.2 573.1 825.2L573.1 825.2Q570.1 825.2 568.3 823.7Q566.6 822.1 566.5 819.3L566.5 819.3L566.5 807.9L570.0 807.9L570.0 819.2Q570.0 820.9 570.8 821.6Q571.6 822.4 573.1 822.4L573.1 822.4Q576.0 822.4 576.1 819.3L576.1 819.3L576.1 807.9ZM599.3 807.9L599.3 810.8L594.1 810.8L594.1 825L590.6 825L590.6 810.8L585.4 810.8L585.4 807.9L599.3 807.9ZM619.2 807.9L619.2 825L615.7 825L615.7 817.7L608.8 817.7L608.8 825L605.3 825L605.3 807.9L608.8 807.9L608.8 814.9L615.7 814.9L615.7 807.9L619.2 807.9Z "/></g><mask id="satori_om-id-0-3-1"><rect x="90" y="869" width="900" height="141" fill="#fff" mask="url(#satori_om-id)"/></mask><g mask="url(#satori_om-id)" clip-path="url(#satori_cp-id)"><path fill="#FFFFFF" d="M120.6 879.4L120.6 900.8L131.8 900.8L131.8 905L115.3 905L115.3 879.4L120.6 879.4ZM139.8 886.0L139.8 905L134.7 905L134.7 886.0L139.8 886.0ZM134.4 881.1L134.4 881.1Q134.4 879.9 135.2 879.2Q135.9 878.4 137.3 878.4L137.3 878.4Q138.6 878.4 139.3 879.2Q140.1 879.9 140.1 881.1L140.1 881.1Q140.1 882.2 139.3 883.0Q138.5 883.7 137.3 883.7Q136.0 883.7 135.2 883.0Q134.4 882.2 134.4 881.1ZM147.6 886.0L151.1 898.8L154.6 886.0L160.0 886.0L153.5 905L148.7 905L142.3 886.0L147.6 886.0ZM170.7 905.4L170.7 905.4Q166.5 905.4 163.9 902.8Q161.3 900.2 161.3 895.9L161.3 895.9L161.3 895.5Q161.3 892.6 162.4 890.3Q163.5 888.1 165.5 886.9Q167.5 885.6 170.1 885.6L170.1 885.6Q174.0 885.6 176.3 888.1Q178.5 890.6 178.5 895.1L178.5 895.1L178.5 897.1L166.4 897.1Q166.7 899.0 167.9 900.1Q169.1 901.3 171.0 901.3L171.0 901.3Q174.0 901.3 175.6 899.1L175.6 899.1L178.1 901.9Q177.0 903.5 175.0 904.4Q173.1 905.4 170.7 905.4ZM170.1 889.7L170.1 889.7Q168.6 889.7 167.7 890.8Q166.7 891.8 166.5 893.7L166.5 893.7L173.5 893.7L173.5 893.3Q173.5 891.6 172.6 890.7Q171.7 889.7 170.1 889.7ZM192.2 885.9L192.1 890.7Q191.1 890.6 190.3 890.6L190.3 890.6Q187.4 890.6 186.5 892.6L186.5 892.6L186.5 905L181.4 905L181.4 886.0L186.2 886.0L186.4 888.2Q187.9 885.6 190.6 885.6L190.6 885.6Q191.4 885.6 192.2 885.9L192.2 885.9Z M203.2 895.3L203.2 895.3Q203.2 890.9 205.2 888.3Q207.2 885.6 210.6 885.6L210.6 885.6Q213.4 885.6 215.2 887.7L215.2 887.7L215.2 878L220.3 878L220.3 905L215.7 905L215.5 903.0Q213.6 905.4 210.6 905.4L210.6 905.4Q207.2 905.4 205.2 902.7Q203.2 900.1 203.2 895.3ZM208.2 895.7L208.2 895.7Q208.2 898.4 209.2 899.8Q210.1 901.2 211.9 901.2L211.9 901.2Q214.2 901.2 215.2 899.3L215.2 899.3L215.2 891.7Q214.3 889.8 211.9 889.8L211.9 889.8Q208.2 889.8 208.2 895.7ZM240.4 905L235.3 905Q234.9 904.3 234.7 903.3L234.7 903.3Q232.9 905.4 229.9 905.4L229.9 905.4Q227.2 905.4 225.3 903.7Q223.5 902.1 223.5 899.7L223.5 899.7Q223.5 896.6 225.7 895.0Q228.0 893.4 232.2 893.4L232.2 893.4L234.5 893.4L234.5 892.3Q234.5 891.0 233.9 890.2Q233.2 889.4 231.7 889.4L231.7 889.4Q230.4 889.4 229.7 890.0Q229.0 890.6 229.0 891.7L229.0 891.7L223.9 891.7Q223.9 890.0 224.9 888.6Q225.9 887.2 227.8 886.4Q229.7 885.6 232.0 885.6L232.0 885.6Q235.5 885.6 237.6 887.4Q239.6 889.2 239.6 892.4L239.6 892.4L239.6 900.6Q239.7 903.3 240.4 904.7L240.4 904.7L240.4 905ZM231.1 901.5L231.1 901.5Q232.2 901.5 233.1 901.0Q234.1 900.5 234.5 899.6L234.5 899.6L234.5 896.4L232.6 896.4Q228.8 896.4 228.6 899.0L228.6 899.0L228.6 899.3Q228.6 900.2 229.2 900.9Q229.9 901.5 231.1 901.5ZM243.5 886.0L248.3 886.0L248.5 888.1Q250.5 885.6 253.9 885.6L253.9 885.6Q257.6 885.6 259.0 888.5L259.0 888.5Q261.0 885.6 264.7 885.6L264.7 885.6Q267.8 885.6 269.3 887.4Q270.8 889.2 270.8 892.9L270.8 892.9L270.8 905L265.7 905L265.7 892.9Q265.7 891.3 265.1 890.5Q264.4 889.8 262.8 889.8L262.8 889.8Q260.6 889.8 259.7 891.9L259.7 891.9L259.7 905L254.6 905L254.6 892.9Q254.6 891.2 254.0 890.5Q253.3 889.8 251.7 889.8L251.7 889.8Q249.6 889.8 248.6 891.6L248.6 891.6L248.6 905L243.5 905L243.5 886.0ZM290.9 905L285.7 905Q285.4 904.3 285.2 903.3L285.2 903.3Q283.4 905.4 280.4 905.4L280.4 905.4Q277.6 905.4 275.8 903.7Q273.9 902.1 273.9 899.7L273.9 899.7Q273.9 896.6 276.2 895.0Q278.4 893.4 282.7 893.4L282.7 893.4L285.0 893.4L285.0 892.3Q285.0 891.0 284.3 890.2Q283.7 889.4 282.2 889.4L282.2 889.4Q280.9 889.4 280.2 890.0Q279.4 890.6 279.4 891.7L279.4 891.7L274.4 891.7Q274.4 890.0 275.4 888.6Q276.4 887.2 278.3 886.4Q280.1 885.6 282.5 885.6L282.5 885.6Q286.0 885.6 288.0 887.4Q290.1 889.2 290.1 892.4L290.1 892.4L290.1 900.6Q290.1 903.3 290.9 904.7L290.9 904.7L290.9 905ZM281.5 901.5L281.5 901.5Q282.6 901.5 283.6 901.0Q284.5 900.5 285.0 899.6L285.0 899.6L285.0 896.4L283.1 896.4Q279.3 896.4 279.0 899.0L279.0 899.0L279.0 899.3Q279.0 900.2 279.7 900.9Q280.4 901.5 281.5 901.5ZM293.3 895.6L293.3 895.3Q293.3 891.0 295.3 888.3Q297.4 885.6 301.0 885.6L301.0 885.6Q304.1 885.6 305.8 887.8L305.8 887.8L306.0 886.0L310.7 886.0L310.7 904.4Q310.7 906.9 309.5 908.7Q308.4 910.6 306.3 911.5Q304.3 912.5 301.5 912.5L301.5 912.5Q299.4 912.5 297.4 911.7Q295.4 910.8 294.4 909.5L294.4 909.5L296.7 906.4Q298.6 908.5 301.3 908.5L301.3 908.5Q303.3 908.5 304.4 907.5Q305.6 906.4 305.6 904.4L305.6 904.4L305.6 903.4Q303.8 905.4 300.9 905.4L300.9 905.4Q297.5 905.4 295.4 902.7Q293.3 900.0 293.3 895.6L293.3 895.6ZM298.3 895.7L298.3 895.7Q298.3 898.3 299.4 899.8Q300.4 901.2 302.2 901.2L302.2 901.2Q304.6 901.2 305.6 899.5L305.6 899.5L305.6 891.5Q304.5 889.8 302.3 889.8L302.3 889.8Q300.4 889.8 299.4 891.3Q298.3 892.7 298.3 895.7ZM323.3 905.4L323.3 905.4Q319.1 905.4 316.5 902.8Q313.9 900.2 313.9 895.9L313.9 895.9L313.9 895.5Q313.9 892.6 315.0 890.3Q316.1 888.1 318.1 886.9Q320.1 885.6 322.7 885.6L322.7 885.6Q326.6 885.6 328.9 888.1Q331.1 890.6 331.1 895.1L331.1 895.1L331.1 897.1L319.0 897.1Q319.3 899.0 320.5 900.1Q321.7 901.3 323.6 901.3L323.6 901.3Q326.6 901.3 328.2 899.1L328.2 899.1L330.7 901.9Q329.6 903.5 327.6 904.4Q325.7 905.4 323.3 905.4ZM322.7 889.7L322.7 889.7Q321.2 889.7 320.3 890.8Q319.3 891.8 319.1 893.7L319.1 893.7L326.1 893.7L326.1 893.3Q326.1 891.6 325.2 890.7Q324.3 889.7 322.7 889.7Z M348.3 886.0L348.3 905L343.2 905L343.2 886.0L348.3 886.0ZM342.9 881.1L342.9 881.1Q342.9 879.9 343.7 879.2Q344.4 878.4 345.8 878.4L345.8 878.4Q347.1 878.4 347.8 879.2Q348.6 879.9 348.6 881.1L348.6 881.1Q348.6 882.2 347.8 883.0Q347.0 883.7 345.8 883.7Q344.5 883.7 343.7 883.0Q342.9 882.2 342.9 881.1ZM362.8 899.7L362.8 899.7Q362.8 898.8 361.9 898.3Q361.0 897.7 358.9 897.3L358.9 897.3Q352.1 895.9 352.1 891.6L352.1 891.6Q352.1 889.0 354.2 887.3Q356.3 885.6 359.7 885.6L359.7 885.6Q363.3 885.6 365.5 887.3Q367.7 889.0 367.7 891.8L367.7 891.8L362.6 891.8Q362.6 890.7 361.9 890.0Q361.2 889.3 359.7 889.3L359.7 889.3Q358.4 889.3 357.7 889.8Q357.0 890.4 357.0 891.3L357.0 891.3Q357.0 892.2 357.8 892.7Q358.6 893.2 360.5 893.6Q362.4 893.9 363.7 894.4L363.7 894.4Q367.7 895.9 367.7 899.5L367.7 899.5Q367.7 902.1 365.5 903.7Q363.3 905.4 359.7 905.4L359.7 905.4Q357.3 905.4 355.5 904.5Q353.6 903.6 352.6 902.2Q351.5 900.7 351.5 899.0L351.5 899.0L356.3 899.0Q356.4 900.3 357.3 901.0Q358.3 901.7 359.8 901.7L359.8 901.7Q361.3 901.7 362.0 901.2Q362.8 900.6 362.8 899.7Z M388.7 905.4L388.7 905.4Q384.5 905.4 381.9 902.8Q379.3 900.2 379.3 895.9L379.3 895.9L379.3 895.5Q379.3 892.6 380.4 890.3Q381.5 888.1 383.5 886.9Q385.5 885.6 388.1 885.6L388.1 885.6Q392.0 885.6 394.3 888.1Q396.5 890.6 396.5 895.1L396.5 895.1L396.5 897.1L384.4 897.1Q384.7 899.0 385.9 900.1Q387.1 901.3 389.0 901.3L389.0 901.3Q392.0 901.3 393.6 899.1L393.6 899.1L396.1 901.9Q395.0 903.5 393.0 904.4Q391.1 905.4 388.7 905.4ZM388.1 889.7L388.1 889.7Q386.6 889.7 385.7 890.8Q384.7 891.8 384.5 893.7L384.5 893.7L391.5 893.7L391.5 893.3Q391.5 891.6 390.6 890.7Q389.7 889.7 388.1 889.7ZM403.5 886.0L406.7 891.7L409.9 886.0L415.3 886.0L409.9 895.3L415.5 905L410.1 905L406.7 899.0L403.3 905L397.8 905L403.5 895.3L398.1 886.0L403.5 886.0ZM418.7 881.3L423.8 881.3L423.8 886.0L427.1 886.0L427.1 889.7L423.8 889.7L423.8 899.2Q423.8 900.3 424.2 900.7Q424.6 901.2 425.8 901.2L425.8 901.2Q426.6 901.2 427.3 901.0L427.3 901.0L427.3 904.9Q425.8 905.4 424.2 905.4L424.2 905.4Q418.8 905.4 418.7 900.0L418.7 900.0L418.7 889.7L416.0 889.7L416.0 886.0L418.7 886.0L418.7 881.3ZM440.6 885.9L440.6 890.7Q439.5 890.6 438.8 890.6L438.8 890.6Q435.9 890.6 435.0 892.6L435.0 892.6L435.0 905L429.9 905L429.9 886.0L434.7 886.0L434.8 888.2Q436.4 885.6 439.1 885.6L439.1 885.6Q439.9 885.6 440.6 885.9L440.6 885.9ZM451.4 905.4L451.4 905.4Q447.3 905.4 444.6 902.8Q442.0 900.2 442.0 895.9L442.0 895.9L442.0 895.5Q442.0 892.6 443.1 890.3Q444.2 888.1 446.2 886.9Q448.3 885.6 450.9 885.6L450.9 885.6Q454.8 885.6 457.0 888.1Q459.3 890.6 459.3 895.1L459.3 895.1L459.3 897.1L447.2 897.1Q447.4 899.0 448.6 900.1Q449.9 901.3 451.8 901.3L451.8 901.3Q454.7 901.3 456.4 899.1L456.4 899.1L458.9 901.9Q457.7 903.5 455.8 904.4Q453.8 905.4 451.4 905.4ZM450.9 889.7L450.9 889.7Q449.3 889.7 448.4 890.8Q447.5 891.8 447.2 893.7L447.2 893.7L454.3 893.7L454.3 893.3Q454.2 891.6 453.4 890.7Q452.5 889.7 450.9 889.7ZM462.1 886.0L466.9 886.0L467.1 888.1Q469.1 885.6 472.5 885.6L472.5 885.6Q476.2 885.6 477.6 888.5L477.6 888.5Q479.6 885.6 483.3 885.6L483.3 885.6Q486.4 885.6 487.9 887.4Q489.4 889.2 489.4 892.9L489.4 892.9L489.4 905L484.3 905L484.3 892.9Q484.3 891.3 483.7 890.5Q483.0 889.8 481.4 889.8L481.4 889.8Q479.2 889.8 478.3 891.9L478.3 891.9L478.3 905L473.2 905L473.2 892.9Q473.2 891.2 472.6 890.5Q471.9 889.8 470.4 889.8L470.4 889.8Q468.2 889.8 467.2 891.6L467.2 891.6L467.2 905L462.1 905L462.1 886.0ZM502.1 905.4L502.1 905.4Q497.9 905.4 495.3 902.8Q492.6 900.2 492.6 895.9L492.6 895.9L492.6 895.5Q492.6 892.6 493.7 890.3Q494.8 888.1 496.9 886.9Q498.9 885.6 501.5 885.6L501.5 885.6Q505.4 885.6 507.6 888.1Q509.9 890.6 509.9 895.1L509.9 895.1L509.9 897.1L497.8 897.1Q498.0 899.0 499.3 900.1Q500.5 901.3 502.4 901.3L502.4 901.3Q505.3 901.3 507.0 899.1L507.0 899.1L509.5 901.9Q508.3 903.5 506.4 904.4Q504.4 905.4 502.1 905.4ZM501.5 889.7L501.5 889.7Q500.0 889.7 499.0 890.8Q498.1 891.8 497.8 893.7L497.8 893.7L504.9 893.7L504.9 893.3Q504.9 891.6 504.0 890.7Q503.1 889.7 501.5 889.7ZM518.1 878L518.1 905L513.0 905L513.0 878L518.1 878ZM525.9 886.0L529.4 897.8L532.9 886.0L538.4 886.0L530.7 908.0L530.3 909.0Q528.6 912.7 524.7 912.7L524.7 912.7Q523.6 912.7 522.4 912.3L522.4 912.3L522.4 908.5L523.2 908.5Q524.7 908.5 525.4 908.1Q526.1 907.6 526.5 906.6L526.5 906.6L527.1 905.1L520.4 886.0L525.9 886.0Z M560.7 885.9L560.6 890.7Q559.6 890.6 558.8 890.6L558.8 890.6Q555.9 890.6 555.0 892.6L555.0 892.6L555.0 905L550.0 905L550.0 886.0L554.8 886.0L554.9 888.2Q556.4 885.6 559.1 885.6L559.1 885.6Q560.0 885.6 560.7 885.9L560.7 885.9ZM578.7 905L573.6 905Q573.2 904.3 573.1 903.3L573.1 903.3Q571.2 905.4 568.3 905.4L568.3 905.4Q565.5 905.4 563.6 903.7Q561.8 902.1 561.8 899.7L561.8 899.7Q561.8 896.6 564.0 895.0Q566.3 893.4 570.5 893.4L570.5 893.4L572.9 893.4L572.9 892.3Q572.9 891.0 572.2 890.2Q571.5 889.4 570.0 889.4L570.0 889.4Q568.8 889.4 568.0 890.0Q567.3 890.6 567.3 891.7L567.3 891.7L562.2 891.7Q562.2 890.0 563.2 888.6Q564.3 887.2 566.1 886.4Q568.0 885.6 570.3 885.6L570.3 885.6Q573.8 885.6 575.9 887.4Q578.0 889.2 578.0 892.4L578.0 892.4L578.0 900.6Q578.0 903.3 578.7 904.7L578.7 904.7L578.7 905ZM569.4 901.5L569.4 901.5Q570.5 901.5 571.4 901.0Q572.4 900.5 572.9 899.6L572.9 899.6L572.9 896.4L571.0 896.4Q567.1 896.4 566.9 899.0L566.9 899.0L566.9 899.3Q566.9 900.2 567.5 900.9Q568.2 901.5 569.4 901.5ZM592.6 885.9L592.5 890.7Q591.5 890.6 590.7 890.6L590.7 890.6Q587.8 890.6 586.9 892.6L586.9 892.6L586.9 905L581.9 905L581.9 886.0L586.7 886.0L586.8 888.2Q588.3 885.6 591.0 885.6L591.0 885.6Q591.9 885.6 592.6 885.9L592.6 885.9ZM603.4 905.4L603.4 905.4Q599.2 905.4 596.6 902.8Q594.0 900.2 594.0 895.9L594.0 895.9L594.0 895.5Q594.0 892.6 595.1 890.3Q596.2 888.1 598.2 886.9Q600.2 885.6 602.8 885.6L602.8 885.6Q606.7 885.6 609.0 888.1Q611.2 890.6 611.2 895.1L611.2 895.1L611.2 897.1L599.1 897.1Q599.4 899.0 600.6 900.1Q601.8 901.3 603.7 901.3L603.7 901.3Q606.7 901.3 608.3 899.1L608.3 899.1L610.8 901.9Q609.7 903.5 607.7 904.4Q605.8 905.4 603.4 905.4ZM602.8 889.7L602.8 889.7Q601.3 889.7 600.4 890.8Q599.4 891.8 599.2 893.7L599.2 893.7L606.2 893.7L606.2 893.3Q606.2 891.6 605.3 890.7Q604.4 889.7 602.8 889.7Z M624.2 895.5L624.2 894.6Q624.2 890.6 625.3 886.9Q626.3 883.3 628.4 880.5Q630.5 877.7 633.0 876.6L633.0 876.6L633.9 879.3Q631.4 881.2 629.9 885.2Q628.5 889.2 628.5 894.5L628.5 894.5L628.5 895.0Q628.5 900.4 629.9 904.3Q631.3 908.3 633.9 910.3L633.9 910.3L633.0 913.0Q630.6 911.9 628.5 909.2Q626.4 906.5 625.3 902.9Q624.3 899.4 624.2 895.5L624.2 895.5ZM650.7 890.5L640.7 894.1L650.7 897.7L650.7 902.6L635.6 896.2L635.6 892.0L650.7 885.6L650.7 890.5ZM671.9 889.7L671.9 894.4Q671.9 899.7 669.7 902.5Q667.5 905.4 663.3 905.4L663.3 905.4Q659.1 905.4 656.9 902.6Q654.7 899.8 654.6 894.7L654.6 894.7L654.6 890.0Q654.6 884.6 656.8 881.8Q659.1 879.1 663.3 879.1Q667.4 879.1 669.7 881.8Q671.9 884.6 671.9 889.7L671.9 889.7ZM666.8 895.3L666.8 889.3Q666.8 886.1 666.0 884.6Q665.1 883.2 663.3 883.2L663.3 883.2Q661.5 883.2 660.6 884.5Q659.8 885.9 659.7 888.9L659.7 888.9L659.7 895.1Q659.7 898.2 660.6 899.7Q661.4 901.3 663.3 901.3L663.3 901.3Q665.2 901.3 666.0 899.8Q666.8 898.3 666.8 895.3L666.8 895.3ZM675.8 902.5L675.8 902.5Q675.8 901.3 676.6 900.5Q677.5 899.8 678.7 899.8L678.7 899.8Q679.9 899.8 680.8 900.5Q681.6 901.3 681.6 902.5L681.6 902.5Q681.6 903.7 680.8 904.4Q680.0 905.2 678.7 905.2L678.7 905.2Q677.4 905.2 676.6 904.4Q675.8 903.7 675.8 902.5ZM698.1 879.4L698.1 905L693.1 905L693.1 885.4L687.0 887.3L687.0 883.2L697.6 879.4L698.1 879.4ZM706.4 885.6L706.4 884.3Q706.4 882.0 707.9 880.5Q709.5 879.0 711.9 879.0L711.9 879.0Q714.4 879.0 716.0 880.5Q717.5 881.9 717.5 884.4L717.5 884.4L717.5 885.7Q717.5 888.1 716.0 889.5Q714.4 890.9 712.0 890.9L712.0 890.9Q709.5 890.9 707.9 889.5Q706.4 888.0 706.4 885.6L706.4 885.6ZM709.8 884.4L709.8 885.7Q709.8 886.7 710.4 887.4Q711.0 888.0 712.0 888.0Q712.9 888.0 713.5 887.4Q714.1 886.7 714.1 885.6L714.1 885.6L714.1 884.3Q714.1 883.3 713.5 882.6Q712.9 882.0 711.9 882.0L711.9 882.0Q711.0 882.0 710.4 882.6Q709.8 883.3 709.8 884.4L709.8 884.4ZM718.6 900.0L718.6 898.7Q718.6 896.4 720.2 894.9Q721.7 893.5 724.2 893.5L724.2 893.5Q726.7 893.5 728.2 894.9Q729.8 896.3 729.8 898.8L729.8 898.8L729.8 900.1Q729.8 902.5 728.2 903.9Q726.7 905.4 724.2 905.4L724.2 905.4Q721.7 905.4 720.2 903.9Q718.6 902.4 718.6 900.0L718.6 900.0ZM722.0 898.8L722.0 900.1Q722.0 901.1 722.6 901.7Q723.3 902.4 724.2 902.4L724.2 902.4Q726.4 902.4 726.4 900.1L726.4 900.1L726.4 898.7Q726.4 897.7 725.8 897.0Q725.2 896.4 724.2 896.4Q723.2 896.4 722.6 897.0Q722.0 897.7 722.0 898.8L722.0 898.8ZM725.5 883.1L713.0 903.1L710.5 901.7L723.0 881.7L725.5 883.1ZM742.0 894.2L742.0 895.0Q742.0 899.0 740.9 902.6Q739.7 906.3 737.6 909.1Q735.4 911.9 733.0 913.0L733.0 913.0L732.0 910.3Q734.5 908.4 735.9 904.5Q737.4 900.6 737.4 895.5L737.4 895.5L737.4 894.6Q737.4 889.3 736.0 885.3Q734.6 881.3 732.0 879.3L732.0 879.3L733.0 876.6Q735.4 877.6 737.5 880.4Q739.6 883.1 740.8 886.7Q742.0 890.3 742.0 894.2L742.0 894.2ZM746.2 902.5L746.2 902.5Q746.2 901.3 747.0 900.5Q747.8 899.8 749.1 899.8L749.1 899.8Q750.3 899.8 751.1 900.5Q752.0 901.3 752.0 902.5L752.0 902.5Q752.0 903.7 751.1 904.4Q750.3 905.2 749.1 905.2L749.1 905.2Q747.8 905.2 747.0 904.4Q746.2 903.7 746.2 902.5Z M779.6 905L774.8 895.6L770.6 895.6L770.6 905L765.3 905L765.3 879.4L774.8 879.4Q779.3 879.4 781.8 881.4Q784.3 883.4 784.3 887.1L784.3 887.1Q784.3 889.8 783.1 891.5Q782.0 893.3 779.7 894.3L779.7 894.3L785.2 904.8L785.2 905L779.6 905ZM770.6 883.7L770.6 891.4L774.8 891.4Q776.8 891.4 777.9 890.3Q779.0 889.3 779.0 887.6L779.0 887.6Q779.0 885.8 778.0 884.7Q776.9 883.7 774.8 883.7L774.8 883.7L770.6 883.7ZM787.1 895.5L787.1 895.3Q787.1 892.5 788.2 890.3Q789.3 888.1 791.4 886.8Q793.4 885.6 796.1 885.6L796.1 885.6Q800.0 885.6 802.4 888.0Q804.8 890.3 805.1 894.4L805.1 894.4L805.2 895.7Q805.2 900.1 802.7 902.7Q800.3 905.4 796.2 905.4Q792.0 905.4 789.6 902.7Q787.1 900.1 787.1 895.5L787.1 895.5ZM792.2 895.7L792.2 895.7Q792.2 898.4 793.2 899.8Q794.3 901.3 796.2 901.3L796.2 901.3Q798.0 901.3 799.0 899.8Q800.1 898.4 800.1 895.3L800.1 895.3Q800.1 892.7 799.0 891.2Q798.0 889.7 796.1 889.7L796.1 889.7Q794.3 889.7 793.2 891.2Q792.2 892.6 792.2 895.7ZM819.8 905L819.7 903.1Q817.8 905.4 814.5 905.4L814.5 905.4Q811.4 905.4 809.8 903.6Q808.2 901.8 808.2 898.4L808.2 898.4L808.2 886.0L813.2 886.0L813.2 898.3Q813.2 901.2 815.9 901.2L815.9 901.2Q818.5 901.2 819.5 899.4L819.5 899.4L819.5 886.0L824.6 886.0L824.6 905L819.8 905ZM829.4 881.3L834.5 881.3L834.5 886.0L837.8 886.0L837.8 889.7L834.5 889.7L834.5 899.2Q834.5 900.3 834.9 900.7Q835.3 901.2 836.5 901.2L836.5 901.2Q837.3 901.2 838.0 901.0L838.0 901.0L838.0 904.9Q836.5 905.4 834.9 905.4L834.9 905.4Q829.5 905.4 829.4 900.0L829.4 900.0L829.4 889.7L826.7 889.7L826.7 886.0L829.4 886.0L829.4 881.3ZM846.0 886.0L846.0 905L840.9 905L840.9 886.0L846.0 886.0ZM840.6 881.1L840.6 881.1Q840.6 879.9 841.3 879.2Q842.1 878.4 843.4 878.4L843.4 878.4Q844.7 878.4 845.5 879.2Q846.3 879.9 846.3 881.1L846.3 881.1Q846.3 882.2 845.5 883.0Q844.7 883.7 843.4 883.7Q842.1 883.7 841.3 883.0Q840.6 882.2 840.6 881.1ZM850.0 886.0L854.8 886.0L855.0 888.2Q857.0 885.6 860.4 885.6L860.4 885.6Q863.5 885.6 864.9 887.4Q866.4 889.2 866.4 892.7L866.4 892.7L866.4 905L861.4 905L861.4 892.8Q861.4 891.2 860.7 890.5Q860.0 889.8 858.3 889.8L858.3 889.8Q856.2 889.8 855.1 891.6L855.1 891.6L855.1 905L850.0 905L850.0 886.0ZM879.1 905.4L879.1 905.4Q874.9 905.4 872.2 902.8Q869.6 900.2 869.6 895.9L869.6 895.9L869.6 895.5Q869.6 892.6 870.7 890.3Q871.8 888.1 873.9 886.9Q875.9 885.6 878.5 885.6L878.5 885.6Q882.4 885.6 884.6 888.1Q886.9 890.6 886.9 895.1L886.9 895.1L886.9 897.1L874.8 897.1Q875.0 899.0 876.2 900.1Q877.5 901.3 879.4 901.3L879.4 901.3Q882.3 901.3 884.0 899.1L884.0 899.1L886.5 901.9Q885.3 903.5 883.4 904.4Q881.4 905.4 879.1 905.4ZM878.5 889.7L878.5 889.7Q877.0 889.7 876.0 890.8Q875.1 891.8 874.8 893.7L874.8 893.7L881.9 893.7L881.9 893.3Q881.8 891.6 881.0 890.7Q880.1 889.7 878.5 889.7Z M904.3 878L904.3 905L899.2 905L899.2 878L904.3 878ZM913.9 886.0L913.9 905L908.8 905L908.8 886.0L913.9 886.0ZM908.5 881.1L908.5 881.1Q908.5 879.9 909.2 879.2Q910.0 878.4 911.3 878.4L911.3 878.4Q912.6 878.4 913.4 879.2Q914.2 879.9 914.2 881.1L914.2 881.1Q914.2 882.2 913.4 883.0Q912.6 883.7 911.3 883.7Q910.0 883.7 909.2 883.0Q908.5 882.2 908.5 881.1ZM921.6 886.0L925.2 898.8L928.7 886.0L934.0 886.0L927.6 905L922.7 905L916.3 886.0L921.6 886.0ZM944.8 905.4L944.8 905.4Q940.6 905.4 937.9 902.8Q935.3 900.2 935.3 895.9L935.3 895.9L935.3 895.5Q935.3 892.6 936.4 890.3Q937.5 888.1 939.6 886.9Q941.6 885.6 944.2 885.6L944.2 885.6Q948.1 885.6 950.3 888.1Q952.6 890.6 952.6 895.1L952.6 895.1L952.6 897.1L940.5 897.1Q940.7 899.0 942.0 900.1Q943.2 901.3 945.1 901.3L945.1 901.3Q948.0 901.3 949.7 899.1L949.7 899.1L952.2 901.9Q951.0 903.5 949.1 904.4Q947.1 905.4 944.8 905.4ZM944.2 889.7L944.2 889.7Q942.7 889.7 941.7 890.8Q940.8 891.8 940.5 893.7L940.5 893.7L947.6 893.7L947.6 893.3Q947.6 891.6 946.7 890.7Q945.8 889.7 944.2 889.7ZM966.2 885.9L966.2 890.7Q965.1 890.6 964.3 890.6L964.3 890.6Q961.4 890.6 960.5 892.6L960.5 892.6L960.5 905L955.5 905L955.5 886.0L960.3 886.0L960.4 888.2Q961.9 885.6 964.6 885.6L964.6 885.6Q965.5 885.6 966.2 885.9L966.2 885.9Z M125.0 933.0L129.7 933.0L129.9 935.1Q131.9 932.6 135.3 932.6L135.3 932.6Q139.0 932.6 140.4 935.5L140.4 935.5Q142.4 932.6 146.1 932.6L146.1 932.6Q149.2 932.6 150.7 934.4Q152.2 936.2 152.2 939.9L152.2 939.9L152.2 952L147.1 952L147.1 939.9Q147.1 938.3 146.5 937.5Q145.9 936.8 144.3 936.8L144.3 936.8Q142.0 936.8 141.1 938.9L141.1 938.9L141.1 952L136.0 952L136.0 939.9Q136.0 938.2 135.4 937.5Q134.7 936.8 133.2 936.8L133.2 936.8Q131.0 936.8 130.0 938.6L130.0 938.6L130.0 952L125.0 952L125.0 933.0ZM155.3 942.5L155.3 942.3Q155.3 939.5 156.4 937.3Q157.5 935.1 159.6 933.8Q161.6 932.6 164.3 932.6L164.3 932.6Q168.2 932.6 170.6 935.0Q173.0 937.3 173.3 941.4L173.3 941.4L173.3 942.7Q173.3 947.1 170.9 949.7Q168.5 952.4 164.3 952.4Q160.2 952.4 157.8 949.7Q155.3 947.1 155.3 942.5L155.3 942.5ZM160.4 942.7L160.4 942.7Q160.4 945.4 161.4 946.8Q162.4 948.3 164.3 948.3L164.3 948.3Q166.2 948.3 167.2 946.8Q168.3 945.4 168.3 942.3L168.3 942.3Q168.3 939.7 167.2 938.2Q166.2 936.7 164.3 936.7L164.3 936.7Q162.4 936.7 161.4 938.2Q160.4 939.6 160.4 942.7ZM176.4 933.0L181.1 933.0L181.3 935.2Q183.3 932.6 186.8 932.6L186.8 932.6Q189.8 932.6 191.3 934.4Q192.8 936.2 192.8 939.7L192.8 939.7L192.8 952L187.7 952L187.7 939.8Q187.7 938.2 187.0 937.5Q186.3 936.8 184.7 936.8L184.7 936.8Q182.5 936.8 181.4 938.6L181.4 938.6L181.4 952L176.4 952L176.4 933.0ZM202.0 933.0L202.0 952L196.9 952L196.9 933.0L202.0 933.0ZM196.6 928.1L196.6 928.1Q196.6 926.9 197.4 926.2Q198.1 925.4 199.4 925.4L199.4 925.4Q200.7 925.4 201.5 926.2Q202.3 926.9 202.3 928.1L202.3 928.1Q202.3 929.2 201.5 930.0Q200.7 930.7 199.4 930.7Q198.2 930.7 197.4 930.0Q196.6 929.2 196.6 928.1ZM207.2 928.3L212.3 928.3L212.3 933.0L215.5 933.0L215.5 936.7L212.3 936.7L212.3 946.2Q212.3 947.3 212.7 947.7Q213.1 948.2 214.2 948.2L214.2 948.2Q215.1 948.2 215.7 948.0L215.7 948.0L215.7 951.9Q214.2 952.4 212.6 952.4L212.6 952.4Q207.3 952.4 207.2 947.0L207.2 947.0L207.2 936.7L204.4 936.7L204.4 933.0L207.2 933.0L207.2 928.3ZM217.0 942.5L217.0 942.3Q217.0 939.5 218.1 937.3Q219.2 935.1 221.3 933.8Q223.3 932.6 226.0 932.6L226.0 932.6Q229.9 932.6 232.3 935.0Q234.7 937.3 235.0 941.4L235.0 941.4L235.0 942.7Q235.0 947.1 232.6 949.7Q230.2 952.4 226.0 952.4Q221.9 952.4 219.5 949.7Q217.0 947.1 217.0 942.5L217.0 942.5ZM222.1 942.7L222.1 942.7Q222.1 945.4 223.1 946.8Q224.1 948.3 226.0 948.3L226.0 948.3Q227.9 948.3 228.9 946.8Q230.0 945.4 230.0 942.3L230.0 942.3Q230.0 939.7 228.9 938.2Q227.9 936.7 226.0 936.7L226.0 936.7Q224.1 936.7 223.1 938.2Q222.1 939.6 222.1 942.7ZM248.9 932.9L248.9 937.7Q247.8 937.6 247.0 937.6L247.0 937.6Q244.1 937.6 243.3 939.6L243.3 939.6L243.3 952L238.2 952L238.2 933.0L243.0 933.0L243.1 935.2Q244.6 932.6 247.3 932.6L247.3 932.6Q248.2 932.6 248.9 932.9L248.9 932.9ZM256.7 933.0L256.7 952L251.6 952L251.6 933.0L256.7 933.0ZM251.3 928.1L251.3 928.1Q251.3 926.9 252.0 926.2Q252.8 925.4 254.1 925.4L254.1 925.4Q255.4 925.4 256.2 926.2Q257.0 926.9 257.0 928.1L257.0 928.1Q257.0 929.2 256.2 930.0Q255.4 930.7 254.1 930.7Q252.8 930.7 252.0 930.0Q251.3 929.2 251.3 928.1ZM260.7 933.0L265.5 933.0L265.7 935.2Q267.7 932.6 271.1 932.6L271.1 932.6Q274.2 932.6 275.6 934.4Q277.1 936.2 277.2 939.7L277.2 939.7L277.2 952L272.1 952L272.1 939.8Q272.1 938.2 271.4 937.5Q270.7 936.8 269.0 936.8L269.0 936.8Q266.9 936.8 265.8 938.6L265.8 938.6L265.8 952L260.7 952L260.7 933.0ZM280.3 942.6L280.3 942.3Q280.3 938.0 282.4 935.3Q284.4 932.6 288.0 932.6L288.0 932.6Q291.1 932.6 292.8 934.8L292.8 934.8L293.1 933.0L297.7 933.0L297.7 951.4Q297.7 953.9 296.5 955.7Q295.4 957.6 293.3 958.5Q291.3 959.5 288.5 959.5L288.5 959.5Q286.4 959.5 284.4 958.7Q282.5 957.8 281.4 956.5L281.4 956.5L283.7 953.4Q285.6 955.5 288.3 955.5L288.3 955.5Q290.3 955.5 291.4 954.5Q292.6 953.4 292.6 951.4L292.6 951.4L292.6 950.4Q290.8 952.4 287.9 952.4L287.9 952.4Q284.5 952.4 282.4 949.7Q280.3 947.0 280.3 942.6L280.3 942.6ZM285.4 942.7L285.4 942.7Q285.4 945.3 286.4 946.8Q287.4 948.2 289.2 948.2L289.2 948.2Q291.6 948.2 292.6 946.5L292.6 946.5L292.6 938.5Q291.5 936.8 289.3 936.8L289.3 936.8Q287.4 936.8 286.4 938.3Q285.4 939.7 285.4 942.7Z M316.3 933.0L316.3 952L311.2 952L311.2 933.0L316.3 933.0ZM310.9 928.1L310.9 928.1Q310.9 926.9 311.7 926.2Q312.4 925.4 313.8 925.4L313.8 925.4Q315.1 925.4 315.8 926.2Q316.6 926.9 316.6 928.1L316.6 928.1Q316.6 929.2 315.8 930.0Q315.0 930.7 313.8 930.7Q312.5 930.7 311.7 930.0Q310.9 929.2 310.9 928.1ZM330.8 946.7L330.8 946.7Q330.8 945.8 329.9 945.3Q329.0 944.7 326.9 944.3L326.9 944.3Q320.1 942.9 320.1 938.6L320.1 938.6Q320.1 936.0 322.2 934.3Q324.3 932.6 327.7 932.6L327.7 932.6Q331.3 932.6 333.5 934.3Q335.7 936.0 335.7 938.8L335.7 938.8L330.6 938.8Q330.6 937.7 329.9 937.0Q329.2 936.3 327.7 936.3L327.7 936.3Q326.4 936.3 325.7 936.8Q325.0 937.4 325.0 938.3L325.0 938.3Q325.0 939.2 325.8 939.7Q326.6 940.2 328.5 940.6Q330.4 940.9 331.7 941.4L331.7 941.4Q335.7 942.9 335.7 946.5L335.7 946.5Q335.7 949.1 333.5 950.7Q331.3 952.4 327.7 952.4L327.7 952.4Q325.3 952.4 323.5 951.5Q321.6 950.6 320.6 949.2Q319.5 947.7 319.5 946.0L319.5 946.0L324.3 946.0Q324.4 947.3 325.3 948.0Q326.3 948.7 327.8 948.7L327.8 948.7Q329.3 948.7 330.0 948.2Q330.8 947.6 330.8 946.7Z M347.8 933.0L352.6 933.0L352.8 935.2Q354.8 932.6 358.3 932.6L358.3 932.6Q361.3 932.6 362.8 934.4Q364.2 936.2 364.3 939.7L364.3 939.7L364.3 952L359.2 952L359.2 939.8Q359.2 938.2 358.5 937.5Q357.8 936.8 356.1 936.8L356.1 936.8Q354.0 936.8 352.9 938.6L352.9 938.6L352.9 952L347.8 952L347.8 933.0ZM367.3 942.5L367.3 942.3Q367.3 939.5 368.4 937.3Q369.5 935.1 371.5 933.8Q373.6 932.6 376.3 932.6L376.3 932.6Q380.2 932.6 382.6 935.0Q385.0 937.3 385.3 941.4L385.3 941.4L385.3 942.7Q385.3 947.1 382.9 949.7Q380.5 952.4 376.3 952.4Q372.2 952.4 369.8 949.7Q367.3 947.1 367.3 942.5L367.3 942.5ZM372.4 942.7L372.4 942.7Q372.4 945.4 373.4 946.8Q374.4 948.3 376.3 948.3L376.3 948.3Q378.2 948.3 379.2 946.8Q380.3 945.4 380.3 942.3L380.3 942.3Q380.3 939.7 379.2 938.2Q378.2 936.7 376.3 936.7L376.3 936.7Q374.4 936.7 373.4 938.2Q372.4 939.6 372.4 942.7Z M403.3 925L403.3 952L398.2 952L398.2 925L403.3 925ZM406.7 942.5L406.7 942.3Q406.7 939.5 407.8 937.3Q408.9 935.1 410.9 933.8Q413.0 932.6 415.7 932.6L415.7 932.6Q419.5 932.6 422.0 935.0Q424.4 937.3 424.7 941.4L424.7 941.4L424.7 942.7Q424.7 947.1 422.3 949.7Q419.8 952.4 415.7 952.4Q411.6 952.4 409.2 949.7Q406.7 947.1 406.7 942.5L406.7 942.5ZM411.8 942.7L411.8 942.7Q411.8 945.4 412.8 946.8Q413.8 948.3 415.7 948.3L415.7 948.3Q417.6 948.3 418.6 946.8Q419.6 945.4 419.6 942.3L419.6 942.3Q419.6 939.7 418.6 938.2Q417.6 936.7 415.7 936.7L415.7 936.7Q413.8 936.7 412.8 938.2Q411.8 939.6 411.8 942.7ZM427.7 933.0L432.5 933.0L432.7 935.2Q434.7 932.6 438.2 932.6L438.2 932.6Q441.2 932.6 442.7 934.4Q444.1 936.2 444.2 939.7L444.2 939.7L444.2 952L439.1 952L439.1 939.8Q439.1 938.2 438.4 937.5Q437.7 936.8 436.0 936.8L436.0 936.8Q433.9 936.8 432.8 938.6L432.8 938.6L432.8 952L427.7 952L427.7 933.0ZM447.3 942.6L447.3 942.3Q447.3 938.0 449.4 935.3Q451.4 932.6 455.0 932.6L455.0 932.6Q458.1 932.6 459.8 934.8L459.8 934.8L460.1 933.0L464.7 933.0L464.7 951.4Q464.7 953.9 463.5 955.7Q462.4 957.6 460.3 958.5Q458.3 959.5 455.5 959.5L455.5 959.5Q453.4 959.5 451.4 958.7Q449.5 957.8 448.4 956.5L448.4 956.5L450.7 953.4Q452.6 955.5 455.3 955.5L455.3 955.5Q457.3 955.5 458.4 954.5Q459.6 953.4 459.6 951.4L459.6 951.4L459.6 950.4Q457.8 952.4 454.9 952.4L454.9 952.4Q451.5 952.4 449.4 949.7Q447.3 947.0 447.3 942.6L447.3 942.6ZM452.4 942.7L452.4 942.7Q452.4 945.3 453.4 946.8Q454.4 948.2 456.2 948.2L456.2 948.2Q458.6 948.2 459.6 946.5L459.6 946.5L459.6 938.5Q458.5 936.8 456.3 936.8L456.3 936.8Q454.4 936.8 453.4 938.3Q452.4 939.7 452.4 942.7ZM477.3 952.4L477.3 952.4Q473.1 952.4 470.5 949.8Q467.9 947.2 467.9 942.9L467.9 942.9L467.9 942.5Q467.9 939.6 469.0 937.3Q470.1 935.1 472.1 933.9Q474.2 932.6 476.8 932.6L476.8 932.6Q480.7 932.6 482.9 935.1Q485.1 937.6 485.1 942.1L485.1 942.1L485.1 944.1L473.0 944.1Q473.3 946.0 474.5 947.1Q475.8 948.3 477.7 948.3L477.7 948.3Q480.6 948.3 482.2 946.1L482.2 946.1L484.7 948.9Q483.6 950.5 481.6 951.4Q479.7 952.4 477.3 952.4ZM476.7 936.7L476.7 936.7Q475.2 936.7 474.3 937.8Q473.3 938.8 473.1 940.7L473.1 940.7L480.1 940.7L480.1 940.3Q480.1 938.6 479.2 937.7Q478.4 936.7 476.7 936.7ZM498.8 932.9L498.7 937.7Q497.7 937.6 496.9 937.6L496.9 937.6Q494.0 937.6 493.1 939.6L493.1 939.6L493.1 952L488.0 952L488.0 933.0L492.8 933.0L493.0 935.2Q494.5 932.6 497.2 932.6L497.2 932.6Q498.0 932.6 498.8 932.9L498.8 932.9Z M520.7 932.9L520.6 937.7Q519.6 937.6 518.8 937.6L518.8 937.6Q515.9 937.6 515.0 939.6L515.0 939.6L515.0 952L510.0 952L510.0 933.0L514.8 933.0L514.9 935.2Q516.4 932.6 519.1 932.6L519.1 932.6Q520.0 932.6 520.7 932.9L520.7 932.9ZM531.5 952.4L531.5 952.4Q527.3 952.4 524.7 949.8Q522.1 947.2 522.1 942.9L522.1 942.9L522.1 942.5Q522.1 939.6 523.2 937.3Q524.3 935.1 526.3 933.9Q528.3 932.6 530.9 932.6L530.9 932.6Q534.8 932.6 537.1 935.1Q539.3 937.6 539.3 942.1L539.3 942.1L539.3 944.1L527.2 944.1Q527.5 946.0 528.7 947.1Q529.9 948.3 531.8 948.3L531.8 948.3Q534.8 948.3 536.4 946.1L536.4 946.1L538.9 948.9Q537.8 950.5 535.8 951.4Q533.9 952.4 531.5 952.4ZM530.9 936.7L530.9 936.7Q529.4 936.7 528.5 937.8Q527.5 938.8 527.3 940.7L527.3 940.7L534.3 940.7L534.3 940.3Q534.3 938.6 533.4 937.7Q532.5 936.7 530.9 936.7ZM550.1 948.3L550.1 948.3Q551.5 948.3 552.4 947.5Q553.3 946.7 553.3 945.4L553.3 945.4L558.1 945.4Q558.1 947.4 557.0 949.0Q556.0 950.6 554.2 951.5Q552.4 952.4 550.2 952.4L550.2 952.4Q546.1 952.4 543.8 949.8Q541.4 947.2 541.4 942.6L541.4 942.6L541.4 942.3Q541.4 937.9 543.8 935.2Q546.1 932.6 550.2 932.6L550.2 932.6Q553.7 932.6 555.9 934.7Q558.0 936.7 558.1 940.1L558.1 940.1L553.3 940.1Q553.3 938.6 552.4 937.7Q551.5 936.7 550.1 936.7L550.1 936.7Q548.3 936.7 547.4 938.0Q546.5 939.3 546.5 942.2L546.5 942.2L546.5 942.8Q546.5 945.7 547.4 947.0Q548.3 948.3 550.1 948.3ZM560.2 942.5L560.2 942.3Q560.2 939.5 561.3 937.3Q562.4 935.1 564.4 933.8Q566.5 932.6 569.2 932.6L569.2 932.6Q573.0 932.6 575.5 935.0Q577.9 937.3 578.2 941.4L578.2 941.4L578.2 942.7Q578.2 947.1 575.8 949.7Q573.3 952.4 569.2 952.4Q565.1 952.4 562.6 949.7Q560.2 947.1 560.2 942.5L560.2 942.5ZM565.3 942.7L565.3 942.7Q565.3 945.4 566.3 946.8Q567.3 948.3 569.2 948.3L569.2 948.3Q571.1 948.3 572.1 946.8Q573.1 945.4 573.1 942.3L573.1 942.3Q573.1 939.7 572.1 938.2Q571.1 936.7 569.2 936.7L569.2 936.7Q567.3 936.7 566.3 938.2Q565.3 939.6 565.3 942.7ZM581.3 933.0L586.1 933.0L586.3 935.1Q588.3 932.6 591.7 932.6L591.7 932.6Q595.4 932.6 596.8 935.5L596.8 935.5Q598.8 932.6 602.5 932.6L602.5 932.6Q605.6 932.6 607.1 934.4Q608.6 936.2 608.6 939.9L608.6 939.9L608.6 952L603.5 952L603.5 939.9Q603.5 938.3 602.9 937.5Q602.2 936.8 600.6 936.8L600.6 936.8Q598.4 936.8 597.5 938.9L597.5 938.9L597.5 952L592.4 952L592.4 939.9Q592.4 938.2 591.8 937.5Q591.1 936.8 589.5 936.8L589.5 936.8Q587.4 936.8 586.4 938.6L586.4 938.6L586.4 952L581.3 952L581.3 933.0ZM612.5 933.0L617.3 933.0L617.4 935.1Q619.4 932.6 622.9 932.6L622.9 932.6Q626.6 932.6 627.9 935.5L627.9 935.5Q629.9 932.6 633.6 932.6L633.6 932.6Q636.7 932.6 638.3 934.4Q639.8 936.2 639.8 939.9L639.8 939.9L639.8 952L634.7 952L634.7 939.9Q634.7 938.3 634.0 937.5Q633.4 936.8 631.8 936.8L631.8 936.8Q629.5 936.8 628.6 938.9L628.6 938.9L628.7 952L623.6 952L623.6 939.9Q623.6 938.2 622.9 937.5Q622.3 936.8 620.7 936.8L620.7 936.8Q618.5 936.8 617.6 938.6L617.6 938.6L617.6 952L612.5 952L612.5 933.0ZM652.4 952.4L652.4 952.4Q648.2 952.4 645.6 949.8Q643.0 947.2 643.0 942.9L643.0 942.9L643.0 942.5Q643.0 939.6 644.1 937.3Q645.2 935.1 647.2 933.9Q649.3 932.6 651.9 932.6L651.9 932.6Q655.8 932.6 658.0 935.1Q660.2 937.6 660.2 942.1L660.2 942.1L660.2 944.1L648.1 944.1Q648.4 946.0 649.6 947.1Q650.9 948.3 652.8 948.3L652.8 948.3Q655.7 948.3 657.3 946.1L657.3 946.1L659.8 948.9Q658.7 950.5 656.7 951.4Q654.8 952.4 652.4 952.4ZM651.8 936.7L651.8 936.7Q650.3 936.7 649.4 937.8Q648.4 938.8 648.2 940.7L648.2 940.7L655.3 940.7L655.3 940.3Q655.2 938.6 654.3 937.7Q653.5 936.7 651.8 936.7ZM663.0 933.0L667.8 933.0L668.0 935.2Q670 932.6 673.4 932.6L673.4 932.6Q676.5 932.6 677.9 934.4Q679.4 936.2 679.4 939.7L679.4 939.7L679.4 952L674.4 952L674.4 939.8Q674.4 938.2 673.7 937.5Q673.0 936.8 671.3 936.8L671.3 936.8Q669.2 936.8 668.1 938.6L668.1 938.6L668.1 952L663.0 952L663.0 933.0ZM682.5 942.3L682.5 942.3Q682.5 937.9 684.5 935.3Q686.5 932.6 690.0 932.6L690.0 932.6Q692.7 932.6 694.5 934.7L694.5 934.7L694.5 925L699.6 925L699.6 952L695.0 952L694.8 950.0Q692.9 952.4 689.9 952.4L689.9 952.4Q686.6 952.4 684.5 949.7Q682.5 947.1 682.5 942.3ZM687.6 942.7L687.6 942.7Q687.6 945.4 688.5 946.8Q689.4 948.2 691.2 948.2L691.2 948.2Q693.6 948.2 694.5 946.3L694.5 946.3L694.5 938.7Q693.6 936.8 691.3 936.8L691.3 936.8Q687.6 936.8 687.6 942.7ZM712.3 952.4L712.3 952.4Q708.1 952.4 705.5 949.8Q702.9 947.2 702.9 942.9L702.9 942.9L702.9 942.5Q702.9 939.6 704.0 937.3Q705.1 935.1 707.1 933.9Q709.2 932.6 711.8 932.6L711.8 932.6Q715.7 932.6 717.9 935.1Q720.2 937.6 720.2 942.1L720.2 942.1L720.2 944.1L708.0 944.1Q708.3 946.0 709.5 947.1Q710.8 948.3 712.7 948.3L712.7 948.3Q715.6 948.3 717.3 946.1L717.3 946.1L719.7 948.9Q718.6 950.5 716.7 951.4Q714.7 952.4 712.3 952.4ZM711.7 936.7L711.7 936.7Q710.2 936.7 709.3 937.8Q708.4 938.8 708.1 940.7L708.1 940.7L715.2 940.7L715.2 940.3Q715.1 938.6 714.2 937.7Q713.4 936.7 711.7 936.7ZM722.2 942.3L722.2 942.3Q722.2 937.9 724.2 935.3Q726.2 932.6 729.7 932.6L729.7 932.6Q732.5 932.6 734.3 934.7L734.3 934.7L734.3 925L739.4 925L739.4 952L734.8 952L734.5 950.0Q732.6 952.4 729.7 952.4L729.7 952.4Q726.3 952.4 724.3 949.7Q722.2 947.1 722.2 942.3ZM727.3 942.7L727.3 942.7Q727.3 945.4 728.3 946.8Q729.2 948.2 731.0 948.2L731.0 948.2Q733.3 948.2 734.3 946.3L734.3 946.3L734.3 938.7Q733.3 936.8 731.0 936.8L731.0 936.8Q727.3 936.8 727.3 942.7Z M770.1 942.4L770.1 942.7Q770.1 947.2 768.1 949.8Q766.2 952.4 762.7 952.4L762.7 952.4Q759.6 952.4 757.8 950.0L757.8 950.0L757.5 952L753.0 952L753.0 925L758.0 925L758.0 934.7Q759.8 932.6 762.7 932.6L762.7 932.6Q766.1 932.6 768.1 935.2Q770.1 937.7 770.1 942.4L770.1 942.4ZM765.0 942.3L765.0 942.3Q765.0 939.4 764.1 938.1Q763.2 936.8 761.4 936.8L761.4 936.8Q758.9 936.8 758.0 938.7L758.0 938.7L758.0 946.3Q759.0 948.3 761.4 948.3L761.4 948.3Q763.9 948.3 764.6 945.8L764.6 945.8Q765.0 944.7 765.0 942.3ZM776.6 933.0L780.1 944.8L783.6 933.0L789.1 933.0L781.4 955.0L781.0 956.0Q779.3 959.7 775.4 959.7L775.4 959.7Q774.3 959.7 773.1 959.3L773.1 959.3L773.1 955.5L773.9 955.5Q775.4 955.5 776.1 955.1Q776.8 954.6 777.2 953.6L777.2 953.6L777.8 952.1L771.1 933.0L776.6 933.0Z M816.5 952L814.7 946.7L805.5 946.7L803.7 952L798.1 952L807.7 926.4L812.5 926.4L822.1 952L816.5 952ZM810.1 932.9L806.9 942.5L813.3 942.5L810.1 932.9ZM839.0 943.5L844.2 943.5Q843.9 947.6 841.2 950.0Q838.4 952.4 833.9 952.4L833.9 952.4Q829.0 952.4 826.2 949.0Q823.4 945.7 823.4 939.9L823.4 939.9L823.4 938.4Q823.4 934.7 824.7 931.9Q826.0 929.1 828.4 927.6Q830.8 926.1 834 926.1L834 926.1Q838.4 926.1 841.1 928.4Q843.8 930.8 844.3 935.1L844.3 935.1L839.0 935.1Q838.8 932.6 837.6 931.5Q836.4 930.4 834 930.4L834 930.4Q831.4 930.4 830.1 932.3Q828.7 934.2 828.7 938.1L828.7 938.1L828.7 940.1Q828.7 944.2 830.0 946.1Q831.2 948.0 833.9 948.0L833.9 948.0Q836.4 948.0 837.6 946.9Q838.8 945.8 839.0 943.5L839.0 943.5ZM862.5 943.5L867.8 943.5Q867.5 947.6 864.7 950.0Q862.0 952.4 857.5 952.4L857.5 952.4Q852.6 952.4 849.7 949.0Q846.9 945.7 846.9 939.9L846.9 939.9L846.9 938.4Q846.9 934.7 848.2 931.9Q849.5 929.1 851.9 927.6Q854.4 926.1 857.6 926.1L857.6 926.1Q862.0 926.1 864.7 928.4Q867.4 930.8 867.8 935.1L867.8 935.1L862.5 935.1Q862.4 932.6 861.2 931.5Q860.0 930.4 857.6 930.4L857.6 930.4Q854.9 930.4 853.6 932.3Q852.3 934.2 852.3 938.1L852.3 938.1L852.3 940.1Q852.3 944.2 853.5 946.1Q854.8 948.0 857.5 948.0L857.5 948.0Q859.9 948.0 861.1 946.9Q862.3 945.8 862.5 943.5L862.5 943.5ZM881.9 926.4L872.5 954.2L868.7 954.2L878.2 926.4L881.9 926.4ZM900.9 952L899.1 946.7L889.9 946.7L888.1 952L882.5 952L892.1 926.4L896.9 926.4L906.5 952L900.9 952ZM894.5 932.9L891.3 942.5L897.7 942.5L894.5 932.9ZM929.7 926.4L929.7 952L924.5 952L924.5 941.0L914.2 941.0L914.2 952L908.9 952L908.9 926.4L914.2 926.4L914.2 936.8L924.5 936.8L924.5 926.4L929.7 926.4ZM950.9 952L949.1 946.7L939.9 946.7L938.1 952L932.5 952L942.0 926.4L946.9 926.4L956.5 952L950.9 952ZM944.5 932.9L941.3 942.5L947.7 942.5L944.5 932.9Z M452.2 989.6L452.2 989.3Q452.2 985.0 454.3 982.3Q456.4 979.6 459.9 979.6L459.9 979.6Q463.0 979.6 464.8 981.8L464.8 981.8L465.0 980.0L469.6 980.0L469.6 998.4Q469.6 1000.9 468.5 1002.7Q467.3 1004.6 465.3 1005.5Q463.2 1006.5 460.5 1006.5L460.5 1006.5Q458.4 1006.5 456.4 1005.7Q454.4 1004.8 453.4 1003.5L453.4 1003.5L455.6 1000.4Q457.5 1002.5 460.2 1002.5L460.2 1002.5Q462.3 1002.5 463.4 1001.5Q464.5 1000.4 464.5 998.4L464.5 998.4L464.5 997.4Q462.7 999.4 459.9 999.4L459.9 999.4Q456.4 999.4 454.3 996.7Q452.2 994.0 452.2 989.6L452.2 989.6ZM457.3 989.7L457.3 989.7Q457.3 992.3 458.3 993.8Q459.4 995.2 461.2 995.2L461.2 995.2Q463.5 995.2 464.5 993.5L464.5 993.5L464.5 985.5Q463.5 983.8 461.2 983.8L461.2 983.8Q459.4 983.8 458.3 985.3Q457.3 986.7 457.3 989.7ZM485.0 999L484.9 997.1Q483.0 999.4 479.7 999.4L479.7 999.4Q476.6 999.4 475.0 997.6Q473.4 995.8 473.4 992.4L473.4 992.4L473.4 980.0L478.5 980.0L478.5 992.3Q478.5 995.2 481.2 995.2L481.2 995.2Q483.7 995.2 484.7 993.4L484.7 993.4L484.7 980.0L489.8 980.0L489.8 999L485.0 999ZM499.0 980.0L499.0 999L493.9 999L493.9 980.0L499.0 980.0ZM493.6 975.1L493.6 975.1Q493.6 973.9 494.4 973.2Q495.1 972.4 496.5 972.4L496.5 972.4Q497.8 972.4 498.5 973.2Q499.3 973.9 499.3 975.1L499.3 975.1Q499.3 976.2 498.5 977.0Q497.7 977.7 496.5 977.7Q495.2 977.7 494.4 977.0Q493.6 976.2 493.6 975.1ZM502.4 989.3L502.4 989.3Q502.4 984.9 504.4 982.3Q506.4 979.6 509.9 979.6L509.9 979.6Q512.6 979.6 514.4 981.7L514.4 981.7L514.4 972L519.5 972L519.5 999L514.9 999L514.7 997.0Q512.8 999.4 509.8 999.4L509.8 999.4Q506.5 999.4 504.4 996.7Q502.4 994.1 502.4 989.3ZM507.5 989.7L507.5 989.7Q507.5 992.4 508.4 993.8Q509.3 995.2 511.1 995.2L511.1 995.2Q513.5 995.2 514.4 993.3L514.4 993.3L514.4 985.7Q513.5 983.8 511.2 983.8L511.2 983.8Q507.5 983.8 507.5 989.7ZM532.2 999.4L532.2 999.4Q528.0 999.4 525.4 996.8Q522.8 994.2 522.8 989.9L522.8 989.9L522.8 989.5Q522.8 986.6 523.9 984.3Q525.0 982.1 527.0 980.9Q529.1 979.6 531.7 979.6L531.7 979.6Q535.6 979.6 537.8 982.1Q540.1 984.6 540.1 989.1L540.1 989.1L540.1 991.1L527.9 991.1Q528.2 993.0 529.4 994.1Q530.7 995.3 532.6 995.3L532.6 995.3Q535.5 995.3 537.2 993.1L537.2 993.1L539.6 995.9Q538.5 997.5 536.6 998.4Q534.6 999.4 532.2 999.4ZM531.6 983.7L531.6 983.7Q530.1 983.7 529.2 984.8Q528.3 985.8 528.0 987.7L528.0 987.7L535.1 987.7L535.1 987.3Q535.0 985.6 534.1 984.7Q533.3 983.7 531.6 983.7ZM548.3 972L548.3 999L543.2 999L543.2 972L548.3 972ZM557.8 980.0L557.8 999L552.7 999L552.7 980.0L557.8 980.0ZM552.4 975.1L552.4 975.1Q552.4 973.9 553.2 973.2Q554.0 972.4 555.3 972.4L555.3 972.4Q556.6 972.4 557.4 973.2Q558.1 973.9 558.1 975.1L558.1 975.1Q558.1 976.2 557.4 977.0Q556.6 977.7 555.3 977.7Q554.0 977.7 553.2 977.0Q552.4 976.2 552.4 975.1ZM561.9 980.0L566.7 980.0L566.9 982.2Q568.9 979.6 572.3 979.6L572.3 979.6Q575.3 979.6 576.8 981.4Q578.3 983.2 578.3 986.7L578.3 986.7L578.3 999L573.3 999L573.3 986.8Q573.3 985.2 572.6 984.5Q571.8 983.8 570.2 983.8L570.2 983.8Q568.1 983.8 567.0 985.6L567.0 985.6L567.0 999L561.9 999L561.9 980.0ZM590.9 999.4L590.9 999.4Q586.8 999.4 584.1 996.8Q581.5 994.2 581.5 989.9L581.5 989.9L581.5 989.5Q581.5 986.6 582.6 984.3Q583.7 982.1 585.7 980.9Q587.8 979.6 590.4 979.6L590.4 979.6Q594.3 979.6 596.5 982.1Q598.8 984.6 598.8 989.1L598.8 989.1L598.8 991.1L586.7 991.1Q586.9 993.0 588.1 994.1Q589.4 995.3 591.3 995.3L591.3 995.3Q594.2 995.3 595.9 993.1L595.9 993.1L598.4 995.9Q597.2 997.5 595.3 998.4Q593.3 999.4 590.9 999.4ZM590.4 983.7L590.4 983.7Q588.8 983.7 587.9 984.8Q587.0 985.8 586.7 987.7L586.7 987.7L593.8 987.7L593.8 987.3Q593.7 985.6 592.9 984.7Q592.0 983.7 590.4 983.7ZM611.9 993.7L611.9 993.7Q611.9 992.8 611.0 992.3Q610.1 991.7 608.1 991.3L608.1 991.3Q601.3 989.9 601.3 985.6L601.3 985.6Q601.3 983.0 603.4 981.3Q605.5 979.6 608.9 979.6L608.9 979.6Q612.5 979.6 614.7 981.3Q616.8 983.0 616.8 985.8L616.8 985.8L611.8 985.8Q611.8 984.7 611.0 984.0Q610.3 983.3 608.9 983.3L608.9 983.3Q607.6 983.3 606.9 983.8Q606.2 984.4 606.2 985.3L606.2 985.3Q606.2 986.2 607.0 986.7Q607.8 987.2 609.7 987.6Q611.6 987.9 612.9 988.4L612.9 988.4Q616.9 989.9 616.9 993.5L616.9 993.5Q616.9 996.1 614.7 997.7Q612.4 999.4 608.9 999.4L608.9 999.4Q606.5 999.4 604.6 998.5Q602.8 997.6 601.7 996.2Q600.7 994.7 600.7 993.0L600.7 993.0L605.5 993.0Q605.6 994.3 606.5 995.0Q607.4 995.7 609.0 995.7L609.0 995.7Q610.5 995.7 611.2 995.2Q611.9 994.6 611.9 993.7ZM620.4 996.5L620.4 996.5Q620.4 995.3 621.2 994.5Q622.1 993.8 623.3 993.8L623.3 993.8Q624.5 993.8 625.3 994.5Q626.2 995.3 626.2 996.5L626.2 996.5Q626.2 997.7 625.4 998.4Q624.5 999.2 623.3 999.2L623.3 999.2Q622.0 999.2 621.2 998.4Q620.4 997.7 620.4 996.5Z "/></g><defs><clipPath id="satori_bc-id-1" clip-path="url(#satori_cp-id)"><rect x="0" y="1210" width="1080" height="140"/></clipPath></defs><mask id="satori_om-id-1"><rect x="0" y="1213" width="1080" height="137" fill="#fff" mask="url(#satori_om-id)"/><path width="1080" height="140" fill="none" stroke="#000" stroke-width="6" d="M0,1210 A0,0 0 0 1 0,1210 h1080 A0,0 0 0 1 1080,1210"/></mask><rect x="0" y="1210" width="1080" height="140" fill="#FFFFFF" clip-path="url(#satori_cp-id)" mask="url(#satori_om-id)"/><path width="1080" height="140" clip-path="url(#satori_bc-id-1)" fill="none" stroke="#16697A" stroke-width="6" d="M0,1210 A0,0 0 0 1 0,1210 h1080 A0,0 0 0 1 1080,1210"/><mask id="satori_om-id-1-0"><rect x="389" y="1242" width="80" height="80" fill="#fff" mask="url(#satori_om-id)"/></mask><path x="389" y="1242" width="80" height="80" fill="#16697A" d="M429,1242 h0 a40,40 0 0 1 40,40 v0 a40,40 0 0 1 -40,40 h0 a40,40 0 0 1 -40,-40 v0 a40,40 0 0 1 40,-40" clip-path="url(#satori_cp-id)" mask="url(#satori_om-id)"/><mask id="satori_om-id-1-0-0"><rect x="417" y="1261" width="24" height="42" fill="#fff" mask="url(#satori_om-id)"/></mask><g mask="url(#satori_om-id)" clip-path="url(#satori_cp-id)"><path fill="#FFFFFF" d="M427.2 1294L419.3 1294L419.3 1268.4L427.2 1268.4Q430.5 1268.4 433.2 1269.9Q435.9 1271.4 437.4 1274.3Q438.8 1277.1 438.8 1280.6L438.8 1280.6L438.8 1281.8Q438.8 1285.4 437.4 1288.1Q435.9 1290.9 433.2 1292.5Q430.6 1294.0 427.2 1294L427.2 1294ZM427.2 1272.7L424.6 1272.7L424.6 1289.8L427.1 1289.8Q430.2 1289.8 431.8 1287.7Q433.5 1285.7 433.5 1282.0L433.5 1282.0L433.5 1280.6Q433.5 1276.7 431.9 1274.7Q430.3 1272.7 427.2 1272.7L427.2 1272.7Z "/></g><mask id="satori_om-id-1-1"><rect x="493" y="1254" width="198" height="55" fill="#fff" mask="url(#satori_om-id)"/></mask><mask id="satori_om-id-1-1-0"><rect x="493" y="1254" width="198" height="28" fill="#fff" mask="url(#satori_om-id)"/></mask><g mask="url(#satori_om-id)" clip-path="url(#satori_cp-id)"><path fill="#2F3E46" d="M499.8 1276L494.5 1276L494.5 1258.9L499.8 1258.9Q502.0 1258.9 503.8 1260.0Q505.6 1261.0 506.6 1262.8Q507.6 1264.7 507.6 1267.1L507.6 1267.1L507.6 1267.9Q507.6 1270.2 506.6 1272.1Q505.6 1273.9 503.8 1275.0Q502.0 1276.0 499.8 1276L499.8 1276ZM499.8 1261.8L498.0 1261.8L498.0 1273.2L499.7 1273.2Q501.8 1273.2 502.9 1271.8Q504.0 1270.5 504.0 1268.0L504.0 1268.0L504.0 1267.1Q504.0 1264.5 502.9 1263.1Q501.8 1261.8 499.8 1261.8L499.8 1261.8ZM517.1 1263.2L517.0 1266.5Q516.3 1266.4 515.8 1266.4L515.8 1266.4Q513.9 1266.4 513.3 1267.7L513.3 1267.7L513.3 1276L509.9 1276L509.9 1263.3L513.1 1263.3L513.2 1264.8Q514.2 1263.1 516.0 1263.1L516.0 1263.1Q516.6 1263.1 517.1 1263.2L517.1 1263.2ZM516.8 1274.3L516.8 1274.3Q516.8 1273.5 517.3 1273.0Q517.9 1272.5 518.7 1272.5L518.7 1272.5Q519.5 1272.5 520.1 1273.0Q520.6 1273.5 520.6 1274.3L520.6 1274.3Q520.6 1275.1 520.1 1275.6Q519.6 1276.1 518.7 1276.1L518.7 1276.1Q517.9 1276.1 517.3 1275.6Q516.8 1275.1 516.8 1274.3Z M540.7 1271.5L540.7 1271.5Q540.7 1270.5 540.0 1270.0Q539.3 1269.5 537.4 1268.9Q535.6 1268.3 534.5 1267.7L534.5 1267.7Q531.6 1266.1 531.6 1263.5L531.6 1263.5Q531.6 1262.1 532.4 1261.0Q533.2 1259.9 534.7 1259.3Q536.1 1258.7 537.9 1258.7L537.9 1258.7Q539.8 1258.7 541.2 1259.4Q542.6 1260.0 543.4 1261.2Q544.2 1262.4 544.2 1264.0L544.2 1264.0L540.7 1264.0Q540.7 1262.8 539.9 1262.2Q539.2 1261.5 537.9 1261.5L537.9 1261.5Q536.6 1261.5 535.9 1262.0Q535.2 1262.6 535.2 1263.5L535.2 1263.5Q535.2 1264.3 536.0 1264.9Q536.8 1265.4 538.5 1265.9L538.5 1265.9Q541.5 1266.8 542.8 1268.2Q544.2 1269.5 544.2 1271.5L544.2 1271.5Q544.2 1273.7 542.5 1275.0Q540.8 1276.2 538.0 1276.2L538.0 1276.2Q536.0 1276.2 534.4 1275.5Q532.8 1274.8 532.0 1273.5Q531.1 1272.3 531.1 1270.6L531.1 1270.6L534.6 1270.6Q534.6 1273.5 538.0 1273.5L538.0 1273.5Q539.3 1273.5 540.0 1272.9Q540.7 1272.4 540.7 1271.5ZM549.7 1258L549.7 1264.7Q551.0 1263.1 553.0 1263.1L553.0 1263.1Q557.2 1263.1 557.2 1267.9L557.2 1267.9L557.2 1276L553.8 1276L553.8 1268.0Q553.8 1266.9 553.4 1266.4Q552.9 1265.8 551.8 1265.8L551.8 1265.8Q550.3 1265.8 549.7 1267.0L549.7 1267.0L549.7 1276L546.3 1276L546.3 1258L549.7 1258ZM570.6 1276L567.1 1276Q566.9 1275.5 566.8 1274.9L566.8 1274.9Q565.6 1276.2 563.6 1276.2L563.6 1276.2Q561.7 1276.2 560.5 1275.2Q559.3 1274.1 559.3 1272.4L559.3 1272.4Q559.3 1270.4 560.8 1269.3Q562.3 1268.3 565.1 1268.3L565.1 1268.3L566.7 1268.3L566.7 1267.5Q566.7 1266.6 566.2 1266.1Q565.8 1265.6 564.8 1265.6L564.8 1265.6Q563.9 1265.6 563.4 1266.0Q562.9 1266.4 562.9 1267.1L562.9 1267.1L559.6 1267.1Q559.6 1266.0 560.2 1265.1Q560.9 1264.2 562.2 1263.6Q563.4 1263.1 565.0 1263.1L565.0 1263.1Q567.3 1263.1 568.7 1264.3Q570.1 1265.4 570.1 1267.6L570.1 1267.6L570.1 1273.1Q570.1 1274.9 570.6 1275.8L570.6 1275.8L570.6 1276ZM564.3 1273.6L564.3 1273.6Q565.1 1273.6 565.7 1273.3Q566.3 1273.0 566.7 1272.4L566.7 1272.4L566.7 1270.2L565.4 1270.2Q562.8 1270.2 562.7 1272.0L562.7 1272.0L562.7 1272.2Q562.7 1272.8 563.1 1273.2Q563.6 1273.6 564.3 1273.6ZM576.2 1263.3L576.2 1276L572.8 1276L572.8 1263.3L576.2 1263.3ZM572.6 1260.0L572.6 1260.0Q572.6 1259.3 573.1 1258.8Q573.6 1258.3 574.5 1258.3L574.5 1258.3Q575.4 1258.3 575.9 1258.8Q576.4 1259.3 576.4 1260.0L576.4 1260.0Q576.4 1260.8 575.9 1261.3Q575.4 1261.8 574.5 1261.8Q573.7 1261.8 573.2 1261.3Q572.6 1260.8 572.6 1260.0ZM582.6 1258L582.6 1276L579.2 1276L579.2 1258L582.6 1258ZM591.2 1276.2L591.2 1276.2Q588.4 1276.2 586.7 1274.5Q584.9 1272.8 584.9 1270.0L584.9 1270.0L584.9 1269.6Q584.9 1267.7 585.7 1266.2Q586.4 1264.7 587.8 1263.9Q589.1 1263.1 590.8 1263.1L590.8 1263.1Q593.4 1263.1 594.9 1264.7Q596.4 1266.4 596.4 1269.4L596.4 1269.4L596.4 1270.8L588.4 1270.8Q588.5 1272.0 589.3 1272.8Q590.2 1273.5 591.4 1273.5L591.4 1273.5Q593.4 1273.5 594.5 1272.1L594.5 1272.1L596.2 1273.9Q595.4 1275.0 594.1 1275.6Q592.8 1276.2 591.2 1276.2ZM590.8 1265.8L590.8 1265.8Q589.8 1265.8 589.2 1266.5Q588.6 1267.2 588.4 1268.5L588.4 1268.5L593.1 1268.5L593.1 1268.2Q593.1 1267.1 592.5 1266.4Q591.9 1265.8 590.8 1265.8ZM605.2 1272.5L605.2 1272.5Q605.2 1271.9 604.6 1271.5Q604.0 1271.2 602.6 1270.9L602.6 1270.9Q598.1 1269.9 598.1 1267.0L598.1 1267.0Q598.1 1265.3 599.5 1264.2Q600.9 1263.1 603.2 1263.1L603.2 1263.1Q605.6 1263.1 607.0 1264.2Q608.5 1265.4 608.5 1267.2L608.5 1267.2L605.1 1267.2Q605.1 1266.4 604.6 1266.0Q604.2 1265.5 603.2 1265.5L603.2 1265.5Q602.3 1265.5 601.8 1265.9Q601.4 1266.3 601.4 1266.9L601.4 1266.9Q601.4 1267.4 601.9 1267.8Q602.4 1268.1 603.7 1268.4Q605.0 1268.6 605.8 1268.9L605.8 1268.9Q608.5 1269.9 608.5 1272.4L608.5 1272.4Q608.5 1274.1 607.0 1275.2Q605.5 1276.2 603.2 1276.2L603.2 1276.2Q601.6 1276.2 600.3 1275.7Q599.1 1275.1 598.4 1274.1Q597.7 1273.1 597.7 1272.0L597.7 1272.0L600.9 1272.0Q601.0 1272.9 601.6 1273.4Q602.2 1273.8 603.3 1273.8L603.3 1273.8Q604.2 1273.8 604.7 1273.5Q605.2 1273.1 605.2 1272.5ZM614.0 1258L614.0 1264.7Q615.3 1263.1 617.4 1263.1L617.4 1263.1Q621.5 1263.1 621.6 1267.9L621.6 1267.9L621.6 1276L618.2 1276L618.2 1268.0Q618.2 1266.9 617.7 1266.4Q617.2 1265.8 616.2 1265.8L616.2 1265.8Q614.7 1265.8 614.0 1267.0L614.0 1267.0L614.0 1276L610.6 1276L610.6 1258L614.0 1258Z M639.2 1271.5L639.2 1271.5Q639.2 1270.5 638.5 1270.0Q637.8 1269.5 635.9 1268.9Q634.1 1268.3 633.0 1267.7L633.0 1267.7Q630.1 1266.1 630.1 1263.5L630.1 1263.5Q630.1 1262.1 630.9 1261.0Q631.7 1259.9 633.2 1259.3Q634.6 1258.7 636.4 1258.7L636.4 1258.7Q638.3 1258.7 639.7 1259.4Q641.1 1260.0 641.9 1261.2Q642.7 1262.4 642.7 1264.0L642.7 1264.0L639.2 1264.0Q639.2 1262.8 638.4 1262.2Q637.7 1261.5 636.4 1261.5L636.4 1261.5Q635.1 1261.5 634.4 1262.0Q633.6 1262.6 633.6 1263.5L633.6 1263.5Q633.6 1264.3 634.5 1264.9Q635.3 1265.4 637.0 1265.9L637.0 1265.9Q640.0 1266.8 641.3 1268.2Q642.7 1269.5 642.7 1271.5L642.7 1271.5Q642.7 1273.7 641.0 1275.0Q639.3 1276.2 636.5 1276.2L636.5 1276.2Q634.5 1276.2 632.9 1275.5Q631.3 1274.8 630.5 1273.5Q629.6 1272.3 629.6 1270.6L629.6 1270.6L633.1 1270.6Q633.1 1273.5 636.5 1273.5L636.5 1273.5Q637.8 1273.5 638.5 1272.9Q639.2 1272.4 639.2 1271.5ZM648.4 1263.3L648.4 1276L645.0 1276L645.0 1263.3L648.4 1263.3ZM644.8 1260.0L644.8 1260.0Q644.8 1259.3 645.3 1258.8Q645.8 1258.3 646.7 1258.3L646.7 1258.3Q647.6 1258.3 648.1 1258.8Q648.6 1259.3 648.6 1260.0L648.6 1260.0Q648.6 1260.8 648.1 1261.3Q647.6 1261.8 646.7 1261.8Q645.9 1261.8 645.3 1261.3Q644.8 1260.8 644.8 1260.0ZM651.1 1263.3L654.3 1263.3L654.4 1264.8Q655.8 1263.1 658.1 1263.1L658.1 1263.1Q660.1 1263.1 661.1 1264.3Q662.1 1265.5 662.1 1267.8L662.1 1267.8L662.1 1276L658.7 1276L658.7 1267.9Q658.7 1266.8 658.2 1266.3Q657.8 1265.8 656.7 1265.8L656.7 1265.8Q655.2 1265.8 654.5 1267.1L654.5 1267.1L654.5 1276L651.1 1276L651.1 1263.3ZM664.2 1269.7L664.2 1269.6Q664.2 1266.6 665.6 1264.9Q666.9 1263.1 669.3 1263.1L669.3 1263.1Q671.4 1263.1 672.5 1264.5L672.5 1264.5L672.7 1263.3L675.8 1263.3L675.8 1275.6Q675.8 1277.2 675.0 1278.5Q674.2 1279.7 672.9 1280.3Q671.5 1281.0 669.7 1281.0L669.7 1281.0Q668.3 1281.0 666.9 1280.4Q665.6 1279.9 664.9 1279L664.9 1279L666.4 1276.9Q667.7 1278.4 669.5 1278.4L669.5 1278.4Q670.9 1278.4 671.6 1277.6Q672.4 1276.9 672.4 1275.6L672.4 1275.6L672.4 1274.9Q671.2 1276.2 669.3 1276.2L669.3 1276.2Q667.0 1276.2 665.6 1274.4Q664.2 1272.7 664.2 1269.7L664.2 1269.7ZM667.6 1269.8L667.6 1269.8Q667.6 1271.5 668.2 1272.5Q668.9 1273.5 670.1 1273.5L670.1 1273.5Q671.7 1273.5 672.4 1272.3L672.4 1272.3L672.4 1267Q671.7 1265.8 670.2 1265.8L670.2 1265.8Q668.9 1265.8 668.2 1266.8Q667.6 1267.8 667.6 1269.8ZM681.7 1258L681.7 1264.7Q683.0 1263.1 685.0 1263.1L685.0 1263.1Q689.2 1263.1 689.2 1267.9L689.2 1267.9L689.2 1276L685.8 1276L685.8 1268.0Q685.8 1266.9 685.4 1266.4Q684.9 1265.8 683.8 1265.8L683.8 1265.8Q682.3 1265.8 681.7 1267.0L681.7 1267.0L681.7 1276L678.3 1276L678.3 1258L681.7 1258Z "/></g><mask id="satori_om-id-1-1-1"><rect x="493" y="1286" width="198" height="23" fill="#fff" mask="url(#satori_om-id)"/></mask><g mask="url(#satori_om-id)" clip-path="url(#satori_cp-id)"><path fill="#16697A" d="M510.0 1300.1L510.0 1300.1Q509.9 1302.5 508.8 1303.8Q507.7 1305.2 506.0 1305.2L506.0 1305.2Q504.2 1305.2 503.6 1303.6L503.6 1303.6Q503.1 1304.4 502.4 1304.8Q501.8 1305.2 501.0 1305.2L501.0 1305.2Q499.6 1305.2 498.9 1304.1Q498.2 1302.9 498.4 1300.9L498.4 1300.9Q498.5 1299.3 499.1 1298.1Q499.7 1296.8 500.7 1296.1Q501.6 1295.3 502.6 1295.3L502.6 1295.3Q503.4 1295.3 504.0 1295.6Q504.7 1295.8 505.4 1296.4L505.4 1296.4L504.9 1301.8Q504.7 1304.0 506.2 1304.0L506.2 1304.0Q507.3 1304.0 508.0 1302.9Q508.7 1301.9 508.7 1300.1L508.7 1300.1Q508.9 1296.3 507.3 1294.3Q505.7 1292.3 502.4 1292.3L502.4 1292.3Q500.5 1292.3 499.0 1293.3Q497.4 1294.3 496.6 1296.1Q495.7 1297.9 495.6 1300.3L495.6 1300.3Q495.5 1302.8 496.2 1304.5Q496.9 1306.3 498.3 1307.3Q499.7 1308.2 501.8 1308.2L501.8 1308.2Q502.7 1308.2 503.5 1308.0Q504.4 1307.8 505.0 1307.4L505.0 1307.4L505.4 1308.6Q504.8 1308.9 503.8 1309.2Q502.8 1309.4 501.7 1309.4L501.7 1309.4Q499.3 1309.4 497.5 1308.3Q495.8 1307.2 494.9 1305.2Q494.0 1303.1 494.2 1300.3L494.2 1300.3Q494.3 1297.6 495.4 1295.5Q496.4 1293.4 498.3 1292.2Q500.1 1291.0 502.5 1291.0L502.5 1291.0Q504.9 1291.0 506.7 1292.1Q508.4 1293.2 509.2 1295.3Q510.1 1297.3 510.0 1300.1ZM500.0 1300.9L500.0 1300.9Q499.8 1302.3 500.2 1303.1Q500.6 1303.8 501.5 1303.8L501.5 1303.8Q502.1 1303.8 502.6 1303.3Q503.1 1302.8 503.5 1301.9L503.5 1301.9L503.5 1301.8L503.9 1296.9Q503.4 1296.6 502.8 1296.6L502.8 1296.6Q501.6 1296.6 500.9 1297.8Q500.1 1298.9 500.0 1300.9ZM514.1 1290L514.1 1295.7Q515.3 1294.2 517.3 1294.2L517.3 1294.2Q520.6 1294.2 520.6 1298.0L520.6 1298.0L520.6 1305L518.8 1305L518.8 1298.0Q518.8 1296.9 518.3 1296.3Q517.8 1295.8 516.7 1295.8L516.7 1295.8Q515.8 1295.8 515.2 1296.2Q514.5 1296.7 514.1 1297.5L514.1 1297.5L514.1 1305L512.3 1305L512.3 1290L514.1 1290ZM527.7 1305.2L527.7 1305.2Q525.6 1305.2 524.2 1303.8Q522.9 1302.4 522.9 1300.0L522.9 1300.0L522.9 1299.7Q522.9 1298.1 523.5 1296.9Q524.1 1295.6 525.2 1294.9Q526.2 1294.2 527.5 1294.2L527.5 1294.2Q529.6 1294.2 530.7 1295.6Q531.8 1297.0 531.8 1299.5L531.8 1299.5L531.8 1300.2L524.7 1300.2Q524.7 1301.8 525.6 1302.8Q526.5 1303.7 527.8 1303.7L527.8 1303.7Q528.8 1303.7 529.4 1303.3Q530.1 1302.9 530.6 1302.3L530.6 1302.3L531.7 1303.2Q530.4 1305.2 527.7 1305.2ZM527.5 1295.7L527.5 1295.7Q526.4 1295.7 525.7 1296.5Q524.9 1297.3 524.7 1298.8L524.7 1298.8L530.0 1298.8L530.0 1298.6Q530.0 1297.2 529.3 1296.5Q528.6 1295.7 527.5 1295.7ZM542.4 1305L540.5 1305Q540.3 1304.7 540.2 1303.9L540.2 1303.9Q538.9 1305.2 537.2 1305.2L537.2 1305.2Q535.6 1305.2 534.6 1304.3Q533.6 1303.4 533.6 1302.1L533.6 1302.1Q533.6 1300.4 534.9 1299.5Q536.1 1298.6 538.4 1298.6L538.4 1298.6L540.2 1298.6L540.2 1297.8Q540.2 1296.8 539.6 1296.3Q539.0 1295.7 537.9 1295.7L537.9 1295.7Q537.0 1295.7 536.3 1296.2Q535.7 1296.7 535.7 1297.4L535.7 1297.4L533.8 1297.4Q533.8 1296.6 534.4 1295.8Q535.0 1295.1 535.9 1294.7Q536.9 1294.2 538.0 1294.2L538.0 1294.2Q539.9 1294.2 540.9 1295.2Q541.9 1296.1 542.0 1297.7L542.0 1297.7L542.0 1302.5Q542.0 1304.0 542.4 1304.8L542.4 1304.8L542.4 1305ZM537.5 1303.6L537.5 1303.6Q538.3 1303.6 539.1 1303.2Q539.8 1302.7 540.2 1302.0L540.2 1302.0L540.2 1299.9L538.8 1299.9Q535.4 1299.9 535.4 1301.8L535.4 1301.8Q535.4 1302.7 536.0 1303.1Q536.6 1303.6 537.5 1303.6ZM549.9 1294.4L549.9 1296.1Q549.5 1296.0 549.0 1296.0L549.0 1296.0Q547.3 1296.0 546.6 1297.5L546.6 1297.5L546.6 1305L544.8 1305L544.8 1294.4L546.6 1294.4L546.6 1295.7Q547.5 1294.2 549.1 1294.2L549.1 1294.2Q549.7 1294.2 549.9 1294.4L549.9 1294.4ZM552.7 1291.9L554.5 1291.9L554.5 1294.4L556.5 1294.4L556.5 1295.8L554.5 1295.8L554.5 1302.4Q554.5 1303.0 554.8 1303.3Q555.1 1303.7 555.7 1303.7L555.7 1303.7Q556.0 1303.7 556.5 1303.5L556.5 1303.5L556.5 1305Q555.8 1305.2 555.2 1305.2L555.2 1305.2Q553.9 1305.2 553.3 1304.5Q552.7 1303.7 552.7 1302.4L552.7 1302.4L552.7 1295.8L550.8 1295.8L550.8 1294.4L552.7 1294.4L552.7 1291.9ZM558.2 1299.8L558.2 1299.6Q558.2 1297.2 559.3 1295.7Q560.5 1294.2 562.3 1294.2L562.3 1294.2Q564.2 1294.2 565.3 1295.5L565.3 1295.5L565.3 1290L567.1 1290L567.1 1305L565.4 1305L565.3 1303.9Q564.3 1305.2 562.3 1305.2L562.3 1305.2Q560.5 1305.2 559.3 1303.7Q558.2 1302.2 558.2 1299.8L558.2 1299.8ZM560.0 1299.8L560.0 1299.8Q560.0 1301.6 560.7 1302.6Q561.5 1303.7 562.8 1303.7L562.8 1303.7Q564.5 1303.7 565.3 1302.1L565.3 1302.1L565.3 1297.3Q564.5 1295.8 562.8 1295.8L562.8 1295.8Q561.5 1295.8 560.7 1296.8Q560.0 1297.8 560.0 1299.8ZM569.4 1299.7L569.4 1299.6Q569.4 1298.1 570.0 1296.8Q570.6 1295.6 571.7 1294.9Q572.8 1294.2 574.2 1294.2L574.2 1294.2Q576.4 1294.2 577.7 1295.7Q579.0 1297.2 579.0 1299.7L579.0 1299.7L579.0 1299.8Q579.0 1301.4 578.4 1302.6Q577.8 1303.8 576.7 1304.5Q575.6 1305.2 574.2 1305.2L574.2 1305.2Q572.1 1305.2 570.7 1303.7Q569.4 1302.2 569.4 1299.7L569.4 1299.7ZM571.2 1299.8L571.2 1299.8Q571.2 1301.6 572.0 1302.7Q572.9 1303.7 574.2 1303.7L574.2 1303.7Q575.6 1303.7 576.4 1302.6Q577.2 1301.6 577.2 1299.6L577.2 1299.6Q577.2 1297.9 576.4 1296.8Q575.6 1295.7 574.2 1295.7L574.2 1295.7Q572.9 1295.7 572.0 1296.8Q571.2 1297.9 571.2 1299.8ZM585.5 1303.7L585.5 1303.7Q586.5 1303.7 587.2 1303.1Q587.9 1302.5 588.0 1301.7L588.0 1301.7L589.7 1301.7Q589.7 1302.6 589.1 1303.4Q588.5 1304.2 587.6 1304.7Q586.6 1305.2 585.5 1305.2L585.5 1305.2Q583.4 1305.2 582.1 1303.8Q580.8 1302.3 580.8 1299.8L580.8 1299.8L580.8 1299.5Q580.8 1298.0 581.4 1296.8Q582.0 1295.6 583.0 1294.9Q584.1 1294.2 585.5 1294.2L585.5 1294.2Q587.3 1294.2 588.5 1295.3Q589.7 1296.4 589.7 1298.1L589.7 1298.1L588.0 1298.1Q587.9 1297.0 587.2 1296.4Q586.5 1295.7 585.5 1295.7L585.5 1295.7Q584.1 1295.7 583.4 1296.7Q582.6 1297.7 582.6 1299.6L582.6 1299.6L582.6 1299.9Q582.6 1301.7 583.4 1302.7Q584.1 1303.7 585.5 1303.7ZM597.9 1302.2L597.9 1302.2Q597.9 1301.5 597.4 1301.1Q596.8 1300.7 595.4 1300.4Q594.1 1300.1 593.3 1299.7Q592.5 1299.2 592.1 1298.7Q591.7 1298.1 591.7 1297.3L591.7 1297.3Q591.7 1296.0 592.8 1295.1Q593.9 1294.2 595.6 1294.2L595.6 1294.2Q597.4 1294.2 598.5 1295.2Q599.6 1296.1 599.6 1297.5L599.6 1297.5L597.8 1297.5Q597.8 1296.8 597.2 1296.3Q596.5 1295.7 595.6 1295.7L595.6 1295.7Q594.6 1295.7 594.0 1296.2Q593.5 1296.6 593.5 1297.3L593.5 1297.3Q593.5 1297.9 594.0 1298.3Q594.5 1298.6 595.9 1298.9Q597.2 1299.2 598.1 1299.6Q598.9 1300.0 599.3 1300.6Q599.7 1301.2 599.7 1302.1L599.7 1302.1Q599.7 1303.5 598.6 1304.3Q597.5 1305.2 595.6 1305.2L595.6 1305.2Q594.4 1305.2 593.4 1304.7Q592.4 1304.3 591.9 1303.5Q591.3 1302.7 591.3 1301.7L591.3 1301.7L593.1 1301.7Q593.2 1302.7 593.9 1303.2Q594.5 1303.7 595.6 1303.7L595.6 1303.7Q596.7 1303.7 597.3 1303.3Q597.9 1302.9 597.9 1302.2ZM603.9 1290L603.9 1295.7Q605.1 1294.2 607.0 1294.2L607.0 1294.2Q610.4 1294.2 610.4 1298.0L610.4 1298.0L610.4 1305L608.6 1305L608.6 1298.0Q608.6 1296.9 608.1 1296.3Q607.5 1295.8 606.5 1295.8L606.5 1295.8Q605.6 1295.8 604.9 1296.2Q604.3 1296.7 603.9 1297.5L603.9 1297.5L603.9 1305L602.1 1305L602.1 1290L603.9 1290ZM621.5 1305L619.6 1305Q619.5 1304.7 619.4 1303.9L619.4 1303.9Q618.1 1305.2 616.3 1305.2L616.3 1305.2Q614.8 1305.2 613.8 1304.3Q612.8 1303.4 612.8 1302.1L612.8 1302.1Q612.8 1300.4 614.0 1299.5Q615.3 1298.6 617.6 1298.6L617.6 1298.6L619.3 1298.6L619.3 1297.8Q619.3 1296.8 618.8 1296.3Q618.2 1295.7 617.1 1295.7L617.1 1295.7Q616.1 1295.7 615.5 1296.2Q614.8 1296.7 614.8 1297.4L614.8 1297.4L613 1297.4Q613 1296.6 613.6 1295.8Q614.1 1295.1 615.1 1294.7Q616.0 1294.2 617.2 1294.2L617.2 1294.2Q619.0 1294.2 620.1 1295.2Q621.1 1296.1 621.1 1297.7L621.1 1297.7L621.1 1302.5Q621.1 1304.0 621.5 1304.8L621.5 1304.8L621.5 1305ZM616.6 1303.6L616.6 1303.6Q617.5 1303.6 618.2 1303.2Q619.0 1302.7 619.3 1302.0L619.3 1302.0L619.3 1299.9L617.9 1299.9Q614.6 1299.9 614.6 1301.8L614.6 1301.8Q614.6 1302.7 615.2 1303.1Q615.7 1303.6 616.6 1303.6ZM625.9 1294.4L625.9 1305L624.1 1305L624.1 1294.4L625.9 1294.4ZM624.0 1291.6L624.0 1291.6Q624.0 1291.2 624.2 1290.9Q624.5 1290.6 625.0 1290.6Q625.6 1290.6 625.8 1290.9Q626.1 1291.2 626.1 1291.6Q626.1 1292.1 625.8 1292.4Q625.6 1292.7 625.0 1292.7Q624.5 1292.7 624.2 1292.4Q624.0 1292.1 624.0 1291.6ZM630.8 1290L630.8 1305L629.0 1305L629.0 1290L630.8 1290ZM638.1 1305.2L638.1 1305.2Q635.9 1305.2 634.6 1303.8Q633.2 1302.4 633.2 1300.0L633.2 1300.0L633.2 1299.7Q633.2 1298.1 633.8 1296.9Q634.4 1295.6 635.5 1294.9Q636.6 1294.2 637.8 1294.2L637.8 1294.2Q639.9 1294.2 641.0 1295.6Q642.2 1297.0 642.2 1299.5L642.2 1299.5L642.2 1300.2L635.0 1300.2Q635.1 1301.8 635.9 1302.8Q636.8 1303.7 638.2 1303.7L638.2 1303.7Q639.1 1303.7 639.8 1303.3Q640.4 1302.9 640.9 1302.3L640.9 1302.3L642.0 1303.2Q640.7 1305.2 638.1 1305.2ZM637.8 1295.7L637.8 1295.7Q636.7 1295.7 636.0 1296.5Q635.3 1297.3 635.1 1298.8L635.1 1298.8L640.4 1298.8L640.4 1298.6Q640.3 1297.2 639.6 1296.5Q639.0 1295.7 637.8 1295.7ZM650.4 1302.2L650.4 1302.2Q650.4 1301.5 649.9 1301.1Q649.3 1300.7 647.9 1300.4Q646.6 1300.1 645.8 1299.7Q645.0 1299.2 644.6 1298.7Q644.2 1298.1 644.2 1297.3L644.2 1297.3Q644.2 1296.0 645.3 1295.1Q646.4 1294.2 648.1 1294.2L648.1 1294.2Q649.9 1294.2 651.0 1295.2Q652.1 1296.1 652.1 1297.5L652.1 1297.5L650.3 1297.5Q650.3 1296.8 649.7 1296.3Q649.1 1295.7 648.1 1295.7L648.1 1295.7Q647.1 1295.7 646.6 1296.2Q646.0 1296.6 646.0 1297.3L646.0 1297.3Q646.0 1297.9 646.5 1298.3Q647.0 1298.6 648.4 1298.9Q649.7 1299.2 650.6 1299.6Q651.4 1300.0 651.8 1300.6Q652.2 1301.2 652.2 1302.1L652.2 1302.1Q652.2 1303.5 651.1 1304.3Q650.0 1305.2 648.2 1305.2L648.2 1305.2Q646.9 1305.2 645.9 1304.7Q644.9 1304.3 644.4 1303.5Q643.8 1302.7 643.8 1301.7L643.8 1301.7L645.6 1301.7Q645.7 1302.7 646.4 1303.2Q647.0 1303.7 648.2 1303.7L648.2 1303.7Q649.2 1303.7 649.8 1303.3Q650.4 1302.9 650.4 1302.2ZM656.4 1290L656.4 1295.7Q657.6 1294.2 659.5 1294.2L659.5 1294.2Q662.9 1294.2 662.9 1298.0L662.9 1298.0L662.9 1305L661.1 1305L661.1 1298.0Q661.1 1296.9 660.6 1296.3Q660.1 1295.8 659.0 1295.8L659.0 1295.8Q658.1 1295.8 657.4 1296.2Q656.8 1296.7 656.4 1297.5L656.4 1297.5L656.4 1305L654.6 1305L654.6 1290L656.4 1290Z "/></g></svg>