<svg width="1080" height="1350" viewBox="0 0 1080 1350" xmlns="http://www.w3.org/2000/svg"><clipPath id="satori_cp-id"><rect x="0" y="0" width="1080" height="1350"/></clipPath><mask id="satori_om-id"><rect x="0" y="0" width="1080" height="1350" fill="#fff"/></mask><rect x="0" y="0" width="1080" height="1350" fill="#E8F5F4"/><mask id="satori_om-id-0"><rect x="0" y="0" width="1080" height="1210" fill="#fff" mask="url(#satori_om-id)"/></mask><mask id="satori_om-id-0-0"><rect x="985" y="32" width="63" height="39" fill="#fff" mask="url(#satori_om-id)"/></mask><path x="985" y="32" width="63" height="39" fill="rgba(0, 0, 0, 0.2)" d="M1004.5,32 h24 a19.5,19.5 0 0 1 19.5,19.5 v0 a19.5,19.5 0 0 1 -19.5,19.5 h-24 a19.5,19.5 0 0 1 -19.5,-19.5 v0 a19.5,19.5 0 0 1 19.5,-19.5" clip-path="url(#satori_cp-id)" mask="url(#satori_om-id)"/><g mask="url(#satori_om-id)" clip-path="url(#satori_cp-id)"><path fill="#FFFFFF" d="M1010.3 44.8L1010.3 53.6L1011.9 53.6L1011.9 55.9L1010.3 55.9L1010.3 59L1007.5 59L1007.5 55.9L1001.7 55.9L1001.5 54.1L1007.5 44.8L1010.3 44.8ZM1007.3 49.0L1004.3 53.6L1007.5 53.6L1007.5 48.6L1007.3 49.0ZM1019.7 44.8L1014.4 60.2L1012.3 60.2L1017.6 44.8L1019.7 44.8ZM1028.1 44.6L1028.6 44.6L1028.6 47.0L1028.3 47.0Q1026.4 47.0 1025.2 48.0Q1024.0 48.9 1023.8 50.6L1023.8 50.6Q1024.9 49.5 1026.7 49.5L1026.7 49.5Q1028.5 49.5 1029.6 50.8Q1030.7 52.1 1030.7 54.3L1030.7 54.3Q1030.7 55.7 1030.1 56.8Q1029.5 57.9 1028.4 58.6Q1027.3 59.2 1025.9 59.2L1025.9 59.2Q1023.7 59.2 1022.3 57.6Q1020.9 56.1 1020.9 53.5L1020.9 53.5L1020.9 52.4Q1020.9 50.1 1021.8 48.4Q1022.7 46.6 1024.3 45.6Q1025.9 44.6 1028.1 44.6L1028.1 44.6ZM1025.8 51.8L1025.8 51.8Q1025.1 51.8 1024.6 52.1Q1024.0 52.5 1023.8 53.1L1023.8 53.1L1023.8 53.9Q1023.8 55.3 1024.3 56.1Q1024.9 56.9 1025.9 56.9L1025.9 56.9Q1026.8 56.9 1027.3 56.2Q1027.9 55.5 1027.9 54.3L1027.9 54.3Q1027.9 53.2 1027.3 52.5Q1026.8 51.8 1025.8 51.8Z "/></g><defs><pattern id="satori_pattern_id-0-1_0" x="0" y="0" width="1" height="1" patternUnits="objectBoundingBox"><linearGradient id="satori_biid-0-1_0" x1="0" y1="0" x2="0" y2="1" spreadMethod="pad"><stop offset="0%" stop-color="#FF6B6B"/><stop offset="100%" stop-color="#E74C3C"/></linearGradient><rect x="0" y="0" width="1080" height="601" fill="url(#satori_biid-0-1_0)"/></pattern></defs><mask id="satori_om-id-0-1"><rect x="0" y="0" width="1080" height="601" fill="#fff" mask="url(#satori_om-id)"/></mask><rect x="0" y="0" width="1080" height="601" fill="url(#satori_pattern_id-0-1_0)" clip-path="url(#satori_cp-id)" mask="url(#satori_om-id)"/><mask id="satori_om-id-0-1-0"><rect x="462" y="247" width="156" height="56" fill="#fff" mask="url(#satori_om-id)"/></mask><mask id="satori_om-id-0-1-0-0"><rect x="462" y="247" width="56" height="56" fill="#fff" mask="url(#satori_om-id)"/></mask><path x="462" y="247" width="56" height="56" fill="rgba(255, 255, 255, 0.25)" d="M490,247 h0 a28,28 0 0 1 28,28 v0 a28,28 0 0 1 -28,28 h0 a28,28 0 0 1 -28,-28 v0 a28,28 0 0 1 28,-28" clip-path="url(#satori_cp-id)" mask="url(#satori_om-id)"/><mask id="satori_om-id-0-1-0-0-0"><rect x="483" y="259" width="15" height="32" fill="#fff" mask="url(#satori_om-id)"/></mask><g mask="url(#satori_om-id)" clip-path="url(#satori_cp-id)"><path fill="black" d="M495.6 263.3L495.6 286L484.6 286L484.6 263.3L495.6 263.3ZM490.5 274.6L494.8 284.7L494.8 264.6L490.5 274.6ZM489.6 274.6L485.4 264.8L485.4 284.5L489.6 274.6ZM490.0 275.7L486.0 285.2L494.1 285.2L490.0 275.7ZM486.0 264.1L490.0 273.6L494.1 264.1L486.0 264.1Z "/></g><mask id="satori_om-id-0-1-0-1"><rect x="534" y="261" width="84" height="28" fill="#fff" mask="url(#satori_om-id)"/></mask><g mask="url(#satori_om-id)" clip-path="url(#satori_cp-id)"><path fill="#FFFFFF" d="M535.5 265.9L540.1 265.9L544.5 278.3L548.9 265.9L553.5 265.9L553.5 283L549.9 283L549.9 278.3L550.3 270.3L545.7 283L543.3 283L538.7 270.3L539.0 278.3L539.0 283L535.5 283L535.5 265.9ZM562.6 265.9L566.1 273.6L569.7 265.9L573.5 265.9L567.9 276.8L567.9 283L564.3 283L564.3 276.8L558.7 265.9L562.6 265.9ZM592.1 265.9L592.1 268.8L586.9 268.8L586.9 283L583.4 283L583.4 268.8L578.2 268.8L578.2 265.9L592.1 265.9ZM612.0 265.9L612.0 283L608.5 283L608.5 275.7L601.6 275.7L601.6 283L598.1 283L598.1 265.9L601.6 265.9L601.6 272.9L608.5 272.9L608.5 265.9L612.0 265.9Z "/></g><mask id="satori_om-id-0-1-1"><rect x="235" y="327" width="610" height="47" fill="#fff" mask="url(#satori_om-id)"/></mask><g opacity="0.95"></g><g mask="url(#satori_om-id)" clip-path="url(#satori_cp-id)"><path fill="#FFFFFF" d="M239.9 336L239.9 338.4L239.3 344.7L237.4 344.7L237.4 336L239.9 336ZM244.6 336L244.6 338.4L244.1 344.7L242.1 344.7L242.2 336L244.6 336ZM269.2 337.4L269.2 363L265.8 363L252.9 343.3L252.9 363L249.5 363L249.5 337.4L252.9 337.4L265.8 357.2L265.8 337.4L269.2 337.4ZM289.8 363L286.4 363Q286.1 362.4 285.9 361.0L285.9 361.0Q283.7 363.4 280.5 363.4L280.5 363.4Q277.7 363.4 275.9 361.8Q274.1 360.2 274.1 357.7L274.1 357.7Q274.1 354.8 276.4 353.1Q278.6 351.5 282.7 351.5L282.7 351.5L285.9 351.5L285.9 350.0Q285.9 348.3 284.9 347.3Q283.8 346.2 281.8 346.2L281.8 346.2Q280.1 346.2 278.9 347.1Q277.8 348.0 277.8 349.3L277.8 349.3L274.5 349.3Q274.5 347.8 275.5 346.5Q276.5 345.2 278.2 344.4Q280.0 343.6 282.0 343.6L282.0 343.6Q285.3 343.6 287.2 345.3Q289.1 346.9 289.1 349.8L289.1 349.8L289.1 358.6Q289.1 361.2 289.8 362.7L289.8 362.7L289.8 363ZM281.0 360.5L281.0 360.5Q282.5 360.5 283.9 359.7Q285.3 358.9 285.9 357.7L285.9 357.7L285.9 353.8L283.3 353.8Q277.3 353.8 277.3 357.3L277.3 357.3Q277.3 358.8 278.4 359.7Q279.4 360.5 281.0 360.5ZM295.4 339.4L298.6 339.4L298.6 344.0L302.2 344.0L302.2 346.5L298.6 346.5L298.6 358.3Q298.6 359.4 299.1 360.0Q299.6 360.6 300.7 360.6L300.7 360.6Q301.3 360.6 302.3 360.4L302.3 360.4L302.3 363Q301.0 363.4 299.8 363.4L299.8 363.4Q297.6 363.4 296.5 362.0Q295.4 360.7 295.4 358.3L295.4 358.3L295.4 346.5L291.9 346.5L291.9 344.0L295.4 344.0L295.4 339.4ZM317.8 363L317.7 361.1Q315.8 363.4 312.2 363.4L312.2 363.4Q309.1 363.4 307.5 361.6Q305.9 359.8 305.9 356.4L305.9 356.4L305.9 344.0L309.2 344.0L309.2 356.3Q309.2 360.6 312.7 360.6L312.7 360.6Q316.4 360.6 317.6 357.8L317.6 357.8L317.6 344.0L320.9 344.0L320.9 363L317.8 363ZM335.0 343.9L335.0 346.9Q334.3 346.8 333.4 346.8L333.4 346.8Q330.2 346.8 329.1 349.5L329.1 349.5L329.1 363L325.8 363L325.8 344.0L329.0 344.0L329.0 346.2Q330.6 343.6 333.6 343.6L333.6 343.6Q334.5 343.6 335.0 343.9L335.0 343.9ZM352.5 363L349.0 363Q348.8 362.4 348.6 361.0L348.6 361.0Q346.3 363.4 343.2 363.4L343.2 363.4Q340.4 363.4 338.6 361.8Q336.8 360.2 336.8 357.7L336.8 357.7Q336.8 354.8 339.0 353.1Q341.3 351.5 345.4 351.5L345.4 351.5L348.5 351.5L348.5 350.0Q348.5 348.3 347.5 347.3Q346.5 346.2 344.5 346.2L344.5 346.2Q342.8 346.2 341.6 347.1Q340.4 348.0 340.4 349.3L340.4 349.3L337.1 349.3Q337.1 347.8 338.2 346.5Q339.2 345.2 340.9 344.4Q342.6 343.6 344.7 343.6L344.7 343.6Q348.0 343.6 349.9 345.3Q351.7 346.9 351.8 349.8L351.8 349.8L351.8 358.6Q351.8 361.2 352.5 362.7L352.5 362.7L352.5 363ZM343.7 360.5L343.7 360.5Q345.2 360.5 346.6 359.7Q347.9 358.9 348.5 357.7L348.5 357.7L348.5 353.8L346.0 353.8Q340.0 353.8 340.0 357.3L340.0 357.3Q340.0 358.8 341.0 359.7Q342.1 360.5 343.7 360.5ZM360.4 336L360.4 363L357.2 363L357.2 336L360.4 336Z M390.4 363L387.0 363Q386.7 362.4 386.5 361.0L386.5 361.0Q384.3 363.4 381.1 363.4L381.1 363.4Q378.3 363.4 376.5 361.8Q374.7 360.2 374.7 357.7L374.7 357.7Q374.7 354.8 377.0 353.1Q379.2 351.5 383.3 351.5L383.3 351.5L386.5 351.5L386.5 350.0Q386.5 348.3 385.5 347.3Q384.4 346.2 382.4 346.2L382.4 346.2Q380.7 346.2 379.5 347.1Q378.3 348.0 378.3 349.3L378.3 349.3L375.1 349.3Q375.1 347.8 376.1 346.5Q377.1 345.2 378.8 344.4Q380.6 343.6 382.6 343.6L382.6 343.6Q385.9 343.6 387.8 345.3Q389.7 346.9 389.7 349.8L389.7 349.8L389.7 358.6Q389.7 361.2 390.4 362.7L390.4 362.7L390.4 363ZM381.6 360.5L381.6 360.5Q383.1 360.5 384.5 359.7Q385.9 358.9 386.5 357.7L386.5 357.7L386.5 353.8L383.9 353.8Q377.9 353.8 377.9 357.3L377.9 357.3Q377.9 358.8 379.0 359.7Q380.0 360.5 381.6 360.5ZM398.4 336L398.4 363L395.1 363L395.1 336L398.4 336ZM404.7 339.4L408.0 339.4L408.0 344.0L411.5 344.0L411.5 346.5L408.0 346.5L408.0 358.3Q408.0 359.4 408.4 360.0Q408.9 360.6 410.1 360.6L410.1 360.6Q410.6 360.6 411.6 360.4L411.6 360.4L411.6 363Q410.3 363.4 409.1 363.4L409.1 363.4Q406.9 363.4 405.8 362.0Q404.7 360.7 404.7 358.3L404.7 358.3L404.7 346.5L401.3 346.5L401.3 344.0L404.7 344.0L404.7 339.4ZM423.2 363.4L423.2 363.4Q419.3 363.4 416.9 360.8Q414.5 358.3 414.5 354.0L414.5 354.0L414.5 353.4Q414.5 350.6 415.6 348.4Q416.7 346.1 418.6 344.9Q420.5 343.6 422.8 343.6L422.8 343.6Q426.5 343.6 428.6 346.1Q430.6 348.5 430.6 353.1L430.6 353.1L430.6 354.4L417.7 354.4Q417.8 357.2 419.4 359.0Q421.0 360.7 423.4 360.7L423.4 360.7Q425.1 360.7 426.3 360.0Q427.5 359.3 428.4 358.1L428.4 358.1L430.4 359.7Q428.0 363.4 423.2 363.4ZM422.8 346.3L422.8 346.3Q420.8 346.3 419.5 347.7Q418.2 349.2 417.8 351.8L417.8 351.8L427.4 351.8L427.4 351.5Q427.2 349.0 426.0 347.7Q424.8 346.3 422.8 346.3ZM443.6 343.9L443.6 346.9Q442.8 346.8 442.0 346.8L442.0 346.8Q438.8 346.8 437.6 349.5L437.6 349.5L437.6 363L434.4 363L434.4 344.0L437.6 344.0L437.6 346.2Q439.2 343.6 442.1 343.6L442.1 343.6Q443.1 343.6 443.6 343.9L443.6 343.9ZM446.6 344.0L449.6 344.0L449.8 346.4Q451.9 343.6 455.4 343.6L455.4 343.6Q461.5 343.6 461.5 350.4L461.5 350.4L461.5 363L458.3 363L458.3 350.4Q458.3 348.4 457.3 347.4Q456.4 346.4 454.5 346.4L454.5 346.4Q452.9 346.4 451.7 347.2Q450.5 348.1 449.8 349.4L449.8 349.4L449.8 363L446.6 363L446.6 344.0ZM481.6 363L478.2 363Q477.9 362.4 477.7 361.0L477.7 361.0Q475.5 363.4 472.3 363.4L472.3 363.4Q469.5 363.4 467.7 361.8Q465.9 360.2 465.9 357.7L465.9 357.7Q465.9 354.8 468.1 353.1Q470.4 351.5 474.5 351.5L474.5 351.5L477.7 351.5L477.7 350.0Q477.7 348.3 476.6 347.3Q475.6 346.2 473.6 346.2L473.6 346.2Q471.9 346.2 470.7 347.1Q469.5 348.0 469.5 349.3L469.5 349.3L466.3 349.3Q466.3 347.8 467.3 346.5Q468.3 345.2 470.0 344.4Q471.8 343.6 473.8 343.6L473.8 343.6Q477.1 343.6 479.0 345.3Q480.8 346.9 480.9 349.8L480.9 349.8L480.9 358.6Q480.9 361.2 481.6 362.7L481.6 362.7L481.6 363ZM472.8 360.5L472.8 360.5Q474.3 360.5 475.7 359.7Q477.1 358.9 477.7 357.7L477.7 357.7L477.7 353.8L475.1 353.8Q469.1 353.8 469.1 357.3L469.1 357.3Q469.1 358.8 470.2 359.7Q471.2 360.5 472.8 360.5ZM487.2 339.4L490.4 339.4L490.4 344.0L494.0 344.0L494.0 346.5L490.4 346.5L490.4 358.3Q490.4 359.4 490.9 360.0Q491.4 360.6 492.5 360.6L492.5 360.6Q493.1 360.6 494.1 360.4L494.1 360.4L494.1 363Q492.8 363.4 491.6 363.4L491.6 363.4Q489.4 363.4 488.3 362.0Q487.2 360.7 487.2 358.3L487.2 358.3L487.2 346.5L483.7 346.5L483.7 344.0L487.2 344.0L487.2 339.4ZM501.3 344.0L501.3 363L498.1 363L498.1 344.0L501.3 344.0ZM497.8 338.9L497.8 338.9Q497.8 338.1 498.3 337.6Q498.8 337.1 499.7 337.1Q500.7 337.1 501.2 337.6Q501.6 338.1 501.6 338.9Q501.6 339.7 501.2 340.3Q500.7 340.8 499.7 340.8Q498.8 340.8 498.3 340.3Q497.8 339.7 497.8 338.9ZM508.0 344.0L512.8 358.6L517.5 344.0L520.8 344.0L514 363L511.5 363L504.6 344.0L508.0 344.0ZM531.6 363.4L531.6 363.4Q527.7 363.4 525.3 360.8Q522.9 358.3 522.9 354.0L522.9 354.0L522.9 353.4Q522.9 350.6 524.0 348.4Q525.1 346.1 527.0 344.9Q528.9 343.6 531.2 343.6L531.2 343.6Q534.9 343.6 537.0 346.1Q539.0 348.5 539.0 353.1L539.0 353.1L539.0 354.4L526.1 354.4Q526.2 357.2 527.8 359.0Q529.4 360.7 531.8 360.7L531.8 360.7Q533.5 360.7 534.7 360.0Q535.9 359.3 536.8 358.1L536.8 358.1L538.8 359.7Q536.4 363.4 531.6 363.4ZM531.2 346.3L531.2 346.3Q529.2 346.3 527.9 347.7Q526.6 349.2 526.3 351.8L526.3 351.8L535.8 351.8L535.8 351.5Q535.6 349.0 534.4 347.7Q533.2 346.3 531.2 346.3ZM553.9 358.0L553.9 358.0Q553.9 356.6 552.9 355.9Q551.9 355.2 549.4 354.7Q546.9 354.1 545.5 353.4Q544.0 352.6 543.3 351.6Q542.7 350.6 542.7 349.2L542.7 349.2Q542.7 346.9 544.6 345.2Q546.6 343.6 549.7 343.6L549.7 343.6Q552.9 343.6 554.9 345.3Q556.9 347.0 556.9 349.6L556.9 349.6L553.7 349.6Q553.7 348.2 552.5 347.3Q551.4 346.3 549.7 346.3L549.7 346.3Q547.9 346.3 546.9 347.1Q545.9 347.8 545.9 349.1L545.9 349.1Q545.9 350.3 546.8 350.9Q547.8 351.5 550.2 352.0Q552.6 352.6 554.1 353.3Q555.7 354.1 556.4 355.1Q557.1 356.2 557.1 357.7L557.1 357.7Q557.1 360.3 555.1 361.8Q553.0 363.4 549.8 363.4L549.8 363.4Q547.5 363.4 545.7 362.5Q544.0 361.7 543.0 360.3Q542.0 358.8 542.0 357.1L542.0 357.1L545.3 357.1Q545.3 358.8 546.6 359.7Q547.8 360.7 549.8 360.7L549.8 360.7Q551.6 360.7 552.8 360.0Q553.9 359.2 553.9 358.0Z M582.8 344.0L587.3 358.5L591.0 344.0L594.2 344.0L588.7 363L586.1 363L581.4 348.6L576.9 363L574.3 363L568.8 344.0L572.0 344.0L575.8 358.2L580.2 344.0L582.8 344.0ZM596.7 353.5L596.7 353.3Q596.7 350.5 597.8 348.3Q598.9 346.1 600.8 344.8Q602.8 343.6 605.3 343.6L605.3 343.6Q609.2 343.6 611.6 346.3Q614.0 349.0 614.0 353.5L614.0 353.5L614.0 353.7Q614.0 356.5 612.9 358.7Q611.9 360.9 609.9 362.1Q607.9 363.4 605.4 363.4L605.4 363.4Q601.5 363.4 599.1 360.7Q596.7 358.0 596.7 353.5L596.7 353.5ZM600.0 353.7L600.0 353.7Q600.0 356.9 601.4 358.8Q602.9 360.7 605.4 360.7L605.4 360.7Q607.8 360.7 609.3 358.8Q610.8 356.8 610.8 353.3L610.8 353.3Q610.8 350.2 609.3 348.2Q607.8 346.3 605.3 346.3L605.3 346.3Q602.9 346.3 601.4 348.2Q600.0 350.1 600.0 353.7ZM627.3 343.9L627.3 346.9Q626.5 346.8 625.7 346.8L625.7 346.8Q622.5 346.8 621.3 349.5L621.3 349.5L621.3 363L618.1 363L618.1 344.0L621.2 344.0L621.3 346.2Q622.9 343.6 625.8 343.6L625.8 343.6Q626.8 343.6 627.3 343.9L627.3 343.9ZM642.2 363L635.6 354.2L633.5 356.3L633.5 363L630.3 363L630.3 336L633.5 336L633.5 352.3L635.3 350.2L641.2 344.0L645.2 344.0L637.8 351.9L646.0 363L642.2 363Z M657.5 344.0L660.8 344.0L660.8 365.2Q660.8 370.7 655.8 370.7L655.8 370.7Q654.7 370.7 653.8 370.4L653.8 370.4L653.8 367.8Q654.4 367.9 655.3 367.9L655.3 367.9Q656.4 367.9 657.0 367.3Q657.5 366.7 657.5 365.3L657.5 365.3L657.5 344.0ZM657.2 338.9L657.2 338.9Q657.2 338.2 657.7 337.6Q658.2 337.1 659.1 337.1L659.1 337.1Q660.0 337.1 660.5 337.6Q661.0 338.1 661.0 338.9Q661.0 339.7 660.5 340.3Q660.0 340.8 659.1 340.8Q658.1 340.8 657.7 340.3Q657.2 339.7 657.2 338.9ZM677.8 363L677.8 361.1Q675.9 363.4 672.2 363.4L672.2 363.4Q669.1 363.4 667.6 361.6Q666.0 359.8 665.9 356.4L665.9 356.4L665.9 344.0L669.2 344.0L669.2 356.3Q669.2 360.6 672.7 360.6L672.7 360.6Q676.4 360.6 677.7 357.8L677.7 357.8L677.7 344.0L680.9 344.0L680.9 363L677.8 363ZM696.9 358.0L696.9 358.0Q696.9 356.6 695.9 355.9Q694.9 355.2 692.5 354.7Q690.0 354.1 688.6 353.4Q687.1 352.6 686.4 351.6Q685.7 350.6 685.7 349.2L685.7 349.2Q685.7 346.9 687.7 345.2Q689.7 343.6 692.8 343.6L692.8 343.6Q696.0 343.6 698.0 345.3Q700.0 347.0 700.0 349.6L700.0 349.6L696.7 349.6Q696.7 348.2 695.6 347.3Q694.5 346.3 692.8 346.3L692.8 346.3Q691.0 346.3 690.0 347.1Q689.0 347.8 689.0 349.1L689.0 349.1Q689.0 350.3 689.9 350.9Q690.8 351.5 693.3 352.0Q695.7 352.6 697.2 353.3Q698.7 354.1 699.5 355.1Q700.2 356.2 700.2 357.7L700.2 357.7Q700.2 360.3 698.1 361.8Q696.1 363.4 692.9 363.4L692.9 363.4Q690.6 363.4 688.8 362.5Q687.1 361.7 686.1 360.3Q685.1 358.8 685.1 357.1L685.1 357.1L688.3 357.1Q688.4 358.8 689.6 359.7Q690.9 360.7 692.9 360.7L692.9 360.7Q694.7 360.7 695.8 360.0Q696.9 359.2 696.9 358.0ZM705.6 339.4L708.8 339.4L708.8 344.0L712.4 344.0L712.4 346.5L708.8 346.5L708.8 358.3Q708.8 359.4 709.3 360.0Q709.8 360.6 710.9 360.6L710.9 360.6Q711.5 360.6 712.5 360.4L712.5 360.4L712.5 363Q711.2 363.4 710.0 363.4L710.0 363.4Q707.8 363.4 706.7 362.0Q705.6 360.7 705.6 358.3L705.6 358.3L705.6 346.5L702.1 346.5L702.1 344.0L705.6 344.0L705.6 339.4Z M740.2 363L736.8 363Q736.6 362.4 736.4 361.0L736.4 361.0Q734.1 363.4 731.0 363.4L731.0 363.4Q728.2 363.4 726.4 361.8Q724.6 360.2 724.6 357.7L724.6 357.7Q724.6 354.8 726.8 353.1Q729.1 351.5 733.2 351.5L733.2 351.5L736.3 351.5L736.3 350.0Q736.3 348.3 735.3 347.3Q734.3 346.2 732.3 346.2L732.3 346.2Q730.6 346.2 729.4 347.1Q728.2 348.0 728.2 349.3L728.2 349.3L724.9 349.3Q724.9 347.8 725.9 346.5Q727.0 345.2 728.7 344.4Q730.4 343.6 732.5 343.6L732.5 343.6Q735.8 343.6 737.6 345.3Q739.5 346.9 739.6 349.8L739.6 349.8L739.6 358.6Q739.6 361.2 740.2 362.7L740.2 362.7L740.2 363ZM731.4 360.5L731.4 360.5Q733.0 360.5 734.3 359.7Q735.7 358.9 736.3 357.7L736.3 357.7L736.3 353.8L733.8 353.8Q727.8 353.8 727.8 357.3L727.8 357.3Q727.8 358.8 728.8 359.7Q729.8 360.5 731.4 360.5ZM755.8 358.0L755.8 358.0Q755.8 356.6 754.8 355.9Q753.8 355.2 751.3 354.7Q748.8 354.1 747.4 353.4Q745.9 352.6 745.2 351.6Q744.5 350.6 744.5 349.2L744.5 349.2Q744.5 346.9 746.5 345.2Q748.5 343.6 751.6 343.6L751.6 343.6Q754.8 343.6 756.8 345.3Q758.8 347.0 758.8 349.6L758.8 349.6L755.6 349.6Q755.6 348.2 754.4 347.3Q753.3 346.3 751.6 346.3L751.6 346.3Q749.8 346.3 748.8 347.1Q747.8 347.8 747.8 349.1L747.8 349.1Q747.8 350.3 748.7 350.9Q749.7 351.5 752.1 352.0Q754.5 352.6 756.0 353.3Q757.5 354.1 758.3 355.1Q759.0 356.2 759.0 357.7L759.0 357.7Q759.0 360.3 757.0 361.8Q754.9 363.4 751.7 363.4L751.7 363.4Q749.4 363.4 747.6 362.5Q745.9 361.7 744.9 360.3Q743.9 358.8 743.9 357.1L743.9 357.1L747.1 357.1Q747.2 358.8 748.4 359.7Q749.7 360.7 751.7 360.7L751.7 360.7Q753.5 360.7 754.6 360.0Q755.8 359.2 755.8 358.0Z M784.5 344.0L789.0 358.5L792.6 344.0L795.9 344.0L790.4 363L787.7 363L783.1 348.6L778.6 363L776.0 363L770.4 344.0L773.7 344.0L777.4 358.2L781.9 344.0L784.5 344.0ZM807.1 363.4L807.1 363.4Q803.2 363.4 800.8 360.8Q798.4 358.3 798.4 354.0L798.4 354.0L798.4 353.4Q798.4 350.6 799.5 348.4Q800.5 346.1 802.5 344.9Q804.4 343.6 806.7 343.6L806.7 343.6Q810.4 343.6 812.5 346.1Q814.5 348.5 814.5 353.1L814.5 353.1L814.5 354.4L801.6 354.4Q801.7 357.2 803.3 359.0Q804.8 360.7 807.3 360.7L807.3 360.7Q809.0 360.7 810.2 360.0Q811.4 359.3 812.3 358.1L812.3 358.1L814.3 359.7Q811.9 363.4 807.1 363.4ZM806.7 346.3L806.7 346.3Q804.7 346.3 803.4 347.7Q802.1 349.2 801.7 351.8L801.7 351.8L811.3 351.8L811.3 351.5Q811.1 349.0 809.9 347.7Q808.7 346.3 806.7 346.3ZM821.8 336L821.8 363L818.6 363L818.6 336L821.8 336ZM830.5 336L830.5 363L827.3 363L827.3 336L830.5 336ZM838.2 336L838.2 338.4L837.6 344.7L835.7 344.7L835.7 336L838.2 336ZM842.9 336L842.9 338.4L842.4 344.7L840.4 344.7L840.4 336L842.9 336Z " opacity="0.95"/></g><g clip-path="url(#satori_cp-id)"><line x1="235" y1="352.28859375" x2="844.802734375" y2="352.28859375" stroke="rgba(255, 255, 255, 0.6)" stroke-width="3.6" stroke-linecap="square" transform=""/></g><defs><pattern id="satori_pattern_id-0-2_0" x="0" y="0" width="1" height="1" patternUnits="objectBoundingBox"><linearGradient id="satori_biid-0-2_0" x1="0" y1="0" x2="1" y2="0" spreadMethod="pad"><stop offset="0%" stop-color="#E74C3C"/><stop offset="100%" stop-color="#1E8449"/></linearGradient><rect x="0" y="0" width="1080" height="8" fill="url(#satori_biid-0-2_0)"/></pattern></defs><mask id="satori_om-id-0-2"><rect x="0" y="601" width="1080" height="8" fill="#fff" mask="url(#satori_om-id)"/></mask><rect x="0" y="601" width="1080" height="8" fill="url(#satori_pattern_id-0-2_0)" clip-path="url(#satori_cp-id)" mask="url(#satori_om-id)"/><defs><pattern id="satori_pattern_id-0-3_0" x="0" y="0" width="1" height="1" patternUnits="objectBoundingBox"><linearGradient id="satori_biid-0-3_0" x1="0" y1="0" x2="0" y2="1" spreadMethod="pad"><stop offset="0%" stop-color="#1E8449"/><stop offset="100%" stop-color="#27AE60"/></linearGradient><rect x="0" y="0" width="1080" height="601" fill="url(#satori_biid-0-3_0)"/></pattern></defs><mask id="satori_om-id-0-3"><rect x="0" y="609" width="1080" height="601" fill="#fff" mask="url(#satori_om-id)"/></mask><rect x="0" y="609" width="1080" height="601" fill="url(#satori_pattern_id-0-3_0)" clip-path="url(#satori_cp-id)" mask="url(#satori_om-id)"/><mask id="satori_om-id-0-3-0"><rect x="455" y="789" width="170" height="56" fill="#fff" mask="url(#satori_om-id)"/></mask><mask id="satori_om-id-0-3-0-0"><rect x="455" y="789" width="56" height="56" fill="#fff" mask="url(#satori_om-id)"/></mask><path x="455" y="789" width="56" height="56" fill="rgba(255, 255, 255, 0.25)" d="M483,789 h0 a28,28 0 0 1 28,28 v0 a28,28 0 0 1 -28,28 h0 a28,28 0 0 1 -28,-28 v0 a28,28 0 0 1 28,-28" clip-path="url(#satori_cp-id)" mask="url(#satori_om-id)"/><mask id="satori_om-id-0-3-0-0-0"><rect x="476" y="801" width="15" height="32" fill="#fff" mask="url(#satori_om-id)"/></mask><g mask="url(#satori_om-id)" clip-path="url(#satori_cp-id)"><path fill="black" d="M488.6 805.3L488.6 828L477.6 828L477.6 805.3L488.6 805.3ZM483.5 816.6L487.8 826.7L487.8 806.6L483.5 816.6ZM482.6 816.6L478.4 806.8L478.4 826.5L482.6 816.6ZM483.0 817.7L479.0 827.2L487.1 827.2L483.0 817.7ZM479.0 806.1L483.0 815.6L487.1 806.1L479.0 806.1Z "/></g><mask id="satori_om-id-0-3-0-1"><rect x="527" y="803" width="98" height="28" fill="#fff" mask="url(#satori_om-id)"/></mask><g mask="url(#satori_om-id)" clip-path="url(#satori_cp-id)"><path fill="#FFFFFF" d="M541.4 807.9L541.4 810.8L536.1 810.8L536.1 825L532.6 825L532.6 810.8L527.5 810.8L527.5 807.9L541.4 807.9ZM556.9 825L553.7 818.8L550.9 818.8L550.9 825L547.4 825L547.4 807.9L553.7 807.9Q556.7 807.9 558.4 809.3Q560.0 810.6 560.0 813.1L560.0 813.1Q560.0 814.8 559.3 816.0Q558.5 817.2 557.0 817.9L557.0 817.9L560.7 824.8L560.7 825L556.9 825ZM550.9 810.8L550.9 815.9L553.7 815.9Q555.0 815.9 555.8 815.2Q556.5 814.6 556.5 813.4L556.5 813.4Q556.5 812.2 555.8 811.5Q555.1 810.8 553.7 810.8L553.7 810.8L550.9 810.8ZM576.1 807.9L579.6 807.9L579.6 819.2Q579.6 822.0 577.8 823.6Q576.1 825.2 573.1 825.2L573.1 825.2Q570.1 825.2 568.3 823.7Q566.6 822.1 566.5 819.3L566.5 819.3L566.5 807.9L570.0 807.9L570.0 819.2Q570.0 820.9 570.8 821.6Q571.6 822.4 573.1 822.4L573.1 822.4Q576.0 822.4 576.1 819.3L576.1 819.3L576.1 807.9ZM599.3 807.9L599.3 810.8L594.1 810.8L594.1 825L590.6 825L590.6 810.8L585.4 810.8L585.4 807.9L599.3 807.9ZM619.2 807.9L619.2 825L615.7 825L615.7 817.7L608.8 817.7L608.8 825L605.3 825L605.3 807.9L608.8 807.9L608.8 814.9L615.7 814.9L615.7 807.9L619.2 807.9Z "/></g><mask id="satori_om-id-0-3-1"><rect x="90" y="869" width="900" height="141" fill="#fff" mask="url(#satori_om-id)"/></mask><g mask="url(#satori_om-id)" clip-path="url(#satori_cp-id)"><path fill="#FFFFFF" d="M122.1 879.4L122.1 905L116.8 905L106.6 888.2L106.6 905L101.3 905L101.3 879.4L106.6 879.4L116.8 896.3L116.8 879.4L122.1 879.4ZM125.6 895.5L125.6 895.3Q125.6 892.5 126.7 890.3Q127.8 888.1 129.8 886.8Q131.9 885.6 134.6 885.6L134.6 885.6Q138.4 885.6 140.8 888.0Q143.3 890.3 143.6 894.4L143.6 894.4L143.6 895.7Q143.6 900.1 141.2 902.7Q138.7 905.4 134.6 905.4Q130.5 905.4 128.0 902.7Q125.6 900.1 125.6 895.5L125.6 895.5ZM130.7 895.7L130.7 895.7Q130.7 898.4 131.7 899.8Q132.7 901.3 134.6 901.3L134.6 901.3Q136.4 901.3 137.5 899.8Q138.5 898.4 138.5 895.3L138.5 895.3Q138.5 892.7 137.5 891.2Q136.4 889.7 134.6 889.7L134.6 889.7Q132.7 889.7 131.7 891.2Q130.7 892.6 130.7 895.7Z M166.3 899.7L166.3 899.7Q166.3 898.8 165.3 898.3Q164.4 897.7 162.4 897.3L162.4 897.3Q155.6 895.9 155.6 891.6L155.6 891.6Q155.6 889.0 157.7 887.3Q159.8 885.6 163.2 885.6L163.2 885.6Q166.8 885.6 169.0 887.3Q171.1 889.0 171.1 891.8L171.1 891.8L166.1 891.8Q166.1 890.7 165.4 890.0Q164.7 889.3 163.2 889.3L163.2 889.3Q161.9 889.3 161.2 889.8Q160.5 890.4 160.5 891.3L160.5 891.3Q160.5 892.2 161.3 892.7Q162.1 893.2 164.0 893.6Q165.9 893.9 167.2 894.4L167.2 894.4Q171.2 895.9 171.2 899.5L171.2 899.5Q171.2 902.1 169.0 903.7Q166.7 905.4 163.2 905.4L163.2 905.4Q160.8 905.4 158.9 904.5Q157.1 903.6 156.0 902.2Q155.0 900.7 155.0 899.0L155.0 899.0L159.8 899.0Q159.9 900.3 160.8 901.0Q161.7 901.7 163.3 901.7L163.3 901.7Q164.8 901.7 165.5 901.2Q166.3 900.6 166.3 899.7ZM186.0 905L185.9 903.1Q184.0 905.4 180.6 905.4L180.6 905.4Q177.6 905.4 176.0 903.6Q174.4 901.8 174.3 898.4L174.3 898.4L174.3 886.0L179.4 886.0L179.4 898.3Q179.4 901.2 182.1 901.2L182.1 901.2Q184.7 901.2 185.7 899.4L185.7 899.4L185.7 886.0L190.8 886.0L190.8 905L186.0 905ZM211.7 895.4L211.7 895.7Q211.7 900.1 209.7 902.7Q207.7 905.4 204.3 905.4L204.3 905.4Q201.5 905.4 199.7 903.3L199.7 903.3L199.7 912.3L194.6 912.3L194.6 886.0L199.3 886.0L199.5 887.8Q201.3 885.6 204.3 885.6L204.3 885.6Q207.8 885.6 209.8 888.2Q211.7 890.8 211.7 895.4L211.7 895.4ZM206.6 895.3L206.6 895.3Q206.6 892.6 205.7 891.2Q204.8 889.8 203.0 889.8L203.0 889.8Q200.6 889.8 199.7 891.6L199.7 891.6L199.7 899.4Q200.6 901.3 203.0 901.3L203.0 901.3Q206.6 901.3 206.6 895.3ZM232.0 895.4L232.0 895.7Q232.0 900.1 230.0 902.7Q228.0 905.4 224.6 905.4L224.6 905.4Q221.7 905.4 220.0 903.3L220.0 903.3L220.0 912.3L214.9 912.3L214.9 886.0L219.6 886.0L219.8 887.8Q221.6 885.6 224.6 885.6L224.6 885.6Q228.1 885.6 230.0 888.2Q232.0 890.8 232.0 895.4L232.0 895.4ZM226.9 895.3L226.9 895.3Q226.9 892.6 226.0 891.2Q225.0 889.8 223.2 889.8L223.2 889.8Q220.8 889.8 220.0 891.6L220.0 891.6L220.0 899.4Q220.9 901.3 223.3 901.3L223.3 901.3Q226.9 901.3 226.9 895.3ZM240.5 878L240.5 905L235.4 905L235.4 878L240.5 878ZM253.4 905.4L253.4 905.4Q249.3 905.4 246.6 902.8Q244 900.2 244 895.9L244 895.9L244 895.5Q244 892.6 245.1 890.3Q246.2 888.1 248.2 886.9Q250.3 885.6 252.9 885.6L252.9 885.6Q256.8 885.6 259.0 888.1Q261.3 890.6 261.3 895.1L261.3 895.1L261.3 897.1L249.2 897.1Q249.4 899.0 250.6 900.1Q251.9 901.3 253.8 901.3L253.8 901.3Q256.7 901.3 258.4 899.1L258.4 899.1L260.9 901.9Q259.7 903.5 257.8 904.4Q255.8 905.4 253.4 905.4ZM252.9 889.7L252.9 889.7Q251.3 889.7 250.4 890.8Q249.5 891.8 249.2 893.7L249.2 893.7L256.3 893.7L256.3 893.3Q256.2 891.6 255.4 890.7Q254.5 889.7 252.9 889.7ZM264.1 886.0L268.9 886.0L269.1 888.1Q271.1 885.6 274.5 885.6L274.5 885.6Q278.2 885.6 279.6 888.5L279.6 888.5Q281.6 885.6 285.3 885.6L285.3 885.6Q288.4 885.6 289.9 887.4Q291.4 889.2 291.4 892.9L291.4 892.9L291.4 905L286.3 905L286.3 892.9Q286.3 891.3 285.7 890.5Q285.0 889.8 283.4 889.8L283.4 889.8Q281.2 889.8 280.3 891.9L280.3 891.9L280.3 905L275.2 905L275.2 892.9Q275.2 891.2 274.6 890.5Q273.9 889.8 272.4 889.8L272.4 889.8Q270.2 889.8 269.2 891.6L269.2 891.6L269.2 905L264.1 905L264.1 886.0ZM304.1 905.4L304.1 905.4Q299.9 905.4 297.3 902.8Q294.6 900.2 294.6 895.9L294.6 895.9L294.6 895.5Q294.6 892.6 295.7 890.3Q296.8 888.1 298.9 886.9Q300.9 885.6 303.5 885.6L303.5 885.6Q307.4 885.6 309.6 888.1Q311.9 890.6 311.9 895.1L311.9 895.1L311.9 897.1L299.8 897.1Q300.0 899.0 301.3 900.1Q302.5 901.3 304.4 901.3L304.4 901.3Q307.3 901.3 309.0 899.1L309.0 899.1L311.5 901.9Q310.3 903.5 308.4 904.4Q306.4 905.4 304.1 905.4ZM303.5 889.7L303.5 889.7Q302.0 889.7 301.0 890.8Q300.1 891.8 299.8 893.7L299.8 893.7L306.9 893.7L306.9 893.3Q306.9 891.6 306.0 890.7Q305.1 889.7 303.5 889.7ZM314.7 886.0L319.4 886.0L319.6 888.2Q321.6 885.6 325.1 885.6L325.1 885.6Q328.1 885.6 329.6 887.4Q331.0 889.2 331.1 892.7L331.1 892.7L331.1 905L326.0 905L326.0 892.8Q326.0 891.2 325.3 890.5Q324.6 889.8 323.0 889.8L323.0 889.8Q320.8 889.8 319.7 891.6L319.7 891.6L319.7 905L314.7 905L314.7 886.0ZM335.9 881.3L341.0 881.3L341.0 886.0L344.3 886.0L344.3 889.7L341.0 889.7L341.0 899.2Q341.0 900.3 341.4 900.7Q341.8 901.2 343.0 901.2L343.0 901.2Q343.8 901.2 344.5 901.0L344.5 901.0L344.5 904.9Q343.0 905.4 341.4 905.4L341.4 905.4Q336.0 905.4 335.9 900.0L335.9 900.0L335.9 889.7L333.2 889.7L333.2 886.0L335.9 886.0L335.9 881.3Z M356.0 886.0L360.7 886.0L360.9 888.1Q362.9 885.6 366.3 885.6L366.3 885.6Q370.0 885.6 371.4 888.5L371.4 888.5Q373.4 885.6 377.1 885.6L377.1 885.6Q380.2 885.6 381.7 887.4Q383.2 889.2 383.2 892.9L383.2 892.9L383.2 905L378.1 905L378.1 892.9Q378.1 891.3 377.5 890.5Q376.9 889.8 375.3 889.8L375.3 889.8Q373.0 889.8 372.1 891.9L372.1 891.9L372.1 905L367.0 905L367.0 892.9Q367.0 891.2 366.4 890.5Q365.7 889.8 364.2 889.8L364.2 889.8Q362.0 889.8 361.0 891.6L361.0 891.6L361.0 905L356.0 905L356.0 886.0ZM403.3 905L398.1 905Q397.8 904.3 397.6 903.3L397.6 903.3Q395.8 905.4 392.8 905.4L392.8 905.4Q390.0 905.4 388.2 903.7Q386.4 902.1 386.4 899.7L386.4 899.7Q386.4 896.6 388.6 895.0Q390.8 893.4 395.1 893.4L395.1 893.4L397.4 893.4L397.4 892.3Q397.4 891.0 396.7 890.2Q396.1 889.4 394.6 889.4L394.6 889.4Q393.3 889.4 392.6 890.0Q391.9 890.6 391.9 891.7L391.9 891.7L386.8 891.7Q386.8 890.0 387.8 888.6Q388.8 887.2 390.7 886.4Q392.5 885.6 394.9 885.6L394.9 885.6Q398.4 885.6 400.5 887.4Q402.5 889.2 402.5 892.4L402.5 892.4L402.5 900.6Q402.5 903.3 403.3 904.7L403.3 904.7L403.3 905ZM393.9 901.5L393.9 901.5Q395.1 901.5 396.0 901.0Q397.0 900.5 397.4 899.6L397.4 899.6L397.4 896.4L395.5 896.4Q391.7 896.4 391.5 899.0L391.5 899.0L391.4 899.3Q391.4 900.2 392.1 900.9Q392.8 901.5 393.9 901.5ZM407.4 881.3L412.5 881.3L412.5 886.0L415.8 886.0L415.8 889.7L412.5 889.7L412.5 899.2Q412.5 900.3 412.9 900.7Q413.3 901.2 414.5 901.2L414.5 901.2Q415.3 901.2 415.9 901.0L415.9 901.0L415.9 904.9Q414.5 905.4 412.9 905.4L412.9 905.4Q407.5 905.4 407.4 900.0L407.4 900.0L407.4 889.7L404.6 889.7L404.6 886.0L407.4 886.0L407.4 881.3ZM426.5 901.3L426.5 901.3Q427.9 901.3 428.8 900.5Q429.7 899.7 429.7 898.4L429.7 898.4L434.5 898.4Q434.4 900.4 433.4 902.0Q432.4 903.6 430.6 904.5Q428.8 905.4 426.6 905.4L426.6 905.4Q422.5 905.4 420.1 902.8Q417.8 900.2 417.8 895.6L417.8 895.6L417.8 895.3Q417.8 890.9 420.1 888.2Q422.5 885.6 426.5 885.6L426.5 885.6Q430.1 885.6 432.3 887.7Q434.4 889.7 434.5 893.1L434.5 893.1L429.7 893.1Q429.7 891.6 428.8 890.7Q427.9 889.7 426.5 889.7L426.5 889.7Q424.7 889.7 423.8 891.0Q422.9 892.3 422.9 895.2L422.9 895.2L422.9 895.8Q422.9 898.7 423.8 900.0Q424.7 901.3 426.5 901.3ZM442.3 878L442.3 888.1Q444.3 885.6 447.4 885.6L447.4 885.6Q453.6 885.6 453.7 892.8L453.7 892.8L453.7 905L448.6 905L448.6 893.0Q448.6 891.3 447.9 890.5Q447.2 889.8 445.5 889.8L445.5 889.8Q443.3 889.8 442.3 891.5L442.3 891.5L442.3 905L437.2 905L437.2 878L442.3 878ZM466.3 905.4L466.3 905.4Q462.1 905.4 459.4 902.8Q456.8 900.2 456.8 895.9L456.8 895.9L456.8 895.5Q456.8 892.6 457.9 890.3Q459.0 888.1 461.1 886.9Q463.1 885.6 465.7 885.6L465.7 885.6Q469.6 885.6 471.8 888.1Q474.1 890.6 474.1 895.1L474.1 895.1L474.1 897.1L462.0 897.1Q462.2 899.0 463.5 900.1Q464.7 901.3 466.6 901.3L466.6 901.3Q469.5 901.3 471.2 899.1L471.2 899.1L473.7 901.9Q472.5 903.5 470.6 904.4Q468.6 905.4 466.3 905.4ZM465.7 889.7L465.7 889.7Q464.2 889.7 463.2 890.8Q462.3 891.8 462.0 893.7L462.0 893.7L469.1 893.7L469.1 893.3Q469.0 891.6 468.2 890.7Q467.3 889.7 465.7 889.7ZM487.3 899.7L487.3 899.7Q487.3 898.8 486.3 898.3Q485.4 897.7 483.4 897.3L483.4 897.3Q476.6 895.9 476.6 891.6L476.6 891.6Q476.6 889.0 478.7 887.3Q480.8 885.6 484.2 885.6L484.2 885.6Q487.8 885.6 490.0 887.3Q492.1 889.0 492.1 891.8L492.1 891.8L487.1 891.8Q487.1 890.7 486.4 890.0Q485.7 889.3 484.2 889.3L484.2 889.3Q482.9 889.3 482.2 889.8Q481.5 890.4 481.5 891.3L481.5 891.3Q481.5 892.2 482.3 892.7Q483.1 893.2 485.0 893.6Q486.9 893.9 488.2 894.4L488.2 894.4Q492.2 895.9 492.2 899.5L492.2 899.5Q492.2 902.1 490.0 903.7Q487.7 905.4 484.2 905.4L484.2 905.4Q481.8 905.4 480.0 904.5Q478.1 903.6 477.0 902.2Q476.0 900.7 476.0 899.0L476.0 899.0L480.8 899.0Q480.9 900.3 481.8 901.0Q482.7 901.7 484.3 901.7L484.3 901.7Q485.8 901.7 486.5 901.2Q487.3 900.6 487.3 899.7Z M514.3 899.7L514.3 899.7Q514.3 898.8 513.3 898.3Q512.4 897.7 510.4 897.3L510.4 897.3Q503.6 895.9 503.6 891.6L503.6 891.6Q503.6 889.0 505.7 887.3Q507.8 885.6 511.2 885.6L511.2 885.6Q514.8 885.6 517.0 887.3Q519.1 889.0 519.1 891.8L519.1 891.8L514.1 891.8Q514.1 890.7 513.4 890.0Q512.7 889.3 511.2 889.3L511.2 889.3Q509.9 889.3 509.2 889.8Q508.5 890.4 508.5 891.3L508.5 891.3Q508.5 892.2 509.3 892.7Q510.1 893.2 512.0 893.6Q513.9 893.9 515.2 894.4L515.2 894.4Q519.2 895.9 519.2 899.5L519.2 899.5Q519.2 902.1 517.0 903.7Q514.7 905.4 511.2 905.4L511.2 905.4Q508.8 905.4 506.9 904.5Q505.1 903.6 504.0 902.2Q503.0 900.7 503.0 899.0L503.0 899.0L507.8 899.0Q507.9 900.3 508.8 901.0Q509.7 901.7 511.3 901.7L511.3 901.7Q512.8 901.7 513.5 901.2Q514.3 900.6 514.3 899.7ZM523.5 881.3L528.5 881.3L528.5 886.0L531.8 886.0L531.8 889.7L528.5 889.7L528.5 899.2Q528.5 900.3 528.9 900.7Q529.4 901.2 530.5 901.2L530.5 901.2Q531.3 901.2 532.0 901.0L532.0 901.0L532.0 904.9Q530.5 905.4 528.9 905.4L528.9 905.4Q523.6 905.4 523.5 900.0L523.5 900.0L523.5 889.7L520.7 889.7L520.7 886.0L523.5 886.0L523.5 881.3ZM550.8 905L545.6 905Q545.3 904.3 545.1 903.3L545.1 903.3Q543.3 905.4 540.3 905.4L540.3 905.4Q537.5 905.4 535.7 903.7Q533.9 902.1 533.9 899.7L533.9 899.7Q533.9 896.6 536.1 895.0Q538.4 893.4 542.6 893.4L542.6 893.4L544.9 893.4L544.9 892.3Q544.9 891.0 544.2 890.2Q543.6 889.4 542.1 889.4L542.1 889.4Q540.8 889.4 540.1 890.0Q539.4 890.6 539.4 891.7L539.4 891.7L534.3 891.7Q534.3 890.0 535.3 888.6Q536.3 887.2 538.2 886.4Q540.1 885.6 542.4 885.6L542.4 885.6Q545.9 885.6 548.0 887.4Q550.0 889.2 550.0 892.4L550.0 892.4L550.0 900.6Q550.0 903.3 550.8 904.7L550.8 904.7L550.8 905ZM541.4 901.5L541.4 901.5Q542.6 901.5 543.5 901.0Q544.5 900.5 544.9 899.6L544.9 899.6L544.9 896.4L543.0 896.4Q539.2 896.4 539.0 899.0L539.0 899.0L538.9 899.3Q538.9 900.2 539.6 900.9Q540.3 901.5 541.4 901.5ZM554.9 881.3L560.0 881.3L560.0 886.0L563.3 886.0L563.3 889.7L560.0 889.7L560.0 899.2Q560.0 900.3 560.4 900.7Q560.8 901.2 562.0 901.2L562.0 901.2Q562.8 901.2 563.5 901.0L563.5 901.0L563.5 904.9Q562.0 905.4 560.4 905.4L560.4 905.4Q555.0 905.4 554.9 900.0L554.9 900.0L554.9 889.7L552.2 889.7L552.2 886.0L554.9 886.0L554.9 881.3ZM571.5 886.0L571.5 905L566.4 905L566.4 886.0L571.5 886.0ZM566.1 881.1L566.1 881.1Q566.1 879.9 566.8 879.2Q567.6 878.4 568.9 878.4L568.9 878.4Q570.2 878.4 571.0 879.2Q571.8 879.9 571.8 881.1L571.8 881.1Q571.8 882.2 571.0 883.0Q570.2 883.7 568.9 883.7Q567.6 883.7 566.8 883.0Q566.1 882.2 566.1 881.1ZM575.5 886.0L580.3 886.0L580.5 888.2Q582.5 885.6 585.9 885.6L585.9 885.6Q589.0 885.6 590.4 887.4Q591.9 889.2 591.9 892.7L591.9 892.7L591.9 905L586.9 905L586.9 892.8Q586.9 891.2 586.2 890.5Q585.5 889.8 583.8 889.8L583.8 889.8Q581.7 889.8 580.6 891.6L580.6 891.6L580.6 905L575.5 905L575.5 886.0Z M613.7 905.4L613.7 905.4Q609.5 905.4 606.9 902.8Q604.3 900.2 604.3 895.9L604.3 895.9L604.3 895.5Q604.3 892.6 605.4 890.3Q606.5 888.1 608.5 886.9Q610.5 885.6 613.1 885.6L613.1 885.6Q617.0 885.6 619.3 888.1Q621.5 890.6 621.5 895.1L621.5 895.1L621.5 897.1L609.4 897.1Q609.7 899.0 610.9 900.1Q612.1 901.3 614.0 901.3L614.0 901.3Q617.0 901.3 618.6 899.1L618.6 899.1L621.1 901.9Q620.0 903.5 618.0 904.4Q616.1 905.4 613.7 905.4ZM613.1 889.7L613.1 889.7Q611.6 889.7 610.7 890.8Q609.7 891.8 609.5 893.7L609.5 893.7L616.5 893.7L616.5 893.3Q616.5 891.6 615.6 890.7Q614.7 889.7 613.1 889.7ZM630.9 905L625.8 905L625.8 889.7L623.0 889.7L623.0 886.0L625.8 886.0L625.8 884.4Q625.8 881.2 627.6 879.4Q629.5 877.6 632.8 877.6L632.8 877.6Q633.8 877.6 635.4 878.0L635.4 878.0L635.3 881.9Q634.7 881.8 633.8 881.8L633.8 881.8Q630.9 881.8 630.9 884.5L630.9 884.5L630.9 886.0L634.7 886.0L634.7 889.7L630.9 889.7L630.9 905ZM643.8 905L638.7 905L638.7 889.7L635.9 889.7L635.9 886.0L638.7 886.0L638.7 884.4Q638.7 881.2 640.5 879.4Q642.4 877.6 645.7 877.6L645.7 877.6Q646.7 877.6 648.3 878.0L648.3 878.0L648.2 881.9Q647.6 881.8 646.7 881.8L646.7 881.8Q643.8 881.8 643.8 884.5L643.8 884.5L643.8 886.0L647.6 886.0L647.6 889.7L643.8 889.7L643.8 905ZM655.6 886.0L655.6 905L650.5 905L650.5 886.0L655.6 886.0ZM650.2 881.1L650.2 881.1Q650.2 879.9 650.9 879.2Q651.7 878.4 653.0 878.4L653.0 878.4Q654.3 878.4 655.1 879.2Q655.9 879.9 655.9 881.1L655.9 881.1Q655.9 882.2 655.1 883.0Q654.3 883.7 653.0 883.7Q651.7 883.7 651.0 883.0Q650.2 882.2 650.2 881.1ZM667.7 901.3L667.7 901.3Q669.1 901.3 670.0 900.5Q670.8 899.7 670.9 898.4L670.9 898.4L675.6 898.4Q675.6 900.4 674.6 902.0Q673.5 903.6 671.7 904.5Q669.9 905.4 667.8 905.4L667.8 905.4Q663.7 905.4 661.3 902.8Q659.0 900.2 659.0 895.6L659.0 895.6L659.0 895.3Q659.0 890.9 661.3 888.2Q663.6 885.6 667.7 885.6L667.7 885.6Q671.3 885.6 673.4 887.7Q675.6 889.7 675.6 893.1L675.6 893.1L670.9 893.1Q670.8 891.6 670.0 890.7Q669.1 889.7 667.6 889.7L667.6 889.7Q665.9 889.7 665.0 891.0Q664.0 892.3 664.0 895.2L664.0 895.2L664.0 895.8Q664.0 898.7 664.9 900.0Q665.8 901.3 667.7 901.3ZM694.7 905L689.6 905Q689.2 904.3 689.0 903.3L689.0 903.3Q687.2 905.4 684.2 905.4L684.2 905.4Q681.5 905.4 679.6 903.7Q677.8 902.1 677.8 899.7L677.8 899.7Q677.8 896.6 680.0 895.0Q682.3 893.4 686.5 893.4L686.5 893.4L688.8 893.4L688.8 892.3Q688.8 891.0 688.2 890.2Q687.5 889.4 686.0 889.4L686.0 889.4Q684.7 889.4 684.0 890.0Q683.3 890.6 683.3 891.7L683.3 891.7L678.2 891.7Q678.2 890.0 679.2 888.6Q680.2 887.2 682.1 886.4Q684.0 885.6 686.3 885.6L686.3 885.6Q689.8 885.6 691.9 887.4Q693.9 889.2 693.9 892.4L693.9 892.4L693.9 900.6Q693.9 903.3 694.7 904.7L694.7 904.7L694.7 905ZM685.4 901.5L685.4 901.5Q686.5 901.5 687.4 901.0Q688.4 900.5 688.8 899.6L688.8 899.6L688.8 896.4L686.9 896.4Q683.1 896.4 682.9 899.0L682.9 899.0L682.9 899.3Q682.9 900.2 683.5 900.9Q684.2 901.5 685.4 901.5ZM705.7 901.3L705.7 901.3Q707.2 901.3 708.0 900.5Q708.9 899.7 708.9 898.4L708.9 898.4L713.7 898.4Q713.7 900.4 712.7 902.0Q711.6 903.6 709.8 904.5Q708.0 905.4 705.8 905.4L705.8 905.4Q701.8 905.4 699.4 902.8Q697.0 900.2 697.0 895.6L697.0 895.6L697.0 895.3Q697.0 890.9 699.4 888.2Q701.7 885.6 705.8 885.6L705.8 885.6Q709.4 885.6 711.5 887.7Q713.7 889.7 713.7 893.1L713.7 893.1L708.9 893.1Q708.9 891.6 708.0 890.7Q707.2 889.7 705.7 889.7L705.7 889.7Q703.9 889.7 703.0 891.0Q702.1 892.3 702.1 895.2L702.1 895.2L702.1 895.8Q702.1 898.7 703.0 900.0Q703.9 901.3 705.7 901.3ZM720.2 886.0L723.7 897.8L727.2 886.0L732.7 886.0L725.0 908.0L724.6 909.0Q722.9 912.7 719.0 912.7L719.0 912.7Q717.9 912.7 716.7 912.3L716.7 912.3L716.7 908.5L717.5 908.5Q718.9 908.5 719.7 908.1Q720.4 907.6 720.8 906.6L720.8 906.6L721.4 905.1L714.7 886.0L720.2 886.0ZM732.0 902.5L732.0 902.5Q732.0 901.3 732.8 900.5Q733.6 899.8 734.9 899.8L734.9 899.8Q736.1 899.8 736.9 900.5Q737.8 901.3 737.8 902.5L737.8 902.5Q737.8 903.7 736.9 904.4Q736.1 905.2 734.9 905.2L734.9 905.2Q733.6 905.2 732.8 904.4Q732.0 903.7 732.0 902.5Z M768.6 905L763.8 895.6L759.6 895.6L759.6 905L754.3 905L754.3 879.4L763.8 879.4Q768.3 879.4 770.8 881.4Q773.3 883.4 773.3 887.1L773.3 887.1Q773.3 889.8 772.1 891.5Q771.0 893.3 768.7 894.3L768.7 894.3L774.2 904.8L774.2 905L768.6 905ZM759.6 883.7L759.6 891.4L763.8 891.4Q765.8 891.4 766.9 890.3Q768.0 889.3 768.0 887.6L768.0 887.6Q768.0 885.8 767.0 884.7Q765.9 883.7 763.8 883.7L763.8 883.7L759.6 883.7ZM785.7 905.4L785.7 905.4Q781.5 905.4 778.9 902.8Q776.2 900.2 776.2 895.9L776.2 895.9L776.2 895.5Q776.2 892.6 777.3 890.3Q778.5 888.1 780.5 886.9Q782.5 885.6 785.1 885.6L785.1 885.6Q789.0 885.6 791.3 888.1Q793.5 890.6 793.5 895.1L793.5 895.1L793.5 897.1L781.4 897.1Q781.6 899.0 782.9 900.1Q784.1 901.3 786.0 901.3L786.0 901.3Q788.9 901.3 790.6 899.1L790.6 899.1L793.1 901.9Q792.0 903.5 790.0 904.4Q788.1 905.4 785.7 905.4ZM785.1 889.7L785.1 889.7Q783.6 889.7 782.6 890.8Q781.7 891.8 781.4 893.7L781.4 893.7L788.5 893.7L788.5 893.3Q788.5 891.6 787.6 890.7Q786.7 889.7 785.1 889.7ZM795.6 895.3L795.6 895.3Q795.6 890.9 797.6 888.3Q799.6 885.6 803.0 885.6L803.0 885.6Q805.8 885.6 807.6 887.7L807.6 887.7L807.6 878L812.7 878L812.7 905L808.1 905L807.9 903.0Q806 905.4 803.0 905.4L803.0 905.4Q799.7 905.4 797.6 902.7Q795.6 900.1 795.6 895.3ZM800.7 895.7L800.7 895.7Q800.7 898.4 801.6 899.8Q802.5 901.2 804.3 901.2L804.3 901.2Q806.7 901.2 807.6 899.3L807.6 899.3L807.6 891.7Q806.7 889.8 804.3 889.8L804.3 889.8Q800.7 889.8 800.7 895.7Z M829.5 886.0L833.1 897.8L836.6 886.0L842.0 886.0L834.4 908.0L833.9 909.0Q832.2 912.7 828.3 912.7L828.3 912.7Q827.2 912.7 826.1 912.3L826.1 912.3L826.1 908.5L826.8 908.5Q828.3 908.5 829.0 908.1Q829.7 907.6 830.1 906.6L830.1 906.6L830.7 905.1L824.1 886.0L829.5 886.0ZM852.5 905.4L852.5 905.4Q848.4 905.4 845.7 902.8Q843.1 900.2 843.1 895.9L843.1 895.9L843.1 895.5Q843.1 892.6 844.2 890.3Q845.3 888.1 847.4 886.9Q849.4 885.6 852.0 885.6L852.0 885.6Q855.9 885.6 858.1 888.1Q860.4 890.6 860.4 895.1L860.4 895.1L860.4 897.1L848.3 897.1Q848.5 899.0 849.7 900.1Q851.0 901.3 852.9 901.3L852.9 901.3Q855.8 901.3 857.5 899.1L857.5 899.1L860.0 901.9Q858.8 903.5 856.9 904.4Q854.9 905.4 852.5 905.4ZM852.0 889.7L852.0 889.7Q850.5 889.7 849.5 890.8Q848.6 891.8 848.3 893.7L848.3 893.7L855.4 893.7L855.4 893.3Q855.3 891.6 854.5 890.7Q853.6 889.7 852.0 889.7ZM879.4 905L874.3 905Q873.9 904.3 873.8 903.3L873.8 903.3Q871.9 905.4 869.0 905.4L869.0 905.4Q866.2 905.4 864.3 903.7Q862.5 902.1 862.5 899.7L862.5 899.7Q862.5 896.6 864.7 895.0Q867.0 893.4 871.2 893.4L871.2 893.4L873.6 893.4L873.6 892.3Q873.6 891.0 872.9 890.2Q872.2 889.4 870.7 889.4L870.7 889.4Q869.5 889.4 868.7 890.0Q868.0 890.6 868.0 891.7L868.0 891.7L862.9 891.7Q862.9 890.0 863.9 888.6Q865.0 887.2 866.8 886.4Q868.7 885.6 871.0 885.6L871.0 885.6Q874.5 885.6 876.6 887.4Q878.7 889.2 878.7 892.4L878.7 892.4L878.7 900.6Q878.7 903.3 879.4 904.7L879.4 904.7L879.4 905ZM870.1 901.5L870.1 901.5Q871.2 901.5 872.1 901.0Q873.1 900.5 873.6 899.6L873.6 899.6L873.6 896.4L871.7 896.4Q867.8 896.4 867.6 899.0L867.6 899.0L867.6 899.3Q867.6 900.2 868.2 900.9Q868.9 901.5 870.1 901.5ZM892.9 899.7L892.9 899.7Q892.9 898.8 891.9 898.3Q891.0 897.7 889.0 897.3L889.0 897.3Q882.2 895.9 882.2 891.6L882.2 891.6Q882.2 889.0 884.3 887.3Q886.4 885.6 889.8 885.6L889.8 885.6Q893.4 885.6 895.6 887.3Q897.7 889.0 897.7 891.8L897.7 891.8L892.7 891.8Q892.7 890.7 892.0 890.0Q891.3 889.3 889.8 889.3L889.8 889.3Q888.5 889.3 887.8 889.8Q887.1 890.4 887.1 891.3L887.1 891.3Q887.1 892.2 887.9 892.7Q888.7 893.2 890.6 893.6Q892.5 893.9 893.8 894.4L893.8 894.4Q897.8 895.9 897.8 899.5L897.8 899.5Q897.8 902.1 895.6 903.7Q893.3 905.4 889.8 905.4L889.8 905.4Q887.4 905.4 885.5 904.5Q883.7 903.6 882.6 902.2Q881.6 900.7 881.6 899.0L881.6 899.0L886.4 899.0Q886.5 900.3 887.4 901.0Q888.3 901.7 889.9 901.7L889.9 901.7Q891.4 901.7 892.1 901.2Q892.9 900.6 892.9 899.7ZM902.1 881.3L907.1 881.3L907.1 886.0L910.4 886.0L910.4 889.7L907.1 889.7L907.1 899.2Q907.1 900.3 907.5 900.7Q908.0 901.2 909.1 901.2L909.1 901.2Q909.9 901.2 910.6 901.0L910.6 901.0L910.6 904.9Q909.1 905.4 907.5 905.4L907.5 905.4Q902.2 905.4 902.1 900.0L902.1 900.0L902.1 889.7L899.3 889.7L899.3 886.0L902.1 886.0L902.1 881.3Z M932.7 885.9L932.6 890.7Q931.6 890.6 930.8 890.6L930.8 890.6Q927.9 890.6 927.0 892.6L927.0 892.6L927.0 905L922.0 905L922.0 886.0L926.8 886.0L926.9 888.2Q928.4 885.6 931.1 885.6L931.1 885.6Q932.0 885.6 932.7 885.9L932.7 885.9ZM940.4 886.0L940.4 905L935.3 905L935.3 886.0L940.4 886.0ZM935.0 881.1L935.0 881.1Q935.0 879.9 935.8 879.2Q936.6 878.4 937.9 878.4L937.9 878.4Q939.2 878.4 940.0 879.2Q940.7 879.9 940.7 881.1L940.7 881.1Q940.7 882.2 940.0 883.0Q939.2 883.7 937.9 883.7Q936.6 883.7 935.8 883.0Q935.0 882.2 935.0 881.1ZM952.5 901.3L952.5 901.3Q953.9 901.3 954.8 900.5Q955.7 899.7 955.7 898.4L955.7 898.4L960.5 898.4Q960.5 900.4 959.4 902.0Q958.4 903.6 956.6 904.5Q954.8 905.4 952.6 905.4L952.6 905.4Q948.5 905.4 946.2 902.8Q943.8 900.2 943.8 895.6L943.8 895.6L943.8 895.3Q943.8 890.9 946.2 888.2Q948.5 885.6 952.6 885.6L952.6 885.6Q956.2 885.6 958.3 887.7Q960.5 889.7 960.5 893.1L960.5 893.1L955.7 893.1Q955.7 891.6 954.8 890.7Q953.9 889.7 952.5 889.7L952.5 889.7Q950.7 889.7 949.8 891.0Q948.9 892.3 948.9 895.2L948.9 895.2L948.9 895.8Q948.9 898.7 949.8 900.0Q950.7 901.3 952.5 901.3ZM972.2 905.4L972.2 905.4Q968.0 905.4 965.3 902.8Q962.7 900.2 962.7 895.9L962.7 895.9L962.7 895.5Q962.7 892.6 963.8 890.3Q964.9 888.1 967.0 886.9Q969.0 885.6 971.6 885.6L971.6 885.6Q975.5 885.6 977.7 888.1Q980.0 890.6 980.0 895.1L980.0 895.1L980.0 897.1L967.9 897.1Q968.1 899.0 969.4 900.1Q970.6 901.3 972.5 901.3L972.5 901.3Q975.4 901.3 977.1 899.1L977.1 899.1L979.6 901.9Q978.4 903.5 976.5 904.4Q974.5 905.4 972.2 905.4ZM971.6 889.7L971.6 889.7Q970.1 889.7 969.1 890.8Q968.2 891.8 967.9 893.7L967.9 893.7L975.0 893.7L975.0 893.3Q974.9 891.6 974.1 890.7Q973.2 889.7 971.6 889.7Z M103.9 948.3L103.9 948.3Q105.3 948.3 106.1 947.5Q107.0 946.7 107.1 945.4L107.1 945.4L111.8 945.4Q111.8 947.4 110.8 949.0Q109.7 950.6 107.9 951.5Q106.1 952.4 103.9 952.4L103.9 952.4Q99.9 952.4 97.5 949.8Q95.2 947.2 95.2 942.6L95.2 942.6L95.2 942.3Q95.2 937.9 97.5 935.2Q99.8 932.6 103.9 932.6L103.9 932.6Q107.5 932.6 109.6 934.7Q111.8 936.7 111.8 940.1L111.8 940.1L107.1 940.1Q107.0 938.6 106.1 937.7Q105.3 936.7 103.8 936.7L103.8 936.7Q102.1 936.7 101.1 938.0Q100.2 939.3 100.2 942.2L100.2 942.2L100.2 942.8Q100.2 945.7 101.1 947.0Q102.0 948.3 103.9 948.3ZM113.9 942.5L113.9 942.3Q113.9 939.5 115.0 937.3Q116.1 935.1 118.2 933.8Q120.2 932.6 122.9 932.6L122.9 932.6Q126.8 932.6 129.2 935.0Q131.6 937.3 131.9 941.4L131.9 941.4L132.0 942.7Q132.0 947.1 129.5 949.7Q127.1 952.4 123.0 952.4Q118.8 952.4 116.4 949.7Q113.9 947.1 113.9 942.5L113.9 942.5ZM119.0 942.7L119.0 942.7Q119.0 945.4 120.0 946.8Q121.1 948.3 123.0 948.3L123.0 948.3Q124.8 948.3 125.8 946.8Q126.9 945.4 126.9 942.3L126.9 942.3Q126.9 939.7 125.8 938.2Q124.8 936.7 122.9 936.7L122.9 936.7Q121.1 936.7 120.0 938.2Q119.0 939.6 119.0 942.7ZM135.0 933.0L139.8 933.0L139.9 935.2Q142.0 932.6 145.4 932.6L145.4 932.6Q148.4 932.6 149.9 934.4Q151.4 936.2 151.4 939.7L151.4 939.7L151.4 952L146.3 952L146.3 939.8Q146.3 938.2 145.6 937.5Q144.9 936.8 143.3 936.8L143.3 936.8Q141.1 936.8 140.1 938.6L140.1 938.6L140.1 952L135.0 952L135.0 933.0ZM156.2 928.3L161.3 928.3L161.3 933.0L164.6 933.0L164.6 936.7L161.3 936.7L161.3 946.2Q161.3 947.3 161.7 947.7Q162.1 948.2 163.3 948.2L163.3 948.2Q164.1 948.2 164.8 948.0L164.8 948.0L164.8 951.9Q163.3 952.4 161.7 952.4L161.7 952.4Q156.3 952.4 156.2 947.0L156.2 947.0L156.2 936.7L153.5 936.7L153.5 933.0L156.2 933.0L156.2 928.3ZM183.6 952L178.4 952Q178.1 951.3 177.9 950.3L177.9 950.3Q176.1 952.4 173.1 952.4L173.1 952.4Q170.3 952.4 168.5 950.7Q166.7 949.1 166.7 946.7L166.7 946.7Q166.7 943.6 168.9 942.0Q171.1 940.4 175.4 940.4L175.4 940.4L177.7 940.4L177.7 939.3Q177.7 938.0 177.0 937.2Q176.4 936.4 174.9 936.4L174.9 936.4Q173.6 936.4 172.9 937.0Q172.2 937.6 172.2 938.7L172.2 938.7L167.1 938.7Q167.1 937.0 168.1 935.6Q169.1 934.2 171.0 933.4Q172.8 932.6 175.2 932.6L175.2 932.6Q178.7 932.6 180.7 934.4Q182.8 936.2 182.8 939.4L182.8 939.4L182.8 947.6Q182.8 950.3 183.6 951.7L183.6 951.7L183.6 952ZM174.2 948.5L174.2 948.5Q175.4 948.5 176.3 948.0Q177.3 947.5 177.7 946.6L177.7 946.6L177.7 943.4L175.8 943.4Q172.0 943.4 171.7 946.0L171.7 946.0L171.7 946.3Q171.7 947.2 172.4 947.9Q173.1 948.5 174.2 948.5ZM192.1 933.0L192.1 952L187.0 952L187.0 933.0L192.1 933.0ZM186.7 928.1L186.7 928.1Q186.7 926.9 187.4 926.2Q188.2 925.4 189.5 925.4L189.5 925.4Q190.8 925.4 191.6 926.2Q192.4 926.9 192.4 928.1L192.4 928.1Q192.4 929.2 191.6 930.0Q190.8 930.7 189.5 930.7Q188.2 930.7 187.5 930.0Q186.7 929.2 186.7 928.1ZM196.1 933.0L200.9 933.0L201.1 935.2Q203.1 932.6 206.6 932.6L206.6 932.6Q209.6 932.6 211.1 934.4Q212.5 936.2 212.6 939.7L212.6 939.7L212.6 952L207.5 952L207.5 939.8Q207.5 938.2 206.8 937.5Q206.1 936.8 204.4 936.8L204.4 936.8Q202.3 936.8 201.2 938.6L201.2 938.6L201.2 952L196.1 952L196.1 933.0ZM226.7 946.7L226.7 946.7Q226.7 945.8 225.8 945.3Q224.9 944.7 222.8 944.3L222.8 944.3Q216.0 942.9 216.0 938.6L216.0 938.6Q216.0 936.0 218.1 934.3Q220.2 932.6 223.6 932.6L223.6 932.6Q227.3 932.6 229.4 934.3Q231.6 936.0 231.6 938.8L231.6 938.8L226.5 938.8Q226.5 937.7 225.8 937.0Q225.1 936.3 223.6 936.3L223.6 936.3Q222.3 936.3 221.6 936.8Q220.9 937.4 220.9 938.3L220.9 938.3Q220.9 939.2 221.7 939.7Q222.5 940.2 224.4 940.6Q226.3 940.9 227.6 941.4L227.6 941.4Q231.7 942.9 231.7 946.5L231.7 946.5Q231.7 949.1 229.4 950.7Q227.2 952.4 223.7 952.4L223.7 952.4Q221.3 952.4 219.4 951.5Q217.6 950.6 216.5 949.2Q215.4 947.7 215.4 946.0L215.4 946.0L220.3 946.0Q220.3 947.3 221.3 948.0Q222.2 948.7 223.8 948.7L223.8 948.7Q225.2 948.7 226.0 948.2Q226.7 947.6 226.7 946.7Z M249.3 925L249.3 952L244.2 952L244.2 925L249.3 925ZM252.7 942.5L252.7 942.3Q252.7 939.5 253.8 937.3Q254.9 935.1 256.9 933.8Q259.0 932.6 261.7 932.6L261.7 932.6Q265.5 932.6 268.0 935.0Q270.4 937.3 270.7 941.4L270.7 941.4L270.7 942.7Q270.7 947.1 268.3 949.7Q265.8 952.4 261.7 952.4Q257.6 952.4 255.2 949.7Q252.7 947.1 252.7 942.5L252.7 942.5ZM257.8 942.7L257.8 942.7Q257.8 945.4 258.8 946.8Q259.8 948.3 261.7 948.3L261.7 948.3Q263.6 948.3 264.6 946.8Q265.6 945.4 265.6 942.3L265.6 942.3Q265.6 939.7 264.6 938.2Q263.6 936.7 261.7 936.7L261.7 936.7Q259.8 936.7 258.8 938.2Q257.8 939.6 257.8 942.7ZM277.2 933.0L280.7 945.8L284.2 933.0L289.5 933.0L283.1 952L278.3 952L271.9 933.0L277.2 933.0ZM307.7 952L302.5 952Q302.2 951.3 302.0 950.3L302.0 950.3Q300.2 952.4 297.2 952.4L297.2 952.4Q294.4 952.4 292.6 950.7Q290.8 949.1 290.8 946.7L290.8 946.7Q290.8 943.6 293.0 942.0Q295.2 940.4 299.5 940.4L299.5 940.4L301.8 940.4L301.8 939.3Q301.8 938.0 301.1 937.2Q300.5 936.4 299.0 936.4L299.0 936.4Q297.7 936.4 297.0 937.0Q296.3 937.6 296.3 938.7L296.3 938.7L291.2 938.7Q291.2 937.0 292.2 935.6Q293.2 934.2 295.1 933.4Q296.9 932.6 299.3 932.6L299.3 932.6Q302.8 932.6 304.9 934.4Q306.9 936.2 306.9 939.4L306.9 939.4L306.9 947.6Q306.9 950.3 307.7 951.7L307.7 951.7L307.7 952ZM298.3 948.5L298.3 948.5Q299.5 948.5 300.4 948.0Q301.4 947.5 301.8 946.6L301.8 946.6L301.8 943.4L299.9 943.4Q296.1 943.4 295.9 946.0L295.9 946.0L295.8 946.3Q295.8 947.2 296.5 947.9Q297.2 948.5 298.3 948.5ZM321.1 946.7L321.1 946.7Q321.1 945.8 320.2 945.3Q319.3 944.7 317.2 944.3L317.2 944.3Q310.4 942.9 310.4 938.6L310.4 938.6Q310.4 936.0 312.5 934.3Q314.7 932.6 318.0 932.6L318.0 932.6Q321.7 932.6 323.8 934.3Q326.0 936.0 326.0 938.8L326.0 938.8L320.9 938.8Q320.9 937.7 320.2 937.0Q319.5 936.3 318.0 936.3L318.0 936.3Q316.7 936.3 316.0 936.8Q315.3 937.4 315.3 938.3L315.3 938.3Q315.3 939.2 316.1 939.7Q316.9 940.2 318.8 940.6Q320.7 940.9 322.0 941.4L322.0 941.4Q326.1 942.9 326.1 946.5L326.1 946.5Q326.1 949.1 323.8 950.7Q321.6 952.4 318.1 952.4L318.1 952.4Q315.7 952.4 313.8 951.5Q312.0 950.6 310.9 949.2Q309.9 947.7 309.9 946.0L309.9 946.0L314.7 946.0Q314.7 947.3 315.7 948.0Q316.6 948.7 318.2 948.7L318.2 948.7Q319.6 948.7 320.4 948.2Q321.1 947.6 321.1 946.7ZM330.3 928.3L335.4 928.3L335.4 933.0L338.7 933.0L338.7 936.7L335.4 936.7L335.4 946.2Q335.4 947.3 335.8 947.7Q336.2 948.2 337.4 948.2L337.4 948.2Q338.2 948.2 338.9 948.0L338.9 948.0L338.9 951.9Q337.4 952.4 335.8 952.4L335.8 952.4Q330.4 952.4 330.3 947.0L330.3 947.0L330.3 936.7L327.6 936.7L327.6 933.0L330.3 933.0L330.3 928.3ZM357.6 952L352.5 952Q352.2 951.3 352.0 950.3L352.0 950.3Q350.2 952.4 347.2 952.4L347.2 952.4Q344.4 952.4 342.6 950.7Q340.7 949.1 340.7 946.7L340.7 946.7Q340.7 943.6 343.0 942.0Q345.2 940.4 349.5 940.4L349.5 940.4L351.8 940.4L351.8 939.3Q351.8 938.0 351.1 937.2Q350.4 936.4 349.0 936.4L349.0 936.4Q347.7 936.4 347.0 937.0Q346.2 937.6 346.2 938.7L346.2 938.7L341.2 938.7Q341.2 937.0 342.2 935.6Q343.2 934.2 345.1 933.4Q346.9 932.6 349.2 932.6L349.2 932.6Q352.8 932.6 354.8 934.4Q356.9 936.2 356.9 939.4L356.9 939.4L356.9 947.6Q356.9 950.3 357.6 951.7L357.6 951.7L357.6 952ZM348.3 948.5L348.3 948.5Q349.4 948.5 350.4 948.0Q351.3 947.5 351.8 946.6L351.8 946.6L351.8 943.4L349.9 943.4Q346.1 943.4 345.8 946.0L345.8 946.0L345.8 946.3Q345.8 947.2 346.5 947.9Q347.2 948.5 348.3 948.5ZM361.8 928.3L366.9 928.3L366.9 933.0L370.1 933.0L370.1 936.7L366.9 936.7L366.9 946.2Q366.9 947.3 367.3 947.7Q367.7 948.2 368.8 948.2L368.8 948.2Q369.7 948.2 370.3 948.0L370.3 948.0L370.3 951.9Q368.8 952.4 367.2 952.4L367.2 952.4Q361.9 952.4 361.8 947.0L361.8 947.0L361.8 936.7L359.0 936.7L359.0 933.0L361.8 933.0L361.8 928.3ZM378.3 933.0L378.3 952L373.2 952L373.2 933.0L378.3 933.0ZM372.9 928.1L372.9 928.1Q372.9 926.9 373.7 926.2Q374.5 925.4 375.8 925.4L375.8 925.4Q377.1 925.4 377.8 926.2Q378.6 926.9 378.6 928.1L378.6 928.1Q378.6 929.2 377.8 930.0Q377.1 930.7 375.8 930.7Q374.5 930.7 373.7 930.0Q372.9 929.2 372.9 928.1ZM382.4 933.0L387.2 933.0L387.3 935.2Q389.4 932.6 392.8 932.6L392.8 932.6Q395.8 932.6 397.3 934.4Q398.8 936.2 398.8 939.7L398.8 939.7L398.8 952L393.7 952L393.7 939.8Q393.7 938.2 393.0 937.5Q392.3 936.8 390.7 936.8L390.7 936.8Q388.5 936.8 387.5 938.6L387.5 938.6L387.5 952L382.4 952L382.4 933.0Z M430.1 942.4L430.1 942.7Q430.1 947.2 428.1 949.8Q426.2 952.4 422.7 952.4L422.7 952.4Q419.6 952.4 417.8 950.0L417.8 950.0L417.5 952L413.0 952L413.0 925L418.0 925L418.0 934.7Q419.8 932.6 422.7 932.6L422.7 932.6Q426.1 932.6 428.1 935.2Q430.1 937.7 430.1 942.4L430.1 942.4ZM425.0 942.3L425.0 942.3Q425.0 939.4 424.1 938.1Q423.2 936.8 421.4 936.8L421.4 936.8Q418.9 936.8 418.0 938.7L418.0 938.7L418.0 946.3Q419.0 948.3 421.4 948.3L421.4 948.3Q423.9 948.3 424.6 945.8L424.6 945.8Q425.0 944.7 425.0 942.3ZM444.8 952L444.6 950.1Q442.7 952.4 439.4 952.4L439.4 952.4Q436.3 952.4 434.7 950.6Q433.1 948.8 433.1 945.4L433.1 945.4L433.1 933.0L438.2 933.0L438.2 945.3Q438.2 948.2 440.9 948.2L440.9 948.2Q443.5 948.2 444.4 946.4L444.4 946.4L444.4 933.0L449.5 933.0L449.5 952L444.8 952ZM454.4 928.3L459.4 928.3L459.4 933.0L462.7 933.0L462.7 936.7L459.4 936.7L459.4 946.2Q459.4 947.3 459.8 947.7Q460.3 948.2 461.4 948.2L461.4 948.2Q462.2 948.2 462.9 948.0L462.9 948.0L462.9 951.9Q461.4 952.4 459.8 952.4L459.8 952.4Q454.5 952.4 454.4 947.0L454.4 947.0L454.4 936.7L451.6 936.7L451.6 933.0L454.4 933.0L454.4 928.3Z M487.0 933.0L490.5 945.1L493.0 933.0L497.9 933.0L493.0 952L488.8 952L485.2 940.0L481.6 952L477.3 952L472.5 933.0L477.4 933.0L479.9 945.1L483.4 933.0L487.0 933.0ZM505.8 933.0L505.8 952L500.7 952L500.7 933.0L505.8 933.0ZM500.4 928.1L500.4 928.1Q500.4 926.9 501.1 926.2Q501.9 925.4 503.2 925.4L503.2 925.4Q504.5 925.4 505.3 926.2Q506.1 926.9 506.1 928.1L506.1 928.1Q506.1 929.2 505.3 930.0Q504.5 930.7 503.2 930.7Q501.9 930.7 501.2 930.0Q500.4 929.2 500.4 928.1ZM511.0 928.3L516.0 928.3L516.0 933.0L519.3 933.0L519.3 936.7L516.0 936.7L516.0 946.2Q516.0 947.3 516.4 947.7Q516.8 948.2 518.0 948.2L518.0 948.2Q518.8 948.2 519.5 948.0L519.5 948.0L519.5 951.9Q518.0 952.4 516.4 952.4L516.4 952.4Q511.1 952.4 511.0 947.0L511.0 947.0L511.0 936.7L508.2 936.7L508.2 933.0L511.0 933.0L511.0 928.3ZM527.1 925L527.1 935.1Q529.1 932.6 532.2 932.6L532.2 932.6Q538.3 932.6 538.4 939.8L538.4 939.8L538.4 952L533.3 952L533.3 940.0Q533.3 938.3 532.6 937.5Q531.9 936.8 530.3 936.8L530.3 936.8Q528.1 936.8 527.1 938.5L527.1 938.5L527.1 952L522.0 952L522.0 925L527.1 925Z M556.3 933.0L556.3 952L551.2 952L551.2 933.0L556.3 933.0ZM550.9 928.1L550.9 928.1Q550.9 926.9 551.7 926.2Q552.4 925.4 553.8 925.4L553.8 925.4Q555.1 925.4 555.8 926.2Q556.6 926.9 556.6 928.1L556.6 928.1Q556.6 929.2 555.8 930.0Q555.0 930.7 553.8 930.7Q552.5 930.7 551.7 930.0Q550.9 929.2 550.9 928.1ZM560.4 933.0L565.2 933.0L565.3 935.2Q567.4 932.6 570.8 932.6L570.8 932.6Q573.8 932.6 575.3 934.4Q576.8 936.2 576.8 939.7L576.8 939.7L576.8 952L571.7 952L571.7 939.8Q571.7 938.2 571.0 937.5Q570.3 936.8 568.7 936.8L568.7 936.8Q566.5 936.8 565.5 938.6L565.5 938.6L565.5 952L560.4 952L560.4 933.0ZM588.6 948.3L588.6 948.3Q590.0 948.3 590.9 947.5Q591.7 946.7 591.8 945.4L591.8 945.4L596.5 945.4Q596.5 947.4 595.5 949.0Q594.4 950.6 592.6 951.5Q590.8 952.4 588.7 952.4L588.7 952.4Q584.6 952.4 582.2 949.8Q579.9 947.2 579.9 942.6L579.9 942.6L579.9 942.3Q579.9 937.9 582.2 935.2Q584.5 932.6 588.6 932.6L588.6 932.6Q592.2 932.6 594.3 934.7Q596.5 936.7 596.5 940.1L596.5 940.1L591.8 940.1Q591.7 938.6 590.9 937.7Q590.0 936.7 588.5 936.7L588.5 936.7Q586.8 936.7 585.9 938.0Q584.9 939.3 584.9 942.2L584.9 942.2L584.9 942.8Q584.9 945.7 585.8 947.0Q586.7 948.3 588.6 948.3ZM598.6 942.5L598.6 942.3Q598.6 939.5 599.7 937.3Q600.8 935.1 602.9 933.8Q604.9 932.6 607.6 932.6L607.6 932.6Q611.5 932.6 613.9 935.0Q616.3 937.3 616.6 941.4L616.6 941.4L616.7 942.7Q616.7 947.1 614.2 949.7Q611.8 952.4 607.7 952.4Q603.5 952.4 601.1 949.7Q598.6 947.1 598.6 942.5L598.6 942.5ZM603.7 942.7L603.7 942.7Q603.7 945.4 604.7 946.8Q605.8 948.3 607.7 948.3L607.7 948.3Q609.5 948.3 610.5 946.8Q611.6 945.4 611.6 942.3L611.6 942.3Q611.6 939.7 610.5 938.2Q609.5 936.7 607.6 936.7L607.6 936.7Q605.8 936.7 604.7 938.2Q603.7 939.6 603.7 942.7ZM619.7 933.0L624.5 933.0L624.6 935.2Q626.7 932.6 630.1 932.6L630.1 932.6Q633.1 932.6 634.6 934.4Q636.1 936.2 636.1 939.7L636.1 939.7L636.1 952L631.0 952L631.0 939.8Q631.0 938.2 630.3 937.5Q629.6 936.8 628.0 936.8L628.0 936.8Q625.8 936.8 624.8 938.6L624.8 938.6L624.8 952L619.7 952L619.7 933.0ZM650.3 946.7L650.3 946.7Q650.3 945.8 649.3 945.3Q648.4 944.7 646.4 944.3L646.4 944.3Q639.6 942.9 639.6 938.6L639.6 938.6Q639.6 936.0 641.7 934.3Q643.8 932.6 647.2 932.6L647.2 932.6Q650.8 932.6 653.0 934.3Q655.1 936.0 655.1 938.8L655.1 938.8L650.1 938.8Q650.1 937.7 649.4 937.0Q648.7 936.3 647.2 936.3L647.2 936.3Q645.9 936.3 645.2 936.8Q644.5 937.4 644.5 938.3L644.5 938.3Q644.5 939.2 645.3 939.7Q646.1 940.2 648.0 940.6Q649.9 940.9 651.2 941.4L651.2 941.4Q655.2 942.9 655.2 946.5L655.2 946.5Q655.2 949.1 653.0 950.7Q650.7 952.4 647.2 952.4L647.2 952.4Q644.8 952.4 642.9 951.5Q641.1 950.6 640.0 949.2Q639.0 947.7 639.0 946.0L639.0 946.0L643.8 946.0Q643.9 947.3 644.8 948.0Q645.7 948.7 647.3 948.7L647.3 948.7Q648.8 948.7 649.5 948.2Q650.3 947.6 650.3 946.7ZM663.8 933.0L663.8 952L658.7 952L658.7 933.0L663.8 933.0ZM658.4 928.1L658.4 928.1Q658.4 926.9 659.2 926.2Q660.0 925.4 661.3 925.4L661.3 925.4Q662.6 925.4 663.3 926.2Q664.1 926.9 664.1 928.1L664.1 928.1Q664.1 929.2 663.3 930.0Q662.6 930.7 661.3 930.7Q660.0 930.7 659.2 930.0Q658.4 929.2 658.4 928.1ZM678.3 946.7L678.3 946.7Q678.3 945.8 677.4 945.3Q676.5 944.7 674.4 944.3L674.4 944.3Q667.6 942.9 667.6 938.6L667.6 938.6Q667.6 936.0 669.7 934.3Q671.8 932.6 675.2 932.6L675.2 932.6Q678.8 932.6 681.0 934.3Q683.2 936.0 683.2 938.8L683.2 938.8L678.1 938.8Q678.1 937.7 677.4 937.0Q676.7 936.3 675.2 936.3L675.2 936.3Q673.9 936.3 673.2 936.8Q672.5 937.4 672.5 938.3L672.5 938.3Q672.5 939.2 673.3 939.7Q674.1 940.2 676.0 940.6Q677.9 940.9 679.2 941.4L679.2 941.4Q683.2 942.9 683.2 946.5L683.2 946.5Q683.2 949.1 681.0 950.7Q678.8 952.4 675.2 952.4L675.2 952.4Q672.9 952.4 671.0 951.5Q669.1 950.6 668.1 949.2Q667.0 947.7 667.0 946.0L667.0 946.0L671.9 946.0Q671.9 947.3 672.9 948.0Q673.8 948.7 675.4 948.7L675.4 948.7Q676.8 948.7 677.6 948.2Q678.3 947.6 678.3 946.7ZM687.5 928.3L692.6 928.3L692.6 933.0L695.8 933.0L695.8 936.7L692.6 936.7L692.6 946.2Q692.6 947.3 693 947.7Q693.4 948.2 694.5 948.2L694.5 948.2Q695.4 948.2 696.0 948.0L696.0 948.0L696.0 951.9Q694.5 952.4 693.0 952.4L693.0 952.4Q687.6 952.4 687.5 947.0L687.5 947.0L687.5 936.7L684.7 936.7L684.7 933.0L687.5 933.0L687.5 928.3ZM707.4 952.4L707.4 952.4Q703.2 952.4 700.6 949.8Q698.0 947.2 698.0 942.9L698.0 942.9L698.0 942.5Q698.0 939.6 699.1 937.3Q700.2 935.1 702.2 933.9Q704.3 932.6 706.9 932.6L706.9 932.6Q710.8 932.6 713.0 935.1Q715.3 937.6 715.3 942.1L715.3 942.1L715.3 944.1L703.1 944.1Q703.4 946.0 704.6 947.1Q705.9 948.3 707.8 948.3L707.8 948.3Q710.7 948.3 712.4 946.1L712.4 946.1L714.8 948.9Q713.7 950.5 711.8 951.4Q709.8 952.4 707.4 952.4ZM706.9 936.7L706.9 936.7Q705.3 936.7 704.4 937.8Q703.5 938.8 703.2 940.7L703.2 940.7L710.3 940.7L710.3 940.3Q710.2 938.6 709.3 937.7Q708.5 936.7 706.9 936.7ZM718.0 933.0L722.8 933.0L723.0 935.2Q725.0 932.6 728.4 932.6L728.4 932.6Q731.5 932.6 732.9 934.4Q734.4 936.2 734.4 939.7L734.4 939.7L734.4 952L729.4 952L729.4 939.8Q729.4 938.2 728.7 937.5Q728.0 936.8 726.3 936.8L726.3 936.8Q724.2 936.8 723.1 938.6L723.1 938.6L723.1 952L718.0 952L718.0 933.0ZM739.3 928.3L744.4 928.3L744.4 933.0L747.6 933.0L747.6 936.7L744.4 936.7L744.4 946.2Q744.4 947.3 744.8 947.7Q745.2 948.2 746.3 948.2L746.3 948.2Q747.2 948.2 747.8 948.0L747.8 948.0L747.8 951.9Q746.3 952.4 744.8 952.4L744.8 952.4Q739.4 952.4 739.3 947.0L739.3 947.0L739.3 936.7L736.5 936.7L736.5 933.0L739.3 933.0L739.3 928.3Z M759.2 942.3L759.2 942.3Q759.2 937.9 761.2 935.3Q763.2 932.6 766.6 932.6L766.6 932.6Q769.4 932.6 771.2 934.7L771.2 934.7L771.2 925L776.3 925L776.3 952L771.7 952L771.5 950.0Q769.6 952.4 766.6 952.4L766.6 952.4Q763.2 952.4 761.2 949.7Q759.2 947.1 759.2 942.3ZM764.2 942.7L764.2 942.7Q764.2 945.4 765.2 946.8Q766.1 948.2 767.9 948.2L767.9 948.2Q770.2 948.2 771.2 946.3L771.2 946.3L771.2 938.7Q770.3 936.8 767.9 936.8L767.9 936.8Q764.2 936.8 764.2 942.7ZM779.4 942.5L779.4 942.3Q779.4 939.5 780.5 937.3Q781.6 935.1 783.7 933.8Q785.7 932.6 788.4 932.6L788.4 932.6Q792.3 932.6 794.7 935.0Q797.1 937.3 797.4 941.4L797.4 941.4L797.5 942.7Q797.5 947.1 795.0 949.7Q792.6 952.4 788.5 952.4Q784.3 952.4 781.9 949.7Q779.4 947.1 779.4 942.5L779.4 942.5ZM784.5 942.7L784.5 942.7Q784.5 945.4 785.5 946.8Q786.6 948.3 788.5 948.3L788.5 948.3Q790.3 948.3 791.3 946.8Q792.4 945.4 792.4 942.3L792.4 942.3Q792.4 939.7 791.3 938.2Q790.3 936.7 788.4 936.7L788.4 936.7Q786.6 936.7 785.5 938.2Q784.5 939.6 784.5 942.7ZM810.9 946.7L810.9 946.7Q810.9 945.8 810.0 945.3Q809.0 944.7 807.0 944.3L807.0 944.3Q800.2 942.9 800.2 938.6L800.2 938.6Q800.2 936.0 802.3 934.3Q804.4 932.6 807.8 932.6L807.8 932.6Q811.4 932.6 813.6 934.3Q815.8 936.0 815.8 938.8L815.8 938.8L810.7 938.8Q810.7 937.7 810.0 937.0Q809.3 936.3 807.8 936.3L807.8 936.3Q806.5 936.3 805.8 936.8Q805.1 937.4 805.1 938.3L805.1 938.3Q805.1 939.2 805.9 939.7Q806.7 940.2 808.6 940.6Q810.5 940.9 811.8 941.4L811.8 941.4Q815.8 942.9 815.8 946.5L815.8 946.5Q815.8 949.1 813.6 950.7Q811.4 952.4 807.8 952.4L807.8 952.4Q805.4 952.4 803.6 951.5Q801.7 950.6 800.7 949.2Q799.6 947.7 799.6 946.0L799.6 946.0L804.4 946.0Q804.5 947.3 805.4 948.0Q806.4 948.7 807.9 948.7L807.9 948.7Q809.4 948.7 810.1 948.2Q810.9 947.6 810.9 946.7ZM824.5 933.0L824.5 952L819.4 952L819.4 933.0L824.5 933.0ZM819.1 928.1L819.1 928.1Q819.1 926.9 819.8 926.2Q820.6 925.4 821.9 925.4L821.9 925.4Q823.2 925.4 824.0 926.2Q824.8 926.9 824.8 928.1L824.8 928.1Q824.8 929.2 824.0 930.0Q823.2 930.7 821.9 930.7Q820.6 930.7 819.8 930.0Q819.1 929.2 819.1 928.1ZM828.5 933.0L833.3 933.0L833.5 935.2Q835.5 932.6 838.9 932.6L838.9 932.6Q842.0 932.6 843.4 934.4Q844.9 936.2 845.0 939.7L845.0 939.7L845.0 952L839.9 952L839.9 939.8Q839.9 938.2 839.2 937.5Q838.5 936.8 836.8 936.8L836.8 936.8Q834.7 936.8 833.6 938.6L833.6 938.6L833.6 952L828.5 952L828.5 933.0ZM848.1 942.6L848.1 942.3Q848.1 938.0 850.2 935.3Q852.2 932.6 855.8 932.6L855.8 932.6Q858.9 932.6 860.6 934.8L860.6 934.8L860.8 933.0L865.5 933.0L865.5 951.4Q865.5 953.9 864.3 955.7Q863.2 957.6 861.1 958.5Q859.1 959.5 856.3 959.5L856.3 959.5Q854.2 959.5 852.2 958.7Q850.3 957.8 849.2 956.5L849.2 956.5L851.5 953.4Q853.4 955.5 856.1 955.5L856.1 955.5Q858.1 955.5 859.2 954.5Q860.4 953.4 860.4 951.4L860.4 951.4L860.4 950.4Q858.6 952.4 855.7 952.4L855.7 952.4Q852.3 952.4 850.2 949.7Q848.1 947.0 848.1 942.6L848.1 942.6ZM853.2 942.7L853.2 942.7Q853.2 945.3 854.2 946.8Q855.2 948.2 857.0 948.2L857.0 948.2Q859.4 948.2 860.4 946.5L860.4 946.5L860.4 938.5Q859.3 936.8 857.1 936.8L857.1 936.8Q855.2 936.8 854.2 938.3Q853.2 939.7 853.2 942.7Z M894.1 952L889.0 952Q888.6 951.3 888.5 950.3L888.5 950.3Q886.6 952.4 883.7 952.4L883.7 952.4Q880.9 952.4 879.0 950.7Q877.2 949.1 877.2 946.7L877.2 946.7Q877.2 943.6 879.4 942.0Q881.7 940.4 885.9 940.4L885.9 940.4L888.3 940.4L888.3 939.3Q888.3 938.0 887.6 937.2Q886.9 936.4 885.4 936.4L885.4 936.4Q884.2 936.4 883.4 937.0Q882.7 937.6 882.7 938.7L882.7 938.7L877.6 938.7Q877.6 937.0 878.6 935.6Q879.7 934.2 881.5 933.4Q883.4 932.6 885.7 932.6L885.7 932.6Q889.2 932.6 891.3 934.4Q893.3 936.2 893.3 939.4L893.3 939.4L893.3 947.6Q893.4 950.3 894.1 951.7L894.1 951.7L894.1 952ZM884.8 948.5L884.8 948.5Q885.9 948.5 886.8 948.0Q887.8 947.5 888.3 946.6L888.3 946.6L888.3 943.4L886.4 943.4Q882.5 943.4 882.3 946.0L882.3 946.0L882.3 946.3Q882.3 947.2 882.9 947.9Q883.6 948.5 884.8 948.5ZM897.1 933.0L901.9 933.0L902.1 935.2Q904.1 932.6 907.6 932.6L907.6 932.6Q910.6 932.6 912.1 934.4Q913.5 936.2 913.6 939.7L913.6 939.7L913.6 952L908.5 952L908.5 939.8Q908.5 938.2 907.8 937.5Q907.1 936.8 905.4 936.8L905.4 936.8Q903.3 936.8 902.2 938.6L902.2 938.6L902.2 952L897.1 952L897.1 933.0ZM916.6 942.3L916.6 942.3Q916.6 937.9 918.6 935.3Q920.6 932.6 924.1 932.6L924.1 932.6Q926.9 932.6 928.7 934.7L928.7 934.7L928.7 925L933.8 925L933.8 952L929.2 952L928.9 950.0Q927.0 952.4 924.0 952.4L924.0 952.4Q920.7 952.4 918.7 949.7Q916.6 947.1 916.6 942.3ZM921.7 942.7L921.7 942.7Q921.7 945.4 922.6 946.8Q923.6 948.2 925.3 948.2L925.3 948.2Q927.7 948.2 928.7 946.3L928.7 946.3L928.7 938.7Q927.7 936.8 925.4 936.8L925.4 936.8Q921.7 936.8 921.7 942.7Z M946.8 933.0L951.6 933.0L951.8 935.2Q953.8 932.6 957.3 932.6L957.3 932.6Q960.3 932.6 961.8 934.4Q963.2 936.2 963.3 939.7L963.3 939.7L963.3 952L958.2 952L958.2 939.8Q958.2 938.2 957.5 937.5Q956.8 936.8 955.1 936.8L955.1 936.8Q953.0 936.8 951.9 938.6L951.9 938.6L951.9 952L946.8 952L946.8 933.0ZM966.3 942.5L966.3 942.3Q966.3 939.5 967.4 937.3Q968.5 935.1 970.5 933.8Q972.6 932.6 975.3 932.6L975.3 932.6Q979.2 932.6 981.6 935.0Q984.0 937.3 984.3 941.4L984.3 941.4L984.3 942.7Q984.3 947.1 981.9 949.7Q979.5 952.4 975.3 952.4Q971.2 952.4 968.8 949.7Q966.3 947.1 966.3 942.5L966.3 942.5ZM971.4 942.7L971.4 942.7Q971.4 945.4 972.4 946.8Q973.4 948.3 975.3 948.3L975.3 948.3Q977.2 948.3 978.2 946.8Q979.3 945.4 979.3 942.3L979.3 942.3Q979.3 939.7 978.2 938.2Q977.2 936.7 975.3 936.7L975.3 936.7Q973.4 936.7 972.4 938.2Q971.4 939.6 971.4 942.7Z M419.2 989.3L419.2 989.3Q419.2 984.8 421.2 982.2Q423.2 979.6 426.6 979.6L426.6 979.6Q429.7 979.6 431.5 982.0L431.5 982.0L431.8 980.0L436.3 980.0L436.3 1006.3L431.2 1006.3L431.2 997.4Q429.4 999.4 426.6 999.4L426.6 999.4Q423.2 999.4 421.2 996.7Q419.2 994.1 419.2 989.3ZM424.2 989.7L424.2 989.7Q424.2 992.4 425.2 993.8Q426.2 995.3 427.9 995.3L427.9 995.3Q430.2 995.3 431.2 993.4L431.2 993.4L431.2 985.5Q430.3 983.7 427.9 983.7L427.9 983.7Q426.2 983.7 425.2 985.2Q424.2 986.6 424.2 989.7ZM451.8 999L451.7 997.1Q449.8 999.4 446.5 999.4L446.5 999.4Q443.4 999.4 441.8 997.6Q440.2 995.8 440.2 992.4L440.2 992.4L440.2 980.0L445.2 980.0L445.2 992.3Q445.2 995.2 448.0 995.2L448.0 995.2Q450.5 995.2 451.5 993.4L451.5 993.4L451.5 980.0L456.6 980.0L456.6 999L451.8 999ZM476.6 999L471.5 999Q471.1 998.3 470.9 997.3L470.9 997.3Q469.1 999.4 466.1 999.4L466.1 999.4Q463.4 999.4 461.5 997.7Q459.7 996.1 459.7 993.7L459.7 993.7Q459.7 990.6 461.9 989.0Q464.2 987.4 468.4 987.4L468.4 987.4L470.7 987.4L470.7 986.3Q470.7 985.0 470.1 984.2Q469.4 983.4 467.9 983.4L467.9 983.4Q466.6 983.4 465.9 984.0Q465.2 984.6 465.2 985.7L465.2 985.7L460.1 985.7Q460.1 984.0 461.1 982.6Q462.1 981.2 464.0 980.4Q465.9 979.6 468.2 979.6L468.2 979.6Q471.7 979.6 473.8 981.4Q475.8 983.2 475.8 986.4L475.8 986.4L475.8 994.6Q475.8 997.3 476.6 998.7L476.6 998.7L476.6 999ZM467.3 995.5L467.3 995.5Q468.4 995.5 469.3 995.0Q470.3 994.5 470.7 993.6L470.7 993.6L470.7 990.4L468.8 990.4Q465.0 990.4 464.8 993.0L464.8 993.0L464.8 993.3Q464.8 994.2 465.4 994.9Q466.1 995.5 467.3 995.5ZM485.1 972L485.1 999L480.0 999L480.0 972L485.1 972ZM494.6 980.0L494.6 999L489.5 999L489.5 980.0L494.6 980.0ZM489.2 975.1L489.2 975.1Q489.2 973.9 490.0 973.2Q490.8 972.4 492.1 972.4L492.1 972.4Q493.4 972.4 494.2 973.2Q494.9 973.9 494.9 975.1L494.9 975.1Q494.9 976.2 494.2 977.0Q493.4 977.7 492.1 977.7Q490.8 977.7 490.0 977.0Q489.2 976.2 489.2 975.1ZM499.8 975.3L504.9 975.3L504.9 980.0L508.2 980.0L508.2 983.7L504.9 983.7L504.9 993.2Q504.9 994.3 505.3 994.7Q505.7 995.2 506.9 995.2L506.9 995.2Q507.7 995.2 508.4 995.0L508.4 995.0L508.4 998.9Q506.9 999.4 505.3 999.4L505.3 999.4Q499.9 999.4 499.8 994.0L499.8 994.0L499.8 983.7L497.0 983.7L497.0 980.0L499.8 980.0L499.8 975.3ZM514.6 980.0L518.1 991.8L521.6 980.0L527.1 980.0L519.4 1002.0L519.0 1003.0Q517.3 1006.7 513.4 1006.7L513.4 1006.7Q512.3 1006.7 511.1 1006.3L511.1 1006.3L511.1 1002.5L511.9 1002.5Q513.3 1002.5 514.0 1002.1Q514.8 1001.6 515.2 1000.6L515.2 1000.6L515.8 999.1L509.1 980.0L514.6 980.0Z M546.9 995.3L546.9 995.3Q548.3 995.3 549.1 994.5Q550.0 993.7 550.1 992.4L550.1 992.4L554.8 992.4Q554.8 994.4 553.8 996.0Q552.7 997.6 550.9 998.5Q549.1 999.4 546.9 999.4L546.9 999.4Q542.9 999.4 540.5 996.8Q538.2 994.2 538.2 989.6L538.2 989.6L538.2 989.3Q538.2 984.9 540.5 982.2Q542.8 979.6 546.9 979.6L546.9 979.6Q550.5 979.6 552.6 981.7Q554.8 983.7 554.8 987.1L554.8 987.1L550.1 987.1Q550.0 985.6 549.1 984.7Q548.3 983.7 546.8 983.7L546.8 983.7Q545.1 983.7 544.1 985.0Q543.2 986.3 543.2 989.2L543.2 989.2L543.2 989.8Q543.2 992.7 544.1 994.0Q545.0 995.3 546.9 995.3ZM556.9 989.5L556.9 989.3Q556.9 986.5 558.0 984.3Q559.1 982.1 561.2 980.8Q563.2 979.6 565.9 979.6L565.9 979.6Q569.8 979.6 572.2 982.0Q574.6 984.3 574.9 988.4L574.9 988.4L575.0 989.7Q575.0 994.1 572.5 996.7Q570.1 999.4 566.0 999.4Q561.8 999.4 559.4 996.7Q556.9 994.1 556.9 989.5L556.9 989.5ZM562.0 989.7L562.0 989.7Q562.0 992.4 563.0 993.8Q564.1 995.3 566.0 995.3L566.0 995.3Q567.8 995.3 568.8 993.8Q569.9 992.4 569.9 989.3L569.9 989.3Q569.9 986.7 568.8 985.2Q567.8 983.7 565.9 983.7L565.9 983.7Q564.1 983.7 563.0 985.2Q562.0 986.6 562.0 989.7ZM578.0 980.0L582.8 980.0L582.9 982.2Q585.0 979.6 588.4 979.6L588.4 979.6Q591.4 979.6 592.9 981.4Q594.4 983.2 594.4 986.7L594.4 986.7L594.4 999L589.3 999L589.3 986.8Q589.3 985.2 588.6 984.5Q587.9 983.8 586.3 983.8L586.3 983.8Q584.1 983.8 583.1 985.6L583.1 985.6L583.1 999L578.0 999L578.0 980.0ZM599.2 975.3L604.3 975.3L604.3 980.0L607.6 980.0L607.6 983.7L604.3 983.7L604.3 993.2Q604.3 994.3 604.7 994.7Q605.1 995.2 606.3 995.2L606.3 995.2Q607.1 995.2 607.8 995.0L607.8 995.0L607.8 998.9Q606.3 999.4 604.7 999.4L604.7 999.4Q599.3 999.4 599.2 994.0L599.2 994.0L599.2 983.7L596.5 983.7L596.5 980.0L599.2 980.0L599.2 975.3ZM621.2 979.9L621.1 984.7Q620.1 984.6 619.3 984.6L619.3 984.6Q616.4 984.6 615.5 986.6L615.5 986.6L615.5 999L610.4 999L610.4 980.0L615.2 980.0L615.3 982.2Q616.9 979.6 619.6 979.6L619.6 979.6Q620.4 979.6 621.2 979.9L621.2 979.9ZM622.1 989.5L622.1 989.3Q622.1 986.5 623.2 984.3Q624.3 982.1 626.3 980.8Q628.4 979.6 631.1 979.6L631.1 979.6Q634.9 979.6 637.4 982.0Q639.8 984.3 640.1 988.4L640.1 988.4L640.1 989.7Q640.1 994.1 637.7 996.7Q635.2 999.4 631.1 999.4Q627.0 999.4 624.6 996.7Q622.1 994.1 622.1 989.5L622.1 989.5ZM627.2 989.7L627.2 989.7Q627.2 992.4 628.2 993.8Q629.2 995.3 631.1 995.3L631.1 995.3Q633.0 995.3 634.0 993.8Q635.1 992.4 635.1 989.3L635.1 989.3Q635.1 986.7 634.0 985.2Q633.0 983.7 631.1 983.7L631.1 983.7Q629.2 983.7 628.2 985.2Q627.2 986.6 627.2 989.7ZM648.6 972L648.6 999L643.5 999L643.5 972L648.6 972ZM653.1 996.5L653.1 996.5Q653.1 995.3 653.9 994.5Q654.7 993.8 655.9 993.8L655.9 993.8Q657.2 993.8 658.0 994.5Q658.8 995.3 658.8 996.5L658.8 996.5Q658.8 997.7 658.0 998.4Q657.2 999.2 655.9 999.2L655.9 999.2Q654.7 999.2 653.9 998.4Q653.1 997.7 653.1 996.5Z "/></g><defs><clipPath id="satori_bc-id-1" clip-path="url(#satori_cp-id)"><rect x="0" y="1210" width="1080" height="140"/></clipPath></defs><mask id="satori_om-id-1"><rect x="0" y="1213" width="1080" height="137" fill="#fff" mask="url(#satori_om-id)"/><path width="1080" height="140" fill="none" stroke="#000" stroke-width="6" d="M0,1210 A0,0 0 0 1 0,1210 h1080 A0,0 0 0 1 1080,1210"/></mask><rect x="0" y="1210" width="1080" height="140" fill="#FFFFFF" clip-path="url(#satori_cp-id)" mask="url(#satori_om-id)"/><path width="1080" height="140" clip-path="url(#satori_bc-id-1)" fill="none" stroke="#16697A" stroke-width="6" d="M0,1210 A0,0 0 0 1 0,1210 h1080 A0,0 0 0 1 1080,1210"/><mask id="satori_om-id-1-0"><rect x="389" y="1242" width="80" height="80" fill="#fff" mask="url(#satori_om-id)"/></mask><path x="389" y="1242" width="80" height="80" fill="#16697A" d="M429,1242 h0 a40,40 0 0 1 40,40 v0 a40,40 0 0 1 -40,40 h0 a40,40 0 0 1 -40,-40 v0 a40,40 0 0 1 40,-40" clip-path="url(#satori_cp-id)" mask="url(#satori_om-id)"/><mask id="satori_om-id-1-0-0"><rect x="417" y="1261" width="24" height="42" fill="#fff" mask="url(#satori_om-id)"/></mask><g mask="url(#satori_om-id)" clip-path="url(#satori_cp-id)"><path fill="#FFFFFF" d="M427.2 1294L419.3 1294L419.3 1268.4L427.2 1268.4Q430.5 1268.4 433.2 1269.9Q435.9 1271.4 437.4 1274.3Q438.8 1277.1 438.8 1280.6L438.8 1280.6L438.8 1281.8Q438.8 1285.4 437.4 1288.1Q435.9 1290.9 433.2 1292.5Q430.6 1294.0 427.2 1294L427.2 1294ZM427.2 1272.7L424.6 1272.7L424.6 1289.8L427.1 1289.8Q430.2 1289.8 431.8 1287.7Q433.5 1285.7 433.5 1282.0L433.5 1282.0L433.5 1280.6Q433.5 1276.7 431.9 1274.7Q430.3 1272.7 427.2 1272.7L427.2 1272.7Z "/></g><mask id="satori_om-id-1-1"><rect x="493" y="1254" width="198" height="55" fill="#fff" mask="url(#satori_om-id)"/></mask><mask id="satori_om-id-1-1-0"><rect x="493" y="1254" width="198" height="28" fill="#fff" mask="url(#satori_om-id)"/></mask><g mask="url(#satori_om-id)" clip-path="url(#satori_cp-id)"><path fill="#2F3E46" d="M499.8 1276L494.5 1276L494.5 1258.9L499.8 1258.9Q502.0 1258.9 503.8 1260.0Q505.6 1261.0 506.6 1262.8Q507.6 1264.7 507.6 1267.1L507.6 1267.1L507.6 1267.9Q507.6 1270.2 506.6 1272.1Q505.6 1273.9 503.8 1275.0Q502.0 1276.0 499.8 1276L499.8 1276ZM499.8 1261.8L498.0 1261.8L498.0 1273.2L499.7 1273.2Q501.8 1273.2 502.9 1271.8Q504.0 1270.5 504.0 1268.0L504.0 1268.0L504.0 1267.1Q504.0 1264.5 502.9 1263.1Q501.8 1261.8 499.8 1261.8L499.8 1261.8ZM517.1 1263.2L517.0 1266.5Q516.3 1266.4 515.8 1266.4L515.8 1266.4Q513.9 1266.4 513.3 1267.7L513.3 1267.7L513.3 1276L509.9 1276L509.9 1263.3L513.1 1263.3L513.2 1264.8Q514.2 1263.1 516.0 1263.1L516.0 1263.1Q516.6 1263.1 517.1 1263.2L517.1 1263.2ZM516.8 1274.3L516.8 1274.3Q516.8 1273.5 517.3 1273.0Q517.9 1272.5 518.7 1272.5L518.7 1272.5Q519.5 1272.5 520.1 1273.0Q520.6 1273.5 520.6 1274.3L520.6 1274.3Q520.6 1275.1 520.1 1275.6Q519.6 1276.1 518.7 1276.1L518.7 1276.1Q517.9 1276.1 517.3 1275.6Q516.8 1275.1 516.8 1274.3Z M540.7 1271.5L540.7 1271.5Q540.7 1270.5 540.0 1270.0Q539.3 1269.5 537.4 1268.9Q535.6 1268.3 534.5 1267.7L534.5 1267.7Q531.6 1266.1 531.6 1263.5L531.6 1263.5Q531.6 1262.1 532.4 1261.0Q533.2 1259.9 534.7 1259.3Q536.1 1258.7 537.9 1258.7L537.9 1258.7Q539.8 1258.7 541.2 1259.4Q542.6 1260.0 543.4 1261.2Q544.2 1262.4 544.2 1264.0L544.2 1264.0L540.7 1264.0Q540.7 1262.8 539.9 1262.2Q539.2 1261.5 537.9 1261.5L537.9 1261.5Q536.6 1261.5 535.9 1262.0Q535.2 1262.6 535.2 1263.5L535.2 1263.5Q535.2 1264.3 536.0 1264.9Q536.8 1265.4 538.5 1265.9L538.5 1265.9Q541.5 1266.8 542.8 1268.2Q544.2 1269.5 544.2 1271.5L544.2 1271.5Q544.2 1273.7 542.5 1275.0Q540.8 1276.2 538.0 1276.2L538.0 1276.2Q536.0 1276.2 534.4 1275.5Q532.8 1274.8 532.0 1273.5Q531.1 1272.3 531.1 1270.6L531.1 1270.6L534.6 1270.6Q534.6 1273.5 538.0 1273.5L538.0 1273.5Q539.3 1273.5 540.0 1272.9Q540.7 1272.4 540.7 1271.5ZM549.7 1258L549.7 1264.7Q551.0 1263.1 553.0 1263.1L553.0 1263.1Q557.2 1263.1 557.2 1267.9L557.2 1267.9L557.2 1276L553.8 1276L553.8 1268.0Q553.8 1266.9 553.4 1266.4Q552.9 1265.8 551.8 1265.8L551.8 1265.8Q550.3 1265.8 549.7 1267.0L549.7 1267.0L549.7 1276L546.3 1276L546.3 1258L549.7 1258ZM570.6 1276L567.1 1276Q566.9 1275.5 566.8 1274.9L566.8 1274.9Q565.6 1276.2 563.6 1276.2L563.6 1276.2Q561.7 1276.2 560.5 1275.2Q559.3 1274.1 559.3 1272.4L559.3 1272.4Q559.3 1270.4 560.8 1269.3Q562.3 1268.3 565.1 1268.3L565.1 1268.3L566.7 1268.3L566.7 1267.5Q566.7 1266.6 566.2 1266.1Q565.8 1265.6 564.8 1265.6L564.8 1265.6Q563.9 1265.6 563.4 1266.0Q562.9 1266.4 562.9 1267.1L562.9 1267.1L559.6 1267.1Q559.6 1266.0 560.2 1265.1Q560.9 1264.2 562.2 1263.6Q563.4 1263.1 565.0 1263.1L565.0 1263.1Q567.3 1263.1 568.7 1264.3Q570.1 1265.4 570.1 1267.6L570.1 1267.6L570.1 1273.1Q570.1 1274.9 570.6 1275.8L570.6 1275.8L570.6 1276ZM564.3 1273.6L564.3 1273.6Q565.1 1273.6 565.7 1273.3Q566.3 1273.0 566.7 1272.4L566.7 1272.4L566.7 1270.2L565.4 1270.2Q562.8 1270.2 562.7 1272.0L562.7 1272.0L562.7 1272.2Q562.7 1272.8 563.1 1273.2Q563.6 1273.6 564.3 1273.6ZM576.2 1263.3L576.2 1276L572.8 1276L572.8 1263.3L576.2 1263.3ZM572.6 1260.0L572.6 1260.0Q572.6 1259.3 573.1 1258.8Q573.6 1258.3 574.5 1258.3L574.5 1258.3Q575.4 1258.3 575.9 1258.8Q576.4 1259.3 576.4 1260.0L576.4 1260.0Q576.4 1260.8 575.9 1261.3Q575.4 1261.8 574.5 1261.8Q573.7 1261.8 573.2 1261.3Q572.6 1260.8 572.6 1260.0ZM582.6 1258L582.6 1276L579.2 1276L579.2 1258L582.6 1258ZM591.2 1276.2L591.2 1276.2Q588.4 1276.2 586.7 1274.5Q584.9 1272.8 584.9 1270.0L584.9 1270.0L584.9 1269.6Q584.9 1267.7 585.7 1266.2Q586.4 1264.7 587.8 1263.9Q589.1 1263.1 590.8 1263.1L590.8 1263.1Q593.4 1263.1 594.9 1264.7Q596.4 1266.4 596.4 1269.4L596.4 1269.4L596.4 1270.8L588.4 1270.8Q588.5 1272.0 589.3 1272.8Q590.2 1273.5 591.4 1273.5L591.4 1273.5Q593.4 1273.5 594.5 1272.1L594.5 1272.1L596.2 1273.9Q595.4 1275.0 594.1 1275.6Q592.8 1276.2 591.2 1276.2ZM590.8 1265.8L590.8 1265.8Q589.8 1265.8 589.2 1266.5Q588.6 1267.2 588.4 1268.5L588.4 1268.5L593.1 1268.5L593.1 1268.2Q593.1 1267.1 592.5 1266.4Q591.9 1265.8 590.8 1265.8ZM605.2 1272.5L605.2 1272.5Q605.2 1271.9 604.6 1271.5Q604.0 1271.2 602.6 1270.9L602.6 1270.9Q598.1 1269.9 598.1 1267.0L598.1 1267.0Q598.1 1265.3 599.5 1264.2Q600.9 1263.1 603.2 1263.1L603.2 1263.1Q605.6 1263.1 607.0 1264.2Q608.5 1265.4 608.5 1267.2L608.5 1267.2L605.1 1267.2Q605.1 1266.4 604.6 1266.0Q604.2 1265.5 603.2 1265.5L603.2 1265.5Q602.3 1265.5 601.8 1265.9Q601.4 1266.3 601.4 1266.9L601.4 1266.9Q601.4 1267.4 601.9 1267.8Q602.4 1268.1 603.7 1268.4Q605.0 1268.6 605.8 1268.9L605.8 1268.9Q608.5 1269.9 608.5 1272.4L608.5 1272.4Q608.5 1274.1 607.0 1275.2Q605.5 1276.2 603.2 1276.2L603.2 1276.2Q601.6 1276.2 600.3 1275.7Q599.1 1275.1 598.4 1274.1Q597.7 1273.1 597.7 1272.0L597.7 1272.0L600.9 1272.0Q601.0 1272.9 601.6 1273.4Q602.2 1273.8 603.3 1273.8L603.3 1273.8Q604.2 1273.8 604.7 1273.5Q605.2 1273.1 605.2 1272.5ZM614.0 1258L614.0 1264.7Q615.3 1263.1 617.4 1263.1L617.4 1263.1Q621.5 1263.1 621.6 1267.9L621.6 1267.9L621.6 1276L618.2 1276L618.2 1268.0Q618.2 1266.9 617.7 1266.4Q617.2 1265.8 616.2 1265.8L616.2 1265.8Q614.7 1265.8 614.0 1267.0L614.0 1267.0L614.0 1276L610.6 1276L610.6 1258L614.0 1258Z M639.2 1271.5L639.2 1271.5Q639.2 1270.5 638.5 1270.0Q637.8 1269.5 635.9 1268.9Q634.1 1268.3 633.0 1267.7L633.0 1267.7Q630.1 1266.1 630.1 1263.5L630.1 1263.5Q630.1 1262.1 630.9 1261.0Q631.7 1259.9 633.2 1259.3Q634.6 1258.7 636.4 1258.7L636.4 1258.7Q638.3 1258.7 639.7 1259.4Q641.1 1260.0 641.9 1261.2Q642.7 1262.4 642.7 1264.0L642.7 1264.0L639.2 1264.0Q639.2 1262.8 638.4 1262.2Q637.7 1261.5 636.4 1261.5L636.4 1261.5Q635.1 1261.5 634.4 1262.0Q633.6 1262.6 633.6 1263.5L633.6 1263.5Q633.6 1264.3 634.5 1264.9Q635.3 1265.4 637.0 1265.9L637.0 1265.9Q640.0 1266.8 641.3 1268.2Q642.7 1269.5 642.7 1271.5L642.7 1271.5Q642.7 1273.7 641.0 1275.0Q639.3 1276.2 636.5 1276.2L636.5 1276.2Q634.5 1276.2 632.9 1275.5Q631.3 1274.8 630.5 1273.5Q629.6 1272.3 629.6 1270.6L629.6 1270.6L633.1 1270.6Q633.1 1273.5 636.5 1273.5L636.5 1273.5Q637.8 1273.5 638.5 1272.9Q639.2 1272.4 639.2 1271.5ZM648.4 1263.3L648.4 1276L645.0 1276L645.0 1263.3L648.4 1263.3ZM644.8 1260.0L644.8 1260.0Q644.8 1259.3 645.3 1258.8Q645.8 1258.3 646.7 1258.3L646.7 1258.3Q647.6 1258.3 648.1 1258.8Q648.6 1259.3 648.6 1260.0L648.6 1260.0Q648.6 1260.8 648.1 1261.3Q647.6 1261.8 646.7 1261.8Q645.9 1261.8 645.3 1261.3Q644.8 1260.8 644.8 1260.0ZM651.1 1263.3L654.3 1263.3L654.4 1264.8Q655.8 1263.1 658.1 1263.1L658.1 1263.1Q660.1 1263.1 661.1 1264.3Q662.1 1265.5 662.1 1267.8L662.1 1267.8L662.1 1276L658.7 1276L658.7 1267.9Q658.7 1266.8 658.2 1266.3Q657.8 1265.8 656.7 1265.8L656.7 1265.8Q655.2 1265.8 654.5 1267.1L654.5 1267.1L654.5 1276L651.1 1276L651.1 1263.3ZM664.2 1269.7L664.2 1269.6Q664.2 1266.6 665.6 1264.9Q666.9 1263.1 669.3 1263.1L669.3 1263.1Q671.4 1263.1 672.5 1264.5L672.5 1264.5L672.7 1263.3L675.8 1263.3L675.8 1275.6Q675.8 1277.2 675.0 1278.5Q674.2 1279.7 672.9 1280.3Q671.5 1281.0 669.7 1281.0L669.7 1281.0Q668.3 1281.0 666.9 1280.4Q665.6 1279.9 664.9 1279L664.9 1279L666.4 1276.9Q667.7 1278.4 669.5 1278.4L669.5 1278.4Q670.9 1278.4 671.6 1277.6Q672.4 1276.9 672.4 1275.6L672.4 1275.6L672.4 1274.9Q671.2 1276.2 669.3 1276.2L669.3 1276.2Q667.0 1276.2 665.6 1274.4Q664.2 1272.7 664.2 1269.7L664.2 1269.7ZM667.6 1269.8L667.6 1269.8Q667.6 1271.5 668.2 1272.5Q668.9 1273.5 670.1 1273.5L670.1 1273.5Q671.7 1273.5 672.4 1272.3L672.4 1272.3L672.4 1267Q671.7 1265.8 670.2 1265.8L670.2 1265.8Q668.9 1265.8 668.2 1266.8Q667.6 1267.8 667.6 1269.8ZM681.7 1258L681.7 1264.7Q683.0 1263.1 685.0 1263.1L685.0 1263.1Q689.2 1263.1 689.2 1267.9L689.2 1267.9L689.2 1276L685.8 1276L685.8 1268.0Q685.8 1266.9 685.4 1266.4Q684.9 1265.8 683.8 1265.8L683.8 1265.8Q682.3 1265.8 681.7 1267.0L681.7 1267.0L681.7 1276L678.3 1276L678.3 1258L681.7 1258Z "/></g><mask id="satori_om-id-1-1-1"><rect x="493" y="1286" width="198" height="23" fill="#fff" mask="url(#satori_om-id)"/></mask><g mask="url(#satori_om-id)" clip-path="url(#satori_cp-id)"><path fill="#16697A" d="M510.0 1300.1L510.0 1300.1Q509.9 1302.5 508.8 1303.8Q507.7 1305.2 506.0 1305.2L506.0 1305.2Q504.2 1305.2 503.6 1303.6L503.6 1303.6Q503.1 1304.4 502.4 1304.8Q501.8 1305.2 501.0 1305.2L501.0 1305.2Q499.6 1305.2 498.9 1304.1Q498.2 1302.9 498.4 1300.9L498.4 1300.9Q498.5 1299.3 499.1 1298.1Q499.7 1296.8 500.7 1296.1Q501.6 1295.3 502.6 1295.3L502.6 1295.3Q503.4 1295.3 504.0 1295.6Q504.7 1295.8 505.4 1296.4L505.4 1296.4L504.9 1301.8Q504.7 1304.0 506.2 1304.0L506.2 1304.0Q507.3 1304.0 508.0 1302.9Q508.7 1301.9 508.7 1300.1L508.7 1300.1Q508.9 1296.3 507.3 1294.3Q505.7 1292.3 502.4 1292.3L502.4 1292.3Q500.5 1292.3 499.0 1293.3Q497.4 1294.3 496.6 1296.1Q495.7 1297.9 495.6 1300.3L495.6 1300.3Q495.5 1302.8 496.2 1304.5Q496.9 1306.3 498.3 1307.3Q499.7 1308.2 501.8 1308.2L501.8 1308.2Q502.7 1308.2 503.5 1308.0Q504.4 1307.8 505.0 1307.4L505.0 1307.4L505.4 1308.6Q504.8 1308.9 503.8 1309.2Q502.8 1309.4 501.7 1309.4L501.7 1309.4Q499.3 1309.4 497.5 1308.3Q495.8 1307.2 494.9 1305.2Q494.0 1303.1 494.2 1300.3L494.2 1300.3Q494.3 1297.6 495.4 1295.5Q496.4 1293.4 498.3 1292.2Q500.1 1291.0 502.5 1291.0L502.5 1291.0Q504.9 1291.0 506.7 1292.1Q508.4 1293.2 509.2 1295.3Q510.1 1297.3 510.0 1300.1ZM500.0 1300.9L500.0 1300.9Q499.8 1302.3 500.2 1303.1Q500.6 1303.8 501.5 1303.8L501.5 1303.8Q502.1 1303.8 502.6 1303.3Q503.1 1302.8 503.5 1301.9L503.5 1301.9L503.5 1301.8L503.9 1296.9Q503.4 1296.6 502.8 1296.6L502.8 1296.6Q501.6 1296.6 500.9 1297.8Q500.1 1298.9 500.0 1300.9ZM514.1 1290L514.1 1295.7Q515.3 1294.2 517.3 1294.2L517.3 1294.2Q520.6 1294.2 520.6 1298.0L520.6 1298.0L520.6 1305L518.8 1305L518.8 1298.0Q518.8 1296.9 518.3 1296.3Q517.8 1295.8 516.7 1295.8L516.7 1295.8Q515.8 1295.8 515.2 1296.2Q514.5 1296.7 514.1 1297.5L514.1 1297.5L514.1 1305L512.3 1305L512.3 1290L514.1 1290ZM527.7 1305.2L527.7 1305.2Q525.6 1305.2 524.2 1303.8Q522.9 1302.4 522.9 1300.0L522.9 1300.0L522.9 1299.7Q522.9 1298.1 523.5 1296.9Q524.1 1295.6 525.2 1294.9Q526.2 1294.2 527.5 1294.2L527.5 1294.2Q529.6 1294.2 530.7 1295.6Q531.8 1297.0 531.8 1299.5L531.8 1299.5L531.8 1300.2L524.7 1300.2Q524.7 1301.8 525.6 1302.8Q526.5 1303.7 527.8 1303.7L527.8 1303.7Q528.8 1303.7 529.4 1303.3Q530.1 1302.9 530.6 1302.3L530.6 1302.3L531.7 1303.2Q530.4 1305.2 527.7 1305.2ZM527.5 1295.7L527.5 1295.7Q526.4 1295.7 525.7 1296.5Q524.9 1297.3 524.7 1298.8L524.7 1298.8L530.0 1298.8L530.0 1298.6Q530.0 1297.2 529.3 1296.5Q528.6 1295.7 527.5 1295.7ZM542.4 1305L540.5 1305Q540.3 1304.7 540.2 1303.9L540.2 1303.9Q538.9 1305.2 537.2 1305.2L537.2 1305.2Q535.6 1305.2 534.6 1304.3Q533.6 1303.4 533.6 1302.1L533.6 1302.1Q533.6 1300.4 534.9 1299.5Q536.1 1298.6 538.4 1298.6L538.4 1298.6L540.2 1298.6L540.2 1297.8Q540.2 1296.8 539.6 1296.3Q539.0 1295.7 537.9 1295.7L537.9 1295.7Q537.0 1295.7 536.3 1296.2Q535.7 1296.7 535.7 1297.4L535.7 1297.4L533.8 1297.4Q533.8 1296.6 534.4 1295.8Q535.0 1295.1 535.9 1294.7Q536.9 1294.2 538.0 1294.2L538.0 1294.2Q539.9 1294.2 540.9 1295.2Q541.9 1296.1 542.0 1297.7L542.0 1297.7L542.0 1302.5Q542.0 1304.0 542.4 1304.8L542.4 1304.8L542.4 1305ZM537.5 1303.6L537.5 1303.6Q538.3 1303.6 539.1 1303.2Q539.8 1302.7 540.2 1302.0L540.2 1302.0L540.2 1299.9L538.8 1299.9Q535.4 1299.9 535.4 1301.8L535.4 1301.8Q535.4 1302.7 536.0 1303.1Q536.6 1303.6 537.5 1303.6ZM549.9 1294.4L549.9 1296.1Q549.5 1296.0 549.0 1296.0L549.0 1296.0Q547.3 1296.0 546.6 1297.5L546.6 1297.5L546.6 1305L544.8 1305L544.8 1294.4L546.6 1294.4L546.6 1295.7Q547.5 1294.2 549.1 1294.2L549.1 1294.2Q549.7 1294.2 549.9 1294.4L549.9 1294.4ZM552.7 1291.9L554.5 1291.9L554.5 1294.4L556.5 1294.4L556.5 1295.8L554.5 1295.8L554.5 1302.4Q554.5 1303.0 554.8 1303.3Q555.1 1303.7 555.7 1303.7L555.7 1303.7Q556.0 1303.7 556.5 1303.5L556.5 1303.5L556.5 1305Q555.8 1305.2 555.2 1305.2L555.2 1305.2Q553.9 1305.2 553.3 1304.5Q552.7 1303.7 552.7 1302.4L552.7 1302.4L552.7 1295.8L550.8 1295.8L550.8 1294.4L552.7 1294.4L552.7 1291.9ZM558.2 1299.8L558.2 1299.6Q558.2 1297.2 559.3 1295.7Q560.5 1294.2 562.3 1294.2L562.3 1294.2Q564.2 1294.2 565.3 1295.5L565.3 1295.5L565.3 1290L567.1 1290L567.1 1305L565.4 1305L565.3 1303.9Q564.3 1305.2 562.3 1305.2L562.3 1305.2Q560.5 1305.2 559.3 1303.7Q558.2 1302.2 558.2 1299.8L558.2 1299.8ZM560.0 1299.8L560.0 1299.8Q560.0 1301.6 560.7 1302.6Q561.5 1303.7 562.8 1303.7L562.8 1303.7Q564.5 1303.7 565.3 1302.1L565.3 1302.1L565.3 1297.3Q564.5 1295.8 562.8 1295.8L562.8 1295.8Q561.5 1295.8 560.7 1296.8Q560.0 1297.8 560.0 1299.8ZM569.4 1299.7L569.4 1299.6Q569.4 1298.1 570.0 1296.8Q570.6 1295.6 571.7 1294.9Q572.8 1294.2 574.2 1294.2L574.2 1294.2Q576.4 1294.2 577.7 1295.7Q579.0 1297.2 579.0 1299.7L579.0 1299.7L579.0 1299.8Q579.0 1301.4 578.4 1302.6Q577.8 1303.8 576.7 1304.5Q575.6 1305.2 574.2 1305.2L574.2 1305.2Q572.1 1305.2 570.7 1303.7Q569.4 1302.2 569.4 1299.7L569.4 1299.7ZM571.2 1299.8L571.2 1299.8Q571.2 1301.6 572.0 1302.7Q572.9 1303.7 574.2 1303.7L574.2 1303.7Q575.6 1303.7 576.4 1302.6Q577.2 1301.6 577.2 1299.6L577.2 1299.6Q577.2 1297.9 576.4 1296.8Q575.6 1295.7 574.2 1295.7L574.2 1295.7Q572.9 1295.7 572.0 1296.8Q571.2 1297.9 571.2 1299.8ZM585.5 1303.7L585.5 1303.7Q586.5 1303.7 587.2 1303.1Q587.9 1302.5 588.0 1301.7L588.0 1301.7L589.7 1301.7Q589.7 1302.6 589.1 1303.4Q588.5 1304.2 587.6 1304.7Q586.6 1305.2 585.5 1305.2L585.5 1305.2Q583.4 1305.2 582.1 1303.8Q580.8 1302.3 580.8 1299.8L580.8 1299.8L580.8 1299.5Q580.8 1298.0 581.4 1296.8Q582.0 1295.6 583.0 1294.9Q584.1 1294.2 585.5 1294.2L585.5 1294.2Q587.3 1294.2 588.5 1295.3Q589.7 1296.4 589.7 1298.1L589.7 1298.1L588.0 1298.1Q587.9 1297.0 587.2 1296.4Q586.5 1295.7 585.5 1295.7L585.5 1295.7Q584.1 1295.7 583.4 1296.7Q582.6 1297.7 582.6 1299.6L582.6 1299.6L582.6 1299.9Q582.6 1301.7 583.4 1302.7Q584.1 1303.7 585.5 1303.7ZM597.9 1302.2L597.9 1302.2Q597.9 1301.5 597.4 1301.1Q596.8 1300.7 595.4 1300.4Q594.1 1300.1 593.3 1299.7Q592.5 1299.2 592.1 1298.7Q591.7 1298.1 591.7 1297.3L591.7 1297.3Q591.7 1296.0 592.8 1295.1Q593.9 1294.2 595.6 1294.2L595.6 1294.2Q597.4 1294.2 598.5 1295.2Q599.6 1296.1 599.6 1297.5L599.6 1297.5L597.8 1297.5Q597.8 1296.8 597.2 1296.3Q596.5 1295.7 595.6 1295.7L595.6 1295.7Q594.6 1295.7 594.0 1296.2Q593.5 1296.6 593.5 1297.3L593.5 1297.3Q593.5 1297.9 594.0 1298.3Q594.5 1298.6 595.9 1298.9Q597.2 1299.2 598.1 1299.6Q598.9 1300.0 599.3 1300.6Q599.7 1301.2 599.7 1302.1L599.7 1302.1Q599.7 1303.5 598.6 1304.3Q597.5 1305.2 595.6 1305.2L595.6 1305.2Q594.4 1305.2 593.4 1304.7Q592.4 1304.3 591.9 1303.5Q591.3 1302.7 591.3 1301.7L591.3 1301.7L593.1 1301.7Q593.2 1302.7 593.9 1303.2Q594.5 1303.7 595.6 1303.7L595.6 1303.7Q596.7 1303.7 597.3 1303.3Q597.9 1302.9 597.9 1302.2ZM603.9 1290L603.9 1295.7Q605.1 1294.2 607.0 1294.2L607.0 1294.2Q610.4 1294.2 610.4 1298.0L610.4 1298.0L610.4 1305L608.6 1305L608.6 1298.0Q608.6 1296.9 608.1 1296.3Q607.5 1295.8 606.5 1295.8L606.5 1295.8Q605.6 1295.8 604.9 1296.2Q604.3 1296.7 603.9 1297.5L603.9 1297.5L603.9 1305L602.1 1305L602.1 1290L603.9 1290ZM621.5 1305L619.6 1305Q619.5 1304.7 619.4 1303.9L619.4 1303.9Q618.1 1305.2 616.3 1305.2L616.3 1305.2Q614.8 1305.2 613.8 1304.3Q612.8 1303.4 612.8 1302.1L612.8 1302.1Q612.8 1300.4 614.0 1299.5Q615.3 1298.6 617.6 1298.6L617.6 1298.6L619.3 1298.6L619.3 1297.8Q619.3 1296.8 618.8 1296.3Q618.2 1295.7 617.1 1295.7L617.1 1295.7Q616.1 1295.7 615.5 1296.2Q614.8 1296.7 614.8 1297.4L614.8 1297.4L613 1297.4Q613 1296.6 613.6 1295.8Q614.1 1295.1 615.1 1294.7Q616.0 1294.2 617.2 1294.2L617.2 1294.2Q619.0 1294.2 620.1 1295.2Q621.1 1296.1 621.1 1297.7L621.1 1297.7L621.1 1302.5Q621.1 1304.0 621.5 1304.8L621.5 1304.8L621.5 1305ZM616.6 1303.6L616.6 1303.6Q617.5 1303.6 618.2 1303.2Q619.0 1302.7 619.3 1302.0L619.3 1302.0L619.3 1299.9L617.9 1299.9Q614.6 1299.9 614.6 1301.8L614.6 1301.8Q614.6 1302.7 615.2 1303.1Q615.7 1303.6 616.6 1303.6ZM625.9 1294.4L625.9 1305L624.1 1305L624.1 1294.4L625.9 1294.4ZM624.0 1291.6L624.0 1291.6Q624.0 1291.2 624.2 1290.9Q624.5 1290.6 625.0 1290.6Q625.6 1290.6 625.8 1290.9Q626.1 1291.2 626.1 1291.6Q626.1 1292.1 625.8 1292.4Q625.6 1292.7 625.0 1292.7Q624.5 1292.7 624.2 1292.4Q624.0 1292.1 624.0 1291.6ZM630.8 1290L630.8 1305L629.0 1305L629.0 1290L630.8 1290ZM638.1 1305.2L638.1 1305.2Q635.9 1305.2 634.6 1303.8Q633.2 1302.4 633.2 1300.0L633.2 1300.0L633.2 1299.7Q633.2 1298.1 633.8 1296.9Q634.4 1295.6 635.5 1294.9Q636.6 1294.2 637.8 1294.2L637.8 1294.2Q639.9 1294.2 641.0 1295.6Q642.2 1297.0 642.2 1299.5L642.2 1299.5L642.2 1300.2L635.0 1300.2Q635.1 1301.8 635.9 1302.8Q636.8 1303.7 638.2 1303.7L638.2 1303.7Q639.1 1303.7 639.8 1303.3Q640.4 1302.9 640.9 1302.3L640.9 1302.3L642.0 1303.2Q640.7 1305.2 638.1 1305.2ZM637.8 1295.7L637.8 1295.7Q636.7 1295.7 636.0 1296.5Q635.3 1297.3 635.1 1298.8L635.1 1298.8L640.4 1298.8L640.4 1298.6Q640.3 1297.2 639.6 1296.5Q639.0 1295.7 637.8 1295.7ZM650.4 1302.2L650.4 1302.2Q650.4 1301.5 649.9 1301.1Q649.3 1300.7 647.9 1300.4Q646.6 1300.1 645.8 1299.7Q645.0 1299.2 644.6 1298.7Q644.2 1298.1 644.2 1297.3L644.2 1297.3Q644.2 1296.0 645.3 1295.1Q646.4 1294.2 648.1 1294.2L648.1 1294.2Q649.9 1294.2 651.0 1295.2Q652.1 1296.1 652.1 1297.5L652.1 1297.5L650.3 1297.5Q650.3 1296.8 649.7 1296.3Q649.1 1295.7 648.1 1295.7L648.1 1295.7Q647.1 1295.7 646.6 1296.2Q646.0 1296.6 646.0 1297.3L646.0 1297.3Q646.0 1297.9 646.5 1298.3Q647.0 1298.6 648.4 1298.9Q649.7 1299.2 650.6 1299.6Q651.4 1300.0 651.8 1300.6Q652.2 1301.2 652.2 1302.1L652.2 1302.1Q652.2 1303.5 651.1 1304.3Q650.0 1305.2 648.2 1305.2L648.2 1305.2Q646.9 1305.2 645.9 1304.7Q644.9 1304.3 644.4 1303.5Q643.8 1302.7 643.8 1301.7L643.8 1301.7L645.6 1301.7Q645.7 1302.7 646.4 1303.2Q647.0 1303.7 648.2 1303.7L648.2 1303.7Q649.2 1303.7 649.8 1303.3Q650.4 1302.9 650.4 1302.2ZM656.4 1290L656.4 1295.7Q657.6 1294.2 659.5 1294.2L659.5 1294.2Q662.9 1294.2 662.9 1298.0L662.9 1298.0L662.9 1305L661.1 1305L661.1 1298.0Q661.1 1296.9 660.6 1296.3Q660.1 1295.8 659.0 1295.8L659.0 1295.8Q658.1 1295.8 657.4 1296.2Q656.8 1296.7 656.4 1297.5L656.4 1297.5L656.4 1305L654.6 1305L654.6 1290L656.4 1290Z "/></g></svg>