<svg width="1080" height="1350" viewBox="0 0 1080 1350" xmlns="http://www.w3.org/2000/svg"><defs><pattern id="satori_pattern_id_3" x="0" y="0" width="1" height="1" patternUnits="objectBoundingBox"><linearGradient id="satori_biid_3" x1="0.06097560975609696" y1="-0.04878048780487766" x2="0.939024390243903" y2="1.0487804878048776" spreadMethod="pad"><stop offset="0%" stop-color="#16697A"/><stop offset="100%" stop-color="#218380"/></linearGradient><rect x="0" y="0" width="1080" height="1350" fill="url(#satori_biid_3)"/></pattern><pattern id="satori_pattern_id_2" x="0" y="0" width="1" height="1" patternUnits="objectBoundingBox"><radialGradient id="satori_radial_id_2" spreadMethod="pad"><stop offset="0" stop-color="rgba(39, 174, 96, 0.2)"/><stop offset="0.5" stop-color="transparent"/><stop offset="1" stop-color="transparent"/></radialGradient><mask id="satori_mask_id_2"><rect x="0" y="0" width="1080" height="1350" fill="#fff"/></mask><rect x="0" y="0" width="1080" height="1350" fill="transparent"/><ellipse cx="561.6" cy="1336.5" width="1080" height="1350" ry="1890.0964261116414" rx="794.2223366287302" fill="url(#satori_radial_id_2)" mask="url(#satori_mask_id_2)"/></pattern><pattern id="satori_pattern_id_1" x="0" y="0" width="1" height="1" patternUnits="objectBoundingBox"><radialGradient id="satori_radial_id_1" spreadMethod="pad"><stop offset="0" stop-color="rgba(22, 105, 122, 0.3)"/><stop offset="0.5" stop-color="transparent"/><stop offset="1" stop-color="transparent"/></radialGradient><mask id="satori_mask_id_1"><rect x="0" y="0" width="1080" height="1350" fill="#fff"/></mask><rect x="0" y="0" width="1080" height="1350" fill="transparent"/><ellipse cx="1047.6" cy="283.5" width="1080" height="1350" ry="1508.2587642709059" rx="1481.5301279420542" fill="url(#satori_radial_id_1)" mask="url(#satori_mask_id_1)"/></pattern><pattern id="satori_pattern_id_0" x="0" y="0" width="1" height="1" patternUnits="objectBoundingBox"><radialGradient id="satori_radial_id_0" spreadMethod="pad"><stop offset="0" stop-color="rgba(33, 131, 128, 0.4)"/><stop offset="0.5" stop-color="transparent"/><stop offset="1" stop-color="transparent"/></radialGradient><mask id="satori_mask_id_0"><rect x="0" y="0" width="1080" height="1350" fill="#fff"/></mask><rect x="0" y="0" width="1080" height="1350" fill="transparent"/><ellipse cx="291.6" cy="499.5" width="1080" height="1350" ry="1202.7886347983174" rx="1114.9659725749482" fill="url(#satori_radial_id_0)" mask="url(#satori_mask_id_0)"/></pattern></defs><clipPath id="satori_cp-id"><rect x="0" y="0" width="1080" height="1350"/></clipPath><mask id="satori_om-id"><rect x="0" y="0" width="1080" height="1350" fill="#fff"/></mask><rect x="0" y="0" width="1080" height="1350" fill="url(#satori_pattern_id_3)"/><rect x="0" y="0" width="1080" height="1350" fill="url(#satori_pattern_id_2)"/><rect x="0" y="0" width="1080" height="1350" fill="url(#satori_pattern_id_1)"/><rect x="0" y="0" width="1080" height="1350" fill="url(#satori_pattern_id_0)"/><mask id="satori_om-id-0"><rect x="780" y="-100" width="400" height="400" fill="#fff" mask="url(#satori_om-id)"/></mask><path x="780" y="-100" width="400" height="400" fill="rgba(255, 255, 255, 0.03)" d="M980,-100 h0 a200,200 0 0 1 200,200 v0 a200,200 0 0 1 -200,200 h0 a200,200 0 0 1 -200,-200 v0 a200,200 0 0 1 200,-200" clip-path="url(#satori_cp-id)" mask="url(#satori_om-id)"/><mask id="satori_om-id-1"><rect x="-150" y="1000" width="500" height="500" fill="#fff" mask="url(#satori_om-id)"/></mask><path x="-150" y="1000" width="500" height="500" fill="rgba(255, 255, 255, 0.02)" d="M100,1000 h0 a250,250 0 0 1 250,250 v0 a250,250 0 0 1 -250,250 h0 a250,250 0 0 1 -250,-250 v0 a250,250 0 0 1 250,-250" clip-path="url(#satori_cp-id)" mask="url(#satori_om-id)"/><mask id="satori_om-id-2"><rect x="480" y="474" width="120" height="120" fill="#fff" mask="url(#satori_om-id)"/></mask><path x="480" y="474" width="120" height="120" fill="rgba(255, 255, 255, 0.15)" d="M510,474 h60 a30,30 0 0 1 30,30 v60 a30,30 0 0 1 -30,30 h-60 a30,30 0 0 1 -30,-30 v-60 a30,30 0 0 1 30,-30" clip-path="url(#satori_cp-id)" mask="url(#satori_om-id)"/><mask id="satori_om-id-2-0"><rect x="512" y="502" width="57" height="64" fill="#fff" mask="url(#satori_om-id)"/></mask><g mask="url(#satori_om-id)" clip-path="url(#satori_cp-id)"><path fill="black" d="M537.3 510.5L537.3 556L515.1 556L515.1 510.5L537.3 510.5ZM527 533.3L535.6 553.4L535.6 513.2L527 533.3ZM525.2 533.3L516.8 513.5L516.8 553L525.2 533.3ZM526.1 535.4L518.1 554.3L534.2 554.3L526.1 535.4ZM518.1 512.2L526.1 531.1L534.2 512.2L518.1 512.2ZM565.6 510.5L565.6 556L543.5 556L543.5 510.5L565.6 510.5ZM555.4 533.3L563.9 553.4L563.9 513.2L555.4 533.3ZM553.6 533.3L545.2 513.5L545.2 553L553.6 533.3ZM554.5 535.4L546.4 554.3L562.5 554.3L554.5 535.4ZM546.4 512.2L554.5 531.1L562.5 512.2L546.4 512.2Z "/></g><mask id="satori_om-id-3"><rect x="90" y="642" width="900" height="158" fill="#fff" mask="url(#satori_om-id)"/></mask><g mask="url(#satori_om-id)" clip-path="url(#satori_cp-id)"><path fill="#FFFFFF" d="M133.1 682.8L125.0 680.8L127.9 654.8L156.6 654.8L156.6 663.3L136.3 663.3L135.0 674.3Q138.6 672.4 142.7 672.4L142.7 672.4Q150.0 672.4 154.2 676.9Q158.3 681.4 158.3 689.6L158.3 689.6Q158.3 694.5 156.2 698.5Q154.1 702.4 150.2 704.5Q146.3 706.7 141.0 706.7L141.0 706.7Q136.4 706.7 132.4 704.8Q128.4 702.9 126.1 699.5Q123.8 696.1 123.7 691.8L123.7 691.8L133.7 691.8Q134.1 695.0 136.0 696.7Q137.9 698.5 141.0 698.5L141.0 698.5Q144.4 698.5 146.3 696.0Q148.2 693.6 148.2 689.0L148.2 689.0Q148.2 684.7 146.0 682.3Q143.9 680.0 139.9 680.0L139.9 680.0Q136.3 680.0 134.1 681.9L134.1 681.9L133.1 682.8Z M199.5 695.5L199.5 695.5Q199.5 693.6 197.7 692.6Q195.8 691.5 191.7 690.6L191.7 690.6Q178.2 687.8 178.2 679.1L178.2 679.1Q178.2 674.0 182.4 670.7Q186.6 667.3 193.4 667.3L193.4 667.3Q200.6 667.3 204.9 670.7Q209.3 674.1 209.3 679.5L209.3 679.5L199.1 679.5Q199.1 677.3 197.7 675.9Q196.3 674.5 193.3 674.5L193.3 674.5Q190.8 674.5 189.3 675.7Q187.9 676.8 187.9 678.6L187.9 678.6Q187.9 680.3 189.5 681.3Q191.1 682.4 194.9 683.1Q198.7 683.9 201.3 684.8L201.3 684.8Q209.4 687.8 209.4 695.1L209.4 695.1Q209.4 700.3 204.9 703.5Q200.5 706.7 193.4 706.7L193.4 706.7Q188.6 706.7 184.9 705.0Q181.2 703.3 179.1 700.3Q177.0 697.4 177.0 693.9L177.0 693.9L186.6 693.9Q186.7 696.6 188.6 698.1Q190.5 699.5 193.6 699.5L193.6 699.5Q196.5 699.5 198.0 698.4Q199.5 697.3 199.5 695.5ZM215.9 658.6L226.1 658.6L226.1 668.0L232.6 668.0L232.6 675.4L226.1 675.4L226.1 694.4Q226.1 696.5 226.9 697.4Q227.7 698.3 230.0 698.3L230.0 698.3Q231.7 698.3 233.0 698.1L233.0 698.1L233.0 705.8Q230.0 706.7 226.8 706.7L226.8 706.7Q216.1 706.7 215.9 695.9L215.9 695.9L215.9 675.4L210.4 675.4L210.4 668.0L215.9 668.0L215.9 658.6ZM268.6 706L258.3 706Q257.6 704.6 257.3 702.6L257.3 702.6Q253.6 706.7 247.7 706.7L247.7 706.7Q242.1 706.7 238.4 703.5Q234.7 700.2 234.7 695.3L234.7 695.3Q234.7 689.3 239.2 686.0Q243.7 682.8 252.2 682.8L252.2 682.8L256.9 682.8L256.9 680.6Q256.9 677.9 255.5 676.4Q254.1 674.8 251.2 674.8L251.2 674.8Q248.7 674.8 247.2 676.0Q245.7 677.2 245.7 679.4L245.7 679.4L235.6 679.4Q235.6 676.1 237.6 673.3Q239.7 670.5 243.4 668.9Q247.1 667.3 251.8 667.3L251.8 667.3Q258.8 667.3 262.9 670.8Q267.0 674.3 267.0 680.7L267.0 680.7L267.0 697.2Q267.1 702.6 268.6 705.4L268.6 705.4L268.6 706ZM249.9 698.9L249.9 698.9Q252.1 698.9 254.0 697.9Q255.9 696.9 256.9 695.2L256.9 695.2L256.9 688.7L253.1 688.7Q245.4 688.7 244.9 694.0L244.9 694.0L244.9 694.6Q244.9 696.5 246.2 697.7Q247.6 698.9 249.9 698.9ZM274.9 658.6L285.0 658.6L285.0 668.0L291.5 668.0L291.5 675.4L285.0 675.4L285.0 694.4Q285.0 696.5 285.8 697.4Q286.6 698.3 288.9 698.3L288.9 698.3Q290.6 698.3 291.9 698.1L291.9 698.1L291.9 705.8Q288.9 706.7 285.8 706.7L285.8 706.7Q275.1 706.7 274.9 695.9L274.9 695.9L274.9 675.4L269.3 675.4L269.3 668.0L274.9 668.0L274.9 658.6ZM305.9 668.0L305.9 706L295.7 706L295.7 668.0L305.9 668.0ZM295.1 658.1L295.1 658.1Q295.1 655.8 296.6 654.4Q298.2 652.9 300.8 652.9L300.8 652.9Q303.4 652.9 305.0 654.4Q306.5 655.8 306.5 658.1L306.5 658.1Q306.5 660.4 304.9 661.9Q303.4 663.4 300.8 663.4Q298.2 663.4 296.7 661.9Q295.1 660.4 295.1 658.1ZM312.1 668.0L321.6 668.0L321.9 672.4Q326.0 667.3 332.9 667.3L332.9 667.3Q338.9 667.3 341.9 670.8Q344.8 674.4 344.9 681.4L344.9 681.4L344.9 706L334.7 706L334.7 681.7Q334.7 678.4 333.3 677.0Q331.9 675.5 328.7 675.5L328.7 675.5Q324.4 675.5 322.2 679.2L322.2 679.2L322.2 706L312.1 706L312.1 668.0Z M366.9 668.0L376.4 668.0L376.7 672.2Q380.8 667.3 387.7 667.3L387.7 667.3Q395.0 667.3 397.8 673.1L397.8 673.1Q401.8 667.3 409.2 667.3L409.2 667.3Q415.4 667.3 418.4 670.9Q421.4 674.5 421.4 681.7L421.4 681.7L421.4 706L411.2 706L411.2 681.7Q411.2 678.5 410.0 677.0Q408.7 675.5 405.5 675.5L405.5 675.5Q400.9 675.5 399.2 679.9L399.2 679.9L399.2 706L389.1 706L389.1 681.8Q389.1 678.5 387.8 677.0Q386.4 675.5 383.3 675.5L383.3 675.5Q379.0 675.5 377.1 679.1L377.1 679.1L377.1 706L366.9 706L366.9 668.0ZM434.4 668.0L441.4 691.6L448.5 668.0L459.4 668.0L444.1 711.9L443.2 713.9Q439.8 721.4 432.0 721.4L432.0 721.4Q429.8 721.4 427.5 720.7L427.5 720.7L427.5 713.0L429.0 713.0Q431.9 713.0 433.3 712.2Q434.8 711.3 435.6 709.2L435.6 709.2L436.8 706.1L423.4 668.0L434.4 668.0ZM463.4 658.6L473.5 658.6L473.5 668.0L480.0 668.0L480.0 675.4L473.5 675.4L473.5 694.4Q473.5 696.5 474.3 697.4Q475.2 698.3 477.4 698.3L477.4 698.3Q479.1 698.3 480.4 698.1L480.4 698.1L480.4 705.8Q477.4 706.7 474.3 706.7L474.3 706.7Q463.6 706.7 463.4 695.9L463.4 695.9L463.4 675.4L457.8 675.4L457.8 668.0L463.4 668.0L463.4 658.6ZM493.6 652L493.6 672.1Q497.7 667.3 503.8 667.3L503.8 667.3Q516.2 667.3 516.3 681.6L516.3 681.6L516.3 706L506.2 706L506.2 681.9Q506.2 678.6 504.8 677.1Q503.4 675.5 500.1 675.5L500.1 675.5Q495.6 675.5 493.6 679.0L493.6 679.0L493.6 706L483.5 706L483.5 652L493.6 652ZM542.6 695.5L542.6 695.5Q542.6 693.6 540.7 692.6Q538.9 691.5 534.8 690.6L534.8 690.6Q521.3 687.8 521.3 679.1L521.3 679.1Q521.3 674.0 525.5 670.7Q529.7 667.3 536.4 667.3L536.4 667.3Q543.7 667.3 548.0 670.7Q552.4 674.1 552.4 679.5L552.4 679.5L542.2 679.5Q542.2 677.3 540.8 675.9Q539.4 674.5 536.4 674.5L536.4 674.5Q533.8 674.5 532.4 675.7Q531.0 676.8 531.0 678.6L531.0 678.6Q531.0 680.3 532.6 681.3Q534.2 682.4 538.0 683.1Q541.8 683.9 544.4 684.8L544.4 684.8Q552.5 687.8 552.5 695.1L552.5 695.1Q552.5 700.3 548.0 703.5Q543.5 706.7 536.5 706.7L536.5 706.7Q531.7 706.7 528.0 705.0Q524.3 703.3 522.2 700.3Q520.1 697.4 520.1 693.9L520.1 693.9L529.7 693.9Q529.8 696.6 531.7 698.1Q533.6 699.5 536.7 699.5L536.7 699.5Q539.6 699.5 541.1 698.4Q542.6 697.3 542.6 695.5Z M571.3 686.7L571.3 686.7Q571.3 677.8 575.3 672.5Q579.3 667.3 586.2 667.3L586.2 667.3Q591.8 667.3 595.4 671.4L595.4 671.4L595.4 652L605.6 652L605.6 706L596.4 706L595.9 702.0Q592.1 706.7 586.2 706.7L586.2 706.7Q579.4 706.7 575.4 701.4Q571.3 696.1 571.3 686.7ZM581.5 687.4L581.5 687.4Q581.5 692.8 583.3 695.6Q585.2 698.5 588.8 698.5L588.8 698.5Q593.5 698.5 595.4 694.5L595.4 694.5L595.4 679.5Q593.5 675.5 588.8 675.5L588.8 675.5Q581.5 675.5 581.5 687.4ZM629.0 706.7L629.0 706.7Q620.6 706.7 615.4 701.6Q610.1 696.4 610.1 687.9L610.1 687.9L610.1 686.9Q610.1 681.2 612.3 676.7Q614.5 672.1 618.6 669.7Q622.7 667.3 627.9 667.3L627.9 667.3Q635.7 667.3 640.1 672.2Q644.6 677.1 644.6 686.1L644.6 686.1L644.6 690.3L620.4 690.3Q620.9 694.0 623.4 696.3Q625.9 698.5 629.6 698.5L629.6 698.5Q635.5 698.5 638.8 694.3L638.8 694.3L643.8 699.8Q641.5 703.1 637.6 704.9Q633.7 706.7 629.0 706.7ZM627.8 675.5L627.8 675.5Q624.8 675.5 622.9 677.5Q621.0 679.6 620.5 683.4L620.5 683.4L634.6 683.4L634.6 682.6Q634.6 679.2 632.8 677.3Q631.1 675.5 627.8 675.5ZM682.7 686.8L682.7 687.3Q682.7 696.5 678.8 701.6Q674.9 706.7 667.9 706.7L667.9 706.7Q661.7 706.7 658.0 702.0L658.0 702.0L657.5 706L648.4 706L648.4 652L658.6 652L658.6 671.4Q662.1 667.3 667.8 667.3L667.8 667.3Q674.8 667.3 678.7 672.4Q682.7 677.5 682.7 686.8L682.7 686.8ZM672.5 686.6L672.5 686.6Q672.5 680.8 670.7 678.2Q668.9 675.5 665.2 675.5L665.2 675.5Q660.4 675.5 658.6 679.5L658.6 679.5L658.6 694.5Q660.4 698.5 665.3 698.5L665.3 698.5Q670.2 698.5 671.8 693.7L671.8 693.7Q672.5 691.3 672.5 686.6ZM710.0 706L709.7 702.1Q705.9 706.7 699.3 706.7L699.3 706.7Q693.2 706.7 690.0 703.2Q686.8 699.7 686.7 692.9L686.7 692.9L686.7 668.0L696.8 668.0L696.8 692.5Q696.8 698.5 702.3 698.5L702.3 698.5Q707.4 698.5 709.4 694.9L709.4 694.9L709.4 668.0L719.6 668.0L719.6 706L710.0 706ZM725.0 668.0L734.6 668.0L734.9 672.4Q739.0 667.3 745.8 667.3L745.8 667.3Q751.9 667.3 754.8 670.8Q757.8 674.4 757.8 681.4L757.8 681.4L757.8 706L747.7 706L747.7 681.7Q747.7 678.4 746.3 677.0Q744.9 675.5 741.6 675.5L741.6 675.5Q737.3 675.5 735.2 679.2L735.2 679.2L735.2 706L725.0 706L725.0 668.0ZM787.1 706L777.4 690.7L773.7 694.4L773.7 706L763.5 706L763.5 652L773.7 652L773.7 681.9L775.7 679.4L785.4 668.0L797.6 668.0L783.9 683.8L798.8 706L787.1 706ZM816.8 706.7L816.8 706.7Q808.4 706.7 803.2 701.6Q797.9 696.4 797.9 687.9L797.9 687.9L797.9 686.9Q797.9 681.2 800.1 676.7Q802.4 672.1 806.4 669.7Q810.5 667.3 815.7 667.3L815.7 667.3Q823.5 667.3 828.0 672.2Q832.4 677.1 832.4 686.1L832.4 686.1L832.4 690.3L808.2 690.3Q808.7 694.0 811.2 696.3Q813.7 698.5 817.5 698.5L817.5 698.5Q823.3 698.5 826.6 694.3L826.6 694.3L831.6 699.8Q829.4 703.1 825.5 704.9Q821.6 706.7 816.8 706.7ZM815.6 675.5L815.6 675.5Q812.6 675.5 810.7 677.5Q808.9 679.6 808.3 683.4L808.3 683.4L822.5 683.4L822.5 682.6Q822.4 679.2 820.6 677.3Q818.9 675.5 815.6 675.5ZM834.6 686.7L834.6 686.7Q834.6 677.8 838.6 672.5Q842.6 667.3 849.5 667.3L849.5 667.3Q855.1 667.3 858.7 671.4L858.7 671.4L858.7 652L868.9 652L868.9 706L859.7 706L859.2 702.0Q855.4 706.7 849.5 706.7L849.5 706.7Q842.8 706.7 838.7 701.4Q834.6 696.1 834.6 686.7ZM844.8 687.4L844.8 687.4Q844.8 692.8 846.7 695.6Q848.5 698.5 852.1 698.5L852.1 698.5Q856.8 698.5 858.7 694.5L858.7 694.5L858.7 679.5Q856.8 675.5 852.1 675.5L852.1 675.5Q844.8 675.5 844.8 687.4Z M925.2 686.8L925.2 687.3Q925.2 696.5 921.3 701.6Q917.4 706.7 910.4 706.7L910.4 706.7Q904.2 706.7 900.5 702.0L900.5 702.0L900.0 706L890.9 706L890.9 652L901.1 652L901.1 671.4Q904.6 667.3 910.3 667.3L910.3 667.3Q917.3 667.3 921.2 672.4Q925.2 677.5 925.2 686.8L925.2 686.8ZM915.0 686.6L915.0 686.6Q915.0 680.8 913.2 678.2Q911.4 675.5 907.7 675.5L907.7 675.5Q902.9 675.5 901.1 679.5L901.1 679.5L901.1 694.5Q902.9 698.5 907.8 698.5L907.8 698.5Q912.7 698.5 914.3 693.7L914.3 693.7Q915.0 691.3 915.0 686.6ZM936.2 668.0L943.3 691.6L950.3 668.0L961.2 668.0L945.9 711.9L945.0 713.9Q941.6 721.4 933.8 721.4L933.8 721.4Q931.6 721.4 929.3 720.7L929.3 720.7L929.3 713.0L930.8 713.0Q933.7 713.0 935.2 712.2Q936.6 711.3 937.4 709.2L937.4 709.2L938.6 706.1L925.3 668.0L936.2 668.0Z M446.5 774.5L446.5 774.5Q446.5 772.6 444.7 771.6Q442.8 770.5 438.7 769.6L438.7 769.6Q425.2 766.8 425.2 758.1L425.2 758.1Q425.2 753.0 429.4 749.7Q433.6 746.3 440.4 746.3L440.4 746.3Q447.6 746.3 451.9 749.7Q456.3 753.1 456.3 758.5L456.3 758.5L446.1 758.5Q446.1 756.3 444.7 754.9Q443.3 753.5 440.3 753.5L440.3 753.5Q437.8 753.5 436.3 754.7Q434.9 755.8 434.9 757.6L434.9 757.6Q434.9 759.3 436.5 760.3Q438.1 761.4 441.9 762.1Q445.7 762.9 448.3 763.8L448.3 763.8Q456.4 766.8 456.4 774.1L456.4 774.1Q456.4 779.3 451.9 782.5Q447.5 785.7 440.4 785.7L440.4 785.7Q435.6 785.7 431.9 784.0Q428.2 782.3 426.1 779.3Q424.0 776.4 424.0 772.9L424.0 772.9L433.6 772.9Q433.7 775.6 435.6 777.1Q437.5 778.5 440.6 778.5L440.6 778.5Q443.5 778.5 445.0 777.4Q446.5 776.3 446.5 774.5ZM476.7 777.5L476.7 777.5Q479.6 777.5 481.3 776.0Q483.1 774.4 483.1 771.9L483.1 771.9L492.7 771.9Q492.6 775.7 490.6 778.9Q488.5 782.2 484.9 783.9Q481.3 785.7 476.9 785.7L476.9 785.7Q468.8 785.7 464.1 780.5Q459.3 775.3 459.3 766.2L459.3 766.2L459.3 765.5Q459.3 756.7 464.0 751.5Q468.7 746.3 476.8 746.3L476.8 746.3Q484.0 746.3 488.3 750.3Q492.6 754.4 492.7 761.1L492.7 761.1L483.1 761.1Q483.1 758.2 481.3 756.3Q479.6 754.5 476.7 754.5L476.7 754.5Q473.1 754.5 471.3 757.1Q469.5 759.7 469.5 765.5L469.5 765.5L469.5 766.5Q469.5 772.4 471.3 774.9Q473.1 777.5 476.7 777.5ZM507.2 747.0L507.2 785L497.0 785L497.0 747.0L507.2 747.0ZM496.4 737.1L496.4 737.1Q496.4 734.8 497.9 733.4Q499.5 731.9 502.1 731.9L502.1 731.9Q504.7 731.9 506.2 733.4Q507.8 734.8 507.8 737.1L507.8 737.1Q507.8 739.4 506.2 740.9Q504.7 742.4 502.1 742.4Q499.5 742.4 498.0 740.9Q496.4 739.4 496.4 737.1ZM531.1 785.7L531.1 785.7Q522.7 785.7 517.4 780.6Q512.2 775.4 512.2 766.9L512.2 766.9L512.2 765.9Q512.2 760.2 514.4 755.7Q516.6 751.1 520.7 748.7Q524.7 746.3 529.9 746.3L529.9 746.3Q537.7 746.3 542.2 751.2Q546.7 756.1 546.7 765.1L546.7 765.1L546.7 769.3L522.5 769.3Q523.0 773.0 525.5 775.3Q527.9 777.5 531.7 777.5L531.7 777.5Q537.6 777.5 540.9 773.3L540.9 773.3L545.9 778.8Q543.6 782.1 539.7 783.9Q535.8 785.7 531.1 785.7ZM529.9 754.5L529.9 754.5Q526.9 754.5 525.0 756.5Q523.1 758.6 522.6 762.4L522.6 762.4L536.7 762.4L536.7 761.6Q536.7 758.2 534.9 756.3Q533.1 754.5 529.9 754.5ZM550.3 747.0L559.8 747.0L560.1 751.4Q564.2 746.3 571.1 746.3L571.1 746.3Q577.1 746.3 580.1 749.8Q583.0 753.4 583.1 760.4L583.1 760.4L583.1 785L572.9 785L572.9 760.7Q572.9 757.4 571.5 756.0Q570.1 754.5 566.9 754.5L566.9 754.5Q562.6 754.5 560.4 758.2L560.4 758.2L560.4 785L550.3 785L550.3 747.0ZM604.6 777.5L604.6 777.5Q607.4 777.5 609.2 776.0Q610.9 774.4 611.0 771.9L611.0 771.9L620.5 771.9Q620.5 775.7 618.4 778.9Q616.4 782.2 612.8 783.9Q609.2 785.7 604.8 785.7L604.8 785.7Q596.6 785.7 591.9 780.5Q587.2 775.3 587.2 766.2L587.2 766.2L587.2 765.5Q587.2 756.7 591.9 751.5Q596.6 746.3 604.7 746.3L604.7 746.3Q611.9 746.3 616.2 750.3Q620.5 754.4 620.5 761.1L620.5 761.1L611.0 761.1Q610.9 758.2 609.2 756.3Q607.4 754.5 604.6 754.5L604.6 754.5Q601 754.5 599.2 757.1Q597.4 759.7 597.4 765.5L597.4 765.5L597.4 766.5Q597.4 772.4 599.2 774.9Q601.0 777.5 604.6 777.5ZM641.9 785.7L641.9 785.7Q633.5 785.7 628.2 780.6Q623.0 775.4 623.0 766.9L623.0 766.9L623.0 765.9Q623.0 760.2 625.2 755.7Q627.4 751.1 631.5 748.7Q635.5 746.3 640.7 746.3L640.7 746.3Q648.5 746.3 653.0 751.2Q657.5 756.1 657.5 765.1L657.5 765.1L657.5 769.3L633.3 769.3Q633.8 773.0 636.2 775.3Q638.7 777.5 642.5 777.5L642.5 777.5Q648.4 777.5 651.7 773.3L651.7 773.3L656.7 778.8Q654.4 782.1 650.5 783.9Q646.6 785.7 641.9 785.7ZM640.7 754.5L640.7 754.5Q637.7 754.5 635.8 756.5Q633.9 758.6 633.4 762.4L633.4 762.4L647.5 762.4L647.5 761.6Q647.4 758.2 645.7 756.3Q643.9 754.5 640.7 754.5Z "/></g><mask id="satori_om-id-4"><rect x="317" y="832" width="446" height="45" fill="#fff" mask="url(#satori_om-id)"/></mask><g mask="url(#satori_om-id)" clip-path="url(#satori_cp-id)"><path fill="rgba(255, 255, 255, 0.85)" d="M335.4 842.3L335.4 844.7L328.0 844.7L328.0 865L325.1 865L325.1 844.7L317.8 844.7L317.8 842.3L335.4 842.3ZM341.9 848.1L341.9 865L339.0 865L339.0 848.1L341.9 848.1ZM338.8 843.6L338.8 843.6Q338.8 842.9 339.2 842.4Q339.7 841.9 340.5 841.9Q341.3 841.9 341.8 842.4Q342.2 842.9 342.2 843.6Q342.2 844.3 341.8 844.8Q341.3 845.3 340.5 845.3Q339.7 845.3 339.2 844.8Q338.8 844.3 338.8 843.6ZM347.0 848.1L349.8 848.1L349.8 850.0Q351.7 847.8 354.9 847.8L354.9 847.8Q358.4 847.8 359.7 850.5L359.7 850.5Q360.5 849.3 361.9 848.5Q363.2 847.8 365.1 847.8L365.1 847.8Q370.6 847.8 370.7 853.7L370.7 853.7L370.7 865L367.8 865L367.8 853.8Q367.8 852.0 367.0 851.1Q366.2 850.2 364.2 850.2L364.2 850.2Q362.6 850.2 361.6 851.2Q360.5 852.2 360.3 853.8L360.3 853.8L360.3 865L357.4 865L357.4 853.9Q357.4 850.2 353.8 850.2L353.8 850.2Q351.0 850.2 349.9 852.7L349.9 852.7L349.9 865L347.0 865L347.0 848.1ZM382.6 865.3L382.6 865.3Q379.2 865.3 377.0 863.1Q374.9 860.8 374.9 857.0L374.9 857.0L374.9 856.5Q374.9 854.0 375.8 852.0Q376.8 850.0 378.5 848.9Q380.2 847.8 382.3 847.8L382.3 847.8Q385.5 847.8 387.4 850.0Q389.2 852.1 389.2 856.2L389.2 856.2L389.2 857.4L377.8 857.4Q377.8 859.9 379.2 861.4Q380.6 863.0 382.8 863.0L382.8 863.0Q384.3 863.0 385.4 862.3Q386.4 861.7 387.2 860.7L387.2 860.7L389.0 862.0Q386.9 865.3 382.6 865.3ZM382.3 850.2L382.3 850.2Q380.5 850.2 379.3 851.4Q378.1 852.7 377.8 855L377.8 855L386.3 855L386.3 854.8Q386.2 852.6 385.1 851.4Q384.1 850.2 382.3 850.2Z M402.5 844L405.4 844L405.4 848.1L408.5 848.1L408.5 850.3L405.4 850.3L405.4 860.8Q405.4 861.8 405.8 862.3Q406.2 862.8 407.3 862.8L407.3 862.8Q407.8 862.8 408.6 862.7L408.6 862.7L408.6 865Q407.5 865.3 406.4 865.3L406.4 865.3Q404.5 865.3 403.5 864.1Q402.5 863.0 402.5 860.8L402.5 860.8L402.5 850.3L399.4 850.3L399.4 848.1L402.5 848.1L402.5 844ZM411.3 856.6L411.3 856.4Q411.3 853.9 412.3 851.9Q413.3 849.9 415.0 848.9Q416.8 847.8 419.0 847.8L419.0 847.8Q422.5 847.8 424.6 850.2Q426.7 852.6 426.7 856.5L426.7 856.5L426.7 856.7Q426.7 859.2 425.8 861.2Q424.8 863.1 423.1 864.2Q421.3 865.3 419.0 865.3L419.0 865.3Q415.6 865.3 413.5 862.9Q411.3 860.5 411.3 856.6L411.3 856.6ZM414.3 856.7L414.3 856.7Q414.3 859.5 415.6 861.3Q416.9 863.0 419.0 863.0L419.0 863.0Q421.3 863.0 422.5 861.2Q423.8 859.5 423.8 856.4L423.8 856.4Q423.8 853.6 422.5 851.9Q421.2 850.2 419.0 850.2L419.0 850.2Q416.9 850.2 415.6 851.9Q414.3 853.6 414.3 856.7Z M449.4 860.5L449.4 860.5Q449.4 859.3 448.6 858.7Q447.7 858.0 445.5 857.6Q443.3 857.1 442.0 856.5Q440.7 855.8 440.1 854.9Q439.5 854.0 439.5 852.7L439.5 852.7Q439.5 850.7 441.2 849.2Q443.0 847.8 445.7 847.8L445.7 847.8Q448.6 847.8 450.4 849.3Q452.2 850.8 452.2 853.1L452.2 853.1L449.3 853.1Q449.3 851.9 448.3 851.0Q447.3 850.2 445.7 850.2L445.7 850.2Q444.1 850.2 443.3 850.8Q442.4 851.5 442.4 852.6L442.4 852.6Q442.4 853.7 443.2 854.2Q444.0 854.8 446.2 855.2Q448.3 855.7 449.7 856.4Q451.0 857.1 451.7 858.0Q452.3 859.0 452.3 860.3L452.3 860.3Q452.3 862.6 450.5 863.9Q448.7 865.3 445.8 865.3L445.8 865.3Q443.8 865.3 442.2 864.6Q440.7 863.9 439.8 862.6Q438.9 861.3 438.9 859.8L438.9 859.8L441.8 859.8Q441.9 861.3 442.9 862.1Q444.0 863.0 445.8 863.0L445.8 863.0Q447.5 863.0 448.4 862.3Q449.4 861.6 449.4 860.5ZM463.6 865.3L463.6 865.3Q460.2 865.3 458.0 863.1Q455.9 860.8 455.9 857.0L455.9 857.0L455.9 856.5Q455.9 854.0 456.8 852.0Q457.8 850.0 459.5 848.9Q461.2 847.8 463.3 847.8L463.3 847.8Q466.5 847.8 468.4 850.0Q470.2 852.1 470.2 856.2L470.2 856.2L470.2 857.4L458.8 857.4Q458.8 859.9 460.2 861.4Q461.6 863.0 463.8 863.0L463.8 863.0Q465.3 863.0 466.4 862.3Q467.4 861.7 468.2 860.7L468.2 860.7L470.0 862.0Q467.9 865.3 463.6 865.3ZM463.3 850.2L463.3 850.2Q461.5 850.2 460.3 851.4Q459.1 852.7 458.8 855L458.8 855L467.3 855L467.3 854.8Q467.2 852.6 466.1 851.4Q465.1 850.2 463.3 850.2ZM475.1 844L478.0 844L478.0 848.1L481.1 848.1L481.1 850.3L478.0 850.3L478.0 860.8Q478.0 861.8 478.4 862.3Q478.8 862.8 479.8 862.8L479.8 862.8Q480.3 862.8 481.2 862.7L481.2 862.7L481.2 865Q480.1 865.3 479.0 865.3L479.0 865.3Q477.0 865.3 476.1 864.1Q475.1 863.0 475.1 860.8L475.1 860.8L475.1 850.3L472 850.3L472 848.1L475.1 848.1L475.1 844Z M494.5 844L497.3 844L497.3 848.1L500.5 848.1L500.5 850.3L497.3 850.3L497.3 860.8Q497.3 861.8 497.8 862.3Q498.2 862.8 499.2 862.8L499.2 862.8Q499.7 862.8 500.6 862.7L500.6 862.7L500.6 865Q499.4 865.3 498.4 865.3L498.4 865.3Q496.4 865.3 495.4 864.1Q494.5 863.0 494.5 860.8L494.5 860.8L494.5 850.3L491.4 850.3L491.4 848.1L494.5 848.1L494.5 844ZM507.3 841L507.3 850.1Q509.2 847.8 512.3 847.8L512.3 847.8Q517.6 847.8 517.7 853.8L517.7 853.8L517.7 865L514.8 865L514.8 853.8Q514.8 852.0 513.9 851.1Q513.1 850.2 511.4 850.2L511.4 850.2Q510.0 850.2 508.9 851.0Q507.9 851.7 507.3 853.0L507.3 853.0L507.3 865L504.4 865L504.4 841L507.3 841ZM529.5 865.3L529.5 865.3Q526.1 865.3 523.9 863.1Q521.8 860.8 521.8 857.0L521.8 857.0L521.8 856.5Q521.8 854.0 522.7 852.0Q523.7 850.0 525.4 848.9Q527.1 847.8 529.2 847.8L529.2 847.8Q532.5 847.8 534.3 850.0Q536.1 852.1 536.1 856.2L536.1 856.2L536.1 857.4L524.7 857.4Q524.7 859.9 526.1 861.4Q527.5 863.0 529.7 863.0L529.7 863.0Q531.2 863.0 532.3 862.3Q533.3 861.7 534.1 860.7L534.1 860.7L535.9 862.0Q533.8 865.3 529.5 865.3ZM529.2 850.2L529.2 850.2Q527.4 850.2 526.2 851.4Q525.0 852.7 524.8 855L524.8 855L533.2 855L533.2 854.8Q533.1 852.6 532.0 851.4Q531.0 850.2 529.2 850.2Z M556.5 848L556.5 850.7Q555.9 850.6 555.1 850.6L555.1 850.6Q552.3 850.6 551.3 853L551.3 853L551.3 865L548.4 865L548.4 848.1L551.2 848.1L551.2 850.0Q552.7 847.8 555.3 847.8L555.3 847.8Q556.1 847.8 556.5 848L556.5 848ZM566.4 865.3L566.4 865.3Q563.0 865.3 560.8 863.1Q558.7 860.8 558.7 857.0L558.7 857.0L558.7 856.5Q558.7 854.0 559.6 852.0Q560.6 850.0 562.3 848.9Q564.0 847.8 566.1 847.8L566.1 847.8Q569.4 847.8 571.2 850.0Q573.0 852.1 573.0 856.2L573.0 856.2L573.0 857.4L561.6 857.4Q561.6 859.9 563.0 861.4Q564.4 863.0 566.6 863.0L566.6 863.0Q568.1 863.0 569.2 862.3Q570.2 861.7 571.0 860.7L571.0 860.7L572.8 862.0Q570.7 865.3 566.4 865.3ZM566.1 850.2L566.1 850.2Q564.3 850.2 563.1 851.4Q561.9 852.7 561.7 855L561.7 855L570.1 855L570.1 854.8Q570 852.6 568.9 851.4Q567.9 850.2 566.1 850.2ZM583.6 863.0L583.6 863.0Q585.2 863.0 586.3 862.0Q587.5 861.1 587.6 859.7L587.6 859.7L590.4 859.7Q590.3 861.1 589.4 862.4Q588.4 863.8 586.9 864.5Q585.4 865.3 583.6 865.3L583.6 865.3Q580.2 865.3 578.1 863.0Q576.1 860.7 576.1 856.7L576.1 856.7L576.1 856.2Q576.1 853.8 577.0 851.8Q577.9 849.9 579.6 848.8Q581.3 847.8 583.6 847.8L583.6 847.8Q586.5 847.8 588.4 849.5Q590.2 851.2 590.4 853.9L590.4 853.9L587.6 853.9Q587.5 852.3 586.4 851.2Q585.3 850.2 583.6 850.2L583.6 850.2Q581.4 850.2 580.2 851.7Q579 853.3 579 856.3L579 856.3L579 856.9Q579 859.8 580.2 861.4Q581.4 863.0 583.6 863.0ZM593.3 856.6L593.3 856.4Q593.3 853.9 594.3 851.9Q595.3 849.9 597.0 848.9Q598.8 847.8 601.0 847.8L601.0 847.8Q604.5 847.8 606.6 850.2Q608.7 852.6 608.7 856.5L608.7 856.5L608.7 856.7Q608.7 859.2 607.8 861.2Q606.8 863.1 605.1 864.2Q603.3 865.3 601.0 865.3L601.0 865.3Q597.6 865.3 595.5 862.9Q593.3 860.5 593.3 856.6L593.3 856.6ZM596.3 856.7L596.3 856.7Q596.3 859.5 597.6 861.3Q598.9 863.0 601.0 863.0L601.0 863.0Q603.3 863.0 604.5 861.2Q605.8 859.5 605.8 856.4L605.8 856.4Q605.8 853.6 604.5 851.9Q603.2 850.2 601.0 850.2L601.0 850.2Q598.9 850.2 597.6 851.9Q596.3 853.6 596.3 856.7ZM621.0 848L621.0 850.7Q620.4 850.6 619.6 850.6L619.6 850.6Q616.8 850.6 615.8 853L615.8 853L615.8 865L612.9 865L612.9 848.1L615.7 848.1L615.7 850.0Q617.1 847.8 619.8 847.8L619.8 847.8Q620.6 847.8 621.0 848L621.0 848ZM623.2 856.6L623.2 856.4Q623.2 852.5 625.0 850.1Q626.9 847.8 629.9 847.8L629.9 847.8Q632.8 847.8 634.6 849.8L634.6 849.8L634.6 841L637.5 841L637.5 865L634.8 865L634.7 863.2Q632.9 865.3 629.8 865.3L629.8 865.3Q626.9 865.3 625.0 862.9Q623.2 860.5 623.2 856.6L623.2 856.6ZM626.1 856.7L626.1 856.7Q626.1 859.6 627.3 861.2Q628.5 862.9 630.5 862.9L630.5 862.9Q633.3 862.9 634.6 860.4L634.6 860.4L634.6 852.6Q633.3 850.2 630.6 850.2L630.6 850.2Q628.5 850.2 627.3 851.9Q626.1 853.5 626.1 856.7Z M661.3 860.5L661.3 860.5Q661.3 859.3 660.4 858.7Q659.5 858.0 657.3 857.6Q655.1 857.1 653.9 856.5Q652.6 855.8 651.9 854.9Q651.3 854.0 651.3 852.7L651.3 852.7Q651.3 850.7 653.1 849.2Q654.8 847.8 657.6 847.8L657.6 847.8Q660.5 847.8 662.2 849.3Q664.0 850.8 664.0 853.1L664.0 853.1L661.1 853.1Q661.1 851.9 660.1 851.0Q659.1 850.2 657.6 850.2L657.6 850.2Q656 850.2 655.1 850.8Q654.2 851.5 654.2 852.6L654.2 852.6Q654.2 853.7 655.0 854.2Q655.9 854.8 658.0 855.2Q660.2 855.7 661.5 856.4Q662.9 857.1 663.5 858.0Q664.2 859.0 664.2 860.3L664.2 860.3Q664.2 862.6 662.4 863.9Q660.6 865.3 657.7 865.3L657.7 865.3Q655.6 865.3 654.1 864.6Q652.5 863.9 651.6 862.6Q650.8 861.3 650.8 859.8L650.8 859.8L653.6 859.8Q653.7 861.3 654.8 862.1Q655.9 863.0 657.7 863.0L657.7 863.0Q659.3 863.0 660.3 862.3Q661.3 861.6 661.3 860.5ZM669.5 844L672.4 844L672.4 848.1L675.5 848.1L675.5 850.3L672.4 850.3L672.4 860.8Q672.4 861.8 672.8 862.3Q673.2 862.8 674.2 862.8L674.2 862.8Q674.7 862.8 675.6 862.7L675.6 862.7L675.6 865Q674.5 865.3 673.4 865.3L673.4 865.3Q671.5 865.3 670.5 864.1Q669.5 863.0 669.5 860.8L669.5 860.8L669.5 850.3L666.4 850.3L666.4 848.1L669.5 848.1L669.5 844ZM687.6 848L687.6 850.7Q686.9 850.6 686.2 850.6L686.2 850.6Q683.3 850.6 682.3 853L682.3 853L682.3 865L679.4 865L679.4 848.1L682.2 848.1L682.3 850.0Q683.7 847.8 686.3 847.8L686.3 847.8Q687.1 847.8 687.6 848L687.6 848ZM703.6 865L700.5 865Q700.3 864.5 700.1 863.2L700.1 863.2Q698.1 865.3 695.3 865.3L695.3 865.3Q692.8 865.3 691.2 863.9Q689.6 862.5 689.6 860.3L689.6 860.3Q689.6 857.7 691.6 856.2Q693.6 854.8 697.3 854.8L697.3 854.8L700.1 854.8L700.1 853.4Q700.1 851.9 699.2 851.0Q698.3 850.1 696.5 850.1L696.5 850.1Q695.0 850.1 693.9 850.9Q692.9 851.7 692.9 852.8L692.9 852.8L690.0 852.8Q690.0 851.5 690.9 850.3Q691.8 849.2 693.3 848.5Q694.8 847.8 696.7 847.8L696.7 847.8Q699.6 847.8 701.3 849.2Q702.9 850.7 703.0 853.3L703.0 853.3L703.0 861.0Q703.0 863.4 703.6 864.8L703.6 864.8L703.6 865ZM695.8 862.8L695.8 862.8Q697.1 862.8 698.3 862.1Q699.5 861.4 700.1 860.3L700.1 860.3L700.1 856.8L697.8 856.8Q692.5 856.8 692.5 859.9L692.5 859.9Q692.5 861.3 693.4 862.0Q694.3 862.8 695.8 862.8ZM711.2 848.1L711.2 865L708.3 865L708.3 848.1L711.2 848.1ZM708.0 843.6L708.0 843.6Q708.0 842.9 708.5 842.4Q708.9 841.9 709.7 841.9Q710.6 841.9 711.0 842.4Q711.5 842.9 711.5 843.6Q711.5 844.3 711.0 844.8Q710.6 845.3 709.7 845.3Q708.9 845.3 708.5 844.8Q708.0 844.3 708.0 843.6ZM715.6 856.4L715.6 856.4Q715.6 852.5 717.4 850.1Q719.3 847.8 722.3 847.8L722.3 847.8Q725.4 847.8 727.1 850.0L727.1 850.0L727.2 848.1L729.9 848.1L729.9 864.6Q729.9 867.9 727.9 869.8Q726.0 871.7 722.7 871.7L722.7 871.7Q720.9 871.7 719.1 870.9Q717.4 870.1 716.5 868.7L716.5 868.7L718.0 867Q719.8 869.3 722.5 869.3L722.5 869.3Q724.6 869.3 725.8 868.1Q727.0 866.9 727.0 864.8L727.0 864.8L727.0 863.3Q725.2 865.3 722.2 865.3L722.2 865.3Q719.3 865.3 717.4 862.9Q715.6 860.5 715.6 856.4ZM718.5 856.7L718.5 856.7Q718.5 859.6 719.7 861.2Q720.8 862.9 723.0 862.9L723.0 862.9Q725.7 862.9 727.0 860.4L727.0 860.4L727.0 852.7Q725.6 850.2 723.0 850.2L723.0 850.2Q720.9 850.2 719.7 851.9Q718.5 853.5 718.5 856.7ZM737.6 841L737.6 850.1Q739.5 847.8 742.6 847.8L742.6 847.8Q748.0 847.8 748.0 853.8L748.0 853.8L748.0 865L745.1 865L745.1 853.8Q745.1 852.0 744.3 851.1Q743.5 850.2 741.8 850.2L741.8 850.2Q740.3 850.2 739.3 851.0Q738.2 851.7 737.6 853.0L737.6 853.0L737.6 865L734.7 865L734.7 841L737.6 841ZM753.9 844L756.8 844L756.8 848.1L759.9 848.1L759.9 850.3L756.8 850.3L756.8 860.8Q756.8 861.8 757.2 862.3Q757.6 862.8 758.6 862.8L758.6 862.8Q759.1 862.8 760.0 862.7L760.0 862.7L760.0 865Q758.9 865.3 757.8 865.3L757.8 865.3Q755.9 865.3 754.9 864.1Q753.9 863.0 753.9 860.8L753.9 860.8L753.9 850.3L750.8 850.3L750.8 848.1L753.9 848.1L753.9 844Z "/></g><mask id="satori_om-id-5"><rect x="497" y="1262" width="87" height="28" fill="#fff" mask="url(#satori_om-id)"/></mask><g opacity="0.6"></g><mask id="satori_om-id-5-0"><rect x="497" y="1266" width="64" height="21" fill="#fff" mask="url(#satori_om-id)"/></mask><g opacity="0.6"></g><g mask="url(#satori_om-id)" clip-path="url(#satori_cp-id)"><path fill="rgba(255, 255, 255, 0.85)" d="M502.3 1277.3L502.3 1277.3Q500.1 1276.7 499.1 1275.8Q498.1 1274.9 498.1 1273.5L498.1 1273.5Q498.1 1272.0 499.3 1271.0Q500.5 1270.0 502.5 1270.0L502.5 1270.0Q503.8 1270.0 504.8 1270.5Q505.8 1271.0 506.4 1271.9Q507.0 1272.8 507.0 1273.9L507.0 1273.9L505.3 1273.9Q505.3 1272.7 504.5 1272.1Q503.8 1271.4 502.5 1271.4L502.5 1271.4Q501.2 1271.4 500.5 1272.0Q499.8 1272.5 499.8 1273.5L499.8 1273.5Q499.8 1274.3 500.5 1274.8Q501.1 1275.4 502.7 1275.8Q504.3 1276.3 505.2 1276.8Q506.1 1277.3 506.6 1278.1Q507.0 1278.8 507.0 1279.7L507.0 1279.7Q507.0 1281.3 505.8 1282.2Q504.6 1283.2 502.5 1283.2L502.5 1283.2Q501.2 1283.2 500.1 1282.7Q498.9 1282.2 498.3 1281.3Q497.7 1280.4 497.7 1279.3L497.7 1279.3L499.4 1279.3Q499.4 1280.5 500.3 1281.1Q501.1 1281.8 502.5 1281.8L502.5 1281.8Q503.9 1281.8 504.6 1281.3Q505.3 1280.7 505.3 1279.8Q505.3 1278.8 504.6 1278.3Q504.0 1277.8 502.3 1277.3ZM511.9 1270.2L513.9 1279.0L514.2 1280.7L514.5 1279.1L517.1 1270.2L518.5 1270.2L521.0 1279.1L521.3 1280.7L521.6 1279.0L523.6 1270.2L525.3 1270.2L522.2 1283L520.6 1283L518.0 1273.7L517.8 1272.7L517.6 1273.7L514.8 1283L513.3 1283L510.2 1270.2L511.9 1270.2ZM530.9 1270.2L530.9 1283L529.3 1283L529.3 1270.2L530.9 1270.2ZM540.7 1278.0L537.7 1278.0L537.7 1283L536.0 1283L536.0 1270.2L540.7 1270.2Q542.8 1270.2 544.0 1271.3Q545.2 1272.3 545.2 1274.1L545.2 1274.1Q545.2 1276.0 544.1 1277.0Q542.9 1278.0 540.7 1278.0L540.7 1278.0ZM537.7 1271.6L537.7 1276.6L540.7 1276.6Q542.1 1276.6 542.8 1276.0Q543.5 1275.3 543.5 1274.1L543.5 1274.1Q543.5 1273.0 542.8 1272.3Q542.1 1271.6 540.8 1271.6L540.8 1271.6L537.7 1271.6ZM556.6 1275.7L556.6 1277.1L551.1 1277.1L551.1 1281.6L557.5 1281.6L557.5 1283L549.4 1283L549.4 1270.2L557.4 1270.2L557.4 1271.6L551.1 1271.6L551.1 1275.7L556.6 1275.7Z " opacity="0.6"/></g><mask id="satori_om-id-5-1"><rect x="573" y="1262" width="11" height="28" fill="#fff" mask="url(#satori_om-id)"/></mask><g opacity="0.6"></g><g mask="url(#satori_om-id)" clip-path="url(#satori_cp-id)"><path fill="rgba(255, 255, 255, 0.85)" d="M582.5 1266.9L582.5 1284L574.2 1284L574.2 1266.9L582.5 1266.9ZM578.6 1275.5L581.8 1283.0L581.8 1267.9L578.6 1275.5ZM577.9 1275.5L574.8 1268.1L574.8 1282.9L577.9 1275.5ZM578.3 1276.3L575.3 1283.4L581.3 1283.4L578.3 1276.3ZM575.3 1267.6L578.3 1274.7L581.3 1267.6L575.3 1267.6Z " opacity="0.6"/></g></svg>